G04 #@! TF.GenerationSoftware,KiCad,Pcbnew,(6.0.5)*
G04 #@! TF.CreationDate,2022-12-06T20:46:01-06:00*
G04 #@! TF.ProjectId,SofleKeyboardBottomPlate,536f666c-654b-4657-9962-6f617264426f,rev?*
G04 #@! TF.SameCoordinates,Original*
G04 #@! TF.FileFunction,Profile,NP*
%FSLAX46Y46*%
G04 Gerber Fmt 4.6, Leading zero omitted, Abs format (unit mm)*
G04 Created by KiCad (PCBNEW (6.0.5)) date 2022-12-06 20:46:01*
%MOMM*%
%LPD*%
G01*
G04 APERTURE LIST*
G04 #@! TA.AperFunction,Profile*
%ADD10C,0.100000*%
G04 #@! TD*
G04 #@! TA.AperFunction,Profile*
%ADD11C,0.110000*%
G04 #@! TD*
G04 APERTURE END LIST*
D10*
X225381081Y-44001407D02*
X225467481Y-44182272D01*
X92647200Y-146203600D02*
X82397200Y-128403600D01*
X171047200Y-35003600D02*
X224572641Y-43448746D01*
X88372457Y-114403600D02*
X88297200Y-115053600D01*
X93447200Y-146653600D02*
X93997200Y-146753600D01*
X82247200Y-127903600D02*
X82197200Y-127303600D01*
X92997200Y-146503600D02*
X93447200Y-146653600D01*
X224774311Y-43500376D02*
X224959071Y-43585066D01*
X224504214Y-119875263D02*
X187597200Y-134003600D01*
X88297200Y-115053600D02*
X88097200Y-115653600D01*
X82197200Y-127303600D02*
X82197200Y-126903600D01*
X92647200Y-146203600D02*
X92997200Y-146503600D01*
X224572641Y-43448746D02*
X224774311Y-43500376D01*
X225540381Y-44585502D02*
X225576200Y-118103600D01*
X225521581Y-44378171D02*
X225540381Y-44585502D01*
X82297200Y-126403600D02*
X88097200Y-115653600D01*
X225467481Y-44182272D02*
X225521581Y-44378171D01*
X149097200Y-35003600D02*
X89524617Y-37413060D01*
X138251328Y-134003600D02*
X187597200Y-134003600D01*
X82397200Y-128403600D02*
X82247200Y-127903600D01*
X82197200Y-126903600D02*
X82297200Y-126403600D01*
X138251328Y-134003600D02*
X93997200Y-146753600D01*
X225123821Y-43699200D02*
X225265521Y-43839182D01*
X149097200Y-35003600D02*
X171047200Y-35003600D01*
X225265521Y-43839182D02*
X225381081Y-44001407D01*
X88372457Y-114403600D02*
X88372621Y-38565090D01*
X224959071Y-43585066D02*
X225123821Y-43699200D01*
X88372621Y-38565090D02*
X88396021Y-38332916D01*
D11*
X224504219Y-119875273D02*
G75*
G03*
X225576200Y-118103600I-926719J1770873D01*
G01*
D10*
X89076200Y-37503600D02*
X89292444Y-37436470D01*
X88710023Y-37750486D02*
X88880516Y-37609815D01*
X88880516Y-37609815D02*
X89076200Y-37503600D01*
X88396021Y-38332916D02*
X88463141Y-38116669D01*
X88569354Y-37920982D02*
X88710023Y-37750486D01*
X89292444Y-37436470D02*
X89524617Y-37413060D01*
X88463141Y-38116669D02*
X88569354Y-37920982D01*
M02*
