%FSLAX45Y45*%
G04 Gerber Fmt 4.5, Leading zero omitted, Abs format (unit mm)*
G04 Created by KiCad (PCBNEW (6.0.5)) date 2022-12-06 20:45:59*
%MOMM*%
%LPD*%
G01*
G04 APERTURE LIST*
%TA.AperFunction,Profile*%
%ADD10C,0.100000*%
%TD*%
%TA.AperFunction,Profile*%
%ADD11C,0.110000*%
%TD*%
%ADD12C,0.200000*%
G04 APERTURE END LIST*
D10*
X22538108Y-4400141D02*
X22546748Y-4418227D01*
X9264720Y-14620360D02*
X8239720Y-12840360D01*
X17104720Y-3500360D02*
X22457264Y-4344875D01*
X8837246Y-11440360D02*
X8829720Y-11505360D01*
X9344720Y-14665360D02*
X9399720Y-14675360D01*
X8224720Y-12790360D02*
X8219720Y-12730360D01*
X9299720Y-14650360D02*
X9344720Y-14665360D01*
X22477431Y-4350038D02*
X22495907Y-4358507D01*
X22450421Y-11987526D02*
X18759720Y-13400360D01*
X8829720Y-11505360D02*
X8809720Y-11565360D01*
X8219720Y-12730360D02*
X8219720Y-12690360D01*
X9264720Y-14620360D02*
X9299720Y-14650360D01*
X22457264Y-4344875D02*
X22477431Y-4350038D01*
X22554038Y-4458550D02*
X22557620Y-11810360D01*
X22552158Y-4437817D02*
X22554038Y-4458550D01*
X8229720Y-12640360D02*
X8809720Y-11565360D01*
X22546748Y-4418227D02*
X22552158Y-4437817D01*
X14909720Y-3500360D02*
X8952462Y-3741306D01*
X13825133Y-13400360D02*
X18759720Y-13400360D01*
X8239720Y-12840360D02*
X8224720Y-12790360D01*
X8219720Y-12690360D02*
X8229720Y-12640360D01*
X13825133Y-13400360D02*
X9399720Y-14675360D01*
X22512382Y-4369920D02*
X22526552Y-4383918D01*
X14909720Y-3500360D02*
X17104720Y-3500360D01*
X22526552Y-4383918D02*
X22538108Y-4400141D01*
X8837246Y-11440360D02*
X8837262Y-3856509D01*
X22495907Y-4358507D02*
X22512382Y-4369920D01*
X8837262Y-3856509D02*
X8839602Y-3833292D01*
D11*
X22450422Y-11987527D02*
G75*
G03*
X22557620Y-11810360I-92672J177087D01*
G01*
D10*
X8907620Y-3750360D02*
X8929244Y-3743647D01*
X8871002Y-3775049D02*
X8888052Y-3760981D01*
X8888052Y-3760981D02*
X8907620Y-3750360D01*
X8839602Y-3833292D02*
X8846314Y-3811667D01*
X8856935Y-3792098D02*
X8871002Y-3775049D01*
X8929244Y-3743647D02*
X8952462Y-3741306D01*
X8846314Y-3811667D02*
X8856935Y-3792098D01*
D12*
X8472339Y-14990836D02*
X8472339Y-14790836D01*
X8519958Y-14790836D01*
X8548530Y-14800360D01*
X8567577Y-14819408D01*
X8577101Y-14838455D01*
X8586625Y-14876550D01*
X8586625Y-14905122D01*
X8577101Y-14943217D01*
X8567577Y-14962265D01*
X8548530Y-14981312D01*
X8519958Y-14990836D01*
X8472339Y-14990836D01*
X8672339Y-14990836D02*
X8672339Y-14857503D01*
X8672339Y-14895598D02*
X8681863Y-14876550D01*
X8691387Y-14867027D01*
X8710434Y-14857503D01*
X8729482Y-14857503D01*
X8796149Y-14990836D02*
X8796149Y-14857503D01*
X8796149Y-14790836D02*
X8786625Y-14800360D01*
X8796149Y-14809884D01*
X8805672Y-14800360D01*
X8796149Y-14790836D01*
X8796149Y-14809884D01*
X8919958Y-14990836D02*
X8900910Y-14981312D01*
X8891387Y-14962265D01*
X8891387Y-14790836D01*
X9024720Y-14990836D02*
X9005672Y-14981312D01*
X8996149Y-14962265D01*
X8996149Y-14790836D01*
X9253291Y-14990836D02*
X9253291Y-14790836D01*
X9319958Y-14933693D01*
X9386625Y-14790836D01*
X9386625Y-14990836D01*
X9567577Y-14990836D02*
X9567577Y-14886074D01*
X9558053Y-14867027D01*
X9539006Y-14857503D01*
X9500910Y-14857503D01*
X9481863Y-14867027D01*
X9567577Y-14981312D02*
X9548530Y-14990836D01*
X9500910Y-14990836D01*
X9481863Y-14981312D01*
X9472339Y-14962265D01*
X9472339Y-14943217D01*
X9481863Y-14924169D01*
X9500910Y-14914646D01*
X9548530Y-14914646D01*
X9567577Y-14905122D01*
X9662815Y-14857503D02*
X9662815Y-15057503D01*
X9662815Y-14867027D02*
X9681863Y-14857503D01*
X9719958Y-14857503D01*
X9739006Y-14867027D01*
X9748530Y-14876550D01*
X9758053Y-14895598D01*
X9758053Y-14952741D01*
X9748530Y-14971788D01*
X9739006Y-14981312D01*
X9719958Y-14990836D01*
X9681863Y-14990836D01*
X9662815Y-14981312D01*
X9843768Y-14971788D02*
X9853291Y-14981312D01*
X9843768Y-14990836D01*
X9834244Y-14981312D01*
X9843768Y-14971788D01*
X9843768Y-14990836D01*
X9843768Y-14867027D02*
X9853291Y-14876550D01*
X9843768Y-14886074D01*
X9834244Y-14876550D01*
X9843768Y-14867027D01*
X9843768Y-14886074D01*
M02*
