G04 #@! TF.GenerationSoftware,KiCad,Pcbnew,(6.0.5)*
G04 #@! TF.CreationDate,2022-12-06T20:46:01-06:00*
G04 #@! TF.ProjectId,SofleKeyboardBottomPlate,536f666c-654b-4657-9962-6f617264426f,rev?*
G04 #@! TF.SameCoordinates,Original*
G04 #@! TF.FileFunction,Copper,L2,Bot*
G04 #@! TF.FilePolarity,Positive*
%FSLAX46Y46*%
G04 Gerber Fmt 4.6, Leading zero omitted, Abs format (unit mm)*
G04 Created by KiCad (PCBNEW (6.0.5)) date 2022-12-06 20:46:01*
%MOMM*%
%LPD*%
G01*
G04 APERTURE LIST*
%ADD10C,0.100000*%
G04 #@! TA.AperFunction,NonConductor*
%ADD11C,0.100000*%
G04 #@! TD*
G04 #@! TA.AperFunction,ComponentPad*
%ADD12C,4.700000*%
G04 #@! TD*
G04 APERTURE END LIST*
D10*
D11*
X215565871Y-122229923D02*
X215472562Y-122306119D01*
X215294500Y-122373759D01*
X215209747Y-122365202D01*
X215160607Y-122343118D01*
X215097939Y-122285421D01*
X215070883Y-122214196D01*
X215079440Y-122129443D01*
X215101524Y-122080303D01*
X215159221Y-122017635D01*
X215288143Y-121927911D01*
X215345840Y-121865243D01*
X215367924Y-121816102D01*
X215376481Y-121731350D01*
X215349425Y-121660125D01*
X215286757Y-121602428D01*
X215237617Y-121580343D01*
X215152864Y-121571787D01*
X214974802Y-121639426D01*
X214881493Y-121715622D01*
X214724701Y-122590205D02*
X214782398Y-122527537D01*
X214804483Y-122478396D01*
X214813040Y-122393644D01*
X214731872Y-122179969D01*
X214669204Y-122122272D01*
X214620064Y-122100188D01*
X214535311Y-122091631D01*
X214428474Y-122132215D01*
X214370777Y-122194883D01*
X214348692Y-122244023D01*
X214340136Y-122328776D01*
X214421303Y-122542451D01*
X214483971Y-122600147D01*
X214533112Y-122622232D01*
X214617864Y-122630789D01*
X214724701Y-122590205D01*
X214072350Y-122267494D02*
X213787451Y-122375717D01*
X214154903Y-122806651D02*
X213911401Y-122165628D01*
X213848733Y-122107931D01*
X213763980Y-122099374D01*
X213692755Y-122126430D01*
X213620717Y-123009569D02*
X213678414Y-122946901D01*
X213686970Y-122862148D01*
X213443468Y-122221125D01*
X213037390Y-123190403D02*
X213122143Y-123198960D01*
X213264593Y-123144848D01*
X213322290Y-123082180D01*
X213330846Y-122997427D01*
X213222623Y-122712528D01*
X213159955Y-122654831D01*
X213075202Y-122646275D01*
X212932753Y-122700386D01*
X212875056Y-122763054D01*
X212866499Y-122847807D01*
X212893555Y-122919032D01*
X213276735Y-122854978D01*
X211670591Y-123668850D02*
X211719731Y-123690935D01*
X211840096Y-123685964D01*
X211911321Y-123658908D01*
X212004631Y-123582712D01*
X212048800Y-123484431D01*
X212057356Y-123399678D01*
X212038857Y-123243701D01*
X211998274Y-123136864D01*
X211908550Y-123007942D01*
X211845881Y-122950245D01*
X211747601Y-122906076D01*
X211627236Y-122911047D01*
X211556011Y-122938103D01*
X211462702Y-123014299D01*
X211440617Y-123063439D01*
X211377135Y-123861826D02*
X211093050Y-123113966D01*
X211056624Y-123983577D02*
X210907817Y-123591841D01*
X210916373Y-123507088D01*
X210974070Y-123444420D01*
X211080908Y-123403836D01*
X211165660Y-123412393D01*
X211214801Y-123434477D01*
X210593662Y-124159440D02*
X210651359Y-124096771D01*
X210673444Y-124047631D01*
X210682000Y-123962878D01*
X210600833Y-123749204D01*
X210538165Y-123691507D01*
X210489025Y-123669422D01*
X210404272Y-123660866D01*
X210297435Y-123701449D01*
X210239738Y-123764118D01*
X210217653Y-123813258D01*
X210209097Y-123898011D01*
X210290264Y-124111685D01*
X210352932Y-124169382D01*
X210402072Y-124191467D01*
X210486825Y-124200023D01*
X210593662Y-124159440D01*
X209689824Y-124462024D02*
X209774577Y-124470581D01*
X209917027Y-124416469D01*
X209974723Y-124353801D01*
X209996808Y-124304661D01*
X210005365Y-124219908D01*
X209924197Y-124006234D01*
X209861529Y-123948537D01*
X209812389Y-123926452D01*
X209727636Y-123917896D01*
X209585187Y-123972007D01*
X209527490Y-124034675D01*
X208600181Y-124060917D02*
X208706205Y-124876417D01*
X208360837Y-124396343D01*
X208421305Y-124984640D01*
X207959158Y-124304419D01*
X207958344Y-125160503D02*
X207768954Y-124661929D01*
X207674259Y-124412642D02*
X207723399Y-124434727D01*
X207701314Y-124483867D01*
X207652174Y-124461783D01*
X207674259Y-124412642D01*
X207701314Y-124483867D01*
X207602220Y-125295782D02*
X207412830Y-124797208D01*
X207466941Y-124939658D02*
X207404273Y-124881961D01*
X207355133Y-124859876D01*
X207270380Y-124851320D01*
X207199155Y-124878375D01*
X206840832Y-125544255D02*
X206925584Y-125552812D01*
X207068034Y-125498700D01*
X207125731Y-125436032D01*
X207134288Y-125351279D01*
X207026064Y-125066380D01*
X206963396Y-125008683D01*
X206878644Y-125000126D01*
X206736194Y-125054238D01*
X206678497Y-125116906D01*
X206669940Y-125201659D01*
X206696996Y-125272884D01*
X207080176Y-125208830D01*
X206391398Y-125755730D02*
X206449095Y-125693062D01*
X206457652Y-125608309D01*
X206214150Y-124967286D01*
X205808072Y-125936564D02*
X205892825Y-125945120D01*
X206035274Y-125891009D01*
X206092971Y-125828341D01*
X206101528Y-125743588D01*
X205993305Y-125458689D01*
X205930637Y-125400992D01*
X205845884Y-125392435D01*
X205703434Y-125446547D01*
X205645737Y-125509215D01*
X205637181Y-125593967D01*
X205664236Y-125665192D01*
X206047416Y-125601138D01*
X205487560Y-126058315D02*
X205429863Y-126120983D01*
X205287414Y-126175094D01*
X205202661Y-126166538D01*
X205139993Y-126108841D01*
X205126465Y-126073228D01*
X205135022Y-125988476D01*
X205192718Y-125925807D01*
X205299556Y-125885224D01*
X205357253Y-125822556D01*
X205365809Y-125737803D01*
X205352281Y-125702191D01*
X205289613Y-125644494D01*
X205204860Y-125635937D01*
X205098023Y-125676521D01*
X205040326Y-125739189D01*
X204882149Y-126288289D02*
X204824452Y-126350957D01*
X204682003Y-126405068D01*
X204597250Y-126396512D01*
X204534582Y-126338815D01*
X204521054Y-126303202D01*
X204529611Y-126218450D01*
X204587308Y-126155781D01*
X204694145Y-126115198D01*
X204751842Y-126052530D01*
X204760398Y-125967777D01*
X204746870Y-125932165D01*
X204684202Y-125874468D01*
X204599450Y-125865911D01*
X204492612Y-125906495D01*
X204434915Y-125969163D01*
X203576632Y-126498950D02*
X203006834Y-126715396D01*
X202189134Y-127352020D02*
X201999744Y-126853447D01*
X202053855Y-126995896D02*
X201991187Y-126938199D01*
X201942047Y-126916115D01*
X201857294Y-126907558D01*
X201786069Y-126934614D01*
X201427746Y-127600493D02*
X201512499Y-127609050D01*
X201654948Y-127554938D01*
X201712645Y-127492270D01*
X201721202Y-127407518D01*
X201612979Y-127122618D01*
X201550310Y-127064921D01*
X201465558Y-127056365D01*
X201323108Y-127110476D01*
X201265411Y-127173145D01*
X201256855Y-127257897D01*
X201283910Y-127329122D01*
X201667090Y-127265068D01*
X200966984Y-127245755D02*
X200978312Y-127811968D01*
X200610860Y-127381034D01*
X200515351Y-127987831D02*
X200325961Y-127489257D01*
X200231266Y-127239970D02*
X200280406Y-127262055D01*
X200258321Y-127311195D01*
X200209181Y-127289111D01*
X200231266Y-127239970D01*
X200258321Y-127311195D01*
X200181312Y-128073969D02*
X200123615Y-128136638D01*
X199981165Y-128190749D01*
X199896412Y-128182192D01*
X199833744Y-128124495D01*
X199820216Y-128088883D01*
X199828773Y-128004130D01*
X199886470Y-127941462D01*
X199993307Y-127900879D01*
X200051004Y-127838210D01*
X200059561Y-127753458D01*
X200046033Y-127717845D01*
X199983365Y-127660148D01*
X199898612Y-127651592D01*
X199791775Y-127692175D01*
X199734078Y-127754844D01*
X199553816Y-128353084D02*
X199364426Y-127854510D01*
X199269731Y-127605223D02*
X199318871Y-127627308D01*
X199296786Y-127676448D01*
X199247646Y-127654363D01*
X199269731Y-127605223D01*
X199296786Y-127676448D01*
X199090855Y-128528946D02*
X199148552Y-128466278D01*
X199170636Y-128417138D01*
X199179193Y-128332385D01*
X199098026Y-128118711D01*
X199035357Y-128061014D01*
X198986217Y-128038929D01*
X198901465Y-128030372D01*
X198794627Y-128070956D01*
X198736930Y-128133624D01*
X198714846Y-128182765D01*
X198706289Y-128267517D01*
X198787457Y-128481192D01*
X198850125Y-128538889D01*
X198899265Y-128560973D01*
X198984018Y-128569530D01*
X199090855Y-128528946D01*
X198331666Y-128246819D02*
X198521056Y-128745392D01*
X198358722Y-128318043D02*
X198309581Y-128295959D01*
X198224829Y-128287402D01*
X198117992Y-128327986D01*
X198060295Y-128390654D01*
X198051738Y-128475407D01*
X198200545Y-128867143D01*
X197274622Y-129218868D02*
X196990537Y-128471008D01*
X197098760Y-128755907D02*
X197014007Y-128747350D01*
X196871557Y-128801462D01*
X196813860Y-128864130D01*
X196791776Y-128913270D01*
X196783219Y-128998023D01*
X196864387Y-129211697D01*
X196927055Y-129269394D01*
X196976195Y-129291479D01*
X197060948Y-129300036D01*
X197203397Y-129245924D01*
X197261094Y-129183256D01*
X196479821Y-128950269D02*
X196491149Y-129516482D01*
X196123697Y-129085547D02*
X196491149Y-129516482D01*
X196630013Y-129667488D01*
X196679154Y-129689572D01*
X196763906Y-129698129D01*
X195137878Y-130030541D02*
X194853792Y-129282681D01*
X195124350Y-129994929D02*
X195209103Y-130003486D01*
X195351552Y-129949374D01*
X195409249Y-129886706D01*
X195431334Y-129837566D01*
X195439890Y-129752813D01*
X195358723Y-129539138D01*
X195296055Y-129481441D01*
X195246914Y-129459357D01*
X195162162Y-129450800D01*
X195019712Y-129504912D01*
X194962015Y-129567580D01*
X194781754Y-130165820D02*
X194497668Y-129417960D01*
X194605891Y-129702859D02*
X194521138Y-129694302D01*
X194378689Y-129748414D01*
X194320992Y-129811082D01*
X194298907Y-129860222D01*
X194290351Y-129944975D01*
X194371518Y-130158649D01*
X194434186Y-130216346D01*
X194483327Y-130238431D01*
X194568079Y-130246987D01*
X194710529Y-130192876D01*
X194768226Y-130130208D01*
D12*
X206097200Y-61503600D03*
X130555000Y-57495000D03*
X206097200Y-100003600D03*
X130355000Y-95775000D03*
X103000000Y-119000000D03*
G04 #@! TA.AperFunction,NonConductor*
G36*
X171017089Y-35513640D02*
G01*
X182949515Y-37396316D01*
X224463867Y-43946374D01*
X224475480Y-43948771D01*
X224592981Y-43978853D01*
X224614234Y-43986376D01*
X224696281Y-44023985D01*
X224715529Y-44034950D01*
X224788901Y-44085781D01*
X224805697Y-44099716D01*
X224869121Y-44162370D01*
X224883196Y-44178904D01*
X224934940Y-44251543D01*
X224946007Y-44270333D01*
X224984488Y-44350887D01*
X224992247Y-44371654D01*
X225016270Y-44458645D01*
X225020301Y-44480806D01*
X225031318Y-44602300D01*
X225031380Y-44602987D01*
X225031895Y-44614300D01*
X225041410Y-64143776D01*
X225067676Y-118054454D01*
X225066184Y-118073849D01*
X225063884Y-118088661D01*
X225062507Y-118097530D01*
X225064583Y-118113360D01*
X225065365Y-118138257D01*
X225054574Y-118297491D01*
X225052257Y-118314457D01*
X225021034Y-118465528D01*
X225014705Y-118496151D01*
X225010103Y-118512660D01*
X224948239Y-118687583D01*
X224941438Y-118703315D01*
X224856410Y-118868218D01*
X224847547Y-118882867D01*
X224766848Y-118997789D01*
X224740920Y-119034713D01*
X224730145Y-119048030D01*
X224603894Y-119184005D01*
X224591415Y-119195732D01*
X224447883Y-119313310D01*
X224433932Y-119323233D01*
X224304031Y-119402910D01*
X224284793Y-119411941D01*
X224280093Y-119414328D01*
X224271596Y-119417216D01*
X224265180Y-119421721D01*
X224255998Y-119425796D01*
X216521040Y-122386808D01*
X216450271Y-122392481D01*
X216387668Y-122358993D01*
X216358206Y-122313878D01*
X215685975Y-120544217D01*
X215685974Y-120544215D01*
X215679541Y-120527281D01*
X215666880Y-120532091D01*
X215666877Y-120532091D01*
X193213608Y-129061288D01*
X193213606Y-129061289D01*
X193196672Y-129067722D01*
X193201482Y-129080384D01*
X193201482Y-129080385D01*
X193897523Y-130912724D01*
X193903015Y-130983508D01*
X193869366Y-131046025D01*
X193824782Y-131075140D01*
X189428875Y-132757933D01*
X187524950Y-133486773D01*
X187479904Y-133495100D01*
X138301952Y-133495100D01*
X138282073Y-133493522D01*
X138276978Y-133492708D01*
X138259647Y-133489939D01*
X138221842Y-133494729D01*
X138218093Y-133495100D01*
X138214815Y-133495100D01*
X138210383Y-133495735D01*
X138210379Y-133495735D01*
X138195452Y-133497873D01*
X138184330Y-133499466D01*
X138182345Y-133499734D01*
X138174441Y-133500736D01*
X138153453Y-133503395D01*
X138153450Y-133503396D01*
X138148617Y-133504008D01*
X138145453Y-133504920D01*
X138141818Y-133505554D01*
X138133939Y-133506682D01*
X138116028Y-133509247D01*
X138116026Y-133509248D01*
X138107141Y-133510520D01*
X138082898Y-133521543D01*
X138065630Y-133527917D01*
X93999298Y-146223812D01*
X93941875Y-146226705D01*
X93582527Y-146161369D01*
X93565222Y-146156935D01*
X93275914Y-146060498D01*
X93233759Y-146036630D01*
X93060749Y-145888336D01*
X93033559Y-145855547D01*
X82874598Y-128213644D01*
X82863102Y-128186973D01*
X82753314Y-127821013D01*
X82748435Y-127795271D01*
X82706135Y-127287672D01*
X82705700Y-127277208D01*
X82705700Y-126966426D01*
X82708147Y-126941715D01*
X82745810Y-126753400D01*
X82777185Y-126596524D01*
X82789848Y-126561407D01*
X82932848Y-126296365D01*
X84500727Y-123390382D01*
X86884494Y-118972194D01*
X100344801Y-118972194D01*
X100344990Y-118975986D01*
X100354302Y-119163034D01*
X100360691Y-119291382D01*
X100361332Y-119295113D01*
X100361333Y-119295121D01*
X100382872Y-119420468D01*
X100414812Y-119606350D01*
X100415900Y-119609989D01*
X100415901Y-119609992D01*
X100421894Y-119630029D01*
X100506381Y-119912535D01*
X100507894Y-119916006D01*
X100507896Y-119916012D01*
X100555368Y-120024929D01*
X100634070Y-120205501D01*
X100796031Y-120481006D01*
X100798332Y-120484021D01*
X100987617Y-120732044D01*
X100987622Y-120732049D01*
X100989917Y-120735057D01*
X101212920Y-120963976D01*
X101281408Y-121019140D01*
X101458856Y-121162068D01*
X101458861Y-121162072D01*
X101461809Y-121164446D01*
X101732979Y-121333563D01*
X102022502Y-121468877D01*
X102026112Y-121470060D01*
X102026116Y-121470062D01*
X102208863Y-121529970D01*
X102326185Y-121568430D01*
X102639628Y-121630777D01*
X102643400Y-121631064D01*
X102643408Y-121631065D01*
X102954515Y-121654730D01*
X102954520Y-121654730D01*
X102958292Y-121655017D01*
X103277559Y-121640799D01*
X103281297Y-121640177D01*
X103281305Y-121640176D01*
X103589072Y-121588949D01*
X103589080Y-121588947D01*
X103592806Y-121588327D01*
X103899466Y-121498363D01*
X104193097Y-121372209D01*
X104196375Y-121370305D01*
X104196381Y-121370302D01*
X104357126Y-121276933D01*
X104469445Y-121211693D01*
X104724509Y-121019140D01*
X104954592Y-120797339D01*
X105005298Y-120735057D01*
X105153965Y-120552447D01*
X105156362Y-120549503D01*
X105326897Y-120279222D01*
X105463725Y-119990411D01*
X105488547Y-119916012D01*
X105563669Y-119690841D01*
X105564866Y-119687254D01*
X105628854Y-119374141D01*
X105654763Y-119055609D01*
X105655345Y-119000000D01*
X105653898Y-118975986D01*
X105636341Y-118684773D01*
X105636341Y-118684769D01*
X105636113Y-118680995D01*
X105578697Y-118366611D01*
X105557233Y-118297484D01*
X105500058Y-118113353D01*
X105483927Y-118061402D01*
X105353176Y-117769789D01*
X105188339Y-117495996D01*
X105186012Y-117493012D01*
X105186007Y-117493005D01*
X104994140Y-117246984D01*
X104994138Y-117246981D01*
X104991804Y-117243989D01*
X104766416Y-117017418D01*
X104635725Y-116914390D01*
X104518419Y-116821913D01*
X104518412Y-116821908D01*
X104515441Y-116819566D01*
X104242515Y-116653297D01*
X103951591Y-116521022D01*
X103646882Y-116424655D01*
X103507342Y-116398415D01*
X103336527Y-116366293D01*
X103336522Y-116366292D01*
X103332803Y-116365593D01*
X103013903Y-116344691D01*
X103010124Y-116344899D01*
X103010122Y-116344899D01*
X102913214Y-116350232D01*
X102694802Y-116362253D01*
X102691075Y-116362914D01*
X102691071Y-116362914D01*
X102437324Y-116407884D01*
X102380122Y-116418022D01*
X102376497Y-116419127D01*
X102376492Y-116419128D01*
X102138656Y-116491616D01*
X102074421Y-116511193D01*
X101782127Y-116640415D01*
X101507475Y-116803816D01*
X101504474Y-116806132D01*
X101504470Y-116806134D01*
X101257445Y-116996712D01*
X101254442Y-116999029D01*
X101026694Y-117223227D01*
X100827530Y-117473163D01*
X100659835Y-117745215D01*
X100526038Y-118035443D01*
X100428078Y-118339643D01*
X100427359Y-118343359D01*
X100427357Y-118343367D01*
X100422860Y-118366611D01*
X100367372Y-118653408D01*
X100367105Y-118657184D01*
X100367104Y-118657189D01*
X100345069Y-118968405D01*
X100344801Y-118972194D01*
X86884494Y-118972194D01*
X88510839Y-115957847D01*
X88513022Y-115954339D01*
X88515773Y-115951449D01*
X88547460Y-115890017D01*
X88548551Y-115887949D01*
X88559927Y-115866864D01*
X88562057Y-115862917D01*
X88563291Y-115859563D01*
X88564734Y-115856575D01*
X88564845Y-115856312D01*
X88567078Y-115851983D01*
X88576098Y-115824923D01*
X88577381Y-115821264D01*
X88596512Y-115769264D01*
X88596513Y-115769262D01*
X88599613Y-115760834D01*
X88600051Y-115754400D01*
X88602048Y-115747073D01*
X88756663Y-115283229D01*
X88760739Y-115272621D01*
X88763223Y-115266937D01*
X88767946Y-115259306D01*
X88783165Y-115204260D01*
X88785072Y-115198003D01*
X88789735Y-115184014D01*
X88791152Y-115179762D01*
X88791952Y-115175352D01*
X88791955Y-115175341D01*
X88792458Y-115172570D01*
X88794987Y-115161501D01*
X88796470Y-115156135D01*
X88797770Y-115151435D01*
X88798332Y-115146584D01*
X88799912Y-115132945D01*
X88801099Y-115124945D01*
X88810573Y-115072737D01*
X88809632Y-115063804D01*
X88809966Y-115054838D01*
X88810352Y-115054852D01*
X88810416Y-115042206D01*
X88876034Y-114475458D01*
X88876696Y-114470577D01*
X88880208Y-114448026D01*
X88880208Y-114448024D01*
X88880957Y-114443215D01*
X88880957Y-114438339D01*
X88881010Y-114437654D01*
X88881080Y-114434499D01*
X88881267Y-114430260D01*
X88881782Y-114425813D01*
X88881003Y-114396947D01*
X88880957Y-114393549D01*
X88880988Y-99975794D01*
X203442001Y-99975794D01*
X203457891Y-100294982D01*
X203458532Y-100298713D01*
X203458533Y-100298721D01*
X203471461Y-100373954D01*
X203512012Y-100609950D01*
X203603581Y-100916135D01*
X203605094Y-100919606D01*
X203605096Y-100919612D01*
X203692461Y-101120059D01*
X203731270Y-101209101D01*
X203893231Y-101484606D01*
X203895532Y-101487621D01*
X204084817Y-101735644D01*
X204084822Y-101735649D01*
X204087117Y-101738657D01*
X204310120Y-101967576D01*
X204378608Y-102022740D01*
X204556056Y-102165668D01*
X204556061Y-102165672D01*
X204559009Y-102168046D01*
X204830179Y-102337163D01*
X205119702Y-102472477D01*
X205123312Y-102473660D01*
X205123316Y-102473662D01*
X205306063Y-102533570D01*
X205423385Y-102572030D01*
X205736828Y-102634377D01*
X205740600Y-102634664D01*
X205740608Y-102634665D01*
X206051715Y-102658330D01*
X206051720Y-102658330D01*
X206055492Y-102658617D01*
X206374759Y-102644399D01*
X206378497Y-102643777D01*
X206378505Y-102643776D01*
X206686272Y-102592549D01*
X206686280Y-102592547D01*
X206690006Y-102591927D01*
X206996666Y-102501963D01*
X207290297Y-102375809D01*
X207293575Y-102373905D01*
X207293581Y-102373902D01*
X207454326Y-102280533D01*
X207566645Y-102215293D01*
X207821709Y-102022740D01*
X208051792Y-101800939D01*
X208102498Y-101738657D01*
X208251165Y-101556047D01*
X208253562Y-101553103D01*
X208424097Y-101282822D01*
X208560925Y-100994011D01*
X208585747Y-100919612D01*
X208660869Y-100694441D01*
X208662066Y-100690854D01*
X208726054Y-100377741D01*
X208751963Y-100059209D01*
X208752545Y-100003600D01*
X208751098Y-99979586D01*
X208733541Y-99688373D01*
X208733541Y-99688369D01*
X208733313Y-99684595D01*
X208675897Y-99370211D01*
X208581127Y-99065002D01*
X208450376Y-98773389D01*
X208285539Y-98499596D01*
X208283212Y-98496612D01*
X208283207Y-98496605D01*
X208091340Y-98250584D01*
X208091338Y-98250581D01*
X208089004Y-98247589D01*
X207863616Y-98021018D01*
X207732925Y-97917990D01*
X207615619Y-97825513D01*
X207615612Y-97825508D01*
X207612641Y-97823166D01*
X207568747Y-97796425D01*
X207469979Y-97736255D01*
X207339715Y-97656897D01*
X207048791Y-97524622D01*
X206744082Y-97428255D01*
X206604542Y-97402015D01*
X206433727Y-97369893D01*
X206433722Y-97369892D01*
X206430003Y-97369193D01*
X206111103Y-97348291D01*
X206107324Y-97348499D01*
X206107322Y-97348499D01*
X206010414Y-97353832D01*
X205792002Y-97365853D01*
X205788275Y-97366514D01*
X205788271Y-97366514D01*
X205534524Y-97411484D01*
X205477322Y-97421622D01*
X205473697Y-97422727D01*
X205473692Y-97422728D01*
X205235856Y-97495216D01*
X205171621Y-97514793D01*
X204879327Y-97644015D01*
X204604675Y-97807416D01*
X204601674Y-97809732D01*
X204601670Y-97809734D01*
X204354645Y-98000312D01*
X204351642Y-98002629D01*
X204123894Y-98226827D01*
X203924730Y-98476763D01*
X203757035Y-98748815D01*
X203623238Y-99039043D01*
X203525278Y-99343243D01*
X203524559Y-99346959D01*
X203524557Y-99346967D01*
X203520060Y-99370211D01*
X203464572Y-99657008D01*
X203464305Y-99660784D01*
X203464304Y-99660789D01*
X203462351Y-99688373D01*
X203442001Y-99975794D01*
X88880988Y-99975794D01*
X88880997Y-95747194D01*
X127699801Y-95747194D01*
X127715691Y-96066382D01*
X127716332Y-96070113D01*
X127716333Y-96070121D01*
X127729261Y-96145354D01*
X127769812Y-96381350D01*
X127861381Y-96687535D01*
X127862894Y-96691006D01*
X127862896Y-96691012D01*
X127950261Y-96891459D01*
X127989070Y-96980501D01*
X128151031Y-97256006D01*
X128153332Y-97259021D01*
X128342617Y-97507044D01*
X128342622Y-97507049D01*
X128344917Y-97510057D01*
X128567920Y-97738976D01*
X128672444Y-97823166D01*
X128813856Y-97937068D01*
X128813861Y-97937072D01*
X128816809Y-97939446D01*
X129087979Y-98108563D01*
X129377502Y-98243877D01*
X129381112Y-98245060D01*
X129381116Y-98245062D01*
X129563863Y-98304970D01*
X129681185Y-98343430D01*
X129994628Y-98405777D01*
X129998400Y-98406064D01*
X129998408Y-98406065D01*
X130309515Y-98429730D01*
X130309520Y-98429730D01*
X130313292Y-98430017D01*
X130632559Y-98415799D01*
X130636297Y-98415177D01*
X130636305Y-98415176D01*
X130944072Y-98363949D01*
X130944080Y-98363947D01*
X130947806Y-98363327D01*
X131254466Y-98273363D01*
X131548097Y-98147209D01*
X131551375Y-98145305D01*
X131551381Y-98145302D01*
X131769384Y-98018675D01*
X131824445Y-97986693D01*
X132079509Y-97794140D01*
X132309592Y-97572339D01*
X132360298Y-97510057D01*
X132474979Y-97369193D01*
X132511362Y-97324503D01*
X132681897Y-97054222D01*
X132818725Y-96765411D01*
X132843547Y-96691012D01*
X132918669Y-96465841D01*
X132919866Y-96462254D01*
X132983854Y-96149141D01*
X133009763Y-95830609D01*
X133010345Y-95775000D01*
X133008898Y-95750986D01*
X132991341Y-95459773D01*
X132991341Y-95459769D01*
X132991113Y-95455995D01*
X132933697Y-95141611D01*
X132838927Y-94836402D01*
X132708176Y-94544789D01*
X132543339Y-94270996D01*
X132541012Y-94268012D01*
X132541007Y-94268005D01*
X132349140Y-94021984D01*
X132349138Y-94021981D01*
X132346804Y-94018989D01*
X132121416Y-93792418D01*
X131990725Y-93689390D01*
X131873419Y-93596913D01*
X131873412Y-93596908D01*
X131870441Y-93594566D01*
X131597515Y-93428297D01*
X131306591Y-93296022D01*
X131001882Y-93199655D01*
X130862342Y-93173415D01*
X130691527Y-93141293D01*
X130691522Y-93141292D01*
X130687803Y-93140593D01*
X130368903Y-93119691D01*
X130365124Y-93119899D01*
X130365122Y-93119899D01*
X130268214Y-93125232D01*
X130049802Y-93137253D01*
X130046075Y-93137914D01*
X130046071Y-93137914D01*
X129792324Y-93182884D01*
X129735122Y-93193022D01*
X129731497Y-93194127D01*
X129731492Y-93194128D01*
X129493656Y-93266616D01*
X129429421Y-93286193D01*
X129137127Y-93415415D01*
X128862475Y-93578816D01*
X128859474Y-93581132D01*
X128859470Y-93581134D01*
X128612445Y-93771712D01*
X128609442Y-93774029D01*
X128381694Y-93998227D01*
X128182530Y-94248163D01*
X128014835Y-94520215D01*
X127881038Y-94810443D01*
X127783078Y-95114643D01*
X127782359Y-95118359D01*
X127782357Y-95118367D01*
X127777860Y-95141611D01*
X127722372Y-95428408D01*
X127722105Y-95432184D01*
X127722104Y-95432189D01*
X127720151Y-95459773D01*
X127699801Y-95747194D01*
X88880997Y-95747194D01*
X88881071Y-61475794D01*
X203442001Y-61475794D01*
X203457891Y-61794982D01*
X203458532Y-61798713D01*
X203458533Y-61798721D01*
X203471461Y-61873954D01*
X203512012Y-62109950D01*
X203603581Y-62416135D01*
X203605094Y-62419606D01*
X203605096Y-62419612D01*
X203692461Y-62620059D01*
X203731270Y-62709101D01*
X203893231Y-62984606D01*
X203895532Y-62987621D01*
X204084817Y-63235644D01*
X204084822Y-63235649D01*
X204087117Y-63238657D01*
X204310120Y-63467576D01*
X204378608Y-63522740D01*
X204556056Y-63665668D01*
X204556061Y-63665672D01*
X204559009Y-63668046D01*
X204830179Y-63837163D01*
X205119702Y-63972477D01*
X205123312Y-63973660D01*
X205123316Y-63973662D01*
X205306063Y-64033570D01*
X205423385Y-64072030D01*
X205736828Y-64134377D01*
X205740600Y-64134664D01*
X205740608Y-64134665D01*
X206051715Y-64158330D01*
X206051720Y-64158330D01*
X206055492Y-64158617D01*
X206374759Y-64144399D01*
X206378497Y-64143777D01*
X206378505Y-64143776D01*
X206686272Y-64092549D01*
X206686280Y-64092547D01*
X206690006Y-64091927D01*
X206996666Y-64001963D01*
X207290297Y-63875809D01*
X207293575Y-63873905D01*
X207293581Y-63873902D01*
X207454326Y-63780533D01*
X207566645Y-63715293D01*
X207821709Y-63522740D01*
X208051792Y-63300939D01*
X208102498Y-63238657D01*
X208251165Y-63056047D01*
X208253562Y-63053103D01*
X208424097Y-62782822D01*
X208560925Y-62494011D01*
X208585747Y-62419612D01*
X208660869Y-62194441D01*
X208662066Y-62190854D01*
X208726054Y-61877741D01*
X208751963Y-61559209D01*
X208752545Y-61503600D01*
X208751098Y-61479586D01*
X208733541Y-61188373D01*
X208733541Y-61188369D01*
X208733313Y-61184595D01*
X208675897Y-60870211D01*
X208581127Y-60565002D01*
X208450376Y-60273389D01*
X208285539Y-59999596D01*
X208283212Y-59996612D01*
X208283207Y-59996605D01*
X208091340Y-59750584D01*
X208091338Y-59750581D01*
X208089004Y-59747589D01*
X207863616Y-59521018D01*
X207732925Y-59417990D01*
X207615619Y-59325513D01*
X207615612Y-59325508D01*
X207612641Y-59323166D01*
X207339715Y-59156897D01*
X207048791Y-59024622D01*
X206744082Y-58928255D01*
X206604542Y-58902015D01*
X206433727Y-58869893D01*
X206433722Y-58869892D01*
X206430003Y-58869193D01*
X206111103Y-58848291D01*
X206107324Y-58848499D01*
X206107322Y-58848499D01*
X206010414Y-58853832D01*
X205792002Y-58865853D01*
X205788275Y-58866514D01*
X205788271Y-58866514D01*
X205534524Y-58911484D01*
X205477322Y-58921622D01*
X205473697Y-58922727D01*
X205473692Y-58922728D01*
X205235856Y-58995216D01*
X205171621Y-59014793D01*
X204879327Y-59144015D01*
X204604675Y-59307416D01*
X204601674Y-59309732D01*
X204601670Y-59309734D01*
X204405137Y-59461358D01*
X204351642Y-59502629D01*
X204348944Y-59505285D01*
X204142411Y-59708599D01*
X204123894Y-59726827D01*
X203924730Y-59976763D01*
X203757035Y-60248815D01*
X203623238Y-60539043D01*
X203525278Y-60843243D01*
X203524559Y-60846959D01*
X203524557Y-60846967D01*
X203520060Y-60870211D01*
X203464572Y-61157008D01*
X203464305Y-61160784D01*
X203464304Y-61160789D01*
X203462351Y-61188373D01*
X203442001Y-61475794D01*
X88881071Y-61475794D01*
X88881080Y-57467194D01*
X127899801Y-57467194D01*
X127915691Y-57786382D01*
X127916332Y-57790113D01*
X127916333Y-57790121D01*
X127929261Y-57865354D01*
X127969812Y-58101350D01*
X128061381Y-58407535D01*
X128062894Y-58411006D01*
X128062896Y-58411012D01*
X128150261Y-58611459D01*
X128189070Y-58700501D01*
X128351031Y-58976006D01*
X128353332Y-58979021D01*
X128542617Y-59227044D01*
X128542622Y-59227049D01*
X128544917Y-59230057D01*
X128767920Y-59458976D01*
X128836408Y-59514140D01*
X129013856Y-59657068D01*
X129013861Y-59657072D01*
X129016809Y-59659446D01*
X129287979Y-59828563D01*
X129577502Y-59963877D01*
X129581112Y-59965060D01*
X129581116Y-59965062D01*
X129763863Y-60024970D01*
X129881185Y-60063430D01*
X130194628Y-60125777D01*
X130198400Y-60126064D01*
X130198408Y-60126065D01*
X130509515Y-60149730D01*
X130509520Y-60149730D01*
X130513292Y-60150017D01*
X130832559Y-60135799D01*
X130836297Y-60135177D01*
X130836305Y-60135176D01*
X131144072Y-60083949D01*
X131144080Y-60083947D01*
X131147806Y-60083327D01*
X131454466Y-59993363D01*
X131748097Y-59867209D01*
X131751375Y-59865305D01*
X131751381Y-59865302D01*
X131948881Y-59750584D01*
X132024445Y-59706693D01*
X132279509Y-59514140D01*
X132509592Y-59292339D01*
X132560298Y-59230057D01*
X132708965Y-59047447D01*
X132711362Y-59044503D01*
X132784709Y-58928255D01*
X132879875Y-58777427D01*
X132879876Y-58777424D01*
X132881897Y-58774222D01*
X133018725Y-58485411D01*
X133043547Y-58411012D01*
X133118669Y-58185841D01*
X133119866Y-58182254D01*
X133183854Y-57869141D01*
X133209763Y-57550609D01*
X133210345Y-57495000D01*
X133208898Y-57470986D01*
X133191341Y-57179773D01*
X133191341Y-57179769D01*
X133191113Y-57175995D01*
X133133697Y-56861611D01*
X133038927Y-56556402D01*
X132908176Y-56264789D01*
X132743339Y-55990996D01*
X132741012Y-55988012D01*
X132741007Y-55988005D01*
X132549140Y-55741984D01*
X132549138Y-55741981D01*
X132546804Y-55738989D01*
X132321416Y-55512418D01*
X132190725Y-55409390D01*
X132073419Y-55316913D01*
X132073412Y-55316908D01*
X132070441Y-55314566D01*
X131797515Y-55148297D01*
X131506591Y-55016022D01*
X131201882Y-54919655D01*
X131062342Y-54893415D01*
X130891527Y-54861293D01*
X130891522Y-54861292D01*
X130887803Y-54860593D01*
X130568903Y-54839691D01*
X130565124Y-54839899D01*
X130565122Y-54839899D01*
X130468214Y-54845232D01*
X130249802Y-54857253D01*
X130246075Y-54857914D01*
X130246071Y-54857914D01*
X129992324Y-54902884D01*
X129935122Y-54913022D01*
X129931497Y-54914127D01*
X129931492Y-54914128D01*
X129693656Y-54986616D01*
X129629421Y-55006193D01*
X129337127Y-55135415D01*
X129062475Y-55298816D01*
X129059474Y-55301132D01*
X129059470Y-55301134D01*
X128812445Y-55491712D01*
X128809442Y-55494029D01*
X128581694Y-55718227D01*
X128382530Y-55968163D01*
X128214835Y-56240215D01*
X128081038Y-56530443D01*
X127983078Y-56834643D01*
X127982359Y-56838359D01*
X127982357Y-56838367D01*
X127977860Y-56861611D01*
X127922372Y-57148408D01*
X127922105Y-57152184D01*
X127922104Y-57152189D01*
X127920151Y-57179773D01*
X127899801Y-57467194D01*
X88881080Y-57467194D01*
X88881121Y-38596983D01*
X88881756Y-38584348D01*
X88895557Y-38447414D01*
X88900585Y-38422699D01*
X88930264Y-38327078D01*
X88939860Y-38304325D01*
X88987035Y-38217410D01*
X89000585Y-38197328D01*
X89063553Y-38121009D01*
X89080554Y-38104008D01*
X89156866Y-38041044D01*
X89176948Y-38027494D01*
X89263874Y-37980312D01*
X89286623Y-37970716D01*
X89301488Y-37966101D01*
X89382251Y-37941029D01*
X89406962Y-37936001D01*
X89556664Y-37920907D01*
X89564197Y-37920376D01*
X149104933Y-35512203D01*
X149110024Y-35512100D01*
X170997453Y-35512100D01*
X171017089Y-35513640D01*
G37*
G04 #@! TD.AperFunction*
M02*
