G04 #@! TF.GenerationSoftware,KiCad,Pcbnew,(6.0.5)*
G04 #@! TF.CreationDate,2023-10-30T23:32:21-05:00*
G04 #@! TF.ProjectId,SofleKeyboard,536f666c-654b-4657-9962-6f6172642e6b,rev?*
G04 #@! TF.SameCoordinates,Original*
G04 #@! TF.FileFunction,Legend,Top*
G04 #@! TF.FilePolarity,Positive*
%FSLAX46Y46*%
G04 Gerber Fmt 4.6, Leading zero omitted, Abs format (unit mm)*
G04 Created by KiCad (PCBNEW (6.0.5)) date 2023-10-30 23:32:21*
%MOMM*%
%LPD*%
G01*
G04 APERTURE LIST*
G04 Aperture macros list*
%AMRoundRect*
0 Rectangle with rounded corners*
0 $1 Rounding radius*
0 $2 $3 $4 $5 $6 $7 $8 $9 X,Y pos of 4 corners*
0 Add a 4 corners polygon primitive as box body*
4,1,4,$2,$3,$4,$5,$6,$7,$8,$9,$2,$3,0*
0 Add four circle primitives for the rounded corners*
1,1,$1+$1,$2,$3*
1,1,$1+$1,$4,$5*
1,1,$1+$1,$6,$7*
1,1,$1+$1,$8,$9*
0 Add four rect primitives between the rounded corners*
20,1,$1+$1,$2,$3,$4,$5,0*
20,1,$1+$1,$4,$5,$6,$7,0*
20,1,$1+$1,$6,$7,$8,$9,0*
20,1,$1+$1,$8,$9,$2,$3,0*%
G04 Aperture macros list end*
%ADD10C,0.150000*%
%ADD11C,0.140000*%
%ADD12C,0.120000*%
%ADD13C,0.100000*%
%ADD14C,1.524000*%
%ADD15C,3.800000*%
%ADD16RoundRect,0.200000X0.850000X0.500000X-0.850000X0.500000X-0.850000X-0.500000X0.850000X-0.500000X0*%
%ADD17C,2.600000*%
%ADD18C,1.300000*%
%ADD19C,4.500000*%
%ADD20C,1.924000*%
%ADD21RoundRect,0.200000X0.500000X-0.300000X0.500000X0.300000X-0.500000X0.300000X-0.500000X-0.300000X0*%
%ADD22C,2.400000*%
%ADD23RoundRect,0.200000X-0.475000X0.650000X-0.475000X-0.650000X0.475000X-0.650000X0.475000X0.650000X0*%
%ADD24RoundRect,0.200000X-0.650000X-0.475000X0.650000X-0.475000X0.650000X0.475000X-0.650000X0.475000X0*%
%ADD25RoundRect,0.200000X0.325417X0.736362X-0.800417X0.086362X-0.325417X-0.736362X0.800417X-0.086362X0*%
%ADD26C,3.400000*%
%ADD27C,2.200000*%
%ADD28C,1.400000*%
%ADD29RoundRect,0.200000X1.095000X1.540000X-1.095000X1.540000X-1.095000X-1.540000X1.095000X-1.540000X0*%
%ADD30RoundRect,0.200000X1.105000X1.440000X-1.105000X1.440000X-1.105000X-1.440000X1.105000X-1.440000X0*%
%ADD31RoundRect,0.200000X0.858013X-0.486122X0.008013X0.986122X-0.858013X0.486122X-0.008013X-0.986122X0*%
%ADD32RoundRect,0.200000X1.881179X-0.178298X0.786179X1.718298X-1.881179X0.178298X-0.786179X-1.718298X0*%
%ADD33RoundRect,0.200000X1.799577X-0.236958X0.694577X1.676958X-1.799577X0.236958X-0.694577X-1.676958X0*%
%ADD34C,4.400000*%
%ADD35C,1.797000*%
%ADD36RoundRect,0.200000X-1.000000X1.600000X-1.000000X-1.600000X1.000000X-1.600000X1.000000X1.600000X0*%
%ADD37C,2.700000*%
%ADD38RoundRect,0.200000X0.691627X0.702959X-0.950446X0.262967X-0.691627X-0.702959X0.950446X-0.262967X0*%
%ADD39RoundRect,0.200000X0.659107X1.770933X-1.456270X1.204119X-0.659107X-1.770933X1.456270X-1.204119X0*%
%ADD40RoundRect,0.200000X0.694649X1.676928X-1.440047X1.104938X-0.694649X-1.676928X1.440047X-1.104938X0*%
%ADD41RoundRect,0.200000X-0.627047X0.504913X-0.290582X-0.750791X0.627047X-0.504913X0.290582X0.750791X0*%
%ADD42RoundRect,0.450000X0.625000X-0.350000X0.625000X0.350000X-0.625000X0.350000X-0.625000X-0.350000X0*%
%ADD43O,2.150000X1.600000*%
%ADD44RoundRect,0.200000X-0.400000X0.500000X-0.400000X-0.500000X0.400000X-0.500000X0.400000X0.500000X0*%
%ADD45RoundRect,0.200000X-0.750000X0.350000X-0.750000X-0.350000X0.750000X-0.350000X0.750000X0.350000X0*%
%ADD46RoundRect,0.450000X0.350000X0.625000X-0.350000X0.625000X-0.350000X-0.625000X0.350000X-0.625000X0*%
%ADD47O,1.600000X2.150000*%
G04 APERTURE END LIST*
D10*
X95855371Y-83670578D02*
X96617276Y-83670578D01*
X96236324Y-84051530D02*
X96236324Y-83289626D01*
X95858167Y-79614068D02*
X96620072Y-79614068D01*
X96239120Y-79995020D02*
X96239120Y-79233116D01*
X100201024Y-68428949D02*
X101001024Y-68162282D01*
X100201024Y-67895616D01*
X100924834Y-67171806D02*
X100962929Y-67209901D01*
X101001024Y-67324187D01*
X101001024Y-67400378D01*
X100962929Y-67514663D01*
X100886739Y-67590854D01*
X100810548Y-67628949D01*
X100658167Y-67667044D01*
X100543881Y-67667044D01*
X100391500Y-67628949D01*
X100315310Y-67590854D01*
X100239120Y-67514663D01*
X100201024Y-67400378D01*
X100201024Y-67324187D01*
X100239120Y-67209901D01*
X100277215Y-67171806D01*
X100924834Y-66371806D02*
X100962929Y-66409901D01*
X101001024Y-66524187D01*
X101001024Y-66600378D01*
X100962929Y-66714663D01*
X100886739Y-66790854D01*
X100810548Y-66828949D01*
X100658167Y-66867044D01*
X100543881Y-66867044D01*
X100391500Y-66828949D01*
X100315310Y-66790854D01*
X100239120Y-66714663D01*
X100201024Y-66600378D01*
X100201024Y-66524187D01*
X100239120Y-66409901D01*
X100277215Y-66371806D01*
X96552928Y-68452759D02*
X96591023Y-68338473D01*
X96591023Y-68147997D01*
X96552928Y-68071806D01*
X96514833Y-68033711D01*
X96438642Y-67995616D01*
X96362452Y-67995616D01*
X96286261Y-68033711D01*
X96248166Y-68071806D01*
X96210071Y-68147997D01*
X96171976Y-68300378D01*
X96133880Y-68376568D01*
X96095785Y-68414663D01*
X96019595Y-68452759D01*
X95943404Y-68452759D01*
X95867214Y-68414663D01*
X95829119Y-68376568D01*
X95791023Y-68300378D01*
X95791023Y-68109901D01*
X95829119Y-67995616D01*
X96591023Y-67652759D02*
X95791023Y-67652759D01*
X95791023Y-67462282D01*
X95829119Y-67347997D01*
X95905309Y-67271806D01*
X95981499Y-67233711D01*
X96133880Y-67195616D01*
X96248166Y-67195616D01*
X96400547Y-67233711D01*
X96476738Y-67271806D01*
X96552928Y-67347997D01*
X96591023Y-67462282D01*
X96591023Y-67652759D01*
X96362452Y-66890854D02*
X96362452Y-66509901D01*
X96591023Y-66967044D02*
X95791023Y-66700378D01*
X96591023Y-66433711D01*
X95752928Y-65595616D02*
X96781499Y-66281330D01*
X96591023Y-65328949D02*
X95791023Y-65328949D01*
X96362452Y-65062282D01*
X95791023Y-64795616D01*
X96591023Y-64795616D01*
X95791023Y-64262282D02*
X95791023Y-64109901D01*
X95829119Y-64033711D01*
X95905309Y-63957520D01*
X96057690Y-63919425D01*
X96324357Y-63919425D01*
X96476738Y-63957520D01*
X96552928Y-64033711D01*
X96591023Y-64109901D01*
X96591023Y-64262282D01*
X96552928Y-64338473D01*
X96476738Y-64414663D01*
X96324357Y-64452759D01*
X96057690Y-64452759D01*
X95905309Y-64414663D01*
X95829119Y-64338473D01*
X95791023Y-64262282D01*
X96552928Y-63614663D02*
X96591023Y-63500378D01*
X96591023Y-63309901D01*
X96552928Y-63233711D01*
X96514833Y-63195616D01*
X96438642Y-63157520D01*
X96362452Y-63157520D01*
X96286261Y-63195616D01*
X96248166Y-63233711D01*
X96210071Y-63309901D01*
X96171976Y-63462282D01*
X96133880Y-63538473D01*
X96095785Y-63576568D01*
X96019595Y-63614663D01*
X95943404Y-63614663D01*
X95867214Y-63576568D01*
X95829119Y-63538473D01*
X95791023Y-63462282D01*
X95791023Y-63271806D01*
X95829119Y-63157520D01*
X96591023Y-62814663D02*
X95791023Y-62814663D01*
X102339120Y-67995616D02*
X102301024Y-68071806D01*
X102301024Y-68186092D01*
X102339120Y-68300378D01*
X102415310Y-68376568D01*
X102491500Y-68414663D01*
X102643881Y-68452759D01*
X102758167Y-68452759D01*
X102910548Y-68414663D01*
X102986739Y-68376568D01*
X103062929Y-68300378D01*
X103101024Y-68186092D01*
X103101024Y-68109901D01*
X103062929Y-67995616D01*
X103024834Y-67957520D01*
X102758167Y-67957520D01*
X102758167Y-68109901D01*
X103101024Y-67614663D02*
X102301024Y-67614663D01*
X103101024Y-67157520D01*
X102301024Y-67157520D01*
X103101024Y-66776568D02*
X102301024Y-66776568D01*
X102301024Y-66586092D01*
X102339120Y-66471806D01*
X102415310Y-66395616D01*
X102491500Y-66357520D01*
X102643881Y-66319425D01*
X102758167Y-66319425D01*
X102910548Y-66357520D01*
X102986739Y-66395616D01*
X103062929Y-66471806D01*
X103101024Y-66586092D01*
X103101024Y-66776568D01*
X98762929Y-68452759D02*
X98801024Y-68338473D01*
X98801024Y-68147997D01*
X98762929Y-68071806D01*
X98724834Y-68033711D01*
X98648643Y-67995616D01*
X98572453Y-67995616D01*
X98496262Y-68033711D01*
X98458167Y-68071806D01*
X98420072Y-68147997D01*
X98381977Y-68300378D01*
X98343881Y-68376568D01*
X98305786Y-68414663D01*
X98229596Y-68452759D01*
X98153405Y-68452759D01*
X98077215Y-68414663D01*
X98039120Y-68376568D01*
X98001024Y-68300378D01*
X98001024Y-68109901D01*
X98039120Y-67995616D01*
X98724834Y-67195616D02*
X98762929Y-67233711D01*
X98801024Y-67347997D01*
X98801024Y-67424187D01*
X98762929Y-67538473D01*
X98686739Y-67614663D01*
X98610548Y-67652759D01*
X98458167Y-67690854D01*
X98343881Y-67690854D01*
X98191500Y-67652759D01*
X98115310Y-67614663D01*
X98039120Y-67538473D01*
X98001024Y-67424187D01*
X98001024Y-67347997D01*
X98039120Y-67233711D01*
X98077215Y-67195616D01*
X98801024Y-66471806D02*
X98801024Y-66852759D01*
X98001024Y-66852759D01*
X97962929Y-65633711D02*
X98991500Y-66319425D01*
X98762929Y-65405140D02*
X98801024Y-65290854D01*
X98801024Y-65100378D01*
X98762929Y-65024187D01*
X98724834Y-64986092D01*
X98648643Y-64947997D01*
X98572453Y-64947997D01*
X98496262Y-64986092D01*
X98458167Y-65024187D01*
X98420072Y-65100378D01*
X98381977Y-65252759D01*
X98343881Y-65328949D01*
X98305786Y-65367044D01*
X98229596Y-65405140D01*
X98153405Y-65405140D01*
X98077215Y-65367044D01*
X98039120Y-65328949D01*
X98001024Y-65252759D01*
X98001024Y-65062282D01*
X98039120Y-64947997D01*
X98724834Y-64147997D02*
X98762929Y-64186092D01*
X98801024Y-64300378D01*
X98801024Y-64376568D01*
X98762929Y-64490854D01*
X98686739Y-64567044D01*
X98610548Y-64605140D01*
X98458167Y-64643235D01*
X98343881Y-64643235D01*
X98191500Y-64605140D01*
X98115310Y-64567044D01*
X98039120Y-64490854D01*
X98001024Y-64376568D01*
X98001024Y-64300378D01*
X98039120Y-64186092D01*
X98077215Y-64147997D01*
X98801024Y-63805140D02*
X98001024Y-63805140D01*
X98801024Y-63347997D02*
X98343881Y-63690854D01*
X98001024Y-63347997D02*
X98458167Y-63805140D01*
X101410548Y-92183592D02*
X101410548Y-91421687D01*
X101791500Y-91802640D02*
X101029596Y-91802640D01*
X95858167Y-81674068D02*
X96620072Y-81674068D01*
X99414038Y-92180796D02*
X99414038Y-91418891D01*
X105224834Y-67957520D02*
X105262929Y-67995616D01*
X105301024Y-68109901D01*
X105301024Y-68186092D01*
X105262929Y-68300378D01*
X105186739Y-68376568D01*
X105110548Y-68414663D01*
X104958167Y-68452759D01*
X104843881Y-68452759D01*
X104691500Y-68414663D01*
X104615310Y-68376568D01*
X104539120Y-68300378D01*
X104501024Y-68186092D01*
X104501024Y-68109901D01*
X104539120Y-67995616D01*
X104577215Y-67957520D01*
X105262929Y-67652759D02*
X105301024Y-67538473D01*
X105301024Y-67347997D01*
X105262929Y-67271806D01*
X105224834Y-67233711D01*
X105148643Y-67195616D01*
X105072453Y-67195616D01*
X104996262Y-67233711D01*
X104958167Y-67271806D01*
X104920072Y-67347997D01*
X104881977Y-67500378D01*
X104843881Y-67576568D01*
X104805786Y-67614663D01*
X104729596Y-67652759D01*
X104653405Y-67652759D01*
X104577215Y-67614663D01*
X104539120Y-67576568D01*
X104501024Y-67500378D01*
X104501024Y-67309901D01*
X104539120Y-67195616D01*
D11*
X191961747Y-131203248D02*
X192112204Y-131197034D01*
X192334781Y-131112485D01*
X192406902Y-131034150D01*
X192434508Y-130972724D01*
X192445204Y-130866784D01*
X192411384Y-130777753D01*
X192333049Y-130705631D01*
X192271624Y-130678026D01*
X192165683Y-130667330D01*
X191970711Y-130690454D01*
X191864770Y-130679758D01*
X191803345Y-130652152D01*
X191725009Y-130580031D01*
X191691190Y-130491000D01*
X191701885Y-130385059D01*
X191729491Y-130323634D01*
X191801612Y-130245299D01*
X192024190Y-130160749D01*
X192174646Y-130154535D01*
X193047029Y-130841927D02*
X192941088Y-130831232D01*
X192879663Y-130803626D01*
X192801328Y-130731505D01*
X192699869Y-130464412D01*
X192710565Y-130358471D01*
X192738170Y-130297045D01*
X192810291Y-130218710D01*
X192943838Y-130167981D01*
X193049779Y-130178676D01*
X193111204Y-130206282D01*
X193189539Y-130278403D01*
X193290998Y-130545496D01*
X193280303Y-130651437D01*
X193252697Y-130712863D01*
X193180576Y-130791198D01*
X193047029Y-130841927D01*
X193388993Y-129998882D02*
X193745117Y-129863603D01*
X193759277Y-130571370D02*
X193454900Y-129770091D01*
X193465596Y-129664150D01*
X193537717Y-129585814D01*
X193626748Y-129551995D01*
X194427010Y-130317722D02*
X194321069Y-130307026D01*
X194242734Y-130234905D01*
X193938357Y-129433626D01*
X195122348Y-130002649D02*
X195050227Y-130080984D01*
X194872165Y-130148623D01*
X194766224Y-130137927D01*
X194687889Y-130065806D01*
X194552610Y-129709682D01*
X194563306Y-129603741D01*
X194635427Y-129525406D01*
X194813489Y-129457767D01*
X194919430Y-129468463D01*
X194997765Y-129540584D01*
X195031585Y-129629615D01*
X194620250Y-129887744D01*
X196797028Y-129315559D02*
X196769422Y-129376984D01*
X196652786Y-129472229D01*
X196563754Y-129506049D01*
X196413298Y-129512263D01*
X196290447Y-129457052D01*
X196212112Y-129384930D01*
X196099957Y-129223778D01*
X196049228Y-129090232D01*
X196026104Y-128895260D01*
X196036800Y-128789319D01*
X196092011Y-128666468D01*
X196208648Y-128571223D01*
X196297679Y-128537403D01*
X196448135Y-128531189D01*
X196509560Y-128558795D01*
X197231487Y-129252401D02*
X196876380Y-128317575D01*
X197632127Y-129100212D02*
X197446118Y-128610542D01*
X197367783Y-128538420D01*
X197261842Y-128527725D01*
X197128296Y-128578454D01*
X197056175Y-128656789D01*
X197028569Y-128718215D01*
X198210828Y-128880384D02*
X198104887Y-128869688D01*
X198043462Y-128842083D01*
X197965127Y-128769962D01*
X197863668Y-128502868D01*
X197874364Y-128396928D01*
X197901969Y-128335502D01*
X197974090Y-128257167D01*
X198107637Y-128206437D01*
X198213578Y-128217133D01*
X198275003Y-128244739D01*
X198353338Y-128316860D01*
X198454797Y-128583953D01*
X198444102Y-128689894D01*
X198416496Y-128751319D01*
X198344375Y-128829655D01*
X198210828Y-128880384D01*
X199306806Y-128413122D02*
X199234685Y-128491457D01*
X199056623Y-128559097D01*
X198950682Y-128548401D01*
X198889257Y-128520795D01*
X198810922Y-128448674D01*
X198709462Y-128181581D01*
X198720158Y-128075640D01*
X198747764Y-128014215D01*
X198819885Y-127935880D01*
X198997947Y-127868240D01*
X199103888Y-127878936D01*
X199992466Y-127133885D02*
X200570150Y-127984162D01*
X200494564Y-127248790D01*
X200926274Y-127848883D01*
X200793745Y-126829508D01*
X201504976Y-127629055D02*
X201268238Y-127005838D01*
X201149869Y-126694229D02*
X201122263Y-126755655D01*
X201183689Y-126783260D01*
X201211294Y-126721835D01*
X201149869Y-126694229D01*
X201183689Y-126783260D01*
X201950131Y-127459956D02*
X201713393Y-126836739D01*
X201781032Y-127014801D02*
X201791728Y-126908860D01*
X201819334Y-126847435D01*
X201891455Y-126769100D01*
X201980486Y-126735280D01*
X202868047Y-127060334D02*
X202795926Y-127138669D01*
X202617864Y-127206308D01*
X202511923Y-127195613D01*
X202433588Y-127123491D01*
X202298309Y-126767367D01*
X202309005Y-126661427D01*
X202381126Y-126583091D01*
X202559188Y-126515452D01*
X202665129Y-126526148D01*
X202743464Y-126598269D01*
X202777283Y-126687300D01*
X202365948Y-126945429D01*
X203463658Y-126885021D02*
X203357717Y-126874325D01*
X203279382Y-126802204D01*
X202975005Y-126000925D01*
X204158997Y-126569948D02*
X204086875Y-126648283D01*
X203908813Y-126715923D01*
X203802873Y-126705227D01*
X203724537Y-126633106D01*
X203589258Y-126276982D01*
X203599954Y-126171041D01*
X203672075Y-126092706D01*
X203850137Y-126025066D01*
X203956078Y-126035762D01*
X204034414Y-126107883D01*
X204068233Y-126196914D01*
X203656898Y-126455044D01*
X204559636Y-126417759D02*
X204665577Y-126428455D01*
X204843639Y-126360816D01*
X204915760Y-126282480D01*
X204926456Y-126176540D01*
X204909546Y-126132024D01*
X204831211Y-126059903D01*
X204725270Y-126049207D01*
X204591724Y-126099937D01*
X204485783Y-126089241D01*
X204407447Y-126017120D01*
X204390538Y-125972604D01*
X204401233Y-125866663D01*
X204473355Y-125788328D01*
X204606901Y-125737599D01*
X204712842Y-125748294D01*
X205316400Y-126130292D02*
X205422341Y-126140988D01*
X205600403Y-126073348D01*
X205672524Y-125995013D01*
X205683220Y-125889072D01*
X205666310Y-125844557D01*
X205587975Y-125772435D01*
X205482034Y-125761740D01*
X205348487Y-125812469D01*
X205242546Y-125801773D01*
X205164211Y-125729652D01*
X205147301Y-125685137D01*
X205157997Y-125579196D01*
X205230118Y-125500861D01*
X205363665Y-125450131D01*
X205469606Y-125460827D01*
X206711558Y-125243748D02*
X207423806Y-124973190D01*
X208716488Y-124889658D02*
X208479750Y-124266441D01*
X208547390Y-124444503D02*
X208558086Y-124338562D01*
X208585691Y-124277137D01*
X208657812Y-124198802D01*
X208746843Y-124164982D01*
X209634404Y-124490036D02*
X209562283Y-124568371D01*
X209384221Y-124636010D01*
X209278280Y-124625315D01*
X209199945Y-124553193D01*
X209064666Y-124197069D01*
X209075362Y-124091129D01*
X209147483Y-124012793D01*
X209325545Y-123945154D01*
X209431486Y-123955850D01*
X209509821Y-124027971D01*
X209543641Y-124117002D01*
X209132305Y-124375131D01*
X209770700Y-123776055D02*
X210230016Y-124314723D01*
X210215855Y-123606957D01*
X210808717Y-124094895D02*
X210571979Y-123471678D01*
X210453610Y-123160069D02*
X210426005Y-123221495D01*
X210487430Y-123249100D01*
X210515036Y-123187675D01*
X210453610Y-123160069D01*
X210487430Y-123249100D01*
X211192447Y-123898191D02*
X211298388Y-123908887D01*
X211476450Y-123841247D01*
X211548571Y-123762912D01*
X211559267Y-123656971D01*
X211542357Y-123612456D01*
X211464022Y-123540334D01*
X211358081Y-123529639D01*
X211224534Y-123580368D01*
X211118593Y-123569672D01*
X211040258Y-123497551D01*
X211023348Y-123453036D01*
X211034044Y-123347095D01*
X211106165Y-123268760D01*
X211239712Y-123218030D01*
X211345653Y-123228726D01*
X212010636Y-123638329D02*
X211773898Y-123015112D01*
X211655529Y-122703503D02*
X211627923Y-122764929D01*
X211689349Y-122792534D01*
X211716954Y-122731109D01*
X211655529Y-122703503D01*
X211689349Y-122792534D01*
X212589338Y-123418501D02*
X212483397Y-123407805D01*
X212421971Y-123380199D01*
X212343636Y-123308078D01*
X212242177Y-123040985D01*
X212252873Y-122935044D01*
X212280478Y-122873619D01*
X212352600Y-122795284D01*
X212486146Y-122744554D01*
X212592087Y-122755250D01*
X212653512Y-122782856D01*
X212731848Y-122854977D01*
X212833307Y-123122070D01*
X212822611Y-123228011D01*
X212795005Y-123289436D01*
X212722884Y-123367771D01*
X212589338Y-123418501D01*
X213064848Y-122524726D02*
X213301586Y-123147943D01*
X213098667Y-122613757D02*
X213126273Y-122552332D01*
X213198394Y-122473996D01*
X213331941Y-122423267D01*
X213437882Y-122433963D01*
X213516217Y-122506084D01*
X213702225Y-122995754D01*
X214859628Y-122556098D02*
X214504521Y-121621273D01*
X214639800Y-121977397D02*
X214711921Y-121899061D01*
X214889984Y-121831422D01*
X214995924Y-121842118D01*
X215057350Y-121869723D01*
X215135685Y-121941845D01*
X215237144Y-122208938D01*
X215226448Y-122314879D01*
X215198843Y-122376304D01*
X215126721Y-122454639D01*
X214948659Y-122522279D01*
X214842719Y-122511583D01*
X215379654Y-121645414D02*
X215838970Y-122184081D01*
X215824809Y-121476315D02*
X215838970Y-122184081D01*
X215834488Y-122440479D01*
X215806882Y-122501904D01*
X215734761Y-122580239D01*
X217530559Y-121541507D02*
X217175452Y-120606681D01*
X217513649Y-121496991D02*
X217441528Y-121575327D01*
X217263466Y-121642966D01*
X217157525Y-121632270D01*
X217096100Y-121604665D01*
X217017764Y-121532543D01*
X216916305Y-121265450D01*
X216927001Y-121159509D01*
X216954607Y-121098084D01*
X217026728Y-121019749D01*
X217204790Y-120952109D01*
X217310731Y-120962805D01*
X217975714Y-121372408D02*
X217620607Y-120437583D01*
X217755886Y-120793707D02*
X217828007Y-120715372D01*
X218006069Y-120647732D01*
X218112010Y-120658428D01*
X218173435Y-120686034D01*
X218251771Y-120758155D01*
X218353230Y-121025248D01*
X218342534Y-121131189D01*
X218314928Y-121192614D01*
X218242807Y-121270949D01*
X218064745Y-121338589D01*
X217958804Y-121327893D01*
D10*
X97354038Y-92180796D02*
X97354038Y-91418891D01*
X97734990Y-91799844D02*
X96973086Y-91799844D01*
X90701024Y-87564544D02*
X90320072Y-87831211D01*
X90701024Y-88021687D02*
X89901024Y-88021687D01*
X89901024Y-87716925D01*
X89939120Y-87640735D01*
X89977215Y-87602640D01*
X90053405Y-87564544D01*
X90167691Y-87564544D01*
X90243881Y-87602640D01*
X90281977Y-87640735D01*
X90320072Y-87716925D01*
X90320072Y-88021687D01*
X90281977Y-87221687D02*
X90281977Y-86955020D01*
X90701024Y-86840735D02*
X90701024Y-87221687D01*
X89901024Y-87221687D01*
X89901024Y-86840735D01*
X90662929Y-86535973D02*
X90701024Y-86421687D01*
X90701024Y-86231211D01*
X90662929Y-86155020D01*
X90624834Y-86116925D01*
X90548643Y-86078830D01*
X90472453Y-86078830D01*
X90396262Y-86116925D01*
X90358167Y-86155020D01*
X90320072Y-86231211D01*
X90281977Y-86383592D01*
X90243881Y-86459782D01*
X90205786Y-86497878D01*
X90129596Y-86535973D01*
X90053405Y-86535973D01*
X89977215Y-86497878D01*
X89939120Y-86459782D01*
X89901024Y-86383592D01*
X89901024Y-86193116D01*
X89939120Y-86078830D01*
X90281977Y-85735973D02*
X90281977Y-85469306D01*
X90701024Y-85355020D02*
X90701024Y-85735973D01*
X89901024Y-85735973D01*
X89901024Y-85355020D01*
X89901024Y-85126449D02*
X89901024Y-84669306D01*
X90701024Y-84897878D02*
X89901024Y-84897878D01*
D12*
X103532200Y-100607460D02*
X95232200Y-100607460D01*
X102672200Y-105080000D02*
X95532200Y-105080000D01*
X103552200Y-102258460D02*
X103552200Y-100607460D01*
G36*
X103552200Y-101623460D02*
G01*
X102544200Y-100610000D01*
X103552200Y-100607460D01*
X103552200Y-101623460D01*
G37*
D13*
X103552200Y-101623460D02*
X102544200Y-100610000D01*
X103552200Y-100607460D01*
X103552200Y-101623460D01*
D10*
X109988815Y-71635745D02*
X109988815Y-38615745D01*
X109988815Y-71635745D02*
X109988815Y-41155745D01*
X109988815Y-38615745D02*
X92208815Y-38615745D01*
X94748815Y-41155745D02*
X92208815Y-41155745D01*
X92208815Y-71635745D02*
X94748815Y-71635745D01*
X107448815Y-71635745D02*
X109988815Y-71635745D01*
X109988815Y-41155745D02*
X107448815Y-41155745D01*
X92208815Y-41155745D02*
X92208815Y-71635745D01*
X94748815Y-71635745D02*
X94748815Y-41155745D01*
X92208815Y-38615745D02*
X92208815Y-71635745D01*
X107448815Y-41155745D02*
X107448815Y-71635745D01*
X101850120Y-70059640D02*
X103628120Y-70059640D01*
X101850120Y-72345640D02*
X101850120Y-70059640D01*
X103628120Y-70059640D02*
X103628120Y-72345640D01*
X103628120Y-72345640D02*
X101850120Y-72345640D01*
X99750120Y-70059640D02*
X101528120Y-70059640D01*
X101528120Y-70059640D02*
X101528120Y-72345640D01*
X99750120Y-72345640D02*
X99750120Y-70059640D01*
X101528120Y-72345640D02*
X99750120Y-72345640D01*
X97550120Y-70059640D02*
X99328120Y-70059640D01*
X99328120Y-70059640D02*
X99328120Y-72345640D01*
X99328120Y-72345640D02*
X97550120Y-72345640D01*
X97550120Y-72345640D02*
X97550120Y-70059640D01*
X92139120Y-83402640D02*
X91439120Y-83402640D01*
X88639120Y-89402640D02*
X89239120Y-89402640D01*
X92139120Y-89402640D02*
X92139120Y-83402640D01*
X88639120Y-83402640D02*
X89239120Y-83402640D01*
X92139120Y-89402640D02*
X91439120Y-89402640D01*
X88639120Y-83402640D02*
X88639120Y-89402640D01*
X128705000Y-45827000D02*
X129205000Y-46727000D01*
X129205000Y-45727000D02*
X128205000Y-45727000D01*
X129455000Y-48927000D02*
X129455000Y-43527000D01*
X129455000Y-48927000D02*
X127955000Y-48927000D01*
X128205000Y-46727000D02*
X128705000Y-45827000D01*
X129455000Y-43527000D02*
X127955000Y-43527000D01*
X127955000Y-43527000D02*
X127955000Y-48927000D01*
X129205000Y-46727000D02*
X128205000Y-46727000D01*
X130745000Y-46730000D02*
X131245000Y-45830000D01*
X131995000Y-43530000D02*
X130495000Y-43530000D01*
X131745000Y-45730000D02*
X130745000Y-45730000D01*
X131745000Y-46730000D02*
X130745000Y-46730000D01*
X131245000Y-45830000D02*
X131745000Y-46730000D01*
X131995000Y-48930000D02*
X130495000Y-48930000D01*
X131995000Y-48930000D02*
X131995000Y-43530000D01*
X130495000Y-43530000D02*
X130495000Y-48930000D01*
X149845000Y-44230000D02*
X150345000Y-43330000D01*
X150345000Y-43330000D02*
X150845000Y-44230000D01*
X151095000Y-46430000D02*
X149595000Y-46430000D01*
X149595000Y-41030000D02*
X149595000Y-46430000D01*
X151095000Y-46430000D02*
X151095000Y-41030000D01*
X150845000Y-43230000D02*
X149845000Y-43230000D01*
X151095000Y-41030000D02*
X149595000Y-41030000D01*
X150845000Y-44230000D02*
X149845000Y-44230000D01*
X168845000Y-46730000D02*
X169345000Y-45830000D01*
X169345000Y-45830000D02*
X169845000Y-46730000D01*
X170095000Y-48930000D02*
X168595000Y-48930000D01*
X169845000Y-46730000D02*
X168845000Y-46730000D01*
X170095000Y-43530000D02*
X168595000Y-43530000D01*
X168595000Y-43530000D02*
X168595000Y-48930000D01*
X169845000Y-45730000D02*
X168845000Y-45730000D01*
X170095000Y-48930000D02*
X170095000Y-43530000D01*
X188739120Y-46602640D02*
X187739120Y-46602640D01*
X188989120Y-49802640D02*
X187489120Y-49802640D01*
X187489120Y-44402640D02*
X187489120Y-49802640D01*
X188989120Y-44402640D02*
X187489120Y-44402640D01*
X188239120Y-46702640D02*
X188739120Y-47602640D01*
X188739120Y-47602640D02*
X187739120Y-47602640D01*
X187739120Y-47602640D02*
X188239120Y-46702640D01*
X188989120Y-49802640D02*
X188989120Y-44402640D01*
X208295000Y-48430000D02*
X206795000Y-48430000D01*
X208045000Y-50630000D02*
X207045000Y-50630000D01*
X207545000Y-50730000D02*
X208045000Y-51630000D01*
X208045000Y-51630000D02*
X207045000Y-51630000D01*
X207045000Y-51630000D02*
X207545000Y-50730000D01*
X208295000Y-53830000D02*
X208295000Y-48430000D01*
X206795000Y-48430000D02*
X206795000Y-53830000D01*
X208295000Y-53830000D02*
X206795000Y-53830000D01*
X129455000Y-87030000D02*
X127955000Y-87030000D01*
X129205000Y-83830000D02*
X128205000Y-83830000D01*
X129455000Y-81630000D02*
X127955000Y-81630000D01*
X129455000Y-87030000D02*
X129455000Y-81630000D01*
X127955000Y-81630000D02*
X127955000Y-87030000D01*
X128205000Y-84830000D02*
X128705000Y-83930000D01*
X129205000Y-84830000D02*
X128205000Y-84830000D01*
X128705000Y-83930000D02*
X129205000Y-84830000D01*
X129205000Y-103930000D02*
X128205000Y-103930000D01*
X127955000Y-100730000D02*
X127955000Y-106130000D01*
X128205000Y-103930000D02*
X128705000Y-103030000D01*
X128705000Y-103030000D02*
X129205000Y-103930000D01*
X129455000Y-106130000D02*
X127955000Y-106130000D01*
X129205000Y-102930000D02*
X128205000Y-102930000D01*
X129455000Y-100730000D02*
X127955000Y-100730000D01*
X129455000Y-106130000D02*
X129455000Y-100730000D01*
X104300000Y-96250000D02*
X104300000Y-97750000D01*
X107500000Y-97500000D02*
X106600000Y-97000000D01*
X107500000Y-96500000D02*
X107500000Y-97500000D01*
X106600000Y-97000000D02*
X107500000Y-96500000D01*
X104300000Y-97750000D02*
X109700000Y-97750000D01*
X106500000Y-96500000D02*
X106500000Y-97500000D01*
X109700000Y-96250000D02*
X104300000Y-96250000D01*
X109700000Y-96250000D02*
X109700000Y-97750000D01*
X93323987Y-125167987D02*
X94353410Y-125151000D01*
X92043731Y-127350519D02*
X91293731Y-126051481D01*
X94353410Y-125151000D02*
X93823987Y-126034013D01*
X95970269Y-123351481D02*
X91293731Y-126051481D01*
X92043731Y-127350519D02*
X96720269Y-124650519D01*
X93823987Y-126034013D02*
X93323987Y-125167987D01*
X96720269Y-124650519D02*
X95970269Y-123351481D01*
X94690013Y-125534013D02*
X94190013Y-124667987D01*
X118250000Y-57200000D02*
X118250000Y-54600000D01*
X125900000Y-51400000D02*
X125900000Y-56000000D01*
X126050000Y-51400000D02*
X126050000Y-56000000D01*
X118700000Y-54150000D02*
X118700000Y-57650000D01*
X120950000Y-53600000D02*
X120950000Y-58200000D01*
X120350000Y-53600000D02*
X120350000Y-58200000D01*
X119000000Y-53850000D02*
X119000000Y-57950000D01*
X121100000Y-53600000D02*
X121100000Y-58200000D01*
X125000000Y-51400000D02*
X125000000Y-56000000D01*
X125600000Y-51400000D02*
X125600000Y-56000000D01*
X121250000Y-53600000D02*
X121250000Y-58200000D01*
X121250000Y-53575000D02*
X119275000Y-53575000D01*
X118550000Y-54350000D02*
X118550000Y-57500000D01*
X118850000Y-54000000D02*
X118850000Y-57800000D01*
X119450000Y-53600000D02*
X119450000Y-58200000D01*
X122300000Y-53350000D02*
X122300000Y-57800000D01*
X124850000Y-51400000D02*
X124850000Y-56000000D01*
X124250000Y-51400000D02*
X124250000Y-56000000D01*
X121700000Y-53550000D02*
X121700000Y-58200000D01*
X126650000Y-51400000D02*
X126650000Y-56000000D01*
X126800000Y-51400000D02*
X126800000Y-56000000D01*
X124700000Y-51400000D02*
X124700000Y-56000000D01*
X119150000Y-53750000D02*
X119150000Y-58100000D01*
X126500000Y-51400000D02*
X126500000Y-56000000D01*
X127100000Y-51450000D02*
X127100000Y-55950000D01*
X123450000Y-52050000D02*
X123450000Y-56250000D01*
D12*
X116650000Y-42948460D02*
X124950000Y-42948460D01*
D10*
X118250000Y-54600000D02*
X119275000Y-53575000D01*
X120500000Y-53600000D02*
X120500000Y-58200000D01*
X121400000Y-53600000D02*
X121400000Y-58150000D01*
X122000000Y-53500000D02*
X122000000Y-58050000D01*
X126850000Y-56025000D02*
X124275000Y-56025000D01*
X126850000Y-51375000D02*
X124250000Y-51375000D01*
X126950000Y-51400000D02*
X126950000Y-55950000D01*
X120650000Y-53600000D02*
X120650000Y-58200000D01*
X121825000Y-58225000D02*
X123100000Y-57200000D01*
X126200000Y-51400000D02*
X126200000Y-56000000D01*
X124100000Y-51400000D02*
X124100000Y-56000000D01*
X121825000Y-58225000D02*
X119275000Y-58225000D01*
X125300000Y-51400000D02*
X125300000Y-56000000D01*
X127850000Y-55025000D02*
X127850000Y-52375000D01*
X125450000Y-51400000D02*
X125450000Y-56000000D01*
X127700000Y-51950000D02*
X127700000Y-55500000D01*
X119600000Y-53600000D02*
X119600000Y-58200000D01*
X121850000Y-53550000D02*
X121850000Y-58150000D01*
X122450000Y-53250000D02*
X122450000Y-57700000D01*
X123550000Y-51800000D02*
X123550000Y-56200000D01*
X121550000Y-53550000D02*
X121550000Y-58200000D01*
X119900000Y-53600000D02*
X119900000Y-58200000D01*
X127250000Y-51500000D02*
X127250000Y-55900000D01*
X124550000Y-51400000D02*
X124550000Y-56000000D01*
X122900000Y-52900000D02*
X122900000Y-57350000D01*
X122750000Y-53050000D02*
X122750000Y-57450000D01*
X124400000Y-51400000D02*
X124400000Y-55950000D01*
X119300000Y-53600000D02*
X119300000Y-58200000D01*
X118400000Y-54450000D02*
X118400000Y-57350000D01*
X123800000Y-51550000D02*
X123800000Y-56100000D01*
X123250000Y-52400000D02*
X123250000Y-56550000D01*
X125750000Y-51400000D02*
X125750000Y-56000000D01*
X126350000Y-51400000D02*
X126350000Y-56000000D01*
X127500000Y-51700000D02*
X127500000Y-55650000D01*
X127400000Y-51600000D02*
X127400000Y-55800000D01*
D12*
X124950000Y-42948460D02*
X124950000Y-44599460D01*
D10*
X123650000Y-51650000D02*
X123650000Y-56150000D01*
X123350000Y-52200000D02*
X123350000Y-56350000D01*
X125150000Y-51400000D02*
X125150000Y-56000000D01*
X123950000Y-51450000D02*
X123950000Y-56000000D01*
X120050000Y-53600000D02*
X120050000Y-58200000D01*
X122150000Y-53400000D02*
X122150000Y-57950000D01*
D12*
X124950000Y-47651000D02*
X116650000Y-47648460D01*
D10*
X118250000Y-57200000D02*
X119275000Y-58225000D01*
X127600000Y-51800000D02*
X127600000Y-55550000D01*
X120800000Y-53600000D02*
X120800000Y-58200000D01*
X122600000Y-53150000D02*
X122600000Y-57550000D01*
X119750000Y-53600000D02*
X119750000Y-58200000D01*
X123150000Y-52550000D02*
X123150000Y-56700000D01*
X123050000Y-52750000D02*
X123050000Y-57200000D01*
X120200000Y-53600000D02*
X120200000Y-58200000D01*
X121250000Y-53575000D02*
G75*
G03*
X123387801Y-52078096I1J2274999D01*
G01*
X127850000Y-52375000D02*
G75*
G03*
X126850000Y-51375000I-999999J1D01*
G01*
X124249005Y-51376209D02*
G75*
G03*
X123387801Y-52078096I38796J-926887D01*
G01*
X126850000Y-56025000D02*
G75*
G03*
X127850000Y-55025000I1J999999D01*
G01*
X124275000Y-56025000D02*
G75*
G03*
X123100000Y-57200000I2J-1175002D01*
G01*
G36*
X124950000Y-43964460D02*
G01*
X123942000Y-42951000D01*
X124950000Y-42948460D01*
X124950000Y-43964460D01*
G37*
D13*
X124950000Y-43964460D02*
X123942000Y-42951000D01*
X124950000Y-42948460D01*
X124950000Y-43964460D01*
D10*
X156950000Y-49000000D02*
X156950000Y-52800000D01*
X158450000Y-48600000D02*
X158450000Y-53200000D01*
X161900000Y-46550000D02*
X161900000Y-51100000D01*
X161650000Y-46800000D02*
X161650000Y-51200000D01*
X164000000Y-46400000D02*
X164000000Y-51000000D01*
X156500000Y-49450000D02*
X156500000Y-52350000D01*
X165800000Y-46950000D02*
X165800000Y-50500000D01*
X158150000Y-48600000D02*
X158150000Y-53200000D01*
X161350000Y-47400000D02*
X161350000Y-51550000D01*
X161450000Y-47200000D02*
X161450000Y-51350000D01*
X161000000Y-47900000D02*
X161000000Y-52350000D01*
X165500000Y-46600000D02*
X165500000Y-50800000D01*
X157100000Y-48850000D02*
X157100000Y-52950000D01*
X159650000Y-48550000D02*
X159650000Y-53200000D01*
X165950000Y-50025000D02*
X165950000Y-47375000D01*
X162050000Y-46450000D02*
X162050000Y-51000000D01*
X161750000Y-46650000D02*
X161750000Y-51150000D01*
X157550000Y-48600000D02*
X157550000Y-53200000D01*
X164600000Y-46400000D02*
X164600000Y-51000000D01*
X162950000Y-46400000D02*
X162950000Y-51000000D01*
X164950000Y-51025000D02*
X162375000Y-51025000D01*
X164950000Y-46375000D02*
X162350000Y-46375000D01*
X157700000Y-48600000D02*
X157700000Y-53200000D01*
X156350000Y-52200000D02*
X156350000Y-49600000D01*
X160550000Y-48250000D02*
X160550000Y-52700000D01*
X165600000Y-46700000D02*
X165600000Y-50650000D01*
X159800000Y-48550000D02*
X159800000Y-53200000D01*
X163550000Y-46400000D02*
X163550000Y-51000000D01*
X163700000Y-46400000D02*
X163700000Y-51000000D01*
X156350000Y-49600000D02*
X157375000Y-48575000D01*
X159925000Y-53225000D02*
X161200000Y-52200000D01*
X164150000Y-46400000D02*
X164150000Y-51000000D01*
X158750000Y-48600000D02*
X158750000Y-53200000D01*
X162200000Y-46400000D02*
X162200000Y-51000000D01*
X162500000Y-46400000D02*
X162500000Y-50950000D01*
X158000000Y-48600000D02*
X158000000Y-53200000D01*
X159500000Y-48600000D02*
X159500000Y-53150000D01*
X161150000Y-47750000D02*
X161150000Y-52200000D01*
D12*
X154750000Y-37948460D02*
X163050000Y-37948460D01*
D10*
X165700000Y-46800000D02*
X165700000Y-50550000D01*
X160700000Y-48150000D02*
X160700000Y-52550000D01*
X164300000Y-46400000D02*
X164300000Y-51000000D01*
X165350000Y-46500000D02*
X165350000Y-50900000D01*
X164750000Y-46400000D02*
X164750000Y-51000000D01*
X158300000Y-48600000D02*
X158300000Y-53200000D01*
X160100000Y-48500000D02*
X160100000Y-53050000D01*
X158600000Y-48600000D02*
X158600000Y-53200000D01*
X160400000Y-48350000D02*
X160400000Y-52800000D01*
X156650000Y-49350000D02*
X156650000Y-52500000D01*
X160250000Y-48400000D02*
X160250000Y-52950000D01*
X157250000Y-48750000D02*
X157250000Y-53100000D01*
X156350000Y-52200000D02*
X157375000Y-53225000D01*
X163250000Y-46400000D02*
X163250000Y-51000000D01*
X160850000Y-48050000D02*
X160850000Y-52450000D01*
X161550000Y-47050000D02*
X161550000Y-51250000D01*
X163850000Y-46400000D02*
X163850000Y-51000000D01*
X163400000Y-46400000D02*
X163400000Y-51000000D01*
D12*
X163050000Y-42651000D02*
X154750000Y-42648460D01*
X163050000Y-37948460D02*
X163050000Y-39599460D01*
D10*
X159950000Y-48550000D02*
X159950000Y-53150000D01*
X161250000Y-47550000D02*
X161250000Y-51700000D01*
X162350000Y-46400000D02*
X162350000Y-51000000D01*
X162650000Y-46400000D02*
X162650000Y-51000000D01*
X159350000Y-48575000D02*
X157375000Y-48575000D01*
X159200000Y-48600000D02*
X159200000Y-53200000D01*
X157400000Y-48600000D02*
X157400000Y-53200000D01*
X157850000Y-48600000D02*
X157850000Y-53200000D01*
X159350000Y-48600000D02*
X159350000Y-53200000D01*
X158900000Y-48600000D02*
X158900000Y-53200000D01*
X163100000Y-46400000D02*
X163100000Y-51000000D01*
X165200000Y-46450000D02*
X165200000Y-50950000D01*
X164450000Y-46400000D02*
X164450000Y-51000000D01*
X159050000Y-48600000D02*
X159050000Y-53200000D01*
X165050000Y-46400000D02*
X165050000Y-50950000D01*
X162800000Y-46400000D02*
X162800000Y-51000000D01*
X159925000Y-53225000D02*
X157375000Y-53225000D01*
X156800000Y-49150000D02*
X156800000Y-52650000D01*
X164900000Y-46400000D02*
X164900000Y-51000000D01*
X162375000Y-51025000D02*
G75*
G03*
X161200000Y-52200000I2J-1175002D01*
G01*
X165950000Y-47375000D02*
G75*
G03*
X164950000Y-46375000I-999999J1D01*
G01*
X164950000Y-51025000D02*
G75*
G03*
X165950000Y-50025000I1J999999D01*
G01*
X162349005Y-46376209D02*
G75*
G03*
X161487801Y-47078096I38796J-926887D01*
G01*
X159350000Y-48575000D02*
G75*
G03*
X161487801Y-47078096I1J2274999D01*
G01*
G36*
X163050000Y-38964460D02*
G01*
X162042000Y-37951000D01*
X163050000Y-37948460D01*
X163050000Y-38964460D01*
G37*
D13*
X163050000Y-38964460D02*
X162042000Y-37951000D01*
X163050000Y-37948460D01*
X163050000Y-38964460D01*
D10*
X123250000Y-90500000D02*
X123250000Y-94650000D01*
D12*
X124950000Y-81048460D02*
X124950000Y-82699460D01*
D10*
X127500000Y-89800000D02*
X127500000Y-93750000D01*
X123350000Y-90300000D02*
X123350000Y-94450000D01*
X123800000Y-89650000D02*
X123800000Y-94200000D01*
X127100000Y-89550000D02*
X127100000Y-94050000D01*
X120200000Y-91700000D02*
X120200000Y-96300000D01*
X126050000Y-89500000D02*
X126050000Y-94100000D01*
D12*
X124950000Y-85751000D02*
X116650000Y-85748460D01*
D10*
X120800000Y-91700000D02*
X120800000Y-96300000D01*
X122450000Y-91350000D02*
X122450000Y-95800000D01*
X126350000Y-89500000D02*
X126350000Y-94100000D01*
X125900000Y-89500000D02*
X125900000Y-94100000D01*
X121550000Y-91650000D02*
X121550000Y-96300000D01*
X123650000Y-89750000D02*
X123650000Y-94250000D01*
X118700000Y-92250000D02*
X118700000Y-95750000D01*
X122750000Y-91150000D02*
X122750000Y-95550000D01*
X120350000Y-91700000D02*
X120350000Y-96300000D01*
X121400000Y-91700000D02*
X121400000Y-96250000D01*
X121250000Y-91675000D02*
X119275000Y-91675000D01*
X126650000Y-89500000D02*
X126650000Y-94100000D01*
X125150000Y-89500000D02*
X125150000Y-94100000D01*
X127600000Y-89900000D02*
X127600000Y-93650000D01*
X120650000Y-91700000D02*
X120650000Y-96300000D01*
X125300000Y-89500000D02*
X125300000Y-94100000D01*
X119150000Y-91850000D02*
X119150000Y-96200000D01*
X122000000Y-91600000D02*
X122000000Y-96150000D01*
X121825000Y-96325000D02*
X123100000Y-95300000D01*
X120950000Y-91700000D02*
X120950000Y-96300000D01*
X121850000Y-91650000D02*
X121850000Y-96250000D01*
X119300000Y-91700000D02*
X119300000Y-96300000D01*
X118550000Y-92450000D02*
X118550000Y-95600000D01*
X124100000Y-89500000D02*
X124100000Y-94100000D01*
X119900000Y-91700000D02*
X119900000Y-96300000D01*
X126200000Y-89500000D02*
X126200000Y-94100000D01*
X119450000Y-91700000D02*
X119450000Y-96300000D01*
X121100000Y-91700000D02*
X121100000Y-96300000D01*
X120050000Y-91700000D02*
X120050000Y-96300000D01*
X121825000Y-96325000D02*
X119275000Y-96325000D01*
X126850000Y-94125000D02*
X124275000Y-94125000D01*
X126850000Y-89475000D02*
X124250000Y-89475000D01*
X118250000Y-95300000D02*
X119275000Y-96325000D01*
X125600000Y-89500000D02*
X125600000Y-94100000D01*
X124400000Y-89500000D02*
X124400000Y-94050000D01*
X118850000Y-92100000D02*
X118850000Y-95900000D01*
X125750000Y-89500000D02*
X125750000Y-94100000D01*
X124550000Y-89500000D02*
X124550000Y-94100000D01*
X119750000Y-91700000D02*
X119750000Y-96300000D01*
X122150000Y-91500000D02*
X122150000Y-96050000D01*
X124850000Y-89500000D02*
X124850000Y-94100000D01*
X123150000Y-90650000D02*
X123150000Y-94800000D01*
X123950000Y-89550000D02*
X123950000Y-94100000D01*
X120500000Y-91700000D02*
X120500000Y-96300000D01*
X122300000Y-91450000D02*
X122300000Y-95900000D01*
X127700000Y-90050000D02*
X127700000Y-93600000D01*
X121700000Y-91650000D02*
X121700000Y-96300000D01*
X119000000Y-91950000D02*
X119000000Y-96050000D01*
X121250000Y-91700000D02*
X121250000Y-96300000D01*
X127250000Y-89600000D02*
X127250000Y-94000000D01*
X118250000Y-92700000D02*
X119275000Y-91675000D01*
X124700000Y-89500000D02*
X124700000Y-94100000D01*
X118400000Y-92550000D02*
X118400000Y-95450000D01*
X126950000Y-89500000D02*
X126950000Y-94050000D01*
X123550000Y-89900000D02*
X123550000Y-94300000D01*
X127400000Y-89700000D02*
X127400000Y-93900000D01*
X124250000Y-89500000D02*
X124250000Y-94100000D01*
X126800000Y-89500000D02*
X126800000Y-94100000D01*
D12*
X116650000Y-81048460D02*
X124950000Y-81048460D01*
D10*
X119600000Y-91700000D02*
X119600000Y-96300000D01*
X127850000Y-93125000D02*
X127850000Y-90475000D01*
X123450000Y-90150000D02*
X123450000Y-94350000D01*
X118250000Y-95300000D02*
X118250000Y-92700000D01*
X122600000Y-91250000D02*
X122600000Y-95650000D01*
X126500000Y-89500000D02*
X126500000Y-94100000D01*
X123050000Y-90850000D02*
X123050000Y-95300000D01*
X122900000Y-91000000D02*
X122900000Y-95450000D01*
X125450000Y-89500000D02*
X125450000Y-94100000D01*
X125000000Y-89500000D02*
X125000000Y-94100000D01*
X124275000Y-94125000D02*
G75*
G03*
X123100000Y-95300000I2J-1175002D01*
G01*
X126850000Y-94125000D02*
G75*
G03*
X127850000Y-93125000I1J999999D01*
G01*
X121250000Y-91675000D02*
G75*
G03*
X123387801Y-90178096I1J2274999D01*
G01*
X124249005Y-89476209D02*
G75*
G03*
X123387801Y-90178096I38796J-926887D01*
G01*
X127850000Y-90475000D02*
G75*
G03*
X126850000Y-89475000I-999999J1D01*
G01*
G36*
X124950000Y-82064460D02*
G01*
X123942000Y-81051000D01*
X124950000Y-81048460D01*
X124950000Y-82064460D01*
G37*
D13*
X124950000Y-82064460D02*
X123942000Y-81051000D01*
X124950000Y-81048460D01*
X124950000Y-82064460D01*
D12*
X144000000Y-78548460D02*
X144000000Y-80199460D01*
D10*
X142850000Y-87150000D02*
X142850000Y-91700000D01*
X146000000Y-87000000D02*
X146000000Y-91550000D01*
X145400000Y-87000000D02*
X145400000Y-91600000D01*
X139250000Y-89200000D02*
X139250000Y-93800000D01*
X142100000Y-88350000D02*
X142100000Y-92800000D01*
X143150000Y-87000000D02*
X143150000Y-91600000D01*
X140875000Y-93825000D02*
X142150000Y-92800000D01*
X146650000Y-87400000D02*
X146650000Y-91150000D01*
X138650000Y-89200000D02*
X138650000Y-93800000D01*
X144500000Y-87000000D02*
X144500000Y-91600000D01*
X137300000Y-92800000D02*
X137300000Y-90200000D01*
X142300000Y-88000000D02*
X142300000Y-92150000D01*
X146750000Y-87550000D02*
X146750000Y-91100000D01*
X139850000Y-89200000D02*
X139850000Y-93800000D01*
X144350000Y-87000000D02*
X144350000Y-91600000D01*
X145850000Y-87000000D02*
X145850000Y-91600000D01*
X141500000Y-88850000D02*
X141500000Y-93300000D01*
X138500000Y-89200000D02*
X138500000Y-93800000D01*
X146450000Y-87200000D02*
X146450000Y-91400000D01*
X141350000Y-88950000D02*
X141350000Y-93400000D01*
X143450000Y-87000000D02*
X143450000Y-91550000D01*
X143900000Y-87000000D02*
X143900000Y-91600000D01*
X137300000Y-92800000D02*
X138325000Y-93825000D01*
X145550000Y-87000000D02*
X145550000Y-91600000D01*
X141950000Y-88500000D02*
X141950000Y-92950000D01*
X140300000Y-89175000D02*
X138325000Y-89175000D01*
X140600000Y-89150000D02*
X140600000Y-93800000D01*
X143300000Y-87000000D02*
X143300000Y-91600000D01*
X141050000Y-89100000D02*
X141050000Y-93650000D01*
X145700000Y-87000000D02*
X145700000Y-91600000D01*
X143600000Y-87000000D02*
X143600000Y-91600000D01*
X144800000Y-87000000D02*
X144800000Y-91600000D01*
X143750000Y-87000000D02*
X143750000Y-91600000D01*
X143000000Y-87050000D02*
X143000000Y-91600000D01*
X142700000Y-87250000D02*
X142700000Y-91750000D01*
X142500000Y-87650000D02*
X142500000Y-91850000D01*
X138200000Y-89350000D02*
X138200000Y-93700000D01*
X145100000Y-87000000D02*
X145100000Y-91600000D01*
X145900000Y-86975000D02*
X143300000Y-86975000D01*
X138800000Y-89200000D02*
X138800000Y-93800000D01*
X139100000Y-89200000D02*
X139100000Y-93800000D01*
X146900000Y-90625000D02*
X146900000Y-87975000D01*
X140875000Y-93825000D02*
X138325000Y-93825000D01*
D12*
X135700000Y-78548460D02*
X144000000Y-78548460D01*
D10*
X146550000Y-87300000D02*
X146550000Y-91250000D01*
D12*
X144000000Y-83251000D02*
X135700000Y-83248460D01*
D10*
X137300000Y-90200000D02*
X138325000Y-89175000D01*
X141200000Y-89000000D02*
X141200000Y-93550000D01*
X137600000Y-89950000D02*
X137600000Y-93100000D01*
X139700000Y-89200000D02*
X139700000Y-93800000D01*
X144200000Y-87000000D02*
X144200000Y-91600000D01*
X141650000Y-88750000D02*
X141650000Y-93150000D01*
X140300000Y-89200000D02*
X140300000Y-93800000D01*
X144950000Y-87000000D02*
X144950000Y-91600000D01*
X140900000Y-89150000D02*
X140900000Y-93750000D01*
X138350000Y-89200000D02*
X138350000Y-93800000D01*
X142400000Y-87800000D02*
X142400000Y-91950000D01*
X141800000Y-88650000D02*
X141800000Y-93050000D01*
X145900000Y-91625000D02*
X143325000Y-91625000D01*
X138950000Y-89200000D02*
X138950000Y-93800000D01*
X142200000Y-88150000D02*
X142200000Y-92300000D01*
X145250000Y-87000000D02*
X145250000Y-91600000D01*
X138050000Y-89450000D02*
X138050000Y-93550000D01*
X139400000Y-89200000D02*
X139400000Y-93800000D01*
X146300000Y-87100000D02*
X146300000Y-91500000D01*
X137750000Y-89750000D02*
X137750000Y-93250000D01*
X140000000Y-89200000D02*
X140000000Y-93800000D01*
X137900000Y-89600000D02*
X137900000Y-93400000D01*
X144650000Y-87000000D02*
X144650000Y-91600000D01*
X140450000Y-89200000D02*
X140450000Y-93750000D01*
X140750000Y-89150000D02*
X140750000Y-93800000D01*
X137450000Y-90050000D02*
X137450000Y-92950000D01*
X140150000Y-89200000D02*
X140150000Y-93800000D01*
X146150000Y-87050000D02*
X146150000Y-91550000D01*
X144050000Y-87000000D02*
X144050000Y-91600000D01*
X139550000Y-89200000D02*
X139550000Y-93800000D01*
X142600000Y-87400000D02*
X142600000Y-91800000D01*
X146900000Y-87975000D02*
G75*
G03*
X145900000Y-86975000I-999999J1D01*
G01*
X143325000Y-91625000D02*
G75*
G03*
X142150000Y-92800000I2J-1175002D01*
G01*
X140300000Y-89175000D02*
G75*
G03*
X142437801Y-87678096I1J2274999D01*
G01*
X145900000Y-91625000D02*
G75*
G03*
X146900000Y-90625000I1J999999D01*
G01*
X143299005Y-86976209D02*
G75*
G03*
X142437801Y-87678096I38796J-926887D01*
G01*
G36*
X144000000Y-79564460D02*
G01*
X142992000Y-78551000D01*
X144000000Y-78548460D01*
X144000000Y-79564460D01*
G37*
D13*
X144000000Y-79564460D02*
X142992000Y-78551000D01*
X144000000Y-78548460D01*
X144000000Y-79564460D01*
D10*
X119750000Y-110750000D02*
X119750000Y-115350000D01*
D12*
X124950000Y-100098460D02*
X124950000Y-101749460D01*
D10*
X120950000Y-110750000D02*
X120950000Y-115350000D01*
X122900000Y-110050000D02*
X122900000Y-114500000D01*
X121825000Y-115375000D02*
X123100000Y-114350000D01*
X122150000Y-110550000D02*
X122150000Y-115100000D01*
X126850000Y-113175000D02*
X124275000Y-113175000D01*
X127500000Y-108850000D02*
X127500000Y-112800000D01*
X125300000Y-108550000D02*
X125300000Y-113150000D01*
X120500000Y-110750000D02*
X120500000Y-115350000D01*
X121100000Y-110750000D02*
X121100000Y-115350000D01*
X125450000Y-108550000D02*
X125450000Y-113150000D01*
X126500000Y-108550000D02*
X126500000Y-113150000D01*
X118250000Y-111750000D02*
X119275000Y-110725000D01*
X126050000Y-108550000D02*
X126050000Y-113150000D01*
X123450000Y-109200000D02*
X123450000Y-113400000D01*
X119600000Y-110750000D02*
X119600000Y-115350000D01*
X120650000Y-110750000D02*
X120650000Y-115350000D01*
X120050000Y-110750000D02*
X120050000Y-115350000D01*
X121825000Y-115375000D02*
X119275000Y-115375000D01*
X123050000Y-109900000D02*
X123050000Y-114350000D01*
X119000000Y-111000000D02*
X119000000Y-115100000D01*
X125600000Y-108550000D02*
X125600000Y-113150000D01*
X123950000Y-108600000D02*
X123950000Y-113150000D01*
D12*
X124950000Y-104801000D02*
X116650000Y-104798460D01*
D10*
X123800000Y-108700000D02*
X123800000Y-113250000D01*
X121700000Y-110700000D02*
X121700000Y-115350000D01*
X118700000Y-111300000D02*
X118700000Y-114800000D01*
X123250000Y-109550000D02*
X123250000Y-113700000D01*
X127700000Y-109100000D02*
X127700000Y-112650000D01*
X125000000Y-108550000D02*
X125000000Y-113150000D01*
X123150000Y-109700000D02*
X123150000Y-113850000D01*
X125900000Y-108550000D02*
X125900000Y-113150000D01*
X118550000Y-111500000D02*
X118550000Y-114650000D01*
X127850000Y-112175000D02*
X127850000Y-109525000D01*
X118250000Y-114350000D02*
X119275000Y-115375000D01*
X121850000Y-110700000D02*
X121850000Y-115300000D01*
X126200000Y-108550000D02*
X126200000Y-113150000D01*
X126650000Y-108550000D02*
X126650000Y-113150000D01*
X124250000Y-108550000D02*
X124250000Y-113150000D01*
X127600000Y-108950000D02*
X127600000Y-112700000D01*
X118850000Y-111150000D02*
X118850000Y-114950000D01*
X123650000Y-108800000D02*
X123650000Y-113300000D01*
X127100000Y-108600000D02*
X127100000Y-113100000D01*
X122000000Y-110650000D02*
X122000000Y-115200000D01*
X123550000Y-108950000D02*
X123550000Y-113350000D01*
X124400000Y-108550000D02*
X124400000Y-113100000D01*
X124550000Y-108550000D02*
X124550000Y-113150000D01*
X119150000Y-110900000D02*
X119150000Y-115250000D01*
X122750000Y-110200000D02*
X122750000Y-114600000D01*
X126800000Y-108550000D02*
X126800000Y-113150000D01*
X123350000Y-109350000D02*
X123350000Y-113500000D01*
X121250000Y-110725000D02*
X119275000Y-110725000D01*
X124850000Y-108550000D02*
X124850000Y-113150000D01*
X120800000Y-110750000D02*
X120800000Y-115350000D01*
X121400000Y-110750000D02*
X121400000Y-115300000D01*
X119450000Y-110750000D02*
X119450000Y-115350000D01*
X126850000Y-108525000D02*
X124250000Y-108525000D01*
X119900000Y-110750000D02*
X119900000Y-115350000D01*
X119300000Y-110750000D02*
X119300000Y-115350000D01*
X122450000Y-110400000D02*
X122450000Y-114850000D01*
X126350000Y-108550000D02*
X126350000Y-113150000D01*
X120200000Y-110750000D02*
X120200000Y-115350000D01*
X121250000Y-110750000D02*
X121250000Y-115350000D01*
X125150000Y-108550000D02*
X125150000Y-113150000D01*
X127250000Y-108650000D02*
X127250000Y-113050000D01*
X118250000Y-114350000D02*
X118250000Y-111750000D01*
X120350000Y-110750000D02*
X120350000Y-115350000D01*
X118400000Y-111600000D02*
X118400000Y-114500000D01*
X124100000Y-108550000D02*
X124100000Y-113150000D01*
X126950000Y-108550000D02*
X126950000Y-113100000D01*
X124700000Y-108550000D02*
X124700000Y-113150000D01*
D12*
X116650000Y-100098460D02*
X124950000Y-100098460D01*
D10*
X121550000Y-110700000D02*
X121550000Y-115350000D01*
X122300000Y-110500000D02*
X122300000Y-114950000D01*
X127400000Y-108750000D02*
X127400000Y-112950000D01*
X125750000Y-108550000D02*
X125750000Y-113150000D01*
X122600000Y-110300000D02*
X122600000Y-114700000D01*
X124275000Y-113175000D02*
G75*
G03*
X123100000Y-114350000I2J-1175002D01*
G01*
X121250000Y-110725000D02*
G75*
G03*
X123387801Y-109228096I1J2274999D01*
G01*
X124249005Y-108526209D02*
G75*
G03*
X123387801Y-109228096I38796J-926887D01*
G01*
X127850000Y-109525000D02*
G75*
G03*
X126850000Y-108525000I-999999J1D01*
G01*
X126850000Y-113175000D02*
G75*
G03*
X127850000Y-112175000I1J999999D01*
G01*
G36*
X124950000Y-101114460D02*
G01*
X123942000Y-100101000D01*
X124950000Y-100098460D01*
X124950000Y-101114460D01*
G37*
D13*
X124950000Y-101114460D02*
X123942000Y-100101000D01*
X124950000Y-100098460D01*
X124950000Y-101114460D01*
D10*
X156500000Y-106600000D02*
X156500000Y-109500000D01*
X162500000Y-103550000D02*
X162500000Y-108100000D01*
X161550000Y-104200000D02*
X161550000Y-108400000D01*
D12*
X163050000Y-95098460D02*
X163050000Y-96749460D01*
D10*
X162650000Y-103550000D02*
X162650000Y-108150000D01*
X164150000Y-103550000D02*
X164150000Y-108150000D01*
X157550000Y-105750000D02*
X157550000Y-110350000D01*
X161250000Y-104700000D02*
X161250000Y-108850000D01*
X165050000Y-103550000D02*
X165050000Y-108100000D01*
X163400000Y-103550000D02*
X163400000Y-108150000D01*
X159950000Y-105700000D02*
X159950000Y-110300000D01*
X164750000Y-103550000D02*
X164750000Y-108150000D01*
X165700000Y-103950000D02*
X165700000Y-107700000D01*
X158300000Y-105750000D02*
X158300000Y-110350000D01*
D12*
X163050000Y-99801000D02*
X154750000Y-99798460D01*
D10*
X157100000Y-106000000D02*
X157100000Y-110100000D01*
X162350000Y-103550000D02*
X162350000Y-108150000D01*
X163250000Y-103550000D02*
X163250000Y-108150000D01*
X158000000Y-105750000D02*
X158000000Y-110350000D01*
X160250000Y-105550000D02*
X160250000Y-110100000D01*
X161900000Y-103700000D02*
X161900000Y-108250000D01*
X164900000Y-103550000D02*
X164900000Y-108150000D01*
X159350000Y-105725000D02*
X157375000Y-105725000D01*
X160850000Y-105200000D02*
X160850000Y-109600000D01*
X160550000Y-105400000D02*
X160550000Y-109850000D01*
X159350000Y-105750000D02*
X159350000Y-110350000D01*
X163850000Y-103550000D02*
X163850000Y-108150000D01*
X163700000Y-103550000D02*
X163700000Y-108150000D01*
X159650000Y-105700000D02*
X159650000Y-110350000D01*
X164950000Y-103525000D02*
X162350000Y-103525000D01*
X162200000Y-103550000D02*
X162200000Y-108150000D01*
X165350000Y-103650000D02*
X165350000Y-108050000D01*
X159925000Y-110375000D02*
X161200000Y-109350000D01*
X162050000Y-103600000D02*
X162050000Y-108150000D01*
X158750000Y-105750000D02*
X158750000Y-110350000D01*
X157400000Y-105750000D02*
X157400000Y-110350000D01*
X161000000Y-105050000D02*
X161000000Y-109500000D01*
X160700000Y-105300000D02*
X160700000Y-109700000D01*
X160400000Y-105500000D02*
X160400000Y-109950000D01*
X156350000Y-106750000D02*
X157375000Y-105725000D01*
X164300000Y-103550000D02*
X164300000Y-108150000D01*
X156950000Y-106150000D02*
X156950000Y-109950000D01*
X157250000Y-105900000D02*
X157250000Y-110250000D01*
X161150000Y-104900000D02*
X161150000Y-109350000D01*
X159925000Y-110375000D02*
X157375000Y-110375000D01*
D12*
X154750000Y-95098460D02*
X163050000Y-95098460D01*
D10*
X159800000Y-105700000D02*
X159800000Y-110350000D01*
X157700000Y-105750000D02*
X157700000Y-110350000D01*
X158150000Y-105750000D02*
X158150000Y-110350000D01*
X156650000Y-106500000D02*
X156650000Y-109650000D01*
X163550000Y-103550000D02*
X163550000Y-108150000D01*
X161450000Y-104350000D02*
X161450000Y-108500000D01*
X159500000Y-105750000D02*
X159500000Y-110300000D01*
X164950000Y-108175000D02*
X162375000Y-108175000D01*
X165600000Y-103850000D02*
X165600000Y-107800000D01*
X164450000Y-103550000D02*
X164450000Y-108150000D01*
X156350000Y-109350000D02*
X156350000Y-106750000D01*
X159200000Y-105750000D02*
X159200000Y-110350000D01*
X161350000Y-104550000D02*
X161350000Y-108700000D01*
X157850000Y-105750000D02*
X157850000Y-110350000D01*
X156350000Y-109350000D02*
X157375000Y-110375000D01*
X160100000Y-105650000D02*
X160100000Y-110200000D01*
X162950000Y-103550000D02*
X162950000Y-108150000D01*
X165200000Y-103600000D02*
X165200000Y-108100000D01*
X164600000Y-103550000D02*
X164600000Y-108150000D01*
X165950000Y-107175000D02*
X165950000Y-104525000D01*
X163100000Y-103550000D02*
X163100000Y-108150000D01*
X158600000Y-105750000D02*
X158600000Y-110350000D01*
X161750000Y-103800000D02*
X161750000Y-108300000D01*
X156800000Y-106300000D02*
X156800000Y-109800000D01*
X158900000Y-105750000D02*
X158900000Y-110350000D01*
X162800000Y-103550000D02*
X162800000Y-108150000D01*
X165500000Y-103750000D02*
X165500000Y-107950000D01*
X165800000Y-104100000D02*
X165800000Y-107650000D01*
X158450000Y-105750000D02*
X158450000Y-110350000D01*
X164000000Y-103550000D02*
X164000000Y-108150000D01*
X161650000Y-103950000D02*
X161650000Y-108350000D01*
X159050000Y-105750000D02*
X159050000Y-110350000D01*
X162349005Y-103526209D02*
G75*
G03*
X161487801Y-104228096I38796J-926887D01*
G01*
X165950000Y-104525000D02*
G75*
G03*
X164950000Y-103525000I-999999J1D01*
G01*
X164950000Y-108175000D02*
G75*
G03*
X165950000Y-107175000I1J999999D01*
G01*
X159350000Y-105725000D02*
G75*
G03*
X161487801Y-104228096I1J2274999D01*
G01*
X162375000Y-108175000D02*
G75*
G03*
X161200000Y-109350000I2J-1175002D01*
G01*
G36*
X163050000Y-96114460D02*
G01*
X162042000Y-95101000D01*
X163050000Y-95098460D01*
X163050000Y-96114460D01*
G37*
D13*
X163050000Y-96114460D02*
X162042000Y-95101000D01*
X163050000Y-95098460D01*
X163050000Y-96114460D01*
D10*
X195650000Y-113150000D02*
X195650000Y-117750000D01*
X194450000Y-116750000D02*
X194450000Y-114150000D01*
X197450000Y-113150000D02*
X197450000Y-117750000D01*
X203800000Y-111350000D02*
X203800000Y-115100000D01*
X195350000Y-113300000D02*
X195350000Y-117650000D01*
X202700000Y-110950000D02*
X202700000Y-115550000D01*
X202100000Y-110950000D02*
X202100000Y-115550000D01*
X195800000Y-113150000D02*
X195800000Y-117750000D01*
X201950000Y-110950000D02*
X201950000Y-115550000D01*
X195200000Y-113400000D02*
X195200000Y-117500000D01*
X199650000Y-111600000D02*
X199650000Y-115800000D01*
X200300000Y-110950000D02*
X200300000Y-115550000D01*
X201800000Y-110950000D02*
X201800000Y-115550000D01*
X203700000Y-111250000D02*
X203700000Y-115200000D01*
X203150000Y-110950000D02*
X203150000Y-115500000D01*
X201050000Y-110950000D02*
X201050000Y-115550000D01*
X194900000Y-113700000D02*
X194900000Y-117200000D01*
X203600000Y-111150000D02*
X203600000Y-115350000D01*
X199350000Y-112100000D02*
X199350000Y-116250000D01*
X201500000Y-110950000D02*
X201500000Y-115550000D01*
X201350000Y-110950000D02*
X201350000Y-115550000D01*
X203900000Y-111500000D02*
X203900000Y-115050000D01*
X198025000Y-117775000D02*
X195475000Y-117775000D01*
X204050000Y-114575000D02*
X204050000Y-111925000D01*
X203000000Y-110950000D02*
X203000000Y-115550000D01*
X200000000Y-111100000D02*
X200000000Y-115650000D01*
X202400000Y-110950000D02*
X202400000Y-115550000D01*
X201650000Y-110950000D02*
X201650000Y-115550000D01*
X197000000Y-113150000D02*
X197000000Y-117750000D01*
X198350000Y-112950000D02*
X198350000Y-117500000D01*
X197900000Y-113100000D02*
X197900000Y-117750000D01*
X200450000Y-110950000D02*
X200450000Y-115550000D01*
X194450000Y-116750000D02*
X195475000Y-117775000D01*
X203050000Y-115575000D02*
X200475000Y-115575000D01*
X202250000Y-110950000D02*
X202250000Y-115550000D01*
X198650000Y-112800000D02*
X198650000Y-117250000D01*
D12*
X201150000Y-102498460D02*
X201150000Y-104149460D01*
D10*
X199750000Y-111350000D02*
X199750000Y-115750000D01*
X203300000Y-111000000D02*
X203300000Y-115500000D01*
X194450000Y-114150000D02*
X195475000Y-113125000D01*
X200750000Y-110950000D02*
X200750000Y-115550000D01*
X197300000Y-113150000D02*
X197300000Y-117750000D01*
X200600000Y-110950000D02*
X200600000Y-115500000D01*
X199850000Y-111200000D02*
X199850000Y-115700000D01*
X203450000Y-111050000D02*
X203450000Y-115450000D01*
X198500000Y-112900000D02*
X198500000Y-117350000D01*
X199450000Y-111950000D02*
X199450000Y-116100000D01*
X194600000Y-114000000D02*
X194600000Y-116900000D01*
X195500000Y-113150000D02*
X195500000Y-117750000D01*
D12*
X201150000Y-107201000D02*
X192850000Y-107198460D01*
D10*
X199550000Y-111750000D02*
X199550000Y-115900000D01*
X194750000Y-113900000D02*
X194750000Y-117050000D01*
X198950000Y-112600000D02*
X198950000Y-117000000D01*
X197750000Y-113100000D02*
X197750000Y-117750000D01*
X198025000Y-117775000D02*
X199300000Y-116750000D01*
X203050000Y-110925000D02*
X200450000Y-110925000D01*
X198200000Y-113050000D02*
X198200000Y-117600000D01*
X195050000Y-113550000D02*
X195050000Y-117350000D01*
X196100000Y-113150000D02*
X196100000Y-117750000D01*
X196400000Y-113150000D02*
X196400000Y-117750000D01*
X196550000Y-113150000D02*
X196550000Y-117750000D01*
X200900000Y-110950000D02*
X200900000Y-115550000D01*
X202850000Y-110950000D02*
X202850000Y-115550000D01*
X195950000Y-113150000D02*
X195950000Y-117750000D01*
X200150000Y-111000000D02*
X200150000Y-115550000D01*
X201200000Y-110950000D02*
X201200000Y-115550000D01*
D12*
X192850000Y-102498460D02*
X201150000Y-102498460D01*
D10*
X197600000Y-113150000D02*
X197600000Y-117700000D01*
X197450000Y-113125000D02*
X195475000Y-113125000D01*
X198050000Y-113100000D02*
X198050000Y-117700000D01*
X196700000Y-113150000D02*
X196700000Y-117750000D01*
X199100000Y-112450000D02*
X199100000Y-116900000D01*
X196250000Y-113150000D02*
X196250000Y-117750000D01*
X196850000Y-113150000D02*
X196850000Y-117750000D01*
X202550000Y-110950000D02*
X202550000Y-115550000D01*
X198800000Y-112700000D02*
X198800000Y-117100000D01*
X197150000Y-113150000D02*
X197150000Y-117750000D01*
X199250000Y-112300000D02*
X199250000Y-116750000D01*
X200449005Y-110926209D02*
G75*
G03*
X199587801Y-111628096I38796J-926887D01*
G01*
X203050000Y-115575000D02*
G75*
G03*
X204050000Y-114575000I1J999999D01*
G01*
X197450000Y-113125000D02*
G75*
G03*
X199587801Y-111628096I1J2274999D01*
G01*
X200475000Y-115575000D02*
G75*
G03*
X199300000Y-116750000I2J-1175002D01*
G01*
X204050000Y-111925000D02*
G75*
G03*
X203050000Y-110925000I-999999J1D01*
G01*
G36*
X201150000Y-103514460D02*
G01*
X200142000Y-102501000D01*
X201150000Y-102498460D01*
X201150000Y-103514460D01*
G37*
D13*
X201150000Y-103514460D02*
X200142000Y-102501000D01*
X201150000Y-102498460D01*
X201150000Y-103514460D01*
D10*
X89324617Y-135008142D02*
X91576283Y-133708142D01*
D12*
X100866813Y-126496731D02*
X105016813Y-133684742D01*
D10*
X97154263Y-137069486D02*
X93213848Y-139344486D01*
X98749359Y-140132274D02*
X95112053Y-142232274D01*
X91576283Y-133708142D02*
X92976459Y-134083318D01*
X98322564Y-138993044D02*
X94338848Y-141293044D01*
X97647564Y-137823909D02*
X93663848Y-140123909D01*
X97497564Y-137564102D02*
X93513848Y-139864102D01*
X96651154Y-136898076D02*
X92840642Y-139098076D01*
X96384648Y-136936474D02*
X92747341Y-139036474D01*
X94017309Y-135936122D02*
X90076893Y-138211122D01*
X93642309Y-135286603D02*
X89658592Y-137586603D01*
X96008222Y-142234485D02*
X98303190Y-140909485D01*
X91942789Y-133842949D02*
X89214809Y-135417949D01*
X98247564Y-138863140D02*
X94263848Y-141163140D01*
X92967309Y-134117468D02*
X88983592Y-136417468D01*
X95578430Y-136940064D02*
X91724617Y-139165064D01*
X94210610Y-136170929D02*
X90183592Y-138495929D01*
X94403911Y-136405737D02*
X90463495Y-138680737D01*
X95801635Y-136926666D02*
X92207630Y-139001666D01*
X93417309Y-134896891D02*
X89433592Y-137196891D01*
X97722564Y-137953813D02*
X93738848Y-140253813D01*
X97347564Y-137304294D02*
X93363848Y-139604294D01*
X94135610Y-136041025D02*
X90108592Y-138366025D01*
X93492309Y-135026795D02*
X89508592Y-137326795D01*
X97872564Y-138213621D02*
X93888848Y-140513621D01*
X98669215Y-139543460D02*
X97369215Y-137291794D01*
X98622564Y-139512659D02*
X94638848Y-141812659D01*
X94845417Y-136670448D02*
X90991604Y-138895448D01*
X97422564Y-137434198D02*
X93482149Y-139709198D01*
X98397564Y-139122947D02*
X94413848Y-141422947D01*
X93567309Y-135156699D02*
X89583592Y-137456699D01*
X93267309Y-134637083D02*
X89283592Y-136937083D01*
X98097564Y-138603332D02*
X94113848Y-140903332D01*
X93867309Y-135676314D02*
X89883592Y-137976314D01*
X94683815Y-136590544D02*
X90830002Y-138815544D01*
X92190995Y-133872853D02*
X89159906Y-135622853D01*
X95373526Y-136885160D02*
X91519713Y-139110160D01*
X98596250Y-140567082D02*
X95521860Y-142342082D01*
X90224441Y-138616682D02*
X91749617Y-139208365D01*
X93342309Y-134766987D02*
X89358592Y-137066987D01*
X94285610Y-136300833D02*
X90301893Y-138600833D01*
X90224441Y-138616682D02*
X88949441Y-136408318D01*
X95007020Y-136750352D02*
X91196508Y-138950352D01*
X97272564Y-137174390D02*
X93288848Y-139474390D01*
X97797564Y-138083717D02*
X93813848Y-140383717D01*
X96992661Y-136989583D02*
X93052245Y-139264583D01*
X92600802Y-133982661D02*
X89050098Y-136032661D01*
X98712757Y-140268877D02*
X95291956Y-142243877D01*
X89324617Y-135008142D02*
X88949441Y-136408318D01*
X98472564Y-139252851D02*
X94488848Y-141552851D01*
X96831058Y-136909679D02*
X92933944Y-139159679D01*
X98729263Y-139797466D02*
X94832149Y-142047466D01*
X95981539Y-136938269D02*
X92387534Y-139013269D01*
X94642197Y-141868460D02*
X93354697Y-139638445D01*
X98547564Y-139382755D02*
X94563848Y-141682755D01*
X94565514Y-136485641D02*
X90625098Y-138760641D01*
X93192309Y-134507180D02*
X89208592Y-136807180D01*
X98676154Y-140405479D02*
X95428559Y-142280479D01*
X91781187Y-133763045D02*
X89269713Y-135213045D01*
X98697564Y-139642563D02*
X94757149Y-141917563D01*
X95168623Y-136830256D02*
X91358111Y-139030256D01*
X93942309Y-135806218D02*
X89958592Y-138106218D01*
X96204744Y-136924871D02*
X92610739Y-138999871D01*
X97572564Y-137694005D02*
X93588848Y-139994005D01*
D12*
X100944294Y-136036012D02*
X96796493Y-128846731D01*
D10*
X98760962Y-139952370D02*
X94950450Y-142152370D01*
X98022564Y-138473428D02*
X94038848Y-140773428D01*
X93042309Y-134247372D02*
X89058592Y-136547372D01*
X93792309Y-135546410D02*
X89808592Y-137846410D01*
X97947564Y-138343524D02*
X93963848Y-140643524D01*
X93717309Y-135416506D02*
X89733592Y-137716506D01*
X93963959Y-135793718D02*
X92976459Y-134083318D01*
X92762405Y-134062564D02*
X88995194Y-136237564D01*
D12*
X105016813Y-133684742D02*
X103587005Y-134510242D01*
D10*
X98172564Y-138733236D02*
X94188848Y-141033236D01*
X93117309Y-134377276D02*
X89133592Y-136677276D01*
X92395898Y-133927757D02*
X89105002Y-135827757D01*
X94642197Y-141868460D02*
G75*
G03*
X96008222Y-142234485I866025J499999D01*
G01*
X93963960Y-135793718D02*
G75*
G03*
X96329217Y-136896656I1970207J1137499D01*
G01*
X93354696Y-139638445D02*
G75*
G03*
X91749617Y-139208365I-1017580J-587502D01*
G01*
X97367671Y-137291537D02*
G75*
G03*
X96329217Y-136896656I-783310J-497042D01*
G01*
X98303190Y-140909485D02*
G75*
G03*
X98669215Y-139543460I-499999J866025D01*
G01*
G36*
X105016813Y-133684742D02*
G01*
X104136931Y-134192742D01*
X104510613Y-132813058D01*
X105016813Y-133684742D01*
G37*
D13*
X105016813Y-133684742D02*
X104136931Y-134192742D01*
X104510613Y-132813058D01*
X105016813Y-133684742D01*
D10*
X95340119Y-70061900D02*
X97118119Y-70061900D01*
X97118119Y-72347900D02*
X95340119Y-72347900D01*
X95340119Y-72347900D02*
X95340119Y-70061900D01*
X97118119Y-70061900D02*
X97118119Y-72347900D01*
D12*
X106859408Y-73270000D02*
X106859408Y-74600000D01*
X104259408Y-73270000D02*
X104259408Y-75930000D01*
X104259408Y-75930000D02*
X94039408Y-75930000D01*
X104259408Y-73270000D02*
X94039408Y-73270000D01*
X94039408Y-73270000D02*
X94039408Y-75930000D01*
X105529408Y-73270000D02*
X106859408Y-73270000D01*
D10*
X118918119Y-131773805D02*
X120108687Y-136217064D01*
X121536272Y-128794666D02*
X122726840Y-133237924D01*
X122985161Y-128406437D02*
X124175729Y-132849696D01*
X124459932Y-128114801D02*
X125598735Y-132364875D01*
X119484733Y-131570218D02*
X120688242Y-136061773D01*
X120395428Y-130912087D02*
X121534232Y-135162161D01*
X117759008Y-132084388D02*
X118949576Y-136527647D01*
X117614119Y-132123211D02*
X118804687Y-136566470D01*
X118193675Y-131967920D02*
X119384242Y-136411178D01*
X120025466Y-131270037D02*
X121203093Y-135665000D01*
X121021421Y-129191439D02*
X122186107Y-133538105D01*
X121259435Y-128920608D02*
X122437062Y-133315570D01*
X120960342Y-136014746D02*
X121926608Y-134694677D01*
X124041209Y-128097588D02*
X121529802Y-128770518D01*
X125244717Y-132589143D02*
X122757458Y-133255602D01*
X121391383Y-128833489D02*
X122581951Y-133276747D01*
X121826050Y-128717020D02*
X123016618Y-133160279D01*
X117241868Y-135949950D02*
X118497231Y-136674734D01*
X124144272Y-128095854D02*
X125321899Y-132490817D01*
X118628341Y-131851451D02*
X119818909Y-136294710D01*
X116887136Y-132887407D02*
X117793003Y-136268148D01*
D12*
X112007816Y-122598130D02*
X120025001Y-120449932D01*
D10*
X119774511Y-131492572D02*
X120965079Y-135935831D01*
X124302102Y-128105328D02*
X125466787Y-132451994D01*
X125951824Y-131364398D02*
X125265954Y-128804695D01*
X118338563Y-131929097D02*
X119529131Y-136372356D01*
X119207897Y-131696160D02*
X120398464Y-136139418D01*
X121140428Y-129056023D02*
X122318055Y-133450986D01*
X120514435Y-130776672D02*
X121653239Y-135026746D01*
X117903897Y-132045565D02*
X119094464Y-136488824D01*
X120873994Y-129800343D02*
X121948093Y-133808936D01*
X120829165Y-130019411D02*
X121903264Y-134028003D01*
X123274939Y-128328791D02*
X124465506Y-132772050D01*
X122695383Y-128484083D02*
X123885951Y-132927342D01*
X122550494Y-128522906D02*
X123741062Y-132966164D01*
X122405605Y-128561729D02*
X123596173Y-133004987D01*
X116993202Y-132703696D02*
X117976715Y-136374214D01*
X120620501Y-130592960D02*
X121772246Y-134891330D01*
X124630702Y-128172571D02*
X125717742Y-132229459D01*
X123709605Y-128212323D02*
X124900173Y-132655582D01*
X118773230Y-131812628D02*
X119963798Y-136255887D01*
X117469230Y-132162034D02*
X118659798Y-136605293D01*
X120771396Y-130190181D02*
X121845495Y-134198774D01*
X120960342Y-136014746D02*
X118497231Y-136674734D01*
X116794011Y-133119415D02*
X117609291Y-136162082D01*
X117099268Y-132519984D02*
X118160426Y-136480280D01*
X119352786Y-131657337D02*
X120530412Y-136052299D01*
X123130050Y-128367614D02*
X124320617Y-132810873D01*
X120726567Y-130409248D02*
X121878312Y-134707618D01*
X121681161Y-128755843D02*
X122858788Y-133150805D01*
X120276421Y-131047503D02*
X121428166Y-135345873D01*
X119063008Y-131734982D02*
X120253575Y-136178241D01*
X117218275Y-132384569D02*
X118344138Y-136586346D01*
X118048786Y-132006742D02*
X119239353Y-136450001D01*
X123419828Y-128289969D02*
X124610395Y-132733227D01*
X120157414Y-131182918D02*
X121309159Y-135481288D01*
X120963652Y-129362209D02*
X122102456Y-133612283D01*
X118483452Y-131890274D02*
X119674020Y-136333533D01*
X122115828Y-128639374D02*
X123306395Y-133082633D01*
X125011067Y-128432999D02*
X125929874Y-131862036D01*
X119201426Y-131672011D02*
X117293723Y-132183179D01*
X121970939Y-128678197D02*
X123161506Y-133121456D01*
X116675004Y-133254831D02*
X117425579Y-136056016D01*
X116568938Y-133438543D02*
X117293723Y-132183179D01*
X120931764Y-129629573D02*
X122018804Y-133686461D01*
X123564716Y-128251146D02*
X124755284Y-132694404D01*
D12*
X120025001Y-120449932D02*
X120452311Y-122044675D01*
D10*
X122260717Y-128600551D02*
X123451284Y-133043810D01*
X117324341Y-132200857D02*
X118514909Y-136644116D01*
X124753177Y-128243282D02*
X125775512Y-132058689D01*
X123999383Y-128134677D02*
X125189951Y-132577936D01*
X123854494Y-128173500D02*
X125045062Y-132616759D01*
X122840272Y-128445260D02*
X124030840Y-132888519D01*
X119906459Y-131405453D02*
X121084086Y-135800415D01*
X119629622Y-131531395D02*
X120833131Y-136022950D01*
D12*
X121242108Y-124992236D02*
X113224266Y-127137981D01*
D10*
X124875651Y-128313992D02*
X125846223Y-131936214D01*
X117241868Y-135949950D02*
X116568938Y-133438543D01*
X121529154Y-128771943D02*
G75*
G03*
X120878956Y-129672810I277370J-885263D01*
G01*
X125265954Y-128804695D02*
G75*
G03*
X124041209Y-128097588I-965925J-258818D01*
G01*
X119201426Y-131672012D02*
G75*
G03*
X120878956Y-129672810I-588812J2197481D01*
G01*
X125244717Y-132589142D02*
G75*
G03*
X125951824Y-131364398I-258817J965924D01*
G01*
X122757458Y-133255602D02*
G75*
G03*
X121926608Y-134694677I304115J-1134964D01*
G01*
G36*
X120287961Y-121431312D02*
G01*
X119052005Y-120713275D01*
X120025001Y-120449932D01*
X120287961Y-121431312D01*
G37*
D13*
X120287961Y-121431312D02*
X119052005Y-120713275D01*
X120025001Y-120449932D01*
X120287961Y-121431312D01*
D10*
X215600000Y-75050000D02*
X215600000Y-79650000D01*
X219500000Y-72850000D02*
X219500000Y-77450000D01*
X219050000Y-73000000D02*
X219050000Y-77550000D01*
X219200000Y-72900000D02*
X219200000Y-77450000D01*
X215000000Y-75050000D02*
X215000000Y-79650000D01*
X216050000Y-75050000D02*
X216050000Y-79650000D01*
X222500000Y-72950000D02*
X222500000Y-77350000D01*
D12*
X220200000Y-69101000D02*
X211900000Y-69098460D01*
D10*
X215150000Y-75050000D02*
X215150000Y-79650000D01*
X217700000Y-74700000D02*
X217700000Y-79150000D01*
X218400000Y-74000000D02*
X218400000Y-78150000D01*
X222050000Y-72850000D02*
X222050000Y-77450000D01*
X223100000Y-76475000D02*
X223100000Y-73825000D01*
X216500000Y-75050000D02*
X216500000Y-79650000D01*
X216650000Y-75050000D02*
X216650000Y-79600000D01*
X218150000Y-74350000D02*
X218150000Y-78800000D01*
X222650000Y-73050000D02*
X222650000Y-77250000D01*
X214250000Y-75300000D02*
X214250000Y-79400000D01*
X213800000Y-75800000D02*
X213800000Y-78950000D01*
X213650000Y-75900000D02*
X213650000Y-78800000D01*
X220250000Y-72850000D02*
X220250000Y-77450000D01*
X215300000Y-75050000D02*
X215300000Y-79650000D01*
X222200000Y-72850000D02*
X222200000Y-77400000D01*
X214550000Y-75050000D02*
X214550000Y-79650000D01*
D12*
X220200000Y-64398460D02*
X220200000Y-66049460D01*
D10*
X222100000Y-72825000D02*
X219500000Y-72825000D01*
X221300000Y-72850000D02*
X221300000Y-77450000D01*
X215900000Y-75050000D02*
X215900000Y-79650000D01*
X222850000Y-73250000D02*
X222850000Y-77000000D01*
X214700000Y-75050000D02*
X214700000Y-79650000D01*
X220850000Y-72850000D02*
X220850000Y-77450000D01*
X222350000Y-72900000D02*
X222350000Y-77400000D01*
X221900000Y-72850000D02*
X221900000Y-77450000D01*
X219350000Y-72850000D02*
X219350000Y-77450000D01*
X220400000Y-72850000D02*
X220400000Y-77450000D01*
X214850000Y-75050000D02*
X214850000Y-79650000D01*
X222750000Y-73150000D02*
X222750000Y-77100000D01*
X218500000Y-73850000D02*
X218500000Y-78000000D01*
X216800000Y-75000000D02*
X216800000Y-79650000D01*
X217550000Y-74800000D02*
X217550000Y-79250000D01*
X214100000Y-75450000D02*
X214100000Y-79250000D01*
X219650000Y-72850000D02*
X219650000Y-77400000D01*
X216950000Y-75000000D02*
X216950000Y-79650000D01*
X214400000Y-75200000D02*
X214400000Y-79550000D01*
X218000000Y-74500000D02*
X218000000Y-78900000D01*
X213500000Y-78650000D02*
X214525000Y-79675000D01*
D12*
X211900000Y-64398460D02*
X220200000Y-64398460D01*
D10*
X220100000Y-72850000D02*
X220100000Y-77450000D01*
X221750000Y-72850000D02*
X221750000Y-77450000D01*
X213500000Y-78650000D02*
X213500000Y-76050000D01*
X217100000Y-75000000D02*
X217100000Y-79600000D01*
X215450000Y-75050000D02*
X215450000Y-79650000D01*
X215750000Y-75050000D02*
X215750000Y-79650000D01*
X222100000Y-77475000D02*
X219525000Y-77475000D01*
X221150000Y-72850000D02*
X221150000Y-77450000D01*
X213950000Y-75600000D02*
X213950000Y-79100000D01*
X218300000Y-74200000D02*
X218300000Y-78650000D01*
X219950000Y-72850000D02*
X219950000Y-77450000D01*
X217400000Y-74850000D02*
X217400000Y-79400000D01*
X216200000Y-75050000D02*
X216200000Y-79650000D01*
X216350000Y-75050000D02*
X216350000Y-79650000D01*
X222950000Y-73400000D02*
X222950000Y-76950000D01*
X218700000Y-73500000D02*
X218700000Y-77700000D01*
X221450000Y-72850000D02*
X221450000Y-77450000D01*
X220550000Y-72850000D02*
X220550000Y-77450000D01*
X217075000Y-79675000D02*
X218350000Y-78650000D01*
X217250000Y-74950000D02*
X217250000Y-79500000D01*
X217075000Y-79675000D02*
X214525000Y-79675000D01*
X218900000Y-73100000D02*
X218900000Y-77600000D01*
X220700000Y-72850000D02*
X220700000Y-77450000D01*
X221600000Y-72850000D02*
X221600000Y-77450000D01*
X219800000Y-72850000D02*
X219800000Y-77450000D01*
X213500000Y-76050000D02*
X214525000Y-75025000D01*
X218800000Y-73250000D02*
X218800000Y-77650000D01*
X216500000Y-75025000D02*
X214525000Y-75025000D01*
X217850000Y-74600000D02*
X217850000Y-79000000D01*
X218600000Y-73650000D02*
X218600000Y-77800000D01*
X221000000Y-72850000D02*
X221000000Y-77450000D01*
X222100000Y-77475000D02*
G75*
G03*
X223100000Y-76475000I1J999999D01*
G01*
X219499005Y-72826209D02*
G75*
G03*
X218637801Y-73528096I38796J-926887D01*
G01*
X223100000Y-73825000D02*
G75*
G03*
X222100000Y-72825000I-999999J1D01*
G01*
X216500000Y-75025000D02*
G75*
G03*
X218637801Y-73528096I1J2274999D01*
G01*
X219525000Y-77475000D02*
G75*
G03*
X218350000Y-78650000I2J-1175002D01*
G01*
G36*
X220200000Y-65414460D02*
G01*
X219192000Y-64401000D01*
X220200000Y-64398460D01*
X220200000Y-65414460D01*
G37*
D13*
X220200000Y-65414460D02*
X219192000Y-64401000D01*
X220200000Y-64398460D01*
X220200000Y-65414460D01*
D10*
X218500000Y-92900000D02*
X218500000Y-97050000D01*
X214250000Y-94350000D02*
X214250000Y-98450000D01*
X213650000Y-94950000D02*
X213650000Y-97850000D01*
D12*
X220200000Y-88151000D02*
X211900000Y-88148460D01*
D10*
X220850000Y-91900000D02*
X220850000Y-96500000D01*
X217075000Y-98725000D02*
X214525000Y-98725000D01*
X219650000Y-91900000D02*
X219650000Y-96450000D01*
X216650000Y-94100000D02*
X216650000Y-98650000D01*
X214100000Y-94500000D02*
X214100000Y-98300000D01*
X216200000Y-94100000D02*
X216200000Y-98700000D01*
X216800000Y-94050000D02*
X216800000Y-98700000D01*
X216050000Y-94100000D02*
X216050000Y-98700000D01*
X218000000Y-93550000D02*
X218000000Y-97950000D01*
X220550000Y-91900000D02*
X220550000Y-96500000D01*
X213800000Y-94850000D02*
X213800000Y-98000000D01*
X216350000Y-94100000D02*
X216350000Y-98700000D01*
X223100000Y-95525000D02*
X223100000Y-92875000D01*
X222850000Y-92300000D02*
X222850000Y-96050000D01*
X213950000Y-94650000D02*
X213950000Y-98150000D01*
X216500000Y-94075000D02*
X214525000Y-94075000D01*
X215300000Y-94100000D02*
X215300000Y-98700000D01*
X221000000Y-91900000D02*
X221000000Y-96500000D01*
X218400000Y-93050000D02*
X218400000Y-97200000D01*
X222350000Y-91950000D02*
X222350000Y-96450000D01*
X222200000Y-91900000D02*
X222200000Y-96450000D01*
X213500000Y-97700000D02*
X213500000Y-95100000D01*
X219050000Y-92050000D02*
X219050000Y-96600000D01*
X221300000Y-91900000D02*
X221300000Y-96500000D01*
X215150000Y-94100000D02*
X215150000Y-98700000D01*
X222100000Y-91875000D02*
X219500000Y-91875000D01*
X214400000Y-94250000D02*
X214400000Y-98600000D01*
X214700000Y-94100000D02*
X214700000Y-98700000D01*
X215750000Y-94100000D02*
X215750000Y-98700000D01*
X217400000Y-93900000D02*
X217400000Y-98450000D01*
X218150000Y-93400000D02*
X218150000Y-97850000D01*
X222100000Y-96525000D02*
X219525000Y-96525000D01*
X218600000Y-92700000D02*
X218600000Y-96850000D01*
X218700000Y-92550000D02*
X218700000Y-96750000D01*
X219350000Y-91900000D02*
X219350000Y-96500000D01*
X215900000Y-94100000D02*
X215900000Y-98700000D01*
X221750000Y-91900000D02*
X221750000Y-96500000D01*
X217700000Y-93750000D02*
X217700000Y-98200000D01*
X221150000Y-91900000D02*
X221150000Y-96500000D01*
X213500000Y-95100000D02*
X214525000Y-94075000D01*
X220250000Y-91900000D02*
X220250000Y-96500000D01*
X220400000Y-91900000D02*
X220400000Y-96500000D01*
X218900000Y-92150000D02*
X218900000Y-96650000D01*
X222650000Y-92100000D02*
X222650000Y-96300000D01*
X218300000Y-93250000D02*
X218300000Y-97700000D01*
X215000000Y-94100000D02*
X215000000Y-98700000D01*
X221600000Y-91900000D02*
X221600000Y-96500000D01*
X222500000Y-92000000D02*
X222500000Y-96400000D01*
X215600000Y-94100000D02*
X215600000Y-98700000D01*
X219950000Y-91900000D02*
X219950000Y-96500000D01*
D12*
X220200000Y-83448460D02*
X220200000Y-85099460D01*
D10*
X217850000Y-93650000D02*
X217850000Y-98050000D01*
X217250000Y-94000000D02*
X217250000Y-98550000D01*
X222050000Y-91900000D02*
X222050000Y-96500000D01*
X217550000Y-93850000D02*
X217550000Y-98300000D01*
D12*
X211900000Y-83448460D02*
X220200000Y-83448460D01*
D10*
X222750000Y-92200000D02*
X222750000Y-96150000D01*
X213500000Y-97700000D02*
X214525000Y-98725000D01*
X221450000Y-91900000D02*
X221450000Y-96500000D01*
X216950000Y-94050000D02*
X216950000Y-98700000D01*
X219800000Y-91900000D02*
X219800000Y-96500000D01*
X215450000Y-94100000D02*
X215450000Y-98700000D01*
X221900000Y-91900000D02*
X221900000Y-96500000D01*
X216500000Y-94100000D02*
X216500000Y-98700000D01*
X219500000Y-91900000D02*
X219500000Y-96500000D01*
X214850000Y-94100000D02*
X214850000Y-98700000D01*
X220100000Y-91900000D02*
X220100000Y-96500000D01*
X218800000Y-92300000D02*
X218800000Y-96700000D01*
X217100000Y-94050000D02*
X217100000Y-98650000D01*
X222950000Y-92450000D02*
X222950000Y-96000000D01*
X217075000Y-98725000D02*
X218350000Y-97700000D01*
X219200000Y-91950000D02*
X219200000Y-96500000D01*
X220700000Y-91900000D02*
X220700000Y-96500000D01*
X214550000Y-94100000D02*
X214550000Y-98700000D01*
X219525000Y-96525000D02*
G75*
G03*
X218350000Y-97700000I2J-1175002D01*
G01*
X222100000Y-96525000D02*
G75*
G03*
X223100000Y-95525000I1J999999D01*
G01*
X223100000Y-92875000D02*
G75*
G03*
X222100000Y-91875000I-999999J1D01*
G01*
X216500000Y-94075000D02*
G75*
G03*
X218637801Y-92578096I1J2274999D01*
G01*
X219499005Y-91876209D02*
G75*
G03*
X218637801Y-92578096I38796J-926887D01*
G01*
G36*
X220200000Y-84464460D02*
G01*
X219192000Y-83451000D01*
X220200000Y-83448460D01*
X220200000Y-84464460D01*
G37*
D13*
X220200000Y-84464460D02*
X219192000Y-83451000D01*
X220200000Y-83448460D01*
X220200000Y-84464460D01*
D10*
X218150000Y-112450000D02*
X218150000Y-116900000D01*
X214400000Y-113300000D02*
X214400000Y-117650000D01*
X217250000Y-113050000D02*
X217250000Y-117600000D01*
X216950000Y-113100000D02*
X216950000Y-117750000D01*
X217075000Y-117775000D02*
X214525000Y-117775000D01*
X221150000Y-110950000D02*
X221150000Y-115550000D01*
D12*
X220200000Y-107201000D02*
X211900000Y-107198460D01*
D10*
X215750000Y-113150000D02*
X215750000Y-117750000D01*
X218500000Y-111950000D02*
X218500000Y-116100000D01*
X216500000Y-113125000D02*
X214525000Y-113125000D01*
X215450000Y-113150000D02*
X215450000Y-117750000D01*
X213500000Y-116750000D02*
X214525000Y-117775000D01*
X213950000Y-113700000D02*
X213950000Y-117200000D01*
X216200000Y-113150000D02*
X216200000Y-117750000D01*
X219350000Y-110950000D02*
X219350000Y-115550000D01*
X214700000Y-113150000D02*
X214700000Y-117750000D01*
X221900000Y-110950000D02*
X221900000Y-115550000D01*
X218900000Y-111200000D02*
X218900000Y-115700000D01*
X220550000Y-110950000D02*
X220550000Y-115550000D01*
X223100000Y-114575000D02*
X223100000Y-111925000D01*
X218800000Y-111350000D02*
X218800000Y-115750000D01*
X214850000Y-113150000D02*
X214850000Y-117750000D01*
X216500000Y-113150000D02*
X216500000Y-117750000D01*
X214100000Y-113550000D02*
X214100000Y-117350000D01*
X221600000Y-110950000D02*
X221600000Y-115550000D01*
X217400000Y-112950000D02*
X217400000Y-117500000D01*
X221300000Y-110950000D02*
X221300000Y-115550000D01*
X215000000Y-113150000D02*
X215000000Y-117750000D01*
D12*
X220200000Y-102498460D02*
X220200000Y-104149460D01*
D10*
X221000000Y-110950000D02*
X221000000Y-115550000D01*
X214250000Y-113400000D02*
X214250000Y-117500000D01*
X218700000Y-111600000D02*
X218700000Y-115800000D01*
X222650000Y-111150000D02*
X222650000Y-115350000D01*
X219800000Y-110950000D02*
X219800000Y-115550000D01*
X220400000Y-110950000D02*
X220400000Y-115550000D01*
X222050000Y-110950000D02*
X222050000Y-115550000D01*
X221450000Y-110950000D02*
X221450000Y-115550000D01*
X218000000Y-112600000D02*
X218000000Y-117000000D01*
X216050000Y-113150000D02*
X216050000Y-117750000D01*
X220700000Y-110950000D02*
X220700000Y-115550000D01*
X213800000Y-113900000D02*
X213800000Y-117050000D01*
X220100000Y-110950000D02*
X220100000Y-115550000D01*
X216650000Y-113150000D02*
X216650000Y-117700000D01*
X222100000Y-110925000D02*
X219500000Y-110925000D01*
X213650000Y-114000000D02*
X213650000Y-116900000D01*
X218600000Y-111750000D02*
X218600000Y-115900000D01*
X217100000Y-113100000D02*
X217100000Y-117700000D01*
X222850000Y-111350000D02*
X222850000Y-115100000D01*
X222350000Y-111000000D02*
X222350000Y-115500000D01*
X219200000Y-111000000D02*
X219200000Y-115550000D01*
X219500000Y-110950000D02*
X219500000Y-115550000D01*
X213500000Y-114150000D02*
X214525000Y-113125000D01*
X222750000Y-111250000D02*
X222750000Y-115200000D01*
X217700000Y-112800000D02*
X217700000Y-117250000D01*
X222100000Y-115575000D02*
X219525000Y-115575000D01*
X222200000Y-110950000D02*
X222200000Y-115500000D01*
X219950000Y-110950000D02*
X219950000Y-115550000D01*
X217550000Y-112900000D02*
X217550000Y-117350000D01*
X219050000Y-111100000D02*
X219050000Y-115650000D01*
X215900000Y-113150000D02*
X215900000Y-117750000D01*
X215300000Y-113150000D02*
X215300000Y-117750000D01*
X217075000Y-117775000D02*
X218350000Y-116750000D01*
X215600000Y-113150000D02*
X215600000Y-117750000D01*
X213500000Y-116750000D02*
X213500000Y-114150000D01*
X219650000Y-110950000D02*
X219650000Y-115500000D01*
X217850000Y-112700000D02*
X217850000Y-117100000D01*
D12*
X211900000Y-102498460D02*
X220200000Y-102498460D01*
D10*
X214550000Y-113150000D02*
X214550000Y-117750000D01*
X216350000Y-113150000D02*
X216350000Y-117750000D01*
X221750000Y-110950000D02*
X221750000Y-115550000D01*
X215150000Y-113150000D02*
X215150000Y-117750000D01*
X222500000Y-111050000D02*
X222500000Y-115450000D01*
X216800000Y-113100000D02*
X216800000Y-117750000D01*
X222950000Y-111500000D02*
X222950000Y-115050000D01*
X218400000Y-112100000D02*
X218400000Y-116250000D01*
X220850000Y-110950000D02*
X220850000Y-115550000D01*
X218300000Y-112300000D02*
X218300000Y-116750000D01*
X220250000Y-110950000D02*
X220250000Y-115550000D01*
X219525000Y-115575000D02*
G75*
G03*
X218350000Y-116750000I2J-1175002D01*
G01*
X223100000Y-111925000D02*
G75*
G03*
X222100000Y-110925000I-999999J1D01*
G01*
X219499005Y-110926209D02*
G75*
G03*
X218637801Y-111628096I38796J-926887D01*
G01*
X216500000Y-113125000D02*
G75*
G03*
X218637801Y-111628096I1J2274999D01*
G01*
X222100000Y-115575000D02*
G75*
G03*
X223100000Y-114575000I1J999999D01*
G01*
G36*
X220200000Y-103514460D02*
G01*
X219192000Y-102501000D01*
X220200000Y-102498460D01*
X220200000Y-103514460D01*
G37*
D13*
X220200000Y-103514460D02*
X219192000Y-102501000D01*
X220200000Y-102498460D01*
X220200000Y-103514460D01*
D10*
X176450000Y-51100000D02*
X176450000Y-55700000D01*
X176600000Y-51100000D02*
X176600000Y-55700000D01*
X184000000Y-53525000D02*
X181425000Y-53525000D01*
X176300000Y-51250000D02*
X176300000Y-55600000D01*
X180700000Y-49300000D02*
X180700000Y-53700000D01*
X182150000Y-48900000D02*
X182150000Y-53500000D01*
X177500000Y-51100000D02*
X177500000Y-55700000D01*
X181250000Y-48900000D02*
X181250000Y-53500000D01*
X179450000Y-50850000D02*
X179450000Y-55300000D01*
X175400000Y-54700000D02*
X175400000Y-52100000D01*
X183500000Y-48900000D02*
X183500000Y-53500000D01*
X176000000Y-51500000D02*
X176000000Y-55300000D01*
X178850000Y-51050000D02*
X178850000Y-55700000D01*
D12*
X182100000Y-45151000D02*
X173800000Y-45148460D01*
D10*
X179000000Y-51050000D02*
X179000000Y-55650000D01*
X178400000Y-51100000D02*
X178400000Y-55700000D01*
X182450000Y-48900000D02*
X182450000Y-53500000D01*
X177950000Y-51100000D02*
X177950000Y-55700000D01*
X181400000Y-48900000D02*
X181400000Y-53500000D01*
X183350000Y-48900000D02*
X183350000Y-53500000D01*
X180500000Y-49700000D02*
X180500000Y-53850000D01*
X181850000Y-48900000D02*
X181850000Y-53500000D01*
X175850000Y-51650000D02*
X175850000Y-55150000D01*
X179150000Y-51000000D02*
X179150000Y-55550000D01*
X180200000Y-50250000D02*
X180200000Y-54700000D01*
X179600000Y-50750000D02*
X179600000Y-55200000D01*
X178100000Y-51100000D02*
X178100000Y-55700000D01*
X180950000Y-49050000D02*
X180950000Y-53600000D01*
X184650000Y-49200000D02*
X184650000Y-53150000D01*
X178975000Y-55725000D02*
X180250000Y-54700000D01*
X184250000Y-48950000D02*
X184250000Y-53450000D01*
X184100000Y-48900000D02*
X184100000Y-53450000D01*
X175550000Y-51950000D02*
X175550000Y-54850000D01*
X179900000Y-50550000D02*
X179900000Y-54950000D01*
X180300000Y-50050000D02*
X180300000Y-54200000D01*
X177200000Y-51100000D02*
X177200000Y-55700000D01*
D12*
X182100000Y-40448460D02*
X182100000Y-42099460D01*
D10*
X178550000Y-51100000D02*
X178550000Y-55650000D01*
X183950000Y-48900000D02*
X183950000Y-53500000D01*
X176900000Y-51100000D02*
X176900000Y-55700000D01*
X184550000Y-49100000D02*
X184550000Y-53300000D01*
X183050000Y-48900000D02*
X183050000Y-53500000D01*
X183800000Y-48900000D02*
X183800000Y-53500000D01*
X184000000Y-48875000D02*
X181400000Y-48875000D01*
X185000000Y-52525000D02*
X185000000Y-49875000D01*
X183650000Y-48900000D02*
X183650000Y-53500000D01*
X184400000Y-49000000D02*
X184400000Y-53400000D01*
X179750000Y-50650000D02*
X179750000Y-55050000D01*
X181100000Y-48950000D02*
X181100000Y-53500000D01*
X178400000Y-51075000D02*
X176425000Y-51075000D01*
X175400000Y-52100000D02*
X176425000Y-51075000D01*
X180600000Y-49550000D02*
X180600000Y-53750000D01*
X175700000Y-51850000D02*
X175700000Y-55000000D01*
X177050000Y-51100000D02*
X177050000Y-55700000D01*
X182600000Y-48900000D02*
X182600000Y-53500000D01*
X184850000Y-49450000D02*
X184850000Y-53000000D01*
X178250000Y-51100000D02*
X178250000Y-55700000D01*
X180800000Y-49150000D02*
X180800000Y-53650000D01*
X175400000Y-54700000D02*
X176425000Y-55725000D01*
X180400000Y-49900000D02*
X180400000Y-54050000D01*
X180050000Y-50400000D02*
X180050000Y-54850000D01*
X181700000Y-48900000D02*
X181700000Y-53500000D01*
X182000000Y-48900000D02*
X182000000Y-53500000D01*
X182750000Y-48900000D02*
X182750000Y-53500000D01*
X176150000Y-51350000D02*
X176150000Y-55450000D01*
X179300000Y-50900000D02*
X179300000Y-55450000D01*
X177350000Y-51100000D02*
X177350000Y-55700000D01*
X177800000Y-51100000D02*
X177800000Y-55700000D01*
X178975000Y-55725000D02*
X176425000Y-55725000D01*
X183200000Y-48900000D02*
X183200000Y-53500000D01*
X182900000Y-48900000D02*
X182900000Y-53500000D01*
X177650000Y-51100000D02*
X177650000Y-55700000D01*
X182300000Y-48900000D02*
X182300000Y-53500000D01*
X178700000Y-51050000D02*
X178700000Y-55700000D01*
X176750000Y-51100000D02*
X176750000Y-55700000D01*
D12*
X173800000Y-40448460D02*
X182100000Y-40448460D01*
D10*
X184750000Y-49300000D02*
X184750000Y-53050000D01*
X181550000Y-48900000D02*
X181550000Y-53450000D01*
X181425000Y-53525000D02*
G75*
G03*
X180250000Y-54700000I2J-1175002D01*
G01*
X178400000Y-51075000D02*
G75*
G03*
X180537801Y-49578096I1J2274999D01*
G01*
X184000000Y-53525000D02*
G75*
G03*
X185000000Y-52525000I1J999999D01*
G01*
X185000000Y-49875000D02*
G75*
G03*
X184000000Y-48875000I-999999J1D01*
G01*
X181399005Y-48876209D02*
G75*
G03*
X180537801Y-49578096I38796J-926887D01*
G01*
G36*
X182100000Y-41464460D02*
G01*
X181092000Y-40451000D01*
X182100000Y-40448460D01*
X182100000Y-41464460D01*
G37*
D13*
X182100000Y-41464460D02*
X181092000Y-40451000D01*
X182100000Y-40448460D01*
X182100000Y-41464460D01*
D10*
X129455000Y-68030000D02*
X129455000Y-62630000D01*
X129205000Y-64830000D02*
X128205000Y-64830000D01*
X127955000Y-62630000D02*
X127955000Y-68030000D01*
X128205000Y-65830000D02*
X128705000Y-64930000D01*
X129205000Y-65830000D02*
X128205000Y-65830000D01*
X129455000Y-68030000D02*
X127955000Y-68030000D01*
X128705000Y-64930000D02*
X129205000Y-65830000D01*
X129455000Y-62630000D02*
X127955000Y-62630000D01*
X131745000Y-64830000D02*
X130745000Y-64830000D01*
X131745000Y-65830000D02*
X130745000Y-65830000D01*
X130745000Y-65830000D02*
X131245000Y-64930000D01*
X131995000Y-68030000D02*
X130495000Y-68030000D01*
X131245000Y-64930000D02*
X131745000Y-65830000D01*
X131995000Y-62630000D02*
X130495000Y-62630000D01*
X131995000Y-68030000D02*
X131995000Y-62630000D01*
X130495000Y-62630000D02*
X130495000Y-68030000D01*
X151095000Y-60120000D02*
X149595000Y-60120000D01*
X151095000Y-65520000D02*
X149595000Y-65520000D01*
X149595000Y-60120000D02*
X149595000Y-65520000D01*
X150345000Y-62420000D02*
X150845000Y-63320000D01*
X150845000Y-63320000D02*
X149845000Y-63320000D01*
X150845000Y-62320000D02*
X149845000Y-62320000D01*
X149845000Y-63320000D02*
X150345000Y-62420000D01*
X151095000Y-65520000D02*
X151095000Y-60120000D01*
X169845000Y-64730000D02*
X168845000Y-64730000D01*
X170095000Y-62530000D02*
X168595000Y-62530000D01*
X168845000Y-65730000D02*
X169345000Y-64830000D01*
X169845000Y-65730000D02*
X168845000Y-65730000D01*
X170095000Y-67930000D02*
X170095000Y-62530000D01*
X168595000Y-62530000D02*
X168595000Y-67930000D01*
X169345000Y-64830000D02*
X169845000Y-65730000D01*
X170095000Y-67930000D02*
X168595000Y-67930000D01*
X189189120Y-69402640D02*
X187689120Y-69402640D01*
X188439120Y-66302640D02*
X188939120Y-67202640D01*
X187689120Y-64002640D02*
X187689120Y-69402640D01*
X189189120Y-69402640D02*
X189189120Y-64002640D01*
X188939120Y-67202640D02*
X187939120Y-67202640D01*
X188939120Y-66202640D02*
X187939120Y-66202640D01*
X189189120Y-64002640D02*
X187689120Y-64002640D01*
X187939120Y-67202640D02*
X188439120Y-66302640D01*
X208195000Y-67330000D02*
X206695000Y-67330000D01*
X206695000Y-67330000D02*
X206695000Y-72730000D01*
X208195000Y-72730000D02*
X206695000Y-72730000D01*
X207945000Y-69530000D02*
X206945000Y-69530000D01*
X206945000Y-70530000D02*
X207445000Y-69630000D01*
X207945000Y-70530000D02*
X206945000Y-70530000D01*
X208195000Y-72730000D02*
X208195000Y-67330000D01*
X207445000Y-69630000D02*
X207945000Y-70530000D01*
X201650000Y-53800000D02*
X201650000Y-58400000D01*
X197000000Y-56000000D02*
X197000000Y-60600000D01*
X197900000Y-55950000D02*
X197900000Y-60600000D01*
X203300000Y-53850000D02*
X203300000Y-58350000D01*
X200900000Y-53800000D02*
X200900000Y-58400000D01*
X199650000Y-54450000D02*
X199650000Y-58650000D01*
X198650000Y-55650000D02*
X198650000Y-60100000D01*
X202250000Y-53800000D02*
X202250000Y-58400000D01*
X194450000Y-57000000D02*
X195475000Y-55975000D01*
X200150000Y-53850000D02*
X200150000Y-58400000D01*
X201350000Y-53800000D02*
X201350000Y-58400000D01*
X200450000Y-53800000D02*
X200450000Y-58400000D01*
X198050000Y-55950000D02*
X198050000Y-60550000D01*
X200000000Y-53950000D02*
X200000000Y-58500000D01*
X202100000Y-53800000D02*
X202100000Y-58400000D01*
X199850000Y-54050000D02*
X199850000Y-58550000D01*
X196100000Y-56000000D02*
X196100000Y-60600000D01*
X196400000Y-56000000D02*
X196400000Y-60600000D01*
D12*
X192850000Y-45348460D02*
X201150000Y-45348460D01*
D10*
X195650000Y-56000000D02*
X195650000Y-60600000D01*
X198025000Y-60625000D02*
X195475000Y-60625000D01*
X200600000Y-53800000D02*
X200600000Y-58350000D01*
X202400000Y-53800000D02*
X202400000Y-58400000D01*
X203000000Y-53800000D02*
X203000000Y-58400000D01*
X202700000Y-53800000D02*
X202700000Y-58400000D01*
X197300000Y-56000000D02*
X197300000Y-60600000D01*
D12*
X201150000Y-50051000D02*
X192850000Y-50048460D01*
D10*
X194450000Y-59600000D02*
X194450000Y-57000000D01*
X195200000Y-56250000D02*
X195200000Y-60350000D01*
X196850000Y-56000000D02*
X196850000Y-60600000D01*
X194450000Y-59600000D02*
X195475000Y-60625000D01*
X199350000Y-54950000D02*
X199350000Y-59100000D01*
X203800000Y-54200000D02*
X203800000Y-57950000D01*
X201950000Y-53800000D02*
X201950000Y-58400000D01*
X196700000Y-56000000D02*
X196700000Y-60600000D01*
X195350000Y-56150000D02*
X195350000Y-60500000D01*
X203600000Y-54000000D02*
X203600000Y-58200000D01*
X201800000Y-53800000D02*
X201800000Y-58400000D01*
X194600000Y-56850000D02*
X194600000Y-59750000D01*
X199450000Y-54800000D02*
X199450000Y-58950000D01*
X201500000Y-53800000D02*
X201500000Y-58400000D01*
X201050000Y-53800000D02*
X201050000Y-58400000D01*
X197150000Y-56000000D02*
X197150000Y-60600000D01*
X195050000Y-56400000D02*
X195050000Y-60200000D01*
X203050000Y-53775000D02*
X200450000Y-53775000D01*
X203900000Y-54350000D02*
X203900000Y-57900000D01*
X200300000Y-53800000D02*
X200300000Y-58400000D01*
X194750000Y-56750000D02*
X194750000Y-59900000D01*
X199550000Y-54600000D02*
X199550000Y-58750000D01*
X203050000Y-58425000D02*
X200475000Y-58425000D01*
X198200000Y-55900000D02*
X198200000Y-60450000D01*
X196550000Y-56000000D02*
X196550000Y-60600000D01*
X195950000Y-56000000D02*
X195950000Y-60600000D01*
X195800000Y-56000000D02*
X195800000Y-60600000D01*
X195500000Y-56000000D02*
X195500000Y-60600000D01*
X198500000Y-55750000D02*
X198500000Y-60200000D01*
X203450000Y-53900000D02*
X203450000Y-58300000D01*
X203700000Y-54100000D02*
X203700000Y-58050000D01*
X194900000Y-56550000D02*
X194900000Y-60050000D01*
X198950000Y-55450000D02*
X198950000Y-59850000D01*
X199100000Y-55300000D02*
X199100000Y-59750000D01*
X197450000Y-56000000D02*
X197450000Y-60600000D01*
X198800000Y-55550000D02*
X198800000Y-59950000D01*
X199750000Y-54200000D02*
X199750000Y-58600000D01*
X202850000Y-53800000D02*
X202850000Y-58400000D01*
X200750000Y-53800000D02*
X200750000Y-58400000D01*
X197750000Y-55950000D02*
X197750000Y-60600000D01*
X201200000Y-53800000D02*
X201200000Y-58400000D01*
X199250000Y-55150000D02*
X199250000Y-59600000D01*
X196250000Y-56000000D02*
X196250000Y-60600000D01*
X197450000Y-55975000D02*
X195475000Y-55975000D01*
X198350000Y-55800000D02*
X198350000Y-60350000D01*
X198025000Y-60625000D02*
X199300000Y-59600000D01*
D12*
X201150000Y-45348460D02*
X201150000Y-46999460D01*
D10*
X204050000Y-57425000D02*
X204050000Y-54775000D01*
X202550000Y-53800000D02*
X202550000Y-58400000D01*
X203150000Y-53800000D02*
X203150000Y-58350000D01*
X197600000Y-56000000D02*
X197600000Y-60550000D01*
X203050000Y-58425000D02*
G75*
G03*
X204050000Y-57425000I1J999999D01*
G01*
X200449005Y-53776209D02*
G75*
G03*
X199587801Y-54478096I38796J-926887D01*
G01*
X200475000Y-58425000D02*
G75*
G03*
X199300000Y-59600000I2J-1175002D01*
G01*
X197450000Y-55975000D02*
G75*
G03*
X199587801Y-54478096I1J2274999D01*
G01*
X204050000Y-54775000D02*
G75*
G03*
X203050000Y-53775000I-999999J1D01*
G01*
G36*
X201150000Y-46364460D02*
G01*
X200142000Y-45351000D01*
X201150000Y-45348460D01*
X201150000Y-46364460D01*
G37*
D13*
X201150000Y-46364460D02*
X200142000Y-45351000D01*
X201150000Y-45348460D01*
X201150000Y-46364460D01*
D10*
X144050000Y-67950000D02*
X144050000Y-72550000D01*
X139100000Y-70150000D02*
X139100000Y-74750000D01*
X137300000Y-73750000D02*
X137300000Y-71150000D01*
X145250000Y-67950000D02*
X145250000Y-72550000D01*
X146300000Y-68050000D02*
X146300000Y-72450000D01*
X138650000Y-70150000D02*
X138650000Y-74750000D01*
X144650000Y-67950000D02*
X144650000Y-72550000D01*
X140300000Y-70150000D02*
X140300000Y-74750000D01*
X139250000Y-70150000D02*
X139250000Y-74750000D01*
X140600000Y-70100000D02*
X140600000Y-74750000D01*
X146650000Y-68350000D02*
X146650000Y-72100000D01*
D12*
X135700000Y-59498460D02*
X144000000Y-59498460D01*
D10*
X146450000Y-68150000D02*
X146450000Y-72350000D01*
X142400000Y-68750000D02*
X142400000Y-72900000D01*
X137300000Y-73750000D02*
X138325000Y-74775000D01*
X144500000Y-67950000D02*
X144500000Y-72550000D01*
X142500000Y-68600000D02*
X142500000Y-72800000D01*
X145900000Y-67925000D02*
X143300000Y-67925000D01*
X140150000Y-70150000D02*
X140150000Y-74750000D01*
X140875000Y-74775000D02*
X142150000Y-73750000D01*
X142850000Y-68100000D02*
X142850000Y-72650000D01*
X137750000Y-70700000D02*
X137750000Y-74200000D01*
X138950000Y-70150000D02*
X138950000Y-74750000D01*
X137600000Y-70900000D02*
X137600000Y-74050000D01*
X141650000Y-69700000D02*
X141650000Y-74100000D01*
X144800000Y-67950000D02*
X144800000Y-72550000D01*
X141350000Y-69900000D02*
X141350000Y-74350000D01*
X145900000Y-72575000D02*
X143325000Y-72575000D01*
X140300000Y-70125000D02*
X138325000Y-70125000D01*
X143300000Y-67950000D02*
X143300000Y-72550000D01*
X142100000Y-69300000D02*
X142100000Y-73750000D01*
X144350000Y-67950000D02*
X144350000Y-72550000D01*
X142200000Y-69100000D02*
X142200000Y-73250000D01*
X143600000Y-67950000D02*
X143600000Y-72550000D01*
X141800000Y-69600000D02*
X141800000Y-74000000D01*
X143450000Y-67950000D02*
X143450000Y-72500000D01*
X140750000Y-70100000D02*
X140750000Y-74750000D01*
X143000000Y-68000000D02*
X143000000Y-72550000D01*
X145850000Y-67950000D02*
X145850000Y-72550000D01*
X146550000Y-68250000D02*
X146550000Y-72200000D01*
X146150000Y-68000000D02*
X146150000Y-72500000D01*
X138800000Y-70150000D02*
X138800000Y-74750000D01*
X137900000Y-70550000D02*
X137900000Y-74350000D01*
X137450000Y-71000000D02*
X137450000Y-73900000D01*
X140000000Y-70150000D02*
X140000000Y-74750000D01*
X137300000Y-71150000D02*
X138325000Y-70125000D01*
X139850000Y-70150000D02*
X139850000Y-74750000D01*
X138500000Y-70150000D02*
X138500000Y-74750000D01*
X140875000Y-74775000D02*
X138325000Y-74775000D01*
X146900000Y-71575000D02*
X146900000Y-68925000D01*
X138350000Y-70150000D02*
X138350000Y-74750000D01*
X142300000Y-68950000D02*
X142300000Y-73100000D01*
D12*
X144000000Y-59498460D02*
X144000000Y-61149460D01*
D10*
X139550000Y-70150000D02*
X139550000Y-74750000D01*
X140900000Y-70100000D02*
X140900000Y-74700000D01*
X144950000Y-67950000D02*
X144950000Y-72550000D01*
X141950000Y-69450000D02*
X141950000Y-73900000D01*
D12*
X144000000Y-64201000D02*
X135700000Y-64198460D01*
D10*
X142600000Y-68350000D02*
X142600000Y-72750000D01*
X146000000Y-67950000D02*
X146000000Y-72500000D01*
X142700000Y-68200000D02*
X142700000Y-72700000D01*
X143900000Y-67950000D02*
X143900000Y-72550000D01*
X144200000Y-67950000D02*
X144200000Y-72550000D01*
X141050000Y-70050000D02*
X141050000Y-74600000D01*
X145550000Y-67950000D02*
X145550000Y-72550000D01*
X139400000Y-70150000D02*
X139400000Y-74750000D01*
X143750000Y-67950000D02*
X143750000Y-72550000D01*
X146750000Y-68500000D02*
X146750000Y-72050000D01*
X139700000Y-70150000D02*
X139700000Y-74750000D01*
X145100000Y-67950000D02*
X145100000Y-72550000D01*
X141500000Y-69800000D02*
X141500000Y-74250000D01*
X138200000Y-70300000D02*
X138200000Y-74650000D01*
X138050000Y-70400000D02*
X138050000Y-74500000D01*
X141200000Y-69950000D02*
X141200000Y-74500000D01*
X143150000Y-67950000D02*
X143150000Y-72550000D01*
X145400000Y-67950000D02*
X145400000Y-72550000D01*
X145700000Y-67950000D02*
X145700000Y-72550000D01*
X140450000Y-70150000D02*
X140450000Y-74700000D01*
X143325000Y-72575000D02*
G75*
G03*
X142150000Y-73750000I2J-1175002D01*
G01*
X143299005Y-67926209D02*
G75*
G03*
X142437801Y-68628096I38796J-926887D01*
G01*
X145900000Y-72575000D02*
G75*
G03*
X146900000Y-71575000I1J999999D01*
G01*
X140300000Y-70125000D02*
G75*
G03*
X142437801Y-68628096I1J2274999D01*
G01*
X146900000Y-68925000D02*
G75*
G03*
X145900000Y-67925000I-999999J1D01*
G01*
G36*
X144000000Y-60514460D02*
G01*
X142992000Y-59501000D01*
X144000000Y-59498460D01*
X144000000Y-60514460D01*
G37*
D13*
X144000000Y-60514460D02*
X142992000Y-59501000D01*
X144000000Y-59498460D01*
X144000000Y-60514460D01*
D10*
X178975000Y-74775000D02*
X176425000Y-74775000D01*
X184250000Y-68000000D02*
X184250000Y-72500000D01*
X183800000Y-67950000D02*
X183800000Y-72550000D01*
X184100000Y-67950000D02*
X184100000Y-72500000D01*
X183650000Y-67950000D02*
X183650000Y-72550000D01*
X178975000Y-74775000D02*
X180250000Y-73750000D01*
X177950000Y-70150000D02*
X177950000Y-74750000D01*
X184750000Y-68350000D02*
X184750000Y-72100000D01*
X180700000Y-68350000D02*
X180700000Y-72750000D01*
X177200000Y-70150000D02*
X177200000Y-74750000D01*
X180950000Y-68100000D02*
X180950000Y-72650000D01*
X184400000Y-68050000D02*
X184400000Y-72450000D01*
X185000000Y-71575000D02*
X185000000Y-68925000D01*
D12*
X182100000Y-59498460D02*
X182100000Y-61149460D01*
D10*
X183950000Y-67950000D02*
X183950000Y-72550000D01*
X183200000Y-67950000D02*
X183200000Y-72550000D01*
X177500000Y-70150000D02*
X177500000Y-74750000D01*
D12*
X173800000Y-59498460D02*
X182100000Y-59498460D01*
D10*
X180050000Y-69450000D02*
X180050000Y-73900000D01*
X182000000Y-67950000D02*
X182000000Y-72550000D01*
X181400000Y-67950000D02*
X181400000Y-72550000D01*
X182300000Y-67950000D02*
X182300000Y-72550000D01*
X182600000Y-67950000D02*
X182600000Y-72550000D01*
X177800000Y-70150000D02*
X177800000Y-74750000D01*
X180500000Y-68750000D02*
X180500000Y-72900000D01*
X176450000Y-70150000D02*
X176450000Y-74750000D01*
X181100000Y-68000000D02*
X181100000Y-72550000D01*
X183350000Y-67950000D02*
X183350000Y-72550000D01*
X176750000Y-70150000D02*
X176750000Y-74750000D01*
X176900000Y-70150000D02*
X176900000Y-74750000D01*
X175700000Y-70900000D02*
X175700000Y-74050000D01*
X175550000Y-71000000D02*
X175550000Y-73900000D01*
X177050000Y-70150000D02*
X177050000Y-74750000D01*
X176600000Y-70150000D02*
X176600000Y-74750000D01*
X179150000Y-70050000D02*
X179150000Y-74600000D01*
X184650000Y-68250000D02*
X184650000Y-72200000D01*
X179750000Y-69700000D02*
X179750000Y-74100000D01*
X181550000Y-67950000D02*
X181550000Y-72500000D01*
X178700000Y-70100000D02*
X178700000Y-74750000D01*
X184850000Y-68500000D02*
X184850000Y-72050000D01*
X184000000Y-72575000D02*
X181425000Y-72575000D01*
X182750000Y-67950000D02*
X182750000Y-72550000D01*
X181850000Y-67950000D02*
X181850000Y-72550000D01*
X179450000Y-69900000D02*
X179450000Y-74350000D01*
X177650000Y-70150000D02*
X177650000Y-74750000D01*
X177350000Y-70150000D02*
X177350000Y-74750000D01*
X176150000Y-70400000D02*
X176150000Y-74500000D01*
X178400000Y-70150000D02*
X178400000Y-74750000D01*
X179000000Y-70100000D02*
X179000000Y-74700000D01*
X175850000Y-70700000D02*
X175850000Y-74200000D01*
X180400000Y-68950000D02*
X180400000Y-73100000D01*
X183500000Y-67950000D02*
X183500000Y-72550000D01*
X179300000Y-69950000D02*
X179300000Y-74500000D01*
X181250000Y-67950000D02*
X181250000Y-72550000D01*
X178550000Y-70150000D02*
X178550000Y-74700000D01*
X184000000Y-67925000D02*
X181400000Y-67925000D01*
X178250000Y-70150000D02*
X178250000Y-74750000D01*
X175400000Y-73750000D02*
X175400000Y-71150000D01*
X180800000Y-68200000D02*
X180800000Y-72700000D01*
X178850000Y-70100000D02*
X178850000Y-74750000D01*
X179900000Y-69600000D02*
X179900000Y-74000000D01*
X181700000Y-67950000D02*
X181700000Y-72550000D01*
X182450000Y-67950000D02*
X182450000Y-72550000D01*
X180600000Y-68600000D02*
X180600000Y-72800000D01*
X184550000Y-68150000D02*
X184550000Y-72350000D01*
X178400000Y-70125000D02*
X176425000Y-70125000D01*
X176000000Y-70550000D02*
X176000000Y-74350000D01*
X176300000Y-70300000D02*
X176300000Y-74650000D01*
X180300000Y-69100000D02*
X180300000Y-73250000D01*
X175400000Y-73750000D02*
X176425000Y-74775000D01*
X180200000Y-69300000D02*
X180200000Y-73750000D01*
X175400000Y-71150000D02*
X176425000Y-70125000D01*
X179600000Y-69800000D02*
X179600000Y-74250000D01*
X182900000Y-67950000D02*
X182900000Y-72550000D01*
X178100000Y-70150000D02*
X178100000Y-74750000D01*
X183050000Y-67950000D02*
X183050000Y-72550000D01*
D12*
X182100000Y-64201000D02*
X173800000Y-64198460D01*
D10*
X182150000Y-67950000D02*
X182150000Y-72550000D01*
X178400000Y-70125000D02*
G75*
G03*
X180537801Y-68628096I1J2274999D01*
G01*
X181399005Y-67926209D02*
G75*
G03*
X180537801Y-68628096I38796J-926887D01*
G01*
X184000000Y-72575000D02*
G75*
G03*
X185000000Y-71575000I1J999999D01*
G01*
X181425000Y-72575000D02*
G75*
G03*
X180250000Y-73750000I2J-1175002D01*
G01*
X185000000Y-68925000D02*
G75*
G03*
X184000000Y-67925000I-999999J1D01*
G01*
G36*
X182100000Y-60514460D02*
G01*
X181092000Y-59501000D01*
X182100000Y-59498460D01*
X182100000Y-60514460D01*
G37*
D13*
X182100000Y-60514460D02*
X181092000Y-59501000D01*
X182100000Y-59498460D01*
X182100000Y-60514460D01*
D10*
X163100000Y-65450000D02*
X163100000Y-70050000D01*
X158000000Y-67650000D02*
X158000000Y-72250000D01*
X158150000Y-67650000D02*
X158150000Y-72250000D01*
X161250000Y-66600000D02*
X161250000Y-70750000D01*
X165200000Y-65500000D02*
X165200000Y-70000000D01*
X159925000Y-72275000D02*
X157375000Y-72275000D01*
X162800000Y-65450000D02*
X162800000Y-70050000D01*
X163850000Y-65450000D02*
X163850000Y-70050000D01*
X165700000Y-65850000D02*
X165700000Y-69600000D01*
X156350000Y-71250000D02*
X156350000Y-68650000D01*
X163700000Y-65450000D02*
X163700000Y-70050000D01*
X156800000Y-68200000D02*
X156800000Y-71700000D01*
X164450000Y-65450000D02*
X164450000Y-70050000D01*
X156350000Y-68650000D02*
X157375000Y-67625000D01*
X161450000Y-66250000D02*
X161450000Y-70400000D01*
D12*
X163050000Y-61701000D02*
X154750000Y-61698460D01*
D10*
X163250000Y-65450000D02*
X163250000Y-70050000D01*
X164600000Y-65450000D02*
X164600000Y-70050000D01*
D12*
X163050000Y-56998460D02*
X163050000Y-58649460D01*
D10*
X163550000Y-65450000D02*
X163550000Y-70050000D01*
X162500000Y-65450000D02*
X162500000Y-70000000D01*
X162200000Y-65450000D02*
X162200000Y-70050000D01*
X164900000Y-65450000D02*
X164900000Y-70050000D01*
X158900000Y-67650000D02*
X158900000Y-72250000D01*
X165050000Y-65450000D02*
X165050000Y-70000000D01*
X157250000Y-67800000D02*
X157250000Y-72150000D01*
X159350000Y-67625000D02*
X157375000Y-67625000D01*
X165800000Y-66000000D02*
X165800000Y-69550000D01*
X157100000Y-67900000D02*
X157100000Y-72000000D01*
X157850000Y-67650000D02*
X157850000Y-72250000D01*
X156950000Y-68050000D02*
X156950000Y-71850000D01*
X164150000Y-65450000D02*
X164150000Y-70050000D01*
X162050000Y-65500000D02*
X162050000Y-70050000D01*
X158300000Y-67650000D02*
X158300000Y-72250000D01*
X164950000Y-70075000D02*
X162375000Y-70075000D01*
X164750000Y-65450000D02*
X164750000Y-70050000D01*
X161900000Y-65600000D02*
X161900000Y-70150000D01*
X158600000Y-67650000D02*
X158600000Y-72250000D01*
X159050000Y-67650000D02*
X159050000Y-72250000D01*
X161000000Y-66950000D02*
X161000000Y-71400000D01*
X160250000Y-67450000D02*
X160250000Y-72000000D01*
X156650000Y-68400000D02*
X156650000Y-71550000D01*
X164950000Y-65425000D02*
X162350000Y-65425000D01*
X164000000Y-65450000D02*
X164000000Y-70050000D01*
X159350000Y-67650000D02*
X159350000Y-72250000D01*
X161650000Y-65850000D02*
X161650000Y-70250000D01*
X163400000Y-65450000D02*
X163400000Y-70050000D01*
X160850000Y-67100000D02*
X160850000Y-71500000D01*
X165950000Y-69075000D02*
X165950000Y-66425000D01*
X161750000Y-65700000D02*
X161750000Y-70200000D01*
X160700000Y-67200000D02*
X160700000Y-71600000D01*
D12*
X154750000Y-56998460D02*
X163050000Y-56998460D01*
D10*
X161550000Y-66100000D02*
X161550000Y-70300000D01*
X162350000Y-65450000D02*
X162350000Y-70050000D01*
X165500000Y-65650000D02*
X165500000Y-69850000D01*
X159950000Y-67600000D02*
X159950000Y-72200000D01*
X157550000Y-67650000D02*
X157550000Y-72250000D01*
X165350000Y-65550000D02*
X165350000Y-69950000D01*
X160400000Y-67400000D02*
X160400000Y-71850000D01*
X165600000Y-65750000D02*
X165600000Y-69700000D01*
X160100000Y-67550000D02*
X160100000Y-72100000D01*
X157700000Y-67650000D02*
X157700000Y-72250000D01*
X160550000Y-67300000D02*
X160550000Y-71750000D01*
X159500000Y-67650000D02*
X159500000Y-72200000D01*
X161150000Y-66800000D02*
X161150000Y-71250000D01*
X159800000Y-67600000D02*
X159800000Y-72250000D01*
X156350000Y-71250000D02*
X157375000Y-72275000D01*
X157400000Y-67650000D02*
X157400000Y-72250000D01*
X162950000Y-65450000D02*
X162950000Y-70050000D01*
X162650000Y-65450000D02*
X162650000Y-70050000D01*
X159925000Y-72275000D02*
X161200000Y-71250000D01*
X159200000Y-67650000D02*
X159200000Y-72250000D01*
X156500000Y-68500000D02*
X156500000Y-71400000D01*
X159650000Y-67600000D02*
X159650000Y-72250000D01*
X158450000Y-67650000D02*
X158450000Y-72250000D01*
X158750000Y-67650000D02*
X158750000Y-72250000D01*
X164300000Y-65450000D02*
X164300000Y-70050000D01*
X161350000Y-66450000D02*
X161350000Y-70600000D01*
X162349005Y-65426209D02*
G75*
G03*
X161487801Y-66128096I38796J-926887D01*
G01*
X162375000Y-70075000D02*
G75*
G03*
X161200000Y-71250000I2J-1175002D01*
G01*
X165950000Y-66425000D02*
G75*
G03*
X164950000Y-65425000I-999999J1D01*
G01*
X164950000Y-70075000D02*
G75*
G03*
X165950000Y-69075000I1J999999D01*
G01*
X159350000Y-67625000D02*
G75*
G03*
X161487801Y-66128096I1J2274999D01*
G01*
G36*
X163050000Y-58014460D02*
G01*
X162042000Y-57001000D01*
X163050000Y-56998460D01*
X163050000Y-58014460D01*
G37*
D13*
X163050000Y-58014460D02*
X162042000Y-57001000D01*
X163050000Y-56998460D01*
X163050000Y-58014460D01*
D10*
X182150000Y-87000000D02*
X182150000Y-91600000D01*
X175400000Y-92800000D02*
X176425000Y-93825000D01*
D12*
X173800000Y-78548460D02*
X182100000Y-78548460D01*
D10*
X180400000Y-88000000D02*
X180400000Y-92150000D01*
X180200000Y-88350000D02*
X180200000Y-92800000D01*
X176900000Y-89200000D02*
X176900000Y-93800000D01*
X178975000Y-93825000D02*
X180250000Y-92800000D01*
X184850000Y-87550000D02*
X184850000Y-91100000D01*
X175850000Y-89750000D02*
X175850000Y-93250000D01*
X181700000Y-87000000D02*
X181700000Y-91600000D01*
X180700000Y-87400000D02*
X180700000Y-91800000D01*
X179150000Y-89100000D02*
X179150000Y-93650000D01*
X182750000Y-87000000D02*
X182750000Y-91600000D01*
X180500000Y-87800000D02*
X180500000Y-91950000D01*
X178100000Y-89200000D02*
X178100000Y-93800000D01*
X178850000Y-89150000D02*
X178850000Y-93800000D01*
X179600000Y-88850000D02*
X179600000Y-93300000D01*
X181550000Y-87000000D02*
X181550000Y-91550000D01*
X175550000Y-90050000D02*
X175550000Y-92950000D01*
X178400000Y-89175000D02*
X176425000Y-89175000D01*
X177800000Y-89200000D02*
X177800000Y-93800000D01*
X179450000Y-88950000D02*
X179450000Y-93400000D01*
X182300000Y-87000000D02*
X182300000Y-91600000D01*
X177500000Y-89200000D02*
X177500000Y-93800000D01*
X183500000Y-87000000D02*
X183500000Y-91600000D01*
X183050000Y-87000000D02*
X183050000Y-91600000D01*
X185000000Y-90625000D02*
X185000000Y-87975000D01*
X184650000Y-87300000D02*
X184650000Y-91250000D01*
X184100000Y-87000000D02*
X184100000Y-91550000D01*
X176600000Y-89200000D02*
X176600000Y-93800000D01*
X182000000Y-87000000D02*
X182000000Y-91600000D01*
X183950000Y-87000000D02*
X183950000Y-91600000D01*
X180800000Y-87250000D02*
X180800000Y-91750000D01*
X179000000Y-89150000D02*
X179000000Y-93750000D01*
X181250000Y-87000000D02*
X181250000Y-91600000D01*
X179300000Y-89000000D02*
X179300000Y-93550000D01*
D12*
X182100000Y-83251000D02*
X173800000Y-83248460D01*
D10*
X180600000Y-87650000D02*
X180600000Y-91850000D01*
X181100000Y-87050000D02*
X181100000Y-91600000D01*
X183800000Y-87000000D02*
X183800000Y-91600000D01*
X179750000Y-88750000D02*
X179750000Y-93150000D01*
X182900000Y-87000000D02*
X182900000Y-91600000D01*
X175700000Y-89950000D02*
X175700000Y-93100000D01*
X184750000Y-87400000D02*
X184750000Y-91150000D01*
X177200000Y-89200000D02*
X177200000Y-93800000D01*
X176750000Y-89200000D02*
X176750000Y-93800000D01*
X176150000Y-89450000D02*
X176150000Y-93550000D01*
X177350000Y-89200000D02*
X177350000Y-93800000D01*
X182600000Y-87000000D02*
X182600000Y-91600000D01*
X183350000Y-87000000D02*
X183350000Y-91600000D01*
X181850000Y-87000000D02*
X181850000Y-91600000D01*
X184550000Y-87200000D02*
X184550000Y-91400000D01*
X178550000Y-89200000D02*
X178550000Y-93750000D01*
X176300000Y-89350000D02*
X176300000Y-93700000D01*
X183650000Y-87000000D02*
X183650000Y-91600000D01*
X178250000Y-89200000D02*
X178250000Y-93800000D01*
X178700000Y-89150000D02*
X178700000Y-93800000D01*
X180050000Y-88500000D02*
X180050000Y-92950000D01*
X177950000Y-89200000D02*
X177950000Y-93800000D01*
X184250000Y-87050000D02*
X184250000Y-91550000D01*
X180950000Y-87150000D02*
X180950000Y-91700000D01*
X178975000Y-93825000D02*
X176425000Y-93825000D01*
X182450000Y-87000000D02*
X182450000Y-91600000D01*
X178400000Y-89200000D02*
X178400000Y-93800000D01*
X177050000Y-89200000D02*
X177050000Y-93800000D01*
X176000000Y-89600000D02*
X176000000Y-93400000D01*
X176450000Y-89200000D02*
X176450000Y-93800000D01*
X180300000Y-88150000D02*
X180300000Y-92300000D01*
X181400000Y-87000000D02*
X181400000Y-91600000D01*
X179900000Y-88650000D02*
X179900000Y-93050000D01*
X177650000Y-89200000D02*
X177650000Y-93800000D01*
D12*
X182100000Y-78548460D02*
X182100000Y-80199460D01*
D10*
X184000000Y-91625000D02*
X181425000Y-91625000D01*
X175400000Y-90200000D02*
X176425000Y-89175000D01*
X184000000Y-86975000D02*
X181400000Y-86975000D01*
X183200000Y-87000000D02*
X183200000Y-91600000D01*
X175400000Y-92800000D02*
X175400000Y-90200000D01*
X184400000Y-87100000D02*
X184400000Y-91500000D01*
X181425000Y-91625000D02*
G75*
G03*
X180250000Y-92800000I2J-1175002D01*
G01*
X185000000Y-87975000D02*
G75*
G03*
X184000000Y-86975000I-999999J1D01*
G01*
X178400000Y-89175000D02*
G75*
G03*
X180537801Y-87678096I1J2274999D01*
G01*
X181399005Y-86976209D02*
G75*
G03*
X180537801Y-87678096I38796J-926887D01*
G01*
X184000000Y-91625000D02*
G75*
G03*
X185000000Y-90625000I1J999999D01*
G01*
G36*
X182100000Y-79564460D02*
G01*
X181092000Y-78551000D01*
X182100000Y-78548460D01*
X182100000Y-79564460D01*
G37*
D13*
X182100000Y-79564460D02*
X181092000Y-78551000D01*
X182100000Y-78548460D01*
X182100000Y-79564460D01*
D10*
X215450000Y-56000000D02*
X215450000Y-60600000D01*
D12*
X211900000Y-45348460D02*
X220200000Y-45348460D01*
D10*
X217850000Y-55550000D02*
X217850000Y-59950000D01*
X218000000Y-55450000D02*
X218000000Y-59850000D01*
X216650000Y-56000000D02*
X216650000Y-60550000D01*
X213800000Y-56750000D02*
X213800000Y-59900000D01*
X222200000Y-53800000D02*
X222200000Y-58350000D01*
X219650000Y-53800000D02*
X219650000Y-58350000D01*
X219350000Y-53800000D02*
X219350000Y-58400000D01*
X216500000Y-55975000D02*
X214525000Y-55975000D01*
X220100000Y-53800000D02*
X220100000Y-58400000D01*
X218800000Y-54200000D02*
X218800000Y-58600000D01*
X218600000Y-54600000D02*
X218600000Y-58750000D01*
X214700000Y-56000000D02*
X214700000Y-60600000D01*
X218900000Y-54050000D02*
X218900000Y-58550000D01*
X220250000Y-53800000D02*
X220250000Y-58400000D01*
X222750000Y-54100000D02*
X222750000Y-58050000D01*
X221600000Y-53800000D02*
X221600000Y-58400000D01*
D12*
X220200000Y-50051000D02*
X211900000Y-50048460D01*
D10*
X216350000Y-56000000D02*
X216350000Y-60600000D01*
X219950000Y-53800000D02*
X219950000Y-58400000D01*
X222950000Y-54350000D02*
X222950000Y-57900000D01*
X215300000Y-56000000D02*
X215300000Y-60600000D01*
X223100000Y-57425000D02*
X223100000Y-54775000D01*
X222100000Y-58425000D02*
X219525000Y-58425000D01*
X214400000Y-56150000D02*
X214400000Y-60500000D01*
X219800000Y-53800000D02*
X219800000Y-58400000D01*
X222850000Y-54200000D02*
X222850000Y-57950000D01*
X221900000Y-53800000D02*
X221900000Y-58400000D01*
X214850000Y-56000000D02*
X214850000Y-60600000D01*
X215000000Y-56000000D02*
X215000000Y-60600000D01*
X222650000Y-54000000D02*
X222650000Y-58200000D01*
X221450000Y-53800000D02*
X221450000Y-58400000D01*
X218150000Y-55300000D02*
X218150000Y-59750000D01*
X217550000Y-55750000D02*
X217550000Y-60200000D01*
X221300000Y-53800000D02*
X221300000Y-58400000D01*
X222100000Y-53775000D02*
X219500000Y-53775000D01*
X217700000Y-55650000D02*
X217700000Y-60100000D01*
X217100000Y-55950000D02*
X217100000Y-60550000D01*
X216950000Y-55950000D02*
X216950000Y-60600000D01*
X216200000Y-56000000D02*
X216200000Y-60600000D01*
X214250000Y-56250000D02*
X214250000Y-60350000D01*
X221150000Y-53800000D02*
X221150000Y-58400000D01*
X213500000Y-59600000D02*
X213500000Y-57000000D01*
X213500000Y-57000000D02*
X214525000Y-55975000D01*
X218300000Y-55150000D02*
X218300000Y-59600000D01*
X214550000Y-56000000D02*
X214550000Y-60600000D01*
X217075000Y-60625000D02*
X218350000Y-59600000D01*
X219200000Y-53850000D02*
X219200000Y-58400000D01*
X218700000Y-54450000D02*
X218700000Y-58650000D01*
X216500000Y-56000000D02*
X216500000Y-60600000D01*
X213500000Y-59600000D02*
X214525000Y-60625000D01*
X221000000Y-53800000D02*
X221000000Y-58400000D01*
X216050000Y-56000000D02*
X216050000Y-60600000D01*
X221750000Y-53800000D02*
X221750000Y-58400000D01*
X220550000Y-53800000D02*
X220550000Y-58400000D01*
X220700000Y-53800000D02*
X220700000Y-58400000D01*
X215750000Y-56000000D02*
X215750000Y-60600000D01*
X218500000Y-54800000D02*
X218500000Y-58950000D01*
X215600000Y-56000000D02*
X215600000Y-60600000D01*
X217400000Y-55800000D02*
X217400000Y-60350000D01*
X220400000Y-53800000D02*
X220400000Y-58400000D01*
X217250000Y-55900000D02*
X217250000Y-60450000D01*
X213650000Y-56850000D02*
X213650000Y-59750000D01*
X214100000Y-56400000D02*
X214100000Y-60200000D01*
X217075000Y-60625000D02*
X214525000Y-60625000D01*
X215900000Y-56000000D02*
X215900000Y-60600000D01*
X218400000Y-54950000D02*
X218400000Y-59100000D01*
X222500000Y-53900000D02*
X222500000Y-58300000D01*
X215150000Y-56000000D02*
X215150000Y-60600000D01*
X222050000Y-53800000D02*
X222050000Y-58400000D01*
X213950000Y-56550000D02*
X213950000Y-60050000D01*
X216800000Y-55950000D02*
X216800000Y-60600000D01*
X220850000Y-53800000D02*
X220850000Y-58400000D01*
X219500000Y-53800000D02*
X219500000Y-58400000D01*
X222350000Y-53850000D02*
X222350000Y-58350000D01*
D12*
X220200000Y-45348460D02*
X220200000Y-46999460D01*
D10*
X219050000Y-53950000D02*
X219050000Y-58500000D01*
X222100000Y-58425000D02*
G75*
G03*
X223100000Y-57425000I1J999999D01*
G01*
X219499005Y-53776209D02*
G75*
G03*
X218637801Y-54478096I38796J-926887D01*
G01*
X223100000Y-54775000D02*
G75*
G03*
X222100000Y-53775000I-999999J1D01*
G01*
X216500000Y-55975000D02*
G75*
G03*
X218637801Y-54478096I1J2274999D01*
G01*
X219525000Y-58425000D02*
G75*
G03*
X218350000Y-59600000I2J-1175002D01*
G01*
G36*
X220200000Y-46364460D02*
G01*
X219192000Y-45351000D01*
X220200000Y-45348460D01*
X220200000Y-46364460D01*
G37*
D13*
X220200000Y-46364460D02*
X219192000Y-45351000D01*
X220200000Y-45348460D01*
X220200000Y-46364460D01*
D10*
X125750000Y-70500000D02*
X125750000Y-75100000D01*
X119450000Y-72700000D02*
X119450000Y-77300000D01*
X125300000Y-70500000D02*
X125300000Y-75100000D01*
X124850000Y-70500000D02*
X124850000Y-75100000D01*
X119000000Y-72950000D02*
X119000000Y-77050000D01*
X126650000Y-70500000D02*
X126650000Y-75100000D01*
X122000000Y-72600000D02*
X122000000Y-77150000D01*
X126950000Y-70500000D02*
X126950000Y-75050000D01*
X123550000Y-70900000D02*
X123550000Y-75300000D01*
X120200000Y-72700000D02*
X120200000Y-77300000D01*
X121400000Y-72700000D02*
X121400000Y-77250000D01*
X127600000Y-70900000D02*
X127600000Y-74650000D01*
X123050000Y-71850000D02*
X123050000Y-76300000D01*
X125150000Y-70500000D02*
X125150000Y-75100000D01*
X126850000Y-75125000D02*
X124275000Y-75125000D01*
X120950000Y-72700000D02*
X120950000Y-77300000D01*
X123650000Y-70750000D02*
X123650000Y-75250000D01*
X126850000Y-70475000D02*
X124250000Y-70475000D01*
X127100000Y-70550000D02*
X127100000Y-75050000D01*
X127250000Y-70600000D02*
X127250000Y-75000000D01*
X123250000Y-71500000D02*
X123250000Y-75650000D01*
X120350000Y-72700000D02*
X120350000Y-77300000D01*
X118250000Y-76300000D02*
X118250000Y-73700000D01*
X124250000Y-70500000D02*
X124250000Y-75100000D01*
D12*
X124950000Y-62048460D02*
X124950000Y-63699460D01*
D10*
X124100000Y-70500000D02*
X124100000Y-75100000D01*
X121250000Y-72675000D02*
X119275000Y-72675000D01*
X121825000Y-77325000D02*
X123100000Y-76300000D01*
X122750000Y-72150000D02*
X122750000Y-76550000D01*
X123950000Y-70550000D02*
X123950000Y-75100000D01*
X125000000Y-70500000D02*
X125000000Y-75100000D01*
X119750000Y-72700000D02*
X119750000Y-77300000D01*
X123350000Y-71300000D02*
X123350000Y-75450000D01*
X119600000Y-72700000D02*
X119600000Y-77300000D01*
X120500000Y-72700000D02*
X120500000Y-77300000D01*
X125450000Y-70500000D02*
X125450000Y-75100000D01*
X126200000Y-70500000D02*
X126200000Y-75100000D01*
X119900000Y-72700000D02*
X119900000Y-77300000D01*
X126050000Y-70500000D02*
X126050000Y-75100000D01*
X122150000Y-72500000D02*
X122150000Y-77050000D01*
X124550000Y-70500000D02*
X124550000Y-75100000D01*
X123150000Y-71650000D02*
X123150000Y-75800000D01*
X124400000Y-70500000D02*
X124400000Y-75050000D01*
X122450000Y-72350000D02*
X122450000Y-76800000D01*
X127400000Y-70700000D02*
X127400000Y-74900000D01*
X121550000Y-72650000D02*
X121550000Y-77300000D01*
X118850000Y-73100000D02*
X118850000Y-76900000D01*
X123450000Y-71150000D02*
X123450000Y-75350000D01*
X122900000Y-72000000D02*
X122900000Y-76450000D01*
X126350000Y-70500000D02*
X126350000Y-75100000D01*
X120800000Y-72700000D02*
X120800000Y-77300000D01*
D12*
X124950000Y-66751000D02*
X116650000Y-66748460D01*
D10*
X121850000Y-72650000D02*
X121850000Y-77250000D01*
X118550000Y-73450000D02*
X118550000Y-76600000D01*
X126800000Y-70500000D02*
X126800000Y-75100000D01*
X123800000Y-70650000D02*
X123800000Y-75200000D01*
X119150000Y-72850000D02*
X119150000Y-77200000D01*
X127500000Y-70800000D02*
X127500000Y-74750000D01*
X127700000Y-71050000D02*
X127700000Y-74600000D01*
X121700000Y-72650000D02*
X121700000Y-77300000D01*
X125600000Y-70500000D02*
X125600000Y-75100000D01*
X127850000Y-74125000D02*
X127850000Y-71475000D01*
X120650000Y-72700000D02*
X120650000Y-77300000D01*
X118250000Y-76300000D02*
X119275000Y-77325000D01*
X122300000Y-72450000D02*
X122300000Y-76900000D01*
X120050000Y-72700000D02*
X120050000Y-77300000D01*
X118700000Y-73250000D02*
X118700000Y-76750000D01*
X126500000Y-70500000D02*
X126500000Y-75100000D01*
X122600000Y-72250000D02*
X122600000Y-76650000D01*
D12*
X116650000Y-62048460D02*
X124950000Y-62048460D01*
D10*
X121250000Y-72700000D02*
X121250000Y-77300000D01*
X118400000Y-73550000D02*
X118400000Y-76450000D01*
X118250000Y-73700000D02*
X119275000Y-72675000D01*
X119300000Y-72700000D02*
X119300000Y-77300000D01*
X121100000Y-72700000D02*
X121100000Y-77300000D01*
X121825000Y-77325000D02*
X119275000Y-77325000D01*
X125900000Y-70500000D02*
X125900000Y-75100000D01*
X124700000Y-70500000D02*
X124700000Y-75100000D01*
X124249005Y-70476209D02*
G75*
G03*
X123387801Y-71178096I38796J-926887D01*
G01*
X124275000Y-75125000D02*
G75*
G03*
X123100000Y-76300000I2J-1175002D01*
G01*
X127850000Y-71475000D02*
G75*
G03*
X126850000Y-70475000I-999999J1D01*
G01*
X126850000Y-75125000D02*
G75*
G03*
X127850000Y-74125000I1J999999D01*
G01*
X121250000Y-72675000D02*
G75*
G03*
X123387801Y-71178096I1J2274999D01*
G01*
G36*
X124950000Y-63064460D02*
G01*
X123942000Y-62051000D01*
X124950000Y-62048460D01*
X124950000Y-63064460D01*
G37*
D13*
X124950000Y-63064460D02*
X123942000Y-62051000D01*
X124950000Y-62048460D01*
X124950000Y-63064460D01*
D12*
X182100000Y-116648460D02*
X182100000Y-118299460D01*
D10*
X177650000Y-127300000D02*
X177650000Y-131900000D01*
X180400000Y-126100000D02*
X180400000Y-130250000D01*
X183950000Y-125100000D02*
X183950000Y-129700000D01*
X181100000Y-125150000D02*
X181100000Y-129700000D01*
X182150000Y-125100000D02*
X182150000Y-129700000D01*
X184100000Y-125100000D02*
X184100000Y-129650000D01*
X184750000Y-125500000D02*
X184750000Y-129250000D01*
X177050000Y-127300000D02*
X177050000Y-131900000D01*
X175850000Y-127850000D02*
X175850000Y-131350000D01*
X177200000Y-127300000D02*
X177200000Y-131900000D01*
X184650000Y-125400000D02*
X184650000Y-129350000D01*
X177800000Y-127300000D02*
X177800000Y-131900000D01*
D12*
X182100000Y-121351000D02*
X173800000Y-121348460D01*
D10*
X179450000Y-127050000D02*
X179450000Y-131500000D01*
X178400000Y-127300000D02*
X178400000Y-131900000D01*
X180700000Y-125500000D02*
X180700000Y-129900000D01*
X182750000Y-125100000D02*
X182750000Y-129700000D01*
X180200000Y-126450000D02*
X180200000Y-130900000D01*
X178700000Y-127250000D02*
X178700000Y-131900000D01*
X178850000Y-127250000D02*
X178850000Y-131900000D01*
X176750000Y-127300000D02*
X176750000Y-131900000D01*
X178975000Y-131925000D02*
X180250000Y-130900000D01*
X175700000Y-128050000D02*
X175700000Y-131200000D01*
X184000000Y-125075000D02*
X181400000Y-125075000D01*
X176450000Y-127300000D02*
X176450000Y-131900000D01*
X176150000Y-127550000D02*
X176150000Y-131650000D01*
X182300000Y-125100000D02*
X182300000Y-129700000D01*
X180800000Y-125350000D02*
X180800000Y-129850000D01*
X179600000Y-126950000D02*
X179600000Y-131400000D01*
X178400000Y-127275000D02*
X176425000Y-127275000D01*
X179750000Y-126850000D02*
X179750000Y-131250000D01*
X182600000Y-125100000D02*
X182600000Y-129700000D01*
X179300000Y-127100000D02*
X179300000Y-131650000D01*
X179150000Y-127200000D02*
X179150000Y-131750000D01*
X176600000Y-127300000D02*
X176600000Y-131900000D01*
X180500000Y-125900000D02*
X180500000Y-130050000D01*
X178550000Y-127300000D02*
X178550000Y-131850000D01*
X180950000Y-125250000D02*
X180950000Y-129800000D01*
X180300000Y-126250000D02*
X180300000Y-130400000D01*
X182450000Y-125100000D02*
X182450000Y-129700000D01*
X177950000Y-127300000D02*
X177950000Y-131900000D01*
X183350000Y-125100000D02*
X183350000Y-129700000D01*
X184400000Y-125200000D02*
X184400000Y-129600000D01*
X179900000Y-126750000D02*
X179900000Y-131150000D01*
X184550000Y-125300000D02*
X184550000Y-129500000D01*
X183200000Y-125100000D02*
X183200000Y-129700000D01*
X184000000Y-129725000D02*
X181425000Y-129725000D01*
X175400000Y-128300000D02*
X176425000Y-127275000D01*
X180600000Y-125750000D02*
X180600000Y-129950000D01*
X181700000Y-125100000D02*
X181700000Y-129700000D01*
X183050000Y-125100000D02*
X183050000Y-129700000D01*
X175550000Y-128150000D02*
X175550000Y-131050000D01*
X185000000Y-128725000D02*
X185000000Y-126075000D01*
X175400000Y-130900000D02*
X176425000Y-131925000D01*
X176000000Y-127700000D02*
X176000000Y-131500000D01*
X180050000Y-126600000D02*
X180050000Y-131050000D01*
X184850000Y-125650000D02*
X184850000Y-129200000D01*
X182000000Y-125100000D02*
X182000000Y-129700000D01*
X181400000Y-125100000D02*
X181400000Y-129700000D01*
X183800000Y-125100000D02*
X183800000Y-129700000D01*
X176900000Y-127300000D02*
X176900000Y-131900000D01*
X181250000Y-125100000D02*
X181250000Y-129700000D01*
X178975000Y-131925000D02*
X176425000Y-131925000D01*
X177500000Y-127300000D02*
X177500000Y-131900000D01*
X181850000Y-125100000D02*
X181850000Y-129700000D01*
X175400000Y-130900000D02*
X175400000Y-128300000D01*
X179000000Y-127250000D02*
X179000000Y-131850000D01*
X178100000Y-127300000D02*
X178100000Y-131900000D01*
X184250000Y-125150000D02*
X184250000Y-129650000D01*
X182900000Y-125100000D02*
X182900000Y-129700000D01*
X183650000Y-125100000D02*
X183650000Y-129700000D01*
X177350000Y-127300000D02*
X177350000Y-131900000D01*
X178250000Y-127300000D02*
X178250000Y-131900000D01*
X181550000Y-125100000D02*
X181550000Y-129650000D01*
D12*
X173800000Y-116648460D02*
X182100000Y-116648460D01*
D10*
X176300000Y-127450000D02*
X176300000Y-131800000D01*
X183500000Y-125100000D02*
X183500000Y-129700000D01*
X181425000Y-129725000D02*
G75*
G03*
X180250000Y-130900000I2J-1175002D01*
G01*
X178400000Y-127275000D02*
G75*
G03*
X180537801Y-125778096I1J2274999D01*
G01*
X184000000Y-129725000D02*
G75*
G03*
X185000000Y-128725000I1J999999D01*
G01*
X185000000Y-126075000D02*
G75*
G03*
X184000000Y-125075000I-999999J1D01*
G01*
X181399005Y-125076209D02*
G75*
G03*
X180537801Y-125778096I38796J-926887D01*
G01*
G36*
X182100000Y-117664460D02*
G01*
X181092000Y-116651000D01*
X182100000Y-116648460D01*
X182100000Y-117664460D01*
G37*
D13*
X182100000Y-117664460D02*
X181092000Y-116651000D01*
X182100000Y-116648460D01*
X182100000Y-117664460D01*
D10*
X200750000Y-72850000D02*
X200750000Y-77450000D01*
X200600000Y-72850000D02*
X200600000Y-77400000D01*
X202550000Y-72850000D02*
X202550000Y-77450000D01*
X204050000Y-76475000D02*
X204050000Y-73825000D01*
X198025000Y-79675000D02*
X195475000Y-79675000D01*
D12*
X201150000Y-69101000D02*
X192850000Y-69098460D01*
D10*
X198200000Y-74950000D02*
X198200000Y-79500000D01*
X197000000Y-75050000D02*
X197000000Y-79650000D01*
X201800000Y-72850000D02*
X201800000Y-77450000D01*
X196850000Y-75050000D02*
X196850000Y-79650000D01*
X195050000Y-75450000D02*
X195050000Y-79250000D01*
X203800000Y-73250000D02*
X203800000Y-77000000D01*
X202100000Y-72850000D02*
X202100000Y-77450000D01*
X194450000Y-78650000D02*
X194450000Y-76050000D01*
X201200000Y-72850000D02*
X201200000Y-77450000D01*
X201350000Y-72850000D02*
X201350000Y-77450000D01*
X195500000Y-75050000D02*
X195500000Y-79650000D01*
X201050000Y-72850000D02*
X201050000Y-77450000D01*
X196700000Y-75050000D02*
X196700000Y-79650000D01*
X197450000Y-75025000D02*
X195475000Y-75025000D01*
X199350000Y-74000000D02*
X199350000Y-78150000D01*
X200150000Y-72900000D02*
X200150000Y-77450000D01*
X198950000Y-74500000D02*
X198950000Y-78900000D01*
X195650000Y-75050000D02*
X195650000Y-79650000D01*
X196100000Y-75050000D02*
X196100000Y-79650000D01*
X202700000Y-72850000D02*
X202700000Y-77450000D01*
X203000000Y-72850000D02*
X203000000Y-77450000D01*
X203700000Y-73150000D02*
X203700000Y-77100000D01*
X200000000Y-73000000D02*
X200000000Y-77550000D01*
X198050000Y-75000000D02*
X198050000Y-79600000D01*
X199750000Y-73250000D02*
X199750000Y-77650000D01*
X202850000Y-72850000D02*
X202850000Y-77450000D01*
X194450000Y-76050000D02*
X195475000Y-75025000D01*
X201950000Y-72850000D02*
X201950000Y-77450000D01*
X197450000Y-75050000D02*
X197450000Y-79650000D01*
X197600000Y-75050000D02*
X197600000Y-79600000D01*
X197900000Y-75000000D02*
X197900000Y-79650000D01*
X195950000Y-75050000D02*
X195950000Y-79650000D01*
X199850000Y-73100000D02*
X199850000Y-77600000D01*
X203150000Y-72850000D02*
X203150000Y-77400000D01*
X196250000Y-75050000D02*
X196250000Y-79650000D01*
X198650000Y-74700000D02*
X198650000Y-79150000D01*
X203600000Y-73050000D02*
X203600000Y-77250000D01*
X203450000Y-72950000D02*
X203450000Y-77350000D01*
X199100000Y-74350000D02*
X199100000Y-78800000D01*
X196400000Y-75050000D02*
X196400000Y-79650000D01*
X202400000Y-72850000D02*
X202400000Y-77450000D01*
X199250000Y-74200000D02*
X199250000Y-78650000D01*
X197300000Y-75050000D02*
X197300000Y-79650000D01*
X199650000Y-73500000D02*
X199650000Y-77700000D01*
X194450000Y-78650000D02*
X195475000Y-79675000D01*
X200450000Y-72850000D02*
X200450000Y-77450000D01*
X202250000Y-72850000D02*
X202250000Y-77450000D01*
D12*
X201150000Y-64398460D02*
X201150000Y-66049460D01*
D10*
X195200000Y-75300000D02*
X195200000Y-79400000D01*
X197750000Y-75000000D02*
X197750000Y-79650000D01*
X203300000Y-72900000D02*
X203300000Y-77400000D01*
X200900000Y-72850000D02*
X200900000Y-77450000D01*
X198350000Y-74850000D02*
X198350000Y-79400000D01*
X198800000Y-74600000D02*
X198800000Y-79000000D01*
X199450000Y-73850000D02*
X199450000Y-78000000D01*
X203900000Y-73400000D02*
X203900000Y-76950000D01*
X203050000Y-77475000D02*
X200475000Y-77475000D01*
X199550000Y-73650000D02*
X199550000Y-77800000D01*
X201500000Y-72850000D02*
X201500000Y-77450000D01*
X195800000Y-75050000D02*
X195800000Y-79650000D01*
X194600000Y-75900000D02*
X194600000Y-78800000D01*
X203050000Y-72825000D02*
X200450000Y-72825000D01*
X196550000Y-75050000D02*
X196550000Y-79650000D01*
X201650000Y-72850000D02*
X201650000Y-77450000D01*
X195350000Y-75200000D02*
X195350000Y-79550000D01*
X198025000Y-79675000D02*
X199300000Y-78650000D01*
X200300000Y-72850000D02*
X200300000Y-77450000D01*
X197150000Y-75050000D02*
X197150000Y-79650000D01*
X194750000Y-75800000D02*
X194750000Y-78950000D01*
X194900000Y-75600000D02*
X194900000Y-79100000D01*
D12*
X192850000Y-64398460D02*
X201150000Y-64398460D01*
D10*
X198500000Y-74800000D02*
X198500000Y-79250000D01*
X197450000Y-75025000D02*
G75*
G03*
X199587801Y-73528096I1J2274999D01*
G01*
X200475000Y-77475000D02*
G75*
G03*
X199300000Y-78650000I2J-1175002D01*
G01*
X203050000Y-77475000D02*
G75*
G03*
X204050000Y-76475000I1J999999D01*
G01*
X204050000Y-73825000D02*
G75*
G03*
X203050000Y-72825000I-999999J1D01*
G01*
X200449005Y-72826209D02*
G75*
G03*
X199587801Y-73528096I38796J-926887D01*
G01*
G36*
X201150000Y-65414460D02*
G01*
X200142000Y-64401000D01*
X201150000Y-64398460D01*
X201150000Y-65414460D01*
G37*
D13*
X201150000Y-65414460D02*
X200142000Y-64401000D01*
X201150000Y-64398460D01*
X201150000Y-65414460D01*
D10*
X184250000Y-106100000D02*
X184250000Y-110600000D01*
X182900000Y-106050000D02*
X182900000Y-110650000D01*
X181400000Y-106050000D02*
X181400000Y-110650000D01*
X180600000Y-106700000D02*
X180600000Y-110900000D01*
X184850000Y-106600000D02*
X184850000Y-110150000D01*
X179000000Y-108200000D02*
X179000000Y-112800000D01*
X184750000Y-106450000D02*
X184750000Y-110200000D01*
D12*
X173800000Y-97598460D02*
X182100000Y-97598460D01*
D10*
X182600000Y-106050000D02*
X182600000Y-110650000D01*
X178850000Y-108200000D02*
X178850000Y-112850000D01*
X175850000Y-108800000D02*
X175850000Y-112300000D01*
X184000000Y-106025000D02*
X181400000Y-106025000D01*
X178250000Y-108250000D02*
X178250000Y-112850000D01*
X177350000Y-108250000D02*
X177350000Y-112850000D01*
X181250000Y-106050000D02*
X181250000Y-110650000D01*
X184550000Y-106250000D02*
X184550000Y-110450000D01*
X183650000Y-106050000D02*
X183650000Y-110650000D01*
X183500000Y-106050000D02*
X183500000Y-110650000D01*
X176600000Y-108250000D02*
X176600000Y-112850000D01*
X175400000Y-111850000D02*
X176425000Y-112875000D01*
X178100000Y-108250000D02*
X178100000Y-112850000D01*
X178975000Y-112875000D02*
X176425000Y-112875000D01*
X180300000Y-107200000D02*
X180300000Y-111350000D01*
X175550000Y-109100000D02*
X175550000Y-112000000D01*
X179450000Y-108000000D02*
X179450000Y-112450000D01*
X180400000Y-107050000D02*
X180400000Y-111200000D01*
X182000000Y-106050000D02*
X182000000Y-110650000D01*
X181850000Y-106050000D02*
X181850000Y-110650000D01*
X176150000Y-108500000D02*
X176150000Y-112600000D01*
X181550000Y-106050000D02*
X181550000Y-110600000D01*
D12*
X182100000Y-97598460D02*
X182100000Y-99249460D01*
D10*
X182300000Y-106050000D02*
X182300000Y-110650000D01*
X184100000Y-106050000D02*
X184100000Y-110600000D01*
X185000000Y-109675000D02*
X185000000Y-107025000D01*
X180700000Y-106450000D02*
X180700000Y-110850000D01*
X179750000Y-107800000D02*
X179750000Y-112200000D01*
X178700000Y-108200000D02*
X178700000Y-112850000D01*
X184400000Y-106150000D02*
X184400000Y-110550000D01*
X180800000Y-106300000D02*
X180800000Y-110800000D01*
X179150000Y-108150000D02*
X179150000Y-112700000D01*
X183800000Y-106050000D02*
X183800000Y-110650000D01*
X177200000Y-108250000D02*
X177200000Y-112850000D01*
D12*
X182100000Y-102301000D02*
X173800000Y-102298460D01*
D10*
X179900000Y-107700000D02*
X179900000Y-112100000D01*
X181100000Y-106100000D02*
X181100000Y-110650000D01*
X183950000Y-106050000D02*
X183950000Y-110650000D01*
X180200000Y-107400000D02*
X180200000Y-111850000D01*
X178400000Y-108225000D02*
X176425000Y-108225000D01*
X182150000Y-106050000D02*
X182150000Y-110650000D01*
X177650000Y-108250000D02*
X177650000Y-112850000D01*
X175400000Y-111850000D02*
X175400000Y-109250000D01*
X183050000Y-106050000D02*
X183050000Y-110650000D01*
X176750000Y-108250000D02*
X176750000Y-112850000D01*
X178975000Y-112875000D02*
X180250000Y-111850000D01*
X183200000Y-106050000D02*
X183200000Y-110650000D01*
X175700000Y-109000000D02*
X175700000Y-112150000D01*
X175400000Y-109250000D02*
X176425000Y-108225000D01*
X184650000Y-106350000D02*
X184650000Y-110300000D01*
X177500000Y-108250000D02*
X177500000Y-112850000D01*
X178400000Y-108250000D02*
X178400000Y-112850000D01*
X176450000Y-108250000D02*
X176450000Y-112850000D01*
X182750000Y-106050000D02*
X182750000Y-110650000D01*
X180950000Y-106200000D02*
X180950000Y-110750000D01*
X180500000Y-106850000D02*
X180500000Y-111000000D01*
X177050000Y-108250000D02*
X177050000Y-112850000D01*
X176300000Y-108400000D02*
X176300000Y-112750000D01*
X184000000Y-110675000D02*
X181425000Y-110675000D01*
X179300000Y-108050000D02*
X179300000Y-112600000D01*
X176000000Y-108650000D02*
X176000000Y-112450000D01*
X177950000Y-108250000D02*
X177950000Y-112850000D01*
X183350000Y-106050000D02*
X183350000Y-110650000D01*
X180050000Y-107550000D02*
X180050000Y-112000000D01*
X179600000Y-107900000D02*
X179600000Y-112350000D01*
X181700000Y-106050000D02*
X181700000Y-110650000D01*
X178550000Y-108250000D02*
X178550000Y-112800000D01*
X176900000Y-108250000D02*
X176900000Y-112850000D01*
X177800000Y-108250000D02*
X177800000Y-112850000D01*
X182450000Y-106050000D02*
X182450000Y-110650000D01*
X185000000Y-107025000D02*
G75*
G03*
X184000000Y-106025000I-999999J1D01*
G01*
X181399005Y-106026209D02*
G75*
G03*
X180537801Y-106728096I38796J-926887D01*
G01*
X184000000Y-110675000D02*
G75*
G03*
X185000000Y-109675000I1J999999D01*
G01*
X178400000Y-108225000D02*
G75*
G03*
X180537801Y-106728096I1J2274999D01*
G01*
X181425000Y-110675000D02*
G75*
G03*
X180250000Y-111850000I2J-1175002D01*
G01*
G36*
X182100000Y-98614460D02*
G01*
X181092000Y-97601000D01*
X182100000Y-97598460D01*
X182100000Y-98614460D01*
G37*
D13*
X182100000Y-98614460D02*
X181092000Y-97601000D01*
X182100000Y-97598460D01*
X182100000Y-98614460D01*
D10*
X195500000Y-94100000D02*
X195500000Y-98700000D01*
X194900000Y-94650000D02*
X194900000Y-98150000D01*
X196850000Y-94100000D02*
X196850000Y-98700000D01*
X203600000Y-92100000D02*
X203600000Y-96300000D01*
X197450000Y-94075000D02*
X195475000Y-94075000D01*
X201350000Y-91900000D02*
X201350000Y-96500000D01*
X198350000Y-93900000D02*
X198350000Y-98450000D01*
X199450000Y-92900000D02*
X199450000Y-97050000D01*
X197000000Y-94100000D02*
X197000000Y-98700000D01*
X200450000Y-91900000D02*
X200450000Y-96500000D01*
X202250000Y-91900000D02*
X202250000Y-96500000D01*
X200150000Y-91950000D02*
X200150000Y-96500000D01*
X200900000Y-91900000D02*
X200900000Y-96500000D01*
X198025000Y-98725000D02*
X195475000Y-98725000D01*
X200000000Y-92050000D02*
X200000000Y-96600000D01*
X203150000Y-91900000D02*
X203150000Y-96450000D01*
X194450000Y-95100000D02*
X195475000Y-94075000D01*
X200300000Y-91900000D02*
X200300000Y-96500000D01*
X194600000Y-94950000D02*
X194600000Y-97850000D01*
X198025000Y-98725000D02*
X199300000Y-97700000D01*
X194450000Y-97700000D02*
X194450000Y-95100000D01*
X195050000Y-94500000D02*
X195050000Y-98300000D01*
X202700000Y-91900000D02*
X202700000Y-96500000D01*
X199850000Y-92150000D02*
X199850000Y-96650000D01*
X201500000Y-91900000D02*
X201500000Y-96500000D01*
X197150000Y-94100000D02*
X197150000Y-98700000D01*
X202550000Y-91900000D02*
X202550000Y-96500000D01*
X201200000Y-91900000D02*
X201200000Y-96500000D01*
X203700000Y-92200000D02*
X203700000Y-96150000D01*
D12*
X201150000Y-88151000D02*
X192850000Y-88148460D01*
D10*
X195350000Y-94250000D02*
X195350000Y-98600000D01*
X203800000Y-92300000D02*
X203800000Y-96050000D01*
X196100000Y-94100000D02*
X196100000Y-98700000D01*
X203900000Y-92450000D02*
X203900000Y-96000000D01*
D12*
X201150000Y-83448460D02*
X201150000Y-85099460D01*
D10*
X197900000Y-94050000D02*
X197900000Y-98700000D01*
D12*
X192850000Y-83448460D02*
X201150000Y-83448460D01*
D10*
X201950000Y-91900000D02*
X201950000Y-96500000D01*
X195650000Y-94100000D02*
X195650000Y-98700000D01*
X197600000Y-94100000D02*
X197600000Y-98650000D01*
X194750000Y-94850000D02*
X194750000Y-98000000D01*
X198950000Y-93550000D02*
X198950000Y-97950000D01*
X203300000Y-91950000D02*
X203300000Y-96450000D01*
X200600000Y-91900000D02*
X200600000Y-96450000D01*
X200750000Y-91900000D02*
X200750000Y-96500000D01*
X198650000Y-93750000D02*
X198650000Y-98200000D01*
X196700000Y-94100000D02*
X196700000Y-98700000D01*
X196400000Y-94100000D02*
X196400000Y-98700000D01*
X203000000Y-91900000D02*
X203000000Y-96500000D01*
X196250000Y-94100000D02*
X196250000Y-98700000D01*
X199100000Y-93400000D02*
X199100000Y-97850000D01*
X195950000Y-94100000D02*
X195950000Y-98700000D01*
X203050000Y-91875000D02*
X200450000Y-91875000D01*
X195800000Y-94100000D02*
X195800000Y-98700000D01*
X199550000Y-92700000D02*
X199550000Y-96850000D01*
X203450000Y-92000000D02*
X203450000Y-96400000D01*
X201800000Y-91900000D02*
X201800000Y-96500000D01*
X199650000Y-92550000D02*
X199650000Y-96750000D01*
X195200000Y-94350000D02*
X195200000Y-98450000D01*
X199250000Y-93250000D02*
X199250000Y-97700000D01*
X197300000Y-94100000D02*
X197300000Y-98700000D01*
X199750000Y-92300000D02*
X199750000Y-96700000D01*
X196550000Y-94100000D02*
X196550000Y-98700000D01*
X202400000Y-91900000D02*
X202400000Y-96500000D01*
X201650000Y-91900000D02*
X201650000Y-96500000D01*
X197750000Y-94050000D02*
X197750000Y-98700000D01*
X202850000Y-91900000D02*
X202850000Y-96500000D01*
X198200000Y-94000000D02*
X198200000Y-98550000D01*
X202100000Y-91900000D02*
X202100000Y-96500000D01*
X199350000Y-93050000D02*
X199350000Y-97200000D01*
X198500000Y-93850000D02*
X198500000Y-98300000D01*
X197450000Y-94100000D02*
X197450000Y-98700000D01*
X198800000Y-93650000D02*
X198800000Y-98050000D01*
X203050000Y-96525000D02*
X200475000Y-96525000D01*
X201050000Y-91900000D02*
X201050000Y-96500000D01*
X198050000Y-94050000D02*
X198050000Y-98650000D01*
X204050000Y-95525000D02*
X204050000Y-92875000D01*
X194450000Y-97700000D02*
X195475000Y-98725000D01*
X204050000Y-92875000D02*
G75*
G03*
X203050000Y-91875000I-999999J1D01*
G01*
X200449005Y-91876209D02*
G75*
G03*
X199587801Y-92578096I38796J-926887D01*
G01*
X197450000Y-94075000D02*
G75*
G03*
X199587801Y-92578096I1J2274999D01*
G01*
X203050000Y-96525000D02*
G75*
G03*
X204050000Y-95525000I1J999999D01*
G01*
X200475000Y-96525000D02*
G75*
G03*
X199300000Y-97700000I2J-1175002D01*
G01*
G36*
X201150000Y-84464460D02*
G01*
X200142000Y-83451000D01*
X201150000Y-83448460D01*
X201150000Y-84464460D01*
G37*
D13*
X201150000Y-84464460D02*
X200142000Y-83451000D01*
X201150000Y-83448460D01*
X201150000Y-84464460D01*
D10*
X159925000Y-129425000D02*
X161200000Y-128400000D01*
X165600000Y-122900000D02*
X165600000Y-126850000D01*
X163700000Y-122600000D02*
X163700000Y-127200000D01*
X161650000Y-123000000D02*
X161650000Y-127400000D01*
X164950000Y-127225000D02*
X162375000Y-127225000D01*
X163100000Y-122600000D02*
X163100000Y-127200000D01*
X156800000Y-125350000D02*
X156800000Y-128850000D01*
X162350000Y-122600000D02*
X162350000Y-127200000D01*
X160700000Y-124350000D02*
X160700000Y-128750000D01*
X163250000Y-122600000D02*
X163250000Y-127200000D01*
X164150000Y-122600000D02*
X164150000Y-127200000D01*
X157700000Y-124800000D02*
X157700000Y-129400000D01*
X161900000Y-122750000D02*
X161900000Y-127300000D01*
X157550000Y-124800000D02*
X157550000Y-129400000D01*
X164750000Y-122600000D02*
X164750000Y-127200000D01*
X158600000Y-124800000D02*
X158600000Y-129400000D01*
X165350000Y-122700000D02*
X165350000Y-127100000D01*
X156950000Y-125200000D02*
X156950000Y-129000000D01*
D12*
X163050000Y-114148460D02*
X163050000Y-115799460D01*
D10*
X162500000Y-122600000D02*
X162500000Y-127150000D01*
X165800000Y-123150000D02*
X165800000Y-126700000D01*
X165700000Y-123000000D02*
X165700000Y-126750000D01*
X162050000Y-122650000D02*
X162050000Y-127200000D01*
X163850000Y-122600000D02*
X163850000Y-127200000D01*
X159650000Y-124750000D02*
X159650000Y-129400000D01*
X157850000Y-124800000D02*
X157850000Y-129400000D01*
D12*
X154750000Y-114148460D02*
X163050000Y-114148460D01*
D10*
X159200000Y-124800000D02*
X159200000Y-129400000D01*
X165950000Y-126225000D02*
X165950000Y-123575000D01*
X160100000Y-124700000D02*
X160100000Y-129250000D01*
X161750000Y-122850000D02*
X161750000Y-127350000D01*
X156500000Y-125650000D02*
X156500000Y-128550000D01*
X165500000Y-122800000D02*
X165500000Y-127000000D01*
X156350000Y-128400000D02*
X157375000Y-129425000D01*
X165200000Y-122650000D02*
X165200000Y-127150000D01*
X160850000Y-124250000D02*
X160850000Y-128650000D01*
X163400000Y-122600000D02*
X163400000Y-127200000D01*
X161550000Y-123250000D02*
X161550000Y-127450000D01*
X164950000Y-122575000D02*
X162350000Y-122575000D01*
X160550000Y-124450000D02*
X160550000Y-128900000D01*
X159950000Y-124750000D02*
X159950000Y-129350000D01*
X164450000Y-122600000D02*
X164450000Y-127200000D01*
X162650000Y-122600000D02*
X162650000Y-127200000D01*
X158300000Y-124800000D02*
X158300000Y-129400000D01*
X156650000Y-125550000D02*
X156650000Y-128700000D01*
X162200000Y-122600000D02*
X162200000Y-127200000D01*
X162950000Y-122600000D02*
X162950000Y-127200000D01*
X161250000Y-123750000D02*
X161250000Y-127900000D01*
X159500000Y-124800000D02*
X159500000Y-129350000D01*
X163550000Y-122600000D02*
X163550000Y-127200000D01*
X161350000Y-123600000D02*
X161350000Y-127750000D01*
X158150000Y-124800000D02*
X158150000Y-129400000D01*
X164900000Y-122600000D02*
X164900000Y-127200000D01*
X160400000Y-124550000D02*
X160400000Y-129000000D01*
X164600000Y-122600000D02*
X164600000Y-127200000D01*
X159050000Y-124800000D02*
X159050000Y-129400000D01*
X157100000Y-125050000D02*
X157100000Y-129150000D01*
X158000000Y-124800000D02*
X158000000Y-129400000D01*
X156350000Y-125800000D02*
X157375000Y-124775000D01*
X164300000Y-122600000D02*
X164300000Y-127200000D01*
X158750000Y-124800000D02*
X158750000Y-129400000D01*
X159925000Y-129425000D02*
X157375000Y-129425000D01*
X156350000Y-128400000D02*
X156350000Y-125800000D01*
X165050000Y-122600000D02*
X165050000Y-127150000D01*
X158900000Y-124800000D02*
X158900000Y-129400000D01*
X159350000Y-124775000D02*
X157375000Y-124775000D01*
X159800000Y-124750000D02*
X159800000Y-129400000D01*
X157250000Y-124950000D02*
X157250000Y-129300000D01*
X159350000Y-124800000D02*
X159350000Y-129400000D01*
X162800000Y-122600000D02*
X162800000Y-127200000D01*
X161150000Y-123950000D02*
X161150000Y-128400000D01*
X160250000Y-124600000D02*
X160250000Y-129150000D01*
X157400000Y-124800000D02*
X157400000Y-129400000D01*
X161450000Y-123400000D02*
X161450000Y-127550000D01*
X158450000Y-124800000D02*
X158450000Y-129400000D01*
X164000000Y-122600000D02*
X164000000Y-127200000D01*
X161000000Y-124100000D02*
X161000000Y-128550000D01*
D12*
X163050000Y-118851000D02*
X154750000Y-118848460D01*
D10*
X164950000Y-127225000D02*
G75*
G03*
X165950000Y-126225000I1J999999D01*
G01*
X159350000Y-124775000D02*
G75*
G03*
X161487801Y-123278096I1J2274999D01*
G01*
X165950000Y-123575000D02*
G75*
G03*
X164950000Y-122575000I-999999J1D01*
G01*
X162375000Y-127225000D02*
G75*
G03*
X161200000Y-128400000I2J-1175002D01*
G01*
X162349005Y-122576209D02*
G75*
G03*
X161487801Y-123278096I38796J-926887D01*
G01*
G36*
X163050000Y-115164460D02*
G01*
X162042000Y-114151000D01*
X163050000Y-114148460D01*
X163050000Y-115164460D01*
G37*
D13*
X163050000Y-115164460D02*
X162042000Y-114151000D01*
X163050000Y-114148460D01*
X163050000Y-115164460D01*
D10*
X161150000Y-85850000D02*
X161150000Y-90300000D01*
X165200000Y-84550000D02*
X165200000Y-89050000D01*
X160250000Y-86500000D02*
X160250000Y-91050000D01*
X159925000Y-91325000D02*
X157375000Y-91325000D01*
X160100000Y-86600000D02*
X160100000Y-91150000D01*
X158600000Y-86700000D02*
X158600000Y-91300000D01*
X162800000Y-84500000D02*
X162800000Y-89100000D01*
X164600000Y-84500000D02*
X164600000Y-89100000D01*
X159650000Y-86650000D02*
X159650000Y-91300000D01*
X159350000Y-86700000D02*
X159350000Y-91300000D01*
X164950000Y-89125000D02*
X162375000Y-89125000D01*
X161250000Y-85650000D02*
X161250000Y-89800000D01*
X161900000Y-84650000D02*
X161900000Y-89200000D01*
D12*
X163050000Y-80751000D02*
X154750000Y-80748460D01*
D10*
X157550000Y-86700000D02*
X157550000Y-91300000D01*
X164000000Y-84500000D02*
X164000000Y-89100000D01*
X165500000Y-84700000D02*
X165500000Y-88900000D01*
X164450000Y-84500000D02*
X164450000Y-89100000D01*
X161750000Y-84750000D02*
X161750000Y-89250000D01*
X165950000Y-88125000D02*
X165950000Y-85475000D01*
X162050000Y-84550000D02*
X162050000Y-89100000D01*
X156800000Y-87250000D02*
X156800000Y-90750000D01*
X160850000Y-86150000D02*
X160850000Y-90550000D01*
X160700000Y-86250000D02*
X160700000Y-90650000D01*
X164750000Y-84500000D02*
X164750000Y-89100000D01*
X163400000Y-84500000D02*
X163400000Y-89100000D01*
X157850000Y-86700000D02*
X157850000Y-91300000D01*
X163100000Y-84500000D02*
X163100000Y-89100000D01*
X165600000Y-84800000D02*
X165600000Y-88750000D01*
X157100000Y-86950000D02*
X157100000Y-91050000D01*
X159500000Y-86700000D02*
X159500000Y-91250000D01*
X159050000Y-86700000D02*
X159050000Y-91300000D01*
X160400000Y-86450000D02*
X160400000Y-90900000D01*
D12*
X154750000Y-76048460D02*
X163050000Y-76048460D01*
D10*
X159200000Y-86700000D02*
X159200000Y-91300000D01*
X156350000Y-90300000D02*
X156350000Y-87700000D01*
X165700000Y-84900000D02*
X165700000Y-88650000D01*
X158450000Y-86700000D02*
X158450000Y-91300000D01*
X156350000Y-90300000D02*
X157375000Y-91325000D01*
X160550000Y-86350000D02*
X160550000Y-90800000D01*
X157250000Y-86850000D02*
X157250000Y-91200000D01*
X164950000Y-84475000D02*
X162350000Y-84475000D01*
X156650000Y-87450000D02*
X156650000Y-90600000D01*
X163250000Y-84500000D02*
X163250000Y-89100000D01*
X165800000Y-85050000D02*
X165800000Y-88600000D01*
X156500000Y-87550000D02*
X156500000Y-90450000D01*
X158000000Y-86700000D02*
X158000000Y-91300000D01*
X156350000Y-87700000D02*
X157375000Y-86675000D01*
X163700000Y-84500000D02*
X163700000Y-89100000D01*
X159800000Y-86650000D02*
X159800000Y-91300000D01*
X159925000Y-91325000D02*
X161200000Y-90300000D01*
X163850000Y-84500000D02*
X163850000Y-89100000D01*
X157700000Y-86700000D02*
X157700000Y-91300000D01*
X161450000Y-85300000D02*
X161450000Y-89450000D01*
D12*
X163050000Y-76048460D02*
X163050000Y-77699460D01*
D10*
X161650000Y-84900000D02*
X161650000Y-89300000D01*
X163550000Y-84500000D02*
X163550000Y-89100000D01*
X161000000Y-86000000D02*
X161000000Y-90450000D01*
X162500000Y-84500000D02*
X162500000Y-89050000D01*
X158300000Y-86700000D02*
X158300000Y-91300000D01*
X164300000Y-84500000D02*
X164300000Y-89100000D01*
X161350000Y-85500000D02*
X161350000Y-89650000D01*
X165350000Y-84600000D02*
X165350000Y-89000000D01*
X159950000Y-86650000D02*
X159950000Y-91250000D01*
X162950000Y-84500000D02*
X162950000Y-89100000D01*
X158150000Y-86700000D02*
X158150000Y-91300000D01*
X159350000Y-86675000D02*
X157375000Y-86675000D01*
X157400000Y-86700000D02*
X157400000Y-91300000D01*
X161550000Y-85150000D02*
X161550000Y-89350000D01*
X162650000Y-84500000D02*
X162650000Y-89100000D01*
X158750000Y-86700000D02*
X158750000Y-91300000D01*
X158900000Y-86700000D02*
X158900000Y-91300000D01*
X162200000Y-84500000D02*
X162200000Y-89100000D01*
X164900000Y-84500000D02*
X164900000Y-89100000D01*
X165050000Y-84500000D02*
X165050000Y-89050000D01*
X156950000Y-87100000D02*
X156950000Y-90900000D01*
X164150000Y-84500000D02*
X164150000Y-89100000D01*
X162350000Y-84500000D02*
X162350000Y-89100000D01*
X162375000Y-89125000D02*
G75*
G03*
X161200000Y-90300000I2J-1175002D01*
G01*
X164950000Y-89125000D02*
G75*
G03*
X165950000Y-88125000I1J999999D01*
G01*
X162349005Y-84476209D02*
G75*
G03*
X161487801Y-85178096I38796J-926887D01*
G01*
X165950000Y-85475000D02*
G75*
G03*
X164950000Y-84475000I-999999J1D01*
G01*
X159350000Y-86675000D02*
G75*
G03*
X161487801Y-85178096I1J2274999D01*
G01*
G36*
X163050000Y-77064460D02*
G01*
X162042000Y-76051000D01*
X163050000Y-76048460D01*
X163050000Y-77064460D01*
G37*
D13*
X163050000Y-77064460D02*
X162042000Y-76051000D01*
X163050000Y-76048460D01*
X163050000Y-77064460D01*
D10*
X143450000Y-48900000D02*
X143450000Y-53450000D01*
X144650000Y-48900000D02*
X144650000Y-53500000D01*
X143750000Y-48900000D02*
X143750000Y-53500000D01*
X145250000Y-48900000D02*
X145250000Y-53500000D01*
X144200000Y-48900000D02*
X144200000Y-53500000D01*
X140000000Y-51100000D02*
X140000000Y-55700000D01*
X144350000Y-48900000D02*
X144350000Y-53500000D01*
X146550000Y-49200000D02*
X146550000Y-53150000D01*
X140300000Y-51075000D02*
X138325000Y-51075000D01*
X146150000Y-48950000D02*
X146150000Y-53450000D01*
X139100000Y-51100000D02*
X139100000Y-55700000D01*
X140150000Y-51100000D02*
X140150000Y-55700000D01*
X145900000Y-48875000D02*
X143300000Y-48875000D01*
X137300000Y-54700000D02*
X138325000Y-55725000D01*
X145550000Y-48900000D02*
X145550000Y-53500000D01*
X138050000Y-51350000D02*
X138050000Y-55450000D01*
X143000000Y-48950000D02*
X143000000Y-53500000D01*
X144950000Y-48900000D02*
X144950000Y-53500000D01*
D12*
X144000000Y-40448460D02*
X144000000Y-42099460D01*
D10*
X141950000Y-50400000D02*
X141950000Y-54850000D01*
X137300000Y-52100000D02*
X138325000Y-51075000D01*
X143300000Y-48900000D02*
X143300000Y-53500000D01*
X143900000Y-48900000D02*
X143900000Y-53500000D01*
X146450000Y-49100000D02*
X146450000Y-53300000D01*
X137450000Y-51950000D02*
X137450000Y-54850000D01*
X140900000Y-51050000D02*
X140900000Y-55650000D01*
X143600000Y-48900000D02*
X143600000Y-53500000D01*
X139700000Y-51100000D02*
X139700000Y-55700000D01*
X145100000Y-48900000D02*
X145100000Y-53500000D01*
X145850000Y-48900000D02*
X145850000Y-53500000D01*
X145900000Y-53525000D02*
X143325000Y-53525000D01*
X142600000Y-49300000D02*
X142600000Y-53700000D01*
X146650000Y-49300000D02*
X146650000Y-53050000D01*
X138500000Y-51100000D02*
X138500000Y-55700000D01*
X138200000Y-51250000D02*
X138200000Y-55600000D01*
X137300000Y-54700000D02*
X137300000Y-52100000D01*
D12*
X135700000Y-40448460D02*
X144000000Y-40448460D01*
D10*
X142300000Y-49900000D02*
X142300000Y-54050000D01*
X146300000Y-49000000D02*
X146300000Y-53400000D01*
X142850000Y-49050000D02*
X142850000Y-53600000D01*
X140875000Y-55725000D02*
X142150000Y-54700000D01*
X141500000Y-50750000D02*
X141500000Y-55200000D01*
X141650000Y-50650000D02*
X141650000Y-55050000D01*
X139250000Y-51100000D02*
X139250000Y-55700000D01*
X140300000Y-51100000D02*
X140300000Y-55700000D01*
X138800000Y-51100000D02*
X138800000Y-55700000D01*
X140600000Y-51050000D02*
X140600000Y-55700000D01*
X145400000Y-48900000D02*
X145400000Y-53500000D01*
X139550000Y-51100000D02*
X139550000Y-55700000D01*
X141200000Y-50900000D02*
X141200000Y-55450000D01*
X145700000Y-48900000D02*
X145700000Y-53500000D01*
X142400000Y-49700000D02*
X142400000Y-53850000D01*
X142100000Y-50250000D02*
X142100000Y-54700000D01*
X146900000Y-52525000D02*
X146900000Y-49875000D01*
X144050000Y-48900000D02*
X144050000Y-53500000D01*
X146750000Y-49450000D02*
X146750000Y-53000000D01*
X142200000Y-50050000D02*
X142200000Y-54200000D01*
X143150000Y-48900000D02*
X143150000Y-53500000D01*
X141350000Y-50850000D02*
X141350000Y-55300000D01*
D12*
X144000000Y-45151000D02*
X135700000Y-45148460D01*
D10*
X138950000Y-51100000D02*
X138950000Y-55700000D01*
X140875000Y-55725000D02*
X138325000Y-55725000D01*
X146000000Y-48900000D02*
X146000000Y-53450000D01*
X138350000Y-51100000D02*
X138350000Y-55700000D01*
X141050000Y-51000000D02*
X141050000Y-55550000D01*
X139850000Y-51100000D02*
X139850000Y-55700000D01*
X141800000Y-50550000D02*
X141800000Y-54950000D01*
X142700000Y-49150000D02*
X142700000Y-53650000D01*
X137900000Y-51500000D02*
X137900000Y-55300000D01*
X137600000Y-51850000D02*
X137600000Y-55000000D01*
X138650000Y-51100000D02*
X138650000Y-55700000D01*
X139400000Y-51100000D02*
X139400000Y-55700000D01*
X144800000Y-48900000D02*
X144800000Y-53500000D01*
X142500000Y-49550000D02*
X142500000Y-53750000D01*
X140450000Y-51100000D02*
X140450000Y-55650000D01*
X144500000Y-48900000D02*
X144500000Y-53500000D01*
X137750000Y-51650000D02*
X137750000Y-55150000D01*
X140750000Y-51050000D02*
X140750000Y-55700000D01*
X143325000Y-53525000D02*
G75*
G03*
X142150000Y-54700000I2J-1175002D01*
G01*
X140300000Y-51075000D02*
G75*
G03*
X142437801Y-49578096I1J2274999D01*
G01*
X145900000Y-53525000D02*
G75*
G03*
X146900000Y-52525000I1J999999D01*
G01*
X146900000Y-49875000D02*
G75*
G03*
X145900000Y-48875000I-999999J1D01*
G01*
X143299005Y-48876209D02*
G75*
G03*
X142437801Y-49578096I38796J-926887D01*
G01*
G36*
X144000000Y-41464460D02*
G01*
X142992000Y-40451000D01*
X144000000Y-40448460D01*
X144000000Y-41464460D01*
G37*
D13*
X144000000Y-41464460D02*
X142992000Y-40451000D01*
X144000000Y-40448460D01*
X144000000Y-41464460D01*
D10*
X109986372Y-129514553D02*
X109020447Y-129773372D01*
X110797256Y-131574885D02*
X109348367Y-131963114D01*
X109399633Y-126358886D02*
X107950744Y-126747115D01*
X109727553Y-128548628D02*
X108761628Y-128807447D01*
X109020447Y-129773372D02*
X109270472Y-128774630D01*
X110797256Y-131574885D02*
X109399633Y-126358886D01*
X107950744Y-126747115D02*
X109348367Y-131963114D01*
X109270472Y-128774630D02*
X109986372Y-129514553D01*
D12*
X144000000Y-97598460D02*
X144000000Y-99249460D01*
D10*
X138050000Y-108500000D02*
X138050000Y-112600000D01*
X143750000Y-106050000D02*
X143750000Y-110650000D01*
X138500000Y-108250000D02*
X138500000Y-112850000D01*
X146750000Y-106600000D02*
X146750000Y-110150000D01*
X138200000Y-108400000D02*
X138200000Y-112750000D01*
X145400000Y-106050000D02*
X145400000Y-110650000D01*
X145100000Y-106050000D02*
X145100000Y-110650000D01*
X139250000Y-108250000D02*
X139250000Y-112850000D01*
X140875000Y-112875000D02*
X142150000Y-111850000D01*
X144800000Y-106050000D02*
X144800000Y-110650000D01*
X140150000Y-108250000D02*
X140150000Y-112850000D01*
X142100000Y-107400000D02*
X142100000Y-111850000D01*
X143600000Y-106050000D02*
X143600000Y-110650000D01*
X142500000Y-106700000D02*
X142500000Y-110900000D01*
X145700000Y-106050000D02*
X145700000Y-110650000D01*
X137600000Y-109000000D02*
X137600000Y-112150000D01*
X146000000Y-106050000D02*
X146000000Y-110600000D01*
X143450000Y-106050000D02*
X143450000Y-110600000D01*
X141050000Y-108150000D02*
X141050000Y-112700000D01*
X144650000Y-106050000D02*
X144650000Y-110650000D01*
X140600000Y-108200000D02*
X140600000Y-112850000D01*
D12*
X135700000Y-97598460D02*
X144000000Y-97598460D01*
D10*
X143150000Y-106050000D02*
X143150000Y-110650000D01*
X138650000Y-108250000D02*
X138650000Y-112850000D01*
X140900000Y-108200000D02*
X140900000Y-112800000D01*
X141950000Y-107550000D02*
X141950000Y-112000000D01*
X138950000Y-108250000D02*
X138950000Y-112850000D01*
X143300000Y-106050000D02*
X143300000Y-110650000D01*
X146550000Y-106350000D02*
X146550000Y-110300000D01*
X145900000Y-106025000D02*
X143300000Y-106025000D01*
X140750000Y-108200000D02*
X140750000Y-112850000D01*
X141200000Y-108050000D02*
X141200000Y-112600000D01*
X146300000Y-106150000D02*
X146300000Y-110550000D01*
X142300000Y-107050000D02*
X142300000Y-111200000D01*
X143000000Y-106100000D02*
X143000000Y-110650000D01*
X142600000Y-106450000D02*
X142600000Y-110850000D01*
X141350000Y-108000000D02*
X141350000Y-112450000D01*
X139850000Y-108250000D02*
X139850000Y-112850000D01*
X140875000Y-112875000D02*
X138325000Y-112875000D01*
X137750000Y-108800000D02*
X137750000Y-112300000D01*
X138350000Y-108250000D02*
X138350000Y-112850000D01*
X140300000Y-108250000D02*
X140300000Y-112850000D01*
X142400000Y-106850000D02*
X142400000Y-111000000D01*
X139700000Y-108250000D02*
X139700000Y-112850000D01*
X144200000Y-106050000D02*
X144200000Y-110650000D01*
X138800000Y-108250000D02*
X138800000Y-112850000D01*
D12*
X144000000Y-102301000D02*
X135700000Y-102298460D01*
D10*
X137300000Y-109250000D02*
X138325000Y-108225000D01*
X145250000Y-106050000D02*
X145250000Y-110650000D01*
X144350000Y-106050000D02*
X144350000Y-110650000D01*
X137300000Y-111850000D02*
X137300000Y-109250000D01*
X141500000Y-107900000D02*
X141500000Y-112350000D01*
X141800000Y-107700000D02*
X141800000Y-112100000D01*
X145900000Y-110675000D02*
X143325000Y-110675000D01*
X140000000Y-108250000D02*
X140000000Y-112850000D01*
X137900000Y-108650000D02*
X137900000Y-112450000D01*
X145850000Y-106050000D02*
X145850000Y-110650000D01*
X144950000Y-106050000D02*
X144950000Y-110650000D01*
X137450000Y-109100000D02*
X137450000Y-112000000D01*
X146900000Y-109675000D02*
X146900000Y-107025000D01*
X139400000Y-108250000D02*
X139400000Y-112850000D01*
X137300000Y-111850000D02*
X138325000Y-112875000D01*
X144500000Y-106050000D02*
X144500000Y-110650000D01*
X141650000Y-107800000D02*
X141650000Y-112200000D01*
X146650000Y-106450000D02*
X146650000Y-110200000D01*
X139100000Y-108250000D02*
X139100000Y-112850000D01*
X140300000Y-108225000D02*
X138325000Y-108225000D01*
X142850000Y-106200000D02*
X142850000Y-110750000D01*
X140450000Y-108250000D02*
X140450000Y-112800000D01*
X139550000Y-108250000D02*
X139550000Y-112850000D01*
X143900000Y-106050000D02*
X143900000Y-110650000D01*
X142200000Y-107200000D02*
X142200000Y-111350000D01*
X146450000Y-106250000D02*
X146450000Y-110450000D01*
X145550000Y-106050000D02*
X145550000Y-110650000D01*
X146150000Y-106100000D02*
X146150000Y-110600000D01*
X144050000Y-106050000D02*
X144050000Y-110650000D01*
X142700000Y-106300000D02*
X142700000Y-110800000D01*
X143325000Y-110675000D02*
G75*
G03*
X142150000Y-111850000I2J-1175002D01*
G01*
X140300000Y-108225000D02*
G75*
G03*
X142437801Y-106728096I1J2274999D01*
G01*
X146900000Y-107025000D02*
G75*
G03*
X145900000Y-106025000I-999999J1D01*
G01*
X145900000Y-110675000D02*
G75*
G03*
X146900000Y-109675000I1J999999D01*
G01*
X143299005Y-106026209D02*
G75*
G03*
X142437801Y-106728096I38796J-926887D01*
G01*
G36*
X144000000Y-98614460D02*
G01*
X142992000Y-97601000D01*
X144000000Y-97598460D01*
X144000000Y-98614460D01*
G37*
D13*
X144000000Y-98614460D02*
X142992000Y-97601000D01*
X144000000Y-97598460D01*
X144000000Y-98614460D01*
D10*
X149845000Y-82420000D02*
X150345000Y-81520000D01*
X150845000Y-82420000D02*
X149845000Y-82420000D01*
X151095000Y-84620000D02*
X151095000Y-79220000D01*
X151095000Y-79220000D02*
X149595000Y-79220000D01*
X150345000Y-81520000D02*
X150845000Y-82420000D01*
X149595000Y-79220000D02*
X149595000Y-84620000D01*
X150845000Y-81420000D02*
X149845000Y-81420000D01*
X151095000Y-84620000D02*
X149595000Y-84620000D01*
X169589120Y-84902640D02*
X169589120Y-79502640D01*
X168089120Y-79502640D02*
X168089120Y-84902640D01*
X169339120Y-81702640D02*
X168339120Y-81702640D01*
X168839120Y-81802640D02*
X169339120Y-82702640D01*
X169339120Y-82702640D02*
X168339120Y-82702640D01*
X169589120Y-79502640D02*
X168089120Y-79502640D01*
X168339120Y-82702640D02*
X168839120Y-81802640D01*
X169589120Y-84902640D02*
X168089120Y-84902640D01*
X187639120Y-85202640D02*
X188139120Y-84302640D01*
X188639120Y-85202640D02*
X187639120Y-85202640D01*
X187389120Y-82002640D02*
X187389120Y-87402640D01*
X188889120Y-82002640D02*
X187389120Y-82002640D01*
X188139120Y-84302640D02*
X188639120Y-85202640D01*
X188889120Y-87402640D02*
X188889120Y-82002640D01*
X188639120Y-84202640D02*
X187639120Y-84202640D01*
X188889120Y-87402640D02*
X187389120Y-87402640D01*
X207945000Y-88730000D02*
X206945000Y-88730000D01*
X208195000Y-91930000D02*
X206695000Y-91930000D01*
X208195000Y-86530000D02*
X206695000Y-86530000D01*
X207945000Y-89730000D02*
X206945000Y-89730000D01*
X206945000Y-89730000D02*
X207445000Y-88830000D01*
X207445000Y-88830000D02*
X207945000Y-89730000D01*
X206695000Y-86530000D02*
X206695000Y-91930000D01*
X208195000Y-91930000D02*
X208195000Y-86530000D01*
X131245000Y-122030000D02*
X131745000Y-122930000D01*
X131745000Y-122930000D02*
X130745000Y-122930000D01*
X131995000Y-125130000D02*
X131995000Y-119730000D01*
X131745000Y-121930000D02*
X130745000Y-121930000D01*
X131995000Y-125130000D02*
X130495000Y-125130000D01*
X130495000Y-119730000D02*
X130495000Y-125130000D01*
X131995000Y-119730000D02*
X130495000Y-119730000D01*
X130745000Y-122930000D02*
X131245000Y-122030000D01*
X151095000Y-122720000D02*
X151095000Y-117320000D01*
X150845000Y-119520000D02*
X149845000Y-119520000D01*
X150345000Y-119620000D02*
X150845000Y-120520000D01*
X149845000Y-120520000D02*
X150345000Y-119620000D01*
X150845000Y-120520000D02*
X149845000Y-120520000D01*
X151095000Y-122720000D02*
X149595000Y-122720000D01*
X149595000Y-117320000D02*
X149595000Y-122720000D01*
X151095000Y-117320000D02*
X149595000Y-117320000D01*
X208245000Y-105530000D02*
X206745000Y-105530000D01*
X207495000Y-107830000D02*
X207995000Y-108730000D01*
X208245000Y-110930000D02*
X206745000Y-110930000D01*
X206745000Y-105530000D02*
X206745000Y-110930000D01*
X208245000Y-110930000D02*
X208245000Y-105530000D01*
X207995000Y-107730000D02*
X206995000Y-107730000D01*
X207995000Y-108730000D02*
X206995000Y-108730000D01*
X206995000Y-108730000D02*
X207495000Y-107830000D01*
X131995000Y-100730000D02*
X130495000Y-100730000D01*
X131745000Y-103930000D02*
X130745000Y-103930000D01*
X131995000Y-106130000D02*
X131995000Y-100730000D01*
X131745000Y-102930000D02*
X130745000Y-102930000D01*
X130745000Y-103930000D02*
X131245000Y-103030000D01*
X131245000Y-103030000D02*
X131745000Y-103930000D01*
X131995000Y-106130000D02*
X130495000Y-106130000D01*
X130495000Y-100730000D02*
X130495000Y-106130000D01*
X151095000Y-103620000D02*
X151095000Y-98220000D01*
X150345000Y-100520000D02*
X150845000Y-101420000D01*
X151095000Y-98220000D02*
X149595000Y-98220000D01*
X149595000Y-98220000D02*
X149595000Y-103620000D01*
X151095000Y-103620000D02*
X149595000Y-103620000D01*
X150845000Y-100420000D02*
X149845000Y-100420000D01*
X149845000Y-101420000D02*
X150345000Y-100520000D01*
X150845000Y-101420000D02*
X149845000Y-101420000D01*
X169139120Y-101802640D02*
X168139120Y-101802640D01*
X167889120Y-98602640D02*
X167889120Y-104002640D01*
X169139120Y-100802640D02*
X168139120Y-100802640D01*
X169389120Y-104002640D02*
X167889120Y-104002640D01*
X168639120Y-100902640D02*
X169139120Y-101802640D01*
X169389120Y-98602640D02*
X167889120Y-98602640D01*
X169389120Y-104002640D02*
X169389120Y-98602640D01*
X168139120Y-101802640D02*
X168639120Y-100902640D01*
X188139120Y-103502640D02*
X188639120Y-104402640D01*
X188889120Y-101202640D02*
X187389120Y-101202640D01*
X187389120Y-101202640D02*
X187389120Y-106602640D01*
X187639120Y-104402640D02*
X188139120Y-103502640D01*
X188889120Y-106602640D02*
X188889120Y-101202640D01*
X188639120Y-103402640D02*
X187639120Y-103402640D01*
X188639120Y-104402640D02*
X187639120Y-104402640D01*
X188889120Y-106602640D02*
X187389120Y-106602640D01*
X131995000Y-87030000D02*
X130495000Y-87030000D01*
X131995000Y-87030000D02*
X131995000Y-81630000D01*
X131245000Y-83930000D02*
X131745000Y-84830000D01*
X131745000Y-83830000D02*
X130745000Y-83830000D01*
X130745000Y-84830000D02*
X131245000Y-83930000D01*
X131995000Y-81630000D02*
X130495000Y-81630000D01*
X131745000Y-84830000D02*
X130745000Y-84830000D01*
X130495000Y-81630000D02*
X130495000Y-87030000D01*
X169739120Y-119602640D02*
X168739120Y-119602640D01*
X168489120Y-117402640D02*
X168489120Y-122802640D01*
X169989120Y-122802640D02*
X168489120Y-122802640D01*
X168739120Y-120602640D02*
X169239120Y-119702640D01*
X169989120Y-117402640D02*
X168489120Y-117402640D01*
X169739120Y-120602640D02*
X168739120Y-120602640D01*
X169989120Y-122802640D02*
X169989120Y-117402640D01*
X169239120Y-119702640D02*
X169739120Y-120602640D01*
X141050000Y-127200000D02*
X141050000Y-131750000D01*
X138050000Y-127550000D02*
X138050000Y-131650000D01*
X144500000Y-125100000D02*
X144500000Y-129700000D01*
X139850000Y-127300000D02*
X139850000Y-131900000D01*
X137300000Y-130900000D02*
X138325000Y-131925000D01*
X137450000Y-128150000D02*
X137450000Y-131050000D01*
X139250000Y-127300000D02*
X139250000Y-131900000D01*
X140150000Y-127300000D02*
X140150000Y-131900000D01*
X140450000Y-127300000D02*
X140450000Y-131850000D01*
X137900000Y-127700000D02*
X137900000Y-131500000D01*
X138350000Y-127300000D02*
X138350000Y-131900000D01*
X146650000Y-125500000D02*
X146650000Y-129250000D01*
X144800000Y-125100000D02*
X144800000Y-129700000D01*
X145900000Y-125075000D02*
X143300000Y-125075000D01*
X144650000Y-125100000D02*
X144650000Y-129700000D01*
X139550000Y-127300000D02*
X139550000Y-131900000D01*
X142850000Y-125250000D02*
X142850000Y-129800000D01*
X145550000Y-125100000D02*
X145550000Y-129700000D01*
X146750000Y-125650000D02*
X146750000Y-129200000D01*
X141200000Y-127100000D02*
X141200000Y-131650000D01*
X143300000Y-125100000D02*
X143300000Y-129700000D01*
X145900000Y-129725000D02*
X143325000Y-129725000D01*
X140300000Y-127300000D02*
X140300000Y-131900000D01*
D12*
X144000000Y-121351000D02*
X135700000Y-121348460D01*
D10*
X142400000Y-125900000D02*
X142400000Y-130050000D01*
X137300000Y-128300000D02*
X138325000Y-127275000D01*
X145850000Y-125100000D02*
X145850000Y-129700000D01*
X141800000Y-126750000D02*
X141800000Y-131150000D01*
X146150000Y-125150000D02*
X146150000Y-129650000D01*
X143450000Y-125100000D02*
X143450000Y-129650000D01*
X143600000Y-125100000D02*
X143600000Y-129700000D01*
X142500000Y-125750000D02*
X142500000Y-129950000D01*
X141950000Y-126600000D02*
X141950000Y-131050000D01*
X142200000Y-126250000D02*
X142200000Y-130400000D01*
X146550000Y-125400000D02*
X146550000Y-129350000D01*
X138800000Y-127300000D02*
X138800000Y-131900000D01*
X143000000Y-125150000D02*
X143000000Y-129700000D01*
X140000000Y-127300000D02*
X140000000Y-131900000D01*
X138200000Y-127450000D02*
X138200000Y-131800000D01*
X146900000Y-128725000D02*
X146900000Y-126075000D01*
X137600000Y-128050000D02*
X137600000Y-131200000D01*
X138650000Y-127300000D02*
X138650000Y-131900000D01*
X140300000Y-127275000D02*
X138325000Y-127275000D01*
X145250000Y-125100000D02*
X145250000Y-129700000D01*
X141350000Y-127050000D02*
X141350000Y-131500000D01*
X138500000Y-127300000D02*
X138500000Y-131900000D01*
X140600000Y-127250000D02*
X140600000Y-131900000D01*
X142600000Y-125500000D02*
X142600000Y-129900000D01*
X142100000Y-126450000D02*
X142100000Y-130900000D01*
X141500000Y-126950000D02*
X141500000Y-131400000D01*
X140900000Y-127250000D02*
X140900000Y-131850000D01*
X142300000Y-126100000D02*
X142300000Y-130250000D01*
X139400000Y-127300000D02*
X139400000Y-131900000D01*
X137300000Y-130900000D02*
X137300000Y-128300000D01*
X144200000Y-125100000D02*
X144200000Y-129700000D01*
X144950000Y-125100000D02*
X144950000Y-129700000D01*
X144050000Y-125100000D02*
X144050000Y-129700000D01*
D12*
X135700000Y-116648460D02*
X144000000Y-116648460D01*
D10*
X143900000Y-125100000D02*
X143900000Y-129700000D01*
X142700000Y-125350000D02*
X142700000Y-129850000D01*
X137750000Y-127850000D02*
X137750000Y-131350000D01*
X141650000Y-126850000D02*
X141650000Y-131250000D01*
X139100000Y-127300000D02*
X139100000Y-131900000D01*
X140750000Y-127250000D02*
X140750000Y-131900000D01*
X140875000Y-131925000D02*
X142150000Y-130900000D01*
X143750000Y-125100000D02*
X143750000Y-129700000D01*
X146300000Y-125200000D02*
X146300000Y-129600000D01*
X146000000Y-125100000D02*
X146000000Y-129650000D01*
X145700000Y-125100000D02*
X145700000Y-129700000D01*
X146450000Y-125300000D02*
X146450000Y-129500000D01*
X139700000Y-127300000D02*
X139700000Y-131900000D01*
X145100000Y-125100000D02*
X145100000Y-129700000D01*
X145400000Y-125100000D02*
X145400000Y-129700000D01*
D12*
X144000000Y-116648460D02*
X144000000Y-118299460D01*
D10*
X138950000Y-127300000D02*
X138950000Y-131900000D01*
X144350000Y-125100000D02*
X144350000Y-129700000D01*
X140875000Y-131925000D02*
X138325000Y-131925000D01*
X143150000Y-125100000D02*
X143150000Y-129700000D01*
X140300000Y-127275000D02*
G75*
G03*
X142437801Y-125778096I1J2274999D01*
G01*
X143325000Y-129725000D02*
G75*
G03*
X142150000Y-130900000I2J-1175002D01*
G01*
X145900000Y-129725000D02*
G75*
G03*
X146900000Y-128725000I1J999999D01*
G01*
X143299005Y-125076209D02*
G75*
G03*
X142437801Y-125778096I38796J-926887D01*
G01*
X146900000Y-126075000D02*
G75*
G03*
X145900000Y-125075000I-999999J1D01*
G01*
G36*
X144000000Y-117664460D02*
G01*
X142992000Y-116651000D01*
X144000000Y-116648460D01*
X144000000Y-117664460D01*
G37*
D13*
X144000000Y-117664460D02*
X142992000Y-116651000D01*
X144000000Y-116648460D01*
X144000000Y-117664460D01*
D12*
X88584120Y-75202640D02*
X87294120Y-75202640D01*
X87294120Y-75202640D02*
X87084120Y-75402640D01*
X88584120Y-73752640D02*
X88584120Y-79452640D01*
X87294120Y-76502640D02*
X87084120Y-76302640D01*
X87294120Y-76502640D02*
X88584120Y-76502640D01*
X91434120Y-75002640D02*
X91434120Y-76702640D01*
X90384120Y-73152640D02*
X89594120Y-73152640D01*
X91434120Y-78002640D02*
X91434120Y-78202640D01*
X89594120Y-80052640D02*
X90384120Y-80052640D01*
X87084120Y-75402640D02*
X87084120Y-76302640D01*
D10*
X104040119Y-72345640D02*
X104040119Y-70059640D01*
X104040119Y-70059640D02*
X105818119Y-70059640D01*
X105818119Y-70059640D02*
X105818119Y-72345640D01*
X105818119Y-72345640D02*
X104040119Y-72345640D01*
D14*
X92180000Y-41230000D03*
X92180000Y-43770000D03*
X92180000Y-46310000D03*
X92180000Y-48850000D03*
X92180000Y-51390000D03*
X92180000Y-53930000D03*
X92180000Y-56470000D03*
X92180000Y-59010000D03*
X92180000Y-61550000D03*
X92180000Y-64090000D03*
X92180000Y-66630000D03*
X92180000Y-69170000D03*
X107420000Y-69170000D03*
X107420000Y-66630000D03*
X107420000Y-64090000D03*
X107420000Y-61550000D03*
X107420000Y-59010000D03*
X107420000Y-56470000D03*
X107420000Y-53930000D03*
X107420000Y-51390000D03*
X107420000Y-48850000D03*
X107420000Y-46310000D03*
X107420000Y-43770000D03*
X107420000Y-41230000D03*
%LPC*%
D15*
X99102200Y-107150000D03*
D16*
X96352200Y-103530000D03*
X96352200Y-102130000D03*
X101852200Y-102130000D03*
X101852200Y-103530000D03*
D17*
X99102200Y-113050000D03*
X104102200Y-110950000D03*
D18*
X89984120Y-75102640D03*
X89984120Y-78102640D03*
D19*
X103000000Y-119000000D03*
D20*
X108718815Y-42425745D03*
X92180000Y-41230000D03*
X92180000Y-43770000D03*
X108718815Y-44965745D03*
X108718815Y-47505745D03*
X92180000Y-46310000D03*
X92180000Y-48850000D03*
X108718815Y-50045745D03*
X108718815Y-52585745D03*
X92180000Y-51390000D03*
X92180000Y-53930000D03*
X108718815Y-55125745D03*
X92180000Y-56470000D03*
X108718815Y-57665745D03*
X92180000Y-59010000D03*
X108718815Y-60205745D03*
X92180000Y-61550000D03*
X108718815Y-62745745D03*
X92180000Y-64090000D03*
X108718815Y-65285745D03*
X92180000Y-66630000D03*
X108718815Y-67825745D03*
X92180000Y-69170000D03*
X108718815Y-70365745D03*
X93478815Y-70365745D03*
X107420000Y-69170000D03*
X107420000Y-66630000D03*
X93478815Y-67825745D03*
X107420000Y-64090000D03*
X93478815Y-65285745D03*
X107420000Y-61550000D03*
X93478815Y-62745745D03*
X93478815Y-60205745D03*
X107420000Y-59010000D03*
X93478815Y-57665745D03*
X107420000Y-56470000D03*
X107420000Y-53930000D03*
X93478815Y-55125745D03*
X93478815Y-52585745D03*
X107420000Y-51390000D03*
X107420000Y-48850000D03*
X93478815Y-50045745D03*
X107420000Y-46310000D03*
X93478815Y-47505745D03*
X93478815Y-44965745D03*
X107420000Y-43770000D03*
X93478815Y-42425745D03*
X107420000Y-41230000D03*
D21*
X102739120Y-71652640D03*
X102739120Y-70752640D03*
X100639120Y-71652640D03*
X100639120Y-70752640D03*
X98439120Y-71652640D03*
X98439120Y-70752640D03*
D22*
X90339120Y-83152640D03*
X90339120Y-89652640D03*
D23*
X128705000Y-44452000D03*
X128705000Y-48002000D03*
X131245000Y-44455000D03*
X131245000Y-48005000D03*
X150345000Y-41955000D03*
X150345000Y-45505000D03*
X169345000Y-44455000D03*
X169345000Y-48005000D03*
X188239120Y-45327640D03*
X188239120Y-48877640D03*
X207545000Y-49355000D03*
X207545000Y-52905000D03*
X128705000Y-82555000D03*
X128705000Y-86105000D03*
X128705000Y-101655000D03*
X128705000Y-105205000D03*
D24*
X105225000Y-97000000D03*
X108775000Y-97000000D03*
D25*
X95544195Y-124463500D03*
X92469805Y-126238500D03*
D26*
X120550000Y-55900000D03*
D27*
X115050000Y-50000000D03*
D28*
X115330000Y-45800000D03*
D27*
X126050000Y-50000000D03*
D15*
X120550000Y-50000000D03*
D28*
X125770000Y-45800000D03*
D26*
X125550000Y-53700000D03*
X115550000Y-53700000D03*
D16*
X117800000Y-46001000D03*
X117800000Y-44601000D03*
X123300000Y-44601000D03*
X123300000Y-46001000D03*
D29*
X117455000Y-56160000D03*
D30*
X128805000Y-53650000D03*
D27*
X153150000Y-45000000D03*
D15*
X158650000Y-45000000D03*
D28*
X163870000Y-40800000D03*
D26*
X158650000Y-50900000D03*
D28*
X153430000Y-40800000D03*
D26*
X163650000Y-48700000D03*
D27*
X164150000Y-45000000D03*
D26*
X153650000Y-48700000D03*
D16*
X155900000Y-41001000D03*
X155900000Y-39601000D03*
X161400000Y-39601000D03*
X161400000Y-41001000D03*
D29*
X155555000Y-51160000D03*
D30*
X166905000Y-48650000D03*
D15*
X120550000Y-88100000D03*
D26*
X125550000Y-91800000D03*
X120550000Y-94000000D03*
D27*
X126050000Y-88100000D03*
D28*
X125770000Y-83900000D03*
X115330000Y-83900000D03*
D27*
X115050000Y-88100000D03*
D26*
X115550000Y-91800000D03*
D16*
X117800000Y-84101000D03*
X117800000Y-82701000D03*
X123300000Y-82701000D03*
X123300000Y-84101000D03*
D29*
X117455000Y-94260000D03*
D30*
X128805000Y-91750000D03*
D26*
X134600000Y-89300000D03*
D28*
X134380000Y-81400000D03*
X144820000Y-81400000D03*
D15*
X139600000Y-85600000D03*
D26*
X144600000Y-89300000D03*
D27*
X134100000Y-85600000D03*
X145100000Y-85600000D03*
D26*
X139600000Y-91500000D03*
D16*
X136850000Y-81601000D03*
X136850000Y-80201000D03*
X142350000Y-80201000D03*
X142350000Y-81601000D03*
D29*
X136505000Y-91760000D03*
D30*
X147855000Y-89250000D03*
D27*
X115050000Y-107150000D03*
D28*
X125770000Y-102950000D03*
D26*
X125550000Y-110850000D03*
X120550000Y-113050000D03*
D28*
X115330000Y-102950000D03*
D27*
X126050000Y-107150000D03*
D15*
X120550000Y-107150000D03*
D26*
X115550000Y-110850000D03*
D16*
X117800000Y-103151000D03*
X117800000Y-101751000D03*
X123300000Y-101751000D03*
X123300000Y-103151000D03*
D29*
X117455000Y-113310000D03*
D30*
X128805000Y-110800000D03*
D26*
X158650000Y-108050000D03*
D27*
X153150000Y-102150000D03*
D28*
X163870000Y-97950000D03*
D26*
X153650000Y-105850000D03*
X163650000Y-105850000D03*
D27*
X164150000Y-102150000D03*
D15*
X158650000Y-102150000D03*
D28*
X153430000Y-97950000D03*
D16*
X155900000Y-98151000D03*
X155900000Y-96751000D03*
X161400000Y-96751000D03*
X161400000Y-98151000D03*
D29*
X155555000Y-108310000D03*
D30*
X166905000Y-105800000D03*
D27*
X202250000Y-109550000D03*
X191250000Y-109550000D03*
D28*
X191530000Y-105350000D03*
D26*
X191750000Y-113250000D03*
X201750000Y-113250000D03*
X196750000Y-115450000D03*
D15*
X196750000Y-109550000D03*
D28*
X201970000Y-105350000D03*
D16*
X194000000Y-105551000D03*
X194000000Y-104151000D03*
X199500000Y-104151000D03*
X199500000Y-105551000D03*
D29*
X193655000Y-115710000D03*
D30*
X205005000Y-113200000D03*
D26*
X91600450Y-136350000D03*
X91005706Y-130919873D03*
D28*
X102957307Y-135820653D03*
X97737307Y-126779347D03*
D26*
X96005706Y-139580127D03*
D27*
X99460000Y-138163140D03*
X93960000Y-128636860D03*
D15*
X96710000Y-133400000D03*
D31*
X98798236Y-129018930D03*
X100010671Y-128318930D03*
X102760671Y-133082070D03*
X101548236Y-133782070D03*
D32*
X89827784Y-133799651D03*
D33*
X97676507Y-142374040D03*
D34*
X91500000Y-93500000D03*
D21*
X96229119Y-71654900D03*
X96229119Y-70754900D03*
D35*
X95369408Y-74600000D03*
X97909408Y-74600000D03*
X100449408Y-74600000D03*
X102989408Y-74600000D03*
X105529408Y-74600000D03*
D34*
X107000000Y-93500000D03*
D17*
X101602200Y-99650000D03*
X96602200Y-99650000D03*
X99102200Y-99650000D03*
D36*
X93604150Y-107150000D03*
X104600250Y-107150000D03*
D37*
X96602200Y-114150000D03*
X101602200Y-114150000D03*
D27*
X112287408Y-129823505D03*
D28*
X111470827Y-125694147D03*
D27*
X122912592Y-126976495D03*
D26*
X113728001Y-133268021D03*
D15*
X117600000Y-128400000D03*
D26*
X123387260Y-130679830D03*
D28*
X121555093Y-122992076D03*
D26*
X119127032Y-134098962D03*
D38*
X113908687Y-125249015D03*
X113546340Y-123896719D03*
X118858932Y-122473214D03*
X119221279Y-123825510D03*
D39*
X116204785Y-135151148D03*
D40*
X126518407Y-129789078D03*
D26*
X215800000Y-77350000D03*
D27*
X210300000Y-71450000D03*
X221300000Y-71450000D03*
D26*
X210800000Y-75150000D03*
X220800000Y-75150000D03*
D15*
X215800000Y-71450000D03*
D28*
X210580000Y-67250000D03*
X221020000Y-67250000D03*
D16*
X213050000Y-67451000D03*
X213050000Y-66051000D03*
X218550000Y-66051000D03*
X218550000Y-67451000D03*
D29*
X212705000Y-77610000D03*
D30*
X224055000Y-75100000D03*
D15*
X215800000Y-90500000D03*
D28*
X221020000Y-86300000D03*
D27*
X221300000Y-90500000D03*
D26*
X220800000Y-94200000D03*
X215800000Y-96400000D03*
D27*
X210300000Y-90500000D03*
D26*
X210800000Y-94200000D03*
D28*
X210580000Y-86300000D03*
D16*
X213050000Y-86501000D03*
X213050000Y-85101000D03*
X218550000Y-85101000D03*
X218550000Y-86501000D03*
D29*
X212705000Y-96660000D03*
D30*
X224055000Y-94150000D03*
D27*
X221300000Y-109550000D03*
X210300000Y-109550000D03*
D15*
X215800000Y-109550000D03*
D26*
X210800000Y-113250000D03*
D28*
X221020000Y-105350000D03*
D26*
X215800000Y-115450000D03*
D28*
X210580000Y-105350000D03*
D26*
X220800000Y-113250000D03*
D16*
X213050000Y-105551000D03*
X213050000Y-104151000D03*
X218550000Y-104151000D03*
X218550000Y-105551000D03*
D29*
X212705000Y-115710000D03*
D30*
X224055000Y-113200000D03*
D26*
X172700000Y-51200000D03*
D15*
X177700000Y-47500000D03*
D27*
X172200000Y-47500000D03*
X183200000Y-47500000D03*
D26*
X177700000Y-53400000D03*
X182700000Y-51200000D03*
D28*
X172480000Y-43300000D03*
X182920000Y-43300000D03*
D16*
X174950000Y-43501000D03*
X174950000Y-42101000D03*
X180450000Y-42101000D03*
X180450000Y-43501000D03*
D29*
X174605000Y-53660000D03*
D30*
X185955000Y-51150000D03*
D19*
X206000000Y-61500000D03*
D23*
X128705000Y-63555000D03*
X128705000Y-67105000D03*
X131245000Y-63555000D03*
X131245000Y-67105000D03*
X150345000Y-61045000D03*
X150345000Y-64595000D03*
X169345000Y-63455000D03*
X169345000Y-67005000D03*
X188439120Y-64927640D03*
X188439120Y-68477640D03*
X207445000Y-68255000D03*
X207445000Y-71805000D03*
D26*
X201750000Y-56100000D03*
X196750000Y-58300000D03*
D27*
X191250000Y-52400000D03*
D26*
X191750000Y-56100000D03*
D28*
X201970000Y-48200000D03*
X191530000Y-48200000D03*
D27*
X202250000Y-52400000D03*
D15*
X196750000Y-52400000D03*
D16*
X194000000Y-48401000D03*
X194000000Y-47001000D03*
X199500000Y-47001000D03*
X199500000Y-48401000D03*
D29*
X193655000Y-58560000D03*
D30*
X205005000Y-56050000D03*
D26*
X139600000Y-72450000D03*
X144600000Y-70250000D03*
X134600000Y-70250000D03*
D27*
X134100000Y-66550000D03*
D15*
X139600000Y-66550000D03*
D28*
X144820000Y-62350000D03*
D27*
X145100000Y-66550000D03*
D28*
X134380000Y-62350000D03*
D16*
X136850000Y-62551000D03*
X136850000Y-61151000D03*
X142350000Y-61151000D03*
X142350000Y-62551000D03*
D29*
X136505000Y-72710000D03*
D30*
X147855000Y-70200000D03*
D28*
X182920000Y-62350000D03*
D27*
X183200000Y-66550000D03*
X172200000Y-66550000D03*
D26*
X177700000Y-72450000D03*
D28*
X172480000Y-62350000D03*
D26*
X172700000Y-70250000D03*
X182700000Y-70250000D03*
D15*
X177700000Y-66550000D03*
D16*
X174950000Y-62551000D03*
X174950000Y-61151000D03*
X180450000Y-61151000D03*
X180450000Y-62551000D03*
D29*
X174605000Y-72710000D03*
D30*
X185955000Y-70200000D03*
D28*
X163870000Y-59850000D03*
X153430000Y-59850000D03*
D26*
X163650000Y-67750000D03*
D15*
X158650000Y-64050000D03*
D26*
X158650000Y-69950000D03*
D27*
X164150000Y-64050000D03*
X153150000Y-64050000D03*
D26*
X153650000Y-67750000D03*
D16*
X155900000Y-60051000D03*
X155900000Y-58651000D03*
X161400000Y-58651000D03*
X161400000Y-60051000D03*
D29*
X155555000Y-70210000D03*
D30*
X166905000Y-67700000D03*
D28*
X182920000Y-81400000D03*
D26*
X172700000Y-89300000D03*
D28*
X172480000Y-81400000D03*
D15*
X177700000Y-85600000D03*
D26*
X177700000Y-91500000D03*
D27*
X183200000Y-85600000D03*
X172200000Y-85600000D03*
D26*
X182700000Y-89300000D03*
D16*
X174950000Y-81601000D03*
X174950000Y-80201000D03*
X180450000Y-80201000D03*
X180450000Y-81601000D03*
D29*
X174605000Y-91760000D03*
D30*
X185955000Y-89250000D03*
D28*
X221020000Y-48200000D03*
D27*
X210300000Y-52400000D03*
D28*
X210580000Y-48200000D03*
D26*
X210800000Y-56100000D03*
D15*
X215800000Y-52400000D03*
D26*
X220800000Y-56100000D03*
D27*
X221300000Y-52400000D03*
D26*
X215800000Y-58300000D03*
D16*
X213050000Y-48401000D03*
X213050000Y-47001000D03*
X218550000Y-47001000D03*
X218550000Y-48401000D03*
D29*
X212705000Y-58560000D03*
D30*
X224055000Y-56050000D03*
D26*
X115550000Y-72800000D03*
X125550000Y-72800000D03*
D15*
X120550000Y-69100000D03*
D27*
X115050000Y-69100000D03*
X126050000Y-69100000D03*
D28*
X125770000Y-64900000D03*
D26*
X120550000Y-75000000D03*
D28*
X115330000Y-64900000D03*
D16*
X117800000Y-65101000D03*
X117800000Y-63701000D03*
X123300000Y-63701000D03*
X123300000Y-65101000D03*
D29*
X117455000Y-75260000D03*
D30*
X128805000Y-72750000D03*
D26*
X177700000Y-129600000D03*
X182700000Y-127400000D03*
X172700000Y-127400000D03*
D15*
X177700000Y-123700000D03*
D27*
X183200000Y-123700000D03*
D28*
X182920000Y-119500000D03*
D27*
X172200000Y-123700000D03*
D28*
X172480000Y-119500000D03*
D16*
X174950000Y-119701000D03*
X174950000Y-118301000D03*
X180450000Y-118301000D03*
X180450000Y-119701000D03*
D29*
X174605000Y-129860000D03*
D30*
X185955000Y-127350000D03*
D27*
X202250000Y-71450000D03*
D26*
X201750000Y-75150000D03*
X196750000Y-77350000D03*
D28*
X201970000Y-67250000D03*
D27*
X191250000Y-71450000D03*
D26*
X191750000Y-75150000D03*
D15*
X196750000Y-71450000D03*
D28*
X191530000Y-67250000D03*
D16*
X194000000Y-67451000D03*
X194000000Y-66051000D03*
X199500000Y-66051000D03*
X199500000Y-67451000D03*
D29*
X193655000Y-77610000D03*
D30*
X205005000Y-75100000D03*
D27*
X172200000Y-104650000D03*
D26*
X177700000Y-110550000D03*
D28*
X182920000Y-100450000D03*
D26*
X182700000Y-108350000D03*
X172700000Y-108350000D03*
D28*
X172480000Y-100450000D03*
D27*
X183200000Y-104650000D03*
D15*
X177700000Y-104650000D03*
D16*
X174950000Y-100651000D03*
X174950000Y-99251000D03*
X180450000Y-99251000D03*
X180450000Y-100651000D03*
D29*
X174605000Y-110810000D03*
D30*
X185955000Y-108300000D03*
D15*
X196750000Y-90500000D03*
D26*
X201750000Y-94200000D03*
X196750000Y-96400000D03*
D27*
X191250000Y-90500000D03*
X202250000Y-90500000D03*
D28*
X191530000Y-86300000D03*
D26*
X191750000Y-94200000D03*
D28*
X201970000Y-86300000D03*
D16*
X194000000Y-86501000D03*
X194000000Y-85101000D03*
X199500000Y-85101000D03*
X199500000Y-86501000D03*
D29*
X193655000Y-96660000D03*
D30*
X205005000Y-94150000D03*
D28*
X153430000Y-117000000D03*
X163870000Y-117000000D03*
D26*
X163650000Y-124900000D03*
D27*
X153150000Y-121200000D03*
D15*
X158650000Y-121200000D03*
D26*
X153650000Y-124900000D03*
X158650000Y-127100000D03*
D27*
X164150000Y-121200000D03*
D16*
X155900000Y-117201000D03*
X155900000Y-115801000D03*
X161400000Y-115801000D03*
X161400000Y-117201000D03*
D29*
X155555000Y-127360000D03*
D30*
X166905000Y-124850000D03*
D28*
X163870000Y-78900000D03*
D26*
X158650000Y-89000000D03*
D27*
X164150000Y-83100000D03*
D15*
X158650000Y-83100000D03*
D27*
X153150000Y-83100000D03*
D28*
X153430000Y-78900000D03*
D26*
X153650000Y-86800000D03*
X163650000Y-86800000D03*
D16*
X155900000Y-79101000D03*
X155900000Y-77701000D03*
X161400000Y-77701000D03*
X161400000Y-79101000D03*
D29*
X155555000Y-89260000D03*
D30*
X166905000Y-86750000D03*
D26*
X144600000Y-51200000D03*
X134600000Y-51200000D03*
D27*
X145100000Y-47500000D03*
D28*
X144820000Y-43300000D03*
D15*
X139600000Y-47500000D03*
D28*
X134380000Y-43300000D03*
D27*
X134100000Y-47500000D03*
D26*
X139600000Y-53400000D03*
D16*
X136850000Y-43501000D03*
X136850000Y-42101000D03*
X142350000Y-42101000D03*
X142350000Y-43501000D03*
D29*
X136505000Y-53660000D03*
D30*
X147855000Y-51150000D03*
D41*
X108914596Y-127446482D03*
X109833404Y-130875518D03*
D26*
X144600000Y-108350000D03*
D28*
X144820000Y-100450000D03*
D26*
X139600000Y-110550000D03*
D27*
X134100000Y-104650000D03*
D15*
X139600000Y-104650000D03*
D28*
X134380000Y-100450000D03*
D26*
X134600000Y-108350000D03*
D27*
X145100000Y-104650000D03*
D16*
X136850000Y-100651000D03*
X136850000Y-99251000D03*
X142350000Y-99251000D03*
X142350000Y-100651000D03*
D29*
X136505000Y-110810000D03*
D30*
X147855000Y-108300000D03*
D19*
X206000000Y-100000000D03*
D23*
X150345000Y-80145000D03*
X150345000Y-83695000D03*
X168839120Y-80427640D03*
X168839120Y-83977640D03*
X188139120Y-82927640D03*
X188139120Y-86477640D03*
X207445000Y-87455000D03*
X207445000Y-91005000D03*
X131245000Y-120655000D03*
X131245000Y-124205000D03*
X150345000Y-118245000D03*
X150345000Y-121795000D03*
X207495000Y-106455000D03*
X207495000Y-110005000D03*
X131245000Y-101655000D03*
X131245000Y-105205000D03*
X150345000Y-99145000D03*
X150345000Y-102695000D03*
X168639120Y-99527640D03*
X168639120Y-103077640D03*
X188139120Y-102127640D03*
X188139120Y-105677640D03*
X131245000Y-82555000D03*
X131245000Y-86105000D03*
X169239120Y-118327640D03*
X169239120Y-121877640D03*
D15*
X139600000Y-123700000D03*
D26*
X134600000Y-127400000D03*
X139600000Y-129600000D03*
X144600000Y-127400000D03*
D27*
X134100000Y-123700000D03*
X145100000Y-123700000D03*
D28*
X134380000Y-119500000D03*
X144820000Y-119500000D03*
D16*
X136850000Y-119701000D03*
X136850000Y-118301000D03*
X142350000Y-118301000D03*
X142350000Y-119701000D03*
D29*
X136505000Y-129860000D03*
D30*
X147855000Y-127350000D03*
D19*
X130527120Y-57573640D03*
X130375120Y-95852640D03*
D42*
X94639120Y-81602640D03*
D43*
X94639120Y-79602640D03*
X94639120Y-83602640D03*
D44*
X91094120Y-72952640D03*
D18*
X89984120Y-75102640D03*
X89984120Y-78102640D03*
D44*
X88884120Y-80252640D03*
X88884120Y-72952640D03*
X91094120Y-80252640D03*
D45*
X91744120Y-74352640D03*
X91744120Y-77352640D03*
X91744120Y-78852640D03*
D46*
X99339120Y-93602640D03*
D47*
X101339120Y-93602640D03*
X97339120Y-93602640D03*
D21*
X104929119Y-71652640D03*
X104929119Y-70752640D03*
M02*
