M48
; DRILL file {KiCad (6.0.5)} date Sun Jan 29 18:01:03 2023
; FORMAT={-:-/ absolute / inch / decimal}
; #@! TF.CreationDate,2023-01-29T18:01:03-06:00
; #@! TF.GenerationSoftware,Kicad,Pcbnew,(6.0.5)
; #@! TF.FileFunction,Plated,1,2,PTH
FMAT,2
INCH
; #@! TA.AperFunction,Plated,PTH,ViaDrill
T1C0.0118
; #@! TA.AperFunction,Plated,PTH,ComponentDrill
T2C0.0295
; #@! TA.AperFunction,Plated,PTH,ComponentDrill
T3C0.0320
; #@! TA.AperFunction,Plated,PTH,ComponentDrill
T4C0.0512
; #@! TA.AperFunction,Plated,PTH,ComponentDrill
T5C0.0593
; #@! TA.AperFunction,Plated,PTH,ComponentDrill
T6C0.0669
; #@! TA.AperFunction,Plated,PTH,ComponentDrill
T7C0.0866
%
G90
G05
T1
X3.4189Y-5.0355
X3.57Y-4.9732
X3.6127Y-5.0433
X3.6392Y-5.2591
X3.6787Y-3.9647
X3.6866Y-1.5355
X3.722Y-3.9214
X3.7337Y-1.8703
X3.7457Y-4.9504
X3.7535Y-2.1694
X3.7732Y-4.197
X3.7811Y-2.697
X3.7835Y-2.0232
X3.8086Y-1.5355
X3.8086Y-2.7324
X3.8126Y-2.071
X3.8677Y-1.7718
X3.8677Y-1.9214
X3.8677Y-2.6655
X3.8952Y-3.4607
X3.9267Y-2.756
X3.9267Y-5.3111
X3.9504Y-4.945
X3.9528Y-1.9703
X3.9582Y-1.5355
X3.9661Y-2.1232
X3.9858Y-5.0355
X3.9976Y-1.7009
X4.0055Y-2.7521
X4.0134Y-4.9844
X4.0173Y-2.6655
X4.0204Y-2.2717
X4.0291Y-4.197
X4.041Y-2.3717
X4.0448Y-2.7442
X4.0606Y-2.7127
X4.0617Y-2.4717
X4.0745Y-5.0717
X4.0803Y-2.5434
X4.0921Y-2.7403
X4.1Y-2.5985
X4.1118Y-2.6428
X4.1314Y-4.8917
X4.1315Y-2.7481
X4.1468Y-2.634
X4.1472Y-5.2757
X4.1575Y-2.0236
X4.159Y-1.6733
X4.1614Y-2.2323
X4.1614Y-1.7323
X4.1614Y-2.3228
X4.1614Y-2.437
X4.1614Y-2.1339
X4.1627Y-2.518
X4.1669Y-4.0828
X4.1708Y-2.5828
X4.1789Y-3.8567
X4.1984Y-5.2796
X4.2141Y-2.8544
X4.2299Y-3.4214
X4.2431Y-3.8494
X4.2771Y-5.2285
X4.3211Y-4.9601
X4.3239Y-3.8967
X4.3321Y-5.0441
X4.3441Y-1.8938
X4.348Y-5.3702
X4.3503Y-2.6297
X4.3503Y-3.016
X4.3503Y-3.299
X4.3503Y-4.039
X4.38Y-2.5541
X4.38Y-3.2837
X4.38Y-4.0287
X4.38Y-4.7831
X4.3875Y-5.1944
X4.3921Y-1.7951
X4.4027Y-3.5237
X4.4056Y-2.9597
X4.4056Y-3.4842
X4.4064Y-2.0317
X4.4064Y-2.7817
X4.4064Y-4.2917
X4.4071Y-4.819
X4.4489Y-3.5342
X4.4543Y-4.1418
X4.4622Y-4.7678
X4.4819Y-1.5907
X4.4989Y-2.9767
X4.5055Y-5.071
X4.5364Y-2.2692
X4.5389Y-4.4792
X4.5448Y-3.8229
X4.5728Y-1.7028
X4.5763Y-2.4548
X4.5763Y-3.945
X4.5803Y-4.6851
X4.5855Y-3.197
X4.6028Y-5.2246
X4.6315Y-3.882
X4.6325Y-3.1408
X4.6354Y-1.6379
X4.6354Y-2.4096
X4.6722Y-2.1205
X4.6722Y-2.87
X4.6722Y-3.6205
X4.6722Y-4.3705
X4.7259Y-4.7521
X4.7535Y-5.0277
X4.8008Y-4.7599
X4.8244Y-1.6064
X4.8519Y-1.8637
X4.8521Y-3.37
X4.8559Y-2.6182
X4.8559Y-4.1182
X4.8559Y-4.6782
X4.9149Y-3.941
X4.9189Y-2.464
X4.9259Y-3.8137
X4.9267Y-3.2009
X4.9385Y-1.7009
X5.0182Y-2.6396
X5.0182Y-3.3902
X5.0182Y-4.1402
X5.0449Y-3.8858
X5.0489Y-2.3853
X5.0527Y-3.1182
X5.0671Y-1.9374
X5.0689Y-5.0767
X5.1Y-3.0159
X5.1078Y-1.6025
X5.1182Y-1.7502
X5.1182Y-2.4996
X5.1182Y-3.2502
X5.1182Y-4.0002
X5.1182Y-4.7502
X5.1189Y-4.6358
X5.138Y-4.9391
X5.1393Y-5.1025
X5.1472Y-2.1103
X5.1511Y-1.9371
X5.1511Y-3.4371
X5.1511Y-4.1851
X5.1551Y-2.6885
X5.159Y-4.3505
X5.1669Y-2.8505
X5.1708Y-3.6025
X5.1889Y-4.5817
X5.2202Y-1.9372
X5.2202Y-2.6866
X5.2202Y-3.4372
X5.2202Y-4.1872
X5.2202Y-4.9372
X5.2589Y-1.5717
X5.2653Y-2.8899
X5.2653Y-4.4174
X5.3028Y-4.0335
X5.3047Y-2.5277
X5.3165Y-3.697
X5.3244Y-2.3269
X5.3247Y-1.6123
X5.3283Y-3.8584
X5.3283Y-4.5828
X5.3322Y-1.7718
X5.3322Y-2.2206
X5.3362Y-3.0985
X5.3441Y-3.3072
X5.3795Y-3.0237
X5.3834Y-2.2993
X5.3834Y-4.5434
X5.3874Y-1.5575
X5.4071Y-3.7757
X5.4202Y-2.0221
X5.4202Y-2.7716
X5.4202Y-3.5221
X5.4202Y-4.2721
X5.4202Y-5.0221
X5.5803Y-4.4922
X5.6039Y-4.0159
X5.6039Y-4.7662
X5.6433Y-3.8466
X5.6433Y-4.0434
X5.6551Y-3.0985
X5.659Y-4.5977
X5.6626Y-1.6106
X5.6708Y-3.2521
X5.6748Y-2.3524
X5.6787Y-1.7442
X5.6787Y-2.5001
X5.69Y-3.157
X5.7338Y-1.6497
X5.7378Y-2.4017
X5.7811Y-3.7048
X5.7929Y-2.9489
X5.8008Y-1.8662
X5.8008Y-2.6222
X5.8126Y-4.1103
X5.8204Y-4.9135
X5.8716Y-3.9106
X5.8747Y-1.6575
X5.8766Y-3.1553
X5.8783Y-2.4033
X5.8864Y-4.5317
X5.8964Y-1.4467
X5.9031Y-3.3387
X5.9031Y-4.0867
X5.9031Y-4.2521
X5.9031Y-4.8406
X5.9071Y-1.8387
X5.9071Y-2.5901
X5.911Y-2.7521
X5.9189Y-2.004
X5.9267Y-5.004
X5.9307Y-3.504
X5.9385Y-4.4725
X5.9611Y-4.6611
X5.9721Y-1.8387
X5.9721Y-2.5882
X5.9721Y-3.3387
X5.9721Y-4.0887
X5.9721Y-4.8387
X6.0094Y-4.4765
X6.0347Y-3.1678
X6.0465Y-1.6678
X6.049Y-2.4172
X6.0527Y-2.2481
X6.0606Y-1.5217
X6.0645Y-3.7206
X6.0685Y-4.4962
X6.076Y-3.9178
X6.0763Y-2.9883
X6.1Y-2.882
X6.1026Y-2.1291
X6.1078Y-3.6261
X6.1354Y-1.4962
X6.1354Y-2.9096
X6.1354Y-3.6812
X6.1354Y-4.4371
X6.1378Y-2.2127
X6.1722Y-1.9237
X6.1722Y-2.6731
X6.1722Y-3.4237
X6.1722Y-4.9237
X6.182Y-4.1737
X6.2889Y-1.4673
X6.3519Y-2.4174
X6.3519Y-3.1678
X6.3519Y-3.9174
X6.3519Y-4.6678
X6.3559Y-1.6655
X6.4047Y-3.7501
X6.4071Y-4.5099
X6.411Y-3.0001
X6.4205Y-2.2658
X6.4385Y-1.5296
X6.4976Y-3.634
X6.5685Y-2.5237
X6.5685Y-3.2678
X6.5724Y-4.0159
X6.5763Y-4.8269
X6.5803Y-3.9096
X6.6Y-3.1655
X6.6197Y-5.0907
X6.6236Y-1.7079
X6.6275Y-3.5946
X6.6315Y-4.5001
X6.6489Y-2.4574
X6.6511Y-4.3505
X6.6551Y-1.9391
X6.663Y-2.8505
X6.663Y-4.1929
X6.663Y-4.941
X6.6669Y-2.1025
X6.6669Y-2.6851
X6.6669Y-3.4371
X6.6905Y-4.3899
X6.7063Y-4.7127
X6.7181Y-1.4568
X6.7202Y-1.9372
X6.7202Y-2.6866
X6.7202Y-3.4372
X6.7202Y-4.1872
X6.7202Y-4.9372
X6.7693Y-3.6379
X6.7789Y-1.5745
X6.7811Y-2.9096
X6.7913Y-4.65
X6.8086Y-1.5828
X6.8165Y-3.0749
X6.8244Y-2.3505
X6.8247Y-1.6084
X6.8337Y-4.5946
X6.8365Y-3.8505
X6.8441Y-1.8072
X6.8559Y-3.2993
X6.8834Y-2.2678
X6.8834Y-3.0198
X6.8834Y-3.7954
X6.9028Y-4.0162
X6.9202Y-2.0221
X6.9202Y-2.7716
X6.9202Y-3.5221
X6.9202Y-4.2721
X6.9202Y-5.0221
X7.0606Y-4.5867
X7.1511Y-2.3485
X7.1535Y-3.0946
X7.159Y-4.6044
X7.163Y-3.2639
X7.163Y-3.8505
X7.1669Y-1.5985
X7.1689Y-3.9892
X7.1826Y-1.7403
X7.1826Y-2.504
X7.1961Y-2.4095
X7.1961Y-3.1536
X7.1961Y-3.91
X7.1961Y-4.66
X7.1984Y-3.7363
X7.2378Y-1.6261
X7.2614Y-4.4529
X7.3165Y-3.3781
X7.3244Y-2.63
X7.3244Y-4.134
X7.3401Y-4.0592
X7.348Y-1.7914
X7.3598Y-3.3111
X7.36Y-2.5595
X7.3874Y-2.2954
X7.3874Y-4.3702
X7.39Y-2.1182
X7.3952Y-4.5434
X7.4031Y-3.6143
X7.411Y-3.7914
X7.4189Y-2.882
X7.4189Y-3.0434
X7.4721Y-2.1301
X7.4721Y-2.8795
X7.4721Y-3.6301
X7.4721Y-4.3801
X7.5567Y-3.9568
X7.5606Y-2.5355
X7.5685Y-1.7678
X7.578Y-1.9591
X7.5805Y-2.7086
X7.5842Y-2.4253
X7.5846Y-3.2997
X7.5859Y-3.4591
X7.596Y-4.0395
X7.6Y-1.5552
X7.6Y-3.9174
X7.6118Y-3.1891
X7.6354Y-1.7324
X7.6354Y-2.4922
X7.6354Y-3.2403
X7.6354Y-3.9883
X7.6722Y-2.215
X7.6722Y-2.9645
X7.6722Y-3.715
X7.6722Y-4.465
X7.848Y-1.6812
X7.8519Y-1.9591
X7.8519Y-4.2088
X7.8559Y-2.7088
X7.8559Y-3.4591
X7.9071Y-3.2934
X7.9071Y-4.0552
X7.911Y-2.5453
X7.9149Y-1.7914
X8.1321Y-1.9751
X8.1321Y-2.7245
X8.1321Y-3.4751
X8.1321Y-4.2251
X8.1511Y-4.5434
X8.1551Y-2.8741
X8.1551Y-3.63
X8.159Y-2.1261
X8.159Y-4.3781
X8.163Y-3.7954
X8.1669Y-3.0473
X8.1739Y-4.7017
X8.1748Y-2.2954
X8.2241Y-2.1301
X8.2241Y-2.8795
X8.2241Y-3.6301
X8.2241Y-4.3801
X8.2496Y-1.8347
X8.2693Y-3.8387
X8.2811Y-2.3426
X8.285Y-3.0985
X8.29Y-2.5912
X8.29Y-3.3417
X8.29Y-4.0917
X8.3151Y-1.97
X8.3204Y-1.7882
X8.3244Y-2.5296
X8.3244Y-2.7481
X8.3247Y-4.0493
X8.3287Y-3.2839
X8.3322Y-3.5001
X8.4242Y-2.215
X8.4242Y-2.9645
X8.4242Y-3.715
X8.4242Y-4.465
X8.5814Y-4.0517
X8.6005Y-4.22
X8.6538Y-2.5395
X8.6554Y-3.2879
X8.6669Y-1.7993
X8.6787Y-1.9444
X8.6787Y-3.4607
X8.6826Y-2.7068
X8.6826Y-4.0414
X8.6939Y-3.35
X8.7102Y-2.5946
X8.7141Y-1.8347
T2
X3.7259Y-3.134
X3.7259Y-3.2127
X3.7259Y-3.2914
X3.8322Y-3.6851
X3.911Y-3.6851
X3.9897Y-3.6851
T3
X3.6291Y-1.6232
X3.6291Y-1.7232
X3.6291Y-1.8232
X3.6291Y-1.9232
X3.6291Y-2.0232
X3.6291Y-2.1232
X3.6291Y-2.2232
X3.6291Y-2.3232
X3.6291Y-2.4232
X3.6291Y-2.5232
X3.6291Y-2.6232
X3.6291Y-2.7232
X3.6803Y-1.6703
X3.6803Y-1.7703
X3.6803Y-1.8703
X3.6803Y-1.9703
X3.6803Y-2.0703
X3.6803Y-2.1703
X3.6803Y-2.2703
X3.6803Y-2.3703
X3.6803Y-2.4703
X3.6803Y-2.5703
X3.6803Y-2.6703
X3.6803Y-2.7703
X3.7547Y-2.937
X3.8547Y-2.937
X3.9547Y-2.937
X4.0547Y-2.937
X4.1547Y-2.937
X4.2291Y-1.6232
X4.2291Y-1.7232
X4.2291Y-1.8232
X4.2291Y-1.9232
X4.2291Y-2.0232
X4.2291Y-2.1232
X4.2291Y-2.2232
X4.2291Y-2.3232
X4.2291Y-2.4232
X4.2291Y-2.5232
X4.2291Y-2.6232
X4.2291Y-2.7232
X4.2803Y-1.6703
X4.2803Y-1.7703
X4.2803Y-1.8703
X4.2803Y-1.9703
X4.2803Y-2.0703
X4.2803Y-2.1703
X4.2803Y-2.2703
X4.2803Y-2.3703
X4.2803Y-2.4703
X4.2803Y-2.5703
X4.2803Y-2.6703
X4.2803Y-2.7703
T4
X3.5567Y-3.2737
X3.5567Y-3.5296
T5
X3.7048Y-4.3681
X3.8032Y-3.9232
X3.8032Y-4.4941
X3.9017Y-3.9232
X3.9017Y-4.4508
X4.0001Y-3.9232
X4.0001Y-4.4941
X4.0985Y-4.3681
T7
X3.6024Y-3.6811
X4.2126Y-3.6811
T6
G00X3.6852Y-4.1969
M15
G01X3.6852Y-4.2402
M16
G05
G00X4.1181Y-4.1969
M15
G01X4.1181Y-4.2402
M16
G05
T0
M30
