%FSLAX45Y45*%
G04 Gerber Fmt 4.5, Leading zero omitted, Abs format (unit mm)*
G04 Created by KiCad (PCBNEW (6.0.5)) date 2022-12-02 21:36:14*
%MOMM*%
%LPD*%
G01*
G04 APERTURE LIST*
%TA.AperFunction,Profile*%
%ADD10C,0.100000*%
%TD*%
%ADD11C,0.200000*%
%ADD12C,0.090000*%
%ADD13C,0.100000*%
%ADD14C,0.180000*%
%ADD15C,0.300000*%
%ADD16C,0.340000*%
%ADD17C,0.410000*%
G04 APERTURE END LIST*
D10*
X8919368Y-3734881D02*
X8942585Y-3732540D01*
X8897744Y-3741594D02*
X8919368Y-3734881D01*
X8820000Y-11505000D02*
X8800000Y-11565000D01*
X8210000Y-12690000D02*
X8220000Y-12640000D01*
X8827526Y-11440000D02*
X8820000Y-11505000D01*
X8847059Y-3783333D02*
X8861126Y-3766283D01*
X8827386Y-3847743D02*
X8829726Y-3824526D01*
X8836438Y-3802901D02*
X8847059Y-3783333D01*
X8220000Y-12640000D02*
X8800000Y-11565000D01*
X8878175Y-3752216D02*
X8897744Y-3741594D01*
X8861126Y-3766283D02*
X8878175Y-3752216D01*
X8829726Y-3824526D02*
X8836438Y-3802901D01*
X22528388Y-4399781D02*
X22537028Y-4417867D01*
X9255000Y-14620000D02*
X8230000Y-12840000D01*
X17095000Y-3500000D02*
X22447544Y-4344515D01*
X22542438Y-4437457D02*
X22544318Y-4458190D01*
X22537028Y-4417867D02*
X22542438Y-4437457D01*
X22467711Y-4349678D02*
X22486187Y-4358147D01*
X22447544Y-4344515D02*
X22467711Y-4349678D01*
X9255000Y-14620000D02*
X9290000Y-14650000D01*
X13815413Y-13400000D02*
X18750000Y-13400000D01*
X8230000Y-12840000D02*
X8215000Y-12790000D01*
X8210000Y-12730000D02*
X8210000Y-12690000D01*
X9335000Y-14665000D02*
X9390000Y-14675000D01*
X8215000Y-12790000D02*
X8210000Y-12730000D01*
X9290000Y-14650000D02*
X9335000Y-14665000D01*
X22438639Y-11992865D02*
X18750000Y-13400000D01*
X22516832Y-4383558D02*
X22528388Y-4399781D01*
X22486187Y-4358147D02*
X22502662Y-4369560D01*
X14900000Y-3500000D02*
X17095000Y-3500000D01*
X22502662Y-4369560D02*
X22516832Y-4383558D01*
X13815413Y-13400000D02*
X9390000Y-14675000D01*
X22544318Y-4458190D02*
X22547018Y-11835000D01*
X22438637Y-11992859D02*
G75*
G03*
X22547018Y-11835000I-66657J161900D01*
G01*
X8827526Y-11440000D02*
X8827386Y-3847743D01*
X14900000Y-3500000D02*
X8942585Y-3732540D01*
X10943912Y-7800264D02*
X10953912Y-7840264D01*
X10953912Y-8490264D01*
X10943912Y-8520264D01*
X10923912Y-8540264D01*
X10123912Y-8540264D01*
X10103912Y-8520264D01*
X10093912Y-8490264D01*
X10093912Y-7840264D01*
X10103912Y-7800264D01*
X10133912Y-7780264D01*
X10913912Y-7780264D01*
X10943912Y-7800264D01*
D11*
D12*
X8953412Y-7465264D02*
X9043412Y-7555264D01*
X9043412Y-7465264D02*
X8953412Y-7555264D01*
X8953412Y-7465264D02*
X9043412Y-7555264D01*
X9043412Y-7465264D02*
X8953412Y-7555264D01*
X8953412Y-7765264D02*
X9043412Y-7855264D01*
X9043412Y-7765264D02*
X8953412Y-7855264D01*
X8953412Y-7765264D02*
X9043412Y-7855264D01*
X9043412Y-7765264D02*
X8953412Y-7855264D01*
D13*
X9823731Y-12677935D02*
G75*
G03*
X9823731Y-12677935I-50000J0D01*
G01*
X10345731Y-13582065D02*
G75*
G03*
X10345731Y-13582065I-50000J0D01*
G01*
X11197083Y-12569415D02*
G75*
G03*
X11197083Y-12569415I-50000J0D01*
G01*
X11583000Y-4580000D02*
G75*
G03*
X11583000Y-4580000I-50000J0D01*
G01*
X11583000Y-6490000D02*
G75*
G03*
X11583000Y-6490000I-50000J0D01*
G01*
X11583000Y-8390000D02*
G75*
G03*
X11583000Y-8390000I-50000J0D01*
G01*
X11583000Y-10295000D02*
G75*
G03*
X11583000Y-10295000I-50000J0D01*
G01*
X12205509Y-12299208D02*
G75*
G03*
X12205509Y-12299208I-50000J0D01*
G01*
X12627000Y-4580000D02*
G75*
G03*
X12627000Y-4580000I-50000J0D01*
G01*
X12627000Y-6490000D02*
G75*
G03*
X12627000Y-6490000I-50000J0D01*
G01*
X12627000Y-8390000D02*
G75*
G03*
X12627000Y-8390000I-50000J0D01*
G01*
X12627000Y-10295000D02*
G75*
G03*
X12627000Y-10295000I-50000J0D01*
G01*
X13488000Y-4330000D02*
G75*
G03*
X13488000Y-4330000I-50000J0D01*
G01*
X13488000Y-6235000D02*
G75*
G03*
X13488000Y-6235000I-50000J0D01*
G01*
X13488000Y-8140000D02*
G75*
G03*
X13488000Y-8140000I-50000J0D01*
G01*
X13488000Y-10045000D02*
G75*
G03*
X13488000Y-10045000I-50000J0D01*
G01*
X13488000Y-11950000D02*
G75*
G03*
X13488000Y-11950000I-50000J0D01*
G01*
X14532000Y-4330000D02*
G75*
G03*
X14532000Y-4330000I-50000J0D01*
G01*
X14532000Y-6235000D02*
G75*
G03*
X14532000Y-6235000I-50000J0D01*
G01*
X14532000Y-8140000D02*
G75*
G03*
X14532000Y-8140000I-50000J0D01*
G01*
X14532000Y-10045000D02*
G75*
G03*
X14532000Y-10045000I-50000J0D01*
G01*
X14532000Y-11950000D02*
G75*
G03*
X14532000Y-11950000I-50000J0D01*
G01*
X15393000Y-4080000D02*
G75*
G03*
X15393000Y-4080000I-50000J0D01*
G01*
X15393000Y-5985000D02*
G75*
G03*
X15393000Y-5985000I-50000J0D01*
G01*
X15393000Y-7890000D02*
G75*
G03*
X15393000Y-7890000I-50000J0D01*
G01*
X15393000Y-9795000D02*
G75*
G03*
X15393000Y-9795000I-50000J0D01*
G01*
X15393000Y-11700000D02*
G75*
G03*
X15393000Y-11700000I-50000J0D01*
G01*
X16437000Y-4080000D02*
G75*
G03*
X16437000Y-4080000I-50000J0D01*
G01*
X16437000Y-5985000D02*
G75*
G03*
X16437000Y-5985000I-50000J0D01*
G01*
X16437000Y-7890000D02*
G75*
G03*
X16437000Y-7890000I-50000J0D01*
G01*
X16437000Y-9795000D02*
G75*
G03*
X16437000Y-9795000I-50000J0D01*
G01*
X16437000Y-11700000D02*
G75*
G03*
X16437000Y-11700000I-50000J0D01*
G01*
X17298000Y-4330000D02*
G75*
G03*
X17298000Y-4330000I-50000J0D01*
G01*
X17298000Y-6235000D02*
G75*
G03*
X17298000Y-6235000I-50000J0D01*
G01*
X17298000Y-8140000D02*
G75*
G03*
X17298000Y-8140000I-50000J0D01*
G01*
X17298000Y-10045000D02*
G75*
G03*
X17298000Y-10045000I-50000J0D01*
G01*
X17298000Y-11950000D02*
G75*
G03*
X17298000Y-11950000I-50000J0D01*
G01*
X18342000Y-4330000D02*
G75*
G03*
X18342000Y-4330000I-50000J0D01*
G01*
X18342000Y-6235000D02*
G75*
G03*
X18342000Y-6235000I-50000J0D01*
G01*
X18342000Y-8140000D02*
G75*
G03*
X18342000Y-8140000I-50000J0D01*
G01*
X18342000Y-10045000D02*
G75*
G03*
X18342000Y-10045000I-50000J0D01*
G01*
X18342000Y-11950000D02*
G75*
G03*
X18342000Y-11950000I-50000J0D01*
G01*
X19203000Y-4820000D02*
G75*
G03*
X19203000Y-4820000I-50000J0D01*
G01*
X19203000Y-6725000D02*
G75*
G03*
X19203000Y-6725000I-50000J0D01*
G01*
X19203000Y-8630000D02*
G75*
G03*
X19203000Y-8630000I-50000J0D01*
G01*
X19203000Y-10535000D02*
G75*
G03*
X19203000Y-10535000I-50000J0D01*
G01*
X20247000Y-4820000D02*
G75*
G03*
X20247000Y-4820000I-50000J0D01*
G01*
X20247000Y-6725000D02*
G75*
G03*
X20247000Y-6725000I-50000J0D01*
G01*
X20247000Y-8630000D02*
G75*
G03*
X20247000Y-8630000I-50000J0D01*
G01*
X20247000Y-10535000D02*
G75*
G03*
X20247000Y-10535000I-50000J0D01*
G01*
X21108000Y-4820000D02*
G75*
G03*
X21108000Y-4820000I-50000J0D01*
G01*
X21108000Y-6725000D02*
G75*
G03*
X21108000Y-6725000I-50000J0D01*
G01*
X21108000Y-8630000D02*
G75*
G03*
X21108000Y-8630000I-50000J0D01*
G01*
X21108000Y-10535000D02*
G75*
G03*
X21108000Y-10535000I-50000J0D01*
G01*
X22152000Y-4820000D02*
G75*
G03*
X22152000Y-4820000I-50000J0D01*
G01*
X22152000Y-6725000D02*
G75*
G03*
X22152000Y-6725000I-50000J0D01*
G01*
X22152000Y-8630000D02*
G75*
G03*
X22152000Y-8630000I-50000J0D01*
G01*
X22152000Y-10535000D02*
G75*
G03*
X22152000Y-10535000I-50000J0D01*
G01*
D14*
X9396000Y-12773686D02*
X9396000Y-12953686D01*
X9306000Y-12863686D02*
X9486000Y-12863686D01*
X9946000Y-13726314D02*
X9946000Y-13906314D01*
X9856000Y-13816314D02*
X10036000Y-13816314D01*
X11228741Y-12892350D02*
X11228741Y-13072350D01*
X11138741Y-12982350D02*
X11318741Y-12982350D01*
X11505000Y-4910000D02*
X11505000Y-5090000D01*
X11415000Y-5000000D02*
X11595000Y-5000000D01*
X11505000Y-6820000D02*
X11505000Y-7000000D01*
X11415000Y-6910000D02*
X11595000Y-6910000D01*
X11505000Y-8720000D02*
X11505000Y-8900000D01*
X11415000Y-8810000D02*
X11595000Y-8810000D01*
X11505000Y-10625000D02*
X11505000Y-10805000D01*
X11415000Y-10715000D02*
X11595000Y-10715000D01*
X12291259Y-12607649D02*
X12291259Y-12787649D01*
X12201259Y-12697649D02*
X12381259Y-12697649D01*
X12605000Y-4910000D02*
X12605000Y-5090000D01*
X12515000Y-5000000D02*
X12695000Y-5000000D01*
X12605000Y-6820000D02*
X12605000Y-7000000D01*
X12515000Y-6910000D02*
X12695000Y-6910000D01*
X12605000Y-8720000D02*
X12605000Y-8900000D01*
X12515000Y-8810000D02*
X12695000Y-8810000D01*
X12605000Y-10625000D02*
X12605000Y-10805000D01*
X12515000Y-10715000D02*
X12695000Y-10715000D01*
X13410000Y-4660000D02*
X13410000Y-4840000D01*
X13320000Y-4750000D02*
X13500000Y-4750000D01*
X13410000Y-6565000D02*
X13410000Y-6745000D01*
X13320000Y-6655000D02*
X13500000Y-6655000D01*
X13410000Y-8470000D02*
X13410000Y-8650000D01*
X13320000Y-8560000D02*
X13500000Y-8560000D01*
X13410000Y-10375000D02*
X13410000Y-10555000D01*
X13320000Y-10465000D02*
X13500000Y-10465000D01*
X13410000Y-12280000D02*
X13410000Y-12460000D01*
X13320000Y-12370000D02*
X13500000Y-12370000D01*
X14510000Y-4660000D02*
X14510000Y-4840000D01*
X14420000Y-4750000D02*
X14600000Y-4750000D01*
X14510000Y-6565000D02*
X14510000Y-6745000D01*
X14420000Y-6655000D02*
X14600000Y-6655000D01*
X14510000Y-8470000D02*
X14510000Y-8650000D01*
X14420000Y-8560000D02*
X14600000Y-8560000D01*
X14510000Y-10375000D02*
X14510000Y-10555000D01*
X14420000Y-10465000D02*
X14600000Y-10465000D01*
X14510000Y-12280000D02*
X14510000Y-12460000D01*
X14420000Y-12370000D02*
X14600000Y-12370000D01*
X15315000Y-4410000D02*
X15315000Y-4590000D01*
X15225000Y-4500000D02*
X15405000Y-4500000D01*
X15315000Y-6315000D02*
X15315000Y-6495000D01*
X15225000Y-6405000D02*
X15405000Y-6405000D01*
X15315000Y-8220000D02*
X15315000Y-8400000D01*
X15225000Y-8310000D02*
X15405000Y-8310000D01*
X15315000Y-10125000D02*
X15315000Y-10305000D01*
X15225000Y-10215000D02*
X15405000Y-10215000D01*
X15315000Y-12030000D02*
X15315000Y-12210000D01*
X15225000Y-12120000D02*
X15405000Y-12120000D01*
X16415000Y-4410000D02*
X16415000Y-4590000D01*
X16325000Y-4500000D02*
X16505000Y-4500000D01*
X16415000Y-6315000D02*
X16415000Y-6495000D01*
X16325000Y-6405000D02*
X16505000Y-6405000D01*
X16415000Y-8220000D02*
X16415000Y-8400000D01*
X16325000Y-8310000D02*
X16505000Y-8310000D01*
X16415000Y-10125000D02*
X16415000Y-10305000D01*
X16325000Y-10215000D02*
X16505000Y-10215000D01*
X16415000Y-12030000D02*
X16415000Y-12210000D01*
X16325000Y-12120000D02*
X16505000Y-12120000D01*
X17220000Y-4660000D02*
X17220000Y-4840000D01*
X17130000Y-4750000D02*
X17310000Y-4750000D01*
X17220000Y-6565000D02*
X17220000Y-6745000D01*
X17130000Y-6655000D02*
X17310000Y-6655000D01*
X17220000Y-8470000D02*
X17220000Y-8650000D01*
X17130000Y-8560000D02*
X17310000Y-8560000D01*
X17220000Y-10375000D02*
X17220000Y-10555000D01*
X17130000Y-10465000D02*
X17310000Y-10465000D01*
X17220000Y-12280000D02*
X17220000Y-12460000D01*
X17130000Y-12370000D02*
X17310000Y-12370000D01*
X18320000Y-4660000D02*
X18320000Y-4840000D01*
X18230000Y-4750000D02*
X18410000Y-4750000D01*
X18320000Y-6565000D02*
X18320000Y-6745000D01*
X18230000Y-6655000D02*
X18410000Y-6655000D01*
X18320000Y-8470000D02*
X18320000Y-8650000D01*
X18230000Y-8560000D02*
X18410000Y-8560000D01*
X18320000Y-10375000D02*
X18320000Y-10555000D01*
X18230000Y-10465000D02*
X18410000Y-10465000D01*
X18320000Y-12280000D02*
X18320000Y-12460000D01*
X18230000Y-12370000D02*
X18410000Y-12370000D01*
X19125000Y-5150000D02*
X19125000Y-5330000D01*
X19035000Y-5240000D02*
X19215000Y-5240000D01*
X19125000Y-7055000D02*
X19125000Y-7235000D01*
X19035000Y-7145000D02*
X19215000Y-7145000D01*
X19125000Y-8960000D02*
X19125000Y-9140000D01*
X19035000Y-9050000D02*
X19215000Y-9050000D01*
X19125000Y-10865000D02*
X19125000Y-11045000D01*
X19035000Y-10955000D02*
X19215000Y-10955000D01*
X20225000Y-5150000D02*
X20225000Y-5330000D01*
X20135000Y-5240000D02*
X20315000Y-5240000D01*
X20225000Y-7055000D02*
X20225000Y-7235000D01*
X20135000Y-7145000D02*
X20315000Y-7145000D01*
X20225000Y-8960000D02*
X20225000Y-9140000D01*
X20135000Y-9050000D02*
X20315000Y-9050000D01*
X20225000Y-10865000D02*
X20225000Y-11045000D01*
X20135000Y-10955000D02*
X20315000Y-10955000D01*
X21030000Y-5150000D02*
X21030000Y-5330000D01*
X20940000Y-5240000D02*
X21120000Y-5240000D01*
X21030000Y-7055000D02*
X21030000Y-7235000D01*
X20940000Y-7145000D02*
X21120000Y-7145000D01*
X21030000Y-8960000D02*
X21030000Y-9140000D01*
X20940000Y-9050000D02*
X21120000Y-9050000D01*
X21030000Y-10865000D02*
X21030000Y-11045000D01*
X20940000Y-10955000D02*
X21120000Y-10955000D01*
X22130000Y-5150000D02*
X22130000Y-5330000D01*
X22040000Y-5240000D02*
X22220000Y-5240000D01*
X22130000Y-7055000D02*
X22130000Y-7235000D01*
X22040000Y-7145000D02*
X22220000Y-7145000D01*
X22130000Y-8960000D02*
X22130000Y-9140000D01*
X22040000Y-9050000D02*
X22220000Y-9050000D01*
X22130000Y-10865000D02*
X22130000Y-11045000D01*
X22040000Y-10955000D02*
X22220000Y-10955000D01*
D15*
X9206638Y-13198054D02*
X9206638Y-12985920D01*
X8994504Y-12985920D01*
X8994504Y-13198054D01*
X9206638Y-13198054D01*
X9266112Y-13741067D02*
X9266112Y-13528933D01*
X9053978Y-13528933D01*
X9053978Y-13741067D01*
X9266112Y-13741067D01*
X9706638Y-14064080D02*
X9706638Y-13851946D01*
X9494504Y-13851946D01*
X9494504Y-14064080D01*
X9706638Y-14064080D01*
X11478867Y-13432869D02*
X11478867Y-13220735D01*
X11266733Y-13220735D01*
X11266733Y-13432869D01*
X11478867Y-13432869D01*
X11661067Y-5476067D02*
X11661067Y-5263933D01*
X11448933Y-5263933D01*
X11448933Y-5476067D01*
X11661067Y-5476067D01*
X11661067Y-7386067D02*
X11661067Y-7173933D01*
X11448933Y-7173933D01*
X11448933Y-7386067D01*
X11661067Y-7386067D01*
X11661067Y-9286067D02*
X11661067Y-9073933D01*
X11448933Y-9073933D01*
X11448933Y-9286067D01*
X11661067Y-9286067D01*
X11661067Y-11191067D02*
X11661067Y-10978933D01*
X11448933Y-10978933D01*
X11448933Y-11191067D01*
X11661067Y-11191067D01*
X12018770Y-13515963D02*
X12018770Y-13303829D01*
X11806636Y-13303829D01*
X11806636Y-13515963D01*
X12018770Y-13515963D01*
X12161067Y-5696067D02*
X12161067Y-5483933D01*
X11948933Y-5483933D01*
X11948933Y-5696067D01*
X12161067Y-5696067D01*
X12161067Y-7606067D02*
X12161067Y-7393933D01*
X11948933Y-7393933D01*
X11948933Y-7606067D01*
X12161067Y-7606067D01*
X12161067Y-9506067D02*
X12161067Y-9293933D01*
X11948933Y-9293933D01*
X11948933Y-9506067D01*
X12161067Y-9506067D01*
X12161067Y-11411067D02*
X12161067Y-11198933D01*
X11948933Y-11198933D01*
X11948933Y-11411067D01*
X12161067Y-11411067D01*
X12444793Y-13174050D02*
X12444793Y-12961916D01*
X12232659Y-12961916D01*
X12232659Y-13174050D01*
X12444793Y-13174050D01*
X12661067Y-5476067D02*
X12661067Y-5263933D01*
X12448933Y-5263933D01*
X12448933Y-5476067D01*
X12661067Y-5476067D01*
X12661067Y-7386067D02*
X12661067Y-7173933D01*
X12448933Y-7173933D01*
X12448933Y-7386067D01*
X12661067Y-7386067D01*
X12661067Y-9286067D02*
X12661067Y-9073933D01*
X12448933Y-9073933D01*
X12448933Y-9286067D01*
X12661067Y-9286067D01*
X12661067Y-11191067D02*
X12661067Y-10978933D01*
X12448933Y-10978933D01*
X12448933Y-11191067D01*
X12661067Y-11191067D01*
X13566067Y-5226067D02*
X13566067Y-5013933D01*
X13353933Y-5013933D01*
X13353933Y-5226067D01*
X13566067Y-5226067D01*
X13566067Y-7131067D02*
X13566067Y-6918933D01*
X13353933Y-6918933D01*
X13353933Y-7131067D01*
X13566067Y-7131067D01*
X13566067Y-9036067D02*
X13566067Y-8823933D01*
X13353933Y-8823933D01*
X13353933Y-9036067D01*
X13566067Y-9036067D01*
X13566067Y-10941067D02*
X13566067Y-10728933D01*
X13353933Y-10728933D01*
X13353933Y-10941067D01*
X13566067Y-10941067D01*
X13566067Y-12846067D02*
X13566067Y-12633933D01*
X13353933Y-12633933D01*
X13353933Y-12846067D01*
X13566067Y-12846067D01*
X14066067Y-5446067D02*
X14066067Y-5233933D01*
X13853933Y-5233933D01*
X13853933Y-5446067D01*
X14066067Y-5446067D01*
X14066067Y-7351067D02*
X14066067Y-7138933D01*
X13853933Y-7138933D01*
X13853933Y-7351067D01*
X14066067Y-7351067D01*
X14066067Y-9256067D02*
X14066067Y-9043933D01*
X13853933Y-9043933D01*
X13853933Y-9256067D01*
X14066067Y-9256067D01*
X14066067Y-11161067D02*
X14066067Y-10948933D01*
X13853933Y-10948933D01*
X13853933Y-11161067D01*
X14066067Y-11161067D01*
X14066067Y-13066067D02*
X14066067Y-12853933D01*
X13853933Y-12853933D01*
X13853933Y-13066067D01*
X14066067Y-13066067D01*
X14566067Y-5226067D02*
X14566067Y-5013933D01*
X14353933Y-5013933D01*
X14353933Y-5226067D01*
X14566067Y-5226067D01*
X14566067Y-7131067D02*
X14566067Y-6918933D01*
X14353933Y-6918933D01*
X14353933Y-7131067D01*
X14566067Y-7131067D01*
X14566067Y-9036067D02*
X14566067Y-8823933D01*
X14353933Y-8823933D01*
X14353933Y-9036067D01*
X14566067Y-9036067D01*
X14566067Y-10941067D02*
X14566067Y-10728933D01*
X14353933Y-10728933D01*
X14353933Y-10941067D01*
X14566067Y-10941067D01*
X14566067Y-12846067D02*
X14566067Y-12633933D01*
X14353933Y-12633933D01*
X14353933Y-12846067D01*
X14566067Y-12846067D01*
X15471067Y-4976067D02*
X15471067Y-4763933D01*
X15258933Y-4763933D01*
X15258933Y-4976067D01*
X15471067Y-4976067D01*
X15471067Y-6881067D02*
X15471067Y-6668933D01*
X15258933Y-6668933D01*
X15258933Y-6881067D01*
X15471067Y-6881067D01*
X15471067Y-8786067D02*
X15471067Y-8573933D01*
X15258933Y-8573933D01*
X15258933Y-8786067D01*
X15471067Y-8786067D01*
X15471067Y-10691067D02*
X15471067Y-10478933D01*
X15258933Y-10478933D01*
X15258933Y-10691067D01*
X15471067Y-10691067D01*
X15471067Y-12596067D02*
X15471067Y-12383933D01*
X15258933Y-12383933D01*
X15258933Y-12596067D01*
X15471067Y-12596067D01*
X15971067Y-5196067D02*
X15971067Y-4983933D01*
X15758933Y-4983933D01*
X15758933Y-5196067D01*
X15971067Y-5196067D01*
X15971067Y-7101067D02*
X15971067Y-6888933D01*
X15758933Y-6888933D01*
X15758933Y-7101067D01*
X15971067Y-7101067D01*
X15971067Y-9006067D02*
X15971067Y-8793933D01*
X15758933Y-8793933D01*
X15758933Y-9006067D01*
X15971067Y-9006067D01*
X15971067Y-10911067D02*
X15971067Y-10698933D01*
X15758933Y-10698933D01*
X15758933Y-10911067D01*
X15971067Y-10911067D01*
X15971067Y-12816067D02*
X15971067Y-12603933D01*
X15758933Y-12603933D01*
X15758933Y-12816067D01*
X15971067Y-12816067D01*
X16471067Y-4976067D02*
X16471067Y-4763933D01*
X16258933Y-4763933D01*
X16258933Y-4976067D01*
X16471067Y-4976067D01*
X16471067Y-6881067D02*
X16471067Y-6668933D01*
X16258933Y-6668933D01*
X16258933Y-6881067D01*
X16471067Y-6881067D01*
X16471067Y-8786067D02*
X16471067Y-8573933D01*
X16258933Y-8573933D01*
X16258933Y-8786067D01*
X16471067Y-8786067D01*
X16471067Y-10691067D02*
X16471067Y-10478933D01*
X16258933Y-10478933D01*
X16258933Y-10691067D01*
X16471067Y-10691067D01*
X16471067Y-12596067D02*
X16471067Y-12383933D01*
X16258933Y-12383933D01*
X16258933Y-12596067D01*
X16471067Y-12596067D01*
X17376067Y-5226067D02*
X17376067Y-5013933D01*
X17163933Y-5013933D01*
X17163933Y-5226067D01*
X17376067Y-5226067D01*
X17376067Y-7131067D02*
X17376067Y-6918933D01*
X17163933Y-6918933D01*
X17163933Y-7131067D01*
X17376067Y-7131067D01*
X17376067Y-9036067D02*
X17376067Y-8823933D01*
X17163933Y-8823933D01*
X17163933Y-9036067D01*
X17376067Y-9036067D01*
X17376067Y-10941067D02*
X17376067Y-10728933D01*
X17163933Y-10728933D01*
X17163933Y-10941067D01*
X17376067Y-10941067D01*
X17376067Y-12846067D02*
X17376067Y-12633933D01*
X17163933Y-12633933D01*
X17163933Y-12846067D01*
X17376067Y-12846067D01*
X17876067Y-5446067D02*
X17876067Y-5233933D01*
X17663933Y-5233933D01*
X17663933Y-5446067D01*
X17876067Y-5446067D01*
X17876067Y-7351067D02*
X17876067Y-7138933D01*
X17663933Y-7138933D01*
X17663933Y-7351067D01*
X17876067Y-7351067D01*
X17876067Y-9256067D02*
X17876067Y-9043933D01*
X17663933Y-9043933D01*
X17663933Y-9256067D01*
X17876067Y-9256067D01*
X17876067Y-11161067D02*
X17876067Y-10948933D01*
X17663933Y-10948933D01*
X17663933Y-11161067D01*
X17876067Y-11161067D01*
X17876067Y-13066067D02*
X17876067Y-12853933D01*
X17663933Y-12853933D01*
X17663933Y-13066067D01*
X17876067Y-13066067D01*
X18376067Y-5226067D02*
X18376067Y-5013933D01*
X18163933Y-5013933D01*
X18163933Y-5226067D01*
X18376067Y-5226067D01*
X18376067Y-7131067D02*
X18376067Y-6918933D01*
X18163933Y-6918933D01*
X18163933Y-7131067D01*
X18376067Y-7131067D01*
X18376067Y-9036067D02*
X18376067Y-8823933D01*
X18163933Y-8823933D01*
X18163933Y-9036067D01*
X18376067Y-9036067D01*
X18376067Y-10941067D02*
X18376067Y-10728933D01*
X18163933Y-10728933D01*
X18163933Y-10941067D01*
X18376067Y-10941067D01*
X18376067Y-12846067D02*
X18376067Y-12633933D01*
X18163933Y-12633933D01*
X18163933Y-12846067D01*
X18376067Y-12846067D01*
X19281067Y-5716067D02*
X19281067Y-5503933D01*
X19068933Y-5503933D01*
X19068933Y-5716067D01*
X19281067Y-5716067D01*
X19281067Y-7621067D02*
X19281067Y-7408933D01*
X19068933Y-7408933D01*
X19068933Y-7621067D01*
X19281067Y-7621067D01*
X19281067Y-9526067D02*
X19281067Y-9313933D01*
X19068933Y-9313933D01*
X19068933Y-9526067D01*
X19281067Y-9526067D01*
X19281067Y-11431067D02*
X19281067Y-11218933D01*
X19068933Y-11218933D01*
X19068933Y-11431067D01*
X19281067Y-11431067D01*
X19781067Y-5936067D02*
X19781067Y-5723933D01*
X19568933Y-5723933D01*
X19568933Y-5936067D01*
X19781067Y-5936067D01*
X19781067Y-7841067D02*
X19781067Y-7628933D01*
X19568933Y-7628933D01*
X19568933Y-7841067D01*
X19781067Y-7841067D01*
X19781067Y-9746067D02*
X19781067Y-9533933D01*
X19568933Y-9533933D01*
X19568933Y-9746067D01*
X19781067Y-9746067D01*
X19781067Y-11651067D02*
X19781067Y-11438933D01*
X19568933Y-11438933D01*
X19568933Y-11651067D01*
X19781067Y-11651067D01*
X20281067Y-5716067D02*
X20281067Y-5503933D01*
X20068933Y-5503933D01*
X20068933Y-5716067D01*
X20281067Y-5716067D01*
X20281067Y-7621067D02*
X20281067Y-7408933D01*
X20068933Y-7408933D01*
X20068933Y-7621067D01*
X20281067Y-7621067D01*
X20281067Y-9526067D02*
X20281067Y-9313933D01*
X20068933Y-9313933D01*
X20068933Y-9526067D01*
X20281067Y-9526067D01*
X20281067Y-11431067D02*
X20281067Y-11218933D01*
X20068933Y-11218933D01*
X20068933Y-11431067D01*
X20281067Y-11431067D01*
X21186067Y-5716067D02*
X21186067Y-5503933D01*
X20973933Y-5503933D01*
X20973933Y-5716067D01*
X21186067Y-5716067D01*
X21186067Y-7621067D02*
X21186067Y-7408933D01*
X20973933Y-7408933D01*
X20973933Y-7621067D01*
X21186067Y-7621067D01*
X21186067Y-9526067D02*
X21186067Y-9313933D01*
X20973933Y-9313933D01*
X20973933Y-9526067D01*
X21186067Y-9526067D01*
X21186067Y-11431067D02*
X21186067Y-11218933D01*
X20973933Y-11218933D01*
X20973933Y-11431067D01*
X21186067Y-11431067D01*
X21686067Y-5936067D02*
X21686067Y-5723933D01*
X21473933Y-5723933D01*
X21473933Y-5936067D01*
X21686067Y-5936067D01*
X21686067Y-7841067D02*
X21686067Y-7628933D01*
X21473933Y-7628933D01*
X21473933Y-7841067D01*
X21686067Y-7841067D01*
X21686067Y-9746067D02*
X21686067Y-9533933D01*
X21473933Y-9533933D01*
X21473933Y-9746067D01*
X21686067Y-9746067D01*
X21686067Y-11651067D02*
X21686067Y-11438933D01*
X21473933Y-11438933D01*
X21473933Y-11651067D01*
X21686067Y-11651067D01*
X22186067Y-5716067D02*
X22186067Y-5503933D01*
X21973933Y-5503933D01*
X21973933Y-5716067D01*
X22186067Y-5716067D01*
X22186067Y-7621067D02*
X22186067Y-7408933D01*
X21973933Y-7408933D01*
X21973933Y-7621067D01*
X22186067Y-7621067D01*
X22186067Y-9526067D02*
X22186067Y-9313933D01*
X21973933Y-9313933D01*
X21973933Y-9526067D01*
X22186067Y-9526067D01*
X22186067Y-11431067D02*
X22186067Y-11218933D01*
X21973933Y-11218933D01*
X21973933Y-11431067D01*
X22186067Y-11431067D01*
D16*
X9671000Y-13510000D02*
X9841000Y-13340000D01*
X9671000Y-13170000D01*
X9501000Y-13340000D01*
X9671000Y-13510000D01*
X9910220Y-10885000D02*
X10080220Y-10715000D01*
X9910220Y-10545000D01*
X9740220Y-10715000D01*
X9910220Y-10885000D01*
X11760000Y-13010000D02*
X11930000Y-12840000D01*
X11760000Y-12670000D01*
X11590000Y-12840000D01*
X11760000Y-13010000D01*
X12055000Y-5170000D02*
X12225000Y-5000000D01*
X12055000Y-4830000D01*
X11885000Y-5000000D01*
X12055000Y-5170000D01*
X12055000Y-7080000D02*
X12225000Y-6910000D01*
X12055000Y-6740000D01*
X11885000Y-6910000D01*
X12055000Y-7080000D01*
X12055000Y-8980000D02*
X12225000Y-8810000D01*
X12055000Y-8640000D01*
X11885000Y-8810000D01*
X12055000Y-8980000D01*
X12055000Y-10885000D02*
X12225000Y-10715000D01*
X12055000Y-10545000D01*
X11885000Y-10715000D01*
X12055000Y-10885000D01*
X13960000Y-4920000D02*
X14130000Y-4750000D01*
X13960000Y-4580000D01*
X13790000Y-4750000D01*
X13960000Y-4920000D01*
X13960000Y-6825000D02*
X14130000Y-6655000D01*
X13960000Y-6485000D01*
X13790000Y-6655000D01*
X13960000Y-6825000D01*
X13960000Y-8730000D02*
X14130000Y-8560000D01*
X13960000Y-8390000D01*
X13790000Y-8560000D01*
X13960000Y-8730000D01*
X13960000Y-10635000D02*
X14130000Y-10465000D01*
X13960000Y-10295000D01*
X13790000Y-10465000D01*
X13960000Y-10635000D01*
X13960000Y-12540000D02*
X14130000Y-12370000D01*
X13960000Y-12200000D01*
X13790000Y-12370000D01*
X13960000Y-12540000D01*
X15865000Y-4670000D02*
X16035000Y-4500000D01*
X15865000Y-4330000D01*
X15695000Y-4500000D01*
X15865000Y-4670000D01*
X15865000Y-6575000D02*
X16035000Y-6405000D01*
X15865000Y-6235000D01*
X15695000Y-6405000D01*
X15865000Y-6575000D01*
X15865000Y-8480000D02*
X16035000Y-8310000D01*
X15865000Y-8140000D01*
X15695000Y-8310000D01*
X15865000Y-8480000D01*
X15865000Y-10385000D02*
X16035000Y-10215000D01*
X15865000Y-10045000D01*
X15695000Y-10215000D01*
X15865000Y-10385000D01*
X15865000Y-12290000D02*
X16035000Y-12120000D01*
X15865000Y-11950000D01*
X15695000Y-12120000D01*
X15865000Y-12290000D01*
X17770000Y-4920000D02*
X17940000Y-4750000D01*
X17770000Y-4580000D01*
X17600000Y-4750000D01*
X17770000Y-4920000D01*
X17770000Y-6825000D02*
X17940000Y-6655000D01*
X17770000Y-6485000D01*
X17600000Y-6655000D01*
X17770000Y-6825000D01*
X17770000Y-8730000D02*
X17940000Y-8560000D01*
X17770000Y-8390000D01*
X17600000Y-8560000D01*
X17770000Y-8730000D01*
X17770000Y-10635000D02*
X17940000Y-10465000D01*
X17770000Y-10295000D01*
X17600000Y-10465000D01*
X17770000Y-10635000D01*
X17770000Y-12540000D02*
X17940000Y-12370000D01*
X17770000Y-12200000D01*
X17600000Y-12370000D01*
X17770000Y-12540000D01*
X19675000Y-5410000D02*
X19845000Y-5240000D01*
X19675000Y-5070000D01*
X19505000Y-5240000D01*
X19675000Y-5410000D01*
X19675000Y-7315000D02*
X19845000Y-7145000D01*
X19675000Y-6975000D01*
X19505000Y-7145000D01*
X19675000Y-7315000D01*
X19675000Y-9220000D02*
X19845000Y-9050000D01*
X19675000Y-8880000D01*
X19505000Y-9050000D01*
X19675000Y-9220000D01*
X19675000Y-11125000D02*
X19845000Y-10955000D01*
X19675000Y-10785000D01*
X19505000Y-10955000D01*
X19675000Y-11125000D01*
X21580000Y-5410000D02*
X21750000Y-5240000D01*
X21580000Y-5070000D01*
X21410000Y-5240000D01*
X21580000Y-5410000D01*
X21580000Y-7315000D02*
X21750000Y-7145000D01*
X21580000Y-6975000D01*
X21410000Y-7145000D01*
X21580000Y-7315000D01*
X21580000Y-9220000D02*
X21750000Y-9050000D01*
X21580000Y-8880000D01*
X21410000Y-9050000D01*
X21580000Y-9220000D01*
X21580000Y-11125000D02*
X21750000Y-10955000D01*
X21580000Y-10785000D01*
X21410000Y-10955000D01*
X21580000Y-11125000D01*
D17*
X10095000Y-11695000D02*
X10505000Y-12105000D01*
X10505000Y-11695000D02*
X10095000Y-12105000D01*
X10505000Y-11900000D02*
G75*
G03*
X10505000Y-11900000I-205000J0D01*
G01*
X12832512Y-9380264D02*
X13242512Y-9790264D01*
X13242512Y-9380264D02*
X12832512Y-9790264D01*
X13242512Y-9585264D02*
G75*
G03*
X13242512Y-9585264I-205000J0D01*
G01*
X12847712Y-5552364D02*
X13257712Y-5962364D01*
X13257712Y-5552364D02*
X12847712Y-5962364D01*
X13257712Y-5757364D02*
G75*
G03*
X13257712Y-5757364I-205000J0D01*
G01*
X20395000Y-5945000D02*
X20805000Y-6355000D01*
X20805000Y-5945000D02*
X20395000Y-6355000D01*
X20805000Y-6150000D02*
G75*
G03*
X20805000Y-6150000I-205000J0D01*
G01*
X20395000Y-9795000D02*
X20805000Y-10205000D01*
X20805000Y-9795000D02*
X20395000Y-10205000D01*
X20805000Y-10000000D02*
G75*
G03*
X20805000Y-10000000I-205000J0D01*
G01*
D11*
X8462619Y-14990476D02*
X8462619Y-14790476D01*
X8510238Y-14790476D01*
X8538810Y-14800000D01*
X8557857Y-14819048D01*
X8567381Y-14838095D01*
X8576905Y-14876190D01*
X8576905Y-14904762D01*
X8567381Y-14942857D01*
X8557857Y-14961905D01*
X8538810Y-14980952D01*
X8510238Y-14990476D01*
X8462619Y-14990476D01*
X8662619Y-14990476D02*
X8662619Y-14857143D01*
X8662619Y-14895238D02*
X8672143Y-14876190D01*
X8681667Y-14866667D01*
X8700714Y-14857143D01*
X8719762Y-14857143D01*
X8786429Y-14990476D02*
X8786429Y-14857143D01*
X8786429Y-14790476D02*
X8776905Y-14800000D01*
X8786429Y-14809524D01*
X8795952Y-14800000D01*
X8786429Y-14790476D01*
X8786429Y-14809524D01*
X8910238Y-14990476D02*
X8891190Y-14980952D01*
X8881667Y-14961905D01*
X8881667Y-14790476D01*
X9015000Y-14990476D02*
X8995952Y-14980952D01*
X8986429Y-14961905D01*
X8986429Y-14790476D01*
X9243571Y-14990476D02*
X9243571Y-14790476D01*
X9310238Y-14933333D01*
X9376905Y-14790476D01*
X9376905Y-14990476D01*
X9557857Y-14990476D02*
X9557857Y-14885714D01*
X9548333Y-14866667D01*
X9529286Y-14857143D01*
X9491190Y-14857143D01*
X9472143Y-14866667D01*
X9557857Y-14980952D02*
X9538810Y-14990476D01*
X9491190Y-14990476D01*
X9472143Y-14980952D01*
X9462619Y-14961905D01*
X9462619Y-14942857D01*
X9472143Y-14923809D01*
X9491190Y-14914286D01*
X9538810Y-14914286D01*
X9557857Y-14904762D01*
X9653095Y-14857143D02*
X9653095Y-15057143D01*
X9653095Y-14866667D02*
X9672143Y-14857143D01*
X9710238Y-14857143D01*
X9729286Y-14866667D01*
X9738810Y-14876190D01*
X9748333Y-14895238D01*
X9748333Y-14952381D01*
X9738810Y-14971428D01*
X9729286Y-14980952D01*
X9710238Y-14990476D01*
X9672143Y-14990476D01*
X9653095Y-14980952D01*
X9834048Y-14971428D02*
X9843571Y-14980952D01*
X9834048Y-14990476D01*
X9824524Y-14980952D01*
X9834048Y-14971428D01*
X9834048Y-14990476D01*
X9834048Y-14866667D02*
X9843571Y-14876190D01*
X9834048Y-14885714D01*
X9824524Y-14876190D01*
X9834048Y-14866667D01*
X9834048Y-14885714D01*
D12*
X8115000Y-15275000D02*
X8205000Y-15365000D01*
X8205000Y-15275000D02*
X8115000Y-15365000D01*
D11*
X8500714Y-15210476D02*
X8519762Y-15210476D01*
X8538810Y-15220000D01*
X8548333Y-15229524D01*
X8557857Y-15248571D01*
X8567381Y-15286667D01*
X8567381Y-15334286D01*
X8557857Y-15372381D01*
X8548333Y-15391428D01*
X8538810Y-15400952D01*
X8519762Y-15410476D01*
X8500714Y-15410476D01*
X8481667Y-15400952D01*
X8472143Y-15391428D01*
X8462619Y-15372381D01*
X8453095Y-15334286D01*
X8453095Y-15286667D01*
X8462619Y-15248571D01*
X8472143Y-15229524D01*
X8481667Y-15220000D01*
X8500714Y-15210476D01*
X8653095Y-15391428D02*
X8662619Y-15400952D01*
X8653095Y-15410476D01*
X8643571Y-15400952D01*
X8653095Y-15391428D01*
X8653095Y-15410476D01*
X8757857Y-15410476D02*
X8795952Y-15410476D01*
X8815000Y-15400952D01*
X8824524Y-15391428D01*
X8843571Y-15362857D01*
X8853095Y-15324762D01*
X8853095Y-15248571D01*
X8843571Y-15229524D01*
X8834048Y-15220000D01*
X8815000Y-15210476D01*
X8776905Y-15210476D01*
X8757857Y-15220000D01*
X8748333Y-15229524D01*
X8738810Y-15248571D01*
X8738810Y-15296190D01*
X8748333Y-15315238D01*
X8757857Y-15324762D01*
X8776905Y-15334286D01*
X8815000Y-15334286D01*
X8834048Y-15324762D01*
X8843571Y-15315238D01*
X8853095Y-15296190D01*
X8976905Y-15210476D02*
X8995952Y-15210476D01*
X9015000Y-15220000D01*
X9024524Y-15229524D01*
X9034048Y-15248571D01*
X9043571Y-15286667D01*
X9043571Y-15334286D01*
X9034048Y-15372381D01*
X9024524Y-15391428D01*
X9015000Y-15400952D01*
X8995952Y-15410476D01*
X8976905Y-15410476D01*
X8957857Y-15400952D01*
X8948333Y-15391428D01*
X8938810Y-15372381D01*
X8929286Y-15334286D01*
X8929286Y-15286667D01*
X8938810Y-15248571D01*
X8948333Y-15229524D01*
X8957857Y-15220000D01*
X8976905Y-15210476D01*
X9167381Y-15210476D02*
X9186429Y-15210476D01*
X9205476Y-15220000D01*
X9215000Y-15229524D01*
X9224524Y-15248571D01*
X9234048Y-15286667D01*
X9234048Y-15334286D01*
X9224524Y-15372381D01*
X9215000Y-15391428D01*
X9205476Y-15400952D01*
X9186429Y-15410476D01*
X9167381Y-15410476D01*
X9148333Y-15400952D01*
X9138810Y-15391428D01*
X9129286Y-15372381D01*
X9119762Y-15334286D01*
X9119762Y-15286667D01*
X9129286Y-15248571D01*
X9138810Y-15229524D01*
X9148333Y-15220000D01*
X9167381Y-15210476D01*
X9319762Y-15410476D02*
X9319762Y-15277143D01*
X9319762Y-15296190D02*
X9329286Y-15286667D01*
X9348333Y-15277143D01*
X9376905Y-15277143D01*
X9395952Y-15286667D01*
X9405476Y-15305714D01*
X9405476Y-15410476D01*
X9405476Y-15305714D02*
X9415000Y-15286667D01*
X9434048Y-15277143D01*
X9462619Y-15277143D01*
X9481667Y-15286667D01*
X9491190Y-15305714D01*
X9491190Y-15410476D01*
X9586429Y-15410476D02*
X9586429Y-15277143D01*
X9586429Y-15296190D02*
X9595952Y-15286667D01*
X9615000Y-15277143D01*
X9643571Y-15277143D01*
X9662619Y-15286667D01*
X9672143Y-15305714D01*
X9672143Y-15410476D01*
X9672143Y-15305714D02*
X9681667Y-15286667D01*
X9700714Y-15277143D01*
X9729286Y-15277143D01*
X9748333Y-15286667D01*
X9757857Y-15305714D01*
X9757857Y-15410476D01*
X10148333Y-15200952D02*
X9976905Y-15458095D01*
X10405476Y-15210476D02*
X10424524Y-15210476D01*
X10443571Y-15220000D01*
X10453095Y-15229524D01*
X10462619Y-15248571D01*
X10472143Y-15286667D01*
X10472143Y-15334286D01*
X10462619Y-15372381D01*
X10453095Y-15391428D01*
X10443571Y-15400952D01*
X10424524Y-15410476D01*
X10405476Y-15410476D01*
X10386429Y-15400952D01*
X10376905Y-15391428D01*
X10367381Y-15372381D01*
X10357857Y-15334286D01*
X10357857Y-15286667D01*
X10367381Y-15248571D01*
X10376905Y-15229524D01*
X10386429Y-15220000D01*
X10405476Y-15210476D01*
X10557857Y-15391428D02*
X10567381Y-15400952D01*
X10557857Y-15410476D01*
X10548333Y-15400952D01*
X10557857Y-15391428D01*
X10557857Y-15410476D01*
X10691190Y-15210476D02*
X10710238Y-15210476D01*
X10729286Y-15220000D01*
X10738810Y-15229524D01*
X10748333Y-15248571D01*
X10757857Y-15286667D01*
X10757857Y-15334286D01*
X10748333Y-15372381D01*
X10738810Y-15391428D01*
X10729286Y-15400952D01*
X10710238Y-15410476D01*
X10691190Y-15410476D01*
X10672143Y-15400952D01*
X10662619Y-15391428D01*
X10653095Y-15372381D01*
X10643571Y-15334286D01*
X10643571Y-15286667D01*
X10653095Y-15248571D01*
X10662619Y-15229524D01*
X10672143Y-15220000D01*
X10691190Y-15210476D01*
X10824524Y-15210476D02*
X10948333Y-15210476D01*
X10881667Y-15286667D01*
X10910238Y-15286667D01*
X10929286Y-15296190D01*
X10938810Y-15305714D01*
X10948333Y-15324762D01*
X10948333Y-15372381D01*
X10938810Y-15391428D01*
X10929286Y-15400952D01*
X10910238Y-15410476D01*
X10853095Y-15410476D01*
X10834048Y-15400952D01*
X10824524Y-15391428D01*
X11129286Y-15210476D02*
X11034048Y-15210476D01*
X11024524Y-15305714D01*
X11034048Y-15296190D01*
X11053095Y-15286667D01*
X11100714Y-15286667D01*
X11119762Y-15296190D01*
X11129286Y-15305714D01*
X11138810Y-15324762D01*
X11138810Y-15372381D01*
X11129286Y-15391428D01*
X11119762Y-15400952D01*
X11100714Y-15410476D01*
X11053095Y-15410476D01*
X11034048Y-15400952D01*
X11024524Y-15391428D01*
X11310238Y-15277143D02*
X11310238Y-15410476D01*
X11262619Y-15200952D02*
X11215000Y-15343809D01*
X11338809Y-15343809D01*
X11405476Y-15210476D02*
X11405476Y-15248571D01*
X11481667Y-15210476D02*
X11481667Y-15248571D01*
X11776905Y-15486667D02*
X11767381Y-15477143D01*
X11748333Y-15448571D01*
X11738809Y-15429524D01*
X11729286Y-15400952D01*
X11719762Y-15353333D01*
X11719762Y-15315238D01*
X11729286Y-15267619D01*
X11738809Y-15239048D01*
X11748333Y-15220000D01*
X11767381Y-15191428D01*
X11776905Y-15181905D01*
X11938809Y-15277143D02*
X11938809Y-15410476D01*
X11891190Y-15200952D02*
X11843571Y-15343809D01*
X11967381Y-15343809D01*
X12195952Y-15410476D02*
X12195952Y-15210476D01*
X12281667Y-15410476D02*
X12281667Y-15305714D01*
X12272143Y-15286667D01*
X12253095Y-15277143D01*
X12224524Y-15277143D01*
X12205476Y-15286667D01*
X12195952Y-15296190D01*
X12405476Y-15410476D02*
X12386428Y-15400952D01*
X12376905Y-15391428D01*
X12367381Y-15372381D01*
X12367381Y-15315238D01*
X12376905Y-15296190D01*
X12386428Y-15286667D01*
X12405476Y-15277143D01*
X12434048Y-15277143D01*
X12453095Y-15286667D01*
X12462619Y-15296190D01*
X12472143Y-15315238D01*
X12472143Y-15372381D01*
X12462619Y-15391428D01*
X12453095Y-15400952D01*
X12434048Y-15410476D01*
X12405476Y-15410476D01*
X12586428Y-15410476D02*
X12567381Y-15400952D01*
X12557857Y-15381905D01*
X12557857Y-15210476D01*
X12738809Y-15400952D02*
X12719762Y-15410476D01*
X12681667Y-15410476D01*
X12662619Y-15400952D01*
X12653095Y-15381905D01*
X12653095Y-15305714D01*
X12662619Y-15286667D01*
X12681667Y-15277143D01*
X12719762Y-15277143D01*
X12738809Y-15286667D01*
X12748333Y-15305714D01*
X12748333Y-15324762D01*
X12653095Y-15343809D01*
X12824524Y-15400952D02*
X12843571Y-15410476D01*
X12881667Y-15410476D01*
X12900714Y-15400952D01*
X12910238Y-15381905D01*
X12910238Y-15372381D01*
X12900714Y-15353333D01*
X12881667Y-15343809D01*
X12853095Y-15343809D01*
X12834048Y-15334286D01*
X12824524Y-15315238D01*
X12824524Y-15305714D01*
X12834048Y-15286667D01*
X12853095Y-15277143D01*
X12881667Y-15277143D01*
X12900714Y-15286667D01*
X12976905Y-15486667D02*
X12986428Y-15477143D01*
X13005476Y-15448571D01*
X13015000Y-15429524D01*
X13024524Y-15400952D01*
X13034048Y-15353333D01*
X13034048Y-15315238D01*
X13024524Y-15267619D01*
X13015000Y-15239048D01*
X13005476Y-15220000D01*
X12986428Y-15191428D01*
X12976905Y-15181905D01*
X13338809Y-15486667D02*
X13329286Y-15477143D01*
X13310238Y-15448571D01*
X13300714Y-15429524D01*
X13291190Y-15400952D01*
X13281667Y-15353333D01*
X13281667Y-15315238D01*
X13291190Y-15267619D01*
X13300714Y-15239048D01*
X13310238Y-15220000D01*
X13329286Y-15191428D01*
X13338809Y-15181905D01*
X13415000Y-15277143D02*
X13415000Y-15410476D01*
X13415000Y-15296190D02*
X13424524Y-15286667D01*
X13443571Y-15277143D01*
X13472143Y-15277143D01*
X13491190Y-15286667D01*
X13500714Y-15305714D01*
X13500714Y-15410476D01*
X13624524Y-15410476D02*
X13605476Y-15400952D01*
X13595952Y-15391428D01*
X13586428Y-15372381D01*
X13586428Y-15315238D01*
X13595952Y-15296190D01*
X13605476Y-15286667D01*
X13624524Y-15277143D01*
X13653095Y-15277143D01*
X13672143Y-15286667D01*
X13681667Y-15296190D01*
X13691190Y-15315238D01*
X13691190Y-15372381D01*
X13681667Y-15391428D01*
X13672143Y-15400952D01*
X13653095Y-15410476D01*
X13624524Y-15410476D01*
X13748333Y-15277143D02*
X13824524Y-15277143D01*
X13776905Y-15210476D02*
X13776905Y-15381905D01*
X13786428Y-15400952D01*
X13805476Y-15410476D01*
X13824524Y-15410476D01*
X14043571Y-15277143D02*
X14043571Y-15477143D01*
X14043571Y-15286667D02*
X14062619Y-15277143D01*
X14100714Y-15277143D01*
X14119762Y-15286667D01*
X14129286Y-15296190D01*
X14138809Y-15315238D01*
X14138809Y-15372381D01*
X14129286Y-15391428D01*
X14119762Y-15400952D01*
X14100714Y-15410476D01*
X14062619Y-15410476D01*
X14043571Y-15400952D01*
X14253095Y-15410476D02*
X14234048Y-15400952D01*
X14224524Y-15381905D01*
X14224524Y-15210476D01*
X14415000Y-15410476D02*
X14415000Y-15305714D01*
X14405476Y-15286667D01*
X14386428Y-15277143D01*
X14348333Y-15277143D01*
X14329286Y-15286667D01*
X14415000Y-15400952D02*
X14395952Y-15410476D01*
X14348333Y-15410476D01*
X14329286Y-15400952D01*
X14319762Y-15381905D01*
X14319762Y-15362857D01*
X14329286Y-15343809D01*
X14348333Y-15334286D01*
X14395952Y-15334286D01*
X14415000Y-15324762D01*
X14481667Y-15277143D02*
X14557857Y-15277143D01*
X14510238Y-15210476D02*
X14510238Y-15381905D01*
X14519762Y-15400952D01*
X14538809Y-15410476D01*
X14557857Y-15410476D01*
X14700714Y-15400952D02*
X14681667Y-15410476D01*
X14643571Y-15410476D01*
X14624524Y-15400952D01*
X14615000Y-15381905D01*
X14615000Y-15305714D01*
X14624524Y-15286667D01*
X14643571Y-15277143D01*
X14681667Y-15277143D01*
X14700714Y-15286667D01*
X14710238Y-15305714D01*
X14710238Y-15324762D01*
X14615000Y-15343809D01*
X14881667Y-15410476D02*
X14881667Y-15210476D01*
X14881667Y-15400952D02*
X14862619Y-15410476D01*
X14824524Y-15410476D01*
X14805476Y-15400952D01*
X14795952Y-15391428D01*
X14786428Y-15372381D01*
X14786428Y-15315238D01*
X14795952Y-15296190D01*
X14805476Y-15286667D01*
X14824524Y-15277143D01*
X14862619Y-15277143D01*
X14881667Y-15286667D01*
X14957857Y-15486667D02*
X14967381Y-15477143D01*
X14986428Y-15448571D01*
X14995952Y-15429524D01*
X15005476Y-15400952D01*
X15015000Y-15353333D01*
X15015000Y-15315238D01*
X15005476Y-15267619D01*
X14995952Y-15239048D01*
X14986428Y-15220000D01*
X14967381Y-15191428D01*
X14957857Y-15181905D01*
D13*
X8205000Y-15584000D02*
G75*
G03*
X8205000Y-15584000I-50000J0D01*
G01*
D11*
X8567381Y-15674476D02*
X8453095Y-15674476D01*
X8510238Y-15674476D02*
X8510238Y-15474476D01*
X8491190Y-15503048D01*
X8472143Y-15522095D01*
X8453095Y-15531619D01*
X8653095Y-15655428D02*
X8662619Y-15664952D01*
X8653095Y-15674476D01*
X8643571Y-15664952D01*
X8653095Y-15655428D01*
X8653095Y-15674476D01*
X8786429Y-15474476D02*
X8805476Y-15474476D01*
X8824524Y-15484000D01*
X8834048Y-15493524D01*
X8843571Y-15512571D01*
X8853095Y-15550667D01*
X8853095Y-15598286D01*
X8843571Y-15636381D01*
X8834048Y-15655428D01*
X8824524Y-15664952D01*
X8805476Y-15674476D01*
X8786429Y-15674476D01*
X8767381Y-15664952D01*
X8757857Y-15655428D01*
X8748333Y-15636381D01*
X8738810Y-15598286D01*
X8738810Y-15550667D01*
X8748333Y-15512571D01*
X8757857Y-15493524D01*
X8767381Y-15484000D01*
X8786429Y-15474476D01*
X8976905Y-15474476D02*
X8995952Y-15474476D01*
X9015000Y-15484000D01*
X9024524Y-15493524D01*
X9034048Y-15512571D01*
X9043571Y-15550667D01*
X9043571Y-15598286D01*
X9034048Y-15636381D01*
X9024524Y-15655428D01*
X9015000Y-15664952D01*
X8995952Y-15674476D01*
X8976905Y-15674476D01*
X8957857Y-15664952D01*
X8948333Y-15655428D01*
X8938810Y-15636381D01*
X8929286Y-15598286D01*
X8929286Y-15550667D01*
X8938810Y-15512571D01*
X8948333Y-15493524D01*
X8957857Y-15484000D01*
X8976905Y-15474476D01*
X9167381Y-15474476D02*
X9186429Y-15474476D01*
X9205476Y-15484000D01*
X9215000Y-15493524D01*
X9224524Y-15512571D01*
X9234048Y-15550667D01*
X9234048Y-15598286D01*
X9224524Y-15636381D01*
X9215000Y-15655428D01*
X9205476Y-15664952D01*
X9186429Y-15674476D01*
X9167381Y-15674476D01*
X9148333Y-15664952D01*
X9138810Y-15655428D01*
X9129286Y-15636381D01*
X9119762Y-15598286D01*
X9119762Y-15550667D01*
X9129286Y-15512571D01*
X9138810Y-15493524D01*
X9148333Y-15484000D01*
X9167381Y-15474476D01*
X9319762Y-15674476D02*
X9319762Y-15541143D01*
X9319762Y-15560190D02*
X9329286Y-15550667D01*
X9348333Y-15541143D01*
X9376905Y-15541143D01*
X9395952Y-15550667D01*
X9405476Y-15569714D01*
X9405476Y-15674476D01*
X9405476Y-15569714D02*
X9415000Y-15550667D01*
X9434048Y-15541143D01*
X9462619Y-15541143D01*
X9481667Y-15550667D01*
X9491190Y-15569714D01*
X9491190Y-15674476D01*
X9586429Y-15674476D02*
X9586429Y-15541143D01*
X9586429Y-15560190D02*
X9595952Y-15550667D01*
X9615000Y-15541143D01*
X9643571Y-15541143D01*
X9662619Y-15550667D01*
X9672143Y-15569714D01*
X9672143Y-15674476D01*
X9672143Y-15569714D02*
X9681667Y-15550667D01*
X9700714Y-15541143D01*
X9729286Y-15541143D01*
X9748333Y-15550667D01*
X9757857Y-15569714D01*
X9757857Y-15674476D01*
X10148333Y-15464952D02*
X9976905Y-15722095D01*
X10405476Y-15474476D02*
X10424524Y-15474476D01*
X10443571Y-15484000D01*
X10453095Y-15493524D01*
X10462619Y-15512571D01*
X10472143Y-15550667D01*
X10472143Y-15598286D01*
X10462619Y-15636381D01*
X10453095Y-15655428D01*
X10443571Y-15664952D01*
X10424524Y-15674476D01*
X10405476Y-15674476D01*
X10386429Y-15664952D01*
X10376905Y-15655428D01*
X10367381Y-15636381D01*
X10357857Y-15598286D01*
X10357857Y-15550667D01*
X10367381Y-15512571D01*
X10376905Y-15493524D01*
X10386429Y-15484000D01*
X10405476Y-15474476D01*
X10557857Y-15655428D02*
X10567381Y-15664952D01*
X10557857Y-15674476D01*
X10548333Y-15664952D01*
X10557857Y-15655428D01*
X10557857Y-15674476D01*
X10691190Y-15474476D02*
X10710238Y-15474476D01*
X10729286Y-15484000D01*
X10738810Y-15493524D01*
X10748333Y-15512571D01*
X10757857Y-15550667D01*
X10757857Y-15598286D01*
X10748333Y-15636381D01*
X10738810Y-15655428D01*
X10729286Y-15664952D01*
X10710238Y-15674476D01*
X10691190Y-15674476D01*
X10672143Y-15664952D01*
X10662619Y-15655428D01*
X10653095Y-15636381D01*
X10643571Y-15598286D01*
X10643571Y-15550667D01*
X10653095Y-15512571D01*
X10662619Y-15493524D01*
X10672143Y-15484000D01*
X10691190Y-15474476D01*
X10824524Y-15474476D02*
X10948333Y-15474476D01*
X10881667Y-15550667D01*
X10910238Y-15550667D01*
X10929286Y-15560190D01*
X10938810Y-15569714D01*
X10948333Y-15588762D01*
X10948333Y-15636381D01*
X10938810Y-15655428D01*
X10929286Y-15664952D01*
X10910238Y-15674476D01*
X10853095Y-15674476D01*
X10834048Y-15664952D01*
X10824524Y-15655428D01*
X11043571Y-15674476D02*
X11081667Y-15674476D01*
X11100714Y-15664952D01*
X11110238Y-15655428D01*
X11129286Y-15626857D01*
X11138810Y-15588762D01*
X11138810Y-15512571D01*
X11129286Y-15493524D01*
X11119762Y-15484000D01*
X11100714Y-15474476D01*
X11062619Y-15474476D01*
X11043571Y-15484000D01*
X11034048Y-15493524D01*
X11024524Y-15512571D01*
X11024524Y-15560190D01*
X11034048Y-15579238D01*
X11043571Y-15588762D01*
X11062619Y-15598286D01*
X11100714Y-15598286D01*
X11119762Y-15588762D01*
X11129286Y-15579238D01*
X11138810Y-15560190D01*
X11310238Y-15541143D02*
X11310238Y-15674476D01*
X11262619Y-15464952D02*
X11215000Y-15607809D01*
X11338809Y-15607809D01*
X11405476Y-15474476D02*
X11405476Y-15512571D01*
X11481667Y-15474476D02*
X11481667Y-15512571D01*
X11776905Y-15750667D02*
X11767381Y-15741143D01*
X11748333Y-15712571D01*
X11738809Y-15693524D01*
X11729286Y-15664952D01*
X11719762Y-15617333D01*
X11719762Y-15579238D01*
X11729286Y-15531619D01*
X11738809Y-15503048D01*
X11748333Y-15484000D01*
X11767381Y-15455428D01*
X11776905Y-15445905D01*
X11948333Y-15474476D02*
X11853095Y-15474476D01*
X11843571Y-15569714D01*
X11853095Y-15560190D01*
X11872143Y-15550667D01*
X11919762Y-15550667D01*
X11938809Y-15560190D01*
X11948333Y-15569714D01*
X11957857Y-15588762D01*
X11957857Y-15636381D01*
X11948333Y-15655428D01*
X11938809Y-15664952D01*
X11919762Y-15674476D01*
X11872143Y-15674476D01*
X11853095Y-15664952D01*
X11843571Y-15655428D01*
X12072143Y-15560190D02*
X12053095Y-15550667D01*
X12043571Y-15541143D01*
X12034048Y-15522095D01*
X12034048Y-15512571D01*
X12043571Y-15493524D01*
X12053095Y-15484000D01*
X12072143Y-15474476D01*
X12110238Y-15474476D01*
X12129286Y-15484000D01*
X12138809Y-15493524D01*
X12148333Y-15512571D01*
X12148333Y-15522095D01*
X12138809Y-15541143D01*
X12129286Y-15550667D01*
X12110238Y-15560190D01*
X12072143Y-15560190D01*
X12053095Y-15569714D01*
X12043571Y-15579238D01*
X12034048Y-15598286D01*
X12034048Y-15636381D01*
X12043571Y-15655428D01*
X12053095Y-15664952D01*
X12072143Y-15674476D01*
X12110238Y-15674476D01*
X12129286Y-15664952D01*
X12138809Y-15655428D01*
X12148333Y-15636381D01*
X12148333Y-15598286D01*
X12138809Y-15579238D01*
X12129286Y-15569714D01*
X12110238Y-15560190D01*
X12386428Y-15674476D02*
X12386428Y-15474476D01*
X12472143Y-15674476D02*
X12472143Y-15569714D01*
X12462619Y-15550667D01*
X12443571Y-15541143D01*
X12415000Y-15541143D01*
X12395952Y-15550667D01*
X12386428Y-15560190D01*
X12595952Y-15674476D02*
X12576905Y-15664952D01*
X12567381Y-15655428D01*
X12557857Y-15636381D01*
X12557857Y-15579238D01*
X12567381Y-15560190D01*
X12576905Y-15550667D01*
X12595952Y-15541143D01*
X12624524Y-15541143D01*
X12643571Y-15550667D01*
X12653095Y-15560190D01*
X12662619Y-15579238D01*
X12662619Y-15636381D01*
X12653095Y-15655428D01*
X12643571Y-15664952D01*
X12624524Y-15674476D01*
X12595952Y-15674476D01*
X12776905Y-15674476D02*
X12757857Y-15664952D01*
X12748333Y-15645905D01*
X12748333Y-15474476D01*
X12929286Y-15664952D02*
X12910238Y-15674476D01*
X12872143Y-15674476D01*
X12853095Y-15664952D01*
X12843571Y-15645905D01*
X12843571Y-15569714D01*
X12853095Y-15550667D01*
X12872143Y-15541143D01*
X12910238Y-15541143D01*
X12929286Y-15550667D01*
X12938809Y-15569714D01*
X12938809Y-15588762D01*
X12843571Y-15607809D01*
X13015000Y-15664952D02*
X13034048Y-15674476D01*
X13072143Y-15674476D01*
X13091190Y-15664952D01*
X13100714Y-15645905D01*
X13100714Y-15636381D01*
X13091190Y-15617333D01*
X13072143Y-15607809D01*
X13043571Y-15607809D01*
X13024524Y-15598286D01*
X13015000Y-15579238D01*
X13015000Y-15569714D01*
X13024524Y-15550667D01*
X13043571Y-15541143D01*
X13072143Y-15541143D01*
X13091190Y-15550667D01*
X13167381Y-15750667D02*
X13176905Y-15741143D01*
X13195952Y-15712571D01*
X13205476Y-15693524D01*
X13215000Y-15664952D01*
X13224524Y-15617333D01*
X13224524Y-15579238D01*
X13215000Y-15531619D01*
X13205476Y-15503048D01*
X13195952Y-15484000D01*
X13176905Y-15455428D01*
X13167381Y-15445905D01*
X13529286Y-15750667D02*
X13519762Y-15741143D01*
X13500714Y-15712571D01*
X13491190Y-15693524D01*
X13481667Y-15664952D01*
X13472143Y-15617333D01*
X13472143Y-15579238D01*
X13481667Y-15531619D01*
X13491190Y-15503048D01*
X13500714Y-15484000D01*
X13519762Y-15455428D01*
X13529286Y-15445905D01*
X13605476Y-15541143D02*
X13605476Y-15674476D01*
X13605476Y-15560190D02*
X13615000Y-15550667D01*
X13634048Y-15541143D01*
X13662619Y-15541143D01*
X13681667Y-15550667D01*
X13691190Y-15569714D01*
X13691190Y-15674476D01*
X13815000Y-15674476D02*
X13795952Y-15664952D01*
X13786428Y-15655428D01*
X13776905Y-15636381D01*
X13776905Y-15579238D01*
X13786428Y-15560190D01*
X13795952Y-15550667D01*
X13815000Y-15541143D01*
X13843571Y-15541143D01*
X13862619Y-15550667D01*
X13872143Y-15560190D01*
X13881667Y-15579238D01*
X13881667Y-15636381D01*
X13872143Y-15655428D01*
X13862619Y-15664952D01*
X13843571Y-15674476D01*
X13815000Y-15674476D01*
X13938809Y-15541143D02*
X14015000Y-15541143D01*
X13967381Y-15474476D02*
X13967381Y-15645905D01*
X13976905Y-15664952D01*
X13995952Y-15674476D01*
X14015000Y-15674476D01*
X14234048Y-15541143D02*
X14234048Y-15741143D01*
X14234048Y-15550667D02*
X14253095Y-15541143D01*
X14291190Y-15541143D01*
X14310238Y-15550667D01*
X14319762Y-15560190D01*
X14329286Y-15579238D01*
X14329286Y-15636381D01*
X14319762Y-15655428D01*
X14310238Y-15664952D01*
X14291190Y-15674476D01*
X14253095Y-15674476D01*
X14234048Y-15664952D01*
X14443571Y-15674476D02*
X14424524Y-15664952D01*
X14415000Y-15645905D01*
X14415000Y-15474476D01*
X14605476Y-15674476D02*
X14605476Y-15569714D01*
X14595952Y-15550667D01*
X14576905Y-15541143D01*
X14538809Y-15541143D01*
X14519762Y-15550667D01*
X14605476Y-15664952D02*
X14586428Y-15674476D01*
X14538809Y-15674476D01*
X14519762Y-15664952D01*
X14510238Y-15645905D01*
X14510238Y-15626857D01*
X14519762Y-15607809D01*
X14538809Y-15598286D01*
X14586428Y-15598286D01*
X14605476Y-15588762D01*
X14672143Y-15541143D02*
X14748333Y-15541143D01*
X14700714Y-15474476D02*
X14700714Y-15645905D01*
X14710238Y-15664952D01*
X14729286Y-15674476D01*
X14748333Y-15674476D01*
X14891190Y-15664952D02*
X14872143Y-15674476D01*
X14834048Y-15674476D01*
X14815000Y-15664952D01*
X14805476Y-15645905D01*
X14805476Y-15569714D01*
X14815000Y-15550667D01*
X14834048Y-15541143D01*
X14872143Y-15541143D01*
X14891190Y-15550667D01*
X14900714Y-15569714D01*
X14900714Y-15588762D01*
X14805476Y-15607809D01*
X15072143Y-15674476D02*
X15072143Y-15474476D01*
X15072143Y-15664952D02*
X15053095Y-15674476D01*
X15015000Y-15674476D01*
X14995952Y-15664952D01*
X14986428Y-15655428D01*
X14976905Y-15636381D01*
X14976905Y-15579238D01*
X14986428Y-15560190D01*
X14995952Y-15550667D01*
X15015000Y-15541143D01*
X15053095Y-15541143D01*
X15072143Y-15550667D01*
X15148333Y-15750667D02*
X15157857Y-15741143D01*
X15176905Y-15712571D01*
X15186428Y-15693524D01*
X15195952Y-15664952D01*
X15205476Y-15617333D01*
X15205476Y-15579238D01*
X15195952Y-15531619D01*
X15186428Y-15503048D01*
X15176905Y-15484000D01*
X15157857Y-15455428D01*
X15148333Y-15445905D01*
D14*
X8115000Y-15758000D02*
X8115000Y-15938000D01*
X8025000Y-15848000D02*
X8205000Y-15848000D01*
D11*
X8567381Y-15938476D02*
X8453095Y-15938476D01*
X8510238Y-15938476D02*
X8510238Y-15738476D01*
X8491190Y-15767048D01*
X8472143Y-15786095D01*
X8453095Y-15795619D01*
X8653095Y-15919428D02*
X8662619Y-15928952D01*
X8653095Y-15938476D01*
X8643571Y-15928952D01*
X8653095Y-15919428D01*
X8653095Y-15938476D01*
X8776905Y-15824190D02*
X8757857Y-15814667D01*
X8748333Y-15805143D01*
X8738810Y-15786095D01*
X8738810Y-15776571D01*
X8748333Y-15757524D01*
X8757857Y-15748000D01*
X8776905Y-15738476D01*
X8815000Y-15738476D01*
X8834048Y-15748000D01*
X8843571Y-15757524D01*
X8853095Y-15776571D01*
X8853095Y-15786095D01*
X8843571Y-15805143D01*
X8834048Y-15814667D01*
X8815000Y-15824190D01*
X8776905Y-15824190D01*
X8757857Y-15833714D01*
X8748333Y-15843238D01*
X8738810Y-15862286D01*
X8738810Y-15900381D01*
X8748333Y-15919428D01*
X8757857Y-15928952D01*
X8776905Y-15938476D01*
X8815000Y-15938476D01*
X8834048Y-15928952D01*
X8843571Y-15919428D01*
X8853095Y-15900381D01*
X8853095Y-15862286D01*
X8843571Y-15843238D01*
X8834048Y-15833714D01*
X8815000Y-15824190D01*
X8976905Y-15738476D02*
X8995952Y-15738476D01*
X9015000Y-15748000D01*
X9024524Y-15757524D01*
X9034048Y-15776571D01*
X9043571Y-15814667D01*
X9043571Y-15862286D01*
X9034048Y-15900381D01*
X9024524Y-15919428D01*
X9015000Y-15928952D01*
X8995952Y-15938476D01*
X8976905Y-15938476D01*
X8957857Y-15928952D01*
X8948333Y-15919428D01*
X8938810Y-15900381D01*
X8929286Y-15862286D01*
X8929286Y-15814667D01*
X8938810Y-15776571D01*
X8948333Y-15757524D01*
X8957857Y-15748000D01*
X8976905Y-15738476D01*
X9167381Y-15738476D02*
X9186429Y-15738476D01*
X9205476Y-15748000D01*
X9215000Y-15757524D01*
X9224524Y-15776571D01*
X9234048Y-15814667D01*
X9234048Y-15862286D01*
X9224524Y-15900381D01*
X9215000Y-15919428D01*
X9205476Y-15928952D01*
X9186429Y-15938476D01*
X9167381Y-15938476D01*
X9148333Y-15928952D01*
X9138810Y-15919428D01*
X9129286Y-15900381D01*
X9119762Y-15862286D01*
X9119762Y-15814667D01*
X9129286Y-15776571D01*
X9138810Y-15757524D01*
X9148333Y-15748000D01*
X9167381Y-15738476D01*
X9319762Y-15938476D02*
X9319762Y-15805143D01*
X9319762Y-15824190D02*
X9329286Y-15814667D01*
X9348333Y-15805143D01*
X9376905Y-15805143D01*
X9395952Y-15814667D01*
X9405476Y-15833714D01*
X9405476Y-15938476D01*
X9405476Y-15833714D02*
X9415000Y-15814667D01*
X9434048Y-15805143D01*
X9462619Y-15805143D01*
X9481667Y-15814667D01*
X9491190Y-15833714D01*
X9491190Y-15938476D01*
X9586429Y-15938476D02*
X9586429Y-15805143D01*
X9586429Y-15824190D02*
X9595952Y-15814667D01*
X9615000Y-15805143D01*
X9643571Y-15805143D01*
X9662619Y-15814667D01*
X9672143Y-15833714D01*
X9672143Y-15938476D01*
X9672143Y-15833714D02*
X9681667Y-15814667D01*
X9700714Y-15805143D01*
X9729286Y-15805143D01*
X9748333Y-15814667D01*
X9757857Y-15833714D01*
X9757857Y-15938476D01*
X10148333Y-15728952D02*
X9976905Y-15986095D01*
X10405476Y-15738476D02*
X10424524Y-15738476D01*
X10443571Y-15748000D01*
X10453095Y-15757524D01*
X10462619Y-15776571D01*
X10472143Y-15814667D01*
X10472143Y-15862286D01*
X10462619Y-15900381D01*
X10453095Y-15919428D01*
X10443571Y-15928952D01*
X10424524Y-15938476D01*
X10405476Y-15938476D01*
X10386429Y-15928952D01*
X10376905Y-15919428D01*
X10367381Y-15900381D01*
X10357857Y-15862286D01*
X10357857Y-15814667D01*
X10367381Y-15776571D01*
X10376905Y-15757524D01*
X10386429Y-15748000D01*
X10405476Y-15738476D01*
X10557857Y-15919428D02*
X10567381Y-15928952D01*
X10557857Y-15938476D01*
X10548333Y-15928952D01*
X10557857Y-15919428D01*
X10557857Y-15938476D01*
X10691190Y-15738476D02*
X10710238Y-15738476D01*
X10729286Y-15748000D01*
X10738810Y-15757524D01*
X10748333Y-15776571D01*
X10757857Y-15814667D01*
X10757857Y-15862286D01*
X10748333Y-15900381D01*
X10738810Y-15919428D01*
X10729286Y-15928952D01*
X10710238Y-15938476D01*
X10691190Y-15938476D01*
X10672143Y-15928952D01*
X10662619Y-15919428D01*
X10653095Y-15900381D01*
X10643571Y-15862286D01*
X10643571Y-15814667D01*
X10653095Y-15776571D01*
X10662619Y-15757524D01*
X10672143Y-15748000D01*
X10691190Y-15738476D01*
X10824524Y-15738476D02*
X10957857Y-15738476D01*
X10872143Y-15938476D01*
X11072143Y-15738476D02*
X11091190Y-15738476D01*
X11110238Y-15748000D01*
X11119762Y-15757524D01*
X11129286Y-15776571D01*
X11138810Y-15814667D01*
X11138810Y-15862286D01*
X11129286Y-15900381D01*
X11119762Y-15919428D01*
X11110238Y-15928952D01*
X11091190Y-15938476D01*
X11072143Y-15938476D01*
X11053095Y-15928952D01*
X11043571Y-15919428D01*
X11034048Y-15900381D01*
X11024524Y-15862286D01*
X11024524Y-15814667D01*
X11034048Y-15776571D01*
X11043571Y-15757524D01*
X11053095Y-15748000D01*
X11072143Y-15738476D01*
X11234048Y-15938476D02*
X11272143Y-15938476D01*
X11291190Y-15928952D01*
X11300714Y-15919428D01*
X11319762Y-15890857D01*
X11329286Y-15852762D01*
X11329286Y-15776571D01*
X11319762Y-15757524D01*
X11310238Y-15748000D01*
X11291190Y-15738476D01*
X11253095Y-15738476D01*
X11234048Y-15748000D01*
X11224524Y-15757524D01*
X11215000Y-15776571D01*
X11215000Y-15824190D01*
X11224524Y-15843238D01*
X11234048Y-15852762D01*
X11253095Y-15862286D01*
X11291190Y-15862286D01*
X11310238Y-15852762D01*
X11319762Y-15843238D01*
X11329286Y-15824190D01*
X11405476Y-15738476D02*
X11405476Y-15776571D01*
X11481667Y-15738476D02*
X11481667Y-15776571D01*
X11776905Y-16014667D02*
X11767381Y-16005143D01*
X11748333Y-15976571D01*
X11738809Y-15957524D01*
X11729286Y-15928952D01*
X11719762Y-15881333D01*
X11719762Y-15843238D01*
X11729286Y-15795619D01*
X11738809Y-15767048D01*
X11748333Y-15748000D01*
X11767381Y-15719428D01*
X11776905Y-15709905D01*
X11948333Y-15738476D02*
X11853095Y-15738476D01*
X11843571Y-15833714D01*
X11853095Y-15824190D01*
X11872143Y-15814667D01*
X11919762Y-15814667D01*
X11938809Y-15824190D01*
X11948333Y-15833714D01*
X11957857Y-15852762D01*
X11957857Y-15900381D01*
X11948333Y-15919428D01*
X11938809Y-15928952D01*
X11919762Y-15938476D01*
X11872143Y-15938476D01*
X11853095Y-15928952D01*
X11843571Y-15919428D01*
X12072143Y-15824190D02*
X12053095Y-15814667D01*
X12043571Y-15805143D01*
X12034048Y-15786095D01*
X12034048Y-15776571D01*
X12043571Y-15757524D01*
X12053095Y-15748000D01*
X12072143Y-15738476D01*
X12110238Y-15738476D01*
X12129286Y-15748000D01*
X12138809Y-15757524D01*
X12148333Y-15776571D01*
X12148333Y-15786095D01*
X12138809Y-15805143D01*
X12129286Y-15814667D01*
X12110238Y-15824190D01*
X12072143Y-15824190D01*
X12053095Y-15833714D01*
X12043571Y-15843238D01*
X12034048Y-15862286D01*
X12034048Y-15900381D01*
X12043571Y-15919428D01*
X12053095Y-15928952D01*
X12072143Y-15938476D01*
X12110238Y-15938476D01*
X12129286Y-15928952D01*
X12138809Y-15919428D01*
X12148333Y-15900381D01*
X12148333Y-15862286D01*
X12138809Y-15843238D01*
X12129286Y-15833714D01*
X12110238Y-15824190D01*
X12386428Y-15938476D02*
X12386428Y-15738476D01*
X12472143Y-15938476D02*
X12472143Y-15833714D01*
X12462619Y-15814667D01*
X12443571Y-15805143D01*
X12415000Y-15805143D01*
X12395952Y-15814667D01*
X12386428Y-15824190D01*
X12595952Y-15938476D02*
X12576905Y-15928952D01*
X12567381Y-15919428D01*
X12557857Y-15900381D01*
X12557857Y-15843238D01*
X12567381Y-15824190D01*
X12576905Y-15814667D01*
X12595952Y-15805143D01*
X12624524Y-15805143D01*
X12643571Y-15814667D01*
X12653095Y-15824190D01*
X12662619Y-15843238D01*
X12662619Y-15900381D01*
X12653095Y-15919428D01*
X12643571Y-15928952D01*
X12624524Y-15938476D01*
X12595952Y-15938476D01*
X12776905Y-15938476D02*
X12757857Y-15928952D01*
X12748333Y-15909905D01*
X12748333Y-15738476D01*
X12929286Y-15928952D02*
X12910238Y-15938476D01*
X12872143Y-15938476D01*
X12853095Y-15928952D01*
X12843571Y-15909905D01*
X12843571Y-15833714D01*
X12853095Y-15814667D01*
X12872143Y-15805143D01*
X12910238Y-15805143D01*
X12929286Y-15814667D01*
X12938809Y-15833714D01*
X12938809Y-15852762D01*
X12843571Y-15871809D01*
X13015000Y-15928952D02*
X13034048Y-15938476D01*
X13072143Y-15938476D01*
X13091190Y-15928952D01*
X13100714Y-15909905D01*
X13100714Y-15900381D01*
X13091190Y-15881333D01*
X13072143Y-15871809D01*
X13043571Y-15871809D01*
X13024524Y-15862286D01*
X13015000Y-15843238D01*
X13015000Y-15833714D01*
X13024524Y-15814667D01*
X13043571Y-15805143D01*
X13072143Y-15805143D01*
X13091190Y-15814667D01*
X13167381Y-16014667D02*
X13176905Y-16005143D01*
X13195952Y-15976571D01*
X13205476Y-15957524D01*
X13215000Y-15928952D01*
X13224524Y-15881333D01*
X13224524Y-15843238D01*
X13215000Y-15795619D01*
X13205476Y-15767048D01*
X13195952Y-15748000D01*
X13176905Y-15719428D01*
X13167381Y-15709905D01*
X13529286Y-16014667D02*
X13519762Y-16005143D01*
X13500714Y-15976571D01*
X13491190Y-15957524D01*
X13481667Y-15928952D01*
X13472143Y-15881333D01*
X13472143Y-15843238D01*
X13481667Y-15795619D01*
X13491190Y-15767048D01*
X13500714Y-15748000D01*
X13519762Y-15719428D01*
X13529286Y-15709905D01*
X13605476Y-15805143D02*
X13605476Y-15938476D01*
X13605476Y-15824190D02*
X13615000Y-15814667D01*
X13634048Y-15805143D01*
X13662619Y-15805143D01*
X13681667Y-15814667D01*
X13691190Y-15833714D01*
X13691190Y-15938476D01*
X13815000Y-15938476D02*
X13795952Y-15928952D01*
X13786428Y-15919428D01*
X13776905Y-15900381D01*
X13776905Y-15843238D01*
X13786428Y-15824190D01*
X13795952Y-15814667D01*
X13815000Y-15805143D01*
X13843571Y-15805143D01*
X13862619Y-15814667D01*
X13872143Y-15824190D01*
X13881667Y-15843238D01*
X13881667Y-15900381D01*
X13872143Y-15919428D01*
X13862619Y-15928952D01*
X13843571Y-15938476D01*
X13815000Y-15938476D01*
X13938809Y-15805143D02*
X14015000Y-15805143D01*
X13967381Y-15738476D02*
X13967381Y-15909905D01*
X13976905Y-15928952D01*
X13995952Y-15938476D01*
X14015000Y-15938476D01*
X14234048Y-15805143D02*
X14234048Y-16005143D01*
X14234048Y-15814667D02*
X14253095Y-15805143D01*
X14291190Y-15805143D01*
X14310238Y-15814667D01*
X14319762Y-15824190D01*
X14329286Y-15843238D01*
X14329286Y-15900381D01*
X14319762Y-15919428D01*
X14310238Y-15928952D01*
X14291190Y-15938476D01*
X14253095Y-15938476D01*
X14234048Y-15928952D01*
X14443571Y-15938476D02*
X14424524Y-15928952D01*
X14415000Y-15909905D01*
X14415000Y-15738476D01*
X14605476Y-15938476D02*
X14605476Y-15833714D01*
X14595952Y-15814667D01*
X14576905Y-15805143D01*
X14538809Y-15805143D01*
X14519762Y-15814667D01*
X14605476Y-15928952D02*
X14586428Y-15938476D01*
X14538809Y-15938476D01*
X14519762Y-15928952D01*
X14510238Y-15909905D01*
X14510238Y-15890857D01*
X14519762Y-15871809D01*
X14538809Y-15862286D01*
X14586428Y-15862286D01*
X14605476Y-15852762D01*
X14672143Y-15805143D02*
X14748333Y-15805143D01*
X14700714Y-15738476D02*
X14700714Y-15909905D01*
X14710238Y-15928952D01*
X14729286Y-15938476D01*
X14748333Y-15938476D01*
X14891190Y-15928952D02*
X14872143Y-15938476D01*
X14834048Y-15938476D01*
X14815000Y-15928952D01*
X14805476Y-15909905D01*
X14805476Y-15833714D01*
X14815000Y-15814667D01*
X14834048Y-15805143D01*
X14872143Y-15805143D01*
X14891190Y-15814667D01*
X14900714Y-15833714D01*
X14900714Y-15852762D01*
X14805476Y-15871809D01*
X15072143Y-15938476D02*
X15072143Y-15738476D01*
X15072143Y-15928952D02*
X15053095Y-15938476D01*
X15015000Y-15938476D01*
X14995952Y-15928952D01*
X14986428Y-15919428D01*
X14976905Y-15900381D01*
X14976905Y-15843238D01*
X14986428Y-15824190D01*
X14995952Y-15814667D01*
X15015000Y-15805143D01*
X15053095Y-15805143D01*
X15072143Y-15814667D01*
X15148333Y-16014667D02*
X15157857Y-16005143D01*
X15176905Y-15976571D01*
X15186428Y-15957524D01*
X15195952Y-15928952D01*
X15205476Y-15881333D01*
X15205476Y-15843238D01*
X15195952Y-15795619D01*
X15186428Y-15767048D01*
X15176905Y-15748000D01*
X15157857Y-15719428D01*
X15148333Y-15709905D01*
X8175711Y-16218711D02*
X8175711Y-16077289D01*
X8034289Y-16077289D01*
X8034289Y-16218711D01*
X8175711Y-16218711D01*
X8443571Y-16038476D02*
X8567381Y-16038476D01*
X8500714Y-16114667D01*
X8529286Y-16114667D01*
X8548333Y-16124190D01*
X8557857Y-16133714D01*
X8567381Y-16152762D01*
X8567381Y-16200381D01*
X8557857Y-16219428D01*
X8548333Y-16228952D01*
X8529286Y-16238476D01*
X8472143Y-16238476D01*
X8453095Y-16228952D01*
X8443571Y-16219428D01*
X8653095Y-16219428D02*
X8662619Y-16228952D01*
X8653095Y-16238476D01*
X8643571Y-16228952D01*
X8653095Y-16219428D01*
X8653095Y-16238476D01*
X8786429Y-16038476D02*
X8805476Y-16038476D01*
X8824524Y-16048000D01*
X8834048Y-16057524D01*
X8843571Y-16076571D01*
X8853095Y-16114667D01*
X8853095Y-16162286D01*
X8843571Y-16200381D01*
X8834048Y-16219428D01*
X8824524Y-16228952D01*
X8805476Y-16238476D01*
X8786429Y-16238476D01*
X8767381Y-16228952D01*
X8757857Y-16219428D01*
X8748333Y-16200381D01*
X8738810Y-16162286D01*
X8738810Y-16114667D01*
X8748333Y-16076571D01*
X8757857Y-16057524D01*
X8767381Y-16048000D01*
X8786429Y-16038476D01*
X8976905Y-16038476D02*
X8995952Y-16038476D01*
X9015000Y-16048000D01*
X9024524Y-16057524D01*
X9034048Y-16076571D01*
X9043571Y-16114667D01*
X9043571Y-16162286D01*
X9034048Y-16200381D01*
X9024524Y-16219428D01*
X9015000Y-16228952D01*
X8995952Y-16238476D01*
X8976905Y-16238476D01*
X8957857Y-16228952D01*
X8948333Y-16219428D01*
X8938810Y-16200381D01*
X8929286Y-16162286D01*
X8929286Y-16114667D01*
X8938810Y-16076571D01*
X8948333Y-16057524D01*
X8957857Y-16048000D01*
X8976905Y-16038476D01*
X9167381Y-16038476D02*
X9186429Y-16038476D01*
X9205476Y-16048000D01*
X9215000Y-16057524D01*
X9224524Y-16076571D01*
X9234048Y-16114667D01*
X9234048Y-16162286D01*
X9224524Y-16200381D01*
X9215000Y-16219428D01*
X9205476Y-16228952D01*
X9186429Y-16238476D01*
X9167381Y-16238476D01*
X9148333Y-16228952D01*
X9138810Y-16219428D01*
X9129286Y-16200381D01*
X9119762Y-16162286D01*
X9119762Y-16114667D01*
X9129286Y-16076571D01*
X9138810Y-16057524D01*
X9148333Y-16048000D01*
X9167381Y-16038476D01*
X9319762Y-16238476D02*
X9319762Y-16105143D01*
X9319762Y-16124190D02*
X9329286Y-16114667D01*
X9348333Y-16105143D01*
X9376905Y-16105143D01*
X9395952Y-16114667D01*
X9405476Y-16133714D01*
X9405476Y-16238476D01*
X9405476Y-16133714D02*
X9415000Y-16114667D01*
X9434048Y-16105143D01*
X9462619Y-16105143D01*
X9481667Y-16114667D01*
X9491190Y-16133714D01*
X9491190Y-16238476D01*
X9586429Y-16238476D02*
X9586429Y-16105143D01*
X9586429Y-16124190D02*
X9595952Y-16114667D01*
X9615000Y-16105143D01*
X9643571Y-16105143D01*
X9662619Y-16114667D01*
X9672143Y-16133714D01*
X9672143Y-16238476D01*
X9672143Y-16133714D02*
X9681667Y-16114667D01*
X9700714Y-16105143D01*
X9729286Y-16105143D01*
X9748333Y-16114667D01*
X9757857Y-16133714D01*
X9757857Y-16238476D01*
X10148333Y-16028952D02*
X9976905Y-16286095D01*
X10405476Y-16038476D02*
X10424524Y-16038476D01*
X10443571Y-16048000D01*
X10453095Y-16057524D01*
X10462619Y-16076571D01*
X10472143Y-16114667D01*
X10472143Y-16162286D01*
X10462619Y-16200381D01*
X10453095Y-16219428D01*
X10443571Y-16228952D01*
X10424524Y-16238476D01*
X10405476Y-16238476D01*
X10386429Y-16228952D01*
X10376905Y-16219428D01*
X10367381Y-16200381D01*
X10357857Y-16162286D01*
X10357857Y-16114667D01*
X10367381Y-16076571D01*
X10376905Y-16057524D01*
X10386429Y-16048000D01*
X10405476Y-16038476D01*
X10557857Y-16219428D02*
X10567381Y-16228952D01*
X10557857Y-16238476D01*
X10548333Y-16228952D01*
X10557857Y-16219428D01*
X10557857Y-16238476D01*
X10757857Y-16238476D02*
X10643571Y-16238476D01*
X10700714Y-16238476D02*
X10700714Y-16038476D01*
X10681667Y-16067048D01*
X10662619Y-16086095D01*
X10643571Y-16095619D01*
X10948333Y-16238476D02*
X10834048Y-16238476D01*
X10891190Y-16238476D02*
X10891190Y-16038476D01*
X10872143Y-16067048D01*
X10853095Y-16086095D01*
X10834048Y-16095619D01*
X11062619Y-16124190D02*
X11043571Y-16114667D01*
X11034048Y-16105143D01*
X11024524Y-16086095D01*
X11024524Y-16076571D01*
X11034048Y-16057524D01*
X11043571Y-16048000D01*
X11062619Y-16038476D01*
X11100714Y-16038476D01*
X11119762Y-16048000D01*
X11129286Y-16057524D01*
X11138810Y-16076571D01*
X11138810Y-16086095D01*
X11129286Y-16105143D01*
X11119762Y-16114667D01*
X11100714Y-16124190D01*
X11062619Y-16124190D01*
X11043571Y-16133714D01*
X11034048Y-16143238D01*
X11024524Y-16162286D01*
X11024524Y-16200381D01*
X11034048Y-16219428D01*
X11043571Y-16228952D01*
X11062619Y-16238476D01*
X11100714Y-16238476D01*
X11119762Y-16228952D01*
X11129286Y-16219428D01*
X11138810Y-16200381D01*
X11138810Y-16162286D01*
X11129286Y-16143238D01*
X11119762Y-16133714D01*
X11100714Y-16124190D01*
X11329286Y-16238476D02*
X11215000Y-16238476D01*
X11272143Y-16238476D02*
X11272143Y-16038476D01*
X11253095Y-16067048D01*
X11234048Y-16086095D01*
X11215000Y-16095619D01*
X11405476Y-16038476D02*
X11405476Y-16076571D01*
X11481667Y-16038476D02*
X11481667Y-16076571D01*
X11776905Y-16314667D02*
X11767381Y-16305143D01*
X11748333Y-16276571D01*
X11738809Y-16257524D01*
X11729286Y-16228952D01*
X11719762Y-16181333D01*
X11719762Y-16143238D01*
X11729286Y-16095619D01*
X11738809Y-16067048D01*
X11748333Y-16048000D01*
X11767381Y-16019428D01*
X11776905Y-16009905D01*
X11881667Y-16124190D02*
X11862619Y-16114667D01*
X11853095Y-16105143D01*
X11843571Y-16086095D01*
X11843571Y-16076571D01*
X11853095Y-16057524D01*
X11862619Y-16048000D01*
X11881667Y-16038476D01*
X11919762Y-16038476D01*
X11938809Y-16048000D01*
X11948333Y-16057524D01*
X11957857Y-16076571D01*
X11957857Y-16086095D01*
X11948333Y-16105143D01*
X11938809Y-16114667D01*
X11919762Y-16124190D01*
X11881667Y-16124190D01*
X11862619Y-16133714D01*
X11853095Y-16143238D01*
X11843571Y-16162286D01*
X11843571Y-16200381D01*
X11853095Y-16219428D01*
X11862619Y-16228952D01*
X11881667Y-16238476D01*
X11919762Y-16238476D01*
X11938809Y-16228952D01*
X11948333Y-16219428D01*
X11957857Y-16200381D01*
X11957857Y-16162286D01*
X11948333Y-16143238D01*
X11938809Y-16133714D01*
X11919762Y-16124190D01*
X12024524Y-16038476D02*
X12157857Y-16038476D01*
X12072143Y-16238476D01*
X12386428Y-16238476D02*
X12386428Y-16038476D01*
X12472143Y-16238476D02*
X12472143Y-16133714D01*
X12462619Y-16114667D01*
X12443571Y-16105143D01*
X12415000Y-16105143D01*
X12395952Y-16114667D01*
X12386428Y-16124190D01*
X12595952Y-16238476D02*
X12576905Y-16228952D01*
X12567381Y-16219428D01*
X12557857Y-16200381D01*
X12557857Y-16143238D01*
X12567381Y-16124190D01*
X12576905Y-16114667D01*
X12595952Y-16105143D01*
X12624524Y-16105143D01*
X12643571Y-16114667D01*
X12653095Y-16124190D01*
X12662619Y-16143238D01*
X12662619Y-16200381D01*
X12653095Y-16219428D01*
X12643571Y-16228952D01*
X12624524Y-16238476D01*
X12595952Y-16238476D01*
X12776905Y-16238476D02*
X12757857Y-16228952D01*
X12748333Y-16209905D01*
X12748333Y-16038476D01*
X12929286Y-16228952D02*
X12910238Y-16238476D01*
X12872143Y-16238476D01*
X12853095Y-16228952D01*
X12843571Y-16209905D01*
X12843571Y-16133714D01*
X12853095Y-16114667D01*
X12872143Y-16105143D01*
X12910238Y-16105143D01*
X12929286Y-16114667D01*
X12938809Y-16133714D01*
X12938809Y-16152762D01*
X12843571Y-16171809D01*
X13015000Y-16228952D02*
X13034048Y-16238476D01*
X13072143Y-16238476D01*
X13091190Y-16228952D01*
X13100714Y-16209905D01*
X13100714Y-16200381D01*
X13091190Y-16181333D01*
X13072143Y-16171809D01*
X13043571Y-16171809D01*
X13024524Y-16162286D01*
X13015000Y-16143238D01*
X13015000Y-16133714D01*
X13024524Y-16114667D01*
X13043571Y-16105143D01*
X13072143Y-16105143D01*
X13091190Y-16114667D01*
X13167381Y-16314667D02*
X13176905Y-16305143D01*
X13195952Y-16276571D01*
X13205476Y-16257524D01*
X13215000Y-16228952D01*
X13224524Y-16181333D01*
X13224524Y-16143238D01*
X13215000Y-16095619D01*
X13205476Y-16067048D01*
X13195952Y-16048000D01*
X13176905Y-16019428D01*
X13167381Y-16009905D01*
X13529286Y-16314667D02*
X13519762Y-16305143D01*
X13500714Y-16276571D01*
X13491190Y-16257524D01*
X13481667Y-16228952D01*
X13472143Y-16181333D01*
X13472143Y-16143238D01*
X13481667Y-16095619D01*
X13491190Y-16067048D01*
X13500714Y-16048000D01*
X13519762Y-16019428D01*
X13529286Y-16009905D01*
X13605476Y-16105143D02*
X13605476Y-16238476D01*
X13605476Y-16124190D02*
X13615000Y-16114667D01*
X13634048Y-16105143D01*
X13662619Y-16105143D01*
X13681667Y-16114667D01*
X13691190Y-16133714D01*
X13691190Y-16238476D01*
X13815000Y-16238476D02*
X13795952Y-16228952D01*
X13786428Y-16219428D01*
X13776905Y-16200381D01*
X13776905Y-16143238D01*
X13786428Y-16124190D01*
X13795952Y-16114667D01*
X13815000Y-16105143D01*
X13843571Y-16105143D01*
X13862619Y-16114667D01*
X13872143Y-16124190D01*
X13881667Y-16143238D01*
X13881667Y-16200381D01*
X13872143Y-16219428D01*
X13862619Y-16228952D01*
X13843571Y-16238476D01*
X13815000Y-16238476D01*
X13938809Y-16105143D02*
X14015000Y-16105143D01*
X13967381Y-16038476D02*
X13967381Y-16209905D01*
X13976905Y-16228952D01*
X13995952Y-16238476D01*
X14015000Y-16238476D01*
X14234048Y-16105143D02*
X14234048Y-16305143D01*
X14234048Y-16114667D02*
X14253095Y-16105143D01*
X14291190Y-16105143D01*
X14310238Y-16114667D01*
X14319762Y-16124190D01*
X14329286Y-16143238D01*
X14329286Y-16200381D01*
X14319762Y-16219428D01*
X14310238Y-16228952D01*
X14291190Y-16238476D01*
X14253095Y-16238476D01*
X14234048Y-16228952D01*
X14443571Y-16238476D02*
X14424524Y-16228952D01*
X14415000Y-16209905D01*
X14415000Y-16038476D01*
X14605476Y-16238476D02*
X14605476Y-16133714D01*
X14595952Y-16114667D01*
X14576905Y-16105143D01*
X14538809Y-16105143D01*
X14519762Y-16114667D01*
X14605476Y-16228952D02*
X14586428Y-16238476D01*
X14538809Y-16238476D01*
X14519762Y-16228952D01*
X14510238Y-16209905D01*
X14510238Y-16190857D01*
X14519762Y-16171809D01*
X14538809Y-16162286D01*
X14586428Y-16162286D01*
X14605476Y-16152762D01*
X14672143Y-16105143D02*
X14748333Y-16105143D01*
X14700714Y-16038476D02*
X14700714Y-16209905D01*
X14710238Y-16228952D01*
X14729286Y-16238476D01*
X14748333Y-16238476D01*
X14891190Y-16228952D02*
X14872143Y-16238476D01*
X14834048Y-16238476D01*
X14815000Y-16228952D01*
X14805476Y-16209905D01*
X14805476Y-16133714D01*
X14815000Y-16114667D01*
X14834048Y-16105143D01*
X14872143Y-16105143D01*
X14891190Y-16114667D01*
X14900714Y-16133714D01*
X14900714Y-16152762D01*
X14805476Y-16171809D01*
X15072143Y-16238476D02*
X15072143Y-16038476D01*
X15072143Y-16228952D02*
X15053095Y-16238476D01*
X15015000Y-16238476D01*
X14995952Y-16228952D01*
X14986428Y-16219428D01*
X14976905Y-16200381D01*
X14976905Y-16143238D01*
X14986428Y-16124190D01*
X14995952Y-16114667D01*
X15015000Y-16105143D01*
X15053095Y-16105143D01*
X15072143Y-16114667D01*
X15148333Y-16314667D02*
X15157857Y-16305143D01*
X15176905Y-16276571D01*
X15186428Y-16257524D01*
X15195952Y-16228952D01*
X15205476Y-16181333D01*
X15205476Y-16143238D01*
X15195952Y-16095619D01*
X15186428Y-16067048D01*
X15176905Y-16048000D01*
X15157857Y-16019428D01*
X15148333Y-16009905D01*
X8105000Y-16568000D02*
X8205000Y-16468000D01*
X8105000Y-16368000D01*
X8005000Y-16468000D01*
X8105000Y-16568000D01*
X8443571Y-16358476D02*
X8567381Y-16358476D01*
X8500714Y-16434667D01*
X8529286Y-16434667D01*
X8548333Y-16444190D01*
X8557857Y-16453714D01*
X8567381Y-16472762D01*
X8567381Y-16520381D01*
X8557857Y-16539428D01*
X8548333Y-16548952D01*
X8529286Y-16558476D01*
X8472143Y-16558476D01*
X8453095Y-16548952D01*
X8443571Y-16539428D01*
X8653095Y-16539428D02*
X8662619Y-16548952D01*
X8653095Y-16558476D01*
X8643571Y-16548952D01*
X8653095Y-16539428D01*
X8653095Y-16558476D01*
X8834048Y-16425143D02*
X8834048Y-16558476D01*
X8786429Y-16348952D02*
X8738810Y-16491809D01*
X8862619Y-16491809D01*
X8976905Y-16358476D02*
X8995952Y-16358476D01*
X9015000Y-16368000D01*
X9024524Y-16377524D01*
X9034048Y-16396571D01*
X9043571Y-16434667D01*
X9043571Y-16482286D01*
X9034048Y-16520381D01*
X9024524Y-16539428D01*
X9015000Y-16548952D01*
X8995952Y-16558476D01*
X8976905Y-16558476D01*
X8957857Y-16548952D01*
X8948333Y-16539428D01*
X8938810Y-16520381D01*
X8929286Y-16482286D01*
X8929286Y-16434667D01*
X8938810Y-16396571D01*
X8948333Y-16377524D01*
X8957857Y-16368000D01*
X8976905Y-16358476D01*
X9167381Y-16358476D02*
X9186429Y-16358476D01*
X9205476Y-16368000D01*
X9215000Y-16377524D01*
X9224524Y-16396571D01*
X9234048Y-16434667D01*
X9234048Y-16482286D01*
X9224524Y-16520381D01*
X9215000Y-16539428D01*
X9205476Y-16548952D01*
X9186429Y-16558476D01*
X9167381Y-16558476D01*
X9148333Y-16548952D01*
X9138810Y-16539428D01*
X9129286Y-16520381D01*
X9119762Y-16482286D01*
X9119762Y-16434667D01*
X9129286Y-16396571D01*
X9138810Y-16377524D01*
X9148333Y-16368000D01*
X9167381Y-16358476D01*
X9319762Y-16558476D02*
X9319762Y-16425143D01*
X9319762Y-16444190D02*
X9329286Y-16434667D01*
X9348333Y-16425143D01*
X9376905Y-16425143D01*
X9395952Y-16434667D01*
X9405476Y-16453714D01*
X9405476Y-16558476D01*
X9405476Y-16453714D02*
X9415000Y-16434667D01*
X9434048Y-16425143D01*
X9462619Y-16425143D01*
X9481667Y-16434667D01*
X9491190Y-16453714D01*
X9491190Y-16558476D01*
X9586429Y-16558476D02*
X9586429Y-16425143D01*
X9586429Y-16444190D02*
X9595952Y-16434667D01*
X9615000Y-16425143D01*
X9643571Y-16425143D01*
X9662619Y-16434667D01*
X9672143Y-16453714D01*
X9672143Y-16558476D01*
X9672143Y-16453714D02*
X9681667Y-16434667D01*
X9700714Y-16425143D01*
X9729286Y-16425143D01*
X9748333Y-16434667D01*
X9757857Y-16453714D01*
X9757857Y-16558476D01*
X10148333Y-16348952D02*
X9976905Y-16606095D01*
X10405476Y-16358476D02*
X10424524Y-16358476D01*
X10443571Y-16368000D01*
X10453095Y-16377524D01*
X10462619Y-16396571D01*
X10472143Y-16434667D01*
X10472143Y-16482286D01*
X10462619Y-16520381D01*
X10453095Y-16539428D01*
X10443571Y-16548952D01*
X10424524Y-16558476D01*
X10405476Y-16558476D01*
X10386429Y-16548952D01*
X10376905Y-16539428D01*
X10367381Y-16520381D01*
X10357857Y-16482286D01*
X10357857Y-16434667D01*
X10367381Y-16396571D01*
X10376905Y-16377524D01*
X10386429Y-16368000D01*
X10405476Y-16358476D01*
X10557857Y-16539428D02*
X10567381Y-16548952D01*
X10557857Y-16558476D01*
X10548333Y-16548952D01*
X10557857Y-16539428D01*
X10557857Y-16558476D01*
X10757857Y-16558476D02*
X10643571Y-16558476D01*
X10700714Y-16558476D02*
X10700714Y-16358476D01*
X10681667Y-16387048D01*
X10662619Y-16406095D01*
X10643571Y-16415619D01*
X10824524Y-16358476D02*
X10948333Y-16358476D01*
X10881667Y-16434667D01*
X10910238Y-16434667D01*
X10929286Y-16444190D01*
X10938810Y-16453714D01*
X10948333Y-16472762D01*
X10948333Y-16520381D01*
X10938810Y-16539428D01*
X10929286Y-16548952D01*
X10910238Y-16558476D01*
X10853095Y-16558476D01*
X10834048Y-16548952D01*
X10824524Y-16539428D01*
X11015000Y-16358476D02*
X11138810Y-16358476D01*
X11072143Y-16434667D01*
X11100714Y-16434667D01*
X11119762Y-16444190D01*
X11129286Y-16453714D01*
X11138810Y-16472762D01*
X11138810Y-16520381D01*
X11129286Y-16539428D01*
X11119762Y-16548952D01*
X11100714Y-16558476D01*
X11043571Y-16558476D01*
X11024524Y-16548952D01*
X11015000Y-16539428D01*
X11234048Y-16558476D02*
X11272143Y-16558476D01*
X11291190Y-16548952D01*
X11300714Y-16539428D01*
X11319762Y-16510857D01*
X11329286Y-16472762D01*
X11329286Y-16396571D01*
X11319762Y-16377524D01*
X11310238Y-16368000D01*
X11291190Y-16358476D01*
X11253095Y-16358476D01*
X11234048Y-16368000D01*
X11224524Y-16377524D01*
X11215000Y-16396571D01*
X11215000Y-16444190D01*
X11224524Y-16463238D01*
X11234048Y-16472762D01*
X11253095Y-16482286D01*
X11291190Y-16482286D01*
X11310238Y-16472762D01*
X11319762Y-16463238D01*
X11329286Y-16444190D01*
X11405476Y-16358476D02*
X11405476Y-16396571D01*
X11481667Y-16358476D02*
X11481667Y-16396571D01*
X11776905Y-16634667D02*
X11767381Y-16625143D01*
X11748333Y-16596571D01*
X11738809Y-16577524D01*
X11729286Y-16548952D01*
X11719762Y-16501333D01*
X11719762Y-16463238D01*
X11729286Y-16415619D01*
X11738809Y-16387048D01*
X11748333Y-16368000D01*
X11767381Y-16339428D01*
X11776905Y-16329905D01*
X11834048Y-16358476D02*
X11957857Y-16358476D01*
X11891190Y-16434667D01*
X11919762Y-16434667D01*
X11938809Y-16444190D01*
X11948333Y-16453714D01*
X11957857Y-16472762D01*
X11957857Y-16520381D01*
X11948333Y-16539428D01*
X11938809Y-16548952D01*
X11919762Y-16558476D01*
X11862619Y-16558476D01*
X11843571Y-16548952D01*
X11834048Y-16539428D01*
X12081667Y-16358476D02*
X12100714Y-16358476D01*
X12119762Y-16368000D01*
X12129286Y-16377524D01*
X12138809Y-16396571D01*
X12148333Y-16434667D01*
X12148333Y-16482286D01*
X12138809Y-16520381D01*
X12129286Y-16539428D01*
X12119762Y-16548952D01*
X12100714Y-16558476D01*
X12081667Y-16558476D01*
X12062619Y-16548952D01*
X12053095Y-16539428D01*
X12043571Y-16520381D01*
X12034048Y-16482286D01*
X12034048Y-16434667D01*
X12043571Y-16396571D01*
X12053095Y-16377524D01*
X12062619Y-16368000D01*
X12081667Y-16358476D01*
X12386428Y-16558476D02*
X12386428Y-16358476D01*
X12472143Y-16558476D02*
X12472143Y-16453714D01*
X12462619Y-16434667D01*
X12443571Y-16425143D01*
X12415000Y-16425143D01*
X12395952Y-16434667D01*
X12386428Y-16444190D01*
X12595952Y-16558476D02*
X12576905Y-16548952D01*
X12567381Y-16539428D01*
X12557857Y-16520381D01*
X12557857Y-16463238D01*
X12567381Y-16444190D01*
X12576905Y-16434667D01*
X12595952Y-16425143D01*
X12624524Y-16425143D01*
X12643571Y-16434667D01*
X12653095Y-16444190D01*
X12662619Y-16463238D01*
X12662619Y-16520381D01*
X12653095Y-16539428D01*
X12643571Y-16548952D01*
X12624524Y-16558476D01*
X12595952Y-16558476D01*
X12776905Y-16558476D02*
X12757857Y-16548952D01*
X12748333Y-16529905D01*
X12748333Y-16358476D01*
X12929286Y-16548952D02*
X12910238Y-16558476D01*
X12872143Y-16558476D01*
X12853095Y-16548952D01*
X12843571Y-16529905D01*
X12843571Y-16453714D01*
X12853095Y-16434667D01*
X12872143Y-16425143D01*
X12910238Y-16425143D01*
X12929286Y-16434667D01*
X12938809Y-16453714D01*
X12938809Y-16472762D01*
X12843571Y-16491809D01*
X13015000Y-16548952D02*
X13034048Y-16558476D01*
X13072143Y-16558476D01*
X13091190Y-16548952D01*
X13100714Y-16529905D01*
X13100714Y-16520381D01*
X13091190Y-16501333D01*
X13072143Y-16491809D01*
X13043571Y-16491809D01*
X13024524Y-16482286D01*
X13015000Y-16463238D01*
X13015000Y-16453714D01*
X13024524Y-16434667D01*
X13043571Y-16425143D01*
X13072143Y-16425143D01*
X13091190Y-16434667D01*
X13167381Y-16634667D02*
X13176905Y-16625143D01*
X13195952Y-16596571D01*
X13205476Y-16577524D01*
X13215000Y-16548952D01*
X13224524Y-16501333D01*
X13224524Y-16463238D01*
X13215000Y-16415619D01*
X13205476Y-16387048D01*
X13195952Y-16368000D01*
X13176905Y-16339428D01*
X13167381Y-16329905D01*
X13529286Y-16634667D02*
X13519762Y-16625143D01*
X13500714Y-16596571D01*
X13491190Y-16577524D01*
X13481667Y-16548952D01*
X13472143Y-16501333D01*
X13472143Y-16463238D01*
X13481667Y-16415619D01*
X13491190Y-16387048D01*
X13500714Y-16368000D01*
X13519762Y-16339428D01*
X13529286Y-16329905D01*
X13605476Y-16425143D02*
X13605476Y-16558476D01*
X13605476Y-16444190D02*
X13615000Y-16434667D01*
X13634048Y-16425143D01*
X13662619Y-16425143D01*
X13681667Y-16434667D01*
X13691190Y-16453714D01*
X13691190Y-16558476D01*
X13815000Y-16558476D02*
X13795952Y-16548952D01*
X13786428Y-16539428D01*
X13776905Y-16520381D01*
X13776905Y-16463238D01*
X13786428Y-16444190D01*
X13795952Y-16434667D01*
X13815000Y-16425143D01*
X13843571Y-16425143D01*
X13862619Y-16434667D01*
X13872143Y-16444190D01*
X13881667Y-16463238D01*
X13881667Y-16520381D01*
X13872143Y-16539428D01*
X13862619Y-16548952D01*
X13843571Y-16558476D01*
X13815000Y-16558476D01*
X13938809Y-16425143D02*
X14015000Y-16425143D01*
X13967381Y-16358476D02*
X13967381Y-16529905D01*
X13976905Y-16548952D01*
X13995952Y-16558476D01*
X14015000Y-16558476D01*
X14234048Y-16425143D02*
X14234048Y-16625143D01*
X14234048Y-16434667D02*
X14253095Y-16425143D01*
X14291190Y-16425143D01*
X14310238Y-16434667D01*
X14319762Y-16444190D01*
X14329286Y-16463238D01*
X14329286Y-16520381D01*
X14319762Y-16539428D01*
X14310238Y-16548952D01*
X14291190Y-16558476D01*
X14253095Y-16558476D01*
X14234048Y-16548952D01*
X14443571Y-16558476D02*
X14424524Y-16548952D01*
X14415000Y-16529905D01*
X14415000Y-16358476D01*
X14605476Y-16558476D02*
X14605476Y-16453714D01*
X14595952Y-16434667D01*
X14576905Y-16425143D01*
X14538809Y-16425143D01*
X14519762Y-16434667D01*
X14605476Y-16548952D02*
X14586428Y-16558476D01*
X14538809Y-16558476D01*
X14519762Y-16548952D01*
X14510238Y-16529905D01*
X14510238Y-16510857D01*
X14519762Y-16491809D01*
X14538809Y-16482286D01*
X14586428Y-16482286D01*
X14605476Y-16472762D01*
X14672143Y-16425143D02*
X14748333Y-16425143D01*
X14700714Y-16358476D02*
X14700714Y-16529905D01*
X14710238Y-16548952D01*
X14729286Y-16558476D01*
X14748333Y-16558476D01*
X14891190Y-16548952D02*
X14872143Y-16558476D01*
X14834048Y-16558476D01*
X14815000Y-16548952D01*
X14805476Y-16529905D01*
X14805476Y-16453714D01*
X14815000Y-16434667D01*
X14834048Y-16425143D01*
X14872143Y-16425143D01*
X14891190Y-16434667D01*
X14900714Y-16453714D01*
X14900714Y-16472762D01*
X14805476Y-16491809D01*
X15072143Y-16558476D02*
X15072143Y-16358476D01*
X15072143Y-16548952D02*
X15053095Y-16558476D01*
X15015000Y-16558476D01*
X14995952Y-16548952D01*
X14986428Y-16539428D01*
X14976905Y-16520381D01*
X14976905Y-16463238D01*
X14986428Y-16444190D01*
X14995952Y-16434667D01*
X15015000Y-16425143D01*
X15053095Y-16425143D01*
X15072143Y-16434667D01*
X15148333Y-16634667D02*
X15157857Y-16625143D01*
X15176905Y-16596571D01*
X15186428Y-16577524D01*
X15195952Y-16548952D01*
X15205476Y-16501333D01*
X15205476Y-16463238D01*
X15195952Y-16415619D01*
X15186428Y-16387048D01*
X15176905Y-16368000D01*
X15157857Y-16339428D01*
X15148333Y-16329905D01*
X8005000Y-16688000D02*
X8205000Y-16888000D01*
X8205000Y-16688000D02*
X8005000Y-16888000D01*
X8205000Y-16788000D02*
G75*
G03*
X8205000Y-16788000I-100000J0D01*
G01*
X8548333Y-16745143D02*
X8548333Y-16878476D01*
X8500714Y-16668952D02*
X8453095Y-16811810D01*
X8576905Y-16811810D01*
X8653095Y-16859429D02*
X8662619Y-16868952D01*
X8653095Y-16878476D01*
X8643571Y-16868952D01*
X8653095Y-16859429D01*
X8653095Y-16878476D01*
X8853095Y-16878476D02*
X8738810Y-16878476D01*
X8795952Y-16878476D02*
X8795952Y-16678476D01*
X8776905Y-16707048D01*
X8757857Y-16726095D01*
X8738810Y-16735619D01*
X8976905Y-16678476D02*
X8995952Y-16678476D01*
X9015000Y-16688000D01*
X9024524Y-16697524D01*
X9034048Y-16716571D01*
X9043571Y-16754667D01*
X9043571Y-16802286D01*
X9034048Y-16840381D01*
X9024524Y-16859429D01*
X9015000Y-16868952D01*
X8995952Y-16878476D01*
X8976905Y-16878476D01*
X8957857Y-16868952D01*
X8948333Y-16859429D01*
X8938810Y-16840381D01*
X8929286Y-16802286D01*
X8929286Y-16754667D01*
X8938810Y-16716571D01*
X8948333Y-16697524D01*
X8957857Y-16688000D01*
X8976905Y-16678476D01*
X9167381Y-16678476D02*
X9186429Y-16678476D01*
X9205476Y-16688000D01*
X9215000Y-16697524D01*
X9224524Y-16716571D01*
X9234048Y-16754667D01*
X9234048Y-16802286D01*
X9224524Y-16840381D01*
X9215000Y-16859429D01*
X9205476Y-16868952D01*
X9186429Y-16878476D01*
X9167381Y-16878476D01*
X9148333Y-16868952D01*
X9138810Y-16859429D01*
X9129286Y-16840381D01*
X9119762Y-16802286D01*
X9119762Y-16754667D01*
X9129286Y-16716571D01*
X9138810Y-16697524D01*
X9148333Y-16688000D01*
X9167381Y-16678476D01*
X9319762Y-16878476D02*
X9319762Y-16745143D01*
X9319762Y-16764190D02*
X9329286Y-16754667D01*
X9348333Y-16745143D01*
X9376905Y-16745143D01*
X9395952Y-16754667D01*
X9405476Y-16773714D01*
X9405476Y-16878476D01*
X9405476Y-16773714D02*
X9415000Y-16754667D01*
X9434048Y-16745143D01*
X9462619Y-16745143D01*
X9481667Y-16754667D01*
X9491190Y-16773714D01*
X9491190Y-16878476D01*
X9586429Y-16878476D02*
X9586429Y-16745143D01*
X9586429Y-16764190D02*
X9595952Y-16754667D01*
X9615000Y-16745143D01*
X9643571Y-16745143D01*
X9662619Y-16754667D01*
X9672143Y-16773714D01*
X9672143Y-16878476D01*
X9672143Y-16773714D02*
X9681667Y-16754667D01*
X9700714Y-16745143D01*
X9729286Y-16745143D01*
X9748333Y-16754667D01*
X9757857Y-16773714D01*
X9757857Y-16878476D01*
X10148333Y-16668952D02*
X9976905Y-16926095D01*
X10405476Y-16678476D02*
X10424524Y-16678476D01*
X10443571Y-16688000D01*
X10453095Y-16697524D01*
X10462619Y-16716571D01*
X10472143Y-16754667D01*
X10472143Y-16802286D01*
X10462619Y-16840381D01*
X10453095Y-16859429D01*
X10443571Y-16868952D01*
X10424524Y-16878476D01*
X10405476Y-16878476D01*
X10386429Y-16868952D01*
X10376905Y-16859429D01*
X10367381Y-16840381D01*
X10357857Y-16802286D01*
X10357857Y-16754667D01*
X10367381Y-16716571D01*
X10376905Y-16697524D01*
X10386429Y-16688000D01*
X10405476Y-16678476D01*
X10557857Y-16859429D02*
X10567381Y-16868952D01*
X10557857Y-16878476D01*
X10548333Y-16868952D01*
X10557857Y-16859429D01*
X10557857Y-16878476D01*
X10757857Y-16878476D02*
X10643571Y-16878476D01*
X10700714Y-16878476D02*
X10700714Y-16678476D01*
X10681667Y-16707048D01*
X10662619Y-16726095D01*
X10643571Y-16735619D01*
X10929286Y-16678476D02*
X10891190Y-16678476D01*
X10872143Y-16688000D01*
X10862619Y-16697524D01*
X10843571Y-16726095D01*
X10834048Y-16764190D01*
X10834048Y-16840381D01*
X10843571Y-16859429D01*
X10853095Y-16868952D01*
X10872143Y-16878476D01*
X10910238Y-16878476D01*
X10929286Y-16868952D01*
X10938810Y-16859429D01*
X10948333Y-16840381D01*
X10948333Y-16792762D01*
X10938810Y-16773714D01*
X10929286Y-16764190D01*
X10910238Y-16754667D01*
X10872143Y-16754667D01*
X10853095Y-16764190D01*
X10843571Y-16773714D01*
X10834048Y-16792762D01*
X11138810Y-16878476D02*
X11024524Y-16878476D01*
X11081667Y-16878476D02*
X11081667Y-16678476D01*
X11062619Y-16707048D01*
X11043571Y-16726095D01*
X11024524Y-16735619D01*
X11310238Y-16745143D02*
X11310238Y-16878476D01*
X11262619Y-16668952D02*
X11215000Y-16811810D01*
X11338809Y-16811810D01*
X11405476Y-16678476D02*
X11405476Y-16716571D01*
X11481667Y-16678476D02*
X11481667Y-16716571D01*
X11776905Y-16954667D02*
X11767381Y-16945143D01*
X11748333Y-16916571D01*
X11738809Y-16897524D01*
X11729286Y-16868952D01*
X11719762Y-16821333D01*
X11719762Y-16783238D01*
X11729286Y-16735619D01*
X11738809Y-16707048D01*
X11748333Y-16688000D01*
X11767381Y-16659428D01*
X11776905Y-16649905D01*
X11948333Y-16678476D02*
X11853095Y-16678476D01*
X11843571Y-16773714D01*
X11853095Y-16764190D01*
X11872143Y-16754667D01*
X11919762Y-16754667D01*
X11938809Y-16764190D01*
X11948333Y-16773714D01*
X11957857Y-16792762D01*
X11957857Y-16840381D01*
X11948333Y-16859429D01*
X11938809Y-16868952D01*
X11919762Y-16878476D01*
X11872143Y-16878476D01*
X11853095Y-16868952D01*
X11843571Y-16859429D01*
X12195952Y-16878476D02*
X12195952Y-16678476D01*
X12281667Y-16878476D02*
X12281667Y-16773714D01*
X12272143Y-16754667D01*
X12253095Y-16745143D01*
X12224524Y-16745143D01*
X12205476Y-16754667D01*
X12195952Y-16764190D01*
X12405476Y-16878476D02*
X12386428Y-16868952D01*
X12376905Y-16859429D01*
X12367381Y-16840381D01*
X12367381Y-16783238D01*
X12376905Y-16764190D01*
X12386428Y-16754667D01*
X12405476Y-16745143D01*
X12434048Y-16745143D01*
X12453095Y-16754667D01*
X12462619Y-16764190D01*
X12472143Y-16783238D01*
X12472143Y-16840381D01*
X12462619Y-16859429D01*
X12453095Y-16868952D01*
X12434048Y-16878476D01*
X12405476Y-16878476D01*
X12586428Y-16878476D02*
X12567381Y-16868952D01*
X12557857Y-16849905D01*
X12557857Y-16678476D01*
X12738809Y-16868952D02*
X12719762Y-16878476D01*
X12681667Y-16878476D01*
X12662619Y-16868952D01*
X12653095Y-16849905D01*
X12653095Y-16773714D01*
X12662619Y-16754667D01*
X12681667Y-16745143D01*
X12719762Y-16745143D01*
X12738809Y-16754667D01*
X12748333Y-16773714D01*
X12748333Y-16792762D01*
X12653095Y-16811810D01*
X12824524Y-16868952D02*
X12843571Y-16878476D01*
X12881667Y-16878476D01*
X12900714Y-16868952D01*
X12910238Y-16849905D01*
X12910238Y-16840381D01*
X12900714Y-16821333D01*
X12881667Y-16811810D01*
X12853095Y-16811810D01*
X12834048Y-16802286D01*
X12824524Y-16783238D01*
X12824524Y-16773714D01*
X12834048Y-16754667D01*
X12853095Y-16745143D01*
X12881667Y-16745143D01*
X12900714Y-16754667D01*
X12976905Y-16954667D02*
X12986428Y-16945143D01*
X13005476Y-16916571D01*
X13015000Y-16897524D01*
X13024524Y-16868952D01*
X13034048Y-16821333D01*
X13034048Y-16783238D01*
X13024524Y-16735619D01*
X13015000Y-16707048D01*
X13005476Y-16688000D01*
X12986428Y-16659428D01*
X12976905Y-16649905D01*
X13338809Y-16954667D02*
X13329286Y-16945143D01*
X13310238Y-16916571D01*
X13300714Y-16897524D01*
X13291190Y-16868952D01*
X13281667Y-16821333D01*
X13281667Y-16783238D01*
X13291190Y-16735619D01*
X13300714Y-16707048D01*
X13310238Y-16688000D01*
X13329286Y-16659428D01*
X13338809Y-16649905D01*
X13415000Y-16745143D02*
X13415000Y-16878476D01*
X13415000Y-16764190D02*
X13424524Y-16754667D01*
X13443571Y-16745143D01*
X13472143Y-16745143D01*
X13491190Y-16754667D01*
X13500714Y-16773714D01*
X13500714Y-16878476D01*
X13624524Y-16878476D02*
X13605476Y-16868952D01*
X13595952Y-16859429D01*
X13586428Y-16840381D01*
X13586428Y-16783238D01*
X13595952Y-16764190D01*
X13605476Y-16754667D01*
X13624524Y-16745143D01*
X13653095Y-16745143D01*
X13672143Y-16754667D01*
X13681667Y-16764190D01*
X13691190Y-16783238D01*
X13691190Y-16840381D01*
X13681667Y-16859429D01*
X13672143Y-16868952D01*
X13653095Y-16878476D01*
X13624524Y-16878476D01*
X13748333Y-16745143D02*
X13824524Y-16745143D01*
X13776905Y-16678476D02*
X13776905Y-16849905D01*
X13786428Y-16868952D01*
X13805476Y-16878476D01*
X13824524Y-16878476D01*
X14043571Y-16745143D02*
X14043571Y-16945143D01*
X14043571Y-16754667D02*
X14062619Y-16745143D01*
X14100714Y-16745143D01*
X14119762Y-16754667D01*
X14129286Y-16764190D01*
X14138809Y-16783238D01*
X14138809Y-16840381D01*
X14129286Y-16859429D01*
X14119762Y-16868952D01*
X14100714Y-16878476D01*
X14062619Y-16878476D01*
X14043571Y-16868952D01*
X14253095Y-16878476D02*
X14234048Y-16868952D01*
X14224524Y-16849905D01*
X14224524Y-16678476D01*
X14415000Y-16878476D02*
X14415000Y-16773714D01*
X14405476Y-16754667D01*
X14386428Y-16745143D01*
X14348333Y-16745143D01*
X14329286Y-16754667D01*
X14415000Y-16868952D02*
X14395952Y-16878476D01*
X14348333Y-16878476D01*
X14329286Y-16868952D01*
X14319762Y-16849905D01*
X14319762Y-16830857D01*
X14329286Y-16811810D01*
X14348333Y-16802286D01*
X14395952Y-16802286D01*
X14415000Y-16792762D01*
X14481667Y-16745143D02*
X14557857Y-16745143D01*
X14510238Y-16678476D02*
X14510238Y-16849905D01*
X14519762Y-16868952D01*
X14538809Y-16878476D01*
X14557857Y-16878476D01*
X14700714Y-16868952D02*
X14681667Y-16878476D01*
X14643571Y-16878476D01*
X14624524Y-16868952D01*
X14615000Y-16849905D01*
X14615000Y-16773714D01*
X14624524Y-16754667D01*
X14643571Y-16745143D01*
X14681667Y-16745143D01*
X14700714Y-16754667D01*
X14710238Y-16773714D01*
X14710238Y-16792762D01*
X14615000Y-16811810D01*
X14881667Y-16878476D02*
X14881667Y-16678476D01*
X14881667Y-16868952D02*
X14862619Y-16878476D01*
X14824524Y-16878476D01*
X14805476Y-16868952D01*
X14795952Y-16859429D01*
X14786428Y-16840381D01*
X14786428Y-16783238D01*
X14795952Y-16764190D01*
X14805476Y-16754667D01*
X14824524Y-16745143D01*
X14862619Y-16745143D01*
X14881667Y-16754667D01*
X14957857Y-16954667D02*
X14967381Y-16945143D01*
X14986428Y-16916571D01*
X14995952Y-16897524D01*
X15005476Y-16868952D01*
X15015000Y-16821333D01*
X15015000Y-16783238D01*
X15005476Y-16735619D01*
X14995952Y-16707048D01*
X14986428Y-16688000D01*
X14967381Y-16659428D01*
X14957857Y-16649905D01*
M02*
