%FSLAX45Y45*%
G04 Gerber Fmt 4.5, Leading zero omitted, Abs format (unit mm)*
G04 Created by KiCad (PCBNEW (6.0.5)) date 2023-01-29 18:01:03*
%MOMM*%
%LPD*%
G01*
G04 APERTURE LIST*
%TA.AperFunction,Profile*%
%ADD10C,0.100000*%
%TD*%
%ADD11C,0.200000*%
%ADD12C,0.030000*%
%ADD13C,0.075000*%
%ADD14C,0.081280*%
%ADD15C,0.130000*%
%ADD16C,0.150500*%
%ADD17C,0.170000*%
%ADD18C,0.220000*%
G04 APERTURE END LIST*
D10*
X8919368Y-3734881D02*
X8942585Y-3732540D01*
X8897744Y-3741594D02*
X8919368Y-3734881D01*
X8820000Y-11505000D02*
X8800000Y-11565000D01*
X8210000Y-12690000D02*
X8220000Y-12640000D01*
X8827526Y-11440000D02*
X8820000Y-11505000D01*
X8847059Y-3783333D02*
X8861126Y-3766283D01*
X8827386Y-3847743D02*
X8829726Y-3824526D01*
X8836438Y-3802901D02*
X8847059Y-3783333D01*
X8220000Y-12640000D02*
X8800000Y-11565000D01*
X8878175Y-3752216D02*
X8897744Y-3741594D01*
X8861126Y-3766283D02*
X8878175Y-3752216D01*
X8829726Y-3824526D02*
X8836438Y-3802901D01*
X22528388Y-4399781D02*
X22537028Y-4417867D01*
X9255000Y-14620000D02*
X8230000Y-12840000D01*
X17095000Y-3500000D02*
X22447544Y-4344515D01*
X22542438Y-4437457D02*
X22544318Y-4458190D01*
X22537028Y-4417867D02*
X22542438Y-4437457D01*
X22467711Y-4349678D02*
X22486187Y-4358147D01*
X22447544Y-4344515D02*
X22467711Y-4349678D01*
X9255000Y-14620000D02*
X9290000Y-14650000D01*
X13815413Y-13400000D02*
X18750000Y-13400000D01*
X8230000Y-12840000D02*
X8215000Y-12790000D01*
X8210000Y-12730000D02*
X8210000Y-12690000D01*
X9335000Y-14665000D02*
X9390000Y-14675000D01*
X8215000Y-12790000D02*
X8210000Y-12730000D01*
X9290000Y-14650000D02*
X9335000Y-14665000D01*
X22438639Y-11992865D02*
X18750000Y-13400000D01*
X22516832Y-4383558D02*
X22528388Y-4399781D01*
X22486187Y-4358147D02*
X22502662Y-4369560D01*
X14900000Y-3500000D02*
X17095000Y-3500000D01*
X22502662Y-4369560D02*
X22516832Y-4383558D01*
X13815413Y-13400000D02*
X9390000Y-14675000D01*
X22544318Y-4458190D02*
X22547018Y-11835000D01*
X22438637Y-11992859D02*
G75*
G03*
X22547018Y-11835000I-66657J161900D01*
G01*
X8827526Y-11440000D02*
X8827386Y-3847743D01*
X14900000Y-3500000D02*
X8942585Y-3732540D01*
X10943912Y-7800264D02*
X10953912Y-7840264D01*
X10953912Y-8490264D01*
X10943912Y-8520264D01*
X10923912Y-8540264D01*
X10123912Y-8540264D01*
X10103912Y-8520264D01*
X10093912Y-8490264D01*
X10093912Y-7840264D01*
X10103912Y-7800264D01*
X10133912Y-7780264D01*
X10913912Y-7780264D01*
X10943912Y-7800264D01*
D11*
D12*
X8668912Y-12775264D02*
X8698912Y-12805264D01*
X8698912Y-12775264D02*
X8668912Y-12805264D01*
X9052721Y-12616856D02*
X9082721Y-12646856D01*
X9082721Y-12616856D02*
X9052721Y-12646856D01*
X9161178Y-12795109D02*
X9191178Y-12825109D01*
X9191178Y-12795109D02*
X9161178Y-12825109D01*
X9228476Y-13343073D02*
X9258476Y-13373073D01*
X9258476Y-13343073D02*
X9228476Y-13373073D01*
X9328912Y-10055264D02*
X9358912Y-10085264D01*
X9358912Y-10055264D02*
X9328912Y-10085264D01*
X9348912Y-3885264D02*
X9378912Y-3915264D01*
X9378912Y-3885264D02*
X9348912Y-3915264D01*
X9438912Y-9945264D02*
X9468912Y-9975264D01*
X9468912Y-9945264D02*
X9438912Y-9975264D01*
X9468602Y-4735575D02*
X9498602Y-4765575D01*
X9498602Y-4735575D02*
X9468602Y-4765575D01*
X9499102Y-12559098D02*
X9529102Y-12589098D01*
X9529102Y-12559098D02*
X9499102Y-12589098D01*
X9518912Y-5495264D02*
X9548912Y-5525264D01*
X9548912Y-5495264D02*
X9518912Y-5525264D01*
X9568912Y-10645264D02*
X9598912Y-10675264D01*
X9598912Y-10645264D02*
X9568912Y-10675264D01*
X9588912Y-6835264D02*
X9618912Y-6865264D01*
X9618912Y-6835264D02*
X9588912Y-6865264D01*
X9595000Y-5124000D02*
X9625000Y-5154000D01*
X9625000Y-5124000D02*
X9595000Y-5154000D01*
X9658912Y-3885264D02*
X9688912Y-3915264D01*
X9688912Y-3885264D02*
X9658912Y-3915264D01*
X9658912Y-6925264D02*
X9688912Y-6955264D01*
X9688912Y-6925264D02*
X9658912Y-6955264D01*
X9668912Y-5245264D02*
X9698912Y-5275264D01*
X9698912Y-5245264D02*
X9668912Y-5275264D01*
X9808912Y-4485264D02*
X9838912Y-4515264D01*
X9838912Y-4485264D02*
X9808912Y-4515264D01*
X9808912Y-4865264D02*
X9838912Y-4895264D01*
X9838912Y-4865264D02*
X9808912Y-4895264D01*
X9808912Y-6755264D02*
X9838912Y-6785264D01*
X9838912Y-6755264D02*
X9808912Y-6785264D01*
X9878912Y-8775264D02*
X9908912Y-8805264D01*
X9908912Y-8775264D02*
X9878912Y-8805264D01*
X9958912Y-6985264D02*
X9988912Y-7015264D01*
X9988912Y-6985264D02*
X9958912Y-7015264D01*
X9958912Y-13475264D02*
X9988912Y-13505264D01*
X9988912Y-13475264D02*
X9958912Y-13505264D01*
X10018912Y-12545264D02*
X10048912Y-12575264D01*
X10048912Y-12545264D02*
X10018912Y-12575264D01*
X10025000Y-4989575D02*
X10055000Y-5019575D01*
X10055000Y-4989575D02*
X10025000Y-5019575D01*
X10038912Y-3885264D02*
X10068912Y-3915264D01*
X10068912Y-3885264D02*
X10038912Y-3915264D01*
X10058912Y-5378000D02*
X10088912Y-5408000D01*
X10088912Y-5378000D02*
X10058912Y-5408000D01*
X10108912Y-12775264D02*
X10138912Y-12805264D01*
X10138912Y-12775264D02*
X10108912Y-12805264D01*
X10138912Y-4305264D02*
X10168912Y-4335264D01*
X10168912Y-4305264D02*
X10138912Y-4335264D01*
X10158912Y-6975264D02*
X10188912Y-7005264D01*
X10188912Y-6975264D02*
X10158912Y-7005264D01*
X10178912Y-12645264D02*
X10208912Y-12675264D01*
X10208912Y-12645264D02*
X10178912Y-12675264D01*
X10188912Y-6755264D02*
X10218912Y-6785264D01*
X10218912Y-6755264D02*
X10188912Y-6785264D01*
X10196735Y-5755064D02*
X10226735Y-5785064D01*
X10226735Y-5755064D02*
X10196735Y-5785064D01*
X10218912Y-10645264D02*
X10248912Y-10675264D01*
X10248912Y-10645264D02*
X10218912Y-10675264D01*
X10249235Y-6009064D02*
X10279235Y-6039064D01*
X10279235Y-6009064D02*
X10249235Y-6039064D01*
X10258912Y-6955264D02*
X10288912Y-6985264D01*
X10288912Y-6955264D02*
X10258912Y-6985264D01*
X10298912Y-6875264D02*
X10328912Y-6905264D01*
X10328912Y-6875264D02*
X10298912Y-6905264D01*
X10301735Y-6263064D02*
X10331735Y-6293064D01*
X10331735Y-6263064D02*
X10301735Y-6293064D01*
X10334112Y-12867064D02*
X10364112Y-12897064D01*
X10364112Y-12867064D02*
X10334112Y-12897064D01*
X10348912Y-6445264D02*
X10378912Y-6475264D01*
X10378912Y-6445264D02*
X10348912Y-6475264D01*
X10378912Y-6945264D02*
X10408912Y-6975264D01*
X10408912Y-6945264D02*
X10378912Y-6975264D01*
X10398912Y-6585264D02*
X10428912Y-6615264D01*
X10428912Y-6585264D02*
X10398912Y-6615264D01*
X10428912Y-6697714D02*
X10458912Y-6727714D01*
X10458912Y-6697714D02*
X10428912Y-6727714D01*
X10478662Y-12409864D02*
X10508662Y-12439864D01*
X10508662Y-12409864D02*
X10478662Y-12439864D01*
X10478912Y-6965264D02*
X10508912Y-6995264D01*
X10508912Y-6965264D02*
X10478912Y-6995264D01*
X10517783Y-6675264D02*
X10547783Y-6705264D01*
X10547783Y-6675264D02*
X10517783Y-6705264D01*
X10518912Y-13385264D02*
X10548912Y-13415264D01*
X10548912Y-13385264D02*
X10518912Y-13415264D01*
X10545000Y-5125000D02*
X10575000Y-5155000D01*
X10575000Y-5125000D02*
X10545000Y-5155000D01*
X10548912Y-4235264D02*
X10578912Y-4265264D01*
X10578912Y-4235264D02*
X10548912Y-4265264D01*
X10554999Y-5655000D02*
X10584999Y-5685000D01*
X10584999Y-5655000D02*
X10554999Y-5685000D01*
X10555000Y-4385000D02*
X10585000Y-4415000D01*
X10585000Y-4385000D02*
X10555000Y-4415000D01*
X10555000Y-5885000D02*
X10585000Y-5915000D01*
X10585000Y-5885000D02*
X10555000Y-5915000D01*
X10555000Y-6175000D02*
X10585000Y-6205000D01*
X10585000Y-6175000D02*
X10555000Y-6205000D01*
X10555002Y-5405000D02*
X10585002Y-5435000D01*
X10585002Y-5405000D02*
X10555002Y-5435000D01*
X10558276Y-6380733D02*
X10588276Y-6410733D01*
X10588276Y-6380733D02*
X10558276Y-6410733D01*
X10568912Y-10355264D02*
X10598912Y-10385264D01*
X10598912Y-10355264D02*
X10568912Y-10385264D01*
X10578912Y-6545264D02*
X10608912Y-6575264D01*
X10608912Y-6545264D02*
X10578912Y-6575264D01*
X10599312Y-9780964D02*
X10629312Y-9810964D01*
X10629312Y-9780964D02*
X10599312Y-9810964D01*
X10648912Y-13395264D02*
X10678912Y-13425264D01*
X10678912Y-13395264D02*
X10648912Y-13425264D01*
X10688912Y-7235264D02*
X10718912Y-7265264D01*
X10718912Y-7235264D02*
X10688912Y-7265264D01*
X10728912Y-8675264D02*
X10758912Y-8705264D01*
X10758912Y-8675264D02*
X10728912Y-8705264D01*
X10762500Y-9762500D02*
X10792500Y-9792500D01*
X10792500Y-9762500D02*
X10762500Y-9792500D01*
X10848912Y-13265264D02*
X10878912Y-13295264D01*
X10878912Y-13265264D02*
X10848912Y-13295264D01*
X10960500Y-12583600D02*
X10990500Y-12613600D01*
X10990500Y-12583600D02*
X10960500Y-12613600D01*
X10967612Y-9882564D02*
X10997612Y-9912564D01*
X10997612Y-9882564D02*
X10967612Y-9912564D01*
X10988437Y-12796963D02*
X11018437Y-12826963D01*
X11018437Y-12796963D02*
X10988437Y-12826963D01*
X11018912Y-4795264D02*
X11048912Y-4825264D01*
X11048912Y-4795264D02*
X11018912Y-4825264D01*
X11028912Y-13625264D02*
X11058912Y-13655264D01*
X11058912Y-13625264D02*
X11028912Y-13655264D01*
X11034775Y-6664425D02*
X11064775Y-6694425D01*
X11064775Y-6664425D02*
X11034775Y-6694425D01*
X11034775Y-7645574D02*
X11064775Y-7675574D01*
X11064775Y-7645574D02*
X11034775Y-7675574D01*
X11034775Y-8364574D02*
X11064775Y-8394575D01*
X11064775Y-8364574D02*
X11034775Y-8394575D01*
X11034775Y-10244175D02*
X11064775Y-10274175D01*
X11064775Y-10244175D02*
X11034775Y-10274175D01*
X11110200Y-6472300D02*
X11140200Y-6502300D01*
X11140200Y-6472300D02*
X11110200Y-6502300D01*
X11110200Y-8325700D02*
X11140200Y-8355700D01*
X11140200Y-8325700D02*
X11110200Y-8355700D01*
X11110200Y-10218000D02*
X11140200Y-10248000D01*
X11140200Y-10218000D02*
X11110200Y-10248000D01*
X11110200Y-12133976D02*
X11140200Y-12163976D01*
X11140200Y-12133976D02*
X11110200Y-12163976D01*
X11129356Y-13178661D02*
X11159356Y-13208661D01*
X11159356Y-13178661D02*
X11129356Y-13208661D01*
X11141000Y-4544500D02*
X11171000Y-4574500D01*
X11171000Y-4544500D02*
X11141000Y-4574500D01*
X11167764Y-8935144D02*
X11197764Y-8965144D01*
X11197764Y-8935144D02*
X11167764Y-8965144D01*
X11175200Y-7502584D02*
X11205200Y-7532584D01*
X11205200Y-7502584D02*
X11175200Y-7532584D01*
X11175200Y-8834814D02*
X11205200Y-8864814D01*
X11205200Y-8834814D02*
X11175200Y-8864814D01*
X11177162Y-5145464D02*
X11207162Y-5175464D01*
X11207162Y-5145464D02*
X11177162Y-5175464D01*
X11177162Y-7050464D02*
X11207162Y-7080464D01*
X11207162Y-7050464D02*
X11177162Y-7080464D01*
X11177162Y-10885864D02*
X11207162Y-10915864D01*
X11207162Y-10885864D02*
X11177162Y-10915864D01*
X11178912Y-12225264D02*
X11208912Y-12255264D01*
X11208912Y-12225264D02*
X11178912Y-12255264D01*
X11285112Y-8961814D02*
X11315112Y-8991814D01*
X11315112Y-8961814D02*
X11285112Y-8991814D01*
X11298912Y-10505264D02*
X11328912Y-10535264D01*
X11328912Y-10505264D02*
X11298912Y-10535264D01*
X11318912Y-12095264D02*
X11348912Y-12125264D01*
X11348912Y-12095264D02*
X11318912Y-12125264D01*
X11368912Y-4025264D02*
X11398912Y-4055264D01*
X11398912Y-4025264D02*
X11368912Y-4055264D01*
X11412112Y-7545764D02*
X11442112Y-7575764D01*
X11442112Y-7545764D02*
X11412112Y-7575764D01*
X11428912Y-12865264D02*
X11458912Y-12895264D01*
X11458912Y-12865264D02*
X11428912Y-12895264D01*
X11507362Y-5748714D02*
X11537362Y-5778714D01*
X11537362Y-5748714D02*
X11507362Y-5778714D01*
X11513712Y-11362114D02*
X11543712Y-11392114D01*
X11543712Y-11362114D02*
X11513712Y-11392114D01*
X11528912Y-9695264D02*
X11558912Y-9725264D01*
X11558912Y-9695264D02*
X11528912Y-9725264D01*
X11599839Y-4310214D02*
X11629839Y-4340214D01*
X11629839Y-4310214D02*
X11599839Y-4340214D01*
X11608912Y-6220214D02*
X11638912Y-6250214D01*
X11638912Y-6220214D02*
X11608912Y-6250214D01*
X11608912Y-10005264D02*
X11638912Y-10035264D01*
X11638912Y-10005264D02*
X11608912Y-10035264D01*
X11618912Y-11885264D02*
X11648912Y-11915264D01*
X11648912Y-11885264D02*
X11618912Y-11915264D01*
X11632115Y-8105264D02*
X11662115Y-8135264D01*
X11662115Y-8105264D02*
X11632115Y-8135264D01*
X11676067Y-13255479D02*
X11706067Y-13285479D01*
X11706067Y-13255479D02*
X11676067Y-13285479D01*
X11748912Y-9845264D02*
X11778912Y-9875264D01*
X11778912Y-9845264D02*
X11748912Y-9875264D01*
X11751460Y-7962716D02*
X11781460Y-7992716D01*
X11781460Y-7962716D02*
X11751460Y-7992716D01*
X11758912Y-4145264D02*
X11788912Y-4175264D01*
X11788912Y-4145264D02*
X11758912Y-4175264D01*
X11758912Y-6105264D02*
X11788912Y-6135264D01*
X11788912Y-6105264D02*
X11758912Y-6135264D01*
X11852400Y-5371100D02*
X11882400Y-5401100D01*
X11882400Y-5371100D02*
X11852400Y-5401100D01*
X11852400Y-7274750D02*
X11882400Y-7304750D01*
X11882400Y-7274750D02*
X11852400Y-7304750D01*
X11852400Y-9181100D02*
X11882400Y-9211100D01*
X11882400Y-9181100D02*
X11852400Y-9211100D01*
X11852400Y-11086100D02*
X11882400Y-11116100D01*
X11882400Y-11086100D02*
X11852400Y-11116100D01*
X11988912Y-12055264D02*
X12018912Y-12085264D01*
X12018912Y-12055264D02*
X11988912Y-12085264D01*
X12058912Y-12755264D02*
X12088912Y-12785264D01*
X12088912Y-12755264D02*
X12058912Y-12785264D01*
X12178912Y-12075264D02*
X12208912Y-12105264D01*
X12208912Y-12075264D02*
X12178912Y-12105264D01*
X12238912Y-4065264D02*
X12268912Y-4095264D01*
X12268912Y-4065264D02*
X12238912Y-4095264D01*
X12308912Y-4718744D02*
X12338912Y-4748744D01*
X12338912Y-4718744D02*
X12308912Y-4748744D01*
X12309376Y-8544800D02*
X12339376Y-8574800D01*
X12339376Y-8544800D02*
X12309376Y-8574800D01*
X12318912Y-6635264D02*
X12348912Y-6665264D01*
X12348912Y-6635264D02*
X12318912Y-6665264D01*
X12318912Y-10445264D02*
X12348912Y-10475264D01*
X12348912Y-10445264D02*
X12318912Y-10475264D01*
X12318912Y-11867714D02*
X12348912Y-11897714D01*
X12348912Y-11867714D02*
X12318912Y-11897714D01*
X12468912Y-9995264D02*
X12498912Y-10025264D01*
X12498912Y-9995264D02*
X12468912Y-10025264D01*
X12478912Y-6243551D02*
X12508912Y-6273551D01*
X12508912Y-6243551D02*
X12478912Y-6273551D01*
X12496692Y-9671744D02*
X12526692Y-9701744D01*
X12526692Y-9671744D02*
X12496692Y-9701744D01*
X12498912Y-8115264D02*
X12528912Y-8145264D01*
X12528912Y-8115264D02*
X12498912Y-8145264D01*
X12528912Y-4305264D02*
X12558912Y-4335264D01*
X12558912Y-4305264D02*
X12528912Y-4335264D01*
X12731294Y-6689658D02*
X12761294Y-6719658D01*
X12761294Y-6689658D02*
X12731294Y-6719658D01*
X12731294Y-8596008D02*
X12761294Y-8626008D01*
X12761294Y-8596008D02*
X12731294Y-8626008D01*
X12731294Y-10501008D02*
X12761294Y-10531008D01*
X12761294Y-10501008D02*
X12731294Y-10531008D01*
X12798952Y-9854999D02*
X12828952Y-9884999D01*
X12828952Y-9854999D02*
X12798952Y-9884999D01*
X12809112Y-6043649D02*
X12839112Y-6073649D01*
X12839112Y-6043649D02*
X12809112Y-6073649D01*
X12818912Y-7905264D02*
X12848912Y-7935264D01*
X12848912Y-7905264D02*
X12818912Y-7935264D01*
X12855500Y-4906036D02*
X12885500Y-4936036D01*
X12885500Y-4906036D02*
X12855500Y-4936036D01*
X12859912Y-12879764D02*
X12889912Y-12909764D01*
X12889912Y-12879764D02*
X12859912Y-12909764D01*
X12938912Y-7645264D02*
X12968912Y-7675264D01*
X12968912Y-7645264D02*
X12938912Y-7675264D01*
X12958912Y-4055264D02*
X12988912Y-4085264D01*
X12988912Y-4055264D02*
X12958912Y-4085264D01*
X12985294Y-4430408D02*
X13015294Y-4460408D01*
X13015294Y-4430408D02*
X12985294Y-4460408D01*
X12985294Y-6334058D02*
X13015294Y-6364058D01*
X13015294Y-6334058D02*
X12985294Y-6364058D01*
X12985294Y-8240408D02*
X13015294Y-8270408D01*
X13015294Y-8240408D02*
X12985294Y-8270408D01*
X12985294Y-10145408D02*
X13015294Y-10175408D01*
X13015294Y-10145408D02*
X12985294Y-10175408D01*
X12985294Y-12050408D02*
X13015294Y-12080408D01*
X13015294Y-12050408D02*
X12985294Y-12080408D01*
X12986912Y-11759999D02*
X13016912Y-11789999D01*
X13016912Y-11759999D02*
X12986912Y-11789999D01*
X13035600Y-12530200D02*
X13065600Y-12560200D01*
X13065600Y-12530200D02*
X13035600Y-12560200D01*
X13038912Y-12945264D02*
X13068912Y-12975264D01*
X13068912Y-12945264D02*
X13038912Y-12975264D01*
X13058912Y-5345264D02*
X13088912Y-5375264D01*
X13088912Y-5345264D02*
X13058912Y-5375264D01*
X13068912Y-4905264D02*
X13098912Y-4935264D01*
X13098912Y-4905264D02*
X13068912Y-4935264D01*
X13068912Y-8715264D02*
X13098912Y-8745264D01*
X13098912Y-8715264D02*
X13068912Y-8745264D01*
X13068912Y-10615264D02*
X13098912Y-10645264D01*
X13098912Y-10615264D02*
X13068912Y-10645264D01*
X13078912Y-6813850D02*
X13108912Y-6843850D01*
X13108912Y-6813850D02*
X13078912Y-6843850D01*
X13088912Y-11035264D02*
X13118912Y-11065264D01*
X13118912Y-11035264D02*
X13088912Y-11065264D01*
X13108912Y-7225264D02*
X13138912Y-7255264D01*
X13138912Y-7225264D02*
X13108912Y-7255264D01*
X13118912Y-9135264D02*
X13148912Y-9165264D01*
X13148912Y-9135264D02*
X13118912Y-9165264D01*
X13164712Y-11622464D02*
X13194712Y-11652464D01*
X13194712Y-11622464D02*
X13164712Y-11652464D01*
X13244200Y-4905400D02*
X13274200Y-4935400D01*
X13274200Y-4905400D02*
X13244200Y-4935400D01*
X13244200Y-6809050D02*
X13274200Y-6839050D01*
X13274200Y-6809050D02*
X13244200Y-6839050D01*
X13244200Y-8715400D02*
X13274200Y-8745400D01*
X13274200Y-8715400D02*
X13244200Y-8745400D01*
X13244200Y-10620400D02*
X13274200Y-10650400D01*
X13274200Y-10620400D02*
X13244200Y-10650400D01*
X13244200Y-12525400D02*
X13274200Y-12555400D01*
X13274200Y-12525400D02*
X13244200Y-12555400D01*
X13342512Y-3977064D02*
X13372512Y-4007064D01*
X13372512Y-3977064D02*
X13342512Y-4007064D01*
X13358912Y-7325264D02*
X13388912Y-7355264D01*
X13388912Y-7325264D02*
X13358912Y-7355264D01*
X13358912Y-11205264D02*
X13388912Y-11235264D01*
X13388912Y-11205264D02*
X13358912Y-11235264D01*
X13454128Y-10230048D02*
X13484128Y-10260048D01*
X13484128Y-10230048D02*
X13454128Y-10260048D01*
X13458912Y-6405264D02*
X13488912Y-6435264D01*
X13488912Y-6405264D02*
X13458912Y-6435264D01*
X13488912Y-9375264D02*
X13518912Y-9405264D01*
X13518912Y-9375264D02*
X13488912Y-9405264D01*
X13508912Y-5895264D02*
X13538912Y-5925264D01*
X13538912Y-5895264D02*
X13508912Y-5925264D01*
X13509839Y-4080214D02*
X13539839Y-4110214D01*
X13539839Y-4080214D02*
X13509839Y-4110214D01*
X13518912Y-9785264D02*
X13548912Y-9815264D01*
X13548912Y-9785264D02*
X13518912Y-9815264D01*
X13518912Y-11625264D02*
X13548912Y-11655264D01*
X13548912Y-11625264D02*
X13518912Y-11655264D01*
X13528912Y-4485264D02*
X13558912Y-4515264D01*
X13558912Y-4485264D02*
X13528912Y-4515264D01*
X13528912Y-5625264D02*
X13558912Y-5655264D01*
X13558912Y-5625264D02*
X13528912Y-5655264D01*
X13538912Y-7855264D02*
X13568912Y-7885264D01*
X13568912Y-7855264D02*
X13538912Y-7885264D01*
X13558912Y-8385264D02*
X13588912Y-8415264D01*
X13588912Y-8385264D02*
X13558912Y-8415264D01*
X13648912Y-7665264D02*
X13678912Y-7695264D01*
X13678912Y-7665264D02*
X13648912Y-7695264D01*
X13658912Y-5825264D02*
X13688912Y-5855264D01*
X13688912Y-5825264D02*
X13658912Y-5855264D01*
X13658912Y-11525264D02*
X13688912Y-11555264D01*
X13688912Y-11525264D02*
X13658912Y-11555264D01*
X13668912Y-3941099D02*
X13698912Y-3971099D01*
X13698912Y-3941099D02*
X13668912Y-3971099D01*
X13718912Y-9575264D02*
X13748912Y-9605264D01*
X13748912Y-9575264D02*
X13718912Y-9605264D01*
X13752400Y-5121100D02*
X13782400Y-5151100D01*
X13782400Y-5121100D02*
X13752400Y-5151100D01*
X13752400Y-7024750D02*
X13782400Y-7054750D01*
X13782400Y-7024750D02*
X13752400Y-7054750D01*
X13752400Y-8931100D02*
X13782400Y-8961100D01*
X13782400Y-8931100D02*
X13752400Y-8961100D01*
X13752400Y-10836100D02*
X13782400Y-10866100D01*
X13782400Y-10836100D02*
X13752400Y-10866100D01*
X13752400Y-12741100D02*
X13782400Y-12771100D01*
X13782400Y-12741100D02*
X13752400Y-12771100D01*
X14158912Y-11395264D02*
X14188912Y-11425264D01*
X14188912Y-11395264D02*
X14158912Y-11425264D01*
X14218912Y-10185264D02*
X14248912Y-10215264D01*
X14248912Y-10185264D02*
X14218912Y-10215264D01*
X14218912Y-12091101D02*
X14248912Y-12121101D01*
X14248912Y-12091101D02*
X14218912Y-12121101D01*
X14318912Y-9755264D02*
X14348912Y-9785264D01*
X14348912Y-9755264D02*
X14318912Y-9785264D01*
X14318912Y-10255264D02*
X14348912Y-10285264D01*
X14348912Y-10255264D02*
X14318912Y-10285264D01*
X14348912Y-7855264D02*
X14378912Y-7885264D01*
X14378912Y-7855264D02*
X14348912Y-7885264D01*
X14358912Y-11663043D02*
X14388912Y-11693043D01*
X14388912Y-11663043D02*
X14358912Y-11693043D01*
X14367985Y-4076001D02*
X14397985Y-4106001D01*
X14397985Y-4076001D02*
X14367985Y-4106001D01*
X14388912Y-8245264D02*
X14418912Y-8275264D01*
X14418912Y-8245264D02*
X14388912Y-8275264D01*
X14398912Y-5960166D02*
X14428912Y-5990166D01*
X14428912Y-5960166D02*
X14398912Y-5990166D01*
X14408912Y-4415264D02*
X14438912Y-4445264D01*
X14438912Y-4415264D02*
X14408912Y-4445264D01*
X14408912Y-6335264D02*
X14438912Y-6365264D01*
X14438912Y-6335264D02*
X14408912Y-6365264D01*
X14437600Y-8003800D02*
X14467600Y-8033800D01*
X14467600Y-8003800D02*
X14437600Y-8033800D01*
X14548912Y-4175264D02*
X14578912Y-4205264D01*
X14578912Y-4175264D02*
X14548912Y-4205264D01*
X14558912Y-6085264D02*
X14588912Y-6115264D01*
X14588912Y-6085264D02*
X14558912Y-6115264D01*
X14668912Y-9395264D02*
X14698912Y-9425264D01*
X14698912Y-9395264D02*
X14668912Y-9425264D01*
X14698912Y-7475264D02*
X14728912Y-7505264D01*
X14728912Y-7475264D02*
X14698912Y-7505264D01*
X14718912Y-4725264D02*
X14748912Y-4755264D01*
X14748912Y-4725264D02*
X14718912Y-4755264D01*
X14718912Y-6645264D02*
X14748912Y-6675264D01*
X14748912Y-6645264D02*
X14718912Y-6675264D01*
X14748912Y-10425264D02*
X14778912Y-10455264D01*
X14778912Y-10425264D02*
X14748912Y-10455264D01*
X14768912Y-12465264D02*
X14798912Y-12495264D01*
X14798912Y-12465264D02*
X14768912Y-12495264D01*
X14898850Y-9917950D02*
X14928850Y-9947950D01*
X14928850Y-9917950D02*
X14898850Y-9947950D01*
X14906724Y-4195076D02*
X14936724Y-4225076D01*
X14936724Y-4195076D02*
X14906724Y-4225076D01*
X14911632Y-7999500D02*
X14941632Y-8029500D01*
X14941632Y-7999500D02*
X14911632Y-8029500D01*
X14915950Y-6089500D02*
X14945950Y-6119500D01*
X14945950Y-6089500D02*
X14915950Y-6119500D01*
X14936362Y-11495464D02*
X14966362Y-11525464D01*
X14966362Y-11495464D02*
X14936362Y-11525464D01*
X14961762Y-3659564D02*
X14991762Y-3689564D01*
X14991762Y-3659564D02*
X14961762Y-3689564D01*
X14978912Y-8465264D02*
X15008912Y-8495264D01*
X15008912Y-8465264D02*
X14978912Y-8495264D01*
X14978912Y-10365264D02*
X15008912Y-10395264D01*
X15008912Y-10365264D02*
X14978912Y-10395264D01*
X14978912Y-10785264D02*
X15008912Y-10815264D01*
X15008912Y-10785264D02*
X14978912Y-10815264D01*
X14978912Y-12280200D02*
X15008912Y-12310200D01*
X15008912Y-12280200D02*
X14978912Y-12310200D01*
X14988912Y-4655264D02*
X15018912Y-4685264D01*
X15018912Y-4655264D02*
X14988912Y-4685264D01*
X14988912Y-6563850D02*
X15018912Y-6593850D01*
X15018912Y-6563850D02*
X14988912Y-6593850D01*
X14998912Y-6975264D02*
X15028912Y-7005264D01*
X15028912Y-6975264D02*
X14998912Y-7005264D01*
X15018912Y-5075264D02*
X15048912Y-5105264D01*
X15048912Y-5075264D02*
X15018912Y-5105264D01*
X15038912Y-12695264D02*
X15068912Y-12725264D01*
X15068912Y-12695264D02*
X15038912Y-12725264D01*
X15048912Y-8885264D02*
X15078912Y-8915264D01*
X15078912Y-8885264D02*
X15048912Y-8915264D01*
X15068912Y-11345264D02*
X15098912Y-11375264D01*
X15098912Y-11345264D02*
X15068912Y-11375264D01*
X15126241Y-11824159D02*
X15156241Y-11854159D01*
X15156241Y-11824159D02*
X15126241Y-11854159D01*
X15154200Y-4655400D02*
X15184200Y-4685400D01*
X15184200Y-4655400D02*
X15154200Y-4685400D01*
X15154200Y-6559050D02*
X15184200Y-6589050D01*
X15184200Y-6559050D02*
X15154200Y-6589050D01*
X15154200Y-8465400D02*
X15184200Y-8495400D01*
X15184200Y-8465400D02*
X15154200Y-8495400D01*
X15154200Y-10370400D02*
X15184200Y-10400400D01*
X15184200Y-10370400D02*
X15154200Y-10400400D01*
X15154200Y-12275400D02*
X15184200Y-12305400D01*
X15184200Y-12275400D02*
X15154200Y-12305400D01*
X15248912Y-11355264D02*
X15278912Y-11385264D01*
X15278912Y-11355264D02*
X15248912Y-11385264D01*
X15313075Y-8031101D02*
X15343075Y-8061101D01*
X15343075Y-8031101D02*
X15313075Y-8061101D01*
X15343075Y-4221101D02*
X15373075Y-4251101D01*
X15373075Y-4221101D02*
X15343075Y-4251101D01*
X15349425Y-6124751D02*
X15379425Y-6154751D01*
X15379425Y-6124751D02*
X15349425Y-6154751D01*
X15358912Y-5695264D02*
X15388912Y-5725264D01*
X15388912Y-5695264D02*
X15358912Y-5725264D01*
X15378912Y-3850214D02*
X15408912Y-3880214D01*
X15408912Y-3850214D02*
X15378912Y-3880214D01*
X15388912Y-9435264D02*
X15418912Y-9465264D01*
X15418912Y-9435264D02*
X15388912Y-9465264D01*
X15398912Y-11405264D02*
X15428912Y-11435264D01*
X15428912Y-11405264D02*
X15398912Y-11435264D01*
X15418075Y-9936101D02*
X15448075Y-9966101D01*
X15448075Y-9936101D02*
X15418075Y-9966101D01*
X15418912Y-7575264D02*
X15448912Y-7605264D01*
X15448912Y-7575264D02*
X15418912Y-7605264D01*
X15478912Y-7305264D02*
X15508912Y-7335264D01*
X15508912Y-7305264D02*
X15478912Y-7335264D01*
X15485723Y-5392882D02*
X15515723Y-5422882D01*
X15515723Y-5392882D02*
X15485723Y-5422882D01*
X15498912Y-9195264D02*
X15528912Y-9225264D01*
X15528912Y-9195264D02*
X15498912Y-9225264D01*
X15568912Y-3785264D02*
X15598912Y-3815264D01*
X15598912Y-3785264D02*
X15568912Y-3815264D01*
X15568912Y-7375264D02*
X15598912Y-7405264D01*
X15598912Y-7375264D02*
X15568912Y-7405264D01*
X15568912Y-9335264D02*
X15598912Y-9365264D01*
X15598912Y-9335264D02*
X15568912Y-9365264D01*
X15568912Y-11255264D02*
X15598912Y-11285264D01*
X15598912Y-11255264D02*
X15568912Y-11285264D01*
X15575000Y-5605264D02*
X15605000Y-5635264D01*
X15605000Y-5605264D02*
X15575000Y-5635264D01*
X15662400Y-4871100D02*
X15692400Y-4901100D01*
X15692400Y-4871100D02*
X15662400Y-4901100D01*
X15662400Y-6774750D02*
X15692400Y-6804750D01*
X15692400Y-6774750D02*
X15662400Y-6804750D01*
X15662400Y-8681100D02*
X15692400Y-8711100D01*
X15692400Y-8681100D02*
X15662400Y-8711100D01*
X15662400Y-12491100D02*
X15692400Y-12521100D01*
X15692400Y-12491100D02*
X15662400Y-12521100D01*
X15687363Y-10586100D02*
X15717363Y-10616100D01*
X15717363Y-10586100D02*
X15687363Y-10616100D01*
X15958912Y-3712014D02*
X15988912Y-3742014D01*
X15988912Y-3712014D02*
X15958912Y-3742014D01*
X16118912Y-6125264D02*
X16148912Y-6155264D01*
X16148912Y-6125264D02*
X16118912Y-6155264D01*
X16118912Y-8031101D02*
X16148912Y-8061101D01*
X16148912Y-8031101D02*
X16118912Y-8061101D01*
X16118912Y-9935264D02*
X16148912Y-9965264D01*
X16148912Y-9935264D02*
X16118912Y-9965264D01*
X16118912Y-11841101D02*
X16148912Y-11871101D01*
X16148912Y-11841101D02*
X16118912Y-11871101D01*
X16128912Y-4215264D02*
X16158912Y-4245264D01*
X16158912Y-4215264D02*
X16128912Y-4245264D01*
X16252985Y-9510214D02*
X16282985Y-9540214D01*
X16282985Y-9510214D02*
X16252985Y-9540214D01*
X16258912Y-11440214D02*
X16288912Y-11470214D01*
X16288912Y-11440214D02*
X16258912Y-11470214D01*
X16268912Y-7605264D02*
X16298912Y-7635264D01*
X16298912Y-7605264D02*
X16268912Y-7635264D01*
X16292985Y-5740166D02*
X16322985Y-5770166D01*
X16322985Y-5740166D02*
X16292985Y-5770166D01*
X16338912Y-3870214D02*
X16368912Y-3900214D01*
X16368912Y-3870214D02*
X16338912Y-3900214D01*
X16488912Y-9215264D02*
X16518912Y-9245264D01*
X16518912Y-9215264D02*
X16488912Y-9245264D01*
X16668912Y-6395264D02*
X16698912Y-6425264D01*
X16698912Y-6395264D02*
X16668912Y-6425264D01*
X16668912Y-8285264D02*
X16698912Y-8315264D01*
X16698912Y-8285264D02*
X16668912Y-8315264D01*
X16678912Y-10185264D02*
X16708912Y-10215264D01*
X16708912Y-10185264D02*
X16678912Y-10215264D01*
X16688912Y-12245264D02*
X16718912Y-12275264D01*
X16718912Y-12245264D02*
X16688912Y-12275264D01*
X16698912Y-9915264D02*
X16728912Y-9945264D01*
X16728912Y-9915264D02*
X16698912Y-9945264D01*
X16748912Y-8025264D02*
X16778912Y-8055264D01*
X16778912Y-8025264D02*
X16748912Y-8055264D01*
X16798912Y-12915264D02*
X16828912Y-12945264D01*
X16828912Y-12915264D02*
X16798912Y-12945264D01*
X16808912Y-4323149D02*
X16838912Y-4353149D01*
X16838912Y-4323149D02*
X16808912Y-4353149D01*
X16818912Y-9115264D02*
X16848912Y-9145264D01*
X16848912Y-9115264D02*
X16818912Y-9145264D01*
X16828912Y-11415264D02*
X16858912Y-11445264D01*
X16858912Y-11415264D02*
X16828912Y-11445264D01*
X16873112Y-6226849D02*
X16903112Y-6256849D01*
X16903112Y-6226849D02*
X16873112Y-6256849D01*
X16878912Y-11035264D02*
X16908912Y-11065264D01*
X16908912Y-11035264D02*
X16878912Y-11065264D01*
X16888912Y-4910200D02*
X16918912Y-4940200D01*
X16918912Y-4910200D02*
X16888912Y-4940200D01*
X16908912Y-7225264D02*
X16938912Y-7255264D01*
X16938912Y-7225264D02*
X16908912Y-7255264D01*
X16908912Y-10635050D02*
X16938912Y-10665050D01*
X16938912Y-10635050D02*
X16908912Y-10665050D01*
X16908912Y-12535264D02*
X16938912Y-12565264D01*
X16938912Y-12535264D02*
X16908912Y-12565264D01*
X16918912Y-5325264D02*
X16948912Y-5355264D01*
X16948912Y-5325264D02*
X16918912Y-5355264D01*
X16918912Y-6805264D02*
X16948912Y-6835264D01*
X16948912Y-6805264D02*
X16918912Y-6835264D01*
X16918912Y-8715264D02*
X16948912Y-8745264D01*
X16948912Y-8715264D02*
X16918912Y-8745264D01*
X16978912Y-11135264D02*
X17008912Y-11165264D01*
X17008912Y-11135264D02*
X16978912Y-11165264D01*
X17018912Y-11955264D02*
X17048912Y-11985264D01*
X17048912Y-11955264D02*
X17018912Y-11985264D01*
X17048912Y-3685264D02*
X17078912Y-3715264D01*
X17078912Y-3685264D02*
X17048912Y-3715264D01*
X17054200Y-4905400D02*
X17084200Y-4935400D01*
X17084200Y-4905400D02*
X17054200Y-4935400D01*
X17054200Y-6809050D02*
X17084200Y-6839050D01*
X17084200Y-6809050D02*
X17054200Y-6839050D01*
X17054200Y-8715400D02*
X17084200Y-8745400D01*
X17084200Y-8715400D02*
X17054200Y-8745400D01*
X17054200Y-10620400D02*
X17084200Y-10650400D01*
X17084200Y-10620400D02*
X17054200Y-10650400D01*
X17054200Y-12525400D02*
X17084200Y-12555400D01*
X17084200Y-12525400D02*
X17054200Y-12555400D01*
X17178912Y-9225264D02*
X17208912Y-9255264D01*
X17208912Y-9225264D02*
X17178912Y-9255264D01*
X17203312Y-3984200D02*
X17233312Y-4014200D01*
X17233312Y-3984200D02*
X17203312Y-4014200D01*
X17208912Y-7375264D02*
X17238912Y-7405264D01*
X17238912Y-7375264D02*
X17208912Y-7405264D01*
X17234900Y-11796000D02*
X17264900Y-11826000D01*
X17264900Y-11796000D02*
X17234900Y-11826000D01*
X17278912Y-4005264D02*
X17308912Y-4035264D01*
X17308912Y-4005264D02*
X17278912Y-4035264D01*
X17298912Y-7795264D02*
X17328912Y-7825264D01*
X17328912Y-7795264D02*
X17298912Y-7825264D01*
X17318912Y-5955264D02*
X17348912Y-5985264D01*
X17348912Y-5955264D02*
X17318912Y-5985264D01*
X17319795Y-4070214D02*
X17349795Y-4100214D01*
X17349795Y-4070214D02*
X17319795Y-4100214D01*
X17342712Y-11655264D02*
X17372712Y-11685264D01*
X17372712Y-11655264D02*
X17342712Y-11685264D01*
X17349750Y-9765264D02*
X17379750Y-9795264D01*
X17379750Y-9765264D02*
X17349750Y-9795264D01*
X17368912Y-4575264D02*
X17398912Y-4605264D01*
X17398912Y-4575264D02*
X17368912Y-4605264D01*
X17398912Y-8365264D02*
X17428912Y-8395264D01*
X17428912Y-8365264D02*
X17398912Y-8395264D01*
X17468912Y-5745264D02*
X17498912Y-5775264D01*
X17498912Y-5745264D02*
X17468912Y-5775264D01*
X17468912Y-7655264D02*
X17498912Y-7685264D01*
X17498912Y-7655264D02*
X17468912Y-7685264D01*
X17468912Y-9625264D02*
X17498912Y-9655264D01*
X17498912Y-9625264D02*
X17468912Y-9655264D01*
X17518075Y-10186101D02*
X17548075Y-10216101D01*
X17548075Y-10186101D02*
X17518075Y-10216101D01*
X17562400Y-5121100D02*
X17592400Y-5151100D01*
X17592400Y-5121100D02*
X17562400Y-5151100D01*
X17562400Y-7024750D02*
X17592400Y-7054750D01*
X17592400Y-7024750D02*
X17562400Y-7054750D01*
X17562400Y-8931100D02*
X17592400Y-8961100D01*
X17592400Y-8931100D02*
X17562400Y-8961100D01*
X17562400Y-10836100D02*
X17592400Y-10866100D01*
X17592400Y-10836100D02*
X17562400Y-10866100D01*
X17562400Y-12741100D02*
X17592400Y-12771100D01*
X17592400Y-12741100D02*
X17562400Y-12771100D01*
X17918912Y-11635264D02*
X17948912Y-11665264D01*
X17948912Y-11635264D02*
X17918912Y-11665264D01*
X18148912Y-5950214D02*
X18178912Y-5980214D01*
X18178912Y-5950214D02*
X18148912Y-5980214D01*
X18155001Y-7845264D02*
X18185001Y-7875264D01*
X18185001Y-7845264D02*
X18155001Y-7875264D01*
X18168912Y-11680214D02*
X18198912Y-11710214D01*
X18198912Y-11680214D02*
X18168912Y-11710214D01*
X18178912Y-8275264D02*
X18208912Y-8305264D01*
X18208912Y-8275264D02*
X18178912Y-8305264D01*
X18178912Y-9765264D02*
X18208912Y-9795264D01*
X18208912Y-9765264D02*
X18178912Y-9795264D01*
X18188912Y-4045264D02*
X18218912Y-4075264D01*
X18218912Y-4045264D02*
X18188912Y-4075264D01*
X18193912Y-10117514D02*
X18223912Y-10147514D01*
X18223912Y-10117514D02*
X18193912Y-10147514D01*
X18228912Y-4405264D02*
X18258912Y-4435264D01*
X18258912Y-4405264D02*
X18228912Y-4435264D01*
X18228912Y-6345264D02*
X18258912Y-6375264D01*
X18258912Y-6345264D02*
X18228912Y-6375264D01*
X18263200Y-6105050D02*
X18293200Y-6135050D01*
X18293200Y-6105050D02*
X18263200Y-6135050D01*
X18263200Y-7995264D02*
X18293200Y-8025264D01*
X18293200Y-7995264D02*
X18263200Y-8025264D01*
X18263200Y-9916400D02*
X18293200Y-9946400D01*
X18293200Y-9916400D02*
X18263200Y-9946400D01*
X18263200Y-11821400D02*
X18293200Y-11851400D01*
X18293200Y-11821400D02*
X18263200Y-11851400D01*
X18268912Y-9475264D02*
X18298912Y-9505264D01*
X18298912Y-9475264D02*
X18268912Y-9505264D01*
X18368912Y-4115264D02*
X18398912Y-4145264D01*
X18398912Y-4115264D02*
X18368912Y-4145264D01*
X18428912Y-11295264D02*
X18458912Y-11325264D01*
X18458912Y-11295264D02*
X18428912Y-11325264D01*
X18568912Y-8565264D02*
X18598912Y-8595264D01*
X18598912Y-8565264D02*
X18568912Y-8595264D01*
X18588912Y-6665264D02*
X18618912Y-6695264D01*
X18618912Y-6665264D02*
X18588912Y-6695264D01*
X18588912Y-10485264D02*
X18618912Y-10515264D01*
X18618912Y-10485264D02*
X18588912Y-10515264D01*
X18628912Y-10295264D02*
X18658912Y-10325264D01*
X18658912Y-10295264D02*
X18628912Y-10325264D01*
X18648912Y-4535264D02*
X18678912Y-4565264D01*
X18678912Y-4535264D02*
X18648912Y-4565264D01*
X18678912Y-8395264D02*
X18708912Y-8425264D01*
X18708912Y-8395264D02*
X18678912Y-8425264D01*
X18679400Y-6486050D02*
X18709400Y-6516050D01*
X18709400Y-6486050D02*
X18679400Y-6516050D01*
X18748912Y-5815264D02*
X18778912Y-5845264D01*
X18778912Y-5815264D02*
X18748912Y-5845264D01*
X18748912Y-11085264D02*
X18778912Y-11115264D01*
X18778912Y-11085264D02*
X18748912Y-11115264D01*
X18755600Y-5365264D02*
X18785600Y-5395264D01*
X18785600Y-5365264D02*
X18755600Y-5395264D01*
X18768912Y-11525264D02*
X18798912Y-11555264D01*
X18798912Y-11525264D02*
X18768912Y-11555264D01*
X18788912Y-9165264D02*
X18818912Y-9195264D01*
X18818912Y-9165264D02*
X18788912Y-9195264D01*
X18808912Y-9615264D02*
X18838912Y-9645264D01*
X18838912Y-9615264D02*
X18808912Y-9645264D01*
X18828912Y-7305264D02*
X18858912Y-7335264D01*
X18858912Y-7305264D02*
X18828912Y-7335264D01*
X18828912Y-7715264D02*
X18858912Y-7745264D01*
X18858912Y-7715264D02*
X18828912Y-7745264D01*
X18964200Y-5395400D02*
X18994200Y-5425400D01*
X18994200Y-5395400D02*
X18964200Y-5425400D01*
X18964200Y-7299050D02*
X18994200Y-7329050D01*
X18994200Y-7299050D02*
X18964200Y-7329050D01*
X18964200Y-9205400D02*
X18994200Y-9235400D01*
X18994200Y-9205400D02*
X18964200Y-9235400D01*
X18964200Y-11110400D02*
X18994200Y-11140400D01*
X18994200Y-11110400D02*
X18964200Y-11140400D01*
X19178912Y-10035264D02*
X19208912Y-10065264D01*
X19208912Y-10035264D02*
X19178912Y-10065264D01*
X19188912Y-6425264D02*
X19218912Y-6455264D01*
X19218912Y-6425264D02*
X19188912Y-6455264D01*
X19208912Y-4475264D02*
X19238912Y-4505264D01*
X19238912Y-4475264D02*
X19208912Y-4505264D01*
X19233075Y-4961101D02*
X19263075Y-4991101D01*
X19263075Y-4961101D02*
X19233075Y-4991101D01*
X19239425Y-6864751D02*
X19269425Y-6894751D01*
X19269425Y-6864751D02*
X19239425Y-6894751D01*
X19248912Y-6145264D02*
X19278912Y-6175264D01*
X19278912Y-6145264D02*
X19248912Y-6175264D01*
X19249839Y-8366191D02*
X19279839Y-8396191D01*
X19279839Y-8366191D02*
X19249839Y-8396191D01*
X19253075Y-8771101D02*
X19283075Y-8801101D01*
X19283075Y-8771101D02*
X19253075Y-8801101D01*
X19278912Y-10245264D02*
X19308912Y-10275264D01*
X19308912Y-10245264D02*
X19278912Y-10275264D01*
X19288912Y-3935264D02*
X19318912Y-3965264D01*
X19318912Y-3935264D02*
X19288912Y-3965264D01*
X19288912Y-9935264D02*
X19318912Y-9965264D01*
X19318912Y-9935264D02*
X19288912Y-9965264D01*
X19318912Y-8085264D02*
X19348912Y-8115264D01*
X19348912Y-8085264D02*
X19318912Y-8115264D01*
X19378912Y-4385264D02*
X19408912Y-4415264D01*
X19408912Y-4385264D02*
X19378912Y-4415264D01*
X19378912Y-6315264D02*
X19408912Y-6345264D01*
X19408912Y-6315264D02*
X19378912Y-6345264D01*
X19378912Y-8215264D02*
X19408912Y-8245264D01*
X19408912Y-8215264D02*
X19378912Y-8245264D01*
X19378912Y-10115264D02*
X19408912Y-10145264D01*
X19408912Y-10115264D02*
X19378912Y-10145264D01*
X19472400Y-5611100D02*
X19502400Y-5641100D01*
X19502400Y-5611100D02*
X19472400Y-5641100D01*
X19472400Y-7514750D02*
X19502400Y-7544750D01*
X19502400Y-7514750D02*
X19472400Y-7544750D01*
X19472400Y-9421100D02*
X19502400Y-9451100D01*
X19502400Y-9421100D02*
X19472400Y-9451100D01*
X19472400Y-11326100D02*
X19502400Y-11356100D01*
X19502400Y-11326100D02*
X19472400Y-11356100D01*
X19918912Y-4255264D02*
X19948912Y-4285264D01*
X19948912Y-4255264D02*
X19918912Y-4285264D01*
X19928912Y-4961101D02*
X19958912Y-4991101D01*
X19958912Y-4961101D02*
X19928912Y-4991101D01*
X19928912Y-10675264D02*
X19958912Y-10705264D01*
X19958912Y-10675264D02*
X19928912Y-10705264D01*
X19938912Y-6865264D02*
X19968912Y-6895264D01*
X19968912Y-6865264D02*
X19938912Y-6895264D01*
X19938912Y-8771101D02*
X19968912Y-8801101D01*
X19968912Y-8771101D02*
X19938912Y-8801101D01*
X20068912Y-8350166D02*
X20098912Y-8380166D01*
X20098912Y-8350166D02*
X20068912Y-8380166D01*
X20068912Y-10285264D02*
X20098912Y-10315264D01*
X20098912Y-10285264D02*
X20068912Y-10315264D01*
X20078912Y-6450166D02*
X20108912Y-6480166D01*
X20108912Y-6450166D02*
X20078912Y-6480166D01*
X20088912Y-4535264D02*
X20118912Y-4565264D01*
X20118912Y-4535264D02*
X20088912Y-4565264D01*
X20640600Y-5001700D02*
X20670600Y-5031700D01*
X20670600Y-5001700D02*
X20640600Y-5031700D01*
X20640600Y-6905350D02*
X20670600Y-6935350D01*
X20670600Y-6905350D02*
X20640600Y-6935350D01*
X20640600Y-8811700D02*
X20670600Y-8841700D01*
X20670600Y-8811700D02*
X20640600Y-8841700D01*
X20640600Y-10716700D02*
X20670600Y-10746700D01*
X20670600Y-10716700D02*
X20640600Y-10746700D01*
X20688912Y-11525264D02*
X20718912Y-11555264D01*
X20718912Y-11525264D02*
X20688912Y-11555264D01*
X20698912Y-7285264D02*
X20728912Y-7315264D01*
X20728912Y-7285264D02*
X20698912Y-7315264D01*
X20698912Y-9205264D02*
X20728912Y-9235264D01*
X20728912Y-9205264D02*
X20698912Y-9235264D01*
X20708912Y-5385264D02*
X20738912Y-5415264D01*
X20738912Y-5385264D02*
X20708912Y-5415264D01*
X20708912Y-11105264D02*
X20738912Y-11135264D01*
X20738912Y-11105264D02*
X20708912Y-11135264D01*
X20718912Y-9625264D02*
X20748912Y-9655264D01*
X20748912Y-9625264D02*
X20718912Y-9655264D01*
X20728912Y-7725264D02*
X20758912Y-7755264D01*
X20758912Y-7725264D02*
X20728912Y-7755264D01*
X20746612Y-11927264D02*
X20776612Y-11957264D01*
X20776612Y-11927264D02*
X20746612Y-11957264D01*
X20748912Y-5815264D02*
X20778912Y-5845264D01*
X20778912Y-5815264D02*
X20748912Y-5845264D01*
X20874200Y-5395400D02*
X20904200Y-5425400D01*
X20904200Y-5395400D02*
X20874200Y-5425400D01*
X20874200Y-7299050D02*
X20904200Y-7329050D01*
X20904200Y-7299050D02*
X20874200Y-7329050D01*
X20874200Y-9205400D02*
X20904200Y-9235400D01*
X20904200Y-9205400D02*
X20874200Y-9235400D01*
X20874200Y-11110400D02*
X20904200Y-11140400D01*
X20904200Y-11110400D02*
X20874200Y-11140400D01*
X20938912Y-4645264D02*
X20968912Y-4675264D01*
X20968912Y-4645264D02*
X20938912Y-4675264D01*
X20988912Y-9735264D02*
X21018912Y-9765264D01*
X21018912Y-9735264D02*
X20988912Y-9765264D01*
X21018912Y-5935264D02*
X21048912Y-5965264D01*
X21048912Y-5935264D02*
X21018912Y-5965264D01*
X21028912Y-7855264D02*
X21058912Y-7885264D01*
X21058912Y-7855264D02*
X21028912Y-7885264D01*
X21041600Y-6566650D02*
X21071600Y-6596650D01*
X21071600Y-6566650D02*
X21041600Y-6596650D01*
X21041600Y-8473000D02*
X21071600Y-8503000D01*
X21071600Y-8473000D02*
X21041600Y-8503000D01*
X21041600Y-10378000D02*
X21071600Y-10408000D01*
X21071600Y-10378000D02*
X21041600Y-10408000D01*
X21105376Y-4988800D02*
X21135376Y-5018800D01*
X21135376Y-4988800D02*
X21105376Y-5018800D01*
X21118912Y-4527117D02*
X21148912Y-4557117D01*
X21148912Y-4527117D02*
X21118912Y-4557117D01*
X21128912Y-6410214D02*
X21158912Y-6440214D01*
X21158912Y-6410214D02*
X21128912Y-6440214D01*
X21128912Y-6965264D02*
X21158912Y-6995264D01*
X21158912Y-6965264D02*
X21128912Y-6995264D01*
X21129839Y-10270214D02*
X21159839Y-10300214D01*
X21159839Y-10270214D02*
X21129839Y-10300214D01*
X21139839Y-8326191D02*
X21169839Y-8356191D01*
X21169839Y-8326191D02*
X21139839Y-8356191D01*
X21148912Y-8875264D02*
X21178912Y-8905264D01*
X21178912Y-8875264D02*
X21148912Y-8905264D01*
X21382400Y-5611100D02*
X21412400Y-5641100D01*
X21412400Y-5611100D02*
X21382400Y-5641100D01*
X21382400Y-7514750D02*
X21412400Y-7544750D01*
X21412400Y-7514750D02*
X21382400Y-7544750D01*
X21382400Y-9421100D02*
X21412400Y-9451100D01*
X21412400Y-9421100D02*
X21382400Y-9451100D01*
X21382400Y-11326100D02*
X21412400Y-11356100D01*
X21412400Y-11326100D02*
X21382400Y-11356100D01*
X21781662Y-10276264D02*
X21811662Y-10306264D01*
X21811662Y-10276264D02*
X21781662Y-10306264D01*
X21830376Y-10703800D02*
X21860376Y-10733800D01*
X21860376Y-10703800D02*
X21830376Y-10733800D01*
X21965738Y-6435264D02*
X21995738Y-6465264D01*
X21995738Y-6435264D02*
X21965738Y-6465264D01*
X21969839Y-8336191D02*
X21999839Y-8366191D01*
X21999839Y-8336191D02*
X21969839Y-8366191D01*
X21998912Y-4555264D02*
X22028912Y-4585264D01*
X22028912Y-4555264D02*
X21998912Y-4585264D01*
X22028912Y-4923850D02*
X22058912Y-4953850D01*
X22058912Y-4923850D02*
X22028912Y-4953850D01*
X22028912Y-8775264D02*
X22058912Y-8805264D01*
X22058912Y-8775264D02*
X22028912Y-8805264D01*
X22038912Y-6860314D02*
X22068912Y-6890314D01*
X22068912Y-6860314D02*
X22038912Y-6890314D01*
X22038912Y-10250214D02*
X22068912Y-10280214D01*
X22068912Y-10250214D02*
X22038912Y-10280214D01*
X22067400Y-8494000D02*
X22097400Y-8524000D01*
X22097400Y-8494000D02*
X22067400Y-8524000D01*
X22108912Y-6575264D02*
X22138912Y-6605264D01*
X22138912Y-6575264D02*
X22108912Y-6605264D01*
X22118912Y-4645264D02*
X22148912Y-4675264D01*
X22148912Y-4645264D02*
X22118912Y-4675264D01*
D13*
X9501412Y-7960264D02*
G75*
G03*
X9501412Y-7960264I-37500J0D01*
G01*
X9501412Y-8160264D02*
G75*
G03*
X9501412Y-8160264I-37500J0D01*
G01*
X9501412Y-8360264D02*
G75*
G03*
X9501412Y-8360264I-37500J0D01*
G01*
X9771412Y-9360264D02*
G75*
G03*
X9771412Y-9360264I-37500J0D01*
G01*
X9971412Y-9360264D02*
G75*
G03*
X9971412Y-9360264I-37500J0D01*
G01*
X10171412Y-9360264D02*
G75*
G03*
X10171412Y-9360264I-37500J0D01*
G01*
D14*
X9218000Y-4082360D02*
X9218000Y-4163640D01*
X9177360Y-4123000D02*
X9258640Y-4123000D01*
X9218000Y-4336360D02*
X9218000Y-4417640D01*
X9177360Y-4377000D02*
X9258640Y-4377000D01*
X9218000Y-4590360D02*
X9218000Y-4671640D01*
X9177360Y-4631000D02*
X9258640Y-4631000D01*
X9218000Y-4844360D02*
X9218000Y-4925640D01*
X9177360Y-4885000D02*
X9258640Y-4885000D01*
X9218000Y-5098360D02*
X9218000Y-5179640D01*
X9177360Y-5139000D02*
X9258640Y-5139000D01*
X9218000Y-5352360D02*
X9218000Y-5433640D01*
X9177360Y-5393000D02*
X9258640Y-5393000D01*
X9218000Y-5606360D02*
X9218000Y-5687640D01*
X9177360Y-5647000D02*
X9258640Y-5647000D01*
X9218000Y-5860360D02*
X9218000Y-5941640D01*
X9177360Y-5901000D02*
X9258640Y-5901000D01*
X9218000Y-6114360D02*
X9218000Y-6195640D01*
X9177360Y-6155000D02*
X9258640Y-6155000D01*
X9218000Y-6368360D02*
X9218000Y-6449640D01*
X9177360Y-6409000D02*
X9258640Y-6409000D01*
X9218000Y-6622360D02*
X9218000Y-6703640D01*
X9177360Y-6663000D02*
X9258640Y-6663000D01*
X9218000Y-6876360D02*
X9218000Y-6957640D01*
X9177360Y-6917000D02*
X9258640Y-6917000D01*
X9347882Y-4201935D02*
X9347882Y-4283215D01*
X9307242Y-4242575D02*
X9388522Y-4242575D01*
X9347882Y-4455935D02*
X9347882Y-4537215D01*
X9307242Y-4496575D02*
X9388522Y-4496575D01*
X9347882Y-4709935D02*
X9347882Y-4791215D01*
X9307242Y-4750575D02*
X9388522Y-4750575D01*
X9347882Y-4963935D02*
X9347882Y-5045215D01*
X9307242Y-5004575D02*
X9388522Y-5004575D01*
X9347882Y-5217935D02*
X9347882Y-5299215D01*
X9307242Y-5258575D02*
X9388522Y-5258575D01*
X9347882Y-5471935D02*
X9347882Y-5553215D01*
X9307242Y-5512575D02*
X9388522Y-5512575D01*
X9347882Y-5725934D02*
X9347882Y-5807214D01*
X9307242Y-5766574D02*
X9388522Y-5766574D01*
X9347882Y-5979934D02*
X9347882Y-6061214D01*
X9307242Y-6020574D02*
X9388522Y-6020574D01*
X9347882Y-6233934D02*
X9347882Y-6315214D01*
X9307242Y-6274574D02*
X9388522Y-6274574D01*
X9347882Y-6487934D02*
X9347882Y-6569214D01*
X9307242Y-6528574D02*
X9388522Y-6528574D01*
X9347882Y-6741934D02*
X9347882Y-6823214D01*
X9307242Y-6782574D02*
X9388522Y-6782574D01*
X9347882Y-6995934D02*
X9347882Y-7077214D01*
X9307242Y-7036574D02*
X9388522Y-7036574D01*
X9536941Y-7419360D02*
X9536941Y-7500640D01*
X9496301Y-7460000D02*
X9577581Y-7460000D01*
X9790941Y-7419360D02*
X9790941Y-7500640D01*
X9750301Y-7460000D02*
X9831581Y-7460000D01*
X10044941Y-7419360D02*
X10044941Y-7500640D01*
X10004301Y-7460000D02*
X10085581Y-7460000D01*
X10298941Y-7419360D02*
X10298941Y-7500640D01*
X10258301Y-7460000D02*
X10339581Y-7460000D01*
X10552941Y-7419360D02*
X10552941Y-7500640D01*
X10512301Y-7460000D02*
X10593581Y-7460000D01*
X10742000Y-4082360D02*
X10742000Y-4163640D01*
X10701360Y-4123000D02*
X10782640Y-4123000D01*
X10742000Y-4336360D02*
X10742000Y-4417640D01*
X10701360Y-4377000D02*
X10782640Y-4377000D01*
X10742000Y-4590360D02*
X10742000Y-4671640D01*
X10701360Y-4631000D02*
X10782640Y-4631000D01*
X10742000Y-4844360D02*
X10742000Y-4925640D01*
X10701360Y-4885000D02*
X10782640Y-4885000D01*
X10742000Y-5098360D02*
X10742000Y-5179640D01*
X10701360Y-5139000D02*
X10782640Y-5139000D01*
X10742000Y-5352360D02*
X10742000Y-5433640D01*
X10701360Y-5393000D02*
X10782640Y-5393000D01*
X10742000Y-5606360D02*
X10742000Y-5687640D01*
X10701360Y-5647000D02*
X10782640Y-5647000D01*
X10742000Y-5860360D02*
X10742000Y-5941640D01*
X10701360Y-5901000D02*
X10782640Y-5901000D01*
X10742000Y-6114360D02*
X10742000Y-6195640D01*
X10701360Y-6155000D02*
X10782640Y-6155000D01*
X10742000Y-6368360D02*
X10742000Y-6449640D01*
X10701360Y-6409000D02*
X10782640Y-6409000D01*
X10742000Y-6622360D02*
X10742000Y-6703640D01*
X10701360Y-6663000D02*
X10782640Y-6663000D01*
X10742000Y-6876360D02*
X10742000Y-6957640D01*
X10701360Y-6917000D02*
X10782640Y-6917000D01*
X10871882Y-4201935D02*
X10871882Y-4283215D01*
X10831242Y-4242575D02*
X10912522Y-4242575D01*
X10871882Y-4455935D02*
X10871882Y-4537215D01*
X10831242Y-4496575D02*
X10912522Y-4496575D01*
X10871882Y-4709935D02*
X10871882Y-4791215D01*
X10831242Y-4750575D02*
X10912522Y-4750575D01*
X10871882Y-4963935D02*
X10871882Y-5045215D01*
X10831242Y-5004575D02*
X10912522Y-5004575D01*
X10871882Y-5217935D02*
X10871882Y-5299215D01*
X10831242Y-5258575D02*
X10912522Y-5258575D01*
X10871882Y-5471935D02*
X10871882Y-5553215D01*
X10831242Y-5512575D02*
X10912522Y-5512575D01*
X10871882Y-5725934D02*
X10871882Y-5807214D01*
X10831242Y-5766574D02*
X10912522Y-5766574D01*
X10871882Y-5979934D02*
X10871882Y-6061214D01*
X10831242Y-6020574D02*
X10912522Y-6020574D01*
X10871882Y-6233934D02*
X10871882Y-6315214D01*
X10831242Y-6274574D02*
X10912522Y-6274574D01*
X10871882Y-6487934D02*
X10871882Y-6569214D01*
X10831242Y-6528574D02*
X10912522Y-6528574D01*
X10871882Y-6741934D02*
X10871882Y-6823214D01*
X10831242Y-6782574D02*
X10912522Y-6782574D01*
X10871882Y-6995934D02*
X10871882Y-7077214D01*
X10831242Y-7036574D02*
X10912522Y-7036574D01*
D15*
X9079874Y-8361226D02*
X9079874Y-8269302D01*
X8987950Y-8269302D01*
X8987950Y-8361226D01*
X9079874Y-8361226D01*
X9079874Y-9011226D02*
X9079874Y-8919302D01*
X8987950Y-8919302D01*
X8987950Y-9011226D01*
X9079874Y-9011226D01*
D16*
X9410220Y-11170250D02*
X9485470Y-11095000D01*
X9410220Y-11019750D01*
X9334970Y-11095000D01*
X9410220Y-11170250D01*
X9660220Y-10040250D02*
X9735470Y-9965000D01*
X9660220Y-9889750D01*
X9584970Y-9965000D01*
X9660220Y-10040250D01*
X9660220Y-11490250D02*
X9735470Y-11415000D01*
X9660220Y-11339750D01*
X9584970Y-11415000D01*
X9660220Y-11490250D01*
X9910220Y-10040250D02*
X9985470Y-9965000D01*
X9910220Y-9889750D01*
X9834970Y-9965000D01*
X9910220Y-10040250D01*
X9910220Y-11380250D02*
X9985470Y-11305000D01*
X9910220Y-11229750D01*
X9834970Y-11305000D01*
X9910220Y-11380250D01*
X10160220Y-10040250D02*
X10235470Y-9965000D01*
X10160220Y-9889750D01*
X10084970Y-9965000D01*
X10160220Y-10040250D01*
X10160220Y-11490250D02*
X10235470Y-11415000D01*
X10160220Y-11339750D01*
X10084970Y-11415000D01*
X10160220Y-11490250D01*
X10410220Y-11170250D02*
X10485470Y-11095000D01*
X10410220Y-11019750D01*
X10334970Y-11095000D01*
X10410220Y-11170250D01*
D17*
X9275415Y-10630000D02*
X9445415Y-10800000D01*
X9445415Y-10630000D02*
X9275415Y-10800000D01*
X9445415Y-10715000D02*
G75*
G03*
X9445415Y-10715000I-85000J0D01*
G01*
D11*
X9285415Y-10660000D02*
X9285415Y-10770000D01*
X9435415Y-10660000D02*
X9435415Y-10770000D01*
X9285415Y-10770000D02*
G75*
G03*
X9435415Y-10770000I75000J0D01*
G01*
X9435415Y-10660000D02*
G75*
G03*
X9285415Y-10660000I-75000J0D01*
G01*
D17*
X10375025Y-10630000D02*
X10545025Y-10800000D01*
X10545025Y-10630000D02*
X10375025Y-10800000D01*
X10545025Y-10715000D02*
G75*
G03*
X10545025Y-10715000I-85000J0D01*
G01*
D11*
X10385025Y-10660000D02*
X10385025Y-10770000D01*
X10535025Y-10660000D02*
X10535025Y-10770000D01*
X10385025Y-10770000D02*
G75*
G03*
X10535025Y-10770000I75000J0D01*
G01*
X10535025Y-10660000D02*
G75*
G03*
X10385025Y-10660000I-75000J0D01*
G01*
D18*
X9040000Y-9240000D02*
X9260000Y-9460000D01*
X9260000Y-9240000D02*
X9040000Y-9460000D01*
X9150000Y-9240000D02*
X9150000Y-9460000D01*
X9040000Y-9350000D02*
X9260000Y-9350000D01*
X10590000Y-9240000D02*
X10810000Y-9460000D01*
X10810000Y-9240000D02*
X10590000Y-9460000D01*
X10700000Y-9240000D02*
X10700000Y-9460000D01*
X10590000Y-9350000D02*
X10810000Y-9350000D01*
D11*
X8462619Y-14990476D02*
X8462619Y-14790476D01*
X8510238Y-14790476D01*
X8538810Y-14800000D01*
X8557857Y-14819048D01*
X8567381Y-14838095D01*
X8576905Y-14876190D01*
X8576905Y-14904762D01*
X8567381Y-14942857D01*
X8557857Y-14961905D01*
X8538810Y-14980952D01*
X8510238Y-14990476D01*
X8462619Y-14990476D01*
X8662619Y-14990476D02*
X8662619Y-14857143D01*
X8662619Y-14895238D02*
X8672143Y-14876190D01*
X8681667Y-14866667D01*
X8700714Y-14857143D01*
X8719762Y-14857143D01*
X8786429Y-14990476D02*
X8786429Y-14857143D01*
X8786429Y-14790476D02*
X8776905Y-14800000D01*
X8786429Y-14809524D01*
X8795952Y-14800000D01*
X8786429Y-14790476D01*
X8786429Y-14809524D01*
X8910238Y-14990476D02*
X8891190Y-14980952D01*
X8881667Y-14961905D01*
X8881667Y-14790476D01*
X9015000Y-14990476D02*
X8995952Y-14980952D01*
X8986429Y-14961905D01*
X8986429Y-14790476D01*
X9243571Y-14990476D02*
X9243571Y-14790476D01*
X9310238Y-14933333D01*
X9376905Y-14790476D01*
X9376905Y-14990476D01*
X9557857Y-14990476D02*
X9557857Y-14885714D01*
X9548333Y-14866667D01*
X9529286Y-14857143D01*
X9491190Y-14857143D01*
X9472143Y-14866667D01*
X9557857Y-14980952D02*
X9538810Y-14990476D01*
X9491190Y-14990476D01*
X9472143Y-14980952D01*
X9462619Y-14961905D01*
X9462619Y-14942857D01*
X9472143Y-14923809D01*
X9491190Y-14914286D01*
X9538810Y-14914286D01*
X9557857Y-14904762D01*
X9653095Y-14857143D02*
X9653095Y-15057143D01*
X9653095Y-14866667D02*
X9672143Y-14857143D01*
X9710238Y-14857143D01*
X9729286Y-14866667D01*
X9738810Y-14876190D01*
X9748333Y-14895238D01*
X9748333Y-14952381D01*
X9738810Y-14971428D01*
X9729286Y-14980952D01*
X9710238Y-14990476D01*
X9672143Y-14990476D01*
X9653095Y-14980952D01*
X9834048Y-14971428D02*
X9843571Y-14980952D01*
X9834048Y-14990476D01*
X9824524Y-14980952D01*
X9834048Y-14971428D01*
X9834048Y-14990476D01*
X9834048Y-14866667D02*
X9843571Y-14876190D01*
X9834048Y-14885714D01*
X9824524Y-14876190D01*
X9834048Y-14866667D01*
X9834048Y-14885714D01*
D12*
X8175000Y-15305000D02*
X8205000Y-15335000D01*
X8205000Y-15305000D02*
X8175000Y-15335000D01*
D11*
X8500714Y-15210476D02*
X8519762Y-15210476D01*
X8538810Y-15220000D01*
X8548333Y-15229524D01*
X8557857Y-15248571D01*
X8567381Y-15286667D01*
X8567381Y-15334286D01*
X8557857Y-15372381D01*
X8548333Y-15391428D01*
X8538810Y-15400952D01*
X8519762Y-15410476D01*
X8500714Y-15410476D01*
X8481667Y-15400952D01*
X8472143Y-15391428D01*
X8462619Y-15372381D01*
X8453095Y-15334286D01*
X8453095Y-15286667D01*
X8462619Y-15248571D01*
X8472143Y-15229524D01*
X8481667Y-15220000D01*
X8500714Y-15210476D01*
X8653095Y-15391428D02*
X8662619Y-15400952D01*
X8653095Y-15410476D01*
X8643571Y-15400952D01*
X8653095Y-15391428D01*
X8653095Y-15410476D01*
X8729286Y-15210476D02*
X8853095Y-15210476D01*
X8786429Y-15286667D01*
X8815000Y-15286667D01*
X8834048Y-15296190D01*
X8843571Y-15305714D01*
X8853095Y-15324762D01*
X8853095Y-15372381D01*
X8843571Y-15391428D01*
X8834048Y-15400952D01*
X8815000Y-15410476D01*
X8757857Y-15410476D01*
X8738810Y-15400952D01*
X8729286Y-15391428D01*
X8976905Y-15210476D02*
X8995952Y-15210476D01*
X9015000Y-15220000D01*
X9024524Y-15229524D01*
X9034048Y-15248571D01*
X9043571Y-15286667D01*
X9043571Y-15334286D01*
X9034048Y-15372381D01*
X9024524Y-15391428D01*
X9015000Y-15400952D01*
X8995952Y-15410476D01*
X8976905Y-15410476D01*
X8957857Y-15400952D01*
X8948333Y-15391428D01*
X8938810Y-15372381D01*
X8929286Y-15334286D01*
X8929286Y-15286667D01*
X8938810Y-15248571D01*
X8948333Y-15229524D01*
X8957857Y-15220000D01*
X8976905Y-15210476D01*
X9167381Y-15210476D02*
X9186429Y-15210476D01*
X9205476Y-15220000D01*
X9215000Y-15229524D01*
X9224524Y-15248571D01*
X9234048Y-15286667D01*
X9234048Y-15334286D01*
X9224524Y-15372381D01*
X9215000Y-15391428D01*
X9205476Y-15400952D01*
X9186429Y-15410476D01*
X9167381Y-15410476D01*
X9148333Y-15400952D01*
X9138810Y-15391428D01*
X9129286Y-15372381D01*
X9119762Y-15334286D01*
X9119762Y-15286667D01*
X9129286Y-15248571D01*
X9138810Y-15229524D01*
X9148333Y-15220000D01*
X9167381Y-15210476D01*
X9319762Y-15410476D02*
X9319762Y-15277143D01*
X9319762Y-15296190D02*
X9329286Y-15286667D01*
X9348333Y-15277143D01*
X9376905Y-15277143D01*
X9395952Y-15286667D01*
X9405476Y-15305714D01*
X9405476Y-15410476D01*
X9405476Y-15305714D02*
X9415000Y-15286667D01*
X9434048Y-15277143D01*
X9462619Y-15277143D01*
X9481667Y-15286667D01*
X9491190Y-15305714D01*
X9491190Y-15410476D01*
X9586429Y-15410476D02*
X9586429Y-15277143D01*
X9586429Y-15296190D02*
X9595952Y-15286667D01*
X9615000Y-15277143D01*
X9643571Y-15277143D01*
X9662619Y-15286667D01*
X9672143Y-15305714D01*
X9672143Y-15410476D01*
X9672143Y-15305714D02*
X9681667Y-15286667D01*
X9700714Y-15277143D01*
X9729286Y-15277143D01*
X9748333Y-15286667D01*
X9757857Y-15305714D01*
X9757857Y-15410476D01*
X10148333Y-15200952D02*
X9976905Y-15458095D01*
X10405476Y-15210476D02*
X10424524Y-15210476D01*
X10443571Y-15220000D01*
X10453095Y-15229524D01*
X10462619Y-15248571D01*
X10472143Y-15286667D01*
X10472143Y-15334286D01*
X10462619Y-15372381D01*
X10453095Y-15391428D01*
X10443571Y-15400952D01*
X10424524Y-15410476D01*
X10405476Y-15410476D01*
X10386429Y-15400952D01*
X10376905Y-15391428D01*
X10367381Y-15372381D01*
X10357857Y-15334286D01*
X10357857Y-15286667D01*
X10367381Y-15248571D01*
X10376905Y-15229524D01*
X10386429Y-15220000D01*
X10405476Y-15210476D01*
X10557857Y-15391428D02*
X10567381Y-15400952D01*
X10557857Y-15410476D01*
X10548333Y-15400952D01*
X10557857Y-15391428D01*
X10557857Y-15410476D01*
X10691190Y-15210476D02*
X10710238Y-15210476D01*
X10729286Y-15220000D01*
X10738810Y-15229524D01*
X10748333Y-15248571D01*
X10757857Y-15286667D01*
X10757857Y-15334286D01*
X10748333Y-15372381D01*
X10738810Y-15391428D01*
X10729286Y-15400952D01*
X10710238Y-15410476D01*
X10691190Y-15410476D01*
X10672143Y-15400952D01*
X10662619Y-15391428D01*
X10653095Y-15372381D01*
X10643571Y-15334286D01*
X10643571Y-15286667D01*
X10653095Y-15248571D01*
X10662619Y-15229524D01*
X10672143Y-15220000D01*
X10691190Y-15210476D01*
X10948333Y-15410476D02*
X10834048Y-15410476D01*
X10891190Y-15410476D02*
X10891190Y-15210476D01*
X10872143Y-15239048D01*
X10853095Y-15258095D01*
X10834048Y-15267619D01*
X11138810Y-15410476D02*
X11024524Y-15410476D01*
X11081667Y-15410476D02*
X11081667Y-15210476D01*
X11062619Y-15239048D01*
X11043571Y-15258095D01*
X11024524Y-15267619D01*
X11253095Y-15296190D02*
X11234048Y-15286667D01*
X11224524Y-15277143D01*
X11215000Y-15258095D01*
X11215000Y-15248571D01*
X11224524Y-15229524D01*
X11234048Y-15220000D01*
X11253095Y-15210476D01*
X11291190Y-15210476D01*
X11310238Y-15220000D01*
X11319762Y-15229524D01*
X11329286Y-15248571D01*
X11329286Y-15258095D01*
X11319762Y-15277143D01*
X11310238Y-15286667D01*
X11291190Y-15296190D01*
X11253095Y-15296190D01*
X11234048Y-15305714D01*
X11224524Y-15315238D01*
X11215000Y-15334286D01*
X11215000Y-15372381D01*
X11224524Y-15391428D01*
X11234048Y-15400952D01*
X11253095Y-15410476D01*
X11291190Y-15410476D01*
X11310238Y-15400952D01*
X11319762Y-15391428D01*
X11329286Y-15372381D01*
X11329286Y-15334286D01*
X11319762Y-15315238D01*
X11310238Y-15305714D01*
X11291190Y-15296190D01*
X11405476Y-15210476D02*
X11405476Y-15248571D01*
X11481667Y-15210476D02*
X11481667Y-15248571D01*
X11776905Y-15486667D02*
X11767381Y-15477143D01*
X11748333Y-15448571D01*
X11738809Y-15429524D01*
X11729286Y-15400952D01*
X11719762Y-15353333D01*
X11719762Y-15315238D01*
X11729286Y-15267619D01*
X11738809Y-15239048D01*
X11748333Y-15220000D01*
X11767381Y-15191428D01*
X11776905Y-15181905D01*
X11938809Y-15277143D02*
X11938809Y-15410476D01*
X11891190Y-15200952D02*
X11843571Y-15343809D01*
X11967381Y-15343809D01*
X12148333Y-15410476D02*
X12034048Y-15410476D01*
X12091190Y-15410476D02*
X12091190Y-15210476D01*
X12072143Y-15239048D01*
X12053095Y-15258095D01*
X12034048Y-15267619D01*
X12319762Y-15210476D02*
X12281667Y-15210476D01*
X12262619Y-15220000D01*
X12253095Y-15229524D01*
X12234048Y-15258095D01*
X12224524Y-15296190D01*
X12224524Y-15372381D01*
X12234048Y-15391428D01*
X12243571Y-15400952D01*
X12262619Y-15410476D01*
X12300714Y-15410476D01*
X12319762Y-15400952D01*
X12329286Y-15391428D01*
X12338809Y-15372381D01*
X12338809Y-15324762D01*
X12329286Y-15305714D01*
X12319762Y-15296190D01*
X12300714Y-15286667D01*
X12262619Y-15286667D01*
X12243571Y-15296190D01*
X12234048Y-15305714D01*
X12224524Y-15324762D01*
X12576905Y-15410476D02*
X12576905Y-15210476D01*
X12662619Y-15410476D02*
X12662619Y-15305714D01*
X12653095Y-15286667D01*
X12634048Y-15277143D01*
X12605476Y-15277143D01*
X12586428Y-15286667D01*
X12576905Y-15296190D01*
X12786428Y-15410476D02*
X12767381Y-15400952D01*
X12757857Y-15391428D01*
X12748333Y-15372381D01*
X12748333Y-15315238D01*
X12757857Y-15296190D01*
X12767381Y-15286667D01*
X12786428Y-15277143D01*
X12815000Y-15277143D01*
X12834048Y-15286667D01*
X12843571Y-15296190D01*
X12853095Y-15315238D01*
X12853095Y-15372381D01*
X12843571Y-15391428D01*
X12834048Y-15400952D01*
X12815000Y-15410476D01*
X12786428Y-15410476D01*
X12967381Y-15410476D02*
X12948333Y-15400952D01*
X12938809Y-15381905D01*
X12938809Y-15210476D01*
X13119762Y-15400952D02*
X13100714Y-15410476D01*
X13062619Y-15410476D01*
X13043571Y-15400952D01*
X13034048Y-15381905D01*
X13034048Y-15305714D01*
X13043571Y-15286667D01*
X13062619Y-15277143D01*
X13100714Y-15277143D01*
X13119762Y-15286667D01*
X13129286Y-15305714D01*
X13129286Y-15324762D01*
X13034048Y-15343809D01*
X13205476Y-15400952D02*
X13224524Y-15410476D01*
X13262619Y-15410476D01*
X13281667Y-15400952D01*
X13291190Y-15381905D01*
X13291190Y-15372381D01*
X13281667Y-15353333D01*
X13262619Y-15343809D01*
X13234048Y-15343809D01*
X13215000Y-15334286D01*
X13205476Y-15315238D01*
X13205476Y-15305714D01*
X13215000Y-15286667D01*
X13234048Y-15277143D01*
X13262619Y-15277143D01*
X13281667Y-15286667D01*
X13357857Y-15486667D02*
X13367381Y-15477143D01*
X13386428Y-15448571D01*
X13395952Y-15429524D01*
X13405476Y-15400952D01*
X13415000Y-15353333D01*
X13415000Y-15315238D01*
X13405476Y-15267619D01*
X13395952Y-15239048D01*
X13386428Y-15220000D01*
X13367381Y-15191428D01*
X13357857Y-15181905D01*
D13*
X8205000Y-15584000D02*
G75*
G03*
X8205000Y-15584000I-37500J0D01*
G01*
D11*
X8500714Y-15474476D02*
X8519762Y-15474476D01*
X8538810Y-15484000D01*
X8548333Y-15493524D01*
X8557857Y-15512571D01*
X8567381Y-15550667D01*
X8567381Y-15598286D01*
X8557857Y-15636381D01*
X8548333Y-15655428D01*
X8538810Y-15664952D01*
X8519762Y-15674476D01*
X8500714Y-15674476D01*
X8481667Y-15664952D01*
X8472143Y-15655428D01*
X8462619Y-15636381D01*
X8453095Y-15598286D01*
X8453095Y-15550667D01*
X8462619Y-15512571D01*
X8472143Y-15493524D01*
X8481667Y-15484000D01*
X8500714Y-15474476D01*
X8653095Y-15655428D02*
X8662619Y-15664952D01*
X8653095Y-15674476D01*
X8643571Y-15664952D01*
X8653095Y-15655428D01*
X8653095Y-15674476D01*
X8729286Y-15474476D02*
X8862619Y-15474476D01*
X8776905Y-15674476D01*
X9034048Y-15474476D02*
X8938810Y-15474476D01*
X8929286Y-15569714D01*
X8938810Y-15560190D01*
X8957857Y-15550667D01*
X9005476Y-15550667D01*
X9024524Y-15560190D01*
X9034048Y-15569714D01*
X9043571Y-15588762D01*
X9043571Y-15636381D01*
X9034048Y-15655428D01*
X9024524Y-15664952D01*
X9005476Y-15674476D01*
X8957857Y-15674476D01*
X8938810Y-15664952D01*
X8929286Y-15655428D01*
X9167381Y-15474476D02*
X9186429Y-15474476D01*
X9205476Y-15484000D01*
X9215000Y-15493524D01*
X9224524Y-15512571D01*
X9234048Y-15550667D01*
X9234048Y-15598286D01*
X9224524Y-15636381D01*
X9215000Y-15655428D01*
X9205476Y-15664952D01*
X9186429Y-15674476D01*
X9167381Y-15674476D01*
X9148333Y-15664952D01*
X9138810Y-15655428D01*
X9129286Y-15636381D01*
X9119762Y-15598286D01*
X9119762Y-15550667D01*
X9129286Y-15512571D01*
X9138810Y-15493524D01*
X9148333Y-15484000D01*
X9167381Y-15474476D01*
X9319762Y-15674476D02*
X9319762Y-15541143D01*
X9319762Y-15560190D02*
X9329286Y-15550667D01*
X9348333Y-15541143D01*
X9376905Y-15541143D01*
X9395952Y-15550667D01*
X9405476Y-15569714D01*
X9405476Y-15674476D01*
X9405476Y-15569714D02*
X9415000Y-15550667D01*
X9434048Y-15541143D01*
X9462619Y-15541143D01*
X9481667Y-15550667D01*
X9491190Y-15569714D01*
X9491190Y-15674476D01*
X9586429Y-15674476D02*
X9586429Y-15541143D01*
X9586429Y-15560190D02*
X9595952Y-15550667D01*
X9615000Y-15541143D01*
X9643571Y-15541143D01*
X9662619Y-15550667D01*
X9672143Y-15569714D01*
X9672143Y-15674476D01*
X9672143Y-15569714D02*
X9681667Y-15550667D01*
X9700714Y-15541143D01*
X9729286Y-15541143D01*
X9748333Y-15550667D01*
X9757857Y-15569714D01*
X9757857Y-15674476D01*
X10148333Y-15464952D02*
X9976905Y-15722095D01*
X10405476Y-15474476D02*
X10424524Y-15474476D01*
X10443571Y-15484000D01*
X10453095Y-15493524D01*
X10462619Y-15512571D01*
X10472143Y-15550667D01*
X10472143Y-15598286D01*
X10462619Y-15636381D01*
X10453095Y-15655428D01*
X10443571Y-15664952D01*
X10424524Y-15674476D01*
X10405476Y-15674476D01*
X10386429Y-15664952D01*
X10376905Y-15655428D01*
X10367381Y-15636381D01*
X10357857Y-15598286D01*
X10357857Y-15550667D01*
X10367381Y-15512571D01*
X10376905Y-15493524D01*
X10386429Y-15484000D01*
X10405476Y-15474476D01*
X10557857Y-15655428D02*
X10567381Y-15664952D01*
X10557857Y-15674476D01*
X10548333Y-15664952D01*
X10557857Y-15655428D01*
X10557857Y-15674476D01*
X10691190Y-15474476D02*
X10710238Y-15474476D01*
X10729286Y-15484000D01*
X10738810Y-15493524D01*
X10748333Y-15512571D01*
X10757857Y-15550667D01*
X10757857Y-15598286D01*
X10748333Y-15636381D01*
X10738810Y-15655428D01*
X10729286Y-15664952D01*
X10710238Y-15674476D01*
X10691190Y-15674476D01*
X10672143Y-15664952D01*
X10662619Y-15655428D01*
X10653095Y-15636381D01*
X10643571Y-15598286D01*
X10643571Y-15550667D01*
X10653095Y-15512571D01*
X10662619Y-15493524D01*
X10672143Y-15484000D01*
X10691190Y-15474476D01*
X10834048Y-15493524D02*
X10843571Y-15484000D01*
X10862619Y-15474476D01*
X10910238Y-15474476D01*
X10929286Y-15484000D01*
X10938810Y-15493524D01*
X10948333Y-15512571D01*
X10948333Y-15531619D01*
X10938810Y-15560190D01*
X10824524Y-15674476D01*
X10948333Y-15674476D01*
X11043571Y-15674476D02*
X11081667Y-15674476D01*
X11100714Y-15664952D01*
X11110238Y-15655428D01*
X11129286Y-15626857D01*
X11138810Y-15588762D01*
X11138810Y-15512571D01*
X11129286Y-15493524D01*
X11119762Y-15484000D01*
X11100714Y-15474476D01*
X11062619Y-15474476D01*
X11043571Y-15484000D01*
X11034048Y-15493524D01*
X11024524Y-15512571D01*
X11024524Y-15560190D01*
X11034048Y-15579238D01*
X11043571Y-15588762D01*
X11062619Y-15598286D01*
X11100714Y-15598286D01*
X11119762Y-15588762D01*
X11129286Y-15579238D01*
X11138810Y-15560190D01*
X11319762Y-15474476D02*
X11224524Y-15474476D01*
X11215000Y-15569714D01*
X11224524Y-15560190D01*
X11243571Y-15550667D01*
X11291190Y-15550667D01*
X11310238Y-15560190D01*
X11319762Y-15569714D01*
X11329286Y-15588762D01*
X11329286Y-15636381D01*
X11319762Y-15655428D01*
X11310238Y-15664952D01*
X11291190Y-15674476D01*
X11243571Y-15674476D01*
X11224524Y-15664952D01*
X11215000Y-15655428D01*
X11405476Y-15474476D02*
X11405476Y-15512571D01*
X11481667Y-15474476D02*
X11481667Y-15512571D01*
X11776905Y-15750667D02*
X11767381Y-15741143D01*
X11748333Y-15712571D01*
X11738809Y-15693524D01*
X11729286Y-15664952D01*
X11719762Y-15617333D01*
X11719762Y-15579238D01*
X11729286Y-15531619D01*
X11738809Y-15503048D01*
X11748333Y-15484000D01*
X11767381Y-15455428D01*
X11776905Y-15445905D01*
X11938809Y-15474476D02*
X11900714Y-15474476D01*
X11881667Y-15484000D01*
X11872143Y-15493524D01*
X11853095Y-15522095D01*
X11843571Y-15560190D01*
X11843571Y-15636381D01*
X11853095Y-15655428D01*
X11862619Y-15664952D01*
X11881667Y-15674476D01*
X11919762Y-15674476D01*
X11938809Y-15664952D01*
X11948333Y-15655428D01*
X11957857Y-15636381D01*
X11957857Y-15588762D01*
X11948333Y-15569714D01*
X11938809Y-15560190D01*
X11919762Y-15550667D01*
X11881667Y-15550667D01*
X11862619Y-15560190D01*
X11853095Y-15569714D01*
X11843571Y-15588762D01*
X12195952Y-15674476D02*
X12195952Y-15474476D01*
X12281667Y-15674476D02*
X12281667Y-15569714D01*
X12272143Y-15550667D01*
X12253095Y-15541143D01*
X12224524Y-15541143D01*
X12205476Y-15550667D01*
X12195952Y-15560190D01*
X12405476Y-15674476D02*
X12386428Y-15664952D01*
X12376905Y-15655428D01*
X12367381Y-15636381D01*
X12367381Y-15579238D01*
X12376905Y-15560190D01*
X12386428Y-15550667D01*
X12405476Y-15541143D01*
X12434048Y-15541143D01*
X12453095Y-15550667D01*
X12462619Y-15560190D01*
X12472143Y-15579238D01*
X12472143Y-15636381D01*
X12462619Y-15655428D01*
X12453095Y-15664952D01*
X12434048Y-15674476D01*
X12405476Y-15674476D01*
X12586428Y-15674476D02*
X12567381Y-15664952D01*
X12557857Y-15645905D01*
X12557857Y-15474476D01*
X12738809Y-15664952D02*
X12719762Y-15674476D01*
X12681667Y-15674476D01*
X12662619Y-15664952D01*
X12653095Y-15645905D01*
X12653095Y-15569714D01*
X12662619Y-15550667D01*
X12681667Y-15541143D01*
X12719762Y-15541143D01*
X12738809Y-15550667D01*
X12748333Y-15569714D01*
X12748333Y-15588762D01*
X12653095Y-15607809D01*
X12824524Y-15664952D02*
X12843571Y-15674476D01*
X12881667Y-15674476D01*
X12900714Y-15664952D01*
X12910238Y-15645905D01*
X12910238Y-15636381D01*
X12900714Y-15617333D01*
X12881667Y-15607809D01*
X12853095Y-15607809D01*
X12834048Y-15598286D01*
X12824524Y-15579238D01*
X12824524Y-15569714D01*
X12834048Y-15550667D01*
X12853095Y-15541143D01*
X12881667Y-15541143D01*
X12900714Y-15550667D01*
X12976905Y-15750667D02*
X12986428Y-15741143D01*
X13005476Y-15712571D01*
X13015000Y-15693524D01*
X13024524Y-15664952D01*
X13034048Y-15617333D01*
X13034048Y-15579238D01*
X13024524Y-15531619D01*
X13015000Y-15503048D01*
X13005476Y-15484000D01*
X12986428Y-15455428D01*
X12976905Y-15445905D01*
D14*
X8164360Y-15807360D02*
X8164360Y-15888640D01*
X8123720Y-15848000D02*
X8205000Y-15848000D01*
D11*
X8500714Y-15738476D02*
X8519762Y-15738476D01*
X8538810Y-15748000D01*
X8548333Y-15757524D01*
X8557857Y-15776571D01*
X8567381Y-15814667D01*
X8567381Y-15862286D01*
X8557857Y-15900381D01*
X8548333Y-15919428D01*
X8538810Y-15928952D01*
X8519762Y-15938476D01*
X8500714Y-15938476D01*
X8481667Y-15928952D01*
X8472143Y-15919428D01*
X8462619Y-15900381D01*
X8453095Y-15862286D01*
X8453095Y-15814667D01*
X8462619Y-15776571D01*
X8472143Y-15757524D01*
X8481667Y-15748000D01*
X8500714Y-15738476D01*
X8653095Y-15919428D02*
X8662619Y-15928952D01*
X8653095Y-15938476D01*
X8643571Y-15928952D01*
X8653095Y-15919428D01*
X8653095Y-15938476D01*
X8776905Y-15824190D02*
X8757857Y-15814667D01*
X8748333Y-15805143D01*
X8738810Y-15786095D01*
X8738810Y-15776571D01*
X8748333Y-15757524D01*
X8757857Y-15748000D01*
X8776905Y-15738476D01*
X8815000Y-15738476D01*
X8834048Y-15748000D01*
X8843571Y-15757524D01*
X8853095Y-15776571D01*
X8853095Y-15786095D01*
X8843571Y-15805143D01*
X8834048Y-15814667D01*
X8815000Y-15824190D01*
X8776905Y-15824190D01*
X8757857Y-15833714D01*
X8748333Y-15843238D01*
X8738810Y-15862286D01*
X8738810Y-15900381D01*
X8748333Y-15919428D01*
X8757857Y-15928952D01*
X8776905Y-15938476D01*
X8815000Y-15938476D01*
X8834048Y-15928952D01*
X8843571Y-15919428D01*
X8853095Y-15900381D01*
X8853095Y-15862286D01*
X8843571Y-15843238D01*
X8834048Y-15833714D01*
X8815000Y-15824190D01*
X9043571Y-15938476D02*
X8929286Y-15938476D01*
X8986429Y-15938476D02*
X8986429Y-15738476D01*
X8967381Y-15767048D01*
X8948333Y-15786095D01*
X8929286Y-15795619D01*
X9110238Y-15738476D02*
X9234048Y-15738476D01*
X9167381Y-15814667D01*
X9195952Y-15814667D01*
X9215000Y-15824190D01*
X9224524Y-15833714D01*
X9234048Y-15852762D01*
X9234048Y-15900381D01*
X9224524Y-15919428D01*
X9215000Y-15928952D01*
X9195952Y-15938476D01*
X9138810Y-15938476D01*
X9119762Y-15928952D01*
X9110238Y-15919428D01*
X9319762Y-15938476D02*
X9319762Y-15805143D01*
X9319762Y-15824190D02*
X9329286Y-15814667D01*
X9348333Y-15805143D01*
X9376905Y-15805143D01*
X9395952Y-15814667D01*
X9405476Y-15833714D01*
X9405476Y-15938476D01*
X9405476Y-15833714D02*
X9415000Y-15814667D01*
X9434048Y-15805143D01*
X9462619Y-15805143D01*
X9481667Y-15814667D01*
X9491190Y-15833714D01*
X9491190Y-15938476D01*
X9586429Y-15938476D02*
X9586429Y-15805143D01*
X9586429Y-15824190D02*
X9595952Y-15814667D01*
X9615000Y-15805143D01*
X9643571Y-15805143D01*
X9662619Y-15814667D01*
X9672143Y-15833714D01*
X9672143Y-15938476D01*
X9672143Y-15833714D02*
X9681667Y-15814667D01*
X9700714Y-15805143D01*
X9729286Y-15805143D01*
X9748333Y-15814667D01*
X9757857Y-15833714D01*
X9757857Y-15938476D01*
X10148333Y-15728952D02*
X9976905Y-15986095D01*
X10405476Y-15738476D02*
X10424524Y-15738476D01*
X10443571Y-15748000D01*
X10453095Y-15757524D01*
X10462619Y-15776571D01*
X10472143Y-15814667D01*
X10472143Y-15862286D01*
X10462619Y-15900381D01*
X10453095Y-15919428D01*
X10443571Y-15928952D01*
X10424524Y-15938476D01*
X10405476Y-15938476D01*
X10386429Y-15928952D01*
X10376905Y-15919428D01*
X10367381Y-15900381D01*
X10357857Y-15862286D01*
X10357857Y-15814667D01*
X10367381Y-15776571D01*
X10376905Y-15757524D01*
X10386429Y-15748000D01*
X10405476Y-15738476D01*
X10557857Y-15919428D02*
X10567381Y-15928952D01*
X10557857Y-15938476D01*
X10548333Y-15928952D01*
X10557857Y-15919428D01*
X10557857Y-15938476D01*
X10691190Y-15738476D02*
X10710238Y-15738476D01*
X10729286Y-15748000D01*
X10738810Y-15757524D01*
X10748333Y-15776571D01*
X10757857Y-15814667D01*
X10757857Y-15862286D01*
X10748333Y-15900381D01*
X10738810Y-15919428D01*
X10729286Y-15928952D01*
X10710238Y-15938476D01*
X10691190Y-15938476D01*
X10672143Y-15928952D01*
X10662619Y-15919428D01*
X10653095Y-15900381D01*
X10643571Y-15862286D01*
X10643571Y-15814667D01*
X10653095Y-15776571D01*
X10662619Y-15757524D01*
X10672143Y-15748000D01*
X10691190Y-15738476D01*
X10824524Y-15738476D02*
X10948333Y-15738476D01*
X10881667Y-15814667D01*
X10910238Y-15814667D01*
X10929286Y-15824190D01*
X10938810Y-15833714D01*
X10948333Y-15852762D01*
X10948333Y-15900381D01*
X10938810Y-15919428D01*
X10929286Y-15928952D01*
X10910238Y-15938476D01*
X10853095Y-15938476D01*
X10834048Y-15928952D01*
X10824524Y-15919428D01*
X11024524Y-15757524D02*
X11034048Y-15748000D01*
X11053095Y-15738476D01*
X11100714Y-15738476D01*
X11119762Y-15748000D01*
X11129286Y-15757524D01*
X11138810Y-15776571D01*
X11138810Y-15795619D01*
X11129286Y-15824190D01*
X11015000Y-15938476D01*
X11138810Y-15938476D01*
X11262619Y-15738476D02*
X11281667Y-15738476D01*
X11300714Y-15748000D01*
X11310238Y-15757524D01*
X11319762Y-15776571D01*
X11329286Y-15814667D01*
X11329286Y-15862286D01*
X11319762Y-15900381D01*
X11310238Y-15919428D01*
X11300714Y-15928952D01*
X11281667Y-15938476D01*
X11262619Y-15938476D01*
X11243571Y-15928952D01*
X11234048Y-15919428D01*
X11224524Y-15900381D01*
X11215000Y-15862286D01*
X11215000Y-15814667D01*
X11224524Y-15776571D01*
X11234048Y-15757524D01*
X11243571Y-15748000D01*
X11262619Y-15738476D01*
X11405476Y-15738476D02*
X11405476Y-15776571D01*
X11481667Y-15738476D02*
X11481667Y-15776571D01*
X11776905Y-16014667D02*
X11767381Y-16005143D01*
X11748333Y-15976571D01*
X11738809Y-15957524D01*
X11729286Y-15928952D01*
X11719762Y-15881333D01*
X11719762Y-15843238D01*
X11729286Y-15795619D01*
X11738809Y-15767048D01*
X11748333Y-15748000D01*
X11767381Y-15719428D01*
X11776905Y-15709905D01*
X11948333Y-15738476D02*
X11853095Y-15738476D01*
X11843571Y-15833714D01*
X11853095Y-15824190D01*
X11872143Y-15814667D01*
X11919762Y-15814667D01*
X11938809Y-15824190D01*
X11948333Y-15833714D01*
X11957857Y-15852762D01*
X11957857Y-15900381D01*
X11948333Y-15919428D01*
X11938809Y-15928952D01*
X11919762Y-15938476D01*
X11872143Y-15938476D01*
X11853095Y-15928952D01*
X11843571Y-15919428D01*
X12024524Y-15738476D02*
X12148333Y-15738476D01*
X12081667Y-15814667D01*
X12110238Y-15814667D01*
X12129286Y-15824190D01*
X12138809Y-15833714D01*
X12148333Y-15852762D01*
X12148333Y-15900381D01*
X12138809Y-15919428D01*
X12129286Y-15928952D01*
X12110238Y-15938476D01*
X12053095Y-15938476D01*
X12034048Y-15928952D01*
X12024524Y-15919428D01*
X12386428Y-15938476D02*
X12386428Y-15738476D01*
X12472143Y-15938476D02*
X12472143Y-15833714D01*
X12462619Y-15814667D01*
X12443571Y-15805143D01*
X12415000Y-15805143D01*
X12395952Y-15814667D01*
X12386428Y-15824190D01*
X12595952Y-15938476D02*
X12576905Y-15928952D01*
X12567381Y-15919428D01*
X12557857Y-15900381D01*
X12557857Y-15843238D01*
X12567381Y-15824190D01*
X12576905Y-15814667D01*
X12595952Y-15805143D01*
X12624524Y-15805143D01*
X12643571Y-15814667D01*
X12653095Y-15824190D01*
X12662619Y-15843238D01*
X12662619Y-15900381D01*
X12653095Y-15919428D01*
X12643571Y-15928952D01*
X12624524Y-15938476D01*
X12595952Y-15938476D01*
X12776905Y-15938476D02*
X12757857Y-15928952D01*
X12748333Y-15909905D01*
X12748333Y-15738476D01*
X12929286Y-15928952D02*
X12910238Y-15938476D01*
X12872143Y-15938476D01*
X12853095Y-15928952D01*
X12843571Y-15909905D01*
X12843571Y-15833714D01*
X12853095Y-15814667D01*
X12872143Y-15805143D01*
X12910238Y-15805143D01*
X12929286Y-15814667D01*
X12938809Y-15833714D01*
X12938809Y-15852762D01*
X12843571Y-15871809D01*
X13015000Y-15928952D02*
X13034048Y-15938476D01*
X13072143Y-15938476D01*
X13091190Y-15928952D01*
X13100714Y-15909905D01*
X13100714Y-15900381D01*
X13091190Y-15881333D01*
X13072143Y-15871809D01*
X13043571Y-15871809D01*
X13024524Y-15862286D01*
X13015000Y-15843238D01*
X13015000Y-15833714D01*
X13024524Y-15814667D01*
X13043571Y-15805143D01*
X13072143Y-15805143D01*
X13091190Y-15814667D01*
X13167381Y-16014667D02*
X13176905Y-16005143D01*
X13195952Y-15976571D01*
X13205476Y-15957524D01*
X13215000Y-15928952D01*
X13224524Y-15881333D01*
X13224524Y-15843238D01*
X13215000Y-15795619D01*
X13205476Y-15767048D01*
X13195952Y-15748000D01*
X13176905Y-15719428D01*
X13167381Y-15709905D01*
D15*
X8185962Y-16157962D02*
X8185962Y-16066038D01*
X8094038Y-16066038D01*
X8094038Y-16157962D01*
X8185962Y-16157962D01*
D11*
X8567381Y-16202476D02*
X8453095Y-16202476D01*
X8510238Y-16202476D02*
X8510238Y-16002476D01*
X8491190Y-16031048D01*
X8472143Y-16050095D01*
X8453095Y-16059619D01*
X8653095Y-16183428D02*
X8662619Y-16192952D01*
X8653095Y-16202476D01*
X8643571Y-16192952D01*
X8653095Y-16183428D01*
X8653095Y-16202476D01*
X8729286Y-16002476D02*
X8853095Y-16002476D01*
X8786429Y-16078667D01*
X8815000Y-16078667D01*
X8834048Y-16088190D01*
X8843571Y-16097714D01*
X8853095Y-16116762D01*
X8853095Y-16164381D01*
X8843571Y-16183428D01*
X8834048Y-16192952D01*
X8815000Y-16202476D01*
X8757857Y-16202476D01*
X8738810Y-16192952D01*
X8729286Y-16183428D01*
X8976905Y-16002476D02*
X8995952Y-16002476D01*
X9015000Y-16012000D01*
X9024524Y-16021524D01*
X9034048Y-16040571D01*
X9043571Y-16078667D01*
X9043571Y-16126286D01*
X9034048Y-16164381D01*
X9024524Y-16183428D01*
X9015000Y-16192952D01*
X8995952Y-16202476D01*
X8976905Y-16202476D01*
X8957857Y-16192952D01*
X8948333Y-16183428D01*
X8938810Y-16164381D01*
X8929286Y-16126286D01*
X8929286Y-16078667D01*
X8938810Y-16040571D01*
X8948333Y-16021524D01*
X8957857Y-16012000D01*
X8976905Y-16002476D01*
X9167381Y-16002476D02*
X9186429Y-16002476D01*
X9205476Y-16012000D01*
X9215000Y-16021524D01*
X9224524Y-16040571D01*
X9234048Y-16078667D01*
X9234048Y-16126286D01*
X9224524Y-16164381D01*
X9215000Y-16183428D01*
X9205476Y-16192952D01*
X9186429Y-16202476D01*
X9167381Y-16202476D01*
X9148333Y-16192952D01*
X9138810Y-16183428D01*
X9129286Y-16164381D01*
X9119762Y-16126286D01*
X9119762Y-16078667D01*
X9129286Y-16040571D01*
X9138810Y-16021524D01*
X9148333Y-16012000D01*
X9167381Y-16002476D01*
X9319762Y-16202476D02*
X9319762Y-16069143D01*
X9319762Y-16088190D02*
X9329286Y-16078667D01*
X9348333Y-16069143D01*
X9376905Y-16069143D01*
X9395952Y-16078667D01*
X9405476Y-16097714D01*
X9405476Y-16202476D01*
X9405476Y-16097714D02*
X9415000Y-16078667D01*
X9434048Y-16069143D01*
X9462619Y-16069143D01*
X9481667Y-16078667D01*
X9491190Y-16097714D01*
X9491190Y-16202476D01*
X9586429Y-16202476D02*
X9586429Y-16069143D01*
X9586429Y-16088190D02*
X9595952Y-16078667D01*
X9615000Y-16069143D01*
X9643571Y-16069143D01*
X9662619Y-16078667D01*
X9672143Y-16097714D01*
X9672143Y-16202476D01*
X9672143Y-16097714D02*
X9681667Y-16078667D01*
X9700714Y-16069143D01*
X9729286Y-16069143D01*
X9748333Y-16078667D01*
X9757857Y-16097714D01*
X9757857Y-16202476D01*
X10148333Y-15992952D02*
X9976905Y-16250095D01*
X10405476Y-16002476D02*
X10424524Y-16002476D01*
X10443571Y-16012000D01*
X10453095Y-16021524D01*
X10462619Y-16040571D01*
X10472143Y-16078667D01*
X10472143Y-16126286D01*
X10462619Y-16164381D01*
X10453095Y-16183428D01*
X10443571Y-16192952D01*
X10424524Y-16202476D01*
X10405476Y-16202476D01*
X10386429Y-16192952D01*
X10376905Y-16183428D01*
X10367381Y-16164381D01*
X10357857Y-16126286D01*
X10357857Y-16078667D01*
X10367381Y-16040571D01*
X10376905Y-16021524D01*
X10386429Y-16012000D01*
X10405476Y-16002476D01*
X10557857Y-16183428D02*
X10567381Y-16192952D01*
X10557857Y-16202476D01*
X10548333Y-16192952D01*
X10557857Y-16183428D01*
X10557857Y-16202476D01*
X10691190Y-16002476D02*
X10710238Y-16002476D01*
X10729286Y-16012000D01*
X10738810Y-16021524D01*
X10748333Y-16040571D01*
X10757857Y-16078667D01*
X10757857Y-16126286D01*
X10748333Y-16164381D01*
X10738810Y-16183428D01*
X10729286Y-16192952D01*
X10710238Y-16202476D01*
X10691190Y-16202476D01*
X10672143Y-16192952D01*
X10662619Y-16183428D01*
X10653095Y-16164381D01*
X10643571Y-16126286D01*
X10643571Y-16078667D01*
X10653095Y-16040571D01*
X10662619Y-16021524D01*
X10672143Y-16012000D01*
X10691190Y-16002476D01*
X10938810Y-16002476D02*
X10843571Y-16002476D01*
X10834048Y-16097714D01*
X10843571Y-16088190D01*
X10862619Y-16078667D01*
X10910238Y-16078667D01*
X10929286Y-16088190D01*
X10938810Y-16097714D01*
X10948333Y-16116762D01*
X10948333Y-16164381D01*
X10938810Y-16183428D01*
X10929286Y-16192952D01*
X10910238Y-16202476D01*
X10862619Y-16202476D01*
X10843571Y-16192952D01*
X10834048Y-16183428D01*
X11138810Y-16202476D02*
X11024524Y-16202476D01*
X11081667Y-16202476D02*
X11081667Y-16002476D01*
X11062619Y-16031048D01*
X11043571Y-16050095D01*
X11024524Y-16059619D01*
X11215000Y-16021524D02*
X11224524Y-16012000D01*
X11243571Y-16002476D01*
X11291190Y-16002476D01*
X11310238Y-16012000D01*
X11319762Y-16021524D01*
X11329286Y-16040571D01*
X11329286Y-16059619D01*
X11319762Y-16088190D01*
X11205476Y-16202476D01*
X11329286Y-16202476D01*
X11405476Y-16002476D02*
X11405476Y-16040571D01*
X11481667Y-16002476D02*
X11481667Y-16040571D01*
X11776905Y-16278667D02*
X11767381Y-16269143D01*
X11748333Y-16240571D01*
X11738809Y-16221524D01*
X11729286Y-16192952D01*
X11719762Y-16145333D01*
X11719762Y-16107238D01*
X11729286Y-16059619D01*
X11738809Y-16031048D01*
X11748333Y-16012000D01*
X11767381Y-15983428D01*
X11776905Y-15973905D01*
X11843571Y-16021524D02*
X11853095Y-16012000D01*
X11872143Y-16002476D01*
X11919762Y-16002476D01*
X11938809Y-16012000D01*
X11948333Y-16021524D01*
X11957857Y-16040571D01*
X11957857Y-16059619D01*
X11948333Y-16088190D01*
X11834048Y-16202476D01*
X11957857Y-16202476D01*
X12195952Y-16202476D02*
X12195952Y-16002476D01*
X12281667Y-16202476D02*
X12281667Y-16097714D01*
X12272143Y-16078667D01*
X12253095Y-16069143D01*
X12224524Y-16069143D01*
X12205476Y-16078667D01*
X12195952Y-16088190D01*
X12405476Y-16202476D02*
X12386428Y-16192952D01*
X12376905Y-16183428D01*
X12367381Y-16164381D01*
X12367381Y-16107238D01*
X12376905Y-16088190D01*
X12386428Y-16078667D01*
X12405476Y-16069143D01*
X12434048Y-16069143D01*
X12453095Y-16078667D01*
X12462619Y-16088190D01*
X12472143Y-16107238D01*
X12472143Y-16164381D01*
X12462619Y-16183428D01*
X12453095Y-16192952D01*
X12434048Y-16202476D01*
X12405476Y-16202476D01*
X12586428Y-16202476D02*
X12567381Y-16192952D01*
X12557857Y-16173905D01*
X12557857Y-16002476D01*
X12738809Y-16192952D02*
X12719762Y-16202476D01*
X12681667Y-16202476D01*
X12662619Y-16192952D01*
X12653095Y-16173905D01*
X12653095Y-16097714D01*
X12662619Y-16078667D01*
X12681667Y-16069143D01*
X12719762Y-16069143D01*
X12738809Y-16078667D01*
X12748333Y-16097714D01*
X12748333Y-16116762D01*
X12653095Y-16135809D01*
X12824524Y-16192952D02*
X12843571Y-16202476D01*
X12881667Y-16202476D01*
X12900714Y-16192952D01*
X12910238Y-16173905D01*
X12910238Y-16164381D01*
X12900714Y-16145333D01*
X12881667Y-16135809D01*
X12853095Y-16135809D01*
X12834048Y-16126286D01*
X12824524Y-16107238D01*
X12824524Y-16097714D01*
X12834048Y-16078667D01*
X12853095Y-16069143D01*
X12881667Y-16069143D01*
X12900714Y-16078667D01*
X12976905Y-16278667D02*
X12986428Y-16269143D01*
X13005476Y-16240571D01*
X13015000Y-16221524D01*
X13024524Y-16192952D01*
X13034048Y-16145333D01*
X13034048Y-16107238D01*
X13024524Y-16059619D01*
X13015000Y-16031048D01*
X13005476Y-16012000D01*
X12986428Y-15983428D01*
X12976905Y-15973905D01*
D16*
X8129750Y-16451250D02*
X8205000Y-16376000D01*
X8129750Y-16300750D01*
X8054500Y-16376000D01*
X8129750Y-16451250D01*
D11*
X8567381Y-16466476D02*
X8453095Y-16466476D01*
X8510238Y-16466476D02*
X8510238Y-16266476D01*
X8491190Y-16295048D01*
X8472143Y-16314095D01*
X8453095Y-16323619D01*
X8653095Y-16447428D02*
X8662619Y-16456952D01*
X8653095Y-16466476D01*
X8643571Y-16456952D01*
X8653095Y-16447428D01*
X8653095Y-16466476D01*
X8843571Y-16266476D02*
X8748333Y-16266476D01*
X8738810Y-16361714D01*
X8748333Y-16352190D01*
X8767381Y-16342667D01*
X8815000Y-16342667D01*
X8834048Y-16352190D01*
X8843571Y-16361714D01*
X8853095Y-16380762D01*
X8853095Y-16428381D01*
X8843571Y-16447428D01*
X8834048Y-16456952D01*
X8815000Y-16466476D01*
X8767381Y-16466476D01*
X8748333Y-16456952D01*
X8738810Y-16447428D01*
X8976905Y-16266476D02*
X8995952Y-16266476D01*
X9015000Y-16276000D01*
X9024524Y-16285524D01*
X9034048Y-16304571D01*
X9043571Y-16342667D01*
X9043571Y-16390286D01*
X9034048Y-16428381D01*
X9024524Y-16447428D01*
X9015000Y-16456952D01*
X8995952Y-16466476D01*
X8976905Y-16466476D01*
X8957857Y-16456952D01*
X8948333Y-16447428D01*
X8938810Y-16428381D01*
X8929286Y-16390286D01*
X8929286Y-16342667D01*
X8938810Y-16304571D01*
X8948333Y-16285524D01*
X8957857Y-16276000D01*
X8976905Y-16266476D01*
X9224524Y-16266476D02*
X9129286Y-16266476D01*
X9119762Y-16361714D01*
X9129286Y-16352190D01*
X9148333Y-16342667D01*
X9195952Y-16342667D01*
X9215000Y-16352190D01*
X9224524Y-16361714D01*
X9234048Y-16380762D01*
X9234048Y-16428381D01*
X9224524Y-16447428D01*
X9215000Y-16456952D01*
X9195952Y-16466476D01*
X9148333Y-16466476D01*
X9129286Y-16456952D01*
X9119762Y-16447428D01*
X9319762Y-16466476D02*
X9319762Y-16333143D01*
X9319762Y-16352190D02*
X9329286Y-16342667D01*
X9348333Y-16333143D01*
X9376905Y-16333143D01*
X9395952Y-16342667D01*
X9405476Y-16361714D01*
X9405476Y-16466476D01*
X9405476Y-16361714D02*
X9415000Y-16342667D01*
X9434048Y-16333143D01*
X9462619Y-16333143D01*
X9481667Y-16342667D01*
X9491190Y-16361714D01*
X9491190Y-16466476D01*
X9586429Y-16466476D02*
X9586429Y-16333143D01*
X9586429Y-16352190D02*
X9595952Y-16342667D01*
X9615000Y-16333143D01*
X9643571Y-16333143D01*
X9662619Y-16342667D01*
X9672143Y-16361714D01*
X9672143Y-16466476D01*
X9672143Y-16361714D02*
X9681667Y-16342667D01*
X9700714Y-16333143D01*
X9729286Y-16333143D01*
X9748333Y-16342667D01*
X9757857Y-16361714D01*
X9757857Y-16466476D01*
X10148333Y-16256952D02*
X9976905Y-16514095D01*
X10405476Y-16266476D02*
X10424524Y-16266476D01*
X10443571Y-16276000D01*
X10453095Y-16285524D01*
X10462619Y-16304571D01*
X10472143Y-16342667D01*
X10472143Y-16390286D01*
X10462619Y-16428381D01*
X10453095Y-16447428D01*
X10443571Y-16456952D01*
X10424524Y-16466476D01*
X10405476Y-16466476D01*
X10386429Y-16456952D01*
X10376905Y-16447428D01*
X10367381Y-16428381D01*
X10357857Y-16390286D01*
X10357857Y-16342667D01*
X10367381Y-16304571D01*
X10376905Y-16285524D01*
X10386429Y-16276000D01*
X10405476Y-16266476D01*
X10557857Y-16447428D02*
X10567381Y-16456952D01*
X10557857Y-16466476D01*
X10548333Y-16456952D01*
X10557857Y-16447428D01*
X10557857Y-16466476D01*
X10691190Y-16266476D02*
X10710238Y-16266476D01*
X10729286Y-16276000D01*
X10738810Y-16285524D01*
X10748333Y-16304571D01*
X10757857Y-16342667D01*
X10757857Y-16390286D01*
X10748333Y-16428381D01*
X10738810Y-16447428D01*
X10729286Y-16456952D01*
X10710238Y-16466476D01*
X10691190Y-16466476D01*
X10672143Y-16456952D01*
X10662619Y-16447428D01*
X10653095Y-16428381D01*
X10643571Y-16390286D01*
X10643571Y-16342667D01*
X10653095Y-16304571D01*
X10662619Y-16285524D01*
X10672143Y-16276000D01*
X10691190Y-16266476D01*
X10938810Y-16266476D02*
X10843571Y-16266476D01*
X10834048Y-16361714D01*
X10843571Y-16352190D01*
X10862619Y-16342667D01*
X10910238Y-16342667D01*
X10929286Y-16352190D01*
X10938810Y-16361714D01*
X10948333Y-16380762D01*
X10948333Y-16428381D01*
X10938810Y-16447428D01*
X10929286Y-16456952D01*
X10910238Y-16466476D01*
X10862619Y-16466476D01*
X10843571Y-16456952D01*
X10834048Y-16447428D01*
X11043571Y-16466476D02*
X11081667Y-16466476D01*
X11100714Y-16456952D01*
X11110238Y-16447428D01*
X11129286Y-16418857D01*
X11138810Y-16380762D01*
X11138810Y-16304571D01*
X11129286Y-16285524D01*
X11119762Y-16276000D01*
X11100714Y-16266476D01*
X11062619Y-16266476D01*
X11043571Y-16276000D01*
X11034048Y-16285524D01*
X11024524Y-16304571D01*
X11024524Y-16352190D01*
X11034048Y-16371238D01*
X11043571Y-16380762D01*
X11062619Y-16390286D01*
X11100714Y-16390286D01*
X11119762Y-16380762D01*
X11129286Y-16371238D01*
X11138810Y-16352190D01*
X11205476Y-16266476D02*
X11329286Y-16266476D01*
X11262619Y-16342667D01*
X11291190Y-16342667D01*
X11310238Y-16352190D01*
X11319762Y-16361714D01*
X11329286Y-16380762D01*
X11329286Y-16428381D01*
X11319762Y-16447428D01*
X11310238Y-16456952D01*
X11291190Y-16466476D01*
X11234048Y-16466476D01*
X11215000Y-16456952D01*
X11205476Y-16447428D01*
X11405476Y-16266476D02*
X11405476Y-16304571D01*
X11481667Y-16266476D02*
X11481667Y-16304571D01*
X11776905Y-16542667D02*
X11767381Y-16533143D01*
X11748333Y-16504571D01*
X11738809Y-16485524D01*
X11729286Y-16456952D01*
X11719762Y-16409333D01*
X11719762Y-16371238D01*
X11729286Y-16323619D01*
X11738809Y-16295048D01*
X11748333Y-16276000D01*
X11767381Y-16247428D01*
X11776905Y-16237905D01*
X11881667Y-16352190D02*
X11862619Y-16342667D01*
X11853095Y-16333143D01*
X11843571Y-16314095D01*
X11843571Y-16304571D01*
X11853095Y-16285524D01*
X11862619Y-16276000D01*
X11881667Y-16266476D01*
X11919762Y-16266476D01*
X11938809Y-16276000D01*
X11948333Y-16285524D01*
X11957857Y-16304571D01*
X11957857Y-16314095D01*
X11948333Y-16333143D01*
X11938809Y-16342667D01*
X11919762Y-16352190D01*
X11881667Y-16352190D01*
X11862619Y-16361714D01*
X11853095Y-16371238D01*
X11843571Y-16390286D01*
X11843571Y-16428381D01*
X11853095Y-16447428D01*
X11862619Y-16456952D01*
X11881667Y-16466476D01*
X11919762Y-16466476D01*
X11938809Y-16456952D01*
X11948333Y-16447428D01*
X11957857Y-16428381D01*
X11957857Y-16390286D01*
X11948333Y-16371238D01*
X11938809Y-16361714D01*
X11919762Y-16352190D01*
X12195952Y-16466476D02*
X12195952Y-16266476D01*
X12281667Y-16466476D02*
X12281667Y-16361714D01*
X12272143Y-16342667D01*
X12253095Y-16333143D01*
X12224524Y-16333143D01*
X12205476Y-16342667D01*
X12195952Y-16352190D01*
X12405476Y-16466476D02*
X12386428Y-16456952D01*
X12376905Y-16447428D01*
X12367381Y-16428381D01*
X12367381Y-16371238D01*
X12376905Y-16352190D01*
X12386428Y-16342667D01*
X12405476Y-16333143D01*
X12434048Y-16333143D01*
X12453095Y-16342667D01*
X12462619Y-16352190D01*
X12472143Y-16371238D01*
X12472143Y-16428381D01*
X12462619Y-16447428D01*
X12453095Y-16456952D01*
X12434048Y-16466476D01*
X12405476Y-16466476D01*
X12586428Y-16466476D02*
X12567381Y-16456952D01*
X12557857Y-16437905D01*
X12557857Y-16266476D01*
X12738809Y-16456952D02*
X12719762Y-16466476D01*
X12681667Y-16466476D01*
X12662619Y-16456952D01*
X12653095Y-16437905D01*
X12653095Y-16361714D01*
X12662619Y-16342667D01*
X12681667Y-16333143D01*
X12719762Y-16333143D01*
X12738809Y-16342667D01*
X12748333Y-16361714D01*
X12748333Y-16380762D01*
X12653095Y-16399809D01*
X12824524Y-16456952D02*
X12843571Y-16466476D01*
X12881667Y-16466476D01*
X12900714Y-16456952D01*
X12910238Y-16437905D01*
X12910238Y-16428381D01*
X12900714Y-16409333D01*
X12881667Y-16399809D01*
X12853095Y-16399809D01*
X12834048Y-16390286D01*
X12824524Y-16371238D01*
X12824524Y-16361714D01*
X12834048Y-16342667D01*
X12853095Y-16333143D01*
X12881667Y-16333143D01*
X12900714Y-16342667D01*
X12976905Y-16542667D02*
X12986428Y-16533143D01*
X13005476Y-16504571D01*
X13015000Y-16485524D01*
X13024524Y-16456952D01*
X13034048Y-16409333D01*
X13034048Y-16371238D01*
X13024524Y-16323619D01*
X13015000Y-16295048D01*
X13005476Y-16276000D01*
X12986428Y-16247428D01*
X12976905Y-16237905D01*
D17*
X8035000Y-16561500D02*
X8205000Y-16731500D01*
X8205000Y-16561500D02*
X8035000Y-16731500D01*
X8205000Y-16646500D02*
G75*
G03*
X8205000Y-16646500I-85000J0D01*
G01*
D11*
X8567381Y-16736976D02*
X8453095Y-16736976D01*
X8510238Y-16736976D02*
X8510238Y-16536976D01*
X8491190Y-16565548D01*
X8472143Y-16584595D01*
X8453095Y-16594119D01*
X8653095Y-16717928D02*
X8662619Y-16727452D01*
X8653095Y-16736976D01*
X8643571Y-16727452D01*
X8653095Y-16717928D01*
X8653095Y-16736976D01*
X8729286Y-16536976D02*
X8862619Y-16536976D01*
X8776905Y-16736976D01*
X8976905Y-16536976D02*
X8995952Y-16536976D01*
X9015000Y-16546500D01*
X9024524Y-16556024D01*
X9034048Y-16575071D01*
X9043571Y-16613167D01*
X9043571Y-16660786D01*
X9034048Y-16698881D01*
X9024524Y-16717928D01*
X9015000Y-16727452D01*
X8995952Y-16736976D01*
X8976905Y-16736976D01*
X8957857Y-16727452D01*
X8948333Y-16717928D01*
X8938810Y-16698881D01*
X8929286Y-16660786D01*
X8929286Y-16613167D01*
X8938810Y-16575071D01*
X8948333Y-16556024D01*
X8957857Y-16546500D01*
X8976905Y-16536976D01*
X9167381Y-16536976D02*
X9186429Y-16536976D01*
X9205476Y-16546500D01*
X9215000Y-16556024D01*
X9224524Y-16575071D01*
X9234048Y-16613167D01*
X9234048Y-16660786D01*
X9224524Y-16698881D01*
X9215000Y-16717928D01*
X9205476Y-16727452D01*
X9186429Y-16736976D01*
X9167381Y-16736976D01*
X9148333Y-16727452D01*
X9138810Y-16717928D01*
X9129286Y-16698881D01*
X9119762Y-16660786D01*
X9119762Y-16613167D01*
X9129286Y-16575071D01*
X9138810Y-16556024D01*
X9148333Y-16546500D01*
X9167381Y-16536976D01*
X9319762Y-16736976D02*
X9319762Y-16603643D01*
X9319762Y-16622690D02*
X9329286Y-16613167D01*
X9348333Y-16603643D01*
X9376905Y-16603643D01*
X9395952Y-16613167D01*
X9405476Y-16632214D01*
X9405476Y-16736976D01*
X9405476Y-16632214D02*
X9415000Y-16613167D01*
X9434048Y-16603643D01*
X9462619Y-16603643D01*
X9481667Y-16613167D01*
X9491190Y-16632214D01*
X9491190Y-16736976D01*
X9586429Y-16736976D02*
X9586429Y-16603643D01*
X9586429Y-16622690D02*
X9595952Y-16613167D01*
X9615000Y-16603643D01*
X9643571Y-16603643D01*
X9662619Y-16613167D01*
X9672143Y-16632214D01*
X9672143Y-16736976D01*
X9672143Y-16632214D02*
X9681667Y-16613167D01*
X9700714Y-16603643D01*
X9729286Y-16603643D01*
X9748333Y-16613167D01*
X9757857Y-16632214D01*
X9757857Y-16736976D01*
X10148333Y-16527452D02*
X9976905Y-16784595D01*
X10405476Y-16536976D02*
X10424524Y-16536976D01*
X10443571Y-16546500D01*
X10453095Y-16556024D01*
X10462619Y-16575071D01*
X10472143Y-16613167D01*
X10472143Y-16660786D01*
X10462619Y-16698881D01*
X10453095Y-16717928D01*
X10443571Y-16727452D01*
X10424524Y-16736976D01*
X10405476Y-16736976D01*
X10386429Y-16727452D01*
X10376905Y-16717928D01*
X10367381Y-16698881D01*
X10357857Y-16660786D01*
X10357857Y-16613167D01*
X10367381Y-16575071D01*
X10376905Y-16556024D01*
X10386429Y-16546500D01*
X10405476Y-16536976D01*
X10557857Y-16717928D02*
X10567381Y-16727452D01*
X10557857Y-16736976D01*
X10548333Y-16727452D01*
X10557857Y-16717928D01*
X10557857Y-16736976D01*
X10691190Y-16536976D02*
X10710238Y-16536976D01*
X10729286Y-16546500D01*
X10738810Y-16556024D01*
X10748333Y-16575071D01*
X10757857Y-16613167D01*
X10757857Y-16660786D01*
X10748333Y-16698881D01*
X10738810Y-16717928D01*
X10729286Y-16727452D01*
X10710238Y-16736976D01*
X10691190Y-16736976D01*
X10672143Y-16727452D01*
X10662619Y-16717928D01*
X10653095Y-16698881D01*
X10643571Y-16660786D01*
X10643571Y-16613167D01*
X10653095Y-16575071D01*
X10662619Y-16556024D01*
X10672143Y-16546500D01*
X10691190Y-16536976D01*
X10929286Y-16536976D02*
X10891190Y-16536976D01*
X10872143Y-16546500D01*
X10862619Y-16556024D01*
X10843571Y-16584595D01*
X10834048Y-16622690D01*
X10834048Y-16698881D01*
X10843571Y-16717928D01*
X10853095Y-16727452D01*
X10872143Y-16736976D01*
X10910238Y-16736976D01*
X10929286Y-16727452D01*
X10938810Y-16717928D01*
X10948333Y-16698881D01*
X10948333Y-16651262D01*
X10938810Y-16632214D01*
X10929286Y-16622690D01*
X10910238Y-16613167D01*
X10872143Y-16613167D01*
X10853095Y-16622690D01*
X10843571Y-16632214D01*
X10834048Y-16651262D01*
X11119762Y-16536976D02*
X11081667Y-16536976D01*
X11062619Y-16546500D01*
X11053095Y-16556024D01*
X11034048Y-16584595D01*
X11024524Y-16622690D01*
X11024524Y-16698881D01*
X11034048Y-16717928D01*
X11043571Y-16727452D01*
X11062619Y-16736976D01*
X11100714Y-16736976D01*
X11119762Y-16727452D01*
X11129286Y-16717928D01*
X11138810Y-16698881D01*
X11138810Y-16651262D01*
X11129286Y-16632214D01*
X11119762Y-16622690D01*
X11100714Y-16613167D01*
X11062619Y-16613167D01*
X11043571Y-16622690D01*
X11034048Y-16632214D01*
X11024524Y-16651262D01*
X11234048Y-16736976D02*
X11272143Y-16736976D01*
X11291190Y-16727452D01*
X11300714Y-16717928D01*
X11319762Y-16689357D01*
X11329286Y-16651262D01*
X11329286Y-16575071D01*
X11319762Y-16556024D01*
X11310238Y-16546500D01*
X11291190Y-16536976D01*
X11253095Y-16536976D01*
X11234048Y-16546500D01*
X11224524Y-16556024D01*
X11215000Y-16575071D01*
X11215000Y-16622690D01*
X11224524Y-16641738D01*
X11234048Y-16651262D01*
X11253095Y-16660786D01*
X11291190Y-16660786D01*
X11310238Y-16651262D01*
X11319762Y-16641738D01*
X11329286Y-16622690D01*
X11405476Y-16536976D02*
X11405476Y-16575071D01*
X11481667Y-16536976D02*
X11481667Y-16575071D01*
X11776905Y-16813167D02*
X11767381Y-16803643D01*
X11748333Y-16775071D01*
X11738809Y-16756024D01*
X11729286Y-16727452D01*
X11719762Y-16679833D01*
X11719762Y-16641738D01*
X11729286Y-16594119D01*
X11738809Y-16565548D01*
X11748333Y-16546500D01*
X11767381Y-16517928D01*
X11776905Y-16508405D01*
X11891190Y-16536976D02*
X11910238Y-16536976D01*
X11929286Y-16546500D01*
X11938809Y-16556024D01*
X11948333Y-16575071D01*
X11957857Y-16613167D01*
X11957857Y-16660786D01*
X11948333Y-16698881D01*
X11938809Y-16717928D01*
X11929286Y-16727452D01*
X11910238Y-16736976D01*
X11891190Y-16736976D01*
X11872143Y-16727452D01*
X11862619Y-16717928D01*
X11853095Y-16698881D01*
X11843571Y-16660786D01*
X11843571Y-16613167D01*
X11853095Y-16575071D01*
X11862619Y-16556024D01*
X11872143Y-16546500D01*
X11891190Y-16536976D01*
X12195952Y-16736976D02*
X12195952Y-16536976D01*
X12281667Y-16736976D02*
X12281667Y-16632214D01*
X12272143Y-16613167D01*
X12253095Y-16603643D01*
X12224524Y-16603643D01*
X12205476Y-16613167D01*
X12195952Y-16622690D01*
X12405476Y-16736976D02*
X12386428Y-16727452D01*
X12376905Y-16717928D01*
X12367381Y-16698881D01*
X12367381Y-16641738D01*
X12376905Y-16622690D01*
X12386428Y-16613167D01*
X12405476Y-16603643D01*
X12434048Y-16603643D01*
X12453095Y-16613167D01*
X12462619Y-16622690D01*
X12472143Y-16641738D01*
X12472143Y-16698881D01*
X12462619Y-16717928D01*
X12453095Y-16727452D01*
X12434048Y-16736976D01*
X12405476Y-16736976D01*
X12586428Y-16736976D02*
X12567381Y-16727452D01*
X12557857Y-16708405D01*
X12557857Y-16536976D01*
X12738809Y-16727452D02*
X12719762Y-16736976D01*
X12681667Y-16736976D01*
X12662619Y-16727452D01*
X12653095Y-16708405D01*
X12653095Y-16632214D01*
X12662619Y-16613167D01*
X12681667Y-16603643D01*
X12719762Y-16603643D01*
X12738809Y-16613167D01*
X12748333Y-16632214D01*
X12748333Y-16651262D01*
X12653095Y-16670309D01*
X12824524Y-16727452D02*
X12843571Y-16736976D01*
X12881667Y-16736976D01*
X12900714Y-16727452D01*
X12910238Y-16708405D01*
X12910238Y-16698881D01*
X12900714Y-16679833D01*
X12881667Y-16670309D01*
X12853095Y-16670309D01*
X12834048Y-16660786D01*
X12824524Y-16641738D01*
X12824524Y-16632214D01*
X12834048Y-16613167D01*
X12853095Y-16603643D01*
X12881667Y-16603643D01*
X12900714Y-16613167D01*
X13148333Y-16660786D02*
X13300714Y-16660786D01*
X13224524Y-16736976D02*
X13224524Y-16584595D01*
X13538809Y-16556024D02*
X13548333Y-16546500D01*
X13567381Y-16536976D01*
X13615000Y-16536976D01*
X13634048Y-16546500D01*
X13643571Y-16556024D01*
X13653095Y-16575071D01*
X13653095Y-16594119D01*
X13643571Y-16622690D01*
X13529286Y-16736976D01*
X13653095Y-16736976D01*
X13881667Y-16727452D02*
X13900714Y-16736976D01*
X13938809Y-16736976D01*
X13957857Y-16727452D01*
X13967381Y-16708405D01*
X13967381Y-16698881D01*
X13957857Y-16679833D01*
X13938809Y-16670309D01*
X13910238Y-16670309D01*
X13891190Y-16660786D01*
X13881667Y-16641738D01*
X13881667Y-16632214D01*
X13891190Y-16613167D01*
X13910238Y-16603643D01*
X13938809Y-16603643D01*
X13957857Y-16613167D01*
X14081667Y-16736976D02*
X14062619Y-16727452D01*
X14053095Y-16708405D01*
X14053095Y-16536976D01*
X14186428Y-16736976D02*
X14167381Y-16727452D01*
X14157857Y-16717928D01*
X14148333Y-16698881D01*
X14148333Y-16641738D01*
X14157857Y-16622690D01*
X14167381Y-16613167D01*
X14186428Y-16603643D01*
X14215000Y-16603643D01*
X14234048Y-16613167D01*
X14243571Y-16622690D01*
X14253095Y-16641738D01*
X14253095Y-16698881D01*
X14243571Y-16717928D01*
X14234048Y-16727452D01*
X14215000Y-16736976D01*
X14186428Y-16736976D01*
X14310238Y-16603643D02*
X14386428Y-16603643D01*
X14338809Y-16536976D02*
X14338809Y-16708405D01*
X14348333Y-16727452D01*
X14367381Y-16736976D01*
X14386428Y-16736976D01*
X14443571Y-16727452D02*
X14462619Y-16736976D01*
X14500714Y-16736976D01*
X14519762Y-16727452D01*
X14529286Y-16708405D01*
X14529286Y-16698881D01*
X14519762Y-16679833D01*
X14500714Y-16670309D01*
X14472143Y-16670309D01*
X14453095Y-16660786D01*
X14443571Y-16641738D01*
X14443571Y-16632214D01*
X14453095Y-16613167D01*
X14472143Y-16603643D01*
X14500714Y-16603643D01*
X14519762Y-16613167D01*
X14595952Y-16813167D02*
X14605476Y-16803643D01*
X14624524Y-16775071D01*
X14634048Y-16756024D01*
X14643571Y-16727452D01*
X14653095Y-16679833D01*
X14653095Y-16641738D01*
X14643571Y-16594119D01*
X14634048Y-16565548D01*
X14624524Y-16546500D01*
X14605476Y-16517928D01*
X14595952Y-16508405D01*
X8005000Y-16836500D02*
X8205000Y-17036500D01*
X8205000Y-16836500D02*
X8005000Y-17036500D01*
X8105000Y-16836500D02*
X8105000Y-17036500D01*
X8005000Y-16936500D02*
X8205000Y-16936500D01*
X8453095Y-16846024D02*
X8462619Y-16836500D01*
X8481667Y-16826976D01*
X8529286Y-16826976D01*
X8548333Y-16836500D01*
X8557857Y-16846024D01*
X8567381Y-16865071D01*
X8567381Y-16884119D01*
X8557857Y-16912690D01*
X8443571Y-17026976D01*
X8567381Y-17026976D01*
X8653095Y-17007929D02*
X8662619Y-17017452D01*
X8653095Y-17026976D01*
X8643571Y-17017452D01*
X8653095Y-17007929D01*
X8653095Y-17026976D01*
X8738810Y-16846024D02*
X8748333Y-16836500D01*
X8767381Y-16826976D01*
X8815000Y-16826976D01*
X8834048Y-16836500D01*
X8843571Y-16846024D01*
X8853095Y-16865071D01*
X8853095Y-16884119D01*
X8843571Y-16912690D01*
X8729286Y-17026976D01*
X8853095Y-17026976D01*
X8976905Y-16826976D02*
X8995952Y-16826976D01*
X9015000Y-16836500D01*
X9024524Y-16846024D01*
X9034048Y-16865071D01*
X9043571Y-16903167D01*
X9043571Y-16950786D01*
X9034048Y-16988881D01*
X9024524Y-17007929D01*
X9015000Y-17017452D01*
X8995952Y-17026976D01*
X8976905Y-17026976D01*
X8957857Y-17017452D01*
X8948333Y-17007929D01*
X8938810Y-16988881D01*
X8929286Y-16950786D01*
X8929286Y-16903167D01*
X8938810Y-16865071D01*
X8948333Y-16846024D01*
X8957857Y-16836500D01*
X8976905Y-16826976D01*
X9167381Y-16826976D02*
X9186429Y-16826976D01*
X9205476Y-16836500D01*
X9215000Y-16846024D01*
X9224524Y-16865071D01*
X9234048Y-16903167D01*
X9234048Y-16950786D01*
X9224524Y-16988881D01*
X9215000Y-17007929D01*
X9205476Y-17017452D01*
X9186429Y-17026976D01*
X9167381Y-17026976D01*
X9148333Y-17017452D01*
X9138810Y-17007929D01*
X9129286Y-16988881D01*
X9119762Y-16950786D01*
X9119762Y-16903167D01*
X9129286Y-16865071D01*
X9138810Y-16846024D01*
X9148333Y-16836500D01*
X9167381Y-16826976D01*
X9319762Y-17026976D02*
X9319762Y-16893643D01*
X9319762Y-16912690D02*
X9329286Y-16903167D01*
X9348333Y-16893643D01*
X9376905Y-16893643D01*
X9395952Y-16903167D01*
X9405476Y-16922214D01*
X9405476Y-17026976D01*
X9405476Y-16922214D02*
X9415000Y-16903167D01*
X9434048Y-16893643D01*
X9462619Y-16893643D01*
X9481667Y-16903167D01*
X9491190Y-16922214D01*
X9491190Y-17026976D01*
X9586429Y-17026976D02*
X9586429Y-16893643D01*
X9586429Y-16912690D02*
X9595952Y-16903167D01*
X9615000Y-16893643D01*
X9643571Y-16893643D01*
X9662619Y-16903167D01*
X9672143Y-16922214D01*
X9672143Y-17026976D01*
X9672143Y-16922214D02*
X9681667Y-16903167D01*
X9700714Y-16893643D01*
X9729286Y-16893643D01*
X9748333Y-16903167D01*
X9757857Y-16922214D01*
X9757857Y-17026976D01*
X10148333Y-16817452D02*
X9976905Y-17074595D01*
X10405476Y-16826976D02*
X10424524Y-16826976D01*
X10443571Y-16836500D01*
X10453095Y-16846024D01*
X10462619Y-16865071D01*
X10472143Y-16903167D01*
X10472143Y-16950786D01*
X10462619Y-16988881D01*
X10453095Y-17007929D01*
X10443571Y-17017452D01*
X10424524Y-17026976D01*
X10405476Y-17026976D01*
X10386429Y-17017452D01*
X10376905Y-17007929D01*
X10367381Y-16988881D01*
X10357857Y-16950786D01*
X10357857Y-16903167D01*
X10367381Y-16865071D01*
X10376905Y-16846024D01*
X10386429Y-16836500D01*
X10405476Y-16826976D01*
X10557857Y-17007929D02*
X10567381Y-17017452D01*
X10557857Y-17026976D01*
X10548333Y-17017452D01*
X10557857Y-17007929D01*
X10557857Y-17026976D01*
X10691190Y-16826976D02*
X10710238Y-16826976D01*
X10729286Y-16836500D01*
X10738810Y-16846024D01*
X10748333Y-16865071D01*
X10757857Y-16903167D01*
X10757857Y-16950786D01*
X10748333Y-16988881D01*
X10738810Y-17007929D01*
X10729286Y-17017452D01*
X10710238Y-17026976D01*
X10691190Y-17026976D01*
X10672143Y-17017452D01*
X10662619Y-17007929D01*
X10653095Y-16988881D01*
X10643571Y-16950786D01*
X10643571Y-16903167D01*
X10653095Y-16865071D01*
X10662619Y-16846024D01*
X10672143Y-16836500D01*
X10691190Y-16826976D01*
X10872143Y-16912690D02*
X10853095Y-16903167D01*
X10843571Y-16893643D01*
X10834048Y-16874595D01*
X10834048Y-16865071D01*
X10843571Y-16846024D01*
X10853095Y-16836500D01*
X10872143Y-16826976D01*
X10910238Y-16826976D01*
X10929286Y-16836500D01*
X10938810Y-16846024D01*
X10948333Y-16865071D01*
X10948333Y-16874595D01*
X10938810Y-16893643D01*
X10929286Y-16903167D01*
X10910238Y-16912690D01*
X10872143Y-16912690D01*
X10853095Y-16922214D01*
X10843571Y-16931738D01*
X10834048Y-16950786D01*
X10834048Y-16988881D01*
X10843571Y-17007929D01*
X10853095Y-17017452D01*
X10872143Y-17026976D01*
X10910238Y-17026976D01*
X10929286Y-17017452D01*
X10938810Y-17007929D01*
X10948333Y-16988881D01*
X10948333Y-16950786D01*
X10938810Y-16931738D01*
X10929286Y-16922214D01*
X10910238Y-16912690D01*
X11119762Y-16826976D02*
X11081667Y-16826976D01*
X11062619Y-16836500D01*
X11053095Y-16846024D01*
X11034048Y-16874595D01*
X11024524Y-16912690D01*
X11024524Y-16988881D01*
X11034048Y-17007929D01*
X11043571Y-17017452D01*
X11062619Y-17026976D01*
X11100714Y-17026976D01*
X11119762Y-17017452D01*
X11129286Y-17007929D01*
X11138810Y-16988881D01*
X11138810Y-16941262D01*
X11129286Y-16922214D01*
X11119762Y-16912690D01*
X11100714Y-16903167D01*
X11062619Y-16903167D01*
X11043571Y-16912690D01*
X11034048Y-16922214D01*
X11024524Y-16941262D01*
X11310238Y-16826976D02*
X11272143Y-16826976D01*
X11253095Y-16836500D01*
X11243571Y-16846024D01*
X11224524Y-16874595D01*
X11215000Y-16912690D01*
X11215000Y-16988881D01*
X11224524Y-17007929D01*
X11234048Y-17017452D01*
X11253095Y-17026976D01*
X11291190Y-17026976D01*
X11310238Y-17017452D01*
X11319762Y-17007929D01*
X11329286Y-16988881D01*
X11329286Y-16941262D01*
X11319762Y-16922214D01*
X11310238Y-16912690D01*
X11291190Y-16903167D01*
X11253095Y-16903167D01*
X11234048Y-16912690D01*
X11224524Y-16922214D01*
X11215000Y-16941262D01*
X11405476Y-16826976D02*
X11405476Y-16865071D01*
X11481667Y-16826976D02*
X11481667Y-16865071D01*
X11776905Y-17103167D02*
X11767381Y-17093643D01*
X11748333Y-17065071D01*
X11738809Y-17046024D01*
X11729286Y-17017452D01*
X11719762Y-16969833D01*
X11719762Y-16931738D01*
X11729286Y-16884119D01*
X11738809Y-16855548D01*
X11748333Y-16836500D01*
X11767381Y-16807929D01*
X11776905Y-16798405D01*
X11843571Y-16846024D02*
X11853095Y-16836500D01*
X11872143Y-16826976D01*
X11919762Y-16826976D01*
X11938809Y-16836500D01*
X11948333Y-16846024D01*
X11957857Y-16865071D01*
X11957857Y-16884119D01*
X11948333Y-16912690D01*
X11834048Y-17026976D01*
X11957857Y-17026976D01*
X12195952Y-17026976D02*
X12195952Y-16826976D01*
X12281667Y-17026976D02*
X12281667Y-16922214D01*
X12272143Y-16903167D01*
X12253095Y-16893643D01*
X12224524Y-16893643D01*
X12205476Y-16903167D01*
X12195952Y-16912690D01*
X12405476Y-17026976D02*
X12386428Y-17017452D01*
X12376905Y-17007929D01*
X12367381Y-16988881D01*
X12367381Y-16931738D01*
X12376905Y-16912690D01*
X12386428Y-16903167D01*
X12405476Y-16893643D01*
X12434048Y-16893643D01*
X12453095Y-16903167D01*
X12462619Y-16912690D01*
X12472143Y-16931738D01*
X12472143Y-16988881D01*
X12462619Y-17007929D01*
X12453095Y-17017452D01*
X12434048Y-17026976D01*
X12405476Y-17026976D01*
X12586428Y-17026976D02*
X12567381Y-17017452D01*
X12557857Y-16998405D01*
X12557857Y-16826976D01*
X12738809Y-17017452D02*
X12719762Y-17026976D01*
X12681667Y-17026976D01*
X12662619Y-17017452D01*
X12653095Y-16998405D01*
X12653095Y-16922214D01*
X12662619Y-16903167D01*
X12681667Y-16893643D01*
X12719762Y-16893643D01*
X12738809Y-16903167D01*
X12748333Y-16922214D01*
X12748333Y-16941262D01*
X12653095Y-16960310D01*
X12824524Y-17017452D02*
X12843571Y-17026976D01*
X12881667Y-17026976D01*
X12900714Y-17017452D01*
X12910238Y-16998405D01*
X12910238Y-16988881D01*
X12900714Y-16969833D01*
X12881667Y-16960310D01*
X12853095Y-16960310D01*
X12834048Y-16950786D01*
X12824524Y-16931738D01*
X12824524Y-16922214D01*
X12834048Y-16903167D01*
X12853095Y-16893643D01*
X12881667Y-16893643D01*
X12900714Y-16903167D01*
X12976905Y-17103167D02*
X12986428Y-17093643D01*
X13005476Y-17065071D01*
X13015000Y-17046024D01*
X13024524Y-17017452D01*
X13034048Y-16969833D01*
X13034048Y-16931738D01*
X13024524Y-16884119D01*
X13015000Y-16855548D01*
X13005476Y-16836500D01*
X12986428Y-16807929D01*
X12976905Y-16798405D01*
M02*
