G04 #@! TF.GenerationSoftware,KiCad,Pcbnew,(6.0.5)*
G04 #@! TF.CreationDate,2023-10-30T23:32:21-05:00*
G04 #@! TF.ProjectId,SofleKeyboard,536f666c-654b-4657-9962-6f6172642e6b,rev?*
G04 #@! TF.SameCoordinates,Original*
G04 #@! TF.FileFunction,Soldermask,Bot*
G04 #@! TF.FilePolarity,Negative*
%FSLAX46Y46*%
G04 Gerber Fmt 4.6, Leading zero omitted, Abs format (unit mm)*
G04 Created by KiCad (PCBNEW (6.0.5)) date 2023-10-30 23:32:21*
%MOMM*%
%LPD*%
G01*
G04 APERTURE LIST*
G04 Aperture macros list*
%AMRoundRect*
0 Rectangle with rounded corners*
0 $1 Rounding radius*
0 $2 $3 $4 $5 $6 $7 $8 $9 X,Y pos of 4 corners*
0 Add a 4 corners polygon primitive as box body*
4,1,4,$2,$3,$4,$5,$6,$7,$8,$9,$2,$3,0*
0 Add four circle primitives for the rounded corners*
1,1,$1+$1,$2,$3*
1,1,$1+$1,$4,$5*
1,1,$1+$1,$6,$7*
1,1,$1+$1,$8,$9*
0 Add four rect primitives between the rounded corners*
20,1,$1+$1,$2,$3,$4,$5,0*
20,1,$1+$1,$4,$5,$6,$7,0*
20,1,$1+$1,$6,$7,$8,$9,0*
20,1,$1+$1,$8,$9,$2,$3,0*%
G04 Aperture macros list end*
%ADD10C,3.800000*%
%ADD11RoundRect,0.200000X0.850000X0.500000X-0.850000X0.500000X-0.850000X-0.500000X0.850000X-0.500000X0*%
%ADD12C,2.600000*%
%ADD13RoundRect,0.200000X0.400000X-0.500000X0.400000X0.500000X-0.400000X0.500000X-0.400000X-0.500000X0*%
%ADD14C,1.300000*%
%ADD15RoundRect,0.200000X0.750000X-0.350000X0.750000X0.350000X-0.750000X0.350000X-0.750000X-0.350000X0*%
%ADD16C,4.500000*%
%ADD17C,1.924000*%
%ADD18C,2.400000*%
%ADD19RoundRect,0.200000X-0.475000X0.650000X-0.475000X-0.650000X0.475000X-0.650000X0.475000X0.650000X0*%
%ADD20RoundRect,0.200000X-0.650000X-0.475000X0.650000X-0.475000X0.650000X0.475000X-0.650000X0.475000X0*%
%ADD21RoundRect,0.200000X0.325417X0.736362X-0.800417X0.086362X-0.325417X-0.736362X0.800417X-0.086362X0*%
%ADD22C,3.400000*%
%ADD23C,2.200000*%
%ADD24C,1.400000*%
%ADD25RoundRect,0.200000X1.090000X1.370000X-1.090000X1.370000X-1.090000X-1.370000X1.090000X-1.370000X0*%
%ADD26RoundRect,0.200000X0.907500X1.470000X-0.907500X1.470000X-0.907500X-1.470000X0.907500X-1.470000X0*%
%ADD27RoundRect,0.200000X1.055000X1.360000X-1.055000X1.360000X-1.055000X-1.360000X1.055000X-1.360000X0*%
%ADD28RoundRect,0.200000X0.858013X-0.486122X0.008013X0.986122X-0.858013X0.486122X-0.008013X-0.986122X0*%
%ADD29RoundRect,0.200000X1.731455X-0.258968X0.641455X1.628968X-1.731455X0.258968X-0.641455X-1.628968X0*%
%ADD30RoundRect,0.200000X1.705295X-0.233657X0.650295X1.593657X-1.705295X0.233657X-0.650295X-1.593657X0*%
%ADD31C,4.400000*%
%ADD32C,1.797000*%
%ADD33RoundRect,0.200000X-1.000000X1.600000X-1.000000X-1.600000X1.000000X-1.600000X1.000000X1.600000X0*%
%ADD34C,2.700000*%
%ADD35RoundRect,0.200000X0.691627X0.702959X-0.950446X0.262967X-0.691627X-0.702959X0.950446X-0.262967X0*%
%ADD36RoundRect,0.200000X0.698277X1.605431X-1.407441X1.041206X-0.698277X-1.605431X1.407441X-1.041206X0*%
%ADD37RoundRect,0.200000X0.667058X1.586713X-1.371046X1.040605X-0.667058X-1.586713X1.371046X-1.040605X0*%
%ADD38RoundRect,0.200000X-0.627047X0.504913X-0.290582X-0.750791X0.627047X-0.504913X0.290582X0.750791X0*%
%ADD39RoundRect,0.450000X0.625000X-0.350000X0.625000X0.350000X-0.625000X0.350000X-0.625000X-0.350000X0*%
%ADD40O,2.150000X1.600000*%
%ADD41RoundRect,0.450000X0.350000X0.625000X-0.350000X0.625000X-0.350000X-0.625000X0.350000X-0.625000X0*%
%ADD42O,1.600000X2.150000*%
%ADD43RoundRect,0.200000X0.500000X-0.300000X0.500000X0.300000X-0.500000X0.300000X-0.500000X-0.300000X0*%
G04 APERTURE END LIST*
D10*
X99102200Y-107150000D03*
D11*
X96352200Y-102130000D03*
X96352200Y-103530000D03*
X101852200Y-103530000D03*
X101852200Y-102130000D03*
D12*
X99102200Y-113050000D03*
X94102200Y-110950000D03*
D13*
X88884120Y-80252640D03*
D14*
X89984120Y-75102640D03*
D13*
X88884120Y-72952640D03*
X91094120Y-72952640D03*
D14*
X89984120Y-78102640D03*
D13*
X91094120Y-80252640D03*
D15*
X91744120Y-78852640D03*
X91744120Y-75852640D03*
X91744120Y-74352640D03*
D16*
X103000000Y-119000000D03*
D17*
X108718815Y-42425745D03*
X92180000Y-41230000D03*
X92180000Y-43770000D03*
X108718815Y-44965745D03*
X108718815Y-47505745D03*
X92180000Y-46310000D03*
X92180000Y-48850000D03*
X108718815Y-50045745D03*
X108718815Y-52585745D03*
X92180000Y-51390000D03*
X92180000Y-53930000D03*
X108718815Y-55125745D03*
X92180000Y-56470000D03*
X108718815Y-57665745D03*
X92180000Y-59010000D03*
X108718815Y-60205745D03*
X92180000Y-61550000D03*
X108718815Y-62745745D03*
X92180000Y-64090000D03*
X108718815Y-65285745D03*
X92180000Y-66630000D03*
X108718815Y-67825745D03*
X92180000Y-69170000D03*
X108718815Y-70365745D03*
X93478815Y-70365745D03*
X107420000Y-69170000D03*
X107420000Y-66630000D03*
X93478815Y-67825745D03*
X107420000Y-64090000D03*
X93478815Y-65285745D03*
X107420000Y-61550000D03*
X93478815Y-62745745D03*
X93478815Y-60205745D03*
X107420000Y-59010000D03*
X93478815Y-57665745D03*
X107420000Y-56470000D03*
X107420000Y-53930000D03*
X93478815Y-55125745D03*
X93478815Y-52585745D03*
X107420000Y-51390000D03*
X107420000Y-48850000D03*
X93478815Y-50045745D03*
X107420000Y-46310000D03*
X93478815Y-47505745D03*
X93478815Y-44965745D03*
X107420000Y-43770000D03*
X93478815Y-42425745D03*
X107420000Y-41230000D03*
D18*
X90339120Y-83152640D03*
X90339120Y-89652640D03*
D19*
X128705000Y-44452000D03*
X128705000Y-48002000D03*
X131245000Y-44455000D03*
X131245000Y-48005000D03*
X150345000Y-41955000D03*
X150345000Y-45505000D03*
X169345000Y-44455000D03*
X169345000Y-48005000D03*
X188239120Y-45327640D03*
X188239120Y-48877640D03*
X207545000Y-49355000D03*
X207545000Y-52905000D03*
X128705000Y-82555000D03*
X128705000Y-86105000D03*
X128705000Y-101655000D03*
X128705000Y-105205000D03*
D20*
X105225000Y-97000000D03*
X108775000Y-97000000D03*
D21*
X95544195Y-124463500D03*
X92469805Y-126238500D03*
D22*
X120550000Y-55900000D03*
D23*
X115050000Y-50000000D03*
D24*
X115330000Y-45800000D03*
D23*
X126050000Y-50000000D03*
D10*
X120550000Y-50000000D03*
D24*
X125770000Y-45800000D03*
D22*
X125550000Y-53700000D03*
X115550000Y-53700000D03*
D11*
X117800000Y-44601000D03*
X117800000Y-46001000D03*
X123300000Y-46001000D03*
X123300000Y-44601000D03*
D25*
X123640000Y-56170000D03*
D26*
X112747500Y-53700000D03*
D23*
X153150000Y-45000000D03*
D10*
X158650000Y-45000000D03*
D24*
X163870000Y-40800000D03*
D22*
X158650000Y-50900000D03*
D24*
X153430000Y-40800000D03*
D22*
X163650000Y-48700000D03*
D23*
X164150000Y-45000000D03*
D22*
X153650000Y-48700000D03*
D11*
X155900000Y-39601000D03*
X155900000Y-41001000D03*
X161400000Y-41001000D03*
X161400000Y-39601000D03*
D25*
X161740000Y-51170000D03*
D27*
X150595000Y-48710000D03*
D10*
X120550000Y-88100000D03*
D22*
X125550000Y-91800000D03*
X120550000Y-94000000D03*
D23*
X126050000Y-88100000D03*
D24*
X125770000Y-83900000D03*
X115330000Y-83900000D03*
D23*
X115050000Y-88100000D03*
D22*
X115550000Y-91800000D03*
D11*
X117800000Y-82701000D03*
X117800000Y-84101000D03*
X123300000Y-84101000D03*
X123300000Y-82701000D03*
D25*
X123640000Y-94270000D03*
D26*
X112747500Y-91800000D03*
D22*
X134600000Y-89300000D03*
D24*
X134380000Y-81400000D03*
X144820000Y-81400000D03*
D10*
X139600000Y-85600000D03*
D22*
X144600000Y-89300000D03*
D23*
X134100000Y-85600000D03*
X145100000Y-85600000D03*
D22*
X139600000Y-91500000D03*
D11*
X136850000Y-80201000D03*
X136850000Y-81601000D03*
X142350000Y-81601000D03*
X142350000Y-80201000D03*
D25*
X142690000Y-91770000D03*
D27*
X131545000Y-89310000D03*
D23*
X115050000Y-107150000D03*
D24*
X125770000Y-102950000D03*
D22*
X125550000Y-110850000D03*
X120550000Y-113050000D03*
D24*
X115330000Y-102950000D03*
D23*
X126050000Y-107150000D03*
D10*
X120550000Y-107150000D03*
D22*
X115550000Y-110850000D03*
D11*
X117800000Y-101751000D03*
X117800000Y-103151000D03*
X123300000Y-103151000D03*
X123300000Y-101751000D03*
D25*
X123640000Y-113320000D03*
D26*
X112747500Y-110850000D03*
D22*
X158650000Y-108050000D03*
D23*
X153150000Y-102150000D03*
D24*
X163870000Y-97950000D03*
D22*
X153650000Y-105850000D03*
X163650000Y-105850000D03*
D23*
X164150000Y-102150000D03*
D10*
X158650000Y-102150000D03*
D24*
X153430000Y-97950000D03*
D11*
X155900000Y-96751000D03*
X155900000Y-98151000D03*
X161400000Y-98151000D03*
X161400000Y-96751000D03*
D25*
X161740000Y-108320000D03*
D27*
X150595000Y-105860000D03*
D23*
X202250000Y-109550000D03*
X191250000Y-109550000D03*
D24*
X191530000Y-105350000D03*
D22*
X191750000Y-113250000D03*
X201750000Y-113250000D03*
X196750000Y-115450000D03*
D10*
X196750000Y-109550000D03*
D24*
X201970000Y-105350000D03*
D11*
X194000000Y-104151000D03*
X194000000Y-105551000D03*
X199500000Y-105551000D03*
X199500000Y-104151000D03*
D25*
X199840000Y-115720000D03*
D27*
X188695000Y-113260000D03*
D22*
X91600450Y-136350000D03*
X91005706Y-130919873D03*
D24*
X102957307Y-135820653D03*
X97737307Y-126779347D03*
D22*
X96005706Y-139580127D03*
D23*
X99460000Y-138163140D03*
X93960000Y-128636860D03*
D10*
X96710000Y-133400000D03*
D28*
X100010671Y-128318930D03*
X98798236Y-129018930D03*
X101548236Y-133782070D03*
X102760671Y-133082070D03*
D29*
X92911623Y-139161018D03*
D30*
X89469546Y-128279165D03*
D31*
X91500000Y-93500000D03*
D32*
X95369408Y-74600000D03*
X97909408Y-74600000D03*
X100449408Y-74600000D03*
X102989408Y-74600000D03*
X105529408Y-74600000D03*
D31*
X107000000Y-93500000D03*
D12*
X101602200Y-99650000D03*
X96602200Y-99650000D03*
X99102200Y-99650000D03*
D33*
X93604150Y-107150000D03*
X104600250Y-107150000D03*
D34*
X96602200Y-114150000D03*
X101602200Y-114150000D03*
D23*
X112287408Y-129823505D03*
D24*
X111470827Y-125694147D03*
D23*
X122912592Y-126976495D03*
D22*
X113728001Y-133268021D03*
D10*
X117600000Y-128400000D03*
D22*
X123387260Y-130679830D03*
D24*
X121555093Y-122992076D03*
D22*
X119127032Y-134098962D03*
D35*
X113546340Y-123896719D03*
X113908687Y-125249015D03*
X119221279Y-123825510D03*
X118858932Y-122473214D03*
D36*
X122181624Y-133560011D03*
D37*
X110779686Y-134068372D03*
D22*
X215800000Y-77350000D03*
D23*
X210300000Y-71450000D03*
X221300000Y-71450000D03*
D22*
X210800000Y-75150000D03*
X220800000Y-75150000D03*
D10*
X215800000Y-71450000D03*
D24*
X210580000Y-67250000D03*
X221020000Y-67250000D03*
D11*
X213050000Y-66051000D03*
X213050000Y-67451000D03*
X218550000Y-67451000D03*
X218550000Y-66051000D03*
D25*
X218890000Y-77620000D03*
D27*
X207745000Y-75160000D03*
D10*
X215800000Y-90500000D03*
D24*
X221020000Y-86300000D03*
D23*
X221300000Y-90500000D03*
D22*
X220800000Y-94200000D03*
X215800000Y-96400000D03*
D23*
X210300000Y-90500000D03*
D22*
X210800000Y-94200000D03*
D24*
X210580000Y-86300000D03*
D11*
X213050000Y-85101000D03*
X213050000Y-86501000D03*
X218550000Y-86501000D03*
X218550000Y-85101000D03*
D25*
X218890000Y-96670000D03*
D27*
X207745000Y-94210000D03*
D23*
X221300000Y-109550000D03*
X210300000Y-109550000D03*
D10*
X215800000Y-109550000D03*
D22*
X210800000Y-113250000D03*
D24*
X221020000Y-105350000D03*
D22*
X215800000Y-115450000D03*
D24*
X210580000Y-105350000D03*
D22*
X220800000Y-113250000D03*
D11*
X213050000Y-104151000D03*
X213050000Y-105551000D03*
X218550000Y-105551000D03*
X218550000Y-104151000D03*
D25*
X218890000Y-115720000D03*
D27*
X207745000Y-113260000D03*
D22*
X172700000Y-51200000D03*
D10*
X177700000Y-47500000D03*
D23*
X172200000Y-47500000D03*
X183200000Y-47500000D03*
D22*
X177700000Y-53400000D03*
X182700000Y-51200000D03*
D24*
X172480000Y-43300000D03*
X182920000Y-43300000D03*
D11*
X174950000Y-42101000D03*
X174950000Y-43501000D03*
X180450000Y-43501000D03*
X180450000Y-42101000D03*
D25*
X180790000Y-53670000D03*
D27*
X169645000Y-51210000D03*
D16*
X206000000Y-61500000D03*
D19*
X128705000Y-63555000D03*
X128705000Y-67105000D03*
X131245000Y-63555000D03*
X131245000Y-67105000D03*
X150345000Y-61045000D03*
X150345000Y-64595000D03*
X169345000Y-63455000D03*
X169345000Y-67005000D03*
X188439120Y-64927640D03*
X188439120Y-68477640D03*
X207445000Y-68255000D03*
X207445000Y-71805000D03*
D22*
X201750000Y-56100000D03*
X196750000Y-58300000D03*
D23*
X191250000Y-52400000D03*
D22*
X191750000Y-56100000D03*
D24*
X201970000Y-48200000D03*
X191530000Y-48200000D03*
D23*
X202250000Y-52400000D03*
D10*
X196750000Y-52400000D03*
D11*
X194000000Y-47001000D03*
X194000000Y-48401000D03*
X199500000Y-48401000D03*
X199500000Y-47001000D03*
D25*
X199840000Y-58570000D03*
D27*
X188695000Y-56110000D03*
D22*
X139600000Y-72450000D03*
X144600000Y-70250000D03*
X134600000Y-70250000D03*
D23*
X134100000Y-66550000D03*
D10*
X139600000Y-66550000D03*
D24*
X144820000Y-62350000D03*
D23*
X145100000Y-66550000D03*
D24*
X134380000Y-62350000D03*
D11*
X136850000Y-61151000D03*
X136850000Y-62551000D03*
X142350000Y-62551000D03*
X142350000Y-61151000D03*
D25*
X142690000Y-72720000D03*
D27*
X131545000Y-70260000D03*
D24*
X182920000Y-62350000D03*
D23*
X183200000Y-66550000D03*
X172200000Y-66550000D03*
D22*
X177700000Y-72450000D03*
D24*
X172480000Y-62350000D03*
D22*
X172700000Y-70250000D03*
X182700000Y-70250000D03*
D10*
X177700000Y-66550000D03*
D11*
X174950000Y-61151000D03*
X174950000Y-62551000D03*
X180450000Y-62551000D03*
X180450000Y-61151000D03*
D25*
X180790000Y-72720000D03*
D27*
X169645000Y-70260000D03*
D24*
X163870000Y-59850000D03*
X153430000Y-59850000D03*
D22*
X163650000Y-67750000D03*
D10*
X158650000Y-64050000D03*
D22*
X158650000Y-69950000D03*
D23*
X164150000Y-64050000D03*
X153150000Y-64050000D03*
D22*
X153650000Y-67750000D03*
D11*
X155900000Y-58651000D03*
X155900000Y-60051000D03*
X161400000Y-60051000D03*
X161400000Y-58651000D03*
D25*
X161740000Y-70220000D03*
D27*
X150595000Y-67760000D03*
D24*
X182920000Y-81400000D03*
D22*
X172700000Y-89300000D03*
D24*
X172480000Y-81400000D03*
D10*
X177700000Y-85600000D03*
D22*
X177700000Y-91500000D03*
D23*
X183200000Y-85600000D03*
X172200000Y-85600000D03*
D22*
X182700000Y-89300000D03*
D11*
X174950000Y-80201000D03*
X174950000Y-81601000D03*
X180450000Y-81601000D03*
X180450000Y-80201000D03*
D25*
X180790000Y-91770000D03*
D27*
X169645000Y-89310000D03*
D24*
X221020000Y-48200000D03*
D23*
X210300000Y-52400000D03*
D24*
X210580000Y-48200000D03*
D22*
X210800000Y-56100000D03*
D10*
X215800000Y-52400000D03*
D22*
X220800000Y-56100000D03*
D23*
X221300000Y-52400000D03*
D22*
X215800000Y-58300000D03*
D11*
X213050000Y-47001000D03*
X213050000Y-48401000D03*
X218550000Y-48401000D03*
X218550000Y-47001000D03*
D25*
X218890000Y-58570000D03*
D27*
X207745000Y-56110000D03*
D22*
X115550000Y-72800000D03*
X125550000Y-72800000D03*
D10*
X120550000Y-69100000D03*
D23*
X115050000Y-69100000D03*
X126050000Y-69100000D03*
D24*
X125770000Y-64900000D03*
D22*
X120550000Y-75000000D03*
D24*
X115330000Y-64900000D03*
D11*
X117800000Y-63701000D03*
X117800000Y-65101000D03*
X123300000Y-65101000D03*
X123300000Y-63701000D03*
D25*
X123640000Y-75270000D03*
D26*
X112747500Y-72800000D03*
D22*
X177700000Y-129600000D03*
X182700000Y-127400000D03*
X172700000Y-127400000D03*
D10*
X177700000Y-123700000D03*
D23*
X183200000Y-123700000D03*
D24*
X182920000Y-119500000D03*
D23*
X172200000Y-123700000D03*
D24*
X172480000Y-119500000D03*
D11*
X174950000Y-118301000D03*
X174950000Y-119701000D03*
X180450000Y-119701000D03*
X180450000Y-118301000D03*
D25*
X180790000Y-129870000D03*
D27*
X169645000Y-127410000D03*
D23*
X202250000Y-71450000D03*
D22*
X201750000Y-75150000D03*
X196750000Y-77350000D03*
D24*
X201970000Y-67250000D03*
D23*
X191250000Y-71450000D03*
D22*
X191750000Y-75150000D03*
D10*
X196750000Y-71450000D03*
D24*
X191530000Y-67250000D03*
D11*
X194000000Y-66051000D03*
X194000000Y-67451000D03*
X199500000Y-67451000D03*
X199500000Y-66051000D03*
D25*
X199840000Y-77620000D03*
D27*
X188695000Y-75160000D03*
D23*
X172200000Y-104650000D03*
D22*
X177700000Y-110550000D03*
D24*
X182920000Y-100450000D03*
D22*
X182700000Y-108350000D03*
X172700000Y-108350000D03*
D24*
X172480000Y-100450000D03*
D23*
X183200000Y-104650000D03*
D10*
X177700000Y-104650000D03*
D11*
X174950000Y-99251000D03*
X174950000Y-100651000D03*
X180450000Y-100651000D03*
X180450000Y-99251000D03*
D25*
X180790000Y-110820000D03*
D27*
X169645000Y-108360000D03*
D10*
X196750000Y-90500000D03*
D22*
X201750000Y-94200000D03*
X196750000Y-96400000D03*
D23*
X191250000Y-90500000D03*
X202250000Y-90500000D03*
D24*
X191530000Y-86300000D03*
D22*
X191750000Y-94200000D03*
D24*
X201970000Y-86300000D03*
D11*
X194000000Y-85101000D03*
X194000000Y-86501000D03*
X199500000Y-86501000D03*
X199500000Y-85101000D03*
D25*
X199840000Y-96670000D03*
D27*
X188695000Y-94210000D03*
D24*
X153430000Y-117000000D03*
X163870000Y-117000000D03*
D22*
X163650000Y-124900000D03*
D23*
X153150000Y-121200000D03*
D10*
X158650000Y-121200000D03*
D22*
X153650000Y-124900000D03*
X158650000Y-127100000D03*
D23*
X164150000Y-121200000D03*
D11*
X155900000Y-115801000D03*
X155900000Y-117201000D03*
X161400000Y-117201000D03*
X161400000Y-115801000D03*
D25*
X161740000Y-127370000D03*
D27*
X150595000Y-124910000D03*
D24*
X163870000Y-78900000D03*
D22*
X158650000Y-89000000D03*
D23*
X164150000Y-83100000D03*
D10*
X158650000Y-83100000D03*
D23*
X153150000Y-83100000D03*
D24*
X153430000Y-78900000D03*
D22*
X153650000Y-86800000D03*
X163650000Y-86800000D03*
D11*
X155900000Y-77701000D03*
X155900000Y-79101000D03*
X161400000Y-79101000D03*
X161400000Y-77701000D03*
D25*
X161740000Y-89270000D03*
D27*
X150595000Y-86810000D03*
D22*
X144600000Y-51200000D03*
X134600000Y-51200000D03*
D23*
X145100000Y-47500000D03*
D24*
X144820000Y-43300000D03*
D10*
X139600000Y-47500000D03*
D24*
X134380000Y-43300000D03*
D23*
X134100000Y-47500000D03*
D22*
X139600000Y-53400000D03*
D11*
X136850000Y-42101000D03*
X136850000Y-43501000D03*
X142350000Y-43501000D03*
X142350000Y-42101000D03*
D25*
X142690000Y-53670000D03*
D27*
X131545000Y-51210000D03*
D38*
X108914596Y-127446482D03*
X109833404Y-130875518D03*
D22*
X144600000Y-108350000D03*
D24*
X144820000Y-100450000D03*
D22*
X139600000Y-110550000D03*
D23*
X134100000Y-104650000D03*
D10*
X139600000Y-104650000D03*
D24*
X134380000Y-100450000D03*
D22*
X134600000Y-108350000D03*
D23*
X145100000Y-104650000D03*
D11*
X136850000Y-99251000D03*
X136850000Y-100651000D03*
X142350000Y-100651000D03*
X142350000Y-99251000D03*
D25*
X142690000Y-110820000D03*
D27*
X131545000Y-108360000D03*
D16*
X206000000Y-100000000D03*
D19*
X150345000Y-80145000D03*
X150345000Y-83695000D03*
X168839120Y-80427640D03*
X168839120Y-83977640D03*
X188139120Y-82927640D03*
X188139120Y-86477640D03*
X207445000Y-87455000D03*
X207445000Y-91005000D03*
X131245000Y-120655000D03*
X131245000Y-124205000D03*
X150345000Y-118245000D03*
X150345000Y-121795000D03*
X207495000Y-106455000D03*
X207495000Y-110005000D03*
X131245000Y-101655000D03*
X131245000Y-105205000D03*
X150345000Y-99145000D03*
X150345000Y-102695000D03*
X168639120Y-99527640D03*
X168639120Y-103077640D03*
X188139120Y-102127640D03*
X188139120Y-105677640D03*
X131245000Y-82555000D03*
X131245000Y-86105000D03*
X169239120Y-118327640D03*
X169239120Y-121877640D03*
D10*
X139600000Y-123700000D03*
D22*
X134600000Y-127400000D03*
X139600000Y-129600000D03*
X144600000Y-127400000D03*
D23*
X134100000Y-123700000D03*
X145100000Y-123700000D03*
D24*
X134380000Y-119500000D03*
X144820000Y-119500000D03*
D11*
X136850000Y-118301000D03*
X136850000Y-119701000D03*
X142350000Y-119701000D03*
X142350000Y-118301000D03*
D25*
X142690000Y-129870000D03*
D27*
X131545000Y-127410000D03*
D16*
X130527120Y-57573640D03*
X130375120Y-95852640D03*
D39*
X94639120Y-81602640D03*
D40*
X94639120Y-79602640D03*
X94639120Y-83602640D03*
D14*
X89984120Y-75102640D03*
X89984120Y-78102640D03*
D41*
X99339120Y-93602640D03*
D42*
X101339120Y-93602640D03*
X97339120Y-93602640D03*
D43*
X100639120Y-71652640D03*
X100639120Y-70752640D03*
X98439120Y-71652640D03*
X98439120Y-70752640D03*
X96229119Y-71652640D03*
X96229119Y-70752640D03*
X102739120Y-71652640D03*
X102739120Y-70752640D03*
X104929119Y-71652640D03*
X104929119Y-70752640D03*
M02*
