G04 #@! TF.GenerationSoftware,KiCad,Pcbnew,(6.0.5)*
G04 #@! TF.CreationDate,2023-10-30T23:32:21-05:00*
G04 #@! TF.ProjectId,SofleKeyboard,536f666c-654b-4657-9962-6f6172642e6b,rev?*
G04 #@! TF.SameCoordinates,Original*
G04 #@! TF.FileFunction,Legend,Bot*
G04 #@! TF.FilePolarity,Positive*
%FSLAX46Y46*%
G04 Gerber Fmt 4.6, Leading zero omitted, Abs format (unit mm)*
G04 Created by KiCad (PCBNEW (6.0.5)) date 2023-10-30 23:32:21*
%MOMM*%
%LPD*%
G01*
G04 APERTURE LIST*
G04 Aperture macros list*
%AMRoundRect*
0 Rectangle with rounded corners*
0 $1 Rounding radius*
0 $2 $3 $4 $5 $6 $7 $8 $9 X,Y pos of 4 corners*
0 Add a 4 corners polygon primitive as box body*
4,1,4,$2,$3,$4,$5,$6,$7,$8,$9,$2,$3,0*
0 Add four circle primitives for the rounded corners*
1,1,$1+$1,$2,$3*
1,1,$1+$1,$4,$5*
1,1,$1+$1,$6,$7*
1,1,$1+$1,$8,$9*
0 Add four rect primitives between the rounded corners*
20,1,$1+$1,$2,$3,$4,$5,0*
20,1,$1+$1,$4,$5,$6,$7,0*
20,1,$1+$1,$6,$7,$8,$9,0*
20,1,$1+$1,$8,$9,$2,$3,0*%
G04 Aperture macros list end*
%ADD10C,0.150000*%
%ADD11C,0.140000*%
%ADD12C,0.120000*%
%ADD13C,0.100000*%
%ADD14C,1.524000*%
%ADD15C,3.800000*%
%ADD16RoundRect,0.200000X0.850000X0.500000X-0.850000X0.500000X-0.850000X-0.500000X0.850000X-0.500000X0*%
%ADD17C,2.600000*%
%ADD18RoundRect,0.200000X0.400000X-0.500000X0.400000X0.500000X-0.400000X0.500000X-0.400000X-0.500000X0*%
%ADD19C,1.300000*%
%ADD20RoundRect,0.200000X0.750000X-0.350000X0.750000X0.350000X-0.750000X0.350000X-0.750000X-0.350000X0*%
%ADD21C,4.500000*%
%ADD22C,1.924000*%
%ADD23C,2.400000*%
%ADD24RoundRect,0.200000X-0.475000X0.650000X-0.475000X-0.650000X0.475000X-0.650000X0.475000X0.650000X0*%
%ADD25RoundRect,0.200000X-0.650000X-0.475000X0.650000X-0.475000X0.650000X0.475000X-0.650000X0.475000X0*%
%ADD26RoundRect,0.200000X0.325417X0.736362X-0.800417X0.086362X-0.325417X-0.736362X0.800417X-0.086362X0*%
%ADD27C,3.400000*%
%ADD28C,2.200000*%
%ADD29C,1.400000*%
%ADD30RoundRect,0.200000X1.090000X1.370000X-1.090000X1.370000X-1.090000X-1.370000X1.090000X-1.370000X0*%
%ADD31RoundRect,0.200000X0.907500X1.470000X-0.907500X1.470000X-0.907500X-1.470000X0.907500X-1.470000X0*%
%ADD32RoundRect,0.200000X1.055000X1.360000X-1.055000X1.360000X-1.055000X-1.360000X1.055000X-1.360000X0*%
%ADD33RoundRect,0.200000X0.858013X-0.486122X0.008013X0.986122X-0.858013X0.486122X-0.008013X-0.986122X0*%
%ADD34RoundRect,0.200000X1.731455X-0.258968X0.641455X1.628968X-1.731455X0.258968X-0.641455X-1.628968X0*%
%ADD35RoundRect,0.200000X1.705295X-0.233657X0.650295X1.593657X-1.705295X0.233657X-0.650295X-1.593657X0*%
%ADD36C,4.400000*%
%ADD37C,1.797000*%
%ADD38RoundRect,0.200000X-1.000000X1.600000X-1.000000X-1.600000X1.000000X-1.600000X1.000000X1.600000X0*%
%ADD39C,2.700000*%
%ADD40RoundRect,0.200000X0.691627X0.702959X-0.950446X0.262967X-0.691627X-0.702959X0.950446X-0.262967X0*%
%ADD41RoundRect,0.200000X0.698277X1.605431X-1.407441X1.041206X-0.698277X-1.605431X1.407441X-1.041206X0*%
%ADD42RoundRect,0.200000X0.667058X1.586713X-1.371046X1.040605X-0.667058X-1.586713X1.371046X-1.040605X0*%
%ADD43RoundRect,0.200000X-0.627047X0.504913X-0.290582X-0.750791X0.627047X-0.504913X0.290582X0.750791X0*%
%ADD44RoundRect,0.450000X0.625000X-0.350000X0.625000X0.350000X-0.625000X0.350000X-0.625000X-0.350000X0*%
%ADD45O,2.150000X1.600000*%
%ADD46RoundRect,0.450000X0.350000X0.625000X-0.350000X0.625000X-0.350000X-0.625000X0.350000X-0.625000X0*%
%ADD47O,1.600000X2.150000*%
%ADD48RoundRect,0.200000X0.500000X-0.300000X0.500000X0.300000X-0.500000X0.300000X-0.500000X-0.300000X0*%
G04 APERTURE END LIST*
D10*
X97354038Y-92180796D02*
X97354038Y-91418891D01*
X97734990Y-91799844D02*
X96973086Y-91799844D01*
D11*
X218397882Y-121136607D02*
X218281246Y-121231852D01*
X218058668Y-121316402D01*
X217952727Y-121305706D01*
X217891302Y-121278100D01*
X217812967Y-121205979D01*
X217779147Y-121116948D01*
X217789843Y-121011007D01*
X217817448Y-120949582D01*
X217889569Y-120871247D01*
X218050722Y-120759092D01*
X218122843Y-120680756D01*
X218150448Y-120619331D01*
X218161144Y-120513390D01*
X218127325Y-120424359D01*
X218048989Y-120352238D01*
X217987564Y-120324632D01*
X217881623Y-120313937D01*
X217659046Y-120398486D01*
X217542409Y-120493731D01*
X217346420Y-121586959D02*
X217418541Y-121508624D01*
X217446147Y-121447199D01*
X217456843Y-121341258D01*
X217355383Y-121074165D01*
X217277048Y-121002044D01*
X217215623Y-120974438D01*
X217109682Y-120963742D01*
X216976135Y-121014472D01*
X216904014Y-121092807D01*
X216876409Y-121154232D01*
X216865713Y-121260173D01*
X216967172Y-121527266D01*
X217045507Y-121599387D01*
X217106933Y-121626993D01*
X217212873Y-121637689D01*
X217346420Y-121586959D01*
X216530980Y-121183570D02*
X216174856Y-121318849D01*
X216634172Y-121857517D02*
X216329794Y-121056238D01*
X216251459Y-120984117D01*
X216145518Y-120973421D01*
X216056487Y-121007241D01*
X215966439Y-122111165D02*
X216038560Y-122032830D01*
X216049256Y-121926889D01*
X215744879Y-121125610D01*
X215237281Y-122337207D02*
X215343222Y-122347903D01*
X215521284Y-122280263D01*
X215593405Y-122201928D01*
X215604101Y-122095987D01*
X215468822Y-121739863D01*
X215390487Y-121667742D01*
X215284546Y-121657046D01*
X215106484Y-121724686D01*
X215034363Y-121803021D01*
X215023667Y-121908962D01*
X215057487Y-121997993D01*
X215536462Y-121917925D01*
X213528782Y-122935266D02*
X213590207Y-122962872D01*
X213740664Y-122956658D01*
X213829695Y-122922838D01*
X213946331Y-122827593D01*
X214001543Y-122704742D01*
X214012239Y-122598801D01*
X213989115Y-122403829D01*
X213938385Y-122270283D01*
X213826230Y-122109131D01*
X213747895Y-122037009D01*
X213625044Y-121981798D01*
X213474588Y-121988012D01*
X213385557Y-122021832D01*
X213268920Y-122117077D01*
X213241314Y-122178502D01*
X213161962Y-123176486D02*
X212806855Y-122241660D01*
X212761323Y-123328674D02*
X212575314Y-122839004D01*
X212586010Y-122733063D01*
X212658131Y-122654728D01*
X212791678Y-122603998D01*
X212897619Y-122614694D01*
X212959044Y-122642300D01*
X212182621Y-123548503D02*
X212254742Y-123470167D01*
X212282348Y-123408742D01*
X212293044Y-123302801D01*
X212191584Y-123035708D01*
X212113249Y-122963587D01*
X212051824Y-122935981D01*
X211945883Y-122925285D01*
X211812336Y-122976015D01*
X211740215Y-123054350D01*
X211712610Y-123115776D01*
X211701914Y-123221716D01*
X211803373Y-123488809D01*
X211881708Y-123560931D01*
X211943134Y-123588536D01*
X212049074Y-123599232D01*
X212182621Y-123548503D01*
X211052823Y-123926733D02*
X211158764Y-123937429D01*
X211336826Y-123869790D01*
X211408947Y-123791455D01*
X211436553Y-123730029D01*
X211447249Y-123624088D01*
X211345790Y-123356995D01*
X211267455Y-123284874D01*
X211206029Y-123257268D01*
X211100088Y-123246573D01*
X210922026Y-123314212D01*
X210849905Y-123392547D01*
X209690770Y-123425350D02*
X209823299Y-124444725D01*
X209391589Y-123844632D01*
X209467175Y-124580004D01*
X208889490Y-123729727D01*
X208888473Y-124799832D02*
X208651735Y-124176615D01*
X208533366Y-123865006D02*
X208594792Y-123892612D01*
X208567186Y-123954037D01*
X208505761Y-123926432D01*
X208533366Y-123865006D01*
X208567186Y-123954037D01*
X208443318Y-124968930D02*
X208206580Y-124345713D01*
X208274220Y-124523775D02*
X208195884Y-124451654D01*
X208134459Y-124424048D01*
X208028518Y-124413353D01*
X207939487Y-124447172D01*
X207491583Y-125279522D02*
X207597524Y-125290218D01*
X207775586Y-125222578D01*
X207847707Y-125144243D01*
X207858403Y-125038302D01*
X207723124Y-124682178D01*
X207644789Y-124610057D01*
X207538848Y-124599361D01*
X207360786Y-124667001D01*
X207288664Y-124745336D01*
X207277969Y-124851277D01*
X207311788Y-124940308D01*
X207790763Y-124860240D01*
X206929791Y-125543865D02*
X207001912Y-125465530D01*
X207012608Y-125359589D01*
X206708231Y-124558310D01*
X206200633Y-125769908D02*
X206306574Y-125780603D01*
X206484636Y-125712964D01*
X206556757Y-125634629D01*
X206567453Y-125528688D01*
X206432174Y-125172564D01*
X206353839Y-125100443D01*
X206247898Y-125089747D01*
X206069836Y-125157386D01*
X205997715Y-125235722D01*
X205987019Y-125341662D01*
X206020839Y-125430693D01*
X206499813Y-125350626D01*
X205799993Y-125922096D02*
X205727872Y-126000432D01*
X205549810Y-126068071D01*
X205443869Y-126057375D01*
X205365534Y-125985254D01*
X205348624Y-125940739D01*
X205359320Y-125834798D01*
X205431441Y-125756462D01*
X205564988Y-125705733D01*
X205637109Y-125627398D01*
X205647805Y-125521457D01*
X205630895Y-125476941D01*
X205552560Y-125404820D01*
X205446619Y-125394124D01*
X205313072Y-125444854D01*
X205240951Y-125523189D01*
X205043230Y-126209564D02*
X204971109Y-126287899D01*
X204793047Y-126355539D01*
X204687106Y-126344843D01*
X204608770Y-126272722D01*
X204591861Y-126228206D01*
X204602556Y-126122265D01*
X204674678Y-126043930D01*
X204808224Y-125993200D01*
X204880345Y-125914865D01*
X204891041Y-125808924D01*
X204874131Y-125764409D01*
X204795796Y-125692288D01*
X204689855Y-125681592D01*
X204556309Y-125732321D01*
X204484187Y-125810657D01*
X203411333Y-126472890D02*
X202699085Y-126743448D01*
X201676961Y-127539228D02*
X201440223Y-126916011D01*
X201507862Y-127094073D02*
X201429527Y-127021952D01*
X201368102Y-126994347D01*
X201262161Y-126983651D01*
X201173130Y-127017470D01*
X200725225Y-127849820D02*
X200831166Y-127860516D01*
X201009228Y-127792876D01*
X201081349Y-127714541D01*
X201092045Y-127608600D01*
X200956766Y-127252476D01*
X200878431Y-127180355D01*
X200772490Y-127169659D01*
X200594428Y-127237299D01*
X200522307Y-127315634D01*
X200511611Y-127421575D01*
X200545431Y-127510606D01*
X201024406Y-127430538D01*
X200149273Y-127406397D02*
X200163434Y-128114163D01*
X199704118Y-127575496D01*
X199584732Y-128333992D02*
X199347994Y-127710774D01*
X199229625Y-127399166D02*
X199291050Y-127426772D01*
X199263445Y-127488197D01*
X199202019Y-127460591D01*
X199229625Y-127399166D01*
X199263445Y-127488197D01*
X199167183Y-128441665D02*
X199095061Y-128520000D01*
X198916999Y-128587639D01*
X198811059Y-128576944D01*
X198732723Y-128504822D01*
X198715813Y-128460307D01*
X198726509Y-128354366D01*
X198798630Y-128276031D01*
X198932177Y-128225301D01*
X199004298Y-128146966D01*
X199014994Y-128041025D01*
X198998084Y-127996510D01*
X198919749Y-127924389D01*
X198813808Y-127913693D01*
X198680261Y-127964422D01*
X198608140Y-128042758D01*
X198382813Y-128790558D02*
X198146075Y-128167341D01*
X198027706Y-127855732D02*
X198089132Y-127883338D01*
X198061526Y-127944763D01*
X198000101Y-127917157D01*
X198027706Y-127855732D01*
X198061526Y-127944763D01*
X197804112Y-129010386D02*
X197876233Y-128932051D01*
X197903839Y-128870625D01*
X197914534Y-128764684D01*
X197813075Y-128497591D01*
X197734740Y-128425470D01*
X197673315Y-128397864D01*
X197567374Y-128387169D01*
X197433827Y-128437898D01*
X197361706Y-128516233D01*
X197334100Y-128577659D01*
X197323405Y-128683600D01*
X197424864Y-128950693D01*
X197503199Y-129022814D01*
X197564624Y-129050420D01*
X197670565Y-129061115D01*
X197804112Y-129010386D01*
X196855126Y-128657726D02*
X197091864Y-129280944D01*
X196888945Y-128746757D02*
X196827520Y-128719152D01*
X196721579Y-128708456D01*
X196588033Y-128759186D01*
X196515911Y-128837521D01*
X196505216Y-128943462D01*
X196691224Y-129433132D01*
X195533821Y-129872788D02*
X195178714Y-128937963D01*
X195313993Y-129294087D02*
X195208052Y-129283391D01*
X195029990Y-129351030D01*
X194957869Y-129429366D01*
X194930263Y-129490791D01*
X194919567Y-129596732D01*
X195021026Y-129863825D01*
X195099362Y-129935946D01*
X195160787Y-129963552D01*
X195266728Y-129974248D01*
X195444790Y-129906608D01*
X195516911Y-129828273D01*
X194540319Y-129537039D02*
X194554480Y-130244805D01*
X194095164Y-129706137D02*
X194554480Y-130244805D01*
X194728060Y-130433563D01*
X194789485Y-130461169D01*
X194895426Y-130471865D01*
X192862890Y-130887380D02*
X192507783Y-129952554D01*
X192845980Y-130842864D02*
X192951921Y-130853560D01*
X193129983Y-130785921D01*
X193202105Y-130707585D01*
X193229710Y-130646160D01*
X193240406Y-130540219D01*
X193138947Y-130273126D01*
X193060612Y-130201005D01*
X192999186Y-130173399D01*
X192893245Y-130162704D01*
X192715183Y-130230343D01*
X192643062Y-130308678D01*
X192417735Y-131056478D02*
X192062628Y-130121653D01*
X192197907Y-130477777D02*
X192091966Y-130467081D01*
X191913904Y-130534720D01*
X191841783Y-130613056D01*
X191814177Y-130674481D01*
X191803482Y-130780422D01*
X191904941Y-131047515D01*
X191983276Y-131119636D01*
X192044701Y-131147242D01*
X192150642Y-131157937D01*
X192328704Y-131090298D01*
X192400825Y-131011963D01*
D10*
X99414038Y-92180796D02*
X99414038Y-91418891D01*
X98839120Y-68128711D02*
X98877215Y-68204901D01*
X98877215Y-68319187D01*
X98839120Y-68433473D01*
X98762929Y-68509663D01*
X98686739Y-68547759D01*
X98534358Y-68585854D01*
X98420072Y-68585854D01*
X98267691Y-68547759D01*
X98191500Y-68509663D01*
X98115310Y-68433473D01*
X98077215Y-68319187D01*
X98077215Y-68242997D01*
X98115310Y-68128711D01*
X98153405Y-68090616D01*
X98420072Y-68090616D01*
X98420072Y-68242997D01*
X98077215Y-67747759D02*
X98877215Y-67747759D01*
X98077215Y-67290616D01*
X98877215Y-67290616D01*
X98077215Y-66909663D02*
X98877215Y-66909663D01*
X98877215Y-66719187D01*
X98839120Y-66604901D01*
X98762929Y-66528711D01*
X98686739Y-66490616D01*
X98534358Y-66452520D01*
X98420072Y-66452520D01*
X98267691Y-66490616D01*
X98191500Y-66528711D01*
X98115310Y-66604901D01*
X98077215Y-66719187D01*
X98077215Y-66909663D01*
X95858167Y-81674068D02*
X96620072Y-81674068D01*
X95858167Y-79614068D02*
X96620072Y-79614068D01*
X96239120Y-79995020D02*
X96239120Y-79233116D01*
X101410548Y-92183592D02*
X101410548Y-91421687D01*
X101791500Y-91802640D02*
X101029596Y-91802640D01*
X102415310Y-68457282D02*
X102377215Y-68342997D01*
X102377215Y-68152520D01*
X102415310Y-68076330D01*
X102453405Y-68038235D01*
X102529596Y-68000140D01*
X102605786Y-68000140D01*
X102681977Y-68038235D01*
X102720072Y-68076330D01*
X102758167Y-68152520D01*
X102796262Y-68304901D01*
X102834358Y-68381092D01*
X102872453Y-68419187D01*
X102948643Y-68457282D01*
X103024834Y-68457282D01*
X103101024Y-68419187D01*
X103139120Y-68381092D01*
X103177215Y-68304901D01*
X103177215Y-68114425D01*
X103139120Y-68000140D01*
X102453405Y-67200140D02*
X102415310Y-67238235D01*
X102377215Y-67352520D01*
X102377215Y-67428711D01*
X102415310Y-67542997D01*
X102491500Y-67619187D01*
X102567691Y-67657282D01*
X102720072Y-67695378D01*
X102834358Y-67695378D01*
X102986739Y-67657282D01*
X103062929Y-67619187D01*
X103139120Y-67542997D01*
X103177215Y-67428711D01*
X103177215Y-67352520D01*
X103139120Y-67238235D01*
X103101024Y-67200140D01*
X102377215Y-66476330D02*
X102377215Y-66857282D01*
X103177215Y-66857282D01*
X103215310Y-65638235D02*
X102186739Y-66323949D01*
X102415310Y-65409663D02*
X102377215Y-65295378D01*
X102377215Y-65104901D01*
X102415310Y-65028711D01*
X102453405Y-64990616D01*
X102529596Y-64952520D01*
X102605786Y-64952520D01*
X102681977Y-64990616D01*
X102720072Y-65028711D01*
X102758167Y-65104901D01*
X102796262Y-65257282D01*
X102834358Y-65333473D01*
X102872453Y-65371568D01*
X102948643Y-65409663D01*
X103024834Y-65409663D01*
X103101024Y-65371568D01*
X103139120Y-65333473D01*
X103177215Y-65257282D01*
X103177215Y-65066806D01*
X103139120Y-64952520D01*
X102453405Y-64152520D02*
X102415310Y-64190616D01*
X102377215Y-64304901D01*
X102377215Y-64381092D01*
X102415310Y-64495378D01*
X102491500Y-64571568D01*
X102567691Y-64609663D01*
X102720072Y-64647759D01*
X102834358Y-64647759D01*
X102986739Y-64609663D01*
X103062929Y-64571568D01*
X103139120Y-64495378D01*
X103177215Y-64381092D01*
X103177215Y-64304901D01*
X103139120Y-64190616D01*
X103101024Y-64152520D01*
X102377215Y-63809663D02*
X103177215Y-63809663D01*
X102377215Y-63352520D02*
X102834358Y-63695378D01*
X103177215Y-63352520D02*
X102720072Y-63809663D01*
X95858167Y-83674068D02*
X96620072Y-83674068D01*
X96239120Y-84055020D02*
X96239120Y-83293116D01*
X100977215Y-68509663D02*
X100177215Y-68242997D01*
X100977215Y-67976330D01*
X100253405Y-67252520D02*
X100215310Y-67290616D01*
X100177215Y-67404901D01*
X100177215Y-67481092D01*
X100215310Y-67595378D01*
X100291500Y-67671568D01*
X100367691Y-67709663D01*
X100520072Y-67747759D01*
X100634358Y-67747759D01*
X100786739Y-67709663D01*
X100862929Y-67671568D01*
X100939120Y-67595378D01*
X100977215Y-67481092D01*
X100977215Y-67404901D01*
X100939120Y-67290616D01*
X100901024Y-67252520D01*
X100253405Y-66452520D02*
X100215310Y-66490616D01*
X100177215Y-66604901D01*
X100177215Y-66681092D01*
X100215310Y-66795378D01*
X100291500Y-66871568D01*
X100367691Y-66909663D01*
X100520072Y-66947759D01*
X100634358Y-66947759D01*
X100786739Y-66909663D01*
X100862929Y-66871568D01*
X100939120Y-66795378D01*
X100977215Y-66681092D01*
X100977215Y-66604901D01*
X100939120Y-66490616D01*
X100901024Y-66452520D01*
X95853405Y-68014425D02*
X95815310Y-68052520D01*
X95777215Y-68166806D01*
X95777215Y-68242997D01*
X95815310Y-68357282D01*
X95891500Y-68433473D01*
X95967691Y-68471568D01*
X96120072Y-68509663D01*
X96234358Y-68509663D01*
X96386739Y-68471568D01*
X96462929Y-68433473D01*
X96539120Y-68357282D01*
X96577215Y-68242997D01*
X96577215Y-68166806D01*
X96539120Y-68052520D01*
X96501024Y-68014425D01*
X95815310Y-67709663D02*
X95777215Y-67595378D01*
X95777215Y-67404901D01*
X95815310Y-67328711D01*
X95853405Y-67290616D01*
X95929596Y-67252520D01*
X96005786Y-67252520D01*
X96081977Y-67290616D01*
X96120072Y-67328711D01*
X96158167Y-67404901D01*
X96196262Y-67557282D01*
X96234358Y-67633473D01*
X96272453Y-67671568D01*
X96348643Y-67709663D01*
X96424834Y-67709663D01*
X96501024Y-67671568D01*
X96539120Y-67633473D01*
X96577215Y-67557282D01*
X96577215Y-67366806D01*
X96539120Y-67252520D01*
X104515310Y-68528711D02*
X104477215Y-68414425D01*
X104477215Y-68223949D01*
X104515310Y-68147759D01*
X104553405Y-68109663D01*
X104629596Y-68071568D01*
X104705786Y-68071568D01*
X104781977Y-68109663D01*
X104820072Y-68147759D01*
X104858167Y-68223949D01*
X104896262Y-68376330D01*
X104934358Y-68452520D01*
X104972453Y-68490616D01*
X105048643Y-68528711D01*
X105124834Y-68528711D01*
X105201024Y-68490616D01*
X105239120Y-68452520D01*
X105277215Y-68376330D01*
X105277215Y-68185854D01*
X105239120Y-68071568D01*
X104477215Y-67728711D02*
X105277215Y-67728711D01*
X105277215Y-67538235D01*
X105239120Y-67423949D01*
X105162929Y-67347759D01*
X105086739Y-67309663D01*
X104934358Y-67271568D01*
X104820072Y-67271568D01*
X104667691Y-67309663D01*
X104591500Y-67347759D01*
X104515310Y-67423949D01*
X104477215Y-67538235D01*
X104477215Y-67728711D01*
X104705786Y-66966806D02*
X104705786Y-66585854D01*
X104477215Y-67042997D02*
X105277215Y-66776330D01*
X104477215Y-66509663D01*
X105315310Y-65671568D02*
X104286739Y-66357282D01*
X104477215Y-65404901D02*
X105277215Y-65404901D01*
X104705786Y-65138235D01*
X105277215Y-64871568D01*
X104477215Y-64871568D01*
X105277215Y-64338235D02*
X105277215Y-64185854D01*
X105239120Y-64109663D01*
X105162929Y-64033473D01*
X105010548Y-63995378D01*
X104743881Y-63995378D01*
X104591500Y-64033473D01*
X104515310Y-64109663D01*
X104477215Y-64185854D01*
X104477215Y-64338235D01*
X104515310Y-64414425D01*
X104591500Y-64490616D01*
X104743881Y-64528711D01*
X105010548Y-64528711D01*
X105162929Y-64490616D01*
X105239120Y-64414425D01*
X105277215Y-64338235D01*
X104515310Y-63690616D02*
X104477215Y-63576330D01*
X104477215Y-63385854D01*
X104515310Y-63309663D01*
X104553405Y-63271568D01*
X104629596Y-63233473D01*
X104705786Y-63233473D01*
X104781977Y-63271568D01*
X104820072Y-63309663D01*
X104858167Y-63385854D01*
X104896262Y-63538235D01*
X104934358Y-63614425D01*
X104972453Y-63652520D01*
X105048643Y-63690616D01*
X105124834Y-63690616D01*
X105201024Y-63652520D01*
X105239120Y-63614425D01*
X105277215Y-63538235D01*
X105277215Y-63347759D01*
X105239120Y-63233473D01*
X104477215Y-62890616D02*
X105277215Y-62890616D01*
X90701024Y-85240735D02*
X90320072Y-84974068D01*
X90701024Y-84783592D02*
X89901024Y-84783592D01*
X89901024Y-85088354D01*
X89939120Y-85164544D01*
X89977215Y-85202640D01*
X90053405Y-85240735D01*
X90167691Y-85240735D01*
X90243881Y-85202640D01*
X90281977Y-85164544D01*
X90320072Y-85088354D01*
X90320072Y-84783592D01*
X90281977Y-85583592D02*
X90281977Y-85850259D01*
X90701024Y-85964544D02*
X90701024Y-85583592D01*
X89901024Y-85583592D01*
X89901024Y-85964544D01*
X90662929Y-86269306D02*
X90701024Y-86383592D01*
X90701024Y-86574068D01*
X90662929Y-86650259D01*
X90624834Y-86688354D01*
X90548643Y-86726449D01*
X90472453Y-86726449D01*
X90396262Y-86688354D01*
X90358167Y-86650259D01*
X90320072Y-86574068D01*
X90281977Y-86421687D01*
X90243881Y-86345497D01*
X90205786Y-86307401D01*
X90129596Y-86269306D01*
X90053405Y-86269306D01*
X89977215Y-86307401D01*
X89939120Y-86345497D01*
X89901024Y-86421687D01*
X89901024Y-86612163D01*
X89939120Y-86726449D01*
X90281977Y-87069306D02*
X90281977Y-87335973D01*
X90701024Y-87450259D02*
X90701024Y-87069306D01*
X89901024Y-87069306D01*
X89901024Y-87450259D01*
X89901024Y-87678830D02*
X89901024Y-88135973D01*
X90701024Y-87907401D02*
X89901024Y-87907401D01*
D12*
X102672200Y-100607460D02*
X95532200Y-100607460D01*
X95162200Y-105080000D02*
X103562200Y-105080000D01*
X103562200Y-103429000D02*
X103562200Y-105080000D01*
G36*
X103562200Y-105080000D02*
G01*
X102554200Y-105080000D01*
X103562200Y-104064000D01*
X103562200Y-105080000D01*
G37*
D13*
X103562200Y-105080000D02*
X102554200Y-105080000D01*
X103562200Y-104064000D01*
X103562200Y-105080000D01*
D12*
X89594120Y-73152640D02*
X90384120Y-73152640D01*
X87294120Y-76702640D02*
X88584120Y-76702640D01*
X88584120Y-78002640D02*
X87294120Y-78002640D01*
X90384120Y-80052640D02*
X89594120Y-80052640D01*
X87294120Y-76702640D02*
X87084120Y-76902640D01*
X88584120Y-79452640D02*
X88584120Y-73752640D01*
X91434120Y-78202640D02*
X91434120Y-76502640D01*
X91434120Y-75202640D02*
X91434120Y-75002640D01*
X87294120Y-78002640D02*
X87084120Y-77802640D01*
X87084120Y-77802640D02*
X87084120Y-76902640D01*
D10*
X90910000Y-70440000D02*
X90910000Y-37420000D01*
X90910000Y-70440000D02*
X90910000Y-39960000D01*
X106150000Y-70440000D02*
X106150000Y-39960000D01*
X93450000Y-70440000D02*
X90910000Y-70440000D01*
X108690000Y-70440000D02*
X106150000Y-70440000D01*
X106150000Y-39960000D02*
X108690000Y-39960000D01*
X108690000Y-37420000D02*
X108690000Y-70440000D01*
X90910000Y-39960000D02*
X93450000Y-39960000D01*
X93450000Y-39960000D02*
X93450000Y-70440000D01*
X108690000Y-39960000D02*
X108690000Y-70440000D01*
X90910000Y-37420000D02*
X108690000Y-37420000D01*
X88639120Y-89402640D02*
X89239120Y-89402640D01*
X88639120Y-89402640D02*
X88639120Y-83402640D01*
X88639120Y-83402640D02*
X89239120Y-83402640D01*
X92139120Y-83402640D02*
X92139120Y-89302640D01*
X92139120Y-83402640D02*
X92139120Y-89402640D01*
X92139120Y-89402640D02*
X91439120Y-89402640D01*
X92139120Y-83402640D02*
X91439120Y-83402640D01*
X129205000Y-46727000D02*
X128205000Y-46727000D01*
X128205000Y-46727000D02*
X128705000Y-45827000D01*
X128705000Y-45827000D02*
X129205000Y-46727000D01*
X127955000Y-43527000D02*
X127955000Y-48927000D01*
X127955000Y-48927000D02*
X129455000Y-48927000D01*
X129455000Y-43527000D02*
X127955000Y-43527000D01*
X129205000Y-45727000D02*
X128205000Y-45727000D01*
X129455000Y-48927000D02*
X129455000Y-43527000D01*
X130495000Y-43530000D02*
X130495000Y-48930000D01*
X131245000Y-45830000D02*
X131745000Y-46730000D01*
X131745000Y-45730000D02*
X130745000Y-45730000D01*
X130495000Y-48930000D02*
X131995000Y-48930000D01*
X131995000Y-43530000D02*
X130495000Y-43530000D01*
X131995000Y-48930000D02*
X131995000Y-43530000D01*
X131745000Y-46730000D02*
X130745000Y-46730000D01*
X130745000Y-46730000D02*
X131245000Y-45830000D01*
X149595000Y-41030000D02*
X149595000Y-46430000D01*
X149595000Y-46430000D02*
X151095000Y-46430000D01*
X150845000Y-44230000D02*
X149845000Y-44230000D01*
X150345000Y-43330000D02*
X150845000Y-44230000D01*
X149845000Y-44230000D02*
X150345000Y-43330000D01*
X150845000Y-43230000D02*
X149845000Y-43230000D01*
X151095000Y-46430000D02*
X151095000Y-41030000D01*
X151095000Y-41030000D02*
X149595000Y-41030000D01*
X170095000Y-43530000D02*
X168595000Y-43530000D01*
X169345000Y-45830000D02*
X169845000Y-46730000D01*
X168595000Y-43530000D02*
X168595000Y-48930000D01*
X168845000Y-46730000D02*
X169345000Y-45830000D01*
X168595000Y-48930000D02*
X170095000Y-48930000D01*
X170095000Y-48930000D02*
X170095000Y-43530000D01*
X169845000Y-46730000D02*
X168845000Y-46730000D01*
X169845000Y-45730000D02*
X168845000Y-45730000D01*
X187489120Y-44402640D02*
X187489120Y-49802640D01*
X188989120Y-49802640D02*
X188989120Y-44402640D01*
X188989120Y-44402640D02*
X187489120Y-44402640D01*
X188739120Y-46602640D02*
X187739120Y-46602640D01*
X188739120Y-47602640D02*
X187739120Y-47602640D01*
X188239120Y-46702640D02*
X188739120Y-47602640D01*
X187489120Y-49802640D02*
X188989120Y-49802640D01*
X187739120Y-47602640D02*
X188239120Y-46702640D01*
X206795000Y-48430000D02*
X206795000Y-53830000D01*
X208295000Y-48430000D02*
X206795000Y-48430000D01*
X208045000Y-50630000D02*
X207045000Y-50630000D01*
X206795000Y-53830000D02*
X208295000Y-53830000D01*
X208045000Y-51630000D02*
X207045000Y-51630000D01*
X208295000Y-53830000D02*
X208295000Y-48430000D01*
X207545000Y-50730000D02*
X208045000Y-51630000D01*
X207045000Y-51630000D02*
X207545000Y-50730000D01*
X129205000Y-83830000D02*
X128205000Y-83830000D01*
X129455000Y-81630000D02*
X127955000Y-81630000D01*
X127955000Y-81630000D02*
X127955000Y-87030000D01*
X127955000Y-87030000D02*
X129455000Y-87030000D01*
X129455000Y-87030000D02*
X129455000Y-81630000D01*
X128205000Y-84830000D02*
X128705000Y-83930000D01*
X128705000Y-83930000D02*
X129205000Y-84830000D01*
X129205000Y-84830000D02*
X128205000Y-84830000D01*
X128705000Y-103030000D02*
X129205000Y-103930000D01*
X129205000Y-102930000D02*
X128205000Y-102930000D01*
X129455000Y-100730000D02*
X127955000Y-100730000D01*
X129455000Y-106130000D02*
X129455000Y-100730000D01*
X128205000Y-103930000D02*
X128705000Y-103030000D01*
X129205000Y-103930000D02*
X128205000Y-103930000D01*
X127955000Y-106130000D02*
X129455000Y-106130000D01*
X127955000Y-100730000D02*
X127955000Y-106130000D01*
X104300000Y-96250000D02*
X104300000Y-97750000D01*
X109700000Y-96250000D02*
X104300000Y-96250000D01*
X106600000Y-97000000D02*
X107500000Y-96500000D01*
X107500000Y-97500000D02*
X106600000Y-97000000D01*
X109700000Y-97750000D02*
X109700000Y-96250000D01*
X106500000Y-96500000D02*
X106500000Y-97500000D01*
X104300000Y-97750000D02*
X109700000Y-97750000D01*
X107500000Y-96500000D02*
X107500000Y-97500000D01*
X94353410Y-125151000D02*
X93823987Y-126034013D01*
X95970269Y-123351481D02*
X91293731Y-126051481D01*
X93323987Y-125167987D02*
X94353410Y-125151000D01*
X92043731Y-127350519D02*
X96720269Y-124650519D01*
X94690013Y-125534013D02*
X94190013Y-124667987D01*
X96720269Y-124650519D02*
X95970269Y-123351481D01*
X91293731Y-126051481D02*
X92043731Y-127350519D01*
X93823987Y-126034013D02*
X93323987Y-125167987D01*
X122600000Y-57800000D02*
X122600000Y-54050000D01*
X121850000Y-58225000D02*
X119250000Y-58225000D01*
X116250000Y-56025000D02*
X114275000Y-56025000D01*
X119250000Y-58200000D02*
X119250000Y-53600000D01*
X116250000Y-56000000D02*
X116250000Y-51400000D01*
X115050000Y-56000000D02*
X115050000Y-51400000D01*
X118350000Y-57400000D02*
X118350000Y-53250000D01*
X113400000Y-55150000D02*
X113400000Y-52250000D01*
X113700000Y-55450000D02*
X113700000Y-51950000D01*
X121800000Y-58200000D02*
X121800000Y-53600000D01*
X120300000Y-58200000D02*
X120300000Y-53600000D01*
X117900000Y-56700000D02*
X117900000Y-52250000D01*
X116850000Y-56050000D02*
X116850000Y-51450000D01*
X121850000Y-53575000D02*
X119275000Y-53575000D01*
X114600000Y-56000000D02*
X114600000Y-51400000D01*
X120150000Y-58200000D02*
X120150000Y-53600000D01*
X122700000Y-57650000D02*
X122700000Y-54100000D01*
X116825000Y-51375000D02*
X114275000Y-51375000D01*
X116100000Y-56000000D02*
X116100000Y-51400000D01*
X114150000Y-55850000D02*
X114150000Y-51500000D01*
X119700000Y-58200000D02*
X119700000Y-53600000D01*
X114300000Y-56000000D02*
X114300000Y-51400000D01*
X119100000Y-58200000D02*
X119100000Y-53600000D01*
X117450000Y-56350000D02*
X117450000Y-51900000D01*
X114750000Y-56000000D02*
X114750000Y-51400000D01*
X121650000Y-58200000D02*
X121650000Y-53600000D01*
X121350000Y-58200000D02*
X121350000Y-53600000D01*
X117300000Y-56250000D02*
X117300000Y-51800000D01*
X117600000Y-56450000D02*
X117600000Y-52050000D01*
X116400000Y-56000000D02*
X116400000Y-51450000D01*
X120450000Y-58200000D02*
X120450000Y-53600000D01*
X115350000Y-56000000D02*
X115350000Y-51400000D01*
X119550000Y-58200000D02*
X119550000Y-53600000D01*
X122850000Y-54575000D02*
X122850000Y-57225000D01*
D12*
X124950000Y-47651000D02*
X124950000Y-46000000D01*
D10*
X121950000Y-58200000D02*
X121950000Y-53650000D01*
X118050000Y-56850000D02*
X118050000Y-52400000D01*
X122400000Y-58000000D02*
X122400000Y-53800000D01*
X121050000Y-58200000D02*
X121050000Y-53600000D01*
X117000000Y-56100000D02*
X117000000Y-51550000D01*
X120750000Y-58200000D02*
X120750000Y-53600000D01*
X117750000Y-56550000D02*
X117750000Y-52150000D01*
X118800000Y-58050000D02*
X118800000Y-53500000D01*
X115950000Y-56000000D02*
X115950000Y-51400000D01*
X113250000Y-52400000D02*
X114275000Y-51375000D01*
X118950000Y-58150000D02*
X118950000Y-53600000D01*
X118450000Y-57550000D02*
X118450000Y-53350000D01*
X116825000Y-51375000D02*
X118100000Y-52400000D01*
X120000000Y-58200000D02*
X120000000Y-53600000D01*
X113550000Y-55250000D02*
X113550000Y-52100000D01*
X122100000Y-58150000D02*
X122100000Y-53650000D01*
D12*
X124450000Y-42951000D02*
X116650000Y-42951000D01*
D10*
X115800000Y-56000000D02*
X115800000Y-51400000D01*
X118150000Y-57050000D02*
X118150000Y-52900000D01*
D12*
X116650000Y-47651000D02*
X124950000Y-47651000D01*
D10*
X120900000Y-58200000D02*
X120900000Y-53600000D01*
X115200000Y-56000000D02*
X115200000Y-51400000D01*
X115650000Y-56000000D02*
X115650000Y-51400000D01*
X118650000Y-57950000D02*
X118650000Y-53450000D01*
X113250000Y-55000000D02*
X114275000Y-56025000D01*
X121500000Y-58200000D02*
X121500000Y-53600000D01*
X116700000Y-56050000D02*
X116700000Y-51400000D01*
X117150000Y-56200000D02*
X117150000Y-51650000D01*
X121200000Y-58200000D02*
X121200000Y-53600000D01*
X118250000Y-57200000D02*
X118250000Y-53050000D01*
X114450000Y-56000000D02*
X114450000Y-51400000D01*
X122250000Y-58100000D02*
X122250000Y-53700000D01*
X113850000Y-55600000D02*
X113850000Y-51800000D01*
X115500000Y-56000000D02*
X115500000Y-51400000D01*
X119850000Y-58200000D02*
X119850000Y-53600000D01*
X113250000Y-52400000D02*
X113250000Y-55000000D01*
X116550000Y-56050000D02*
X116550000Y-51400000D01*
X120600000Y-58200000D02*
X120600000Y-53600000D01*
X118550000Y-57800000D02*
X118550000Y-53400000D01*
X114900000Y-56000000D02*
X114900000Y-51400000D01*
X119400000Y-58200000D02*
X119400000Y-53650000D01*
X122500000Y-57900000D02*
X122500000Y-53950000D01*
X114000000Y-55750000D02*
X114000000Y-51650000D01*
X118100000Y-52400000D02*
G75*
G03*
X119275000Y-53575000I1175000J0D01*
G01*
X118387801Y-57521904D02*
G75*
G03*
X116250000Y-56025000I-2137801J-778096D01*
G01*
X118387797Y-57521905D02*
G75*
G03*
X119249005Y-58223791I900003J225005D01*
G01*
X121850000Y-58225000D02*
G75*
G03*
X122850000Y-57225000I1J999999D01*
G01*
X122850000Y-54575000D02*
G75*
G03*
X121850000Y-53575000I-999999J1D01*
G01*
G36*
X124950000Y-47651000D02*
G01*
X123942000Y-47651000D01*
X124950000Y-46635000D01*
X124950000Y-47651000D01*
G37*
D13*
X124950000Y-47651000D02*
X123942000Y-47651000D01*
X124950000Y-46635000D01*
X124950000Y-47651000D01*
D10*
X154350000Y-51000000D02*
X154350000Y-46400000D01*
X157950000Y-53200000D02*
X157950000Y-48600000D01*
X157800000Y-53200000D02*
X157800000Y-48600000D01*
X157200000Y-53200000D02*
X157200000Y-48600000D01*
X156450000Y-52400000D02*
X156450000Y-48250000D01*
X159950000Y-48575000D02*
X157375000Y-48575000D01*
X154350000Y-51025000D02*
X152375000Y-51025000D01*
X160200000Y-53150000D02*
X160200000Y-48650000D01*
X154500000Y-51000000D02*
X154500000Y-46450000D01*
X154050000Y-51000000D02*
X154050000Y-46400000D01*
X152400000Y-51000000D02*
X152400000Y-46400000D01*
X160500000Y-53000000D02*
X160500000Y-48800000D01*
X155850000Y-51550000D02*
X155850000Y-47150000D01*
X159600000Y-53200000D02*
X159600000Y-48600000D01*
X155550000Y-51350000D02*
X155550000Y-46900000D01*
X159150000Y-53200000D02*
X159150000Y-48600000D01*
X156350000Y-52200000D02*
X156350000Y-48050000D01*
X157050000Y-53150000D02*
X157050000Y-48600000D01*
X154650000Y-51050000D02*
X154650000Y-46400000D01*
X156250000Y-52050000D02*
X156250000Y-47900000D01*
X156550000Y-52550000D02*
X156550000Y-48350000D01*
X153900000Y-51000000D02*
X153900000Y-46400000D01*
X157650000Y-53200000D02*
X157650000Y-48600000D01*
X158400000Y-53200000D02*
X158400000Y-48600000D01*
X159750000Y-53200000D02*
X159750000Y-48600000D01*
X154925000Y-46375000D02*
X156200000Y-47400000D01*
X151350000Y-50000000D02*
X152375000Y-51025000D01*
X159300000Y-53200000D02*
X159300000Y-48600000D01*
X153750000Y-51000000D02*
X153750000Y-46400000D01*
X156150000Y-51850000D02*
X156150000Y-47400000D01*
X151800000Y-50450000D02*
X151800000Y-46950000D01*
X160700000Y-52800000D02*
X160700000Y-49050000D01*
X158550000Y-53200000D02*
X158550000Y-48600000D01*
X160050000Y-53200000D02*
X160050000Y-48650000D01*
X159900000Y-53200000D02*
X159900000Y-48600000D01*
X151350000Y-47400000D02*
X152375000Y-46375000D01*
X153600000Y-51000000D02*
X153600000Y-46400000D01*
X153300000Y-51000000D02*
X153300000Y-46400000D01*
X158250000Y-53200000D02*
X158250000Y-48600000D01*
X156750000Y-52950000D02*
X156750000Y-48450000D01*
X155400000Y-51250000D02*
X155400000Y-46800000D01*
X157350000Y-53200000D02*
X157350000Y-48600000D01*
X155100000Y-51100000D02*
X155100000Y-46550000D01*
D12*
X154750000Y-42651000D02*
X163050000Y-42651000D01*
D10*
X156900000Y-53050000D02*
X156900000Y-48500000D01*
X158100000Y-53200000D02*
X158100000Y-48600000D01*
X151500000Y-50150000D02*
X151500000Y-47250000D01*
X160350000Y-53100000D02*
X160350000Y-48700000D01*
X152100000Y-50750000D02*
X152100000Y-46650000D01*
X160950000Y-49575000D02*
X160950000Y-52225000D01*
X160600000Y-52900000D02*
X160600000Y-48950000D01*
X155700000Y-51450000D02*
X155700000Y-47050000D01*
X151650000Y-50250000D02*
X151650000Y-47100000D01*
X153000000Y-51000000D02*
X153000000Y-46400000D01*
X158700000Y-53200000D02*
X158700000Y-48600000D01*
X157500000Y-53200000D02*
X157500000Y-48650000D01*
X152850000Y-51000000D02*
X152850000Y-46400000D01*
D12*
X163050000Y-42651000D02*
X163050000Y-41000000D01*
D10*
X153150000Y-51000000D02*
X153150000Y-46400000D01*
X152550000Y-51000000D02*
X152550000Y-46400000D01*
X152250000Y-50850000D02*
X152250000Y-46500000D01*
X154925000Y-46375000D02*
X152375000Y-46375000D01*
X159450000Y-53200000D02*
X159450000Y-48600000D01*
X156000000Y-51700000D02*
X156000000Y-47250000D01*
X154950000Y-51050000D02*
X154950000Y-46450000D01*
X160800000Y-52650000D02*
X160800000Y-49100000D01*
X151350000Y-47400000D02*
X151350000Y-50000000D01*
X159950000Y-53225000D02*
X157350000Y-53225000D01*
X154800000Y-51050000D02*
X154800000Y-46400000D01*
D12*
X162550000Y-37951000D02*
X154750000Y-37951000D01*
D10*
X155250000Y-51200000D02*
X155250000Y-46650000D01*
X159000000Y-53200000D02*
X159000000Y-48600000D01*
X158850000Y-53200000D02*
X158850000Y-48600000D01*
X151950000Y-50600000D02*
X151950000Y-46800000D01*
X153450000Y-51000000D02*
X153450000Y-46400000D01*
X156650000Y-52800000D02*
X156650000Y-48400000D01*
X154200000Y-51000000D02*
X154200000Y-46400000D01*
X152700000Y-51000000D02*
X152700000Y-46400000D01*
X159950000Y-53225000D02*
G75*
G03*
X160950000Y-52225000I1J999999D01*
G01*
X156200000Y-47400000D02*
G75*
G03*
X157375000Y-48575000I1175000J0D01*
G01*
X156487797Y-52521905D02*
G75*
G03*
X157349005Y-53223791I900003J225005D01*
G01*
X156487801Y-52521904D02*
G75*
G03*
X154350000Y-51025000I-2137801J-778096D01*
G01*
X160950000Y-49575000D02*
G75*
G03*
X159950000Y-48575000I-999999J1D01*
G01*
G36*
X163050000Y-42651000D02*
G01*
X162042000Y-42651000D01*
X163050000Y-41635000D01*
X163050000Y-42651000D01*
G37*
D13*
X163050000Y-42651000D02*
X162042000Y-42651000D01*
X163050000Y-41635000D01*
X163050000Y-42651000D01*
D10*
X117600000Y-94550000D02*
X117600000Y-90150000D01*
X121200000Y-96300000D02*
X121200000Y-91700000D01*
X116850000Y-94150000D02*
X116850000Y-89550000D01*
X122100000Y-96250000D02*
X122100000Y-91750000D01*
X118250000Y-95300000D02*
X118250000Y-91150000D01*
X122500000Y-96000000D02*
X122500000Y-92050000D01*
X122600000Y-95900000D02*
X122600000Y-92150000D01*
X118650000Y-96050000D02*
X118650000Y-91550000D01*
X118150000Y-95150000D02*
X118150000Y-91000000D01*
X122850000Y-92675000D02*
X122850000Y-95325000D01*
X122400000Y-96100000D02*
X122400000Y-91900000D01*
X115500000Y-94100000D02*
X115500000Y-89500000D01*
X121850000Y-96325000D02*
X119250000Y-96325000D01*
X113700000Y-93550000D02*
X113700000Y-90050000D01*
X117900000Y-94800000D02*
X117900000Y-90350000D01*
X120450000Y-96300000D02*
X120450000Y-91700000D01*
X117300000Y-94350000D02*
X117300000Y-89900000D01*
X118550000Y-95900000D02*
X118550000Y-91500000D01*
X113550000Y-93350000D02*
X113550000Y-90200000D01*
X118800000Y-96150000D02*
X118800000Y-91600000D01*
X120750000Y-96300000D02*
X120750000Y-91700000D01*
X118050000Y-94950000D02*
X118050000Y-90500000D01*
X115800000Y-94100000D02*
X115800000Y-89500000D01*
X117150000Y-94300000D02*
X117150000Y-89750000D01*
X115200000Y-94100000D02*
X115200000Y-89500000D01*
D12*
X124950000Y-85751000D02*
X124950000Y-84100000D01*
D10*
X116700000Y-94150000D02*
X116700000Y-89500000D01*
X113250000Y-93100000D02*
X114275000Y-94125000D01*
X121800000Y-96300000D02*
X121800000Y-91700000D01*
X114000000Y-93850000D02*
X114000000Y-89750000D01*
X121950000Y-96300000D02*
X121950000Y-91750000D01*
X116100000Y-94100000D02*
X116100000Y-89500000D01*
X116250000Y-94100000D02*
X116250000Y-89500000D01*
X121850000Y-91675000D02*
X119275000Y-91675000D01*
X116825000Y-89475000D02*
X114275000Y-89475000D01*
X120300000Y-96300000D02*
X120300000Y-91700000D01*
X116400000Y-94100000D02*
X116400000Y-89550000D01*
X113250000Y-90500000D02*
X113250000Y-93100000D01*
X114450000Y-94100000D02*
X114450000Y-89500000D01*
X121350000Y-96300000D02*
X121350000Y-91700000D01*
X116550000Y-94150000D02*
X116550000Y-89500000D01*
X119400000Y-96300000D02*
X119400000Y-91750000D01*
X117750000Y-94650000D02*
X117750000Y-90250000D01*
X120900000Y-96300000D02*
X120900000Y-91700000D01*
X113850000Y-93700000D02*
X113850000Y-89900000D01*
X115950000Y-94100000D02*
X115950000Y-89500000D01*
X114300000Y-94100000D02*
X114300000Y-89500000D01*
X119100000Y-96300000D02*
X119100000Y-91700000D01*
X120150000Y-96300000D02*
X120150000Y-91700000D01*
X117450000Y-94450000D02*
X117450000Y-90000000D01*
X119700000Y-96300000D02*
X119700000Y-91700000D01*
X114750000Y-94100000D02*
X114750000Y-89500000D01*
X115050000Y-94100000D02*
X115050000Y-89500000D01*
X121650000Y-96300000D02*
X121650000Y-91700000D01*
X114600000Y-94100000D02*
X114600000Y-89500000D01*
X117000000Y-94200000D02*
X117000000Y-89650000D01*
X118450000Y-95650000D02*
X118450000Y-91450000D01*
X119850000Y-96300000D02*
X119850000Y-91700000D01*
X122700000Y-95750000D02*
X122700000Y-92200000D01*
D12*
X116650000Y-85751000D02*
X124950000Y-85751000D01*
D10*
X113250000Y-90500000D02*
X114275000Y-89475000D01*
X118350000Y-95500000D02*
X118350000Y-91350000D01*
X115650000Y-94100000D02*
X115650000Y-89500000D01*
X114150000Y-93950000D02*
X114150000Y-89600000D01*
X116825000Y-89475000D02*
X118100000Y-90500000D01*
X114900000Y-94100000D02*
X114900000Y-89500000D01*
X119250000Y-96300000D02*
X119250000Y-91700000D01*
X120000000Y-96300000D02*
X120000000Y-91700000D01*
X118950000Y-96250000D02*
X118950000Y-91700000D01*
X121050000Y-96300000D02*
X121050000Y-91700000D01*
X116250000Y-94125000D02*
X114275000Y-94125000D01*
X120600000Y-96300000D02*
X120600000Y-91700000D01*
X119550000Y-96300000D02*
X119550000Y-91700000D01*
X113400000Y-93250000D02*
X113400000Y-90350000D01*
X122250000Y-96200000D02*
X122250000Y-91800000D01*
X115350000Y-94100000D02*
X115350000Y-89500000D01*
D12*
X124450000Y-81051000D02*
X116650000Y-81051000D01*
D10*
X121500000Y-96300000D02*
X121500000Y-91700000D01*
X118387801Y-95621904D02*
G75*
G03*
X116250000Y-94125000I-2137801J-778096D01*
G01*
X121850000Y-96325000D02*
G75*
G03*
X122850000Y-95325000I1J999999D01*
G01*
X118387797Y-95621905D02*
G75*
G03*
X119249005Y-96323791I900003J225005D01*
G01*
X122850000Y-92675000D02*
G75*
G03*
X121850000Y-91675000I-999999J1D01*
G01*
X118100000Y-90500000D02*
G75*
G03*
X119275000Y-91675000I1175000J0D01*
G01*
G36*
X124950000Y-85751000D02*
G01*
X123942000Y-85751000D01*
X124950000Y-84735000D01*
X124950000Y-85751000D01*
G37*
D13*
X124950000Y-85751000D02*
X123942000Y-85751000D01*
X124950000Y-84735000D01*
X124950000Y-85751000D01*
D10*
X135450000Y-91600000D02*
X135450000Y-87050000D01*
X135300000Y-91625000D02*
X133325000Y-91625000D01*
X141450000Y-93600000D02*
X141450000Y-89400000D01*
X138000000Y-93750000D02*
X138000000Y-89200000D01*
X138300000Y-93800000D02*
X138300000Y-89200000D01*
X141300000Y-93700000D02*
X141300000Y-89300000D01*
X136500000Y-91950000D02*
X136500000Y-87500000D01*
X132900000Y-91200000D02*
X132900000Y-87400000D01*
X133500000Y-91600000D02*
X133500000Y-87000000D01*
X132300000Y-88000000D02*
X133325000Y-86975000D01*
X140700000Y-93800000D02*
X140700000Y-89200000D01*
X137600000Y-93400000D02*
X137600000Y-89000000D01*
X133800000Y-91600000D02*
X133800000Y-87000000D01*
X140400000Y-93800000D02*
X140400000Y-89200000D01*
X135300000Y-91600000D02*
X135300000Y-87000000D01*
X137100000Y-92450000D02*
X137100000Y-88000000D01*
D12*
X144000000Y-83251000D02*
X144000000Y-81600000D01*
D10*
X132750000Y-91050000D02*
X132750000Y-87550000D01*
X139650000Y-93800000D02*
X139650000Y-89200000D01*
X132600000Y-90850000D02*
X132600000Y-87700000D01*
X134250000Y-91600000D02*
X134250000Y-87000000D01*
X135900000Y-91650000D02*
X135900000Y-87050000D01*
X137850000Y-93650000D02*
X137850000Y-89100000D01*
X135150000Y-91600000D02*
X135150000Y-87000000D01*
X135000000Y-91600000D02*
X135000000Y-87000000D01*
X132300000Y-90600000D02*
X133325000Y-91625000D01*
X137500000Y-93150000D02*
X137500000Y-88950000D01*
X140250000Y-93800000D02*
X140250000Y-89200000D01*
X136200000Y-91800000D02*
X136200000Y-87250000D01*
X135750000Y-91650000D02*
X135750000Y-87000000D01*
X141150000Y-93750000D02*
X141150000Y-89250000D01*
X138450000Y-93800000D02*
X138450000Y-89250000D01*
X137700000Y-93550000D02*
X137700000Y-89050000D01*
X139050000Y-93800000D02*
X139050000Y-89200000D01*
X133950000Y-91600000D02*
X133950000Y-87000000D01*
X138750000Y-93800000D02*
X138750000Y-89200000D01*
X138150000Y-93800000D02*
X138150000Y-89200000D01*
X133050000Y-91350000D02*
X133050000Y-87250000D01*
X141900000Y-90175000D02*
X141900000Y-92825000D01*
X133200000Y-91450000D02*
X133200000Y-87100000D01*
X137400000Y-93000000D02*
X137400000Y-88850000D01*
X137300000Y-92800000D02*
X137300000Y-88650000D01*
X140900000Y-89175000D02*
X138325000Y-89175000D01*
X140100000Y-93800000D02*
X140100000Y-89200000D01*
X136350000Y-91850000D02*
X136350000Y-87400000D01*
X139800000Y-93800000D02*
X139800000Y-89200000D01*
X139950000Y-93800000D02*
X139950000Y-89200000D01*
X134400000Y-91600000D02*
X134400000Y-87000000D01*
X132300000Y-88000000D02*
X132300000Y-90600000D01*
X134550000Y-91600000D02*
X134550000Y-87000000D01*
D12*
X135700000Y-83251000D02*
X144000000Y-83251000D01*
D10*
X133350000Y-91600000D02*
X133350000Y-87000000D01*
X140550000Y-93800000D02*
X140550000Y-89200000D01*
X137200000Y-92650000D02*
X137200000Y-88500000D01*
X136050000Y-91700000D02*
X136050000Y-87150000D01*
X141000000Y-93800000D02*
X141000000Y-89250000D01*
X139200000Y-93800000D02*
X139200000Y-89200000D01*
X134850000Y-91600000D02*
X134850000Y-87000000D01*
X138600000Y-93800000D02*
X138600000Y-89200000D01*
X141750000Y-93250000D02*
X141750000Y-89700000D01*
X136800000Y-92150000D02*
X136800000Y-87750000D01*
X134100000Y-91600000D02*
X134100000Y-87000000D01*
X132450000Y-90750000D02*
X132450000Y-87850000D01*
D12*
X143500000Y-78551000D02*
X135700000Y-78551000D01*
D10*
X135875000Y-86975000D02*
X133325000Y-86975000D01*
X141650000Y-93400000D02*
X141650000Y-89650000D01*
X136950000Y-92300000D02*
X136950000Y-87850000D01*
X139500000Y-93800000D02*
X139500000Y-89200000D01*
X140850000Y-93800000D02*
X140850000Y-89200000D01*
X140900000Y-93825000D02*
X138300000Y-93825000D01*
X134700000Y-91600000D02*
X134700000Y-87000000D01*
X139350000Y-93800000D02*
X139350000Y-89200000D01*
X136650000Y-92050000D02*
X136650000Y-87650000D01*
X141550000Y-93500000D02*
X141550000Y-89550000D01*
X133650000Y-91600000D02*
X133650000Y-87000000D01*
X138900000Y-93800000D02*
X138900000Y-89200000D01*
X135875000Y-86975000D02*
X137150000Y-88000000D01*
X135600000Y-91650000D02*
X135600000Y-87000000D01*
X137437801Y-93121904D02*
G75*
G03*
X135300000Y-91625000I-2137801J-778096D01*
G01*
X141900000Y-90175000D02*
G75*
G03*
X140900000Y-89175000I-999999J1D01*
G01*
X137150000Y-88000000D02*
G75*
G03*
X138325000Y-89175000I1175000J0D01*
G01*
X137437797Y-93121905D02*
G75*
G03*
X138299005Y-93823791I900003J225005D01*
G01*
X140900000Y-93825000D02*
G75*
G03*
X141900000Y-92825000I1J999999D01*
G01*
G36*
X144000000Y-83251000D02*
G01*
X142992000Y-83251000D01*
X144000000Y-82235000D01*
X144000000Y-83251000D01*
G37*
D13*
X144000000Y-83251000D02*
X142992000Y-83251000D01*
X144000000Y-82235000D01*
X144000000Y-83251000D01*
D10*
X117600000Y-113600000D02*
X117600000Y-109200000D01*
X114000000Y-112900000D02*
X114000000Y-108800000D01*
X113850000Y-112750000D02*
X113850000Y-108950000D01*
X122850000Y-111725000D02*
X122850000Y-114375000D01*
X120900000Y-115350000D02*
X120900000Y-110750000D01*
X115500000Y-113150000D02*
X115500000Y-108550000D01*
X115650000Y-113150000D02*
X115650000Y-108550000D01*
X113250000Y-112150000D02*
X114275000Y-113175000D01*
X113700000Y-112600000D02*
X113700000Y-109100000D01*
X122400000Y-115150000D02*
X122400000Y-110950000D01*
X113250000Y-109550000D02*
X114275000Y-108525000D01*
X114450000Y-113150000D02*
X114450000Y-108550000D01*
X119550000Y-115350000D02*
X119550000Y-110750000D01*
X117450000Y-113500000D02*
X117450000Y-109050000D01*
X113400000Y-112300000D02*
X113400000Y-109400000D01*
X117000000Y-113250000D02*
X117000000Y-108700000D01*
X122700000Y-114800000D02*
X122700000Y-111250000D01*
D12*
X124450000Y-100101000D02*
X116650000Y-100101000D01*
D10*
X118050000Y-114000000D02*
X118050000Y-109550000D01*
X115950000Y-113150000D02*
X115950000Y-108550000D01*
X121800000Y-115350000D02*
X121800000Y-110750000D01*
X116550000Y-113200000D02*
X116550000Y-108550000D01*
X118350000Y-114550000D02*
X118350000Y-110400000D01*
X121050000Y-115350000D02*
X121050000Y-110750000D01*
X114300000Y-113150000D02*
X114300000Y-108550000D01*
X118450000Y-114700000D02*
X118450000Y-110500000D01*
X117900000Y-113850000D02*
X117900000Y-109400000D01*
X115200000Y-113150000D02*
X115200000Y-108550000D01*
X120600000Y-115350000D02*
X120600000Y-110750000D01*
X120300000Y-115350000D02*
X120300000Y-110750000D01*
X121850000Y-115375000D02*
X119250000Y-115375000D01*
X122100000Y-115300000D02*
X122100000Y-110800000D01*
X116825000Y-108525000D02*
X114275000Y-108525000D01*
X120000000Y-115350000D02*
X120000000Y-110750000D01*
X117300000Y-113400000D02*
X117300000Y-108950000D01*
X122600000Y-114950000D02*
X122600000Y-111200000D01*
D12*
X116650000Y-104801000D02*
X124950000Y-104801000D01*
D10*
X121650000Y-115350000D02*
X121650000Y-110750000D01*
X118150000Y-114200000D02*
X118150000Y-110050000D01*
X119100000Y-115350000D02*
X119100000Y-110750000D01*
X114900000Y-113150000D02*
X114900000Y-108550000D01*
X116400000Y-113150000D02*
X116400000Y-108600000D01*
X119700000Y-115350000D02*
X119700000Y-110750000D01*
X120450000Y-115350000D02*
X120450000Y-110750000D01*
X122250000Y-115250000D02*
X122250000Y-110850000D01*
X117750000Y-113700000D02*
X117750000Y-109300000D01*
X119250000Y-115350000D02*
X119250000Y-110750000D01*
X114150000Y-113000000D02*
X114150000Y-108650000D01*
X116700000Y-113200000D02*
X116700000Y-108550000D01*
X121950000Y-115350000D02*
X121950000Y-110800000D01*
X118950000Y-115300000D02*
X118950000Y-110750000D01*
X115050000Y-113150000D02*
X115050000Y-108550000D01*
X116250000Y-113150000D02*
X116250000Y-108550000D01*
D12*
X124950000Y-104801000D02*
X124950000Y-103150000D01*
D10*
X114600000Y-113150000D02*
X114600000Y-108550000D01*
X116850000Y-113200000D02*
X116850000Y-108600000D01*
X122500000Y-115050000D02*
X122500000Y-111100000D01*
X119400000Y-115350000D02*
X119400000Y-110800000D01*
X121850000Y-110725000D02*
X119275000Y-110725000D01*
X116250000Y-113175000D02*
X114275000Y-113175000D01*
X118650000Y-115100000D02*
X118650000Y-110600000D01*
X120150000Y-115350000D02*
X120150000Y-110750000D01*
X116825000Y-108525000D02*
X118100000Y-109550000D01*
X117150000Y-113350000D02*
X117150000Y-108800000D01*
X121500000Y-115350000D02*
X121500000Y-110750000D01*
X115350000Y-113150000D02*
X115350000Y-108550000D01*
X113250000Y-109550000D02*
X113250000Y-112150000D01*
X120750000Y-115350000D02*
X120750000Y-110750000D01*
X118550000Y-114950000D02*
X118550000Y-110550000D01*
X118800000Y-115200000D02*
X118800000Y-110650000D01*
X119850000Y-115350000D02*
X119850000Y-110750000D01*
X118250000Y-114350000D02*
X118250000Y-110200000D01*
X121200000Y-115350000D02*
X121200000Y-110750000D01*
X121350000Y-115350000D02*
X121350000Y-110750000D01*
X115800000Y-113150000D02*
X115800000Y-108550000D01*
X114750000Y-113150000D02*
X114750000Y-108550000D01*
X113550000Y-112400000D02*
X113550000Y-109250000D01*
X116100000Y-113150000D02*
X116100000Y-108550000D01*
X121850000Y-115375000D02*
G75*
G03*
X122850000Y-114375000I1J999999D01*
G01*
X118100000Y-109550000D02*
G75*
G03*
X119275000Y-110725000I1175000J0D01*
G01*
X122850000Y-111725000D02*
G75*
G03*
X121850000Y-110725000I-999999J1D01*
G01*
X118387801Y-114671904D02*
G75*
G03*
X116250000Y-113175000I-2137801J-778096D01*
G01*
X118387797Y-114671905D02*
G75*
G03*
X119249005Y-115373791I900003J225005D01*
G01*
G36*
X124950000Y-104801000D02*
G01*
X123942000Y-104801000D01*
X124950000Y-103785000D01*
X124950000Y-104801000D01*
G37*
D13*
X124950000Y-104801000D02*
X123942000Y-104801000D01*
X124950000Y-103785000D01*
X124950000Y-104801000D01*
D10*
X160050000Y-110350000D02*
X160050000Y-105800000D01*
X152700000Y-108150000D02*
X152700000Y-103550000D01*
X151500000Y-107300000D02*
X151500000Y-104400000D01*
D12*
X162550000Y-95101000D02*
X154750000Y-95101000D01*
D10*
X155850000Y-108700000D02*
X155850000Y-104300000D01*
X157650000Y-110350000D02*
X157650000Y-105750000D01*
X151650000Y-107400000D02*
X151650000Y-104250000D01*
X157950000Y-110350000D02*
X157950000Y-105750000D01*
X152100000Y-107900000D02*
X152100000Y-103800000D01*
X160800000Y-109800000D02*
X160800000Y-106250000D01*
X158400000Y-110350000D02*
X158400000Y-105750000D01*
X158250000Y-110350000D02*
X158250000Y-105750000D01*
X160200000Y-110300000D02*
X160200000Y-105800000D01*
X154650000Y-108200000D02*
X154650000Y-103550000D01*
X156750000Y-110100000D02*
X156750000Y-105600000D01*
X159600000Y-110350000D02*
X159600000Y-105750000D01*
X157050000Y-110300000D02*
X157050000Y-105750000D01*
X156350000Y-109350000D02*
X156350000Y-105200000D01*
X155250000Y-108350000D02*
X155250000Y-103800000D01*
D12*
X163050000Y-99801000D02*
X163050000Y-98150000D01*
D10*
X152550000Y-108150000D02*
X152550000Y-103550000D01*
X156650000Y-109950000D02*
X156650000Y-105550000D01*
X156000000Y-108850000D02*
X156000000Y-104400000D01*
X154350000Y-108150000D02*
X154350000Y-103550000D01*
X158700000Y-110350000D02*
X158700000Y-105750000D01*
X154350000Y-108175000D02*
X152375000Y-108175000D01*
X154200000Y-108150000D02*
X154200000Y-103550000D01*
X153000000Y-108150000D02*
X153000000Y-103550000D01*
X155100000Y-108250000D02*
X155100000Y-103700000D01*
X157800000Y-110350000D02*
X157800000Y-105750000D01*
X160950000Y-106725000D02*
X160950000Y-109375000D01*
X151350000Y-104550000D02*
X151350000Y-107150000D01*
X156150000Y-109000000D02*
X156150000Y-104550000D01*
X156450000Y-109550000D02*
X156450000Y-105400000D01*
X152850000Y-108150000D02*
X152850000Y-103550000D01*
X160600000Y-110050000D02*
X160600000Y-106100000D01*
X151350000Y-104550000D02*
X152375000Y-103525000D01*
X159950000Y-110375000D02*
X157350000Y-110375000D01*
X160500000Y-110150000D02*
X160500000Y-105950000D01*
X151350000Y-107150000D02*
X152375000Y-108175000D01*
X153600000Y-108150000D02*
X153600000Y-103550000D01*
X159900000Y-110350000D02*
X159900000Y-105750000D01*
X160350000Y-110250000D02*
X160350000Y-105850000D01*
X153300000Y-108150000D02*
X153300000Y-103550000D01*
X153150000Y-108150000D02*
X153150000Y-103550000D01*
X160700000Y-109950000D02*
X160700000Y-106200000D01*
X153750000Y-108150000D02*
X153750000Y-103550000D01*
X154925000Y-103525000D02*
X156200000Y-104550000D01*
X158550000Y-110350000D02*
X158550000Y-105750000D01*
X152400000Y-108150000D02*
X152400000Y-103550000D01*
X157500000Y-110350000D02*
X157500000Y-105800000D01*
X154800000Y-108200000D02*
X154800000Y-103550000D01*
X151950000Y-107750000D02*
X151950000Y-103950000D01*
X159450000Y-110350000D02*
X159450000Y-105750000D01*
X159000000Y-110350000D02*
X159000000Y-105750000D01*
X151800000Y-107600000D02*
X151800000Y-104100000D01*
X154500000Y-108150000D02*
X154500000Y-103600000D01*
X155700000Y-108600000D02*
X155700000Y-104200000D01*
X156900000Y-110200000D02*
X156900000Y-105650000D01*
X156250000Y-109200000D02*
X156250000Y-105050000D01*
X156550000Y-109700000D02*
X156550000Y-105500000D01*
X153450000Y-108150000D02*
X153450000Y-103550000D01*
X157200000Y-110350000D02*
X157200000Y-105750000D01*
X157350000Y-110350000D02*
X157350000Y-105750000D01*
X153900000Y-108150000D02*
X153900000Y-103550000D01*
X155400000Y-108400000D02*
X155400000Y-103950000D01*
X154925000Y-103525000D02*
X152375000Y-103525000D01*
X155550000Y-108500000D02*
X155550000Y-104050000D01*
D12*
X154750000Y-99801000D02*
X163050000Y-99801000D01*
D10*
X158100000Y-110350000D02*
X158100000Y-105750000D01*
X159750000Y-110350000D02*
X159750000Y-105750000D01*
X159150000Y-110350000D02*
X159150000Y-105750000D01*
X154050000Y-108150000D02*
X154050000Y-103550000D01*
X159950000Y-105725000D02*
X157375000Y-105725000D01*
X158850000Y-110350000D02*
X158850000Y-105750000D01*
X159300000Y-110350000D02*
X159300000Y-105750000D01*
X152250000Y-108000000D02*
X152250000Y-103650000D01*
X154950000Y-108200000D02*
X154950000Y-103600000D01*
X160950000Y-106725000D02*
G75*
G03*
X159950000Y-105725000I-999999J1D01*
G01*
X156200000Y-104550000D02*
G75*
G03*
X157375000Y-105725000I1175000J0D01*
G01*
X159950000Y-110375000D02*
G75*
G03*
X160950000Y-109375000I1J999999D01*
G01*
X156487797Y-109671905D02*
G75*
G03*
X157349005Y-110373791I900003J225005D01*
G01*
X156487801Y-109671904D02*
G75*
G03*
X154350000Y-108175000I-2137801J-778096D01*
G01*
G36*
X163050000Y-99801000D02*
G01*
X162042000Y-99801000D01*
X163050000Y-98785000D01*
X163050000Y-99801000D01*
G37*
D13*
X163050000Y-99801000D02*
X162042000Y-99801000D01*
X163050000Y-98785000D01*
X163050000Y-99801000D01*
D10*
X198450000Y-117650000D02*
X198450000Y-113250000D01*
X196350000Y-117750000D02*
X196350000Y-113150000D01*
X195300000Y-117750000D02*
X195300000Y-113150000D01*
X190200000Y-115300000D02*
X190200000Y-111200000D01*
X192300000Y-115550000D02*
X192300000Y-110950000D01*
X194100000Y-116250000D02*
X194100000Y-111800000D01*
X193650000Y-115900000D02*
X193650000Y-111450000D01*
X196050000Y-117750000D02*
X196050000Y-113150000D01*
X194550000Y-116950000D02*
X194550000Y-112800000D01*
X196650000Y-117750000D02*
X196650000Y-113150000D01*
X198600000Y-117550000D02*
X198600000Y-113350000D01*
X189450000Y-111950000D02*
X189450000Y-114550000D01*
X194450000Y-116750000D02*
X194450000Y-112600000D01*
X195600000Y-117750000D02*
X195600000Y-113200000D01*
X194350000Y-116600000D02*
X194350000Y-112450000D01*
X193950000Y-116100000D02*
X193950000Y-111700000D01*
X198050000Y-113125000D02*
X195475000Y-113125000D01*
X193050000Y-115600000D02*
X193050000Y-111000000D01*
X189900000Y-115000000D02*
X189900000Y-111500000D01*
X195900000Y-117750000D02*
X195900000Y-113150000D01*
X189600000Y-114700000D02*
X189600000Y-111800000D01*
X191250000Y-115550000D02*
X191250000Y-110950000D01*
X199050000Y-114125000D02*
X199050000Y-116775000D01*
X196200000Y-117750000D02*
X196200000Y-113150000D01*
X192000000Y-115550000D02*
X192000000Y-110950000D01*
X195150000Y-117700000D02*
X195150000Y-113150000D01*
X191850000Y-115550000D02*
X191850000Y-110950000D01*
X192450000Y-115550000D02*
X192450000Y-110950000D01*
X196800000Y-117750000D02*
X196800000Y-113150000D01*
X194650000Y-117100000D02*
X194650000Y-112900000D01*
X198700000Y-117450000D02*
X198700000Y-113500000D01*
X193025000Y-110925000D02*
X194300000Y-111950000D01*
X197700000Y-117750000D02*
X197700000Y-113150000D01*
D12*
X201150000Y-107201000D02*
X201150000Y-105550000D01*
D10*
X193025000Y-110925000D02*
X190475000Y-110925000D01*
X190950000Y-115550000D02*
X190950000Y-110950000D01*
X193500000Y-115800000D02*
X193500000Y-111350000D01*
X194250000Y-116400000D02*
X194250000Y-111950000D01*
X192600000Y-115550000D02*
X192600000Y-111000000D01*
X195000000Y-117600000D02*
X195000000Y-113050000D01*
X192150000Y-115550000D02*
X192150000Y-110950000D01*
X198900000Y-117200000D02*
X198900000Y-113650000D01*
X198000000Y-117750000D02*
X198000000Y-113150000D01*
X191100000Y-115550000D02*
X191100000Y-110950000D01*
X198050000Y-117775000D02*
X195450000Y-117775000D01*
X190050000Y-115150000D02*
X190050000Y-111350000D01*
X194750000Y-117350000D02*
X194750000Y-112950000D01*
X198150000Y-117750000D02*
X198150000Y-113200000D01*
X197400000Y-117750000D02*
X197400000Y-113150000D01*
X197850000Y-117750000D02*
X197850000Y-113150000D01*
X189750000Y-114800000D02*
X189750000Y-111650000D01*
X192750000Y-115600000D02*
X192750000Y-110950000D01*
X193350000Y-115750000D02*
X193350000Y-111200000D01*
X189450000Y-114550000D02*
X190475000Y-115575000D01*
X189450000Y-111950000D02*
X190475000Y-110925000D01*
X190350000Y-115400000D02*
X190350000Y-111050000D01*
X195750000Y-117750000D02*
X195750000Y-113150000D01*
X192450000Y-115575000D02*
X190475000Y-115575000D01*
X197550000Y-117750000D02*
X197550000Y-113150000D01*
X190500000Y-115550000D02*
X190500000Y-110950000D01*
X198300000Y-117700000D02*
X198300000Y-113200000D01*
X196950000Y-117750000D02*
X196950000Y-113150000D01*
X191400000Y-115550000D02*
X191400000Y-110950000D01*
X193200000Y-115650000D02*
X193200000Y-111100000D01*
X190650000Y-115550000D02*
X190650000Y-110950000D01*
X190800000Y-115550000D02*
X190800000Y-110950000D01*
X191550000Y-115550000D02*
X191550000Y-110950000D01*
X191700000Y-115550000D02*
X191700000Y-110950000D01*
X197100000Y-117750000D02*
X197100000Y-113150000D01*
X196500000Y-117750000D02*
X196500000Y-113150000D01*
X194850000Y-117500000D02*
X194850000Y-113000000D01*
D12*
X192850000Y-107201000D02*
X201150000Y-107201000D01*
D10*
X198800000Y-117350000D02*
X198800000Y-113600000D01*
X192900000Y-115600000D02*
X192900000Y-110950000D01*
X193800000Y-116000000D02*
X193800000Y-111600000D01*
X197250000Y-117750000D02*
X197250000Y-113150000D01*
X195450000Y-117750000D02*
X195450000Y-113150000D01*
D12*
X200650000Y-102501000D02*
X192850000Y-102501000D01*
D10*
X198050000Y-117775000D02*
G75*
G03*
X199050000Y-116775000I1J999999D01*
G01*
X194587801Y-117071904D02*
G75*
G03*
X192450000Y-115575000I-2137801J-778096D01*
G01*
X194300000Y-111950000D02*
G75*
G03*
X195475000Y-113125000I1175000J0D01*
G01*
X199050000Y-114125000D02*
G75*
G03*
X198050000Y-113125000I-999999J1D01*
G01*
X194587797Y-117071905D02*
G75*
G03*
X195449005Y-117773791I900003J225005D01*
G01*
G36*
X201150000Y-107201000D02*
G01*
X200142000Y-107201000D01*
X201150000Y-106185000D01*
X201150000Y-107201000D01*
G37*
D13*
X201150000Y-107201000D02*
X200142000Y-107201000D01*
X201150000Y-106185000D01*
X201150000Y-107201000D01*
D10*
X88875098Y-135729552D02*
X92772212Y-133479552D01*
X94263959Y-136313333D02*
X92976459Y-134083318D01*
D12*
X96794294Y-128848001D02*
X100944294Y-136036012D01*
D10*
X89545546Y-133090802D02*
X93572564Y-130765802D01*
X88455354Y-130602534D02*
X92006058Y-128552534D01*
X90233592Y-138582532D02*
X94217309Y-136282532D01*
X89438848Y-132805995D02*
X93379263Y-130530995D01*
X89620546Y-133220706D02*
X93604263Y-130920706D01*
X89324617Y-135008142D02*
X92918623Y-132933142D01*
X88988848Y-132026572D02*
X92972564Y-129726572D01*
X91159906Y-139086955D02*
X94234296Y-137311955D01*
X89138848Y-132286379D02*
X93122564Y-129986379D01*
D12*
X104764613Y-133252999D02*
X100864613Y-126498001D01*
D10*
X89033592Y-136504071D02*
X92974007Y-134229071D01*
X93656715Y-130861555D02*
X93406539Y-132478238D01*
X90236941Y-138638333D02*
X88936941Y-136386667D01*
X88538848Y-131247149D02*
X92522564Y-128947149D01*
X90158592Y-138452628D02*
X94142309Y-136152628D01*
X88955002Y-135567949D02*
X92765514Y-133367949D01*
X89660739Y-133890321D02*
X93514552Y-131665321D01*
X90843399Y-139038750D02*
X94264200Y-137063750D01*
D12*
X100944294Y-136036012D02*
X102374102Y-135210512D01*
D10*
X88851893Y-136089359D02*
X92792309Y-133814359D01*
X88688848Y-131506956D02*
X92672564Y-129206956D01*
X89637534Y-134250129D02*
X93448045Y-132050129D01*
X90706797Y-139002147D02*
X94344103Y-136902147D01*
X93656715Y-130861555D02*
X92381715Y-128653191D01*
X88913848Y-131896668D02*
X92897564Y-129596668D01*
X89652245Y-133375610D02*
X93592661Y-131100610D01*
X93897934Y-137679358D02*
X91602966Y-139004358D01*
X88729873Y-129578015D02*
X88354697Y-130978191D01*
X89063848Y-132156476D02*
X93047564Y-129856476D01*
X89201412Y-135194744D02*
X92795417Y-133119744D01*
X90426893Y-138817339D02*
X94324007Y-136567339D01*
X88510258Y-130397630D02*
X91801154Y-128497630D01*
X89858592Y-137933013D02*
X93842309Y-135633013D01*
X88958592Y-136374167D02*
X92942309Y-134074167D01*
X89633592Y-137543301D02*
X93617309Y-135243301D01*
X89933592Y-138062917D02*
X93917309Y-135762917D01*
X90083592Y-138322724D02*
X94067309Y-136022724D01*
X88613848Y-131377053D02*
X92597564Y-129077053D01*
X88663367Y-129962822D02*
X91391347Y-128387822D01*
X89333592Y-137023686D02*
X93317309Y-134723686D01*
X88883592Y-136244263D02*
X92867309Y-133944263D01*
X89213848Y-132416283D02*
X93197564Y-130116283D01*
X90981539Y-128278015D02*
X92381715Y-128653191D01*
X89640642Y-133555514D02*
X93581058Y-131280514D01*
X90980002Y-139075352D02*
X94227597Y-137200352D01*
X89708592Y-137673205D02*
X93692309Y-135373205D01*
X88463848Y-131117245D02*
X92447564Y-128817245D01*
X88674969Y-129782918D02*
X91186443Y-128332918D01*
X89183592Y-136763878D02*
X93167309Y-134463878D01*
X88565162Y-130192726D02*
X91596250Y-128442726D01*
X90981539Y-128278015D02*
X88729873Y-129578015D01*
X89258592Y-136893782D02*
X93242309Y-134593782D01*
X89108592Y-136633975D02*
X93092309Y-134333975D01*
X89582630Y-134455033D02*
X93436443Y-132230033D01*
X88763848Y-131636860D02*
X92747564Y-129336860D01*
X90545194Y-138922243D02*
X94355706Y-136722243D01*
X89408592Y-137153590D02*
X93392309Y-134853590D01*
X88863495Y-135909456D02*
X92803911Y-133634456D01*
X89404521Y-134846539D02*
X92998526Y-132771539D01*
X89288848Y-132546187D02*
X93272564Y-130246187D01*
X88838848Y-131766764D02*
X92822564Y-129466764D01*
X90008592Y-138192820D02*
X93992309Y-135892820D01*
X89342197Y-132688591D02*
X88354697Y-130978191D01*
X89783592Y-137803109D02*
X93767309Y-135503109D01*
X90308592Y-138712436D02*
X94249007Y-136437436D01*
X89649136Y-134070225D02*
X93459648Y-131870225D01*
X89121508Y-135356347D02*
X92758815Y-133256347D01*
X89363848Y-132676091D02*
X93347564Y-130376091D01*
X89672341Y-133710417D02*
X93526154Y-131485417D01*
X89483592Y-137283494D02*
X93467309Y-134983494D01*
X89470546Y-132960898D02*
X93497564Y-130635898D01*
X88443751Y-130782437D02*
X92210962Y-128607437D01*
X89527726Y-134659936D02*
X93381539Y-132434936D01*
X88388848Y-130987341D02*
X92372564Y-128687341D01*
X89558592Y-137413397D02*
X93542309Y-135113397D01*
X89114740Y-135288432D02*
G75*
G03*
X89342197Y-132688591I-1742751J1462341D01*
G01*
X93897934Y-137679358D02*
G75*
G03*
X94263959Y-136313333I-499999J866025D01*
G01*
X90236941Y-138638333D02*
G75*
G03*
X91602966Y-139004358I866025J499999D01*
G01*
X93406539Y-132478238D02*
G75*
G03*
X92976459Y-134083318I587500J-1017580D01*
G01*
X89114738Y-135288430D02*
G75*
G03*
X88937491Y-136385201I644861J-666923D01*
G01*
G36*
X101824175Y-135528012D02*
G01*
X100944294Y-136036012D01*
X100440294Y-135163058D01*
X101824175Y-135528012D01*
G37*
D13*
X101824175Y-135528012D02*
X100944294Y-136036012D01*
X100440294Y-135163058D01*
X101824175Y-135528012D01*
D12*
X96629408Y-73270000D02*
X96629408Y-75930000D01*
X94029408Y-73270000D02*
X94029408Y-74600000D01*
X96629408Y-75930000D02*
X106849408Y-75930000D01*
X95359408Y-73270000D02*
X94029408Y-73270000D01*
X106849408Y-73270000D02*
X106849408Y-75930000D01*
X96629408Y-73270000D02*
X106849408Y-73270000D01*
X99602200Y-107150000D02*
X98602200Y-107150000D01*
X99102200Y-106650000D02*
X99102200Y-107650000D01*
D10*
X117390224Y-136117253D02*
X116316125Y-132108661D01*
X120205279Y-136191182D02*
X119014711Y-131747923D01*
X117525640Y-136236260D02*
X116438600Y-132179372D01*
X114564767Y-135424945D02*
X113374199Y-130981687D01*
X121656706Y-135232872D02*
X120737899Y-131803835D01*
X121206560Y-135871126D02*
X120041875Y-131524460D01*
X113840322Y-135619060D02*
X112649755Y-131175801D01*
X119046168Y-136501765D02*
X117855600Y-132058506D01*
X115920530Y-135268725D02*
X114742904Y-130873762D01*
X111169907Y-132607601D02*
X111894692Y-131352238D01*
X114274989Y-135502591D02*
X113084421Y-131059332D01*
X120929723Y-135997068D02*
X119739156Y-131553809D01*
X121074612Y-135958245D02*
X119896986Y-131563283D01*
X115302152Y-135279127D02*
X114098643Y-130787572D01*
X112761395Y-135649338D02*
X111700237Y-131689042D01*
X121528226Y-135526117D02*
X120505891Y-131710710D01*
X117106452Y-135830943D02*
X116032353Y-131822351D01*
X116774384Y-135557574D02*
X115622639Y-131259204D01*
D12*
X121242108Y-124992236D02*
X120814797Y-123397493D01*
D10*
X119915501Y-136268828D02*
X118724934Y-131825569D01*
X120350168Y-136152359D02*
X119159600Y-131709101D01*
X113695433Y-135657883D02*
X112504866Y-131214624D01*
D12*
X119542695Y-120581795D02*
X112008474Y-122600583D01*
D10*
X120060390Y-136230005D02*
X118869823Y-131786746D01*
X115144322Y-135269654D02*
X113966695Y-130874691D01*
X114854544Y-135347300D02*
X113663977Y-130904041D01*
X116419902Y-135393738D02*
X115281098Y-131143664D01*
X117686937Y-136451860D02*
X116548133Y-132201786D01*
X118611501Y-136618234D02*
X117433875Y-132223271D01*
X113985211Y-135580237D02*
X112794643Y-131136978D01*
X117822352Y-136570867D02*
X116657667Y-132224200D01*
X112577684Y-135543272D02*
X111594171Y-131872754D01*
X112026548Y-135225074D02*
X111275973Y-132423889D01*
X118901279Y-136540588D02*
X117710712Y-132097329D01*
X119191057Y-136462942D02*
X118000489Y-132019683D01*
X118756390Y-136579411D02*
X117565823Y-132136152D01*
X111169907Y-132607601D02*
X111842837Y-135119008D01*
X119480835Y-136385297D02*
X118290267Y-131942038D01*
X115005904Y-135332625D02*
X113098200Y-135843793D01*
X119770612Y-136307651D02*
X118580045Y-131864392D01*
X114709655Y-135386123D02*
X113519088Y-130942864D01*
X121338508Y-135784007D02*
X120199704Y-131533933D01*
X116590672Y-135451507D02*
X115451869Y-131201434D01*
X118163894Y-136686406D02*
X116986267Y-132291443D01*
X120984490Y-136008275D02*
X118473083Y-136681205D01*
X116249131Y-135335968D02*
X115097386Y-131037598D01*
X119625724Y-136346474D02*
X118435156Y-131903215D01*
X115591930Y-135201482D02*
X114401362Y-130758223D01*
X119780982Y-131516720D02*
X117293723Y-132183179D01*
X116078360Y-135278198D02*
X114926615Y-130979828D01*
X114357802Y-130692249D02*
X115854647Y-131352329D01*
X120639946Y-136074714D02*
X119449378Y-131631455D01*
X115447041Y-135240305D02*
X114243532Y-130748749D01*
X119335946Y-136424119D02*
X118145378Y-131980861D01*
X114357802Y-130692249D02*
X111894692Y-131352238D01*
X120495057Y-136113537D02*
X119304489Y-131670278D01*
X118321724Y-136695879D02*
X117131156Y-132252621D01*
X112197319Y-135282844D02*
X111382039Y-132240178D01*
X117241868Y-135949950D02*
X116167769Y-131941358D01*
X111842837Y-135119008D02*
X113098200Y-135843793D01*
X114419878Y-135463768D02*
X113229310Y-131020509D01*
X114130100Y-135541414D02*
X112939532Y-131098155D01*
D12*
X113224923Y-127140435D02*
X121242108Y-124992236D01*
D10*
X113260767Y-135774351D02*
X112070199Y-131331092D01*
X118466613Y-136657057D02*
X117276045Y-132213798D01*
X113115878Y-135813174D02*
X111925310Y-131369915D01*
X112932166Y-135707108D02*
X111806303Y-131505331D01*
X114999433Y-135308477D02*
X113808866Y-130865218D01*
X113405656Y-135735528D02*
X112215088Y-131292269D01*
X112393972Y-135437206D02*
X111488105Y-132056466D01*
X113550544Y-135696705D02*
X112359977Y-131253447D01*
X117993123Y-136628636D02*
X116815496Y-132233674D01*
X116958096Y-135663640D02*
X115806351Y-131365270D01*
X121005727Y-132223827D02*
X121691597Y-134783530D01*
X120784835Y-136035891D02*
X119594267Y-131592632D01*
X121598936Y-135403642D02*
X120628365Y-131781421D01*
X115749759Y-135210955D02*
X114572133Y-130815993D01*
X121457515Y-135648591D02*
X120370475Y-131591703D01*
X115854647Y-131352329D02*
G75*
G03*
X117293723Y-132183179I1134963J304113D01*
G01*
X121005726Y-132223827D02*
G75*
G03*
X119780982Y-131516720I-965925J-258818D01*
G01*
X120984490Y-136008275D02*
G75*
G03*
X121691597Y-134783530I-258818J965925D01*
G01*
X117458288Y-136225220D02*
G75*
G03*
X115005904Y-135332625I-1863571J-1304886D01*
G01*
X117458285Y-136225222D02*
G75*
G03*
X118471809Y-136680294I811100J450276D01*
G01*
G36*
X121242108Y-124992236D02*
G01*
X120268454Y-125253126D01*
X120979148Y-124010856D01*
X121242108Y-124992236D01*
G37*
D13*
X121242108Y-124992236D02*
X120268454Y-125253126D01*
X120979148Y-124010856D01*
X121242108Y-124992236D01*
D10*
X212850000Y-77900000D02*
X212850000Y-73500000D01*
X208500000Y-76450000D02*
X209525000Y-77475000D01*
X217750000Y-79350000D02*
X217750000Y-75400000D01*
X217650000Y-79450000D02*
X217650000Y-75250000D01*
X217100000Y-79675000D02*
X214500000Y-79675000D01*
X208650000Y-76600000D02*
X208650000Y-73700000D01*
X214650000Y-79650000D02*
X214650000Y-75100000D01*
X213600000Y-78850000D02*
X213600000Y-74700000D01*
D12*
X219700000Y-64401000D02*
X211900000Y-64401000D01*
D10*
X209250000Y-77200000D02*
X209250000Y-73100000D01*
X217100000Y-75025000D02*
X214525000Y-75025000D01*
X210900000Y-77450000D02*
X210900000Y-72850000D01*
X216300000Y-79650000D02*
X216300000Y-75050000D01*
X214500000Y-79650000D02*
X214500000Y-75050000D01*
X212250000Y-77550000D02*
X212250000Y-73000000D01*
X211800000Y-77500000D02*
X211800000Y-72850000D01*
X215700000Y-79650000D02*
X215700000Y-75050000D01*
X213700000Y-79000000D02*
X213700000Y-74800000D01*
X210750000Y-77450000D02*
X210750000Y-72850000D01*
X213000000Y-78000000D02*
X213000000Y-73600000D01*
X217050000Y-79650000D02*
X217050000Y-75050000D01*
X216750000Y-79650000D02*
X216750000Y-75050000D01*
X214050000Y-79500000D02*
X214050000Y-74950000D01*
X212700000Y-77800000D02*
X212700000Y-73350000D01*
X217350000Y-79600000D02*
X217350000Y-75100000D01*
X217850000Y-79250000D02*
X217850000Y-75500000D01*
X217950000Y-79100000D02*
X217950000Y-75550000D01*
X216150000Y-79650000D02*
X216150000Y-75050000D01*
X212075000Y-72825000D02*
X213350000Y-73850000D01*
X217200000Y-79650000D02*
X217200000Y-75100000D01*
X211500000Y-77450000D02*
X211500000Y-72850000D01*
X213800000Y-79250000D02*
X213800000Y-74850000D01*
X211350000Y-77450000D02*
X211350000Y-72850000D01*
X213500000Y-78650000D02*
X213500000Y-74500000D01*
X216900000Y-79650000D02*
X216900000Y-75050000D01*
X209100000Y-77050000D02*
X209100000Y-73250000D01*
X214350000Y-79650000D02*
X214350000Y-75050000D01*
X213150000Y-78150000D02*
X213150000Y-73700000D01*
X212550000Y-77700000D02*
X212550000Y-73250000D01*
X217500000Y-79550000D02*
X217500000Y-75150000D01*
X215250000Y-79650000D02*
X215250000Y-75050000D01*
X211650000Y-77450000D02*
X211650000Y-72900000D01*
X213400000Y-78500000D02*
X213400000Y-74350000D01*
D12*
X220200000Y-69101000D02*
X220200000Y-67450000D01*
D10*
X211500000Y-77475000D02*
X209525000Y-77475000D01*
X213900000Y-79400000D02*
X213900000Y-74900000D01*
X209400000Y-77300000D02*
X209400000Y-72950000D01*
X215550000Y-79650000D02*
X215550000Y-75050000D01*
X209550000Y-77450000D02*
X209550000Y-72850000D01*
X215400000Y-79650000D02*
X215400000Y-75050000D01*
X208500000Y-73850000D02*
X208500000Y-76450000D01*
X212100000Y-77500000D02*
X212100000Y-72900000D01*
X216000000Y-79650000D02*
X216000000Y-75050000D01*
X216600000Y-79650000D02*
X216600000Y-75050000D01*
X214950000Y-79650000D02*
X214950000Y-75050000D01*
X208950000Y-76900000D02*
X208950000Y-73400000D01*
X212075000Y-72825000D02*
X209525000Y-72825000D01*
X210150000Y-77450000D02*
X210150000Y-72850000D01*
X211050000Y-77450000D02*
X211050000Y-72850000D01*
X208500000Y-73850000D02*
X209525000Y-72825000D01*
X209700000Y-77450000D02*
X209700000Y-72850000D01*
X212400000Y-77650000D02*
X212400000Y-73100000D01*
X214800000Y-79650000D02*
X214800000Y-75050000D01*
X213300000Y-78300000D02*
X213300000Y-73850000D01*
X210450000Y-77450000D02*
X210450000Y-72850000D01*
X216450000Y-79650000D02*
X216450000Y-75050000D01*
X211950000Y-77500000D02*
X211950000Y-72850000D01*
X215100000Y-79650000D02*
X215100000Y-75050000D01*
X211200000Y-77450000D02*
X211200000Y-72850000D01*
X214200000Y-79600000D02*
X214200000Y-75050000D01*
X218100000Y-76025000D02*
X218100000Y-78675000D01*
X209850000Y-77450000D02*
X209850000Y-72850000D01*
X210600000Y-77450000D02*
X210600000Y-72850000D01*
X210300000Y-77450000D02*
X210300000Y-72850000D01*
X210000000Y-77450000D02*
X210000000Y-72850000D01*
X215850000Y-79650000D02*
X215850000Y-75050000D01*
X208800000Y-76700000D02*
X208800000Y-73550000D01*
D12*
X211900000Y-69101000D02*
X220200000Y-69101000D01*
D10*
X213637801Y-78971904D02*
G75*
G03*
X211500000Y-77475000I-2137801J-778096D01*
G01*
X213637797Y-78971905D02*
G75*
G03*
X214499005Y-79673791I900003J225005D01*
G01*
X217100000Y-79675000D02*
G75*
G03*
X218100000Y-78675000I1J999999D01*
G01*
X218100000Y-76025000D02*
G75*
G03*
X217100000Y-75025000I-999999J1D01*
G01*
X213350000Y-73850000D02*
G75*
G03*
X214525000Y-75025000I1175000J0D01*
G01*
G36*
X220200000Y-69101000D02*
G01*
X219192000Y-69101000D01*
X220200000Y-68085000D01*
X220200000Y-69101000D01*
G37*
D13*
X220200000Y-69101000D02*
X219192000Y-69101000D01*
X220200000Y-68085000D01*
X220200000Y-69101000D01*
D10*
X211800000Y-96550000D02*
X211800000Y-91900000D01*
X217750000Y-98400000D02*
X217750000Y-94450000D01*
X215400000Y-98700000D02*
X215400000Y-94100000D01*
X212700000Y-96850000D02*
X212700000Y-92400000D01*
X212075000Y-91875000D02*
X209525000Y-91875000D01*
X214950000Y-98700000D02*
X214950000Y-94100000D01*
X217500000Y-98600000D02*
X217500000Y-94200000D01*
X213900000Y-98450000D02*
X213900000Y-93950000D01*
X211200000Y-96500000D02*
X211200000Y-91900000D01*
X211650000Y-96500000D02*
X211650000Y-91950000D01*
D12*
X220200000Y-88151000D02*
X220200000Y-86500000D01*
D10*
X216150000Y-98700000D02*
X216150000Y-94100000D01*
X215850000Y-98700000D02*
X215850000Y-94100000D01*
X211500000Y-96500000D02*
X211500000Y-91900000D01*
X213400000Y-97550000D02*
X213400000Y-93400000D01*
X213700000Y-98050000D02*
X213700000Y-93850000D01*
X217100000Y-98725000D02*
X214500000Y-98725000D01*
X209850000Y-96500000D02*
X209850000Y-91900000D01*
X210750000Y-96500000D02*
X210750000Y-91900000D01*
X215550000Y-98700000D02*
X215550000Y-94100000D01*
X209250000Y-96250000D02*
X209250000Y-92150000D01*
X212100000Y-96550000D02*
X212100000Y-91950000D01*
X216750000Y-98700000D02*
X216750000Y-94100000D01*
X210600000Y-96500000D02*
X210600000Y-91900000D01*
X213300000Y-97350000D02*
X213300000Y-92900000D01*
X214050000Y-98550000D02*
X214050000Y-94000000D01*
X209400000Y-96350000D02*
X209400000Y-92000000D01*
D12*
X211900000Y-88151000D02*
X220200000Y-88151000D01*
D10*
X213800000Y-98300000D02*
X213800000Y-93900000D01*
X212850000Y-96950000D02*
X212850000Y-92550000D01*
X216450000Y-98700000D02*
X216450000Y-94100000D01*
X212075000Y-91875000D02*
X213350000Y-92900000D01*
X214200000Y-98650000D02*
X214200000Y-94100000D01*
X214500000Y-98700000D02*
X214500000Y-94100000D01*
X211500000Y-96525000D02*
X209525000Y-96525000D01*
X216900000Y-98700000D02*
X216900000Y-94100000D01*
X210900000Y-96500000D02*
X210900000Y-91900000D01*
X214650000Y-98700000D02*
X214650000Y-94150000D01*
X208950000Y-95950000D02*
X208950000Y-92450000D01*
X208500000Y-92900000D02*
X209525000Y-91875000D01*
X209100000Y-96100000D02*
X209100000Y-92300000D01*
X212550000Y-96750000D02*
X212550000Y-92300000D01*
D12*
X219700000Y-83451000D02*
X211900000Y-83451000D01*
D10*
X211950000Y-96550000D02*
X211950000Y-91900000D01*
X214350000Y-98700000D02*
X214350000Y-94100000D01*
X208650000Y-95650000D02*
X208650000Y-92750000D01*
X217100000Y-94075000D02*
X214525000Y-94075000D01*
X213150000Y-97200000D02*
X213150000Y-92750000D01*
X217950000Y-98150000D02*
X217950000Y-94600000D01*
X208500000Y-92900000D02*
X208500000Y-95500000D01*
X215700000Y-98700000D02*
X215700000Y-94100000D01*
X210300000Y-96500000D02*
X210300000Y-91900000D01*
X210000000Y-96500000D02*
X210000000Y-91900000D01*
X216300000Y-98700000D02*
X216300000Y-94100000D01*
X213000000Y-97050000D02*
X213000000Y-92650000D01*
X208800000Y-95750000D02*
X208800000Y-92600000D01*
X214800000Y-98700000D02*
X214800000Y-94100000D01*
X217200000Y-98700000D02*
X217200000Y-94150000D01*
X209550000Y-96500000D02*
X209550000Y-91900000D01*
X213500000Y-97700000D02*
X213500000Y-93550000D01*
X217350000Y-98650000D02*
X217350000Y-94150000D01*
X210450000Y-96500000D02*
X210450000Y-91900000D01*
X218100000Y-95075000D02*
X218100000Y-97725000D01*
X217650000Y-98500000D02*
X217650000Y-94300000D01*
X216000000Y-98700000D02*
X216000000Y-94100000D01*
X212400000Y-96700000D02*
X212400000Y-92150000D01*
X215100000Y-98700000D02*
X215100000Y-94100000D01*
X211350000Y-96500000D02*
X211350000Y-91900000D01*
X215250000Y-98700000D02*
X215250000Y-94100000D01*
X217050000Y-98700000D02*
X217050000Y-94100000D01*
X211050000Y-96500000D02*
X211050000Y-91900000D01*
X212250000Y-96600000D02*
X212250000Y-92050000D01*
X216600000Y-98700000D02*
X216600000Y-94100000D01*
X210150000Y-96500000D02*
X210150000Y-91900000D01*
X213600000Y-97900000D02*
X213600000Y-93750000D01*
X208500000Y-95500000D02*
X209525000Y-96525000D01*
X209700000Y-96500000D02*
X209700000Y-91900000D01*
X217850000Y-98300000D02*
X217850000Y-94550000D01*
X217100000Y-98725000D02*
G75*
G03*
X218100000Y-97725000I1J999999D01*
G01*
X213637801Y-98021904D02*
G75*
G03*
X211500000Y-96525000I-2137801J-778096D01*
G01*
X213350000Y-92900000D02*
G75*
G03*
X214525000Y-94075000I1175000J0D01*
G01*
X213637797Y-98021905D02*
G75*
G03*
X214499005Y-98723791I900003J225005D01*
G01*
X218100000Y-95075000D02*
G75*
G03*
X217100000Y-94075000I-999999J1D01*
G01*
G36*
X220200000Y-88151000D02*
G01*
X219192000Y-88151000D01*
X220200000Y-87135000D01*
X220200000Y-88151000D01*
G37*
D13*
X220200000Y-88151000D02*
X219192000Y-88151000D01*
X220200000Y-87135000D01*
X220200000Y-88151000D01*
D10*
X217850000Y-117350000D02*
X217850000Y-113600000D01*
X210600000Y-115550000D02*
X210600000Y-110950000D01*
X211500000Y-115550000D02*
X211500000Y-110950000D01*
X217750000Y-117450000D02*
X217750000Y-113500000D01*
X210750000Y-115550000D02*
X210750000Y-110950000D01*
X212075000Y-110925000D02*
X209525000Y-110925000D01*
X212250000Y-115650000D02*
X212250000Y-111100000D01*
X208800000Y-114800000D02*
X208800000Y-111650000D01*
X213300000Y-116400000D02*
X213300000Y-111950000D01*
X211950000Y-115600000D02*
X211950000Y-110950000D01*
X216000000Y-117750000D02*
X216000000Y-113150000D01*
X211500000Y-115575000D02*
X209525000Y-115575000D01*
X209250000Y-115300000D02*
X209250000Y-111200000D01*
X213800000Y-117350000D02*
X213800000Y-112950000D01*
X208500000Y-111950000D02*
X208500000Y-114550000D01*
X212700000Y-115900000D02*
X212700000Y-111450000D01*
X213600000Y-116950000D02*
X213600000Y-112800000D01*
X213900000Y-117500000D02*
X213900000Y-113000000D01*
X211350000Y-115550000D02*
X211350000Y-110950000D01*
X216750000Y-117750000D02*
X216750000Y-113150000D01*
X215250000Y-117750000D02*
X215250000Y-113150000D01*
X210150000Y-115550000D02*
X210150000Y-110950000D01*
X214200000Y-117700000D02*
X214200000Y-113150000D01*
D12*
X211900000Y-107201000D02*
X220200000Y-107201000D01*
D10*
X211800000Y-115600000D02*
X211800000Y-110950000D01*
X217950000Y-117200000D02*
X217950000Y-113650000D01*
X217050000Y-117750000D02*
X217050000Y-113150000D01*
X212400000Y-115750000D02*
X212400000Y-111200000D01*
X214950000Y-117750000D02*
X214950000Y-113150000D01*
X209850000Y-115550000D02*
X209850000Y-110950000D01*
X212075000Y-110925000D02*
X213350000Y-111950000D01*
X216600000Y-117750000D02*
X216600000Y-113150000D01*
X216450000Y-117750000D02*
X216450000Y-113150000D01*
X210300000Y-115550000D02*
X210300000Y-110950000D01*
X218100000Y-114125000D02*
X218100000Y-116775000D01*
X211650000Y-115550000D02*
X211650000Y-111000000D01*
X212100000Y-115600000D02*
X212100000Y-111000000D01*
X210450000Y-115550000D02*
X210450000Y-110950000D01*
X209400000Y-115400000D02*
X209400000Y-111050000D01*
X210000000Y-115550000D02*
X210000000Y-110950000D01*
X213400000Y-116600000D02*
X213400000Y-112450000D01*
X213000000Y-116100000D02*
X213000000Y-111700000D01*
X209100000Y-115150000D02*
X209100000Y-111350000D01*
X215550000Y-117750000D02*
X215550000Y-113150000D01*
X217100000Y-113125000D02*
X214525000Y-113125000D01*
X217500000Y-117650000D02*
X217500000Y-113250000D01*
X215100000Y-117750000D02*
X215100000Y-113150000D01*
X213150000Y-116250000D02*
X213150000Y-111800000D01*
X213500000Y-116750000D02*
X213500000Y-112600000D01*
X216150000Y-117750000D02*
X216150000Y-113150000D01*
X209550000Y-115550000D02*
X209550000Y-110950000D01*
X212550000Y-115800000D02*
X212550000Y-111350000D01*
X215850000Y-117750000D02*
X215850000Y-113150000D01*
X214800000Y-117750000D02*
X214800000Y-113150000D01*
X215700000Y-117750000D02*
X215700000Y-113150000D01*
X214650000Y-117750000D02*
X214650000Y-113200000D01*
X215400000Y-117750000D02*
X215400000Y-113150000D01*
X217200000Y-117750000D02*
X217200000Y-113200000D01*
X214350000Y-117750000D02*
X214350000Y-113150000D01*
X216300000Y-117750000D02*
X216300000Y-113150000D01*
X216900000Y-117750000D02*
X216900000Y-113150000D01*
D12*
X220200000Y-107201000D02*
X220200000Y-105550000D01*
D10*
X211050000Y-115550000D02*
X211050000Y-110950000D01*
X214050000Y-117600000D02*
X214050000Y-113050000D01*
X208650000Y-114700000D02*
X208650000Y-111800000D01*
X208500000Y-114550000D02*
X209525000Y-115575000D01*
X208500000Y-111950000D02*
X209525000Y-110925000D01*
X214500000Y-117750000D02*
X214500000Y-113150000D01*
X212850000Y-116000000D02*
X212850000Y-111600000D01*
X217100000Y-117775000D02*
X214500000Y-117775000D01*
X217650000Y-117550000D02*
X217650000Y-113350000D01*
X211200000Y-115550000D02*
X211200000Y-110950000D01*
X209700000Y-115550000D02*
X209700000Y-110950000D01*
D12*
X219700000Y-102501000D02*
X211900000Y-102501000D01*
D10*
X210900000Y-115550000D02*
X210900000Y-110950000D01*
X208950000Y-115000000D02*
X208950000Y-111500000D01*
X217350000Y-117700000D02*
X217350000Y-113200000D01*
X213700000Y-117100000D02*
X213700000Y-112900000D01*
X217100000Y-117775000D02*
G75*
G03*
X218100000Y-116775000I1J999999D01*
G01*
X213350000Y-111950000D02*
G75*
G03*
X214525000Y-113125000I1175000J0D01*
G01*
X213637801Y-117071904D02*
G75*
G03*
X211500000Y-115575000I-2137801J-778096D01*
G01*
X218100000Y-114125000D02*
G75*
G03*
X217100000Y-113125000I-999999J1D01*
G01*
X213637797Y-117071905D02*
G75*
G03*
X214499005Y-117773791I900003J225005D01*
G01*
G36*
X220200000Y-107201000D02*
G01*
X219192000Y-107201000D01*
X220200000Y-106185000D01*
X220200000Y-107201000D01*
G37*
D13*
X220200000Y-107201000D02*
X219192000Y-107201000D01*
X220200000Y-106185000D01*
X220200000Y-107201000D01*
D10*
X178650000Y-55700000D02*
X178650000Y-51100000D01*
X178800000Y-55700000D02*
X178800000Y-51100000D01*
X179100000Y-55700000D02*
X179100000Y-51150000D01*
X177900000Y-55700000D02*
X177900000Y-51100000D01*
X179000000Y-55725000D02*
X176400000Y-55725000D01*
X174450000Y-53750000D02*
X174450000Y-49300000D01*
X171300000Y-53350000D02*
X171300000Y-49000000D01*
X179750000Y-55300000D02*
X179750000Y-51550000D01*
X174600000Y-53850000D02*
X174600000Y-49400000D01*
X171600000Y-53500000D02*
X171600000Y-48900000D01*
X177750000Y-55700000D02*
X177750000Y-51100000D01*
X176250000Y-55700000D02*
X176250000Y-51100000D01*
X175800000Y-55450000D02*
X175800000Y-50950000D01*
X179550000Y-55500000D02*
X179550000Y-51300000D01*
X178350000Y-55700000D02*
X178350000Y-51100000D01*
X170700000Y-52750000D02*
X170700000Y-49600000D01*
X176850000Y-55700000D02*
X176850000Y-51100000D01*
X172050000Y-53500000D02*
X172050000Y-48900000D01*
X172500000Y-53500000D02*
X172500000Y-48900000D01*
X173250000Y-53500000D02*
X173250000Y-48900000D01*
X171150000Y-53250000D02*
X171150000Y-49150000D01*
X171750000Y-53500000D02*
X171750000Y-48900000D01*
X175200000Y-54350000D02*
X175200000Y-49900000D01*
X175700000Y-55300000D02*
X175700000Y-50900000D01*
X175050000Y-54200000D02*
X175050000Y-49750000D01*
X174750000Y-53950000D02*
X174750000Y-49550000D01*
X172950000Y-53500000D02*
X172950000Y-48900000D01*
X176550000Y-55700000D02*
X176550000Y-51150000D01*
X175600000Y-55050000D02*
X175600000Y-50850000D01*
X176700000Y-55700000D02*
X176700000Y-51100000D01*
X176100000Y-55650000D02*
X176100000Y-51100000D01*
X171900000Y-53500000D02*
X171900000Y-48900000D01*
X180000000Y-52075000D02*
X180000000Y-54725000D01*
X176400000Y-55700000D02*
X176400000Y-51100000D01*
X177000000Y-55700000D02*
X177000000Y-51100000D01*
X170400000Y-49900000D02*
X171425000Y-48875000D01*
X173400000Y-53500000D02*
X173400000Y-48900000D01*
X179400000Y-55600000D02*
X179400000Y-51200000D01*
X173975000Y-48875000D02*
X175250000Y-49900000D01*
X178500000Y-55700000D02*
X178500000Y-51100000D01*
X179850000Y-55150000D02*
X179850000Y-51600000D01*
X174300000Y-53700000D02*
X174300000Y-49150000D01*
X175300000Y-54550000D02*
X175300000Y-50400000D01*
X171000000Y-53100000D02*
X171000000Y-49300000D01*
X173700000Y-53550000D02*
X173700000Y-48900000D01*
X173975000Y-48875000D02*
X171425000Y-48875000D01*
X172650000Y-53500000D02*
X172650000Y-48900000D01*
X170850000Y-52950000D02*
X170850000Y-49450000D01*
D12*
X173800000Y-45151000D02*
X182100000Y-45151000D01*
D10*
X175950000Y-55550000D02*
X175950000Y-51000000D01*
X170400000Y-49900000D02*
X170400000Y-52500000D01*
X174150000Y-53600000D02*
X174150000Y-49050000D01*
X177300000Y-55700000D02*
X177300000Y-51100000D01*
X173400000Y-53525000D02*
X171425000Y-53525000D01*
X177600000Y-55700000D02*
X177600000Y-51100000D01*
X177150000Y-55700000D02*
X177150000Y-51100000D01*
X173550000Y-53500000D02*
X173550000Y-48950000D01*
X174900000Y-54050000D02*
X174900000Y-49650000D01*
D12*
X181600000Y-40451000D02*
X173800000Y-40451000D01*
D10*
X177450000Y-55700000D02*
X177450000Y-51100000D01*
X179000000Y-51075000D02*
X176425000Y-51075000D01*
X174000000Y-53550000D02*
X174000000Y-48950000D01*
X171450000Y-53500000D02*
X171450000Y-48900000D01*
X170550000Y-52650000D02*
X170550000Y-49750000D01*
X172200000Y-53500000D02*
X172200000Y-48900000D01*
D12*
X182100000Y-45151000D02*
X182100000Y-43500000D01*
D10*
X178950000Y-55700000D02*
X178950000Y-51100000D01*
X172350000Y-53500000D02*
X172350000Y-48900000D01*
X172800000Y-53500000D02*
X172800000Y-48900000D01*
X173100000Y-53500000D02*
X173100000Y-48900000D01*
X175400000Y-54700000D02*
X175400000Y-50550000D01*
X178050000Y-55700000D02*
X178050000Y-51100000D01*
X173850000Y-53550000D02*
X173850000Y-48900000D01*
X175500000Y-54900000D02*
X175500000Y-50750000D01*
X170400000Y-52500000D02*
X171425000Y-53525000D01*
X179650000Y-55400000D02*
X179650000Y-51450000D01*
X179250000Y-55650000D02*
X179250000Y-51150000D01*
X178200000Y-55700000D02*
X178200000Y-51100000D01*
X175537797Y-55021905D02*
G75*
G03*
X176399005Y-55723791I900003J225005D01*
G01*
X179000000Y-55725000D02*
G75*
G03*
X180000000Y-54725000I1J999999D01*
G01*
X180000000Y-52075000D02*
G75*
G03*
X179000000Y-51075000I-999999J1D01*
G01*
X175537801Y-55021904D02*
G75*
G03*
X173400000Y-53525000I-2137801J-778096D01*
G01*
X175250000Y-49900000D02*
G75*
G03*
X176425000Y-51075000I1175000J0D01*
G01*
G36*
X182100000Y-45151000D02*
G01*
X181092000Y-45151000D01*
X182100000Y-44135000D01*
X182100000Y-45151000D01*
G37*
D13*
X182100000Y-45151000D02*
X181092000Y-45151000D01*
X182100000Y-44135000D01*
X182100000Y-45151000D01*
D10*
X129205000Y-65830000D02*
X128205000Y-65830000D01*
X128705000Y-64930000D02*
X129205000Y-65830000D01*
X127955000Y-68030000D02*
X129455000Y-68030000D01*
X129455000Y-62630000D02*
X127955000Y-62630000D01*
X128205000Y-65830000D02*
X128705000Y-64930000D01*
X129205000Y-64830000D02*
X128205000Y-64830000D01*
X127955000Y-62630000D02*
X127955000Y-68030000D01*
X129455000Y-68030000D02*
X129455000Y-62630000D01*
X131745000Y-64830000D02*
X130745000Y-64830000D01*
X131745000Y-65830000D02*
X130745000Y-65830000D01*
X131245000Y-64930000D02*
X131745000Y-65830000D01*
X131995000Y-62630000D02*
X130495000Y-62630000D01*
X131995000Y-68030000D02*
X131995000Y-62630000D01*
X130495000Y-68030000D02*
X131995000Y-68030000D01*
X130745000Y-65830000D02*
X131245000Y-64930000D01*
X130495000Y-62630000D02*
X130495000Y-68030000D01*
X151095000Y-65520000D02*
X151095000Y-60120000D01*
X149595000Y-60120000D02*
X149595000Y-65520000D01*
X149845000Y-63320000D02*
X150345000Y-62420000D01*
X149595000Y-65520000D02*
X151095000Y-65520000D01*
X150345000Y-62420000D02*
X150845000Y-63320000D01*
X151095000Y-60120000D02*
X149595000Y-60120000D01*
X150845000Y-63320000D02*
X149845000Y-63320000D01*
X150845000Y-62320000D02*
X149845000Y-62320000D01*
X170095000Y-62530000D02*
X168595000Y-62530000D01*
X168595000Y-67930000D02*
X170095000Y-67930000D01*
X168845000Y-65730000D02*
X169345000Y-64830000D01*
X169345000Y-64830000D02*
X169845000Y-65730000D01*
X169845000Y-64730000D02*
X168845000Y-64730000D01*
X170095000Y-67930000D02*
X170095000Y-62530000D01*
X168595000Y-62530000D02*
X168595000Y-67930000D01*
X169845000Y-65730000D02*
X168845000Y-65730000D01*
X189189120Y-69402640D02*
X189189120Y-64002640D01*
X187689120Y-64002640D02*
X187689120Y-69402640D01*
X189189120Y-64002640D02*
X187689120Y-64002640D01*
X187689120Y-69402640D02*
X189189120Y-69402640D01*
X188439120Y-66302640D02*
X188939120Y-67202640D01*
X188939120Y-66202640D02*
X187939120Y-66202640D01*
X188939120Y-67202640D02*
X187939120Y-67202640D01*
X187939120Y-67202640D02*
X188439120Y-66302640D01*
X208195000Y-67330000D02*
X206695000Y-67330000D01*
X206945000Y-70530000D02*
X207445000Y-69630000D01*
X208195000Y-72730000D02*
X208195000Y-67330000D01*
X206695000Y-72730000D02*
X208195000Y-72730000D01*
X207945000Y-70530000D02*
X206945000Y-70530000D01*
X206695000Y-67330000D02*
X206695000Y-72730000D01*
X207445000Y-69630000D02*
X207945000Y-70530000D01*
X207945000Y-69530000D02*
X206945000Y-69530000D01*
X196050000Y-60600000D02*
X196050000Y-56000000D01*
X195750000Y-60600000D02*
X195750000Y-56000000D01*
X194350000Y-59450000D02*
X194350000Y-55300000D01*
X197400000Y-60600000D02*
X197400000Y-56000000D01*
X198450000Y-60500000D02*
X198450000Y-56100000D01*
X196200000Y-60600000D02*
X196200000Y-56000000D01*
X191400000Y-58400000D02*
X191400000Y-53800000D01*
X191700000Y-58400000D02*
X191700000Y-53800000D01*
X195450000Y-60600000D02*
X195450000Y-56000000D01*
X193500000Y-58650000D02*
X193500000Y-54200000D01*
X198050000Y-55975000D02*
X195475000Y-55975000D01*
X189750000Y-57650000D02*
X189750000Y-54500000D01*
X190800000Y-58400000D02*
X190800000Y-53800000D01*
X189450000Y-57400000D02*
X190475000Y-58425000D01*
X198600000Y-60400000D02*
X198600000Y-56200000D01*
X192300000Y-58400000D02*
X192300000Y-53800000D01*
X190350000Y-58250000D02*
X190350000Y-53900000D01*
X195150000Y-60550000D02*
X195150000Y-56000000D01*
X198000000Y-60600000D02*
X198000000Y-56000000D01*
X198050000Y-60625000D02*
X195450000Y-60625000D01*
X197250000Y-60600000D02*
X197250000Y-56000000D01*
X193050000Y-58450000D02*
X193050000Y-53850000D01*
X189450000Y-54800000D02*
X190475000Y-53775000D01*
X195300000Y-60600000D02*
X195300000Y-56000000D01*
X198300000Y-60550000D02*
X198300000Y-56050000D01*
D12*
X201150000Y-50051000D02*
X201150000Y-48400000D01*
D10*
X194750000Y-60200000D02*
X194750000Y-55800000D01*
X194550000Y-59800000D02*
X194550000Y-55650000D01*
X198800000Y-60200000D02*
X198800000Y-56450000D01*
X193025000Y-53775000D02*
X194300000Y-54800000D01*
X196800000Y-60600000D02*
X196800000Y-56000000D01*
X196950000Y-60600000D02*
X196950000Y-56000000D01*
X197850000Y-60600000D02*
X197850000Y-56000000D01*
X193200000Y-58500000D02*
X193200000Y-53950000D01*
X194650000Y-59950000D02*
X194650000Y-55750000D01*
X191550000Y-58400000D02*
X191550000Y-53800000D01*
X193025000Y-53775000D02*
X190475000Y-53775000D01*
X192600000Y-58400000D02*
X192600000Y-53850000D01*
X191850000Y-58400000D02*
X191850000Y-53800000D01*
X198150000Y-60600000D02*
X198150000Y-56050000D01*
X193650000Y-58750000D02*
X193650000Y-54300000D01*
X189600000Y-57550000D02*
X189600000Y-54650000D01*
X194450000Y-59600000D02*
X194450000Y-55450000D01*
X196500000Y-60600000D02*
X196500000Y-56000000D01*
X190050000Y-58000000D02*
X190050000Y-54200000D01*
X190950000Y-58400000D02*
X190950000Y-53800000D01*
X193950000Y-58950000D02*
X193950000Y-54550000D01*
X196650000Y-60600000D02*
X196650000Y-56000000D01*
X191250000Y-58400000D02*
X191250000Y-53800000D01*
X193800000Y-58850000D02*
X193800000Y-54450000D01*
X192750000Y-58450000D02*
X192750000Y-53800000D01*
X195900000Y-60600000D02*
X195900000Y-56000000D01*
X197700000Y-60600000D02*
X197700000Y-56000000D01*
X190500000Y-58400000D02*
X190500000Y-53800000D01*
X195000000Y-60450000D02*
X195000000Y-55900000D01*
X192150000Y-58400000D02*
X192150000Y-53800000D01*
X196350000Y-60600000D02*
X196350000Y-56000000D01*
X194850000Y-60350000D02*
X194850000Y-55850000D01*
X194100000Y-59100000D02*
X194100000Y-54650000D01*
X192450000Y-58400000D02*
X192450000Y-53800000D01*
X190650000Y-58400000D02*
X190650000Y-53800000D01*
X192450000Y-58425000D02*
X190475000Y-58425000D01*
X198700000Y-60300000D02*
X198700000Y-56350000D01*
X197100000Y-60600000D02*
X197100000Y-56000000D01*
X194250000Y-59250000D02*
X194250000Y-54800000D01*
D12*
X192850000Y-50051000D02*
X201150000Y-50051000D01*
D10*
X189900000Y-57850000D02*
X189900000Y-54350000D01*
X197550000Y-60600000D02*
X197550000Y-56000000D01*
X192900000Y-58450000D02*
X192900000Y-53800000D01*
X190200000Y-58150000D02*
X190200000Y-54050000D01*
X199050000Y-56975000D02*
X199050000Y-59625000D01*
X192000000Y-58400000D02*
X192000000Y-53800000D01*
X195600000Y-60600000D02*
X195600000Y-56050000D01*
D12*
X200650000Y-45351000D02*
X192850000Y-45351000D01*
D10*
X193350000Y-58600000D02*
X193350000Y-54050000D01*
X189450000Y-54800000D02*
X189450000Y-57400000D01*
X191100000Y-58400000D02*
X191100000Y-53800000D01*
X198900000Y-60050000D02*
X198900000Y-56500000D01*
X194587797Y-59921905D02*
G75*
G03*
X195449005Y-60623791I900003J225005D01*
G01*
X198050000Y-60625000D02*
G75*
G03*
X199050000Y-59625000I1J999999D01*
G01*
X194300000Y-54800000D02*
G75*
G03*
X195475000Y-55975000I1175000J0D01*
G01*
X194587801Y-59921904D02*
G75*
G03*
X192450000Y-58425000I-2137801J-778096D01*
G01*
X199050000Y-56975000D02*
G75*
G03*
X198050000Y-55975000I-999999J1D01*
G01*
G36*
X201150000Y-50051000D02*
G01*
X200142000Y-50051000D01*
X201150000Y-49035000D01*
X201150000Y-50051000D01*
G37*
D13*
X201150000Y-50051000D02*
X200142000Y-50051000D01*
X201150000Y-49035000D01*
X201150000Y-50051000D01*
D10*
X138300000Y-74750000D02*
X138300000Y-70150000D01*
X134400000Y-72550000D02*
X134400000Y-67950000D01*
X135300000Y-72575000D02*
X133325000Y-72575000D01*
X135300000Y-72550000D02*
X135300000Y-67950000D01*
X139050000Y-74750000D02*
X139050000Y-70150000D01*
X134700000Y-72550000D02*
X134700000Y-67950000D01*
X135000000Y-72550000D02*
X135000000Y-67950000D01*
X140900000Y-70125000D02*
X138325000Y-70125000D01*
X133350000Y-72550000D02*
X133350000Y-67950000D01*
X139350000Y-74750000D02*
X139350000Y-70150000D01*
X137500000Y-74100000D02*
X137500000Y-69900000D01*
X138150000Y-74750000D02*
X138150000Y-70150000D01*
X141900000Y-71125000D02*
X141900000Y-73775000D01*
X141450000Y-74550000D02*
X141450000Y-70350000D01*
X136350000Y-72800000D02*
X136350000Y-68350000D01*
X132300000Y-68950000D02*
X132300000Y-71550000D01*
X139950000Y-74750000D02*
X139950000Y-70150000D01*
X141150000Y-74700000D02*
X141150000Y-70200000D01*
X135150000Y-72550000D02*
X135150000Y-67950000D01*
X139200000Y-74750000D02*
X139200000Y-70150000D01*
X137850000Y-74600000D02*
X137850000Y-70050000D01*
X135875000Y-67925000D02*
X133325000Y-67925000D01*
X139650000Y-74750000D02*
X139650000Y-70150000D01*
X138750000Y-74750000D02*
X138750000Y-70150000D01*
X132300000Y-68950000D02*
X133325000Y-67925000D01*
D12*
X135700000Y-64201000D02*
X144000000Y-64201000D01*
D10*
X140250000Y-74750000D02*
X140250000Y-70150000D01*
X134100000Y-72550000D02*
X134100000Y-67950000D01*
X138900000Y-74750000D02*
X138900000Y-70150000D01*
X137300000Y-73750000D02*
X137300000Y-69600000D01*
X140400000Y-74750000D02*
X140400000Y-70150000D01*
X137200000Y-73600000D02*
X137200000Y-69450000D01*
X135600000Y-72600000D02*
X135600000Y-67950000D01*
X134250000Y-72550000D02*
X134250000Y-67950000D01*
X137700000Y-74500000D02*
X137700000Y-70000000D01*
X136950000Y-73250000D02*
X136950000Y-68800000D01*
X138450000Y-74750000D02*
X138450000Y-70200000D01*
X132450000Y-71700000D02*
X132450000Y-68800000D01*
X136050000Y-72650000D02*
X136050000Y-68100000D01*
X139500000Y-74750000D02*
X139500000Y-70150000D01*
X140550000Y-74750000D02*
X140550000Y-70150000D01*
X141000000Y-74750000D02*
X141000000Y-70200000D01*
X134850000Y-72550000D02*
X134850000Y-67950000D01*
X138600000Y-74750000D02*
X138600000Y-70150000D01*
X136800000Y-73100000D02*
X136800000Y-68700000D01*
X135750000Y-72600000D02*
X135750000Y-67950000D01*
X137600000Y-74350000D02*
X137600000Y-69950000D01*
X136650000Y-73000000D02*
X136650000Y-68600000D01*
X139800000Y-74750000D02*
X139800000Y-70150000D01*
X132750000Y-72000000D02*
X132750000Y-68500000D01*
X137400000Y-73950000D02*
X137400000Y-69800000D01*
X141650000Y-74350000D02*
X141650000Y-70600000D01*
X141750000Y-74200000D02*
X141750000Y-70650000D01*
X135450000Y-72550000D02*
X135450000Y-68000000D01*
X134550000Y-72550000D02*
X134550000Y-67950000D01*
X140700000Y-74750000D02*
X140700000Y-70150000D01*
X136500000Y-72900000D02*
X136500000Y-68450000D01*
X133050000Y-72300000D02*
X133050000Y-68200000D01*
D12*
X143500000Y-59501000D02*
X135700000Y-59501000D01*
D10*
X141300000Y-74650000D02*
X141300000Y-70250000D01*
X135875000Y-67925000D02*
X137150000Y-68950000D01*
X135900000Y-72600000D02*
X135900000Y-68000000D01*
X141550000Y-74450000D02*
X141550000Y-70500000D01*
X132300000Y-71550000D02*
X133325000Y-72575000D01*
X136200000Y-72750000D02*
X136200000Y-68200000D01*
X137100000Y-73400000D02*
X137100000Y-68950000D01*
D12*
X144000000Y-64201000D02*
X144000000Y-62550000D01*
D10*
X132900000Y-72150000D02*
X132900000Y-68350000D01*
X133950000Y-72550000D02*
X133950000Y-67950000D01*
X140850000Y-74750000D02*
X140850000Y-70150000D01*
X133500000Y-72550000D02*
X133500000Y-67950000D01*
X132600000Y-71800000D02*
X132600000Y-68650000D01*
X133200000Y-72400000D02*
X133200000Y-68050000D01*
X138000000Y-74700000D02*
X138000000Y-70150000D01*
X133800000Y-72550000D02*
X133800000Y-67950000D01*
X133650000Y-72550000D02*
X133650000Y-67950000D01*
X140100000Y-74750000D02*
X140100000Y-70150000D01*
X140900000Y-74775000D02*
X138300000Y-74775000D01*
X137437797Y-74071905D02*
G75*
G03*
X138299005Y-74773791I900003J225005D01*
G01*
X140900000Y-74775000D02*
G75*
G03*
X141900000Y-73775000I1J999999D01*
G01*
X141900000Y-71125000D02*
G75*
G03*
X140900000Y-70125000I-999999J1D01*
G01*
X137437801Y-74071904D02*
G75*
G03*
X135300000Y-72575000I-2137801J-778096D01*
G01*
X137150000Y-68950000D02*
G75*
G03*
X138325000Y-70125000I1175000J0D01*
G01*
G36*
X144000000Y-64201000D02*
G01*
X142992000Y-64201000D01*
X144000000Y-63185000D01*
X144000000Y-64201000D01*
G37*
D13*
X144000000Y-64201000D02*
X142992000Y-64201000D01*
X144000000Y-63185000D01*
X144000000Y-64201000D01*
D10*
X172350000Y-72550000D02*
X172350000Y-67950000D01*
X175600000Y-74100000D02*
X175600000Y-69900000D01*
X172800000Y-72550000D02*
X172800000Y-67950000D01*
X171150000Y-72300000D02*
X171150000Y-68200000D01*
X179400000Y-74650000D02*
X179400000Y-70250000D01*
X179550000Y-74550000D02*
X179550000Y-70350000D01*
X171900000Y-72550000D02*
X171900000Y-67950000D01*
X177000000Y-74750000D02*
X177000000Y-70150000D01*
X176100000Y-74700000D02*
X176100000Y-70150000D01*
X171450000Y-72550000D02*
X171450000Y-67950000D01*
X177750000Y-74750000D02*
X177750000Y-70150000D01*
X171300000Y-72400000D02*
X171300000Y-68050000D01*
X173400000Y-72550000D02*
X173400000Y-67950000D01*
X173550000Y-72550000D02*
X173550000Y-68000000D01*
X176850000Y-74750000D02*
X176850000Y-70150000D01*
X170400000Y-68950000D02*
X171425000Y-67925000D01*
X173700000Y-72600000D02*
X173700000Y-67950000D01*
X173100000Y-72550000D02*
X173100000Y-67950000D01*
X174450000Y-72800000D02*
X174450000Y-68350000D01*
X177150000Y-74750000D02*
X177150000Y-70150000D01*
X179000000Y-70125000D02*
X176425000Y-70125000D01*
X170400000Y-68950000D02*
X170400000Y-71550000D01*
X170400000Y-71550000D02*
X171425000Y-72575000D01*
X170850000Y-72000000D02*
X170850000Y-68500000D01*
D12*
X181600000Y-59501000D02*
X173800000Y-59501000D01*
D10*
X177300000Y-74750000D02*
X177300000Y-70150000D01*
X175500000Y-73950000D02*
X175500000Y-69800000D01*
X172950000Y-72550000D02*
X172950000Y-67950000D01*
X179650000Y-74450000D02*
X179650000Y-70500000D01*
X174900000Y-73100000D02*
X174900000Y-68700000D01*
X178500000Y-74750000D02*
X178500000Y-70150000D01*
X180000000Y-71125000D02*
X180000000Y-73775000D01*
X174600000Y-72900000D02*
X174600000Y-68450000D01*
X175800000Y-74500000D02*
X175800000Y-70000000D01*
X170550000Y-71700000D02*
X170550000Y-68800000D01*
X175950000Y-74600000D02*
X175950000Y-70050000D01*
X172500000Y-72550000D02*
X172500000Y-67950000D01*
X176550000Y-74750000D02*
X176550000Y-70200000D01*
X178800000Y-74750000D02*
X178800000Y-70150000D01*
X172650000Y-72550000D02*
X172650000Y-67950000D01*
X177600000Y-74750000D02*
X177600000Y-70150000D01*
X173400000Y-72575000D02*
X171425000Y-72575000D01*
X179000000Y-74775000D02*
X176400000Y-74775000D01*
X173975000Y-67925000D02*
X175250000Y-68950000D01*
X171600000Y-72550000D02*
X171600000Y-67950000D01*
X179850000Y-74200000D02*
X179850000Y-70650000D01*
X174300000Y-72750000D02*
X174300000Y-68200000D01*
X171000000Y-72150000D02*
X171000000Y-68350000D01*
X172200000Y-72550000D02*
X172200000Y-67950000D01*
X171750000Y-72550000D02*
X171750000Y-67950000D01*
X175050000Y-73250000D02*
X175050000Y-68800000D01*
X177450000Y-74750000D02*
X177450000Y-70150000D01*
X172050000Y-72550000D02*
X172050000Y-67950000D01*
X173975000Y-67925000D02*
X171425000Y-67925000D01*
X178050000Y-74750000D02*
X178050000Y-70150000D01*
X179750000Y-74350000D02*
X179750000Y-70600000D01*
D12*
X173800000Y-64201000D02*
X182100000Y-64201000D01*
D10*
X175700000Y-74350000D02*
X175700000Y-69950000D01*
X174150000Y-72650000D02*
X174150000Y-68100000D01*
X174000000Y-72600000D02*
X174000000Y-68000000D01*
X175400000Y-73750000D02*
X175400000Y-69600000D01*
X177900000Y-74750000D02*
X177900000Y-70150000D01*
D12*
X182100000Y-64201000D02*
X182100000Y-62550000D01*
D10*
X175200000Y-73400000D02*
X175200000Y-68950000D01*
X173850000Y-72600000D02*
X173850000Y-67950000D01*
X174750000Y-73000000D02*
X174750000Y-68600000D01*
X170700000Y-71800000D02*
X170700000Y-68650000D01*
X178350000Y-74750000D02*
X178350000Y-70150000D01*
X178650000Y-74750000D02*
X178650000Y-70150000D01*
X173250000Y-72550000D02*
X173250000Y-67950000D01*
X178200000Y-74750000D02*
X178200000Y-70150000D01*
X176400000Y-74750000D02*
X176400000Y-70150000D01*
X175300000Y-73600000D02*
X175300000Y-69450000D01*
X178950000Y-74750000D02*
X178950000Y-70150000D01*
X176250000Y-74750000D02*
X176250000Y-70150000D01*
X179100000Y-74750000D02*
X179100000Y-70200000D01*
X179250000Y-74700000D02*
X179250000Y-70200000D01*
X176700000Y-74750000D02*
X176700000Y-70150000D01*
X175250000Y-68950000D02*
G75*
G03*
X176425000Y-70125000I1175000J0D01*
G01*
X180000000Y-71125000D02*
G75*
G03*
X179000000Y-70125000I-999999J1D01*
G01*
X179000000Y-74775000D02*
G75*
G03*
X180000000Y-73775000I1J999999D01*
G01*
X175537797Y-74071905D02*
G75*
G03*
X176399005Y-74773791I900003J225005D01*
G01*
X175537801Y-74071904D02*
G75*
G03*
X173400000Y-72575000I-2137801J-778096D01*
G01*
G36*
X182100000Y-64201000D02*
G01*
X181092000Y-64201000D01*
X182100000Y-63185000D01*
X182100000Y-64201000D01*
G37*
D13*
X182100000Y-64201000D02*
X181092000Y-64201000D01*
X182100000Y-63185000D01*
X182100000Y-64201000D01*
D10*
X153150000Y-70050000D02*
X153150000Y-65450000D01*
X151650000Y-69300000D02*
X151650000Y-66150000D01*
X157800000Y-72250000D02*
X157800000Y-67650000D01*
X157350000Y-72250000D02*
X157350000Y-67650000D01*
X154950000Y-70100000D02*
X154950000Y-65500000D01*
X152850000Y-70050000D02*
X152850000Y-65450000D01*
X160700000Y-71850000D02*
X160700000Y-68100000D01*
X155550000Y-70400000D02*
X155550000Y-65950000D01*
X159950000Y-67625000D02*
X157375000Y-67625000D01*
X155100000Y-70150000D02*
X155100000Y-65600000D01*
D12*
X162550000Y-57001000D02*
X154750000Y-57001000D01*
X154750000Y-61701000D02*
X163050000Y-61701000D01*
D10*
X160500000Y-72050000D02*
X160500000Y-67850000D01*
X154925000Y-65425000D02*
X152375000Y-65425000D01*
X151950000Y-69650000D02*
X151950000Y-65850000D01*
X155850000Y-70600000D02*
X155850000Y-66200000D01*
X157950000Y-72250000D02*
X157950000Y-67650000D01*
X160950000Y-68625000D02*
X160950000Y-71275000D01*
X158400000Y-72250000D02*
X158400000Y-67650000D01*
X159600000Y-72250000D02*
X159600000Y-67650000D01*
X160200000Y-72200000D02*
X160200000Y-67700000D01*
X157200000Y-72250000D02*
X157200000Y-67650000D01*
X154050000Y-70050000D02*
X154050000Y-65450000D01*
X153450000Y-70050000D02*
X153450000Y-65450000D01*
X154500000Y-70050000D02*
X154500000Y-65500000D01*
X157050000Y-72200000D02*
X157050000Y-67650000D01*
X154925000Y-65425000D02*
X156200000Y-66450000D01*
X153750000Y-70050000D02*
X153750000Y-65450000D01*
X159150000Y-72250000D02*
X159150000Y-67650000D01*
X156350000Y-71250000D02*
X156350000Y-67100000D01*
X151350000Y-69050000D02*
X152375000Y-70075000D01*
X154200000Y-70050000D02*
X154200000Y-65450000D01*
X154350000Y-70050000D02*
X154350000Y-65450000D01*
X152550000Y-70050000D02*
X152550000Y-65450000D01*
X158100000Y-72250000D02*
X158100000Y-67650000D01*
X157650000Y-72250000D02*
X157650000Y-67650000D01*
X151800000Y-69500000D02*
X151800000Y-66000000D01*
X160800000Y-71700000D02*
X160800000Y-68150000D01*
X159750000Y-72250000D02*
X159750000Y-67650000D01*
X152700000Y-70050000D02*
X152700000Y-65450000D01*
X155400000Y-70300000D02*
X155400000Y-65850000D01*
X151500000Y-69200000D02*
X151500000Y-66300000D01*
X155250000Y-70250000D02*
X155250000Y-65700000D01*
X153300000Y-70050000D02*
X153300000Y-65450000D01*
X156550000Y-71600000D02*
X156550000Y-67400000D01*
X156750000Y-72000000D02*
X156750000Y-67500000D01*
X156650000Y-71850000D02*
X156650000Y-67450000D01*
D12*
X163050000Y-61701000D02*
X163050000Y-60050000D01*
D10*
X155700000Y-70500000D02*
X155700000Y-66100000D01*
X158250000Y-72250000D02*
X158250000Y-67650000D01*
X156450000Y-71450000D02*
X156450000Y-67300000D01*
X153000000Y-70050000D02*
X153000000Y-65450000D01*
X160600000Y-71950000D02*
X160600000Y-68000000D01*
X158550000Y-72250000D02*
X158550000Y-67650000D01*
X152250000Y-69900000D02*
X152250000Y-65550000D01*
X154800000Y-70100000D02*
X154800000Y-65450000D01*
X156000000Y-70750000D02*
X156000000Y-66300000D01*
X154350000Y-70075000D02*
X152375000Y-70075000D01*
X157500000Y-72250000D02*
X157500000Y-67700000D01*
X159900000Y-72250000D02*
X159900000Y-67650000D01*
X160350000Y-72150000D02*
X160350000Y-67750000D01*
X159450000Y-72250000D02*
X159450000Y-67650000D01*
X151350000Y-66450000D02*
X151350000Y-69050000D01*
X153600000Y-70050000D02*
X153600000Y-65450000D01*
X156900000Y-72100000D02*
X156900000Y-67550000D01*
X152400000Y-70050000D02*
X152400000Y-65450000D01*
X151350000Y-66450000D02*
X152375000Y-65425000D01*
X159000000Y-72250000D02*
X159000000Y-67650000D01*
X159300000Y-72250000D02*
X159300000Y-67650000D01*
X153900000Y-70050000D02*
X153900000Y-65450000D01*
X156150000Y-70900000D02*
X156150000Y-66450000D01*
X152100000Y-69800000D02*
X152100000Y-65700000D01*
X160050000Y-72250000D02*
X160050000Y-67700000D01*
X159950000Y-72275000D02*
X157350000Y-72275000D01*
X156250000Y-71100000D02*
X156250000Y-66950000D01*
X154650000Y-70100000D02*
X154650000Y-65450000D01*
X158700000Y-72250000D02*
X158700000Y-67650000D01*
X158850000Y-72250000D02*
X158850000Y-67650000D01*
X159950000Y-72275000D02*
G75*
G03*
X160950000Y-71275000I1J999999D01*
G01*
X156200000Y-66450000D02*
G75*
G03*
X157375000Y-67625000I1175000J0D01*
G01*
X156487797Y-71571905D02*
G75*
G03*
X157349005Y-72273791I900003J225005D01*
G01*
X156487801Y-71571904D02*
G75*
G03*
X154350000Y-70075000I-2137801J-778096D01*
G01*
X160950000Y-68625000D02*
G75*
G03*
X159950000Y-67625000I-999999J1D01*
G01*
G36*
X163050000Y-61701000D02*
G01*
X162042000Y-61701000D01*
X163050000Y-60685000D01*
X163050000Y-61701000D01*
G37*
D13*
X163050000Y-61701000D02*
X162042000Y-61701000D01*
X163050000Y-60685000D01*
X163050000Y-61701000D01*
D10*
X172800000Y-91600000D02*
X172800000Y-87000000D01*
X174150000Y-91700000D02*
X174150000Y-87150000D01*
X179650000Y-93500000D02*
X179650000Y-89550000D01*
X174600000Y-91950000D02*
X174600000Y-87500000D01*
X176250000Y-93800000D02*
X176250000Y-89200000D01*
X171900000Y-91600000D02*
X171900000Y-87000000D01*
X171450000Y-91600000D02*
X171450000Y-87000000D01*
X177750000Y-93800000D02*
X177750000Y-89200000D01*
X172950000Y-91600000D02*
X172950000Y-87000000D01*
X177600000Y-93800000D02*
X177600000Y-89200000D01*
X178050000Y-93800000D02*
X178050000Y-89200000D01*
X176100000Y-93750000D02*
X176100000Y-89200000D01*
X175700000Y-93400000D02*
X175700000Y-89000000D01*
X179400000Y-93700000D02*
X179400000Y-89300000D01*
X175050000Y-92300000D02*
X175050000Y-87850000D01*
X172200000Y-91600000D02*
X172200000Y-87000000D01*
X173250000Y-91600000D02*
X173250000Y-87000000D01*
X177000000Y-93800000D02*
X177000000Y-89200000D01*
X174300000Y-91800000D02*
X174300000Y-87250000D01*
X172050000Y-91600000D02*
X172050000Y-87000000D01*
X171000000Y-91200000D02*
X171000000Y-87400000D01*
D12*
X173800000Y-83251000D02*
X182100000Y-83251000D01*
D10*
X170400000Y-88000000D02*
X171425000Y-86975000D01*
X173975000Y-86975000D02*
X175250000Y-88000000D01*
X170400000Y-90600000D02*
X171425000Y-91625000D01*
X179750000Y-93400000D02*
X179750000Y-89650000D01*
X170700000Y-90850000D02*
X170700000Y-87700000D01*
X171750000Y-91600000D02*
X171750000Y-87000000D01*
X173400000Y-91625000D02*
X171425000Y-91625000D01*
D12*
X182100000Y-83251000D02*
X182100000Y-81600000D01*
D10*
X171300000Y-91450000D02*
X171300000Y-87100000D01*
X178350000Y-93800000D02*
X178350000Y-89200000D01*
X179000000Y-89175000D02*
X176425000Y-89175000D01*
X173400000Y-91600000D02*
X173400000Y-87000000D01*
X177300000Y-93800000D02*
X177300000Y-89200000D01*
X177900000Y-93800000D02*
X177900000Y-89200000D01*
X179000000Y-93825000D02*
X176400000Y-93825000D01*
X175800000Y-93550000D02*
X175800000Y-89050000D01*
X175500000Y-93000000D02*
X175500000Y-88850000D01*
X173550000Y-91600000D02*
X173550000Y-87050000D01*
X176850000Y-93800000D02*
X176850000Y-89200000D01*
X170850000Y-91050000D02*
X170850000Y-87550000D01*
X176400000Y-93800000D02*
X176400000Y-89200000D01*
X174750000Y-92050000D02*
X174750000Y-87650000D01*
X178650000Y-93800000D02*
X178650000Y-89200000D01*
X179100000Y-93800000D02*
X179100000Y-89250000D01*
X178950000Y-93800000D02*
X178950000Y-89200000D01*
X173100000Y-91600000D02*
X173100000Y-87000000D01*
X173700000Y-91650000D02*
X173700000Y-87000000D01*
X175400000Y-92800000D02*
X175400000Y-88650000D01*
X176700000Y-93800000D02*
X176700000Y-89200000D01*
X170400000Y-88000000D02*
X170400000Y-90600000D01*
X177150000Y-93800000D02*
X177150000Y-89200000D01*
X178200000Y-93800000D02*
X178200000Y-89200000D01*
X172650000Y-91600000D02*
X172650000Y-87000000D01*
X174000000Y-91650000D02*
X174000000Y-87050000D01*
D12*
X181600000Y-78551000D02*
X173800000Y-78551000D01*
D10*
X178500000Y-93800000D02*
X178500000Y-89200000D01*
X175600000Y-93150000D02*
X175600000Y-88950000D01*
X176550000Y-93800000D02*
X176550000Y-89250000D01*
X179250000Y-93750000D02*
X179250000Y-89250000D01*
X180000000Y-90175000D02*
X180000000Y-92825000D01*
X175300000Y-92650000D02*
X175300000Y-88500000D01*
X171150000Y-91350000D02*
X171150000Y-87250000D01*
X173850000Y-91650000D02*
X173850000Y-87000000D01*
X172350000Y-91600000D02*
X172350000Y-87000000D01*
X179550000Y-93600000D02*
X179550000Y-89400000D01*
X173975000Y-86975000D02*
X171425000Y-86975000D01*
X179850000Y-93250000D02*
X179850000Y-89700000D01*
X171600000Y-91600000D02*
X171600000Y-87000000D01*
X178800000Y-93800000D02*
X178800000Y-89200000D01*
X177450000Y-93800000D02*
X177450000Y-89200000D01*
X174450000Y-91850000D02*
X174450000Y-87400000D01*
X174900000Y-92150000D02*
X174900000Y-87750000D01*
X175200000Y-92450000D02*
X175200000Y-88000000D01*
X170550000Y-90750000D02*
X170550000Y-87850000D01*
X175950000Y-93650000D02*
X175950000Y-89100000D01*
X172500000Y-91600000D02*
X172500000Y-87000000D01*
X175537801Y-93121904D02*
G75*
G03*
X173400000Y-91625000I-2137801J-778096D01*
G01*
X175250000Y-88000000D02*
G75*
G03*
X176425000Y-89175000I1175000J0D01*
G01*
X180000000Y-90175000D02*
G75*
G03*
X179000000Y-89175000I-999999J1D01*
G01*
X175537797Y-93121905D02*
G75*
G03*
X176399005Y-93823791I900003J225005D01*
G01*
X179000000Y-93825000D02*
G75*
G03*
X180000000Y-92825000I1J999999D01*
G01*
G36*
X182100000Y-83251000D02*
G01*
X181092000Y-83251000D01*
X182100000Y-82235000D01*
X182100000Y-83251000D01*
G37*
D13*
X182100000Y-83251000D02*
X181092000Y-83251000D01*
X182100000Y-82235000D01*
X182100000Y-83251000D01*
D10*
X213700000Y-59950000D02*
X213700000Y-55750000D01*
X208500000Y-54800000D02*
X208500000Y-57400000D01*
X215700000Y-60600000D02*
X215700000Y-56000000D01*
X215400000Y-60600000D02*
X215400000Y-56000000D01*
X216000000Y-60600000D02*
X216000000Y-56000000D01*
X212075000Y-53775000D02*
X209525000Y-53775000D01*
X218100000Y-56975000D02*
X218100000Y-59625000D01*
X212100000Y-58450000D02*
X212100000Y-53850000D01*
X213800000Y-60200000D02*
X213800000Y-55800000D01*
X217500000Y-60500000D02*
X217500000Y-56100000D01*
X213900000Y-60350000D02*
X213900000Y-55850000D01*
X214050000Y-60450000D02*
X214050000Y-55900000D01*
X213150000Y-59100000D02*
X213150000Y-54650000D01*
X214200000Y-60550000D02*
X214200000Y-56000000D01*
X216300000Y-60600000D02*
X216300000Y-56000000D01*
X211800000Y-58450000D02*
X211800000Y-53800000D01*
X217050000Y-60600000D02*
X217050000Y-56000000D01*
D12*
X211900000Y-50051000D02*
X220200000Y-50051000D01*
D10*
X210000000Y-58400000D02*
X210000000Y-53800000D01*
X217200000Y-60600000D02*
X217200000Y-56050000D01*
X210600000Y-58400000D02*
X210600000Y-53800000D01*
X215550000Y-60600000D02*
X215550000Y-56000000D01*
X210300000Y-58400000D02*
X210300000Y-53800000D01*
X209700000Y-58400000D02*
X209700000Y-53800000D01*
X209400000Y-58250000D02*
X209400000Y-53900000D01*
X208500000Y-57400000D02*
X209525000Y-58425000D01*
X208500000Y-54800000D02*
X209525000Y-53775000D01*
X212400000Y-58600000D02*
X212400000Y-54050000D01*
X214500000Y-60600000D02*
X214500000Y-56000000D01*
X217850000Y-60200000D02*
X217850000Y-56450000D01*
X217950000Y-60050000D02*
X217950000Y-56500000D01*
X213400000Y-59450000D02*
X213400000Y-55300000D01*
X214950000Y-60600000D02*
X214950000Y-56000000D01*
D12*
X220200000Y-50051000D02*
X220200000Y-48400000D01*
D10*
X211200000Y-58400000D02*
X211200000Y-53800000D01*
D12*
X219700000Y-45351000D02*
X211900000Y-45351000D01*
D10*
X213000000Y-58950000D02*
X213000000Y-54550000D01*
X215850000Y-60600000D02*
X215850000Y-56000000D01*
X217100000Y-55975000D02*
X214525000Y-55975000D01*
X211350000Y-58400000D02*
X211350000Y-53800000D01*
X212550000Y-58650000D02*
X212550000Y-54200000D01*
X214650000Y-60600000D02*
X214650000Y-56050000D01*
X211050000Y-58400000D02*
X211050000Y-53800000D01*
X212250000Y-58500000D02*
X212250000Y-53950000D01*
X217750000Y-60300000D02*
X217750000Y-56350000D01*
X209100000Y-58000000D02*
X209100000Y-54200000D01*
X216450000Y-60600000D02*
X216450000Y-56000000D01*
X209550000Y-58400000D02*
X209550000Y-53800000D01*
X216600000Y-60600000D02*
X216600000Y-56000000D01*
X217650000Y-60400000D02*
X217650000Y-56200000D01*
X211500000Y-58425000D02*
X209525000Y-58425000D01*
X210750000Y-58400000D02*
X210750000Y-53800000D01*
X216900000Y-60600000D02*
X216900000Y-56000000D01*
X214350000Y-60600000D02*
X214350000Y-56000000D01*
X211650000Y-58400000D02*
X211650000Y-53850000D01*
X211950000Y-58450000D02*
X211950000Y-53800000D01*
X217350000Y-60550000D02*
X217350000Y-56050000D01*
X213500000Y-59600000D02*
X213500000Y-55450000D01*
X210450000Y-58400000D02*
X210450000Y-53800000D01*
X210150000Y-58400000D02*
X210150000Y-53800000D01*
X208950000Y-57850000D02*
X208950000Y-54350000D01*
X213300000Y-59250000D02*
X213300000Y-54800000D01*
X210900000Y-58400000D02*
X210900000Y-53800000D01*
X213600000Y-59800000D02*
X213600000Y-55650000D01*
X212700000Y-58750000D02*
X212700000Y-54300000D01*
X212850000Y-58850000D02*
X212850000Y-54450000D01*
X208650000Y-57550000D02*
X208650000Y-54650000D01*
X209850000Y-58400000D02*
X209850000Y-53800000D01*
X217100000Y-60625000D02*
X214500000Y-60625000D01*
X215100000Y-60600000D02*
X215100000Y-56000000D01*
X208800000Y-57650000D02*
X208800000Y-54500000D01*
X211500000Y-58400000D02*
X211500000Y-53800000D01*
X209250000Y-58150000D02*
X209250000Y-54050000D01*
X216150000Y-60600000D02*
X216150000Y-56000000D01*
X216750000Y-60600000D02*
X216750000Y-56000000D01*
X215250000Y-60600000D02*
X215250000Y-56000000D01*
X214800000Y-60600000D02*
X214800000Y-56000000D01*
X212075000Y-53775000D02*
X213350000Y-54800000D01*
X218100000Y-56975000D02*
G75*
G03*
X217100000Y-55975000I-999999J1D01*
G01*
X217100000Y-60625000D02*
G75*
G03*
X218100000Y-59625000I1J999999D01*
G01*
X213637797Y-59921905D02*
G75*
G03*
X214499005Y-60623791I900003J225005D01*
G01*
X213637801Y-59921904D02*
G75*
G03*
X211500000Y-58425000I-2137801J-778096D01*
G01*
X213350000Y-54800000D02*
G75*
G03*
X214525000Y-55975000I1175000J0D01*
G01*
G36*
X220200000Y-50051000D02*
G01*
X219192000Y-50051000D01*
X220200000Y-49035000D01*
X220200000Y-50051000D01*
G37*
D13*
X220200000Y-50051000D02*
X219192000Y-50051000D01*
X220200000Y-49035000D01*
X220200000Y-50051000D01*
D10*
X114300000Y-75100000D02*
X114300000Y-70500000D01*
X115800000Y-75100000D02*
X115800000Y-70500000D01*
X115050000Y-75100000D02*
X115050000Y-70500000D01*
X115350000Y-75100000D02*
X115350000Y-70500000D01*
X119850000Y-77300000D02*
X119850000Y-72700000D01*
X121850000Y-77325000D02*
X119250000Y-77325000D01*
X120450000Y-77300000D02*
X120450000Y-72700000D01*
X116850000Y-75150000D02*
X116850000Y-70550000D01*
D12*
X124450000Y-62051000D02*
X116650000Y-62051000D01*
D10*
X121650000Y-77300000D02*
X121650000Y-72700000D01*
X122250000Y-77200000D02*
X122250000Y-72800000D01*
X122100000Y-77250000D02*
X122100000Y-72750000D01*
X119100000Y-77300000D02*
X119100000Y-72700000D01*
X120750000Y-77300000D02*
X120750000Y-72700000D01*
X116250000Y-75100000D02*
X116250000Y-70500000D01*
X114000000Y-74850000D02*
X114000000Y-70750000D01*
X120150000Y-77300000D02*
X120150000Y-72700000D01*
X113400000Y-74250000D02*
X113400000Y-71350000D01*
X118150000Y-76150000D02*
X118150000Y-72000000D01*
X115200000Y-75100000D02*
X115200000Y-70500000D01*
X118800000Y-77150000D02*
X118800000Y-72600000D01*
X113250000Y-74100000D02*
X114275000Y-75125000D01*
X117750000Y-75650000D02*
X117750000Y-71250000D01*
X121050000Y-77300000D02*
X121050000Y-72700000D01*
X118250000Y-76300000D02*
X118250000Y-72150000D01*
X118950000Y-77250000D02*
X118950000Y-72700000D01*
X117000000Y-75200000D02*
X117000000Y-70650000D01*
X117150000Y-75300000D02*
X117150000Y-70750000D01*
X118650000Y-77050000D02*
X118650000Y-72550000D01*
X117450000Y-75450000D02*
X117450000Y-71000000D01*
X116250000Y-75125000D02*
X114275000Y-75125000D01*
X113700000Y-74550000D02*
X113700000Y-71050000D01*
D12*
X124950000Y-66751000D02*
X124950000Y-65100000D01*
D10*
X122850000Y-73675000D02*
X122850000Y-76325000D01*
X120600000Y-77300000D02*
X120600000Y-72700000D01*
X114450000Y-75100000D02*
X114450000Y-70500000D01*
X117600000Y-75550000D02*
X117600000Y-71150000D01*
D12*
X116650000Y-66751000D02*
X124950000Y-66751000D01*
D10*
X113250000Y-71500000D02*
X114275000Y-70475000D01*
X121800000Y-77300000D02*
X121800000Y-72700000D01*
X114750000Y-75100000D02*
X114750000Y-70500000D01*
X115950000Y-75100000D02*
X115950000Y-70500000D01*
X118050000Y-75950000D02*
X118050000Y-71500000D01*
X113250000Y-71500000D02*
X113250000Y-74100000D01*
X114900000Y-75100000D02*
X114900000Y-70500000D01*
X116825000Y-70475000D02*
X114275000Y-70475000D01*
X118550000Y-76900000D02*
X118550000Y-72500000D01*
X122400000Y-77100000D02*
X122400000Y-72900000D01*
X121950000Y-77300000D02*
X121950000Y-72750000D01*
X122700000Y-76750000D02*
X122700000Y-73200000D01*
X120900000Y-77300000D02*
X120900000Y-72700000D01*
X117300000Y-75350000D02*
X117300000Y-70900000D01*
X120000000Y-77300000D02*
X120000000Y-72700000D01*
X114600000Y-75100000D02*
X114600000Y-70500000D01*
X116825000Y-70475000D02*
X118100000Y-71500000D01*
X116550000Y-75150000D02*
X116550000Y-70500000D01*
X118350000Y-76500000D02*
X118350000Y-72350000D01*
X121350000Y-77300000D02*
X121350000Y-72700000D01*
X119550000Y-77300000D02*
X119550000Y-72700000D01*
X119250000Y-77300000D02*
X119250000Y-72700000D01*
X115650000Y-75100000D02*
X115650000Y-70500000D01*
X122600000Y-76900000D02*
X122600000Y-73150000D01*
X116400000Y-75100000D02*
X116400000Y-70550000D01*
X116100000Y-75100000D02*
X116100000Y-70500000D01*
X113850000Y-74700000D02*
X113850000Y-70900000D01*
X117900000Y-75800000D02*
X117900000Y-71350000D01*
X119400000Y-77300000D02*
X119400000Y-72750000D01*
X118450000Y-76650000D02*
X118450000Y-72450000D01*
X119700000Y-77300000D02*
X119700000Y-72700000D01*
X113550000Y-74350000D02*
X113550000Y-71200000D01*
X115500000Y-75100000D02*
X115500000Y-70500000D01*
X116700000Y-75150000D02*
X116700000Y-70500000D01*
X120300000Y-77300000D02*
X120300000Y-72700000D01*
X121500000Y-77300000D02*
X121500000Y-72700000D01*
X122500000Y-77000000D02*
X122500000Y-73050000D01*
X121850000Y-72675000D02*
X119275000Y-72675000D01*
X121200000Y-77300000D02*
X121200000Y-72700000D01*
X114150000Y-74950000D02*
X114150000Y-70600000D01*
X118100000Y-71500000D02*
G75*
G03*
X119275000Y-72675000I1175000J0D01*
G01*
X122850000Y-73675000D02*
G75*
G03*
X121850000Y-72675000I-999999J1D01*
G01*
X118387797Y-76621905D02*
G75*
G03*
X119249005Y-77323791I900003J225005D01*
G01*
X118387801Y-76621904D02*
G75*
G03*
X116250000Y-75125000I-2137801J-778096D01*
G01*
X121850000Y-77325000D02*
G75*
G03*
X122850000Y-76325000I1J999999D01*
G01*
G36*
X124950000Y-66751000D02*
G01*
X123942000Y-66751000D01*
X124950000Y-65735000D01*
X124950000Y-66751000D01*
G37*
D13*
X124950000Y-66751000D02*
X123942000Y-66751000D01*
X124950000Y-65735000D01*
X124950000Y-66751000D01*
D10*
X176400000Y-131900000D02*
X176400000Y-127300000D01*
X175200000Y-130550000D02*
X175200000Y-126100000D01*
X171300000Y-129550000D02*
X171300000Y-125200000D01*
X179400000Y-131800000D02*
X179400000Y-127400000D01*
X173975000Y-125075000D02*
X175250000Y-126100000D01*
X172500000Y-129700000D02*
X172500000Y-125100000D01*
D12*
X182100000Y-121351000D02*
X182100000Y-119700000D01*
D10*
X170400000Y-126100000D02*
X171425000Y-125075000D01*
X176250000Y-131900000D02*
X176250000Y-127300000D01*
X170700000Y-128950000D02*
X170700000Y-125800000D01*
X180000000Y-128275000D02*
X180000000Y-130925000D01*
X174000000Y-129750000D02*
X174000000Y-125150000D01*
X175300000Y-130750000D02*
X175300000Y-126600000D01*
X175950000Y-131750000D02*
X175950000Y-127200000D01*
X179100000Y-131900000D02*
X179100000Y-127350000D01*
X176550000Y-131900000D02*
X176550000Y-127350000D01*
X172200000Y-129700000D02*
X172200000Y-125100000D01*
X179550000Y-131700000D02*
X179550000Y-127500000D01*
X174150000Y-129800000D02*
X174150000Y-125250000D01*
X174600000Y-130050000D02*
X174600000Y-125600000D01*
X171750000Y-129700000D02*
X171750000Y-125100000D01*
X177900000Y-131900000D02*
X177900000Y-127300000D01*
X178950000Y-131900000D02*
X178950000Y-127300000D01*
X178800000Y-131900000D02*
X178800000Y-127300000D01*
D12*
X181600000Y-116651000D02*
X173800000Y-116651000D01*
D10*
X177300000Y-131900000D02*
X177300000Y-127300000D01*
X178200000Y-131900000D02*
X178200000Y-127300000D01*
X173850000Y-129750000D02*
X173850000Y-125100000D01*
X174900000Y-130250000D02*
X174900000Y-125850000D01*
X173550000Y-129700000D02*
X173550000Y-125150000D01*
X179650000Y-131600000D02*
X179650000Y-127650000D01*
X173400000Y-129725000D02*
X171425000Y-129725000D01*
X175600000Y-131250000D02*
X175600000Y-127050000D01*
X171600000Y-129700000D02*
X171600000Y-125100000D01*
X174750000Y-130150000D02*
X174750000Y-125750000D01*
X179750000Y-131500000D02*
X179750000Y-127750000D01*
X178650000Y-131900000D02*
X178650000Y-127300000D01*
X172050000Y-129700000D02*
X172050000Y-125100000D01*
X177000000Y-131900000D02*
X177000000Y-127300000D01*
X179250000Y-131850000D02*
X179250000Y-127350000D01*
X173975000Y-125075000D02*
X171425000Y-125075000D01*
X173100000Y-129700000D02*
X173100000Y-125100000D01*
X177150000Y-131900000D02*
X177150000Y-127300000D01*
X178350000Y-131900000D02*
X178350000Y-127300000D01*
X170850000Y-129150000D02*
X170850000Y-125650000D01*
X179850000Y-131350000D02*
X179850000Y-127800000D01*
X177450000Y-131900000D02*
X177450000Y-127300000D01*
X173250000Y-129700000D02*
X173250000Y-125100000D01*
X177600000Y-131900000D02*
X177600000Y-127300000D01*
X171150000Y-129450000D02*
X171150000Y-125350000D01*
X179000000Y-127275000D02*
X176425000Y-127275000D01*
X171450000Y-129700000D02*
X171450000Y-125100000D01*
X170400000Y-128700000D02*
X171425000Y-129725000D01*
X172650000Y-129700000D02*
X172650000Y-125100000D01*
X178500000Y-131900000D02*
X178500000Y-127300000D01*
X173700000Y-129750000D02*
X173700000Y-125100000D01*
X172800000Y-129700000D02*
X172800000Y-125100000D01*
X173400000Y-129700000D02*
X173400000Y-125100000D01*
X171900000Y-129700000D02*
X171900000Y-125100000D01*
X178050000Y-131900000D02*
X178050000Y-127300000D01*
X172950000Y-129700000D02*
X172950000Y-125100000D01*
X175700000Y-131500000D02*
X175700000Y-127100000D01*
X175050000Y-130400000D02*
X175050000Y-125950000D01*
X175400000Y-130900000D02*
X175400000Y-126750000D01*
X179000000Y-131925000D02*
X176400000Y-131925000D01*
X170400000Y-126100000D02*
X170400000Y-128700000D01*
X175800000Y-131650000D02*
X175800000Y-127150000D01*
X177750000Y-131900000D02*
X177750000Y-127300000D01*
X172350000Y-129700000D02*
X172350000Y-125100000D01*
D12*
X173800000Y-121351000D02*
X182100000Y-121351000D01*
D10*
X176850000Y-131900000D02*
X176850000Y-127300000D01*
X171000000Y-129300000D02*
X171000000Y-125500000D01*
X176100000Y-131850000D02*
X176100000Y-127300000D01*
X175500000Y-131100000D02*
X175500000Y-126950000D01*
X170550000Y-128850000D02*
X170550000Y-125950000D01*
X176700000Y-131900000D02*
X176700000Y-127300000D01*
X174450000Y-129950000D02*
X174450000Y-125500000D01*
X174300000Y-129900000D02*
X174300000Y-125350000D01*
X175250000Y-126100000D02*
G75*
G03*
X176425000Y-127275000I1175000J0D01*
G01*
X175537801Y-131221904D02*
G75*
G03*
X173400000Y-129725000I-2137801J-778096D01*
G01*
X179000000Y-131925000D02*
G75*
G03*
X180000000Y-130925000I1J999999D01*
G01*
X180000000Y-128275000D02*
G75*
G03*
X179000000Y-127275000I-999999J1D01*
G01*
X175537797Y-131221905D02*
G75*
G03*
X176399005Y-131923791I900003J225005D01*
G01*
G36*
X182100000Y-121351000D02*
G01*
X181092000Y-121351000D01*
X182100000Y-120335000D01*
X182100000Y-121351000D01*
G37*
D13*
X182100000Y-121351000D02*
X181092000Y-121351000D01*
X182100000Y-120335000D01*
X182100000Y-121351000D01*
D10*
X198800000Y-79250000D02*
X198800000Y-75500000D01*
X197250000Y-79650000D02*
X197250000Y-75050000D01*
X190950000Y-77450000D02*
X190950000Y-72850000D01*
X194550000Y-78850000D02*
X194550000Y-74700000D01*
X191850000Y-77450000D02*
X191850000Y-72850000D01*
X196500000Y-79650000D02*
X196500000Y-75050000D01*
X198000000Y-79650000D02*
X198000000Y-75050000D01*
X193950000Y-78000000D02*
X193950000Y-73600000D01*
X193500000Y-77700000D02*
X193500000Y-73250000D01*
X198300000Y-79600000D02*
X198300000Y-75100000D01*
X190800000Y-77450000D02*
X190800000Y-72850000D01*
X198050000Y-75025000D02*
X195475000Y-75025000D01*
X197550000Y-79650000D02*
X197550000Y-75050000D01*
X196050000Y-79650000D02*
X196050000Y-75050000D01*
X198900000Y-79100000D02*
X198900000Y-75550000D01*
X195600000Y-79650000D02*
X195600000Y-75100000D01*
X192300000Y-77450000D02*
X192300000Y-72850000D01*
X194450000Y-78650000D02*
X194450000Y-74500000D01*
X189450000Y-73850000D02*
X190475000Y-72825000D01*
X190650000Y-77450000D02*
X190650000Y-72850000D01*
X193800000Y-77900000D02*
X193800000Y-73500000D01*
X191550000Y-77450000D02*
X191550000Y-72850000D01*
X193025000Y-72825000D02*
X190475000Y-72825000D01*
X195150000Y-79600000D02*
X195150000Y-75050000D01*
X190500000Y-77450000D02*
X190500000Y-72850000D01*
X191400000Y-77450000D02*
X191400000Y-72850000D01*
X195300000Y-79650000D02*
X195300000Y-75050000D01*
X192450000Y-77450000D02*
X192450000Y-72850000D01*
X189600000Y-76600000D02*
X189600000Y-73700000D01*
X194250000Y-78300000D02*
X194250000Y-73850000D01*
X193650000Y-77800000D02*
X193650000Y-73350000D01*
X193050000Y-77500000D02*
X193050000Y-72900000D01*
X196350000Y-79650000D02*
X196350000Y-75050000D01*
X197850000Y-79650000D02*
X197850000Y-75050000D01*
X192750000Y-77500000D02*
X192750000Y-72850000D01*
X195450000Y-79650000D02*
X195450000Y-75050000D01*
X189450000Y-73850000D02*
X189450000Y-76450000D01*
X199050000Y-76025000D02*
X199050000Y-78675000D01*
X196200000Y-79650000D02*
X196200000Y-75050000D01*
X189450000Y-76450000D02*
X190475000Y-77475000D01*
X198150000Y-79650000D02*
X198150000Y-75100000D01*
X190050000Y-77050000D02*
X190050000Y-73250000D01*
X198600000Y-79450000D02*
X198600000Y-75250000D01*
D12*
X200650000Y-64401000D02*
X192850000Y-64401000D01*
D10*
X194650000Y-79000000D02*
X194650000Y-74800000D01*
X194100000Y-78150000D02*
X194100000Y-73700000D01*
X189750000Y-76700000D02*
X189750000Y-73550000D01*
X193350000Y-77650000D02*
X193350000Y-73100000D01*
X192600000Y-77450000D02*
X192600000Y-72900000D01*
X194750000Y-79250000D02*
X194750000Y-74850000D01*
X196950000Y-79650000D02*
X196950000Y-75050000D01*
X192900000Y-77500000D02*
X192900000Y-72850000D01*
X194350000Y-78500000D02*
X194350000Y-74350000D01*
X194850000Y-79400000D02*
X194850000Y-74900000D01*
X195750000Y-79650000D02*
X195750000Y-75050000D01*
X193025000Y-72825000D02*
X194300000Y-73850000D01*
X191250000Y-77450000D02*
X191250000Y-72850000D01*
X196800000Y-79650000D02*
X196800000Y-75050000D01*
X190200000Y-77200000D02*
X190200000Y-73100000D01*
X192450000Y-77475000D02*
X190475000Y-77475000D01*
X197100000Y-79650000D02*
X197100000Y-75050000D01*
X195000000Y-79500000D02*
X195000000Y-74950000D01*
X197400000Y-79650000D02*
X197400000Y-75050000D01*
D12*
X192850000Y-69101000D02*
X201150000Y-69101000D01*
D10*
X191100000Y-77450000D02*
X191100000Y-72850000D01*
X198450000Y-79550000D02*
X198450000Y-75150000D01*
X190350000Y-77300000D02*
X190350000Y-72950000D01*
X198700000Y-79350000D02*
X198700000Y-75400000D01*
X189900000Y-76900000D02*
X189900000Y-73400000D01*
X191700000Y-77450000D02*
X191700000Y-72850000D01*
X192150000Y-77450000D02*
X192150000Y-72850000D01*
X195900000Y-79650000D02*
X195900000Y-75050000D01*
D12*
X201150000Y-69101000D02*
X201150000Y-67450000D01*
D10*
X193200000Y-77550000D02*
X193200000Y-73000000D01*
X192000000Y-77450000D02*
X192000000Y-72850000D01*
X198050000Y-79675000D02*
X195450000Y-79675000D01*
X197700000Y-79650000D02*
X197700000Y-75050000D01*
X196650000Y-79650000D02*
X196650000Y-75050000D01*
X194587801Y-78971904D02*
G75*
G03*
X192450000Y-77475000I-2137801J-778096D01*
G01*
X194300000Y-73850000D02*
G75*
G03*
X195475000Y-75025000I1175000J0D01*
G01*
X198050000Y-79675000D02*
G75*
G03*
X199050000Y-78675000I1J999999D01*
G01*
X199050000Y-76025000D02*
G75*
G03*
X198050000Y-75025000I-999999J1D01*
G01*
X194587797Y-78971905D02*
G75*
G03*
X195449005Y-79673791I900003J225005D01*
G01*
G36*
X201150000Y-69101000D02*
G01*
X200142000Y-69101000D01*
X201150000Y-68085000D01*
X201150000Y-69101000D01*
G37*
D13*
X201150000Y-69101000D02*
X200142000Y-69101000D01*
X201150000Y-68085000D01*
X201150000Y-69101000D01*
D10*
X173550000Y-110650000D02*
X173550000Y-106100000D01*
X173250000Y-110650000D02*
X173250000Y-106050000D01*
D12*
X173800000Y-102301000D02*
X182100000Y-102301000D01*
D10*
X175200000Y-111500000D02*
X175200000Y-107050000D01*
X171900000Y-110650000D02*
X171900000Y-106050000D01*
D12*
X182100000Y-102301000D02*
X182100000Y-100650000D01*
D10*
X173100000Y-110650000D02*
X173100000Y-106050000D01*
X175050000Y-111350000D02*
X175050000Y-106900000D01*
X170400000Y-109650000D02*
X171425000Y-110675000D01*
X172500000Y-110650000D02*
X172500000Y-106050000D01*
X172050000Y-110650000D02*
X172050000Y-106050000D01*
X179400000Y-112750000D02*
X179400000Y-108350000D01*
X173975000Y-106025000D02*
X175250000Y-107050000D01*
X172650000Y-110650000D02*
X172650000Y-106050000D01*
X171450000Y-110650000D02*
X171450000Y-106050000D01*
X174450000Y-110900000D02*
X174450000Y-106450000D01*
X171600000Y-110650000D02*
X171600000Y-106050000D01*
X175500000Y-112050000D02*
X175500000Y-107900000D01*
X179850000Y-112300000D02*
X179850000Y-108750000D01*
X172200000Y-110650000D02*
X172200000Y-106050000D01*
X177150000Y-112850000D02*
X177150000Y-108250000D01*
X170850000Y-110100000D02*
X170850000Y-106600000D01*
X174150000Y-110750000D02*
X174150000Y-106200000D01*
X175800000Y-112600000D02*
X175800000Y-108100000D01*
X172800000Y-110650000D02*
X172800000Y-106050000D01*
X175950000Y-112700000D02*
X175950000Y-108150000D01*
D12*
X181600000Y-97601000D02*
X173800000Y-97601000D01*
D10*
X178200000Y-112850000D02*
X178200000Y-108250000D01*
X173700000Y-110700000D02*
X173700000Y-106050000D01*
X179550000Y-112650000D02*
X179550000Y-108450000D01*
X174750000Y-111100000D02*
X174750000Y-106700000D01*
X179250000Y-112800000D02*
X179250000Y-108300000D01*
X171300000Y-110500000D02*
X171300000Y-106150000D01*
X177000000Y-112850000D02*
X177000000Y-108250000D01*
X174900000Y-111200000D02*
X174900000Y-106800000D01*
X178500000Y-112850000D02*
X178500000Y-108250000D01*
X177750000Y-112850000D02*
X177750000Y-108250000D01*
X177600000Y-112850000D02*
X177600000Y-108250000D01*
X175400000Y-111850000D02*
X175400000Y-107700000D01*
X178950000Y-112850000D02*
X178950000Y-108250000D01*
X179750000Y-112450000D02*
X179750000Y-108700000D01*
X174600000Y-111000000D02*
X174600000Y-106550000D01*
X180000000Y-109225000D02*
X180000000Y-111875000D01*
X174300000Y-110850000D02*
X174300000Y-106300000D01*
X178800000Y-112850000D02*
X178800000Y-108250000D01*
X173400000Y-110675000D02*
X171425000Y-110675000D01*
X179000000Y-112875000D02*
X176400000Y-112875000D01*
X170700000Y-109900000D02*
X170700000Y-106750000D01*
X176250000Y-112850000D02*
X176250000Y-108250000D01*
X177900000Y-112850000D02*
X177900000Y-108250000D01*
X172950000Y-110650000D02*
X172950000Y-106050000D01*
X176550000Y-112850000D02*
X176550000Y-108300000D01*
X173400000Y-110650000D02*
X173400000Y-106050000D01*
X174000000Y-110700000D02*
X174000000Y-106100000D01*
X171150000Y-110400000D02*
X171150000Y-106300000D01*
X175300000Y-111700000D02*
X175300000Y-107550000D01*
X179000000Y-108225000D02*
X176425000Y-108225000D01*
X178650000Y-112850000D02*
X178650000Y-108250000D01*
X172350000Y-110650000D02*
X172350000Y-106050000D01*
X173850000Y-110700000D02*
X173850000Y-106050000D01*
X170550000Y-109800000D02*
X170550000Y-106900000D01*
X179650000Y-112550000D02*
X179650000Y-108600000D01*
X175700000Y-112450000D02*
X175700000Y-108050000D01*
X175600000Y-112200000D02*
X175600000Y-108000000D01*
X177300000Y-112850000D02*
X177300000Y-108250000D01*
X176100000Y-112800000D02*
X176100000Y-108250000D01*
X178050000Y-112850000D02*
X178050000Y-108250000D01*
X176850000Y-112850000D02*
X176850000Y-108250000D01*
X171000000Y-110250000D02*
X171000000Y-106450000D01*
X170400000Y-107050000D02*
X171425000Y-106025000D01*
X171750000Y-110650000D02*
X171750000Y-106050000D01*
X176400000Y-112850000D02*
X176400000Y-108250000D01*
X170400000Y-107050000D02*
X170400000Y-109650000D01*
X176700000Y-112850000D02*
X176700000Y-108250000D01*
X179100000Y-112850000D02*
X179100000Y-108300000D01*
X178350000Y-112850000D02*
X178350000Y-108250000D01*
X177450000Y-112850000D02*
X177450000Y-108250000D01*
X173975000Y-106025000D02*
X171425000Y-106025000D01*
X175250000Y-107050000D02*
G75*
G03*
X176425000Y-108225000I1175000J0D01*
G01*
X179000000Y-112875000D02*
G75*
G03*
X180000000Y-111875000I1J999999D01*
G01*
X180000000Y-109225000D02*
G75*
G03*
X179000000Y-108225000I-999999J1D01*
G01*
X175537797Y-112171905D02*
G75*
G03*
X176399005Y-112873791I900003J225005D01*
G01*
X175537801Y-112171904D02*
G75*
G03*
X173400000Y-110675000I-2137801J-778096D01*
G01*
G36*
X182100000Y-102301000D02*
G01*
X181092000Y-102301000D01*
X182100000Y-101285000D01*
X182100000Y-102301000D01*
G37*
D13*
X182100000Y-102301000D02*
X181092000Y-102301000D01*
X182100000Y-101285000D01*
X182100000Y-102301000D01*
D10*
X198600000Y-98500000D02*
X198600000Y-94300000D01*
X194100000Y-97200000D02*
X194100000Y-92750000D01*
X194550000Y-97900000D02*
X194550000Y-93750000D01*
X190800000Y-96500000D02*
X190800000Y-91900000D01*
D12*
X201150000Y-88151000D02*
X201150000Y-86500000D01*
D10*
X191250000Y-96500000D02*
X191250000Y-91900000D01*
X198450000Y-98600000D02*
X198450000Y-94200000D01*
X190050000Y-96100000D02*
X190050000Y-92300000D01*
X193350000Y-96700000D02*
X193350000Y-92150000D01*
X190350000Y-96350000D02*
X190350000Y-92000000D01*
X198300000Y-98650000D02*
X198300000Y-94150000D01*
X192900000Y-96550000D02*
X192900000Y-91900000D01*
X198000000Y-98700000D02*
X198000000Y-94100000D01*
X191400000Y-96500000D02*
X191400000Y-91900000D01*
X192450000Y-96500000D02*
X192450000Y-91900000D01*
X195000000Y-98550000D02*
X195000000Y-94000000D01*
X193500000Y-96750000D02*
X193500000Y-92300000D01*
X192150000Y-96500000D02*
X192150000Y-91900000D01*
X193650000Y-96850000D02*
X193650000Y-92400000D01*
X193050000Y-96550000D02*
X193050000Y-91950000D01*
X196950000Y-98700000D02*
X196950000Y-94100000D01*
X194650000Y-98050000D02*
X194650000Y-93850000D01*
X193950000Y-97050000D02*
X193950000Y-92650000D01*
X196800000Y-98700000D02*
X196800000Y-94100000D01*
X192600000Y-96500000D02*
X192600000Y-91950000D01*
X189900000Y-95950000D02*
X189900000Y-92450000D01*
X192450000Y-96525000D02*
X190475000Y-96525000D01*
X194450000Y-97700000D02*
X194450000Y-93550000D01*
X198800000Y-98300000D02*
X198800000Y-94550000D01*
X194750000Y-98300000D02*
X194750000Y-93900000D01*
X197100000Y-98700000D02*
X197100000Y-94100000D01*
X190950000Y-96500000D02*
X190950000Y-91900000D01*
X192300000Y-96500000D02*
X192300000Y-91900000D01*
X196200000Y-98700000D02*
X196200000Y-94100000D01*
X190500000Y-96500000D02*
X190500000Y-91900000D01*
X191100000Y-96500000D02*
X191100000Y-91900000D01*
X194350000Y-97550000D02*
X194350000Y-93400000D01*
X197400000Y-98700000D02*
X197400000Y-94100000D01*
X198700000Y-98400000D02*
X198700000Y-94450000D01*
X195150000Y-98650000D02*
X195150000Y-94100000D01*
X196500000Y-98700000D02*
X196500000Y-94100000D01*
X196350000Y-98700000D02*
X196350000Y-94100000D01*
D12*
X192850000Y-88151000D02*
X201150000Y-88151000D01*
D10*
X193200000Y-96600000D02*
X193200000Y-92050000D01*
X195450000Y-98700000D02*
X195450000Y-94100000D01*
X189750000Y-95750000D02*
X189750000Y-92600000D01*
X191700000Y-96500000D02*
X191700000Y-91900000D01*
X190200000Y-96250000D02*
X190200000Y-92150000D01*
X193025000Y-91875000D02*
X190475000Y-91875000D01*
X195900000Y-98700000D02*
X195900000Y-94100000D01*
X198050000Y-94075000D02*
X195475000Y-94075000D01*
X189450000Y-92900000D02*
X190475000Y-91875000D01*
X193800000Y-96950000D02*
X193800000Y-92550000D01*
X189600000Y-95650000D02*
X189600000Y-92750000D01*
X193025000Y-91875000D02*
X194300000Y-92900000D01*
X192750000Y-96550000D02*
X192750000Y-91900000D01*
X189450000Y-92900000D02*
X189450000Y-95500000D01*
X191550000Y-96500000D02*
X191550000Y-91900000D01*
X189450000Y-95500000D02*
X190475000Y-96525000D01*
X197850000Y-98700000D02*
X197850000Y-94100000D01*
X190650000Y-96500000D02*
X190650000Y-91900000D01*
X195300000Y-98700000D02*
X195300000Y-94100000D01*
X194250000Y-97350000D02*
X194250000Y-92900000D01*
X196050000Y-98700000D02*
X196050000Y-94100000D01*
X197250000Y-98700000D02*
X197250000Y-94100000D01*
X195750000Y-98700000D02*
X195750000Y-94100000D01*
X198050000Y-98725000D02*
X195450000Y-98725000D01*
X192000000Y-96500000D02*
X192000000Y-91900000D01*
D12*
X200650000Y-83451000D02*
X192850000Y-83451000D01*
D10*
X195600000Y-98700000D02*
X195600000Y-94150000D01*
X196650000Y-98700000D02*
X196650000Y-94100000D01*
X198150000Y-98700000D02*
X198150000Y-94150000D01*
X197550000Y-98700000D02*
X197550000Y-94100000D01*
X198900000Y-98150000D02*
X198900000Y-94600000D01*
X199050000Y-95075000D02*
X199050000Y-97725000D01*
X197700000Y-98700000D02*
X197700000Y-94100000D01*
X191850000Y-96500000D02*
X191850000Y-91900000D01*
X194850000Y-98450000D02*
X194850000Y-93950000D01*
X199050000Y-95075000D02*
G75*
G03*
X198050000Y-94075000I-999999J1D01*
G01*
X194587797Y-98021905D02*
G75*
G03*
X195449005Y-98723791I900003J225005D01*
G01*
X198050000Y-98725000D02*
G75*
G03*
X199050000Y-97725000I1J999999D01*
G01*
X194300000Y-92900000D02*
G75*
G03*
X195475000Y-94075000I1175000J0D01*
G01*
X194587801Y-98021904D02*
G75*
G03*
X192450000Y-96525000I-2137801J-778096D01*
G01*
G36*
X201150000Y-88151000D02*
G01*
X200142000Y-88151000D01*
X201150000Y-87135000D01*
X201150000Y-88151000D01*
G37*
D13*
X201150000Y-88151000D02*
X200142000Y-88151000D01*
X201150000Y-87135000D01*
X201150000Y-88151000D01*
D10*
X156750000Y-129150000D02*
X156750000Y-124650000D01*
X158550000Y-129400000D02*
X158550000Y-124800000D01*
X155850000Y-127750000D02*
X155850000Y-123350000D01*
X160800000Y-128850000D02*
X160800000Y-125300000D01*
X160950000Y-125775000D02*
X160950000Y-128425000D01*
X159950000Y-129425000D02*
X157350000Y-129425000D01*
X157350000Y-129400000D02*
X157350000Y-124800000D01*
X155250000Y-127400000D02*
X155250000Y-122850000D01*
X156550000Y-128750000D02*
X156550000Y-124550000D01*
X160600000Y-129100000D02*
X160600000Y-125150000D01*
X156650000Y-129000000D02*
X156650000Y-124600000D01*
X153000000Y-127200000D02*
X153000000Y-122600000D01*
X155400000Y-127450000D02*
X155400000Y-123000000D01*
X156350000Y-128400000D02*
X156350000Y-124250000D01*
X151800000Y-126650000D02*
X151800000Y-123150000D01*
X157650000Y-129400000D02*
X157650000Y-124800000D01*
X156250000Y-128250000D02*
X156250000Y-124100000D01*
X154925000Y-122575000D02*
X152375000Y-122575000D01*
X158100000Y-129400000D02*
X158100000Y-124800000D01*
X160700000Y-129000000D02*
X160700000Y-125250000D01*
D12*
X163050000Y-118851000D02*
X163050000Y-117200000D01*
D10*
X156900000Y-129250000D02*
X156900000Y-124700000D01*
X153450000Y-127200000D02*
X153450000Y-122600000D01*
X153600000Y-127200000D02*
X153600000Y-122600000D01*
X154350000Y-127200000D02*
X154350000Y-122600000D01*
X151350000Y-126200000D02*
X152375000Y-127225000D01*
X156450000Y-128600000D02*
X156450000Y-124450000D01*
X156000000Y-127900000D02*
X156000000Y-123450000D01*
X154925000Y-122575000D02*
X156200000Y-123600000D01*
X152850000Y-127200000D02*
X152850000Y-122600000D01*
X155550000Y-127550000D02*
X155550000Y-123100000D01*
X154950000Y-127250000D02*
X154950000Y-122650000D01*
X154650000Y-127250000D02*
X154650000Y-122600000D01*
X151350000Y-123600000D02*
X151350000Y-126200000D01*
X154800000Y-127250000D02*
X154800000Y-122600000D01*
X151350000Y-123600000D02*
X152375000Y-122575000D01*
X157050000Y-129350000D02*
X157050000Y-124800000D01*
D12*
X154750000Y-118851000D02*
X163050000Y-118851000D01*
D10*
X151950000Y-126800000D02*
X151950000Y-123000000D01*
X159950000Y-124775000D02*
X157375000Y-124775000D01*
X158250000Y-129400000D02*
X158250000Y-124800000D01*
X157500000Y-129400000D02*
X157500000Y-124850000D01*
X151650000Y-126450000D02*
X151650000Y-123300000D01*
X160500000Y-129200000D02*
X160500000Y-125000000D01*
X153150000Y-127200000D02*
X153150000Y-122600000D01*
X152550000Y-127200000D02*
X152550000Y-122600000D01*
X158400000Y-129400000D02*
X158400000Y-124800000D01*
X160350000Y-129300000D02*
X160350000Y-124900000D01*
X154050000Y-127200000D02*
X154050000Y-122600000D01*
X154350000Y-127225000D02*
X152375000Y-127225000D01*
X157800000Y-129400000D02*
X157800000Y-124800000D01*
D12*
X162550000Y-114151000D02*
X154750000Y-114151000D01*
D10*
X159900000Y-129400000D02*
X159900000Y-124800000D01*
X152250000Y-127050000D02*
X152250000Y-122700000D01*
X151500000Y-126350000D02*
X151500000Y-123450000D01*
X153300000Y-127200000D02*
X153300000Y-122600000D01*
X158700000Y-129400000D02*
X158700000Y-124800000D01*
X157950000Y-129400000D02*
X157950000Y-124800000D01*
X154500000Y-127200000D02*
X154500000Y-122650000D01*
X160200000Y-129350000D02*
X160200000Y-124850000D01*
X155100000Y-127300000D02*
X155100000Y-122750000D01*
X153750000Y-127200000D02*
X153750000Y-122600000D01*
X153900000Y-127200000D02*
X153900000Y-122600000D01*
X159300000Y-129400000D02*
X159300000Y-124800000D01*
X160050000Y-129400000D02*
X160050000Y-124850000D01*
X159750000Y-129400000D02*
X159750000Y-124800000D01*
X155700000Y-127650000D02*
X155700000Y-123250000D01*
X159000000Y-129400000D02*
X159000000Y-124800000D01*
X159150000Y-129400000D02*
X159150000Y-124800000D01*
X152100000Y-126950000D02*
X152100000Y-122850000D01*
X157200000Y-129400000D02*
X157200000Y-124800000D01*
X159450000Y-129400000D02*
X159450000Y-124800000D01*
X154200000Y-127200000D02*
X154200000Y-122600000D01*
X156150000Y-128050000D02*
X156150000Y-123600000D01*
X158850000Y-129400000D02*
X158850000Y-124800000D01*
X159600000Y-129400000D02*
X159600000Y-124800000D01*
X152700000Y-127200000D02*
X152700000Y-122600000D01*
X152400000Y-127200000D02*
X152400000Y-122600000D01*
X160950000Y-125775000D02*
G75*
G03*
X159950000Y-124775000I-999999J1D01*
G01*
X156487797Y-128721905D02*
G75*
G03*
X157349005Y-129423791I900003J225005D01*
G01*
X156487801Y-128721904D02*
G75*
G03*
X154350000Y-127225000I-2137801J-778096D01*
G01*
X156200000Y-123600000D02*
G75*
G03*
X157375000Y-124775000I1175000J0D01*
G01*
X159950000Y-129425000D02*
G75*
G03*
X160950000Y-128425000I1J999999D01*
G01*
G36*
X163050000Y-118851000D02*
G01*
X162042000Y-118851000D01*
X163050000Y-117835000D01*
X163050000Y-118851000D01*
G37*
D13*
X163050000Y-118851000D02*
X162042000Y-118851000D01*
X163050000Y-117835000D01*
X163050000Y-118851000D01*
D10*
X155250000Y-89300000D02*
X155250000Y-84750000D01*
D12*
X163050000Y-80751000D02*
X163050000Y-79100000D01*
D10*
X158250000Y-91300000D02*
X158250000Y-86700000D01*
X153750000Y-89100000D02*
X153750000Y-84500000D01*
X156650000Y-90900000D02*
X156650000Y-86500000D01*
X160950000Y-87675000D02*
X160950000Y-90325000D01*
X152700000Y-89100000D02*
X152700000Y-84500000D01*
X156550000Y-90650000D02*
X156550000Y-86450000D01*
X153600000Y-89100000D02*
X153600000Y-84500000D01*
X154650000Y-89150000D02*
X154650000Y-84500000D01*
X157950000Y-91300000D02*
X157950000Y-86700000D01*
D12*
X162550000Y-76051000D02*
X154750000Y-76051000D01*
D10*
X152550000Y-89100000D02*
X152550000Y-84500000D01*
X160050000Y-91300000D02*
X160050000Y-86750000D01*
X160350000Y-91200000D02*
X160350000Y-86800000D01*
X151500000Y-88250000D02*
X151500000Y-85350000D01*
X154800000Y-89150000D02*
X154800000Y-84500000D01*
X154925000Y-84475000D02*
X152375000Y-84475000D01*
X156150000Y-89950000D02*
X156150000Y-85500000D01*
X157500000Y-91300000D02*
X157500000Y-86750000D01*
X160700000Y-90900000D02*
X160700000Y-87150000D01*
X159600000Y-91300000D02*
X159600000Y-86700000D01*
X156000000Y-89800000D02*
X156000000Y-85350000D01*
X159150000Y-91300000D02*
X159150000Y-86700000D01*
X151650000Y-88350000D02*
X151650000Y-85200000D01*
X156250000Y-90150000D02*
X156250000Y-86000000D01*
X158400000Y-91300000D02*
X158400000Y-86700000D01*
X155700000Y-89550000D02*
X155700000Y-85150000D01*
X159450000Y-91300000D02*
X159450000Y-86700000D01*
X151350000Y-88100000D02*
X152375000Y-89125000D01*
X154200000Y-89100000D02*
X154200000Y-84500000D01*
X159900000Y-91300000D02*
X159900000Y-86700000D01*
X154925000Y-84475000D02*
X156200000Y-85500000D01*
X159000000Y-91300000D02*
X159000000Y-86700000D01*
X152400000Y-89100000D02*
X152400000Y-84500000D01*
X153900000Y-89100000D02*
X153900000Y-84500000D01*
X154950000Y-89150000D02*
X154950000Y-84550000D01*
X160800000Y-90750000D02*
X160800000Y-87200000D01*
X157050000Y-91250000D02*
X157050000Y-86700000D01*
X158550000Y-91300000D02*
X158550000Y-86700000D01*
X158100000Y-91300000D02*
X158100000Y-86700000D01*
X159750000Y-91300000D02*
X159750000Y-86700000D01*
X154350000Y-89125000D02*
X152375000Y-89125000D01*
X152100000Y-88850000D02*
X152100000Y-84750000D01*
D12*
X154750000Y-80751000D02*
X163050000Y-80751000D01*
D10*
X155550000Y-89450000D02*
X155550000Y-85000000D01*
X157200000Y-91300000D02*
X157200000Y-86700000D01*
X160500000Y-91100000D02*
X160500000Y-86900000D01*
X157650000Y-91300000D02*
X157650000Y-86700000D01*
X159300000Y-91300000D02*
X159300000Y-86700000D01*
X158700000Y-91300000D02*
X158700000Y-86700000D01*
X160600000Y-91000000D02*
X160600000Y-87050000D01*
X156350000Y-90300000D02*
X156350000Y-86150000D01*
X153450000Y-89100000D02*
X153450000Y-84500000D01*
X155100000Y-89200000D02*
X155100000Y-84650000D01*
X153000000Y-89100000D02*
X153000000Y-84500000D01*
X154500000Y-89100000D02*
X154500000Y-84550000D01*
X156750000Y-91050000D02*
X156750000Y-86550000D01*
X151800000Y-88550000D02*
X151800000Y-85050000D01*
X159950000Y-86675000D02*
X157375000Y-86675000D01*
X160200000Y-91250000D02*
X160200000Y-86750000D01*
X151350000Y-85500000D02*
X151350000Y-88100000D01*
X159950000Y-91325000D02*
X157350000Y-91325000D01*
X152250000Y-88950000D02*
X152250000Y-84600000D01*
X157350000Y-91300000D02*
X157350000Y-86700000D01*
X154350000Y-89100000D02*
X154350000Y-84500000D01*
X151950000Y-88700000D02*
X151950000Y-84900000D01*
X152850000Y-89100000D02*
X152850000Y-84500000D01*
X157800000Y-91300000D02*
X157800000Y-86700000D01*
X153300000Y-89100000D02*
X153300000Y-84500000D01*
X151350000Y-85500000D02*
X152375000Y-84475000D01*
X156900000Y-91150000D02*
X156900000Y-86600000D01*
X154050000Y-89100000D02*
X154050000Y-84500000D01*
X156450000Y-90500000D02*
X156450000Y-86350000D01*
X155400000Y-89350000D02*
X155400000Y-84900000D01*
X158850000Y-91300000D02*
X158850000Y-86700000D01*
X153150000Y-89100000D02*
X153150000Y-84500000D01*
X155850000Y-89650000D02*
X155850000Y-85250000D01*
X160950000Y-87675000D02*
G75*
G03*
X159950000Y-86675000I-999999J1D01*
G01*
X159950000Y-91325000D02*
G75*
G03*
X160950000Y-90325000I1J999999D01*
G01*
X156487797Y-90621905D02*
G75*
G03*
X157349005Y-91323791I900003J225005D01*
G01*
X156200000Y-85500000D02*
G75*
G03*
X157375000Y-86675000I1175000J0D01*
G01*
X156487801Y-90621904D02*
G75*
G03*
X154350000Y-89125000I-2137801J-778096D01*
G01*
G36*
X163050000Y-80751000D02*
G01*
X162042000Y-80751000D01*
X163050000Y-79735000D01*
X163050000Y-80751000D01*
G37*
D13*
X163050000Y-80751000D02*
X162042000Y-80751000D01*
X163050000Y-79735000D01*
X163050000Y-80751000D01*
D12*
X143500000Y-40451000D02*
X135700000Y-40451000D01*
D10*
X140900000Y-55725000D02*
X138300000Y-55725000D01*
X135450000Y-53500000D02*
X135450000Y-48950000D01*
X141650000Y-55300000D02*
X141650000Y-51550000D01*
X137600000Y-55300000D02*
X137600000Y-50900000D01*
X139200000Y-55700000D02*
X139200000Y-51100000D01*
X134400000Y-53500000D02*
X134400000Y-48900000D01*
X133200000Y-53350000D02*
X133200000Y-49000000D01*
X138000000Y-55650000D02*
X138000000Y-51100000D01*
X141450000Y-55500000D02*
X141450000Y-51300000D01*
X139800000Y-55700000D02*
X139800000Y-51100000D01*
X137100000Y-54350000D02*
X137100000Y-49900000D01*
D12*
X144000000Y-45151000D02*
X144000000Y-43500000D01*
D10*
X139650000Y-55700000D02*
X139650000Y-51100000D01*
X137850000Y-55550000D02*
X137850000Y-51000000D01*
X137400000Y-54900000D02*
X137400000Y-50750000D01*
X140850000Y-55700000D02*
X140850000Y-51100000D01*
X139350000Y-55700000D02*
X139350000Y-51100000D01*
X141750000Y-55150000D02*
X141750000Y-51600000D01*
X138450000Y-55700000D02*
X138450000Y-51150000D01*
X141300000Y-55600000D02*
X141300000Y-51200000D01*
X137500000Y-55050000D02*
X137500000Y-50850000D01*
X141150000Y-55650000D02*
X141150000Y-51150000D01*
X136350000Y-53750000D02*
X136350000Y-49300000D01*
X135300000Y-53500000D02*
X135300000Y-48900000D01*
X140700000Y-55700000D02*
X140700000Y-51100000D01*
X132450000Y-52650000D02*
X132450000Y-49750000D01*
X136050000Y-53600000D02*
X136050000Y-49050000D01*
X135750000Y-53550000D02*
X135750000Y-48900000D01*
X134700000Y-53500000D02*
X134700000Y-48900000D01*
X135600000Y-53550000D02*
X135600000Y-48900000D01*
X134250000Y-53500000D02*
X134250000Y-48900000D01*
X141900000Y-52075000D02*
X141900000Y-54725000D01*
X140250000Y-55700000D02*
X140250000Y-51100000D01*
X133950000Y-53500000D02*
X133950000Y-48900000D01*
X133650000Y-53500000D02*
X133650000Y-48900000D01*
X137200000Y-54550000D02*
X137200000Y-50400000D01*
X137700000Y-55450000D02*
X137700000Y-50950000D01*
X133500000Y-53500000D02*
X133500000Y-48900000D01*
X135875000Y-48875000D02*
X137150000Y-49900000D01*
X139050000Y-55700000D02*
X139050000Y-51100000D01*
X140400000Y-55700000D02*
X140400000Y-51100000D01*
X135875000Y-48875000D02*
X133325000Y-48875000D01*
X133050000Y-53250000D02*
X133050000Y-49150000D01*
D12*
X135700000Y-45151000D02*
X144000000Y-45151000D01*
D10*
X135300000Y-53525000D02*
X133325000Y-53525000D01*
X134100000Y-53500000D02*
X134100000Y-48900000D01*
X135150000Y-53500000D02*
X135150000Y-48900000D01*
X140100000Y-55700000D02*
X140100000Y-51100000D01*
X132600000Y-52750000D02*
X132600000Y-49600000D01*
X138750000Y-55700000D02*
X138750000Y-51100000D01*
X139500000Y-55700000D02*
X139500000Y-51100000D01*
X134550000Y-53500000D02*
X134550000Y-48900000D01*
X141000000Y-55700000D02*
X141000000Y-51150000D01*
X136200000Y-53700000D02*
X136200000Y-49150000D01*
X134850000Y-53500000D02*
X134850000Y-48900000D01*
X138600000Y-55700000D02*
X138600000Y-51100000D01*
X137300000Y-54700000D02*
X137300000Y-50550000D01*
X132900000Y-53100000D02*
X132900000Y-49300000D01*
X136950000Y-54200000D02*
X136950000Y-49750000D01*
X136650000Y-53950000D02*
X136650000Y-49550000D01*
X135000000Y-53500000D02*
X135000000Y-48900000D01*
X136800000Y-54050000D02*
X136800000Y-49650000D01*
X138900000Y-55700000D02*
X138900000Y-51100000D01*
X140550000Y-55700000D02*
X140550000Y-51100000D01*
X138300000Y-55700000D02*
X138300000Y-51100000D01*
X132300000Y-52500000D02*
X133325000Y-53525000D01*
X135900000Y-53550000D02*
X135900000Y-48950000D01*
X138150000Y-55700000D02*
X138150000Y-51100000D01*
X136500000Y-53850000D02*
X136500000Y-49400000D01*
X132750000Y-52950000D02*
X132750000Y-49450000D01*
X141550000Y-55400000D02*
X141550000Y-51450000D01*
X133800000Y-53500000D02*
X133800000Y-48900000D01*
X139950000Y-55700000D02*
X139950000Y-51100000D01*
X140900000Y-51075000D02*
X138325000Y-51075000D01*
X133350000Y-53500000D02*
X133350000Y-48900000D01*
X132300000Y-49900000D02*
X133325000Y-48875000D01*
X132300000Y-49900000D02*
X132300000Y-52500000D01*
X141900000Y-52075000D02*
G75*
G03*
X140900000Y-51075000I-999999J1D01*
G01*
X137437801Y-55021904D02*
G75*
G03*
X135300000Y-53525000I-2137801J-778096D01*
G01*
X140900000Y-55725000D02*
G75*
G03*
X141900000Y-54725000I1J999999D01*
G01*
X137437797Y-55021905D02*
G75*
G03*
X138299005Y-55723791I900003J225005D01*
G01*
X137150000Y-49900000D02*
G75*
G03*
X138325000Y-51075000I1175000J0D01*
G01*
G36*
X144000000Y-45151000D02*
G01*
X142992000Y-45151000D01*
X144000000Y-44135000D01*
X144000000Y-45151000D01*
G37*
D13*
X144000000Y-45151000D02*
X142992000Y-45151000D01*
X144000000Y-44135000D01*
X144000000Y-45151000D01*
D10*
X109986372Y-129514553D02*
X109020447Y-129773372D01*
X109399633Y-126358886D02*
X107950744Y-126747115D01*
X109020447Y-129773372D02*
X109270472Y-128774630D01*
X109270472Y-128774630D02*
X109986372Y-129514553D01*
X107950744Y-126747115D02*
X109348367Y-131963114D01*
X110797256Y-131574885D02*
X109399633Y-126358886D01*
X109348367Y-131963114D02*
X110797256Y-131574885D01*
X109727553Y-128548628D02*
X108761628Y-128807447D01*
X136350000Y-110900000D02*
X136350000Y-106450000D01*
X140250000Y-112850000D02*
X140250000Y-108250000D01*
X132900000Y-110250000D02*
X132900000Y-106450000D01*
X136200000Y-110850000D02*
X136200000Y-106300000D01*
X135875000Y-106025000D02*
X137150000Y-107050000D01*
X133650000Y-110650000D02*
X133650000Y-106050000D01*
X135300000Y-110650000D02*
X135300000Y-106050000D01*
X139200000Y-112850000D02*
X139200000Y-108250000D01*
X138750000Y-112850000D02*
X138750000Y-108250000D01*
X135300000Y-110675000D02*
X133325000Y-110675000D01*
X133200000Y-110500000D02*
X133200000Y-106150000D01*
X134850000Y-110650000D02*
X134850000Y-106050000D01*
X140700000Y-112850000D02*
X140700000Y-108250000D01*
D12*
X135700000Y-102301000D02*
X144000000Y-102301000D01*
D10*
X141900000Y-109225000D02*
X141900000Y-111875000D01*
X132300000Y-109650000D02*
X133325000Y-110675000D01*
X139800000Y-112850000D02*
X139800000Y-108250000D01*
X135875000Y-106025000D02*
X133325000Y-106025000D01*
X137300000Y-111850000D02*
X137300000Y-107700000D01*
X140900000Y-108225000D02*
X138325000Y-108225000D01*
X133950000Y-110650000D02*
X133950000Y-106050000D01*
X139050000Y-112850000D02*
X139050000Y-108250000D01*
X132600000Y-109900000D02*
X132600000Y-106750000D01*
X134550000Y-110650000D02*
X134550000Y-106050000D01*
X137700000Y-112600000D02*
X137700000Y-108100000D01*
X133050000Y-110400000D02*
X133050000Y-106300000D01*
X134100000Y-110650000D02*
X134100000Y-106050000D01*
X140100000Y-112850000D02*
X140100000Y-108250000D01*
X138000000Y-112800000D02*
X138000000Y-108250000D01*
X141300000Y-112750000D02*
X141300000Y-108350000D01*
X136950000Y-111350000D02*
X136950000Y-106900000D01*
X132300000Y-107050000D02*
X132300000Y-109650000D01*
D12*
X143500000Y-97601000D02*
X135700000Y-97601000D01*
X144000000Y-102301000D02*
X144000000Y-100650000D01*
D10*
X141150000Y-112800000D02*
X141150000Y-108300000D01*
X139950000Y-112850000D02*
X139950000Y-108250000D01*
X133350000Y-110650000D02*
X133350000Y-106050000D01*
X134400000Y-110650000D02*
X134400000Y-106050000D01*
X136800000Y-111200000D02*
X136800000Y-106800000D01*
X140550000Y-112850000D02*
X140550000Y-108250000D01*
X135000000Y-110650000D02*
X135000000Y-106050000D01*
X134700000Y-110650000D02*
X134700000Y-106050000D01*
X137600000Y-112450000D02*
X137600000Y-108050000D01*
X138600000Y-112850000D02*
X138600000Y-108250000D01*
X137500000Y-112200000D02*
X137500000Y-108000000D01*
X138150000Y-112850000D02*
X138150000Y-108250000D01*
X137200000Y-111700000D02*
X137200000Y-107550000D01*
X135450000Y-110650000D02*
X135450000Y-106100000D01*
X137100000Y-111500000D02*
X137100000Y-107050000D01*
X141450000Y-112650000D02*
X141450000Y-108450000D01*
X138450000Y-112850000D02*
X138450000Y-108300000D01*
X140850000Y-112850000D02*
X140850000Y-108250000D01*
X135900000Y-110700000D02*
X135900000Y-106100000D01*
X140400000Y-112850000D02*
X140400000Y-108250000D01*
X135150000Y-110650000D02*
X135150000Y-106050000D01*
X132450000Y-109800000D02*
X132450000Y-106900000D01*
X138300000Y-112850000D02*
X138300000Y-108250000D01*
X138900000Y-112850000D02*
X138900000Y-108250000D01*
X134250000Y-110650000D02*
X134250000Y-106050000D01*
X132300000Y-107050000D02*
X133325000Y-106025000D01*
X133800000Y-110650000D02*
X133800000Y-106050000D01*
X141750000Y-112300000D02*
X141750000Y-108750000D01*
X139650000Y-112850000D02*
X139650000Y-108250000D01*
X133500000Y-110650000D02*
X133500000Y-106050000D01*
X135600000Y-110700000D02*
X135600000Y-106050000D01*
X139350000Y-112850000D02*
X139350000Y-108250000D01*
X140900000Y-112875000D02*
X138300000Y-112875000D01*
X135750000Y-110700000D02*
X135750000Y-106050000D01*
X137850000Y-112700000D02*
X137850000Y-108150000D01*
X132750000Y-110100000D02*
X132750000Y-106600000D01*
X141000000Y-112850000D02*
X141000000Y-108300000D01*
X139500000Y-112850000D02*
X139500000Y-108250000D01*
X136500000Y-111000000D02*
X136500000Y-106550000D01*
X137400000Y-112050000D02*
X137400000Y-107900000D01*
X136650000Y-111100000D02*
X136650000Y-106700000D01*
X141550000Y-112550000D02*
X141550000Y-108600000D01*
X136050000Y-110750000D02*
X136050000Y-106200000D01*
X141650000Y-112450000D02*
X141650000Y-108700000D01*
X137437797Y-112171905D02*
G75*
G03*
X138299005Y-112873791I900003J225005D01*
G01*
X140900000Y-112875000D02*
G75*
G03*
X141900000Y-111875000I1J999999D01*
G01*
X137437801Y-112171904D02*
G75*
G03*
X135300000Y-110675000I-2137801J-778096D01*
G01*
X137150000Y-107050000D02*
G75*
G03*
X138325000Y-108225000I1175000J0D01*
G01*
X141900000Y-109225000D02*
G75*
G03*
X140900000Y-108225000I-999999J1D01*
G01*
G36*
X144000000Y-102301000D02*
G01*
X142992000Y-102301000D01*
X144000000Y-101285000D01*
X144000000Y-102301000D01*
G37*
D13*
X144000000Y-102301000D02*
X142992000Y-102301000D01*
X144000000Y-101285000D01*
X144000000Y-102301000D01*
D10*
X150845000Y-81420000D02*
X149845000Y-81420000D01*
X150845000Y-82420000D02*
X149845000Y-82420000D01*
X149595000Y-79220000D02*
X149595000Y-84620000D01*
X151095000Y-79220000D02*
X149595000Y-79220000D01*
X150345000Y-81520000D02*
X150845000Y-82420000D01*
X151095000Y-84620000D02*
X151095000Y-79220000D01*
X149845000Y-82420000D02*
X150345000Y-81520000D01*
X149595000Y-84620000D02*
X151095000Y-84620000D01*
X169339120Y-81702640D02*
X168339120Y-81702640D01*
X168339120Y-82702640D02*
X168839120Y-81802640D01*
X168089120Y-79502640D02*
X168089120Y-84902640D01*
X169339120Y-82702640D02*
X168339120Y-82702640D01*
X169589120Y-84902640D02*
X169589120Y-79502640D01*
X169589120Y-79502640D02*
X168089120Y-79502640D01*
X168089120Y-84902640D02*
X169589120Y-84902640D01*
X168839120Y-81802640D02*
X169339120Y-82702640D01*
X188639120Y-84202640D02*
X187639120Y-84202640D01*
X187389120Y-82002640D02*
X187389120Y-87402640D01*
X187389120Y-87402640D02*
X188889120Y-87402640D01*
X188889120Y-82002640D02*
X187389120Y-82002640D01*
X187639120Y-85202640D02*
X188139120Y-84302640D01*
X188889120Y-87402640D02*
X188889120Y-82002640D01*
X188639120Y-85202640D02*
X187639120Y-85202640D01*
X188139120Y-84302640D02*
X188639120Y-85202640D01*
X206945000Y-89730000D02*
X207445000Y-88830000D01*
X207945000Y-88730000D02*
X206945000Y-88730000D01*
X207945000Y-89730000D02*
X206945000Y-89730000D01*
X208195000Y-86530000D02*
X206695000Y-86530000D01*
X206695000Y-86530000D02*
X206695000Y-91930000D01*
X206695000Y-91930000D02*
X208195000Y-91930000D01*
X207445000Y-88830000D02*
X207945000Y-89730000D01*
X208195000Y-91930000D02*
X208195000Y-86530000D01*
X130495000Y-119730000D02*
X130495000Y-125130000D01*
X131995000Y-125130000D02*
X131995000Y-119730000D01*
X130745000Y-122930000D02*
X131245000Y-122030000D01*
X131995000Y-119730000D02*
X130495000Y-119730000D01*
X131245000Y-122030000D02*
X131745000Y-122930000D01*
X131745000Y-121930000D02*
X130745000Y-121930000D01*
X130495000Y-125130000D02*
X131995000Y-125130000D01*
X131745000Y-122930000D02*
X130745000Y-122930000D01*
X151095000Y-122720000D02*
X151095000Y-117320000D01*
X149595000Y-117320000D02*
X149595000Y-122720000D01*
X150845000Y-119520000D02*
X149845000Y-119520000D01*
X150845000Y-120520000D02*
X149845000Y-120520000D01*
X149595000Y-122720000D02*
X151095000Y-122720000D01*
X151095000Y-117320000D02*
X149595000Y-117320000D01*
X150345000Y-119620000D02*
X150845000Y-120520000D01*
X149845000Y-120520000D02*
X150345000Y-119620000D01*
X207995000Y-108730000D02*
X206995000Y-108730000D01*
X207995000Y-107730000D02*
X206995000Y-107730000D01*
X208245000Y-105530000D02*
X206745000Y-105530000D01*
X206745000Y-110930000D02*
X208245000Y-110930000D01*
X207495000Y-107830000D02*
X207995000Y-108730000D01*
X206995000Y-108730000D02*
X207495000Y-107830000D01*
X206745000Y-105530000D02*
X206745000Y-110930000D01*
X208245000Y-110930000D02*
X208245000Y-105530000D01*
X131745000Y-102930000D02*
X130745000Y-102930000D01*
X130495000Y-106130000D02*
X131995000Y-106130000D01*
X131995000Y-100730000D02*
X130495000Y-100730000D01*
X130745000Y-103930000D02*
X131245000Y-103030000D01*
X130495000Y-100730000D02*
X130495000Y-106130000D01*
X131995000Y-106130000D02*
X131995000Y-100730000D01*
X131245000Y-103030000D02*
X131745000Y-103930000D01*
X131745000Y-103930000D02*
X130745000Y-103930000D01*
X150845000Y-100420000D02*
X149845000Y-100420000D01*
X150345000Y-100520000D02*
X150845000Y-101420000D01*
X149595000Y-103620000D02*
X151095000Y-103620000D01*
X149595000Y-98220000D02*
X149595000Y-103620000D01*
X151095000Y-98220000D02*
X149595000Y-98220000D01*
X151095000Y-103620000D02*
X151095000Y-98220000D01*
X150845000Y-101420000D02*
X149845000Y-101420000D01*
X149845000Y-101420000D02*
X150345000Y-100520000D01*
X167889120Y-98602640D02*
X167889120Y-104002640D01*
X169389120Y-98602640D02*
X167889120Y-98602640D01*
X169139120Y-100802640D02*
X168139120Y-100802640D01*
X169389120Y-104002640D02*
X169389120Y-98602640D01*
X168639120Y-100902640D02*
X169139120Y-101802640D01*
X168139120Y-101802640D02*
X168639120Y-100902640D01*
X167889120Y-104002640D02*
X169389120Y-104002640D01*
X169139120Y-101802640D02*
X168139120Y-101802640D01*
X188639120Y-104402640D02*
X187639120Y-104402640D01*
X187639120Y-104402640D02*
X188139120Y-103502640D01*
X188889120Y-101202640D02*
X187389120Y-101202640D01*
X188139120Y-103502640D02*
X188639120Y-104402640D01*
X187389120Y-106602640D02*
X188889120Y-106602640D01*
X188639120Y-103402640D02*
X187639120Y-103402640D01*
X187389120Y-101202640D02*
X187389120Y-106602640D01*
X188889120Y-106602640D02*
X188889120Y-101202640D01*
X130495000Y-81630000D02*
X130495000Y-87030000D01*
X130495000Y-87030000D02*
X131995000Y-87030000D01*
X131745000Y-84830000D02*
X130745000Y-84830000D01*
X131995000Y-81630000D02*
X130495000Y-81630000D01*
X131995000Y-87030000D02*
X131995000Y-81630000D01*
X130745000Y-84830000D02*
X131245000Y-83930000D01*
X131745000Y-83830000D02*
X130745000Y-83830000D01*
X131245000Y-83930000D02*
X131745000Y-84830000D01*
X169739120Y-119602640D02*
X168739120Y-119602640D01*
X169239120Y-119702640D02*
X169739120Y-120602640D01*
X168489120Y-117402640D02*
X168489120Y-122802640D01*
X169989120Y-122802640D02*
X169989120Y-117402640D01*
X169739120Y-120602640D02*
X168739120Y-120602640D01*
X168739120Y-120602640D02*
X169239120Y-119702640D01*
X168489120Y-122802640D02*
X169989120Y-122802640D01*
X169989120Y-117402640D02*
X168489120Y-117402640D01*
X140250000Y-131900000D02*
X140250000Y-127300000D01*
D12*
X135700000Y-121351000D02*
X144000000Y-121351000D01*
D10*
X136050000Y-129800000D02*
X136050000Y-125250000D01*
X136500000Y-130050000D02*
X136500000Y-125600000D01*
X132450000Y-128850000D02*
X132450000Y-125950000D01*
X140550000Y-131900000D02*
X140550000Y-127300000D01*
X132300000Y-126100000D02*
X133325000Y-125075000D01*
X133350000Y-129700000D02*
X133350000Y-125100000D01*
X135875000Y-125075000D02*
X133325000Y-125075000D01*
X140700000Y-131900000D02*
X140700000Y-127300000D01*
X141650000Y-131500000D02*
X141650000Y-127750000D01*
X134700000Y-129700000D02*
X134700000Y-125100000D01*
X133650000Y-129700000D02*
X133650000Y-125100000D01*
X135450000Y-129700000D02*
X135450000Y-125150000D01*
X141000000Y-131900000D02*
X141000000Y-127350000D01*
X137200000Y-130750000D02*
X137200000Y-126600000D01*
X132300000Y-126100000D02*
X132300000Y-128700000D01*
X136350000Y-129950000D02*
X136350000Y-125500000D01*
X136950000Y-130400000D02*
X136950000Y-125950000D01*
X133800000Y-129700000D02*
X133800000Y-125100000D01*
X141450000Y-131700000D02*
X141450000Y-127500000D01*
X132750000Y-129150000D02*
X132750000Y-125650000D01*
X134250000Y-129700000D02*
X134250000Y-125100000D01*
X135300000Y-129700000D02*
X135300000Y-125100000D01*
X141900000Y-128275000D02*
X141900000Y-130925000D01*
X133950000Y-129700000D02*
X133950000Y-125100000D01*
X140100000Y-131900000D02*
X140100000Y-127300000D01*
X137400000Y-131100000D02*
X137400000Y-126950000D01*
X136800000Y-130250000D02*
X136800000Y-125850000D01*
X133050000Y-129450000D02*
X133050000Y-125350000D01*
X141550000Y-131600000D02*
X141550000Y-127650000D01*
X140900000Y-131925000D02*
X138300000Y-131925000D01*
X132600000Y-128950000D02*
X132600000Y-125800000D01*
X136650000Y-130150000D02*
X136650000Y-125750000D01*
X141750000Y-131350000D02*
X141750000Y-127800000D01*
X132900000Y-129300000D02*
X132900000Y-125500000D01*
X134400000Y-129700000D02*
X134400000Y-125100000D01*
X137850000Y-131750000D02*
X137850000Y-127200000D01*
D12*
X144000000Y-121351000D02*
X144000000Y-119700000D01*
D10*
X139050000Y-131900000D02*
X139050000Y-127300000D01*
X138900000Y-131900000D02*
X138900000Y-127300000D01*
X135150000Y-129700000D02*
X135150000Y-125100000D01*
X135875000Y-125075000D02*
X137150000Y-126100000D01*
X135750000Y-129750000D02*
X135750000Y-125100000D01*
X133500000Y-129700000D02*
X133500000Y-125100000D01*
X141300000Y-131800000D02*
X141300000Y-127400000D01*
X140850000Y-131900000D02*
X140850000Y-127300000D01*
X134850000Y-129700000D02*
X134850000Y-125100000D01*
X133200000Y-129550000D02*
X133200000Y-125200000D01*
X137100000Y-130550000D02*
X137100000Y-126100000D01*
X134550000Y-129700000D02*
X134550000Y-125100000D01*
X138300000Y-131900000D02*
X138300000Y-127300000D01*
X137700000Y-131650000D02*
X137700000Y-127150000D01*
X138750000Y-131900000D02*
X138750000Y-127300000D01*
X138000000Y-131850000D02*
X138000000Y-127300000D01*
X136200000Y-129900000D02*
X136200000Y-125350000D01*
X139200000Y-131900000D02*
X139200000Y-127300000D01*
X140400000Y-131900000D02*
X140400000Y-127300000D01*
X135900000Y-129750000D02*
X135900000Y-125150000D01*
X137500000Y-131250000D02*
X137500000Y-127050000D01*
X139800000Y-131900000D02*
X139800000Y-127300000D01*
X135000000Y-129700000D02*
X135000000Y-125100000D01*
X135300000Y-129725000D02*
X133325000Y-129725000D01*
X139950000Y-131900000D02*
X139950000Y-127300000D01*
X138150000Y-131900000D02*
X138150000Y-127300000D01*
X139650000Y-131900000D02*
X139650000Y-127300000D01*
X140900000Y-127275000D02*
X138325000Y-127275000D01*
X137300000Y-130900000D02*
X137300000Y-126750000D01*
X132300000Y-128700000D02*
X133325000Y-129725000D01*
X139350000Y-131900000D02*
X139350000Y-127300000D01*
X139500000Y-131900000D02*
X139500000Y-127300000D01*
X134100000Y-129700000D02*
X134100000Y-125100000D01*
D12*
X143500000Y-116651000D02*
X135700000Y-116651000D01*
D10*
X138600000Y-131900000D02*
X138600000Y-127300000D01*
X135600000Y-129750000D02*
X135600000Y-125100000D01*
X138450000Y-131900000D02*
X138450000Y-127350000D01*
X141150000Y-131850000D02*
X141150000Y-127350000D01*
X137600000Y-131500000D02*
X137600000Y-127100000D01*
X137437801Y-131221904D02*
G75*
G03*
X135300000Y-129725000I-2137801J-778096D01*
G01*
X140900000Y-131925000D02*
G75*
G03*
X141900000Y-130925000I1J999999D01*
G01*
X141900000Y-128275000D02*
G75*
G03*
X140900000Y-127275000I-999999J1D01*
G01*
X137150000Y-126100000D02*
G75*
G03*
X138325000Y-127275000I1175000J0D01*
G01*
X137437797Y-131221905D02*
G75*
G03*
X138299005Y-131923791I900003J225005D01*
G01*
G36*
X144000000Y-121351000D02*
G01*
X142992000Y-121351000D01*
X144000000Y-120335000D01*
X144000000Y-121351000D01*
G37*
D13*
X144000000Y-121351000D02*
X142992000Y-121351000D01*
X144000000Y-120335000D01*
X144000000Y-121351000D01*
D10*
X99750120Y-70059640D02*
X99750120Y-72345640D01*
X101528120Y-72345640D02*
X101528120Y-70059640D01*
X99750120Y-72345640D02*
X101528120Y-72345640D01*
X101528120Y-70059640D02*
X99750120Y-70059640D01*
X99328120Y-70059640D02*
X97550120Y-70059640D01*
X97550120Y-70059640D02*
X97550120Y-72345640D01*
X99328120Y-72345640D02*
X99328120Y-70059640D01*
X97550120Y-72345640D02*
X99328120Y-72345640D01*
X97118119Y-72345640D02*
X97118119Y-70059640D01*
X95340119Y-70059640D02*
X95340119Y-72345640D01*
X95340119Y-72345640D02*
X97118119Y-72345640D01*
X97118119Y-70059640D02*
X95340119Y-70059640D01*
X103628120Y-70059640D02*
X101850120Y-70059640D01*
X103628120Y-72345640D02*
X103628120Y-70059640D01*
X101850120Y-70059640D02*
X101850120Y-72345640D01*
X101850120Y-72345640D02*
X103628120Y-72345640D01*
X104040119Y-70059640D02*
X104040119Y-72345640D01*
X105818119Y-72345640D02*
X105818119Y-70059640D01*
X105818119Y-70059640D02*
X104040119Y-70059640D01*
X104040119Y-72345640D02*
X105818119Y-72345640D01*
D14*
X108718815Y-42425745D03*
X108718815Y-44965745D03*
X108718815Y-47505745D03*
X108718815Y-50045745D03*
X108718815Y-52585745D03*
X108718815Y-55125745D03*
X108718815Y-57665745D03*
X108718815Y-60205745D03*
X108718815Y-62745745D03*
X108718815Y-65285745D03*
X108718815Y-67825745D03*
X108718815Y-70365745D03*
X93478815Y-70365745D03*
X93478815Y-67825745D03*
X93478815Y-65285745D03*
X93478815Y-62745745D03*
X93478815Y-60205745D03*
X93478815Y-57665745D03*
X93478815Y-55125745D03*
X93478815Y-52585745D03*
X93478815Y-50045745D03*
X93478815Y-47505745D03*
X93478815Y-44965745D03*
X93478815Y-42425745D03*
%LPC*%
D15*
X99102200Y-107150000D03*
D16*
X96352200Y-102130000D03*
X96352200Y-103530000D03*
X101852200Y-103530000D03*
X101852200Y-102130000D03*
D17*
X99102200Y-113050000D03*
X94102200Y-110950000D03*
D18*
X88884120Y-80252640D03*
D19*
X89984120Y-75102640D03*
D18*
X88884120Y-72952640D03*
X91094120Y-72952640D03*
D19*
X89984120Y-78102640D03*
D18*
X91094120Y-80252640D03*
D20*
X91744120Y-78852640D03*
X91744120Y-75852640D03*
X91744120Y-74352640D03*
D21*
X103000000Y-119000000D03*
D22*
X108718815Y-42425745D03*
X92180000Y-41230000D03*
X92180000Y-43770000D03*
X108718815Y-44965745D03*
X108718815Y-47505745D03*
X92180000Y-46310000D03*
X92180000Y-48850000D03*
X108718815Y-50045745D03*
X108718815Y-52585745D03*
X92180000Y-51390000D03*
X92180000Y-53930000D03*
X108718815Y-55125745D03*
X92180000Y-56470000D03*
X108718815Y-57665745D03*
X92180000Y-59010000D03*
X108718815Y-60205745D03*
X92180000Y-61550000D03*
X108718815Y-62745745D03*
X92180000Y-64090000D03*
X108718815Y-65285745D03*
X92180000Y-66630000D03*
X108718815Y-67825745D03*
X92180000Y-69170000D03*
X108718815Y-70365745D03*
X93478815Y-70365745D03*
X107420000Y-69170000D03*
X107420000Y-66630000D03*
X93478815Y-67825745D03*
X107420000Y-64090000D03*
X93478815Y-65285745D03*
X107420000Y-61550000D03*
X93478815Y-62745745D03*
X93478815Y-60205745D03*
X107420000Y-59010000D03*
X93478815Y-57665745D03*
X107420000Y-56470000D03*
X107420000Y-53930000D03*
X93478815Y-55125745D03*
X93478815Y-52585745D03*
X107420000Y-51390000D03*
X107420000Y-48850000D03*
X93478815Y-50045745D03*
X107420000Y-46310000D03*
X93478815Y-47505745D03*
X93478815Y-44965745D03*
X107420000Y-43770000D03*
X93478815Y-42425745D03*
X107420000Y-41230000D03*
D23*
X90339120Y-83152640D03*
X90339120Y-89652640D03*
D24*
X128705000Y-44452000D03*
X128705000Y-48002000D03*
X131245000Y-44455000D03*
X131245000Y-48005000D03*
X150345000Y-41955000D03*
X150345000Y-45505000D03*
X169345000Y-44455000D03*
X169345000Y-48005000D03*
X188239120Y-45327640D03*
X188239120Y-48877640D03*
X207545000Y-49355000D03*
X207545000Y-52905000D03*
X128705000Y-82555000D03*
X128705000Y-86105000D03*
X128705000Y-101655000D03*
X128705000Y-105205000D03*
D25*
X105225000Y-97000000D03*
X108775000Y-97000000D03*
D26*
X95544195Y-124463500D03*
X92469805Y-126238500D03*
D27*
X120550000Y-55900000D03*
D28*
X115050000Y-50000000D03*
D29*
X115330000Y-45800000D03*
D28*
X126050000Y-50000000D03*
D15*
X120550000Y-50000000D03*
D29*
X125770000Y-45800000D03*
D27*
X125550000Y-53700000D03*
X115550000Y-53700000D03*
D16*
X117800000Y-44601000D03*
X117800000Y-46001000D03*
X123300000Y-46001000D03*
X123300000Y-44601000D03*
D30*
X123640000Y-56170000D03*
D31*
X112747500Y-53700000D03*
D28*
X153150000Y-45000000D03*
D15*
X158650000Y-45000000D03*
D29*
X163870000Y-40800000D03*
D27*
X158650000Y-50900000D03*
D29*
X153430000Y-40800000D03*
D27*
X163650000Y-48700000D03*
D28*
X164150000Y-45000000D03*
D27*
X153650000Y-48700000D03*
D16*
X155900000Y-39601000D03*
X155900000Y-41001000D03*
X161400000Y-41001000D03*
X161400000Y-39601000D03*
D30*
X161740000Y-51170000D03*
D32*
X150595000Y-48710000D03*
D15*
X120550000Y-88100000D03*
D27*
X125550000Y-91800000D03*
X120550000Y-94000000D03*
D28*
X126050000Y-88100000D03*
D29*
X125770000Y-83900000D03*
X115330000Y-83900000D03*
D28*
X115050000Y-88100000D03*
D27*
X115550000Y-91800000D03*
D16*
X117800000Y-82701000D03*
X117800000Y-84101000D03*
X123300000Y-84101000D03*
X123300000Y-82701000D03*
D30*
X123640000Y-94270000D03*
D31*
X112747500Y-91800000D03*
D27*
X134600000Y-89300000D03*
D29*
X134380000Y-81400000D03*
X144820000Y-81400000D03*
D15*
X139600000Y-85600000D03*
D27*
X144600000Y-89300000D03*
D28*
X134100000Y-85600000D03*
X145100000Y-85600000D03*
D27*
X139600000Y-91500000D03*
D16*
X136850000Y-80201000D03*
X136850000Y-81601000D03*
X142350000Y-81601000D03*
X142350000Y-80201000D03*
D30*
X142690000Y-91770000D03*
D32*
X131545000Y-89310000D03*
D28*
X115050000Y-107150000D03*
D29*
X125770000Y-102950000D03*
D27*
X125550000Y-110850000D03*
X120550000Y-113050000D03*
D29*
X115330000Y-102950000D03*
D28*
X126050000Y-107150000D03*
D15*
X120550000Y-107150000D03*
D27*
X115550000Y-110850000D03*
D16*
X117800000Y-101751000D03*
X117800000Y-103151000D03*
X123300000Y-103151000D03*
X123300000Y-101751000D03*
D30*
X123640000Y-113320000D03*
D31*
X112747500Y-110850000D03*
D27*
X158650000Y-108050000D03*
D28*
X153150000Y-102150000D03*
D29*
X163870000Y-97950000D03*
D27*
X153650000Y-105850000D03*
X163650000Y-105850000D03*
D28*
X164150000Y-102150000D03*
D15*
X158650000Y-102150000D03*
D29*
X153430000Y-97950000D03*
D16*
X155900000Y-96751000D03*
X155900000Y-98151000D03*
X161400000Y-98151000D03*
X161400000Y-96751000D03*
D30*
X161740000Y-108320000D03*
D32*
X150595000Y-105860000D03*
D28*
X202250000Y-109550000D03*
X191250000Y-109550000D03*
D29*
X191530000Y-105350000D03*
D27*
X191750000Y-113250000D03*
X201750000Y-113250000D03*
X196750000Y-115450000D03*
D15*
X196750000Y-109550000D03*
D29*
X201970000Y-105350000D03*
D16*
X194000000Y-104151000D03*
X194000000Y-105551000D03*
X199500000Y-105551000D03*
X199500000Y-104151000D03*
D30*
X199840000Y-115720000D03*
D32*
X188695000Y-113260000D03*
D27*
X91600450Y-136350000D03*
X91005706Y-130919873D03*
D29*
X102957307Y-135820653D03*
X97737307Y-126779347D03*
D27*
X96005706Y-139580127D03*
D28*
X99460000Y-138163140D03*
X93960000Y-128636860D03*
D15*
X96710000Y-133400000D03*
D33*
X100010671Y-128318930D03*
X98798236Y-129018930D03*
X101548236Y-133782070D03*
X102760671Y-133082070D03*
D34*
X92911623Y-139161018D03*
D35*
X89469546Y-128279165D03*
D36*
X91500000Y-93500000D03*
D37*
X95369408Y-74600000D03*
X97909408Y-74600000D03*
X100449408Y-74600000D03*
X102989408Y-74600000D03*
X105529408Y-74600000D03*
D36*
X107000000Y-93500000D03*
D17*
X101602200Y-99650000D03*
X96602200Y-99650000D03*
X99102200Y-99650000D03*
D38*
X93604150Y-107150000D03*
X104600250Y-107150000D03*
D39*
X96602200Y-114150000D03*
X101602200Y-114150000D03*
D28*
X112287408Y-129823505D03*
D29*
X111470827Y-125694147D03*
D28*
X122912592Y-126976495D03*
D27*
X113728001Y-133268021D03*
D15*
X117600000Y-128400000D03*
D27*
X123387260Y-130679830D03*
D29*
X121555093Y-122992076D03*
D27*
X119127032Y-134098962D03*
D40*
X113546340Y-123896719D03*
X113908687Y-125249015D03*
X119221279Y-123825510D03*
X118858932Y-122473214D03*
D41*
X122181624Y-133560011D03*
D42*
X110779686Y-134068372D03*
D27*
X215800000Y-77350000D03*
D28*
X210300000Y-71450000D03*
X221300000Y-71450000D03*
D27*
X210800000Y-75150000D03*
X220800000Y-75150000D03*
D15*
X215800000Y-71450000D03*
D29*
X210580000Y-67250000D03*
X221020000Y-67250000D03*
D16*
X213050000Y-66051000D03*
X213050000Y-67451000D03*
X218550000Y-67451000D03*
X218550000Y-66051000D03*
D30*
X218890000Y-77620000D03*
D32*
X207745000Y-75160000D03*
D15*
X215800000Y-90500000D03*
D29*
X221020000Y-86300000D03*
D28*
X221300000Y-90500000D03*
D27*
X220800000Y-94200000D03*
X215800000Y-96400000D03*
D28*
X210300000Y-90500000D03*
D27*
X210800000Y-94200000D03*
D29*
X210580000Y-86300000D03*
D16*
X213050000Y-85101000D03*
X213050000Y-86501000D03*
X218550000Y-86501000D03*
X218550000Y-85101000D03*
D30*
X218890000Y-96670000D03*
D32*
X207745000Y-94210000D03*
D28*
X221300000Y-109550000D03*
X210300000Y-109550000D03*
D15*
X215800000Y-109550000D03*
D27*
X210800000Y-113250000D03*
D29*
X221020000Y-105350000D03*
D27*
X215800000Y-115450000D03*
D29*
X210580000Y-105350000D03*
D27*
X220800000Y-113250000D03*
D16*
X213050000Y-104151000D03*
X213050000Y-105551000D03*
X218550000Y-105551000D03*
X218550000Y-104151000D03*
D30*
X218890000Y-115720000D03*
D32*
X207745000Y-113260000D03*
D27*
X172700000Y-51200000D03*
D15*
X177700000Y-47500000D03*
D28*
X172200000Y-47500000D03*
X183200000Y-47500000D03*
D27*
X177700000Y-53400000D03*
X182700000Y-51200000D03*
D29*
X172480000Y-43300000D03*
X182920000Y-43300000D03*
D16*
X174950000Y-42101000D03*
X174950000Y-43501000D03*
X180450000Y-43501000D03*
X180450000Y-42101000D03*
D30*
X180790000Y-53670000D03*
D32*
X169645000Y-51210000D03*
D21*
X206000000Y-61500000D03*
D24*
X128705000Y-63555000D03*
X128705000Y-67105000D03*
X131245000Y-63555000D03*
X131245000Y-67105000D03*
X150345000Y-61045000D03*
X150345000Y-64595000D03*
X169345000Y-63455000D03*
X169345000Y-67005000D03*
X188439120Y-64927640D03*
X188439120Y-68477640D03*
X207445000Y-68255000D03*
X207445000Y-71805000D03*
D27*
X201750000Y-56100000D03*
X196750000Y-58300000D03*
D28*
X191250000Y-52400000D03*
D27*
X191750000Y-56100000D03*
D29*
X201970000Y-48200000D03*
X191530000Y-48200000D03*
D28*
X202250000Y-52400000D03*
D15*
X196750000Y-52400000D03*
D16*
X194000000Y-47001000D03*
X194000000Y-48401000D03*
X199500000Y-48401000D03*
X199500000Y-47001000D03*
D30*
X199840000Y-58570000D03*
D32*
X188695000Y-56110000D03*
D27*
X139600000Y-72450000D03*
X144600000Y-70250000D03*
X134600000Y-70250000D03*
D28*
X134100000Y-66550000D03*
D15*
X139600000Y-66550000D03*
D29*
X144820000Y-62350000D03*
D28*
X145100000Y-66550000D03*
D29*
X134380000Y-62350000D03*
D16*
X136850000Y-61151000D03*
X136850000Y-62551000D03*
X142350000Y-62551000D03*
X142350000Y-61151000D03*
D30*
X142690000Y-72720000D03*
D32*
X131545000Y-70260000D03*
D29*
X182920000Y-62350000D03*
D28*
X183200000Y-66550000D03*
X172200000Y-66550000D03*
D27*
X177700000Y-72450000D03*
D29*
X172480000Y-62350000D03*
D27*
X172700000Y-70250000D03*
X182700000Y-70250000D03*
D15*
X177700000Y-66550000D03*
D16*
X174950000Y-61151000D03*
X174950000Y-62551000D03*
X180450000Y-62551000D03*
X180450000Y-61151000D03*
D30*
X180790000Y-72720000D03*
D32*
X169645000Y-70260000D03*
D29*
X163870000Y-59850000D03*
X153430000Y-59850000D03*
D27*
X163650000Y-67750000D03*
D15*
X158650000Y-64050000D03*
D27*
X158650000Y-69950000D03*
D28*
X164150000Y-64050000D03*
X153150000Y-64050000D03*
D27*
X153650000Y-67750000D03*
D16*
X155900000Y-58651000D03*
X155900000Y-60051000D03*
X161400000Y-60051000D03*
X161400000Y-58651000D03*
D30*
X161740000Y-70220000D03*
D32*
X150595000Y-67760000D03*
D29*
X182920000Y-81400000D03*
D27*
X172700000Y-89300000D03*
D29*
X172480000Y-81400000D03*
D15*
X177700000Y-85600000D03*
D27*
X177700000Y-91500000D03*
D28*
X183200000Y-85600000D03*
X172200000Y-85600000D03*
D27*
X182700000Y-89300000D03*
D16*
X174950000Y-80201000D03*
X174950000Y-81601000D03*
X180450000Y-81601000D03*
X180450000Y-80201000D03*
D30*
X180790000Y-91770000D03*
D32*
X169645000Y-89310000D03*
D29*
X221020000Y-48200000D03*
D28*
X210300000Y-52400000D03*
D29*
X210580000Y-48200000D03*
D27*
X210800000Y-56100000D03*
D15*
X215800000Y-52400000D03*
D27*
X220800000Y-56100000D03*
D28*
X221300000Y-52400000D03*
D27*
X215800000Y-58300000D03*
D16*
X213050000Y-47001000D03*
X213050000Y-48401000D03*
X218550000Y-48401000D03*
X218550000Y-47001000D03*
D30*
X218890000Y-58570000D03*
D32*
X207745000Y-56110000D03*
D27*
X115550000Y-72800000D03*
X125550000Y-72800000D03*
D15*
X120550000Y-69100000D03*
D28*
X115050000Y-69100000D03*
X126050000Y-69100000D03*
D29*
X125770000Y-64900000D03*
D27*
X120550000Y-75000000D03*
D29*
X115330000Y-64900000D03*
D16*
X117800000Y-63701000D03*
X117800000Y-65101000D03*
X123300000Y-65101000D03*
X123300000Y-63701000D03*
D30*
X123640000Y-75270000D03*
D31*
X112747500Y-72800000D03*
D27*
X177700000Y-129600000D03*
X182700000Y-127400000D03*
X172700000Y-127400000D03*
D15*
X177700000Y-123700000D03*
D28*
X183200000Y-123700000D03*
D29*
X182920000Y-119500000D03*
D28*
X172200000Y-123700000D03*
D29*
X172480000Y-119500000D03*
D16*
X174950000Y-118301000D03*
X174950000Y-119701000D03*
X180450000Y-119701000D03*
X180450000Y-118301000D03*
D30*
X180790000Y-129870000D03*
D32*
X169645000Y-127410000D03*
D28*
X202250000Y-71450000D03*
D27*
X201750000Y-75150000D03*
X196750000Y-77350000D03*
D29*
X201970000Y-67250000D03*
D28*
X191250000Y-71450000D03*
D27*
X191750000Y-75150000D03*
D15*
X196750000Y-71450000D03*
D29*
X191530000Y-67250000D03*
D16*
X194000000Y-66051000D03*
X194000000Y-67451000D03*
X199500000Y-67451000D03*
X199500000Y-66051000D03*
D30*
X199840000Y-77620000D03*
D32*
X188695000Y-75160000D03*
D28*
X172200000Y-104650000D03*
D27*
X177700000Y-110550000D03*
D29*
X182920000Y-100450000D03*
D27*
X182700000Y-108350000D03*
X172700000Y-108350000D03*
D29*
X172480000Y-100450000D03*
D28*
X183200000Y-104650000D03*
D15*
X177700000Y-104650000D03*
D16*
X174950000Y-99251000D03*
X174950000Y-100651000D03*
X180450000Y-100651000D03*
X180450000Y-99251000D03*
D30*
X180790000Y-110820000D03*
D32*
X169645000Y-108360000D03*
D15*
X196750000Y-90500000D03*
D27*
X201750000Y-94200000D03*
X196750000Y-96400000D03*
D28*
X191250000Y-90500000D03*
X202250000Y-90500000D03*
D29*
X191530000Y-86300000D03*
D27*
X191750000Y-94200000D03*
D29*
X201970000Y-86300000D03*
D16*
X194000000Y-85101000D03*
X194000000Y-86501000D03*
X199500000Y-86501000D03*
X199500000Y-85101000D03*
D30*
X199840000Y-96670000D03*
D32*
X188695000Y-94210000D03*
D29*
X153430000Y-117000000D03*
X163870000Y-117000000D03*
D27*
X163650000Y-124900000D03*
D28*
X153150000Y-121200000D03*
D15*
X158650000Y-121200000D03*
D27*
X153650000Y-124900000D03*
X158650000Y-127100000D03*
D28*
X164150000Y-121200000D03*
D16*
X155900000Y-115801000D03*
X155900000Y-117201000D03*
X161400000Y-117201000D03*
X161400000Y-115801000D03*
D30*
X161740000Y-127370000D03*
D32*
X150595000Y-124910000D03*
D29*
X163870000Y-78900000D03*
D27*
X158650000Y-89000000D03*
D28*
X164150000Y-83100000D03*
D15*
X158650000Y-83100000D03*
D28*
X153150000Y-83100000D03*
D29*
X153430000Y-78900000D03*
D27*
X153650000Y-86800000D03*
X163650000Y-86800000D03*
D16*
X155900000Y-77701000D03*
X155900000Y-79101000D03*
X161400000Y-79101000D03*
X161400000Y-77701000D03*
D30*
X161740000Y-89270000D03*
D32*
X150595000Y-86810000D03*
D27*
X144600000Y-51200000D03*
X134600000Y-51200000D03*
D28*
X145100000Y-47500000D03*
D29*
X144820000Y-43300000D03*
D15*
X139600000Y-47500000D03*
D29*
X134380000Y-43300000D03*
D28*
X134100000Y-47500000D03*
D27*
X139600000Y-53400000D03*
D16*
X136850000Y-42101000D03*
X136850000Y-43501000D03*
X142350000Y-43501000D03*
X142350000Y-42101000D03*
D30*
X142690000Y-53670000D03*
D32*
X131545000Y-51210000D03*
D43*
X108914596Y-127446482D03*
X109833404Y-130875518D03*
D27*
X144600000Y-108350000D03*
D29*
X144820000Y-100450000D03*
D27*
X139600000Y-110550000D03*
D28*
X134100000Y-104650000D03*
D15*
X139600000Y-104650000D03*
D29*
X134380000Y-100450000D03*
D27*
X134600000Y-108350000D03*
D28*
X145100000Y-104650000D03*
D16*
X136850000Y-99251000D03*
X136850000Y-100651000D03*
X142350000Y-100651000D03*
X142350000Y-99251000D03*
D30*
X142690000Y-110820000D03*
D32*
X131545000Y-108360000D03*
D21*
X206000000Y-100000000D03*
D24*
X150345000Y-80145000D03*
X150345000Y-83695000D03*
X168839120Y-80427640D03*
X168839120Y-83977640D03*
X188139120Y-82927640D03*
X188139120Y-86477640D03*
X207445000Y-87455000D03*
X207445000Y-91005000D03*
X131245000Y-120655000D03*
X131245000Y-124205000D03*
X150345000Y-118245000D03*
X150345000Y-121795000D03*
X207495000Y-106455000D03*
X207495000Y-110005000D03*
X131245000Y-101655000D03*
X131245000Y-105205000D03*
X150345000Y-99145000D03*
X150345000Y-102695000D03*
X168639120Y-99527640D03*
X168639120Y-103077640D03*
X188139120Y-102127640D03*
X188139120Y-105677640D03*
X131245000Y-82555000D03*
X131245000Y-86105000D03*
X169239120Y-118327640D03*
X169239120Y-121877640D03*
D15*
X139600000Y-123700000D03*
D27*
X134600000Y-127400000D03*
X139600000Y-129600000D03*
X144600000Y-127400000D03*
D28*
X134100000Y-123700000D03*
X145100000Y-123700000D03*
D29*
X134380000Y-119500000D03*
X144820000Y-119500000D03*
D16*
X136850000Y-118301000D03*
X136850000Y-119701000D03*
X142350000Y-119701000D03*
X142350000Y-118301000D03*
D30*
X142690000Y-129870000D03*
D32*
X131545000Y-127410000D03*
D21*
X130527120Y-57573640D03*
X130375120Y-95852640D03*
D44*
X94639120Y-81602640D03*
D45*
X94639120Y-79602640D03*
X94639120Y-83602640D03*
D19*
X89984120Y-75102640D03*
X89984120Y-78102640D03*
D46*
X99339120Y-93602640D03*
D47*
X101339120Y-93602640D03*
X97339120Y-93602640D03*
D48*
X100639120Y-71652640D03*
X100639120Y-70752640D03*
X98439120Y-71652640D03*
X98439120Y-70752640D03*
X96229119Y-71652640D03*
X96229119Y-70752640D03*
X102739120Y-71652640D03*
X102739120Y-70752640D03*
X104929119Y-71652640D03*
X104929119Y-70752640D03*
M02*
